%
M48
M72
T01C0.0118
T02C0.0200
T03C0.0354
T04C0.0405
T05C0.0551
T06C0.0630
T07C0.0669
T08C0.0935
T09C0.1250
T10C0.1378
T11C0.1417
T12C0.2520
%
T01
X12345Y25345
X12640Y25345
X12640Y25640
X12345Y25640
X12345Y25935
X12640Y25935
X12935Y25935
X12935Y25640
X12935Y25345
T02
X12640Y24203
X12984Y23859
X13453Y23734
X13921Y23734
X14296Y24234
X15953Y23796
X17171Y23390
X17984Y22953
X19078Y23640
X20953Y25203
X22860Y24859
X23065Y25375
X23230Y26090
X24290Y25130
X25078Y24453
X24984Y23640
X24703Y23203
X25390Y23203
X23703Y23203
X22921Y22578
X21421Y22828
X19765Y21984
X18671Y21703
X19953Y20734
X21640Y20640
X21640Y21140
X18046Y19921
X15140Y21140
X14609Y21171
X10953Y21796
X11484Y24328
X10390Y25671
X10828Y25796
X11139Y26108
X11828Y26765
X12734Y27265
X13640Y26671
X13796Y27640
X14890Y27921
X15953Y27703
X16859Y27953
X17921Y26734
X16453Y25015
X15609Y26546
X14328Y29453
X13453Y30546
X12921Y29328
X10796Y31078
X10046Y26953
X9171Y26234
X9546Y25765
X8515Y25671
X8828Y24953
X7140Y23140
X7140Y21640
X4140Y21640
X4140Y23140
X5234Y24234
X4834Y25984
X4834Y26421
X4834Y26859
X2334Y28015
X4928Y29859
X4928Y30296
X20109Y28359
X24078Y26953
X24828Y27171
X25328Y27140
X24703Y26265
X25921Y26140
X26515Y26828
X27328Y27390
X28953Y26953
X29640Y27390
X28765Y28703
X28328Y28703
X27640Y29640
X26828Y29265
X25328Y28900
X24453Y30421
X24453Y30984
X27640Y30953
X28453Y30453
X27984Y31640
X31640Y30140
X32640Y31140
X34140Y33140
X39203Y31046
X40328Y32671
X40734Y33671
X39046Y28828
X38515Y28828
X40546Y27953
X41296Y27859
X41953Y27859
X38578Y24671
X38578Y23671
X37578Y23671
X37578Y24671
X40203Y22046
X38140Y21203
X37484Y21078
X35765Y21265
X40671Y19015
X30234Y16140
X29640Y19140
X27640Y19640
X30296Y22296
X27890Y22828
X30265Y24703
X31640Y27640
X32640Y28640
X20578Y31953
X9671Y18328
X7421Y18109
X8203Y14140
X4640Y13640
X2140Y13640
X13109Y15078
X15671Y16234
T03
X32065Y17746
X32853Y17746
X33640Y17746
X34427Y17746
X34427Y18534
X33640Y18534
X32853Y18534
X32065Y18534
X35215Y18534
X35215Y17746
T04
X35296Y25640
X16359Y28734
X16359Y29828
X8640Y22640
X8328Y19171
X7109Y19171
X2990Y28740
X2990Y29540
X5990Y29140
T05
X31371Y7650
X33734Y7650
T06
X33140Y33140
X30140Y33140
X27140Y33140
X24140Y33140
X21140Y33140
X18140Y33140
X15140Y33140
X12140Y33140
X36140Y33140
X39140Y33140
T07
X24915Y7650
T08
X5990Y28140
X3740Y28140
X3740Y30140
X5990Y30140
T09
X23140Y14640
X26640Y14640
T10
X8605Y5652
X40101Y5652
X40101Y29274
X8605Y29274
T11
X20800Y3890
X37730Y3890
T12
X24355Y19719
M30
