G75*
G70*
%OFA0B0*%
%FSLAX24Y24*%
%IPPOS*%
%LPD*%
%AMOC8*
5,1,8,0,0,1.08239X$1,22.5*
%
%ADD10C,0.0338*%
%ADD11C,0.0370*%
%ADD12C,0.0465*%
%ADD13C,0.0460*%
%ADD14R,0.0410X0.0310*%
%ADD15C,0.0380*%
%ADD16C,0.0360*%
D10*
X002797Y003058D03*
X002797Y003353D03*
X002797Y003649D03*
X003093Y003649D03*
X003388Y003649D03*
X003388Y003353D03*
X003093Y003353D03*
X003093Y003058D03*
X003388Y003058D03*
D11*
X004024Y005386D03*
X004024Y005886D03*
X004524Y005886D03*
X005024Y005886D03*
X005524Y005886D03*
X006024Y005886D03*
X006024Y005386D03*
X005524Y005386D03*
X005024Y005386D03*
X004524Y005386D03*
X007024Y005386D03*
X007024Y005886D03*
X007524Y005886D03*
X007524Y005386D03*
X008024Y005386D03*
X008024Y005886D03*
D12*
X003524Y005636D03*
D13*
X006524Y006036D03*
X006524Y005236D03*
X008524Y005636D03*
D14*
X001430Y005541D03*
X001430Y006041D03*
X001430Y006541D03*
X001430Y007041D03*
X001430Y007541D03*
X001430Y005041D03*
X001430Y004541D03*
X001430Y004041D03*
X001430Y003541D03*
X001430Y003041D03*
X001430Y002541D03*
X001430Y002041D03*
D15*
X001836Y005260D03*
X002211Y006072D03*
X001399Y006541D03*
X001399Y007041D03*
X002993Y005978D03*
X004305Y009166D03*
X002884Y010155D03*
X002504Y010155D03*
X001555Y009385D03*
D16*
X001461Y001666D03*
X001836Y001885D03*
X001834Y002260D03*
X001868Y002728D03*
X002334Y002421D03*
X001836Y003135D03*
X001944Y003541D03*
X001824Y004541D03*
X002649Y005252D03*
X002959Y005057D03*
X002928Y004666D03*
X003410Y004831D03*
X003740Y004478D03*
X004069Y004641D03*
X004211Y004146D03*
X004575Y004248D03*
X004835Y004508D03*
X004346Y003658D03*
X004310Y003275D03*
X004294Y002775D03*
X004384Y002010D03*
X004744Y002001D03*
X005204Y002041D03*
X006405Y001853D03*
X007599Y002406D03*
X007814Y002696D03*
X007786Y003056D03*
X008899Y002791D03*
X008899Y003666D03*
X009774Y003666D03*
X009774Y002791D03*
X009914Y001666D03*
X009554Y001666D03*
X008254Y001853D03*
X006930Y004572D03*
X005993Y004916D03*
X005680Y006386D03*
X006586Y007291D03*
X006993Y007686D03*
X007680Y006978D03*
X007680Y006385D03*
X009430Y006260D03*
X010274Y005666D03*
X010649Y005416D03*
X010586Y006135D03*
X010654Y007541D03*
X010654Y008666D03*
X007586Y009523D03*
X006493Y008471D03*
X005384Y008736D03*
X005368Y007978D03*
X004461Y007853D03*
X004594Y006393D03*
X004024Y006416D03*
X002149Y005541D03*
X005743Y009541D03*
X006305Y010966D03*
X008384Y004743D03*
M02*
