G75*
%MOIN*%
%OFA0B0*%
%FSLAX24Y24*%
%IPPOS*%
%LPD*%
%AMOC8*
5,1,8,0,0,1.08239X$1,22.5*
%
%ADD10R,0.0177X0.0315*%
%ADD11R,0.0394X0.0315*%
%ADD12R,0.0256X0.0098*%
%ADD13R,0.0315X0.0551*%
%ADD14R,0.0591X0.0512*%
%ADD15R,0.0236X0.0276*%
%ADD16R,0.0276X0.0236*%
%ADD17R,0.0315X0.0394*%
%ADD18R,0.0512X0.0591*%
%ADD19R,0.0217X0.0138*%
%ADD20R,0.0157X0.0315*%
%ADD21R,0.0138X0.0217*%
%ADD22R,0.1004X0.0453*%
%ADD23C,0.0110*%
%ADD24R,0.0827X0.0827*%
%ADD25C,0.0278*%
%ADD26R,0.0433X0.0591*%
%ADD27R,0.0215X0.0211*%
%ADD28C,0.0080*%
%ADD29R,0.1811X0.1811*%
%ADD30C,0.0087*%
%ADD31R,0.0211X0.0215*%
%ADD32R,0.0315X0.0354*%
%ADD33R,0.0335X0.0138*%
%ADD34R,0.0551X0.0315*%
%ADD35R,0.0197X0.0394*%
%ADD36R,0.0315X0.0945*%
%ADD37R,0.0394X0.0197*%
%ADD38R,0.0600X0.0250*%
%ADD39R,0.0500X0.0250*%
%ADD40C,0.0060*%
%ADD41C,0.0320*%
%ADD42C,0.0100*%
%ADD43C,0.0300*%
%ADD44C,0.0160*%
%ADD45C,0.0120*%
%ADD46C,0.0240*%
%ADD47C,0.0150*%
D10*
X002461Y010515D03*
X002461Y010895D03*
X002953Y010895D03*
X002953Y010515D03*
D11*
X003307Y010277D03*
X003307Y010887D03*
D12*
X005333Y010276D03*
X005333Y010020D03*
X005333Y009764D03*
X006160Y009764D03*
X006160Y010020D03*
X006160Y010276D03*
D13*
X005746Y010020D03*
D14*
X006807Y009826D03*
X006807Y010574D03*
D15*
X006334Y010595D03*
X005901Y010595D03*
X005584Y010595D03*
X005191Y010595D03*
X004854Y010475D03*
X004854Y010810D03*
X004461Y010810D03*
X004461Y010475D03*
X004681Y009114D03*
X004643Y008770D03*
X005037Y008770D03*
X005074Y009114D03*
X005456Y009145D03*
X005849Y009145D03*
X006112Y007676D03*
X006506Y007676D03*
X007362Y007739D03*
X007368Y007382D03*
X007756Y007739D03*
X007762Y007382D03*
X005693Y005270D03*
X005299Y005270D03*
X004974Y004835D03*
X004581Y004835D03*
X004644Y006025D03*
X004211Y006025D03*
X004956Y006332D03*
X005349Y006332D03*
X005537Y006739D03*
X005537Y007082D03*
X005143Y007082D03*
X005143Y006739D03*
X001849Y006137D03*
X001849Y005801D03*
X001456Y005801D03*
X001456Y006137D03*
X001373Y007380D03*
X001767Y007380D03*
X004453Y001632D03*
X004847Y001632D03*
X010271Y001645D03*
X010664Y001645D03*
D16*
X007157Y001638D03*
X007157Y002032D03*
X005559Y002049D03*
X005559Y001616D03*
X002867Y001654D03*
X002527Y001654D03*
X002192Y001655D03*
X002192Y002049D03*
X002527Y002048D03*
X002867Y002048D03*
X002215Y004228D03*
X002215Y004622D03*
X001767Y006490D03*
X001767Y006884D03*
X001711Y008604D03*
X001374Y008604D03*
X001374Y008998D03*
X001711Y008998D03*
X004559Y009635D03*
X004559Y010029D03*
X004996Y010029D03*
X004996Y009635D03*
X005747Y008672D03*
X005747Y008278D03*
X005746Y007935D03*
X005746Y007542D03*
X004807Y007102D03*
X004807Y006708D03*
X004527Y005705D03*
X004527Y005272D03*
X007315Y005948D03*
X007315Y006342D03*
X006857Y008018D03*
X006857Y008412D03*
X006965Y008760D03*
X006965Y009154D03*
D17*
X007342Y010426D03*
X007361Y010889D03*
X007971Y010889D03*
X007953Y010426D03*
X004603Y002405D03*
X003992Y002405D03*
D18*
G36*
X007725Y008491D02*
X007662Y007984D01*
X007077Y008057D01*
X007140Y008564D01*
X007725Y008491D01*
G37*
G36*
X007818Y009233D02*
X007755Y008726D01*
X007170Y008799D01*
X007233Y009306D01*
X007818Y009233D01*
G37*
D19*
X005714Y006057D03*
X005714Y005545D03*
X004966Y005545D03*
X004966Y005801D03*
X004966Y006057D03*
D20*
X005093Y007462D03*
X005349Y007462D03*
X004837Y007462D03*
X004581Y007462D03*
X004581Y008328D03*
X004837Y008328D03*
X005093Y008328D03*
X005349Y008328D03*
D21*
X006072Y008021D03*
X006583Y008021D03*
X006583Y008769D03*
X006327Y008769D03*
X006072Y008769D03*
D22*
X001777Y009851D03*
X001777Y010776D03*
D23*
X002604Y004222D02*
X002604Y003998D01*
X002801Y003998D02*
X002801Y004222D01*
X002998Y004222D02*
X002998Y003998D01*
X003195Y003998D02*
X003195Y004222D01*
X003391Y004222D02*
X003391Y003998D01*
X003588Y003998D02*
X003588Y004222D01*
X003762Y003824D02*
X003986Y003824D01*
X003986Y003628D02*
X003762Y003628D01*
X003762Y003431D02*
X003986Y003431D01*
X003986Y003234D02*
X003762Y003234D01*
X003762Y003037D02*
X003986Y003037D01*
X003986Y002840D02*
X003762Y002840D01*
X003588Y002667D02*
X003588Y002443D01*
X003391Y002443D02*
X003391Y002667D01*
X003195Y002667D02*
X003195Y002443D01*
X002998Y002443D02*
X002998Y002667D01*
X002801Y002667D02*
X002801Y002443D01*
X002604Y002443D02*
X002604Y002667D01*
X002431Y002840D02*
X002207Y002840D01*
X002207Y003037D02*
X002431Y003037D01*
X002431Y003234D02*
X002207Y003234D01*
X002207Y003431D02*
X002431Y003431D01*
X002431Y003628D02*
X002207Y003628D01*
X002207Y003824D02*
X002431Y003824D01*
D24*
X003096Y003332D03*
D25*
X003096Y003332D03*
X003391Y003332D03*
X003391Y003628D03*
X003096Y003628D03*
X002801Y003628D03*
X002801Y003332D03*
X002801Y003037D03*
X003096Y003037D03*
X003391Y003037D03*
D26*
X003283Y001800D03*
X003952Y001800D03*
D27*
X007402Y002724D03*
X007402Y003065D03*
X008067Y004502D03*
X008067Y004843D03*
X008715Y004774D03*
X008715Y005115D03*
X006007Y006219D03*
X006007Y006560D03*
D28*
X001272Y001536D02*
X001269Y001539D01*
X001268Y001543D01*
X001267Y001545D01*
X001267Y005542D01*
X001283Y005533D01*
X001319Y005523D01*
X001436Y005523D01*
X001436Y005782D01*
X001475Y005782D01*
X001475Y005523D01*
X001592Y005523D01*
X001628Y005533D01*
X001660Y005551D01*
X001681Y005572D01*
X001690Y005563D01*
X001902Y005563D01*
X001902Y005470D01*
X001940Y005378D01*
X002011Y005308D01*
X002103Y005270D01*
X002202Y005270D01*
X002294Y005308D01*
X002364Y005378D01*
X002402Y005470D01*
X002402Y005570D01*
X002364Y005661D01*
X002355Y005671D01*
X002630Y005671D01*
X003017Y005284D01*
X003012Y005286D01*
X002913Y005286D01*
X002902Y005282D01*
X002864Y005373D01*
X002794Y005443D01*
X002702Y005481D01*
X002603Y005481D01*
X002511Y005443D01*
X002440Y005373D01*
X002402Y005281D01*
X002402Y005181D01*
X002407Y005170D01*
X002335Y005097D01*
X002335Y004840D01*
X002036Y004840D01*
X001987Y004791D01*
X001954Y004791D01*
X001898Y004795D01*
X001893Y004791D01*
X001887Y004791D01*
X001865Y004770D01*
X001778Y004770D01*
X001686Y004732D01*
X001615Y004661D01*
X001577Y004570D01*
X001577Y004470D01*
X001615Y004378D01*
X001686Y004308D01*
X001778Y004270D01*
X001877Y004270D01*
X001969Y004308D01*
X001977Y004316D01*
X001977Y004150D01*
X001599Y004150D01*
X001380Y003931D01*
X001304Y003855D01*
X001304Y002372D01*
X001380Y002296D01*
X001460Y002216D01*
X001460Y002060D01*
X001595Y001925D01*
X001590Y001913D01*
X001590Y001814D01*
X001628Y001722D01*
X001698Y001652D01*
X001790Y001614D01*
X001890Y001614D01*
X001915Y001624D01*
X001915Y001535D01*
X001277Y001535D01*
X001275Y001535D01*
X001272Y001536D01*
X001267Y001551D02*
X001915Y001551D01*
X001945Y001636D02*
X001982Y001652D01*
X002004Y001674D01*
X002173Y001674D01*
X002173Y001636D01*
X001945Y001636D01*
X001752Y001629D02*
X001267Y001629D01*
X001267Y001708D02*
X001642Y001708D01*
X001601Y001786D02*
X001267Y001786D01*
X001267Y001865D02*
X001590Y001865D01*
X001576Y001943D02*
X001267Y001943D01*
X001267Y002022D02*
X001498Y002022D01*
X001460Y002100D02*
X001267Y002100D01*
X001267Y002179D02*
X001460Y002179D01*
X001419Y002257D02*
X001267Y002257D01*
X001267Y002336D02*
X001340Y002336D01*
X001380Y002296D02*
X001380Y002296D01*
X001304Y002414D02*
X001267Y002414D01*
X001267Y002493D02*
X001304Y002493D01*
X001304Y002571D02*
X001267Y002571D01*
X001267Y002650D02*
X001304Y002650D01*
X001304Y002728D02*
X001267Y002728D01*
X001267Y002807D02*
X001304Y002807D01*
X001304Y002885D02*
X001267Y002885D01*
X001267Y002964D02*
X001304Y002964D01*
X001304Y003042D02*
X001267Y003042D01*
X001267Y003121D02*
X001304Y003121D01*
X001304Y003199D02*
X001267Y003199D01*
X001267Y003278D02*
X001304Y003278D01*
X001304Y003356D02*
X001267Y003356D01*
X001267Y003435D02*
X001304Y003435D01*
X001304Y003513D02*
X001267Y003513D01*
X001267Y003592D02*
X001304Y003592D01*
X001304Y003670D02*
X001267Y003670D01*
X001267Y003749D02*
X001304Y003749D01*
X001304Y003827D02*
X001267Y003827D01*
X001267Y003906D02*
X001355Y003906D01*
X001433Y003984D02*
X001267Y003984D01*
X001267Y004063D02*
X001512Y004063D01*
X001590Y004141D02*
X001267Y004141D01*
X001267Y004220D02*
X001977Y004220D01*
X001977Y004298D02*
X001946Y004298D01*
X001709Y004298D02*
X001267Y004298D01*
X001267Y004377D02*
X001617Y004377D01*
X001584Y004455D02*
X001267Y004455D01*
X001267Y004534D02*
X001577Y004534D01*
X001595Y004612D02*
X001267Y004612D01*
X001267Y004691D02*
X001645Y004691D01*
X001776Y004769D02*
X001267Y004769D01*
X001267Y004848D02*
X002335Y004848D01*
X002335Y004926D02*
X001267Y004926D01*
X001267Y005005D02*
X002335Y005005D01*
X002335Y005083D02*
X001267Y005083D01*
X001267Y005162D02*
X002399Y005162D01*
X002402Y005240D02*
X001267Y005240D01*
X001267Y005319D02*
X002000Y005319D01*
X001933Y005397D02*
X001267Y005397D01*
X001267Y005476D02*
X001902Y005476D01*
X001902Y005554D02*
X001663Y005554D01*
X001475Y005554D02*
X001436Y005554D01*
X001436Y005633D02*
X001475Y005633D01*
X001475Y005711D02*
X001436Y005711D01*
X002067Y005931D02*
X002067Y005980D01*
X002067Y006317D01*
X002042Y006342D01*
X002045Y006354D01*
X002045Y006412D01*
X002241Y006216D01*
X002317Y006140D01*
X002661Y006140D01*
X002752Y006048D01*
X002736Y006009D01*
X002736Y005931D01*
X002067Y005931D01*
X002067Y005947D02*
X002736Y005947D01*
X002743Y006025D02*
X002067Y006025D01*
X002067Y006104D02*
X002697Y006104D01*
X002275Y006182D02*
X002067Y006182D01*
X002067Y006261D02*
X002196Y006261D01*
X002118Y006339D02*
X002045Y006339D01*
X002376Y005633D02*
X002668Y005633D01*
X002747Y005554D02*
X002402Y005554D01*
X002402Y005476D02*
X002590Y005476D01*
X002715Y005476D02*
X002825Y005476D01*
X002840Y005397D02*
X002904Y005397D01*
X002887Y005319D02*
X002982Y005319D01*
X002465Y005397D02*
X002372Y005397D01*
X002418Y005319D02*
X002305Y005319D01*
X002371Y003828D02*
X002319Y003824D01*
X002552Y003332D02*
X002801Y003332D01*
X002801Y003332D01*
X003056Y003332D01*
X003056Y003332D01*
X002801Y003332D01*
X002552Y003332D01*
X002552Y003332D01*
X002552Y003332D01*
X002801Y003332D02*
X002801Y003332D01*
X003096Y003292D02*
X003096Y003037D01*
X003096Y003037D01*
X003096Y002788D01*
X003096Y002788D01*
X003096Y002788D01*
X003096Y003037D01*
X003096Y003037D01*
X003096Y003053D01*
X003096Y003292D01*
X003096Y003292D01*
X003096Y003278D02*
X003096Y003278D01*
X003136Y003332D02*
X003136Y003332D01*
X003391Y003332D01*
X003391Y003332D01*
X003375Y003332D01*
X003136Y003332D01*
X003096Y003372D02*
X003096Y003372D01*
X003096Y003628D01*
X003096Y003877D01*
X003096Y003877D01*
X003096Y003877D01*
X003096Y003628D01*
X003096Y003628D01*
X003096Y003628D01*
X003096Y003372D01*
X003096Y003435D02*
X003096Y003435D01*
X003096Y003513D02*
X003096Y003513D01*
X003096Y003592D02*
X003096Y003592D01*
X003096Y003670D02*
X003096Y003670D01*
X003096Y003749D02*
X003096Y003749D01*
X003096Y003827D02*
X003096Y003827D01*
X003391Y003332D02*
X003641Y003332D01*
X003641Y003332D01*
X003641Y003332D01*
X003391Y003332D01*
X003391Y003332D01*
X003096Y003199D02*
X003096Y003199D01*
X003096Y003121D02*
X003096Y003121D01*
X003096Y003042D02*
X003096Y003042D01*
X003096Y002964D02*
X003096Y002964D01*
X003096Y002885D02*
X003096Y002885D01*
X003096Y002807D02*
X003096Y002807D01*
X002998Y002555D02*
X002998Y002137D01*
X002867Y002048D01*
X003081Y002068D01*
X003283Y001800D01*
X002934Y002073D02*
X002867Y002048D01*
X002934Y002073D02*
X002934Y002114D01*
X002715Y002301D02*
X002590Y002270D01*
X002543Y002223D01*
X002715Y002301D02*
X002801Y002387D01*
X002801Y002555D01*
X002473Y002755D02*
X002449Y002731D01*
X002449Y002624D01*
X002387Y002650D01*
X002288Y002650D01*
X002196Y002612D01*
X002125Y002541D01*
X002090Y002456D01*
X002090Y002582D01*
X002121Y002658D01*
X002121Y002757D01*
X002108Y002788D01*
X002202Y002882D01*
X002485Y002882D01*
X002484Y002866D01*
X002472Y002850D01*
X002478Y002806D01*
X002473Y002755D01*
X002449Y002728D02*
X002121Y002728D01*
X002118Y002650D02*
X002288Y002650D01*
X002387Y002650D02*
X002449Y002650D01*
X002478Y002807D02*
X002127Y002807D01*
X002155Y002571D02*
X002090Y002571D01*
X002090Y002493D02*
X002105Y002493D01*
X002090Y002344D02*
X002125Y002258D01*
X002196Y002188D01*
X002288Y002150D01*
X002290Y002150D01*
X002290Y001957D01*
X002090Y001957D01*
X002090Y002344D01*
X002090Y002336D02*
X002093Y002336D01*
X002090Y002257D02*
X002126Y002257D01*
X002090Y002179D02*
X002218Y002179D01*
X002290Y002100D02*
X002090Y002100D01*
X002090Y002022D02*
X002290Y002022D01*
X002250Y001674D02*
X002211Y001674D01*
X002211Y001636D01*
X002470Y001636D01*
X002470Y001635D01*
X002508Y001635D01*
X002508Y001673D01*
X002250Y001673D01*
X002250Y001674D01*
X002546Y001673D02*
X002546Y001635D01*
X002590Y001635D01*
X002848Y001635D01*
X002848Y001673D01*
X002546Y001673D01*
X003590Y002369D02*
X003590Y002739D01*
X003644Y002739D01*
X003697Y002685D01*
X004045Y002685D01*
X004064Y002663D01*
X004085Y002613D01*
X004156Y002542D01*
X004186Y002530D01*
X004345Y002355D01*
X004345Y002167D01*
X004404Y002108D01*
X004530Y002108D01*
X004497Y002030D01*
X004497Y001930D01*
X004522Y001870D01*
X004333Y001870D01*
X004269Y001935D01*
X004269Y002136D01*
X004210Y002195D01*
X004008Y002195D01*
X003996Y002207D01*
X003868Y002207D01*
X003706Y002369D01*
X003590Y002369D01*
X003590Y002414D02*
X004291Y002414D01*
X004345Y002336D02*
X003739Y002336D01*
X003818Y002257D02*
X004345Y002257D01*
X004345Y002179D02*
X004226Y002179D01*
X004269Y002100D02*
X004527Y002100D01*
X004497Y002022D02*
X004269Y002022D01*
X004269Y001943D02*
X004497Y001943D01*
X004761Y001943D02*
X004969Y001943D01*
X004957Y001970D02*
X004982Y001910D01*
X004866Y001910D01*
X004866Y001651D01*
X005105Y001651D01*
X005105Y001789D01*
X005104Y001792D01*
X005158Y001770D01*
X005236Y001770D01*
X005231Y001765D01*
X005231Y001535D01*
X005105Y001535D01*
X005105Y001613D01*
X004866Y001613D01*
X004866Y001651D01*
X004828Y001651D01*
X004828Y001910D01*
X004761Y001910D01*
X004761Y002048D01*
X004762Y002068D01*
X004778Y002068D01*
X004814Y002077D01*
X004846Y002096D01*
X004872Y002122D01*
X004890Y002154D01*
X004900Y002188D01*
X004940Y002165D01*
X004999Y002165D01*
X004995Y002161D01*
X004957Y002070D01*
X004957Y001970D01*
X004957Y002022D02*
X004761Y002022D01*
X004850Y002100D02*
X004970Y002100D01*
X004915Y002179D02*
X004897Y002179D01*
X004777Y002145D02*
X004777Y001895D01*
X004871Y001801D01*
X004871Y001614D01*
X004902Y001645D01*
X005184Y001645D01*
X005231Y001629D02*
X004866Y001629D01*
X004866Y001708D02*
X004828Y001708D01*
X004828Y001786D02*
X004866Y001786D01*
X004866Y001865D02*
X004828Y001865D01*
X005105Y001786D02*
X005118Y001786D01*
X005105Y001708D02*
X005231Y001708D01*
X005371Y001648D02*
X005425Y001702D01*
X005647Y001702D01*
X005657Y001692D01*
X006107Y001692D01*
X006371Y001957D01*
X006402Y001926D01*
X006402Y001707D01*
X006230Y001535D01*
X005371Y001535D01*
X005371Y001648D01*
X005371Y001629D02*
X006324Y001629D01*
X006246Y001551D02*
X005371Y001551D01*
X005231Y001551D02*
X005105Y001551D01*
X005715Y001832D02*
X006049Y001832D01*
X006361Y002145D01*
X006934Y002145D01*
X007027Y002051D01*
X007157Y002032D01*
X007147Y002051D01*
X007054Y002051D02*
X007054Y002013D01*
X006880Y002013D01*
X006880Y002001D01*
X006593Y002001D01*
X006550Y002044D01*
X006458Y002082D01*
X006444Y002082D01*
X006367Y002160D01*
X006193Y002160D01*
X006193Y002165D01*
X006880Y002165D01*
X006880Y002051D01*
X007054Y002051D01*
X007054Y002022D02*
X006573Y002022D01*
X006426Y002100D02*
X006880Y002100D01*
X006385Y001943D02*
X006358Y001943D01*
X006402Y001865D02*
X006279Y001865D01*
X006201Y001786D02*
X006402Y001786D01*
X006402Y001708D02*
X006122Y001708D01*
X004777Y002145D02*
X004603Y002320D01*
X004603Y002405D01*
X004641Y002366D02*
X004641Y002237D01*
X004564Y002322D01*
X004564Y002366D01*
X004641Y002366D01*
X004641Y002336D02*
X004564Y002336D01*
X004623Y002257D02*
X004641Y002257D01*
X004220Y002493D02*
X003590Y002493D01*
X003590Y002571D02*
X004127Y002571D01*
X004070Y002650D02*
X003590Y002650D01*
X003590Y002728D02*
X003654Y002728D01*
X004829Y004245D02*
X004829Y004277D01*
X004791Y004369D01*
X004720Y004439D01*
X004635Y004475D01*
X004711Y004550D01*
X004711Y004597D01*
X004740Y004597D01*
X004749Y004606D01*
X004770Y004585D01*
X004802Y004567D01*
X004838Y004557D01*
X004955Y004557D01*
X004955Y004816D01*
X004993Y004816D01*
X004993Y004557D01*
X005056Y004557D01*
X004829Y004245D01*
X004820Y004298D02*
X004867Y004298D01*
X004925Y004377D02*
X004783Y004377D01*
X004682Y004455D02*
X004982Y004455D01*
X005039Y004534D02*
X004694Y004534D01*
X004955Y004612D02*
X004993Y004612D01*
X004993Y004691D02*
X004955Y004691D01*
X004955Y004769D02*
X004993Y004769D01*
X004993Y004816D02*
X004993Y004854D01*
X004955Y004854D01*
X004955Y005113D01*
X004838Y005113D01*
X004802Y005103D01*
X004770Y005085D01*
X004749Y005064D01*
X004740Y005073D01*
X004725Y005073D01*
X004765Y005112D01*
X004765Y005359D01*
X004800Y005359D01*
X004818Y005376D01*
X005081Y005376D01*
X005081Y005113D01*
X004993Y005113D01*
X004993Y004854D01*
X005232Y004854D01*
X005232Y004991D01*
X005223Y005027D01*
X005220Y005032D01*
X005450Y005032D01*
X005309Y004892D01*
X005298Y004890D01*
X005272Y004854D01*
X005241Y004824D01*
X005241Y004812D01*
X005232Y004800D01*
X005232Y004816D01*
X004993Y004816D01*
X004993Y004848D02*
X005265Y004848D01*
X005232Y004926D02*
X005344Y004926D01*
X005422Y005005D02*
X005229Y005005D01*
X005081Y005162D02*
X004765Y005162D01*
X004765Y005240D02*
X005081Y005240D01*
X005081Y005319D02*
X004765Y005319D01*
X004769Y005083D02*
X004736Y005083D01*
X004955Y005083D02*
X004993Y005083D01*
X004993Y005005D02*
X004955Y005005D01*
X004955Y004926D02*
X004993Y004926D01*
X005996Y004895D02*
X006184Y004895D01*
X006340Y004739D01*
X006684Y004739D01*
X007027Y005082D01*
X007027Y005948D01*
X007027Y006020D01*
X007027Y006603D01*
X007023Y006608D01*
X007175Y006777D02*
X006814Y006777D01*
X006756Y006718D01*
X006756Y006645D01*
X006215Y006645D01*
X006215Y006655D01*
X006343Y006655D01*
X006378Y006664D01*
X006410Y006683D01*
X006436Y006709D01*
X006455Y006741D01*
X006464Y006776D01*
X006464Y006864D01*
X006464Y006951D01*
X006455Y006986D01*
X006436Y007018D01*
X006410Y007044D01*
X006378Y007063D01*
X006343Y007072D01*
X006157Y007072D01*
X006157Y006864D01*
X006157Y006864D01*
X006157Y007072D01*
X005971Y007072D01*
X005935Y007063D01*
X005904Y007044D01*
X005877Y007018D01*
X005859Y006986D01*
X005850Y006951D01*
X005850Y006864D01*
X006157Y006864D01*
X006464Y006864D01*
X006157Y006864D01*
X006157Y006864D01*
X006157Y006864D01*
X005850Y006864D01*
X005850Y006776D01*
X005854Y006761D01*
X005800Y006707D01*
X005800Y006693D01*
X005755Y006648D01*
X005755Y006847D01*
X005767Y006859D01*
X005785Y006890D01*
X005795Y006926D01*
X005795Y007063D01*
X005556Y007063D01*
X005556Y007101D01*
X005795Y007101D01*
X005795Y007239D01*
X005785Y007274D01*
X005780Y007284D01*
X005902Y007284D01*
X005938Y007293D01*
X005970Y007312D01*
X005996Y007338D01*
X006014Y007370D01*
X006024Y007405D01*
X006024Y007438D01*
X006271Y007438D01*
X006309Y007476D01*
X006346Y007438D01*
X006665Y007438D01*
X006724Y007497D01*
X006724Y007800D01*
X006781Y007800D01*
X006746Y007715D01*
X006746Y007615D01*
X006784Y007523D01*
X006855Y007453D01*
X006946Y007415D01*
X007046Y007415D01*
X007110Y007441D01*
X007110Y007401D01*
X007349Y007401D01*
X007349Y007363D01*
X007110Y007363D01*
X007110Y007288D01*
X006814Y007288D01*
X006756Y007230D01*
X006756Y007009D01*
X006814Y006951D01*
X007175Y006951D01*
X007175Y006777D01*
X007175Y006810D02*
X006464Y006810D01*
X006464Y006889D02*
X007175Y006889D01*
X007315Y007014D02*
X007215Y007114D01*
X007029Y007114D01*
X007023Y007119D01*
X007110Y007360D02*
X006009Y007360D01*
X005795Y007203D02*
X006756Y007203D01*
X006756Y007124D02*
X005795Y007124D01*
X005795Y007046D02*
X005906Y007046D01*
X005854Y006967D02*
X005795Y006967D01*
X005784Y006889D02*
X005850Y006889D01*
X005850Y006810D02*
X005755Y006810D01*
X005755Y006732D02*
X005824Y006732D01*
X005760Y006653D02*
X005755Y006653D01*
X006157Y006889D02*
X006157Y006889D01*
X006157Y006967D02*
X006157Y006967D01*
X006157Y007046D02*
X006157Y007046D01*
X006408Y007046D02*
X006756Y007046D01*
X006797Y006967D02*
X006460Y006967D01*
X006450Y006732D02*
X006769Y006732D01*
X006756Y006653D02*
X006215Y006653D01*
X005781Y007281D02*
X006807Y007281D01*
X006890Y007438D02*
X006665Y007438D01*
X006724Y007517D02*
X006791Y007517D01*
X006754Y007595D02*
X006724Y007595D01*
X006724Y007674D02*
X006746Y007674D01*
X006762Y007752D02*
X006724Y007752D01*
X006346Y007438D02*
X006271Y007438D01*
X006459Y008215D02*
X006459Y008238D01*
X006222Y008475D01*
X006222Y008526D01*
X006240Y008521D01*
X006327Y008521D01*
X006327Y008769D01*
X006327Y009017D01*
X006240Y009017D01*
X006222Y009012D01*
X006222Y009163D01*
X006134Y009251D01*
X006115Y009270D01*
X006727Y009270D01*
X006727Y008995D01*
X006764Y008957D01*
X006739Y008932D01*
X006694Y008977D01*
X006494Y008977D01*
X006482Y008989D01*
X006450Y009008D01*
X006415Y009017D01*
X006327Y009017D01*
X006327Y008769D01*
X006327Y008769D01*
X006327Y008769D01*
X006327Y008521D01*
X006415Y008521D01*
X006450Y008530D01*
X006482Y008549D01*
X006494Y008561D01*
X006583Y008561D01*
X006580Y008548D01*
X006580Y008431D01*
X006838Y008431D01*
X006838Y008393D01*
X006580Y008393D01*
X006580Y008275D01*
X006589Y008239D01*
X006595Y008229D01*
X006473Y008229D01*
X006459Y008215D01*
X006459Y008223D02*
X006467Y008223D01*
X006395Y008302D02*
X006580Y008302D01*
X006580Y008380D02*
X006317Y008380D01*
X006238Y008459D02*
X006580Y008459D01*
X006580Y008537D02*
X006463Y008537D01*
X006327Y008537D02*
X006327Y008537D01*
X006327Y008616D02*
X006327Y008616D01*
X006327Y008694D02*
X006327Y008694D01*
X006327Y008773D02*
X006327Y008773D01*
X006327Y008851D02*
X006327Y008851D01*
X006327Y008930D02*
X006327Y008930D01*
X006327Y009008D02*
X006327Y009008D01*
X006448Y009008D02*
X006727Y009008D01*
X006727Y009087D02*
X006222Y009087D01*
X006219Y009165D02*
X006727Y009165D01*
X006727Y009244D02*
X006141Y009244D01*
X005969Y009567D02*
X006376Y009567D01*
X006387Y009556D01*
X006412Y009531D01*
X006412Y009528D01*
X006471Y009470D01*
X007144Y009470D01*
X007203Y009528D01*
X007203Y009565D01*
X007259Y009565D01*
X007259Y009893D01*
X007278Y009893D01*
X007278Y009912D01*
X007507Y009912D01*
X007507Y010118D01*
X007504Y010129D01*
X007541Y010129D01*
X007600Y010188D01*
X007600Y010632D01*
X007619Y010650D01*
X007619Y011055D01*
X007674Y011055D01*
X007674Y010927D01*
X007933Y010927D01*
X007933Y010850D01*
X007674Y010850D01*
X007674Y010673D01*
X007683Y010638D01*
X007695Y010617D01*
X007695Y010199D01*
X007621Y010199D01*
X007563Y010141D01*
X007563Y009752D01*
X007540Y009752D01*
X007507Y009739D01*
X007507Y009893D01*
X007278Y009893D01*
X007278Y009565D01*
X007345Y009565D01*
X007340Y009552D01*
X007340Y009453D01*
X007358Y009410D01*
X007211Y009410D01*
X007204Y009411D01*
X007202Y009410D01*
X005506Y009410D01*
X005496Y009420D01*
X005402Y009514D01*
X005274Y009514D01*
X005274Y009575D01*
X005333Y009575D01*
X005479Y009575D01*
X005515Y009584D01*
X005547Y009603D01*
X005553Y009609D01*
X005570Y009604D01*
X005707Y009604D01*
X005707Y009981D01*
X005785Y009981D01*
X005785Y009604D01*
X005922Y009604D01*
X005930Y009606D01*
X005969Y009567D01*
X006027Y009707D02*
X006027Y009801D01*
X006371Y009801D01*
X006387Y009817D01*
X006835Y009817D01*
X007059Y010041D01*
X007059Y009614D01*
X006527Y009614D01*
X006434Y009707D01*
X006027Y009707D01*
X006027Y009715D02*
X007059Y009715D01*
X007059Y009793D02*
X006027Y009793D01*
X006027Y009957D02*
X006412Y009957D01*
X006412Y010123D01*
X006471Y010182D01*
X007002Y010182D01*
X007059Y010239D01*
X007340Y010239D01*
X007340Y011051D01*
X006590Y011051D01*
X006260Y010721D01*
X006260Y010714D01*
X006251Y010706D01*
X006251Y010449D01*
X006275Y010425D01*
X006329Y010425D01*
X006387Y010366D01*
X006387Y010185D01*
X006329Y010126D01*
X006103Y010126D01*
X006027Y010051D01*
X006027Y009957D01*
X006027Y010029D02*
X006412Y010029D01*
X006412Y010107D02*
X006084Y010107D01*
X006387Y010186D02*
X007006Y010186D01*
X007047Y010029D02*
X007059Y010029D01*
X007059Y009950D02*
X006968Y009950D01*
X006890Y009872D02*
X007059Y009872D01*
X007259Y009872D02*
X007278Y009872D01*
X007278Y009793D02*
X007259Y009793D01*
X007259Y009715D02*
X007278Y009715D01*
X007278Y009636D02*
X007259Y009636D01*
X007203Y009558D02*
X007342Y009558D01*
X007340Y009479D02*
X007154Y009479D01*
X007059Y009636D02*
X006505Y009636D01*
X006387Y009556D02*
X006387Y009556D01*
X006385Y009558D02*
X005274Y009558D01*
X005333Y009575D02*
X005333Y009764D01*
X005333Y009575D01*
X005333Y009636D02*
X005333Y009636D01*
X005333Y009715D02*
X005333Y009715D01*
X005333Y009764D02*
X005333Y009764D01*
X005436Y009479D02*
X006461Y009479D01*
X005785Y009636D02*
X005707Y009636D01*
X005707Y009715D02*
X005785Y009715D01*
X005785Y009793D02*
X005707Y009793D01*
X005707Y009872D02*
X005785Y009872D01*
X005785Y009950D02*
X005707Y009950D01*
X005603Y010576D02*
X005603Y010614D01*
X005882Y010614D01*
X005882Y010576D01*
X005842Y010576D01*
X005603Y010576D01*
X005603Y010578D02*
X005882Y010578D01*
X006121Y010775D02*
X005996Y010905D01*
X005256Y010905D01*
X005152Y010801D01*
X005152Y010645D01*
X004527Y011051D02*
X004371Y010895D01*
X004371Y010770D01*
X004527Y011051D02*
X006184Y011051D01*
X006309Y010926D01*
X006309Y010945D01*
X006309Y010926D02*
X006338Y010897D01*
X006334Y010595D01*
X006251Y010578D02*
X007340Y010578D01*
X007340Y010500D02*
X006251Y010500D01*
X006333Y010421D02*
X007340Y010421D01*
X007340Y010343D02*
X006387Y010343D01*
X006387Y010264D02*
X007340Y010264D01*
X007507Y010107D02*
X007563Y010107D01*
X007563Y010029D02*
X007507Y010029D01*
X007507Y009950D02*
X007563Y009950D01*
X007563Y009872D02*
X007507Y009872D01*
X007507Y009793D02*
X007563Y009793D01*
X007598Y010186D02*
X007608Y010186D01*
X007600Y010264D02*
X007695Y010264D01*
X007695Y010343D02*
X007600Y010343D01*
X007600Y010421D02*
X007695Y010421D01*
X007695Y010500D02*
X007600Y010500D01*
X007600Y010578D02*
X007695Y010578D01*
X007678Y010657D02*
X007619Y010657D01*
X007619Y010735D02*
X007674Y010735D01*
X007674Y010814D02*
X007619Y010814D01*
X007619Y010892D02*
X007933Y010892D01*
X007674Y010971D02*
X007619Y010971D01*
X007619Y011049D02*
X007674Y011049D01*
X007340Y011049D02*
X006588Y011049D01*
X006510Y010971D02*
X007340Y010971D01*
X007340Y010892D02*
X006431Y010892D01*
X006353Y010814D02*
X007340Y010814D01*
X007340Y010735D02*
X006274Y010735D01*
X006251Y010657D02*
X007340Y010657D01*
X007527Y009020D02*
X007524Y009016D01*
X007494Y009016D01*
X007527Y009020D02*
X007652Y009020D01*
X007861Y008811D01*
X007861Y007825D01*
X007756Y007739D01*
X007593Y007154D02*
X007602Y007144D01*
X007887Y007144D01*
X007887Y006645D01*
X007455Y006645D01*
X007455Y007072D01*
X007422Y007104D01*
X007505Y007104D01*
X007540Y007114D01*
X007572Y007132D01*
X007593Y007154D01*
X007558Y007124D02*
X007887Y007124D01*
X007887Y007046D02*
X007455Y007046D01*
X007455Y006967D02*
X007887Y006967D01*
X007887Y006889D02*
X007455Y006889D01*
X007455Y006810D02*
X007887Y006810D01*
X007887Y006732D02*
X007455Y006732D01*
X007455Y006653D02*
X007887Y006653D01*
X007887Y006505D02*
X007887Y006347D01*
X007924Y006259D01*
X007991Y006191D01*
X008080Y006155D01*
X008975Y006155D01*
X009063Y006191D01*
X009131Y006259D01*
X009167Y006347D01*
X009167Y006380D01*
X009355Y006380D01*
X009355Y006622D01*
X009400Y006622D01*
X009400Y006380D01*
X009646Y006380D01*
X009681Y006389D01*
X009713Y006408D01*
X009739Y006434D01*
X009758Y006466D01*
X009767Y006501D01*
X009767Y006622D01*
X009400Y006622D01*
X009400Y006667D01*
X009767Y006667D01*
X009767Y006680D01*
X009855Y006680D01*
X009943Y006716D01*
X010011Y006784D01*
X010047Y006872D01*
X010047Y007918D01*
X010011Y008006D01*
X009943Y008073D01*
X009867Y008105D01*
X009867Y008122D01*
X009450Y008122D01*
X009450Y008167D01*
X009867Y008167D01*
X009867Y008185D01*
X009943Y008216D01*
X010011Y008284D01*
X010047Y008372D01*
X010047Y009274D01*
X010410Y009275D01*
X010196Y009061D01*
X010196Y006592D01*
X009439Y005836D01*
X009439Y005482D01*
X009409Y005451D01*
X009184Y005451D01*
X009096Y005363D01*
X009034Y005301D01*
X009034Y005129D01*
X009014Y005124D01*
X008973Y005100D01*
X008962Y005090D01*
X008962Y005103D01*
X008728Y005103D01*
X008728Y005128D01*
X008962Y005128D01*
X008962Y005239D01*
X008953Y005275D01*
X008934Y005307D01*
X008908Y005333D01*
X008883Y005348D01*
X008900Y005366D01*
X008967Y005527D01*
X008967Y005702D01*
X008900Y005864D01*
X008777Y005988D01*
X008615Y006055D01*
X008440Y006055D01*
X008278Y005988D01*
X008154Y005864D01*
X008087Y005702D01*
X008087Y005527D01*
X008154Y005366D01*
X008278Y005242D01*
X008440Y005175D01*
X008467Y005175D01*
X008467Y005128D01*
X008702Y005128D01*
X008702Y005103D01*
X008467Y005103D01*
X008467Y004991D01*
X008477Y004956D01*
X008437Y004972D01*
X008338Y004972D01*
X008315Y004963D01*
X008315Y004967D01*
X008305Y005002D01*
X008287Y005034D01*
X008261Y005060D01*
X008229Y005079D01*
X008193Y005088D01*
X008080Y005088D01*
X008080Y004856D01*
X008055Y004856D01*
X008055Y005088D01*
X007977Y005088D01*
X007945Y005107D01*
X007910Y005116D01*
X007773Y005116D01*
X007773Y004838D01*
X008031Y004838D01*
X008031Y004856D01*
X008055Y004856D01*
X008055Y004830D01*
X007820Y004830D01*
X007820Y004760D01*
X007773Y004760D01*
X007773Y004838D01*
X007695Y004838D01*
X007695Y005116D01*
X007558Y005116D01*
X007522Y005107D01*
X007491Y005088D01*
X007478Y005076D01*
X007167Y005076D01*
X007167Y005730D01*
X007494Y005730D01*
X007553Y005788D01*
X007553Y006107D01*
X007544Y006117D01*
X007565Y006138D01*
X007583Y006169D01*
X007593Y006205D01*
X007593Y006323D01*
X007334Y006323D01*
X007334Y006361D01*
X007593Y006361D01*
X007593Y006478D01*
X007586Y006505D01*
X007887Y006505D01*
X007887Y006496D02*
X007588Y006496D01*
X007593Y006418D02*
X007887Y006418D01*
X007891Y006339D02*
X007334Y006339D01*
X007315Y006342D02*
X007315Y007014D01*
X007110Y007438D02*
X007103Y007438D01*
X007593Y006261D02*
X007923Y006261D01*
X008013Y006182D02*
X007587Y006182D01*
X007553Y006104D02*
X009708Y006104D01*
X009786Y006182D02*
X009042Y006182D01*
X009132Y006261D02*
X009865Y006261D01*
X009943Y006339D02*
X009164Y006339D01*
X009355Y006418D02*
X009400Y006418D01*
X009400Y006496D02*
X009355Y006496D01*
X009355Y006575D02*
X009400Y006575D01*
X009400Y006653D02*
X010196Y006653D01*
X010196Y006732D02*
X009959Y006732D01*
X010022Y006810D02*
X010196Y006810D01*
X010196Y006889D02*
X010047Y006889D01*
X010047Y006967D02*
X010196Y006967D01*
X010196Y007046D02*
X010047Y007046D01*
X010047Y007124D02*
X010196Y007124D01*
X010196Y007203D02*
X010047Y007203D01*
X010047Y007281D02*
X010196Y007281D01*
X010196Y007360D02*
X010047Y007360D01*
X010047Y007438D02*
X010196Y007438D01*
X010196Y007517D02*
X010047Y007517D01*
X010047Y007595D02*
X010196Y007595D01*
X010196Y007674D02*
X010047Y007674D01*
X010047Y007752D02*
X010196Y007752D01*
X010196Y007831D02*
X010047Y007831D01*
X010047Y007909D02*
X010196Y007909D01*
X010196Y007988D02*
X010018Y007988D01*
X009950Y008066D02*
X010196Y008066D01*
X010196Y008145D02*
X009450Y008145D01*
X009950Y008223D02*
X010196Y008223D01*
X010196Y008302D02*
X010018Y008302D01*
X010047Y008380D02*
X010196Y008380D01*
X010196Y008459D02*
X010047Y008459D01*
X010047Y008537D02*
X010196Y008537D01*
X010196Y008616D02*
X010047Y008616D01*
X010047Y008694D02*
X010196Y008694D01*
X010196Y008773D02*
X010047Y008773D01*
X010047Y008851D02*
X010196Y008851D01*
X010196Y008930D02*
X010047Y008930D01*
X010047Y009008D02*
X010196Y009008D01*
X010222Y009087D02*
X010047Y009087D01*
X010047Y009165D02*
X010300Y009165D01*
X010379Y009244D02*
X010047Y009244D01*
X010546Y008916D02*
X010725Y009095D01*
X010787Y009157D01*
X010787Y005609D01*
X010702Y005645D01*
X010603Y005645D01*
X010527Y005614D01*
X010527Y005695D01*
X010489Y005786D01*
X010419Y005857D01*
X010327Y005895D01*
X010228Y005895D01*
X010136Y005857D01*
X010065Y005786D01*
X010027Y005695D01*
X010027Y005595D01*
X010046Y005550D01*
X009968Y005550D01*
X009968Y005315D01*
X009943Y005315D01*
X009943Y005550D01*
X009831Y005550D01*
X009796Y005540D01*
X009789Y005537D01*
X009789Y005691D01*
X010444Y006345D01*
X010546Y006447D01*
X010546Y008916D01*
X010560Y008930D02*
X010787Y008930D01*
X010787Y009008D02*
X010638Y009008D01*
X010717Y009087D02*
X010787Y009087D01*
X010787Y008851D02*
X010546Y008851D01*
X010546Y008773D02*
X010787Y008773D01*
X010787Y008694D02*
X010546Y008694D01*
X010546Y008616D02*
X010787Y008616D01*
X010787Y008537D02*
X010546Y008537D01*
X010546Y008459D02*
X010787Y008459D01*
X010787Y008380D02*
X010546Y008380D01*
X010546Y008302D02*
X010787Y008302D01*
X010787Y008223D02*
X010546Y008223D01*
X010546Y008145D02*
X010787Y008145D01*
X010787Y008066D02*
X010546Y008066D01*
X010546Y007988D02*
X010787Y007988D01*
X010787Y007909D02*
X010546Y007909D01*
X010546Y007831D02*
X010787Y007831D01*
X010787Y007752D02*
X010546Y007752D01*
X010546Y007674D02*
X010787Y007674D01*
X010787Y007595D02*
X010546Y007595D01*
X010546Y007517D02*
X010787Y007517D01*
X010787Y007438D02*
X010546Y007438D01*
X010546Y007360D02*
X010787Y007360D01*
X010787Y007281D02*
X010546Y007281D01*
X010546Y007203D02*
X010787Y007203D01*
X010787Y007124D02*
X010546Y007124D01*
X010546Y007046D02*
X010787Y007046D01*
X010787Y006967D02*
X010546Y006967D01*
X010546Y006889D02*
X010787Y006889D01*
X010787Y006810D02*
X010546Y006810D01*
X010546Y006732D02*
X010787Y006732D01*
X010787Y006653D02*
X010546Y006653D01*
X010546Y006575D02*
X010787Y006575D01*
X010787Y006496D02*
X010546Y006496D01*
X010517Y006418D02*
X010787Y006418D01*
X010787Y006339D02*
X010438Y006339D01*
X010360Y006261D02*
X010787Y006261D01*
X010787Y006182D02*
X010281Y006182D01*
X010203Y006104D02*
X010787Y006104D01*
X010787Y006025D02*
X010124Y006025D01*
X010046Y005947D02*
X010787Y005947D01*
X010787Y005868D02*
X010391Y005868D01*
X010486Y005790D02*
X010787Y005790D01*
X010787Y005711D02*
X010520Y005711D01*
X010527Y005633D02*
X010574Y005633D01*
X010731Y005633D02*
X010787Y005633D01*
X010358Y005162D02*
X010197Y005162D01*
X010201Y005176D01*
X010201Y005290D01*
X009968Y005290D01*
X009968Y005315D01*
X010201Y005315D01*
X010201Y005319D01*
X010224Y005296D01*
X010443Y005077D01*
X010443Y004946D01*
X010435Y004946D01*
X010423Y004958D01*
X010391Y004976D01*
X010356Y004986D01*
X010245Y004986D01*
X010245Y004751D01*
X010219Y004751D01*
X010219Y004726D01*
X010201Y004726D01*
X010201Y004730D01*
X009968Y004730D01*
X009968Y004755D01*
X009943Y004755D01*
X009943Y005010D01*
X009968Y005010D01*
X009968Y005035D01*
X009943Y005035D01*
X009943Y005290D01*
X009968Y005290D01*
X009968Y005270D01*
X009968Y005035D01*
X010201Y005035D01*
X010201Y005148D01*
X010197Y005162D01*
X010201Y005240D02*
X010279Y005240D01*
X010201Y005083D02*
X010436Y005083D01*
X010443Y005005D02*
X010201Y005005D01*
X010201Y005010D02*
X009968Y005010D01*
X009968Y004775D01*
X009968Y004755D01*
X009986Y004755D01*
X009986Y004751D01*
X010219Y004751D01*
X010219Y004986D01*
X010201Y004986D01*
X010201Y005010D01*
X010219Y004926D02*
X010245Y004926D01*
X010245Y004848D02*
X010219Y004848D01*
X010219Y004769D02*
X010245Y004769D01*
X010549Y004714D02*
X010573Y004739D01*
X010549Y004714D02*
X010549Y004067D01*
X010666Y004067D02*
X010432Y004067D01*
X010432Y003910D02*
X010666Y003910D01*
X010666Y003752D02*
X010432Y003752D01*
X010432Y003595D02*
X010666Y003595D01*
X010666Y003437D02*
X010432Y003437D01*
X010432Y003280D02*
X010666Y003280D01*
X010666Y003122D02*
X010432Y003122D01*
X010432Y002965D02*
X010666Y002965D01*
X010666Y002807D02*
X010432Y002807D01*
X010432Y002650D02*
X010666Y002650D01*
X010666Y002492D02*
X010432Y002492D01*
X010432Y002335D02*
X010666Y002335D01*
X010549Y002335D02*
X010549Y002155D01*
X010690Y002155D01*
X010735Y002167D01*
X010777Y002191D01*
X010787Y002202D01*
X010787Y001923D01*
X010683Y001923D01*
X010683Y001664D01*
X010645Y001664D01*
X010645Y001923D01*
X010528Y001923D01*
X010492Y001913D01*
X010460Y001895D01*
X010439Y001874D01*
X010430Y001883D01*
X010374Y001883D01*
X010374Y002164D01*
X010407Y002155D01*
X010549Y002155D01*
X010549Y002335D01*
X010549Y002335D01*
X009367Y002335D01*
X009367Y002895D01*
X009322Y002850D01*
X009122Y002650D01*
X008186Y002650D01*
X008303Y002650D02*
X008069Y002650D01*
X008069Y002807D02*
X008303Y002807D01*
X008303Y002965D02*
X008069Y002965D01*
X008069Y003122D02*
X008303Y003122D01*
X008303Y003280D02*
X008069Y003280D01*
X008069Y003437D02*
X008303Y003437D01*
X008303Y003595D02*
X008069Y003595D01*
X007979Y003752D02*
X007871Y003645D01*
X007778Y003645D01*
X007760Y003627D01*
X007979Y003752D02*
X008186Y003752D01*
X008303Y003752D02*
X008069Y003752D01*
X008069Y003910D02*
X008303Y003910D01*
X008186Y003910D02*
X007768Y003910D01*
X007734Y003944D01*
X007734Y004248D01*
X007983Y004502D02*
X007965Y004520D01*
X007983Y004502D02*
X008067Y004502D01*
X008059Y004493D01*
X008059Y004145D01*
X008136Y004067D01*
X008186Y004067D01*
X008303Y004067D02*
X008069Y004067D01*
X007768Y003910D02*
X007760Y003902D01*
X007432Y003890D02*
X007432Y003640D01*
X007407Y003640D01*
X007407Y003875D01*
X007407Y003890D01*
X007432Y003890D01*
X007419Y003902D02*
X007419Y004003D01*
X007371Y004051D01*
X007371Y004178D01*
X007301Y004248D01*
X007262Y004220D02*
X007086Y004220D01*
X007093Y004209D02*
X007037Y004287D01*
X007262Y004287D01*
X007262Y004209D01*
X007093Y004209D01*
X007003Y004333D02*
X006958Y004395D01*
X006679Y004599D01*
X006742Y004599D01*
X007043Y004900D01*
X007043Y004581D01*
X007076Y004548D01*
X007057Y004537D01*
X007031Y004511D01*
X007013Y004479D01*
X007003Y004444D01*
X007003Y004333D01*
X007003Y004377D02*
X006972Y004377D01*
X006958Y004395D02*
X006958Y004395D01*
X006958Y004395D01*
X007007Y004455D02*
X006876Y004455D01*
X006768Y004534D02*
X007054Y004534D01*
X007043Y004612D02*
X006755Y004612D01*
X006834Y004691D02*
X007043Y004691D01*
X007043Y004769D02*
X006912Y004769D01*
X006991Y004848D02*
X007043Y004848D01*
X007167Y005083D02*
X007485Y005083D01*
X007695Y005083D02*
X007773Y005083D01*
X007773Y005005D02*
X007695Y005005D01*
X007695Y004926D02*
X007773Y004926D01*
X007773Y004848D02*
X007695Y004848D01*
X007773Y004769D02*
X007820Y004769D01*
X008031Y004848D02*
X008055Y004848D01*
X008055Y004926D02*
X008080Y004926D01*
X008080Y005005D02*
X008055Y005005D01*
X008055Y005083D02*
X008080Y005083D01*
X007977Y005088D02*
X007977Y005088D01*
X008212Y005083D02*
X008467Y005083D01*
X008467Y005005D02*
X008304Y005005D01*
X008467Y005162D02*
X007167Y005162D01*
X007167Y005240D02*
X008282Y005240D01*
X008201Y005319D02*
X007167Y005319D01*
X007167Y005397D02*
X008141Y005397D01*
X008109Y005476D02*
X007167Y005476D01*
X007167Y005554D02*
X008087Y005554D01*
X008087Y005633D02*
X007167Y005633D01*
X007167Y005711D02*
X008091Y005711D01*
X008124Y005790D02*
X007553Y005790D01*
X007553Y005868D02*
X008159Y005868D01*
X008237Y005947D02*
X007553Y005947D01*
X007553Y006025D02*
X008369Y006025D01*
X008686Y006025D02*
X009629Y006025D01*
X009551Y005947D02*
X008818Y005947D01*
X008896Y005868D02*
X009472Y005868D01*
X009439Y005790D02*
X008931Y005790D01*
X008964Y005711D02*
X009439Y005711D01*
X009439Y005633D02*
X008967Y005633D01*
X008967Y005554D02*
X009439Y005554D01*
X009433Y005476D02*
X008946Y005476D01*
X008914Y005397D02*
X009130Y005397D01*
X009052Y005319D02*
X008922Y005319D01*
X008962Y005240D02*
X009034Y005240D01*
X009034Y005162D02*
X008962Y005162D01*
X008932Y005115D02*
X008715Y005115D01*
X008932Y005115D02*
X008934Y005114D01*
X008934Y004957D01*
X009081Y004957D01*
X009085Y004953D01*
X008951Y004953D01*
X008951Y004953D01*
X009085Y004953D01*
X009085Y004953D01*
X008961Y004953D01*
X008934Y004926D01*
X008934Y004382D01*
X008974Y004382D01*
X008974Y004265D02*
X008974Y004499D01*
X008974Y004382D02*
X008816Y004382D01*
X008816Y004265D02*
X008816Y004499D01*
X008816Y004382D02*
X008816Y004382D01*
X008974Y004382D01*
X008974Y004382D01*
X009131Y004265D02*
X009131Y004499D01*
X009131Y004382D02*
X009131Y004669D01*
X009085Y004715D01*
X009282Y004715D02*
X009282Y004389D01*
X009289Y004382D01*
X009289Y004265D02*
X009289Y004499D01*
X009446Y004499D02*
X009446Y004265D01*
X009604Y004265D02*
X009604Y004499D01*
X009604Y004382D02*
X009604Y004732D01*
X009614Y004742D01*
X009419Y004942D02*
X009408Y004953D01*
X009282Y004953D01*
X009409Y005451D02*
X009409Y005451D01*
X009789Y005554D02*
X010044Y005554D01*
X010027Y005633D02*
X009789Y005633D01*
X009810Y005711D02*
X010034Y005711D01*
X010069Y005790D02*
X009889Y005790D01*
X009967Y005868D02*
X010164Y005868D01*
X009968Y005476D02*
X009943Y005476D01*
X009943Y005397D02*
X009968Y005397D01*
X009968Y005319D02*
X009943Y005319D01*
X009943Y005240D02*
X009968Y005240D01*
X009968Y005162D02*
X009943Y005162D01*
X009943Y005083D02*
X009968Y005083D01*
X009968Y005005D02*
X009943Y005005D01*
X009943Y004926D02*
X009968Y004926D01*
X009968Y004848D02*
X009943Y004848D01*
X009943Y004769D02*
X009968Y004769D01*
X009919Y004499D02*
X009919Y004265D01*
X010076Y004265D02*
X010076Y004499D01*
X010234Y004499D02*
X010234Y004265D01*
X009761Y004265D02*
X009761Y004499D01*
X008715Y004774D02*
X008681Y004741D01*
X008652Y004770D01*
X008605Y004722D01*
X008527Y004722D01*
X008501Y004696D01*
X008501Y004382D01*
X008501Y004265D02*
X008501Y004499D01*
X008659Y004499D02*
X008659Y004265D01*
X008659Y004382D02*
X008659Y004718D01*
X008681Y004741D01*
X008527Y004722D02*
X008387Y004722D01*
X007432Y003827D02*
X007407Y003827D01*
X007407Y003749D02*
X007432Y003749D01*
X007432Y003670D02*
X007407Y003670D01*
X007407Y003615D02*
X007432Y003615D01*
X007432Y003600D01*
X007432Y003365D01*
X007407Y003365D01*
X007407Y003615D01*
X007407Y003592D02*
X007432Y003592D01*
X007432Y003513D02*
X007407Y003513D01*
X007407Y003435D02*
X007432Y003435D01*
X007760Y003352D02*
X007760Y003064D01*
X007790Y003035D01*
X007759Y003065D01*
X007402Y003065D01*
X007809Y002676D02*
X007819Y002676D01*
X007817Y002675D01*
X008069Y002492D02*
X008303Y002492D01*
X008303Y002335D02*
X008069Y002335D01*
X008501Y002020D02*
X008501Y001869D01*
X008434Y001801D01*
X008289Y001801D01*
X008257Y001832D01*
X008501Y001903D02*
X008501Y002137D01*
X008659Y002137D02*
X008659Y001903D01*
X008659Y001807D02*
X008659Y002020D01*
X008816Y001903D02*
X008816Y002137D01*
X008974Y002137D02*
X008974Y001903D01*
X009131Y001903D02*
X009131Y002137D01*
X009289Y002137D02*
X009289Y001903D01*
X009446Y001903D02*
X009446Y002137D01*
X009367Y002257D02*
X009347Y002277D01*
X009327Y002277D01*
X009327Y003161D01*
X009407Y003161D01*
X009407Y002277D01*
X009388Y002277D01*
X009367Y002257D01*
X009368Y002257D01*
X009407Y002336D02*
X009327Y002336D01*
X009327Y002414D02*
X009407Y002414D01*
X009407Y002493D02*
X009327Y002493D01*
X009327Y002571D02*
X009407Y002571D01*
X009407Y002650D02*
X009327Y002650D01*
X009327Y002728D02*
X009407Y002728D01*
X009407Y002807D02*
X009327Y002807D01*
X009327Y002885D02*
X009407Y002885D01*
X009367Y002895D02*
X009367Y003201D01*
X009327Y003121D02*
X009407Y003121D01*
X009407Y003042D02*
X009327Y003042D01*
X009327Y002964D02*
X009407Y002964D01*
X009604Y002137D02*
X009604Y001903D01*
X009761Y001847D02*
X009557Y001645D01*
X009761Y001847D02*
X009761Y002020D01*
X009761Y001903D02*
X009761Y002137D01*
X009919Y002137D02*
X009919Y001903D01*
X010076Y001903D02*
X010076Y002137D01*
X010234Y002137D02*
X010234Y001903D01*
X010234Y002020D02*
X010234Y001682D01*
X010271Y001645D01*
X009917Y001645D01*
X010374Y001943D02*
X010787Y001943D01*
X010787Y002022D02*
X010374Y002022D01*
X010374Y002100D02*
X010787Y002100D01*
X010787Y002179D02*
X010756Y002179D01*
X010549Y002179D02*
X010549Y002179D01*
X010549Y002257D02*
X010549Y002257D01*
X010645Y001865D02*
X010683Y001865D01*
X010683Y001786D02*
X010645Y001786D01*
X010645Y001708D02*
X010683Y001708D01*
X007315Y005948D02*
X007027Y005948D01*
X005349Y007341D02*
X005349Y007341D01*
X005349Y007462D01*
X005349Y007707D01*
X005349Y007707D01*
X005349Y007462D01*
X005349Y007462D01*
X005349Y007341D01*
X005349Y007360D02*
X005349Y007360D01*
X005349Y007438D02*
X005349Y007438D01*
X005349Y007462D02*
X005349Y007462D01*
X005349Y007517D02*
X005349Y007517D01*
X005349Y007595D02*
X005349Y007595D01*
X005349Y007674D02*
X005349Y007674D01*
X005223Y007752D02*
X005216Y007750D01*
X005184Y007731D01*
X005172Y007719D01*
X004973Y007719D01*
X004965Y007711D01*
X004957Y007719D01*
X004717Y007719D01*
X004709Y007711D01*
X004701Y007719D01*
X004461Y007719D01*
X004402Y007661D01*
X004402Y007641D01*
X004394Y007650D01*
X004345Y007699D01*
X004345Y008466D01*
X004402Y008523D01*
X004402Y008129D01*
X004440Y008091D01*
X004440Y008051D01*
X004684Y007807D01*
X005168Y007807D01*
X005223Y007752D01*
X004345Y007752D01*
X004345Y007831D02*
X004661Y007831D01*
X004582Y007909D02*
X004345Y007909D01*
X004345Y007988D02*
X004504Y007988D01*
X004440Y008066D02*
X004345Y008066D01*
X004345Y008145D02*
X004402Y008145D01*
X004402Y008223D02*
X004345Y008223D01*
X004345Y008302D02*
X004402Y008302D01*
X004402Y008380D02*
X004345Y008380D01*
X004345Y008459D02*
X004402Y008459D01*
X004539Y008685D02*
X004643Y008770D01*
X004559Y008770D01*
X004419Y008806D02*
X004317Y008806D01*
X004167Y008656D01*
X004167Y009270D01*
X004422Y009270D01*
X004422Y009270D01*
X004422Y009133D01*
X004661Y009133D01*
X004661Y009094D01*
X004422Y009094D01*
X004422Y008957D01*
X004425Y008948D01*
X004425Y008834D01*
X004419Y008828D01*
X004419Y008806D01*
X004425Y008851D02*
X004167Y008851D01*
X004167Y008773D02*
X004284Y008773D01*
X004206Y008694D02*
X004167Y008694D01*
X004167Y008930D02*
X004425Y008930D01*
X004422Y009008D02*
X004167Y009008D01*
X004167Y009087D02*
X004422Y009087D01*
X004422Y009165D02*
X004167Y009165D01*
X004167Y009244D02*
X004422Y009244D01*
X004330Y009410D02*
X004167Y009410D01*
X004167Y009497D01*
X004167Y009593D01*
X004131Y009681D01*
X004063Y009748D01*
X003975Y009785D01*
X003080Y009785D01*
X003027Y009763D01*
X003027Y009811D01*
X002969Y009870D01*
X002386Y009870D01*
X002381Y009865D01*
X002379Y009865D01*
X002379Y009905D01*
X002456Y009874D01*
X002559Y009874D01*
X002655Y009913D01*
X002697Y009956D01*
X002740Y009913D01*
X002836Y009874D01*
X002939Y009874D01*
X003035Y009913D01*
X003101Y009980D01*
X003269Y009980D01*
X003269Y010238D01*
X003346Y010238D01*
X003346Y009980D01*
X003442Y009980D01*
X003442Y009963D01*
X003451Y009927D01*
X003470Y009895D01*
X003496Y009869D01*
X003528Y009851D01*
X003563Y009841D01*
X003819Y009841D01*
X003819Y010100D01*
X003896Y010100D01*
X003896Y009841D01*
X004151Y009841D01*
X004187Y009851D01*
X004219Y009869D01*
X004245Y009895D01*
X004263Y009927D01*
X004267Y009940D01*
X004321Y009886D01*
X004321Y009870D01*
X004330Y009861D01*
X004309Y009840D01*
X004290Y009808D01*
X004281Y009772D01*
X004281Y009654D01*
X004540Y009654D01*
X004540Y009616D01*
X004281Y009616D01*
X004281Y009499D01*
X004290Y009463D01*
X004309Y009431D01*
X004330Y009410D01*
X004286Y009479D02*
X004167Y009479D01*
X004167Y009558D02*
X004281Y009558D01*
X004149Y009636D02*
X004540Y009636D01*
X004578Y009636D02*
X004977Y009636D01*
X004977Y009654D02*
X004977Y009616D01*
X004718Y009616D01*
X004578Y009616D01*
X004578Y009654D01*
X004977Y009654D01*
X005292Y009164D02*
X005436Y009164D01*
X005436Y009126D01*
X005292Y009126D01*
X005292Y009164D01*
X004321Y009872D02*
X004222Y009872D01*
X004287Y009793D02*
X003027Y009793D01*
X003072Y009950D02*
X003445Y009950D01*
X003493Y009872D02*
X002379Y009872D01*
X002692Y009950D02*
X002703Y009950D01*
X003147Y010145D02*
X003147Y010185D01*
X003108Y010281D01*
X003035Y010354D01*
X002939Y010394D01*
X002902Y010394D01*
X002902Y010614D01*
X003402Y010614D01*
X003465Y010551D01*
X003465Y010145D01*
X003147Y010145D01*
X003147Y010186D02*
X003465Y010186D01*
X003465Y010264D02*
X003115Y010264D01*
X003046Y010343D02*
X003465Y010343D01*
X003465Y010421D02*
X002902Y010421D01*
X002902Y010500D02*
X003465Y010500D01*
X003445Y010575D02*
X003411Y010609D01*
X003182Y010609D01*
X003182Y010575D01*
X003269Y010575D01*
X003269Y010316D01*
X003346Y010316D01*
X003346Y010575D01*
X003445Y010575D01*
X003441Y010578D02*
X003182Y010578D01*
X003269Y010500D02*
X003346Y010500D01*
X003346Y010421D02*
X003269Y010421D01*
X003269Y010343D02*
X003346Y010343D01*
X003346Y010186D02*
X003269Y010186D01*
X003269Y010107D02*
X003346Y010107D01*
X003346Y010029D02*
X003269Y010029D01*
X003819Y010029D02*
X003896Y010029D01*
X003896Y009950D02*
X003819Y009950D01*
X003819Y009872D02*
X003896Y009872D01*
X004097Y009715D02*
X004281Y009715D01*
X003438Y010578D02*
X002902Y010578D01*
X004370Y007674D02*
X004415Y007674D01*
X004210Y007466D02*
X004210Y006395D01*
X003902Y006395D01*
X003902Y006505D01*
X003975Y006505D01*
X004063Y006541D01*
X004131Y006609D01*
X004167Y006697D01*
X004167Y007508D01*
X004210Y007466D01*
X004210Y007438D02*
X004167Y007438D01*
X004167Y007360D02*
X004210Y007360D01*
X004210Y007281D02*
X004167Y007281D01*
X004167Y007203D02*
X004210Y007203D01*
X004210Y007124D02*
X004167Y007124D01*
X004167Y007046D02*
X004210Y007046D01*
X004210Y006967D02*
X004167Y006967D01*
X004167Y006889D02*
X004210Y006889D01*
X004210Y006810D02*
X004167Y006810D01*
X004167Y006732D02*
X004210Y006732D01*
X004210Y006653D02*
X004149Y006653D01*
X004097Y006575D02*
X004210Y006575D01*
X004210Y006496D02*
X003902Y006496D01*
X003902Y006418D02*
X004210Y006418D01*
X004597Y006372D02*
X004807Y006582D01*
X004807Y006708D01*
X009723Y006418D02*
X010022Y006418D01*
X010100Y006496D02*
X009766Y006496D01*
X009767Y006575D02*
X010179Y006575D01*
D29*
X009367Y003201D03*
D30*
X009282Y004715D03*
X009085Y004715D03*
X009085Y004953D03*
X009282Y004953D03*
X009184Y005137D03*
D31*
X009614Y005022D03*
X009614Y005302D03*
X009955Y005302D03*
X009955Y005022D03*
X009955Y004742D03*
X009614Y004742D03*
X010232Y004739D03*
X010573Y004739D03*
X007760Y003902D03*
X007760Y003627D03*
X007760Y003352D03*
X007419Y003352D03*
X007419Y003627D03*
X007419Y003902D03*
D32*
X007301Y004248D03*
X007734Y004248D03*
X007734Y004799D03*
X007301Y004799D03*
D33*
X007023Y006608D03*
X007023Y007119D03*
X006157Y006864D03*
X005926Y002088D03*
X005926Y001576D03*
X006792Y001832D03*
D34*
X003857Y010139D03*
X003857Y010713D03*
D35*
X007269Y009902D03*
X007761Y009902D03*
D36*
X009328Y010585D03*
X010667Y010585D03*
D37*
X007889Y002091D03*
X007889Y001599D03*
D38*
X009427Y008145D03*
X002627Y008145D03*
D39*
X002677Y009645D03*
X002677Y006645D03*
X009377Y006645D03*
X009377Y009645D03*
D40*
X006160Y010276D02*
X006160Y010356D01*
X006121Y010395D01*
X006121Y010775D01*
X005434Y010332D02*
X005434Y009989D01*
X005152Y009989D01*
X005121Y009957D01*
X004434Y009957D01*
X004223Y010168D01*
X004223Y010333D01*
X004170Y010386D01*
X004005Y010386D01*
X003809Y010582D01*
X003621Y010582D01*
X003465Y010739D01*
X003103Y010739D01*
X003079Y010762D01*
X002871Y010762D01*
X002871Y011051D01*
X003965Y011051D01*
X004184Y010832D01*
X004184Y010520D01*
X004252Y010451D01*
X004252Y010300D01*
X004305Y010247D01*
X004616Y010247D01*
X004657Y010288D01*
X004699Y010247D01*
X005010Y010247D01*
X005062Y010300D01*
X005062Y010332D01*
X005434Y010332D01*
X005434Y010309D02*
X005062Y010309D01*
X005013Y010251D02*
X005434Y010251D01*
X005434Y010192D02*
X004223Y010192D01*
X004223Y010251D02*
X004301Y010251D01*
X004252Y010309D02*
X004223Y010309D01*
X004252Y010368D02*
X004189Y010368D01*
X004252Y010426D02*
X003965Y010426D01*
X003906Y010485D02*
X004219Y010485D01*
X004184Y010543D02*
X003848Y010543D01*
X003602Y010602D02*
X004184Y010602D01*
X004184Y010660D02*
X003543Y010660D01*
X003485Y010719D02*
X004184Y010719D01*
X004184Y010777D02*
X002871Y010777D01*
X002871Y010836D02*
X004180Y010836D01*
X004122Y010894D02*
X002871Y010894D01*
X002871Y010895D02*
X002715Y010739D01*
X002715Y010306D01*
X002887Y010134D01*
X002559Y010332D02*
X001309Y010332D01*
X001257Y010384D01*
X001257Y011045D01*
X001258Y011049D01*
X001261Y011056D01*
X001266Y011061D01*
X001274Y011064D01*
X001277Y011065D01*
X002559Y011065D01*
X002559Y010332D01*
X002559Y010368D02*
X001273Y010368D01*
X001257Y010426D02*
X002559Y010426D01*
X002559Y010485D02*
X001257Y010485D01*
X001257Y010543D02*
X002559Y010543D01*
X002559Y010602D02*
X001257Y010602D01*
X001257Y010660D02*
X002559Y010660D01*
X002559Y010719D02*
X001257Y010719D01*
X001257Y010777D02*
X002559Y010777D01*
X002559Y010836D02*
X001257Y010836D01*
X001257Y010894D02*
X002559Y010894D01*
X002559Y010953D02*
X001257Y010953D01*
X001257Y011011D02*
X002559Y011011D01*
X002871Y011011D02*
X004005Y011011D01*
X004063Y010953D02*
X002871Y010953D01*
X002871Y010895D02*
X002953Y010895D01*
X004257Y010134D02*
X005434Y010134D01*
X005434Y010075D02*
X004316Y010075D01*
X004374Y010017D02*
X005434Y010017D01*
X005122Y009958D02*
X004433Y009958D01*
X004620Y010251D02*
X004695Y010251D01*
X004539Y008685D02*
X004530Y008676D01*
X004371Y008676D01*
X004215Y008520D01*
X004215Y007645D01*
X004340Y007520D01*
X004340Y006280D01*
X004434Y006186D01*
X004434Y005799D01*
X004527Y005705D01*
X004746Y005489D02*
X004277Y005489D01*
X003371Y006395D01*
X002422Y006395D01*
X002017Y006800D01*
X002017Y007686D01*
X001711Y007992D01*
X001711Y008604D01*
X001767Y006884D02*
X001871Y006800D01*
X001871Y006770D01*
X002371Y006270D01*
X002715Y006270D01*
X002996Y005989D01*
X002996Y005957D01*
X002684Y005801D02*
X001849Y005801D01*
X002684Y005801D02*
X003309Y005176D01*
X003875Y005176D01*
X004312Y004739D01*
X004312Y004515D01*
X004161Y004364D01*
X004027Y004364D01*
X003874Y004210D01*
X003874Y003824D01*
X003891Y003645D02*
X004027Y003645D01*
X004131Y003749D01*
X004131Y003936D01*
X004215Y004020D01*
X004215Y004125D01*
X004215Y004239D01*
X004581Y004604D01*
X004581Y004835D01*
X004072Y004620D02*
X003641Y005051D01*
X003309Y005051D01*
X003174Y004916D01*
X003174Y004499D01*
X003195Y004478D01*
X003195Y004110D01*
X002998Y004110D02*
X002998Y004584D01*
X002980Y004602D01*
X002931Y004645D01*
X002684Y004750D02*
X002962Y005036D01*
X002652Y005231D02*
X002465Y005044D01*
X002465Y004270D01*
X002465Y004249D01*
X002604Y004110D01*
X002800Y004113D02*
X002800Y004279D01*
X002684Y004395D01*
X002684Y004750D01*
X002465Y004270D02*
X002463Y004268D01*
X002462Y004270D01*
X002277Y004270D01*
X002216Y004208D01*
X002215Y004228D01*
X001996Y004020D02*
X001652Y004020D01*
X001434Y003801D01*
X001434Y002426D01*
X001590Y002270D01*
X001590Y002114D01*
X001840Y001864D01*
X001837Y002239D02*
X001590Y002489D01*
X001590Y003739D01*
X001715Y003864D01*
X001955Y003864D01*
X002191Y003628D01*
X002319Y003628D01*
X002319Y003824D02*
X002192Y003824D01*
X001996Y004020D01*
X001947Y003520D02*
X002054Y003431D01*
X002319Y003431D01*
X002319Y003234D02*
X001960Y003234D01*
X001840Y003114D01*
X002121Y003020D02*
X001871Y002770D01*
X001871Y002707D01*
X002090Y002580D02*
X002090Y002270D01*
X002244Y002116D01*
X002192Y002049D01*
X002090Y002580D02*
X002319Y002840D01*
X002319Y003037D02*
X002201Y003037D01*
X002184Y003020D01*
X002121Y003020D01*
X003195Y002555D02*
X003195Y002353D01*
X003309Y002239D01*
X003652Y002239D01*
X003902Y001989D01*
X003902Y001916D01*
X003952Y001800D01*
X004186Y001632D01*
X004453Y001632D01*
X005184Y001645D02*
X005371Y001832D01*
X005715Y001832D01*
X004736Y002895D02*
X004736Y003676D01*
X004871Y004082D01*
X005371Y004770D01*
X005693Y005092D01*
X005693Y005270D01*
X004966Y005545D02*
X004803Y005545D01*
X004746Y005489D01*
X004606Y006364D02*
X004597Y006372D01*
X003414Y004810D02*
X003391Y004756D01*
X003391Y004110D01*
X003588Y004110D02*
X003588Y004268D01*
X003744Y004457D01*
X003891Y003645D02*
X003874Y003628D01*
X003874Y003431D02*
X004143Y003431D01*
X004350Y003637D01*
X004314Y003254D02*
X004294Y003234D01*
X003874Y003234D01*
X003874Y003037D02*
X004134Y003037D01*
X004172Y002999D01*
X004475Y002999D01*
X004600Y003124D01*
X004600Y004216D01*
X004579Y004227D01*
X004736Y002895D02*
X004574Y002754D01*
X004297Y002754D01*
X004212Y002840D01*
X003874Y002840D01*
X002801Y004110D02*
X002800Y004113D01*
X007225Y002240D02*
X007242Y002250D01*
X007290Y002332D01*
X007317Y002360D01*
X007317Y002832D01*
X007590Y002832D01*
X007590Y002753D01*
X007577Y002723D01*
X007577Y002627D01*
X007578Y002625D01*
X007555Y002625D01*
X007466Y002588D01*
X007399Y002521D01*
X007362Y002433D01*
X007362Y002337D01*
X007399Y002249D01*
X007466Y002181D01*
X007555Y002145D01*
X007650Y002145D01*
X007738Y002181D01*
X007806Y002249D01*
X007817Y002275D01*
X007929Y002275D01*
X007976Y002244D01*
X008015Y002205D01*
X008152Y002205D01*
X008152Y002082D01*
X008059Y001989D01*
X007385Y001989D01*
X007385Y002187D01*
X007332Y002240D01*
X007225Y002240D01*
X007242Y002250D02*
X007242Y002250D01*
X007242Y002250D01*
X007268Y002295D02*
X007380Y002295D01*
X007362Y002353D02*
X007311Y002353D01*
X007317Y002412D02*
X007362Y002412D01*
X007378Y002470D02*
X007317Y002470D01*
X007317Y002529D02*
X007407Y002529D01*
X007465Y002587D02*
X007317Y002587D01*
X007317Y002646D02*
X007577Y002646D01*
X007577Y002704D02*
X007317Y002704D01*
X007317Y002763D02*
X007590Y002763D01*
X007590Y002821D02*
X007317Y002821D01*
X007612Y002395D02*
X007602Y002385D01*
X007612Y002395D02*
X007965Y002395D01*
X008056Y002335D01*
X008186Y002335D01*
X008186Y002492D02*
X008055Y002492D01*
X007809Y002676D01*
X007793Y002236D02*
X007984Y002236D01*
X008152Y002178D02*
X007730Y002178D01*
X007475Y002178D02*
X007385Y002178D01*
X007385Y002119D02*
X008152Y002119D01*
X008131Y002061D02*
X007385Y002061D01*
X007385Y002002D02*
X008072Y002002D01*
X007412Y002236D02*
X007336Y002236D01*
X009446Y004382D02*
X009446Y004570D01*
X009419Y004597D01*
X009419Y004942D01*
X009465Y004989D01*
X009581Y004989D01*
X009614Y005022D01*
X010277Y005426D02*
X010277Y005645D01*
X010277Y005426D02*
X010573Y005131D01*
X010573Y004739D01*
X010715Y004957D02*
X010715Y005332D01*
X010652Y005395D01*
X010715Y004957D02*
X010797Y004875D01*
X010797Y003957D01*
X010761Y003910D01*
X010549Y003910D01*
X007965Y004520D02*
X007496Y004520D01*
X007402Y004614D01*
X007402Y004698D01*
X007301Y004799D01*
D41*
X002996Y005957D03*
X002215Y006051D03*
X001840Y005239D03*
X001402Y006520D03*
X001402Y007020D03*
X001559Y009364D03*
X002507Y010134D03*
X002887Y010134D03*
X004309Y009145D03*
D42*
X004623Y009272D02*
X004681Y009114D01*
X004623Y009272D02*
X004715Y009364D01*
X005340Y009364D01*
X005434Y009270D01*
X005434Y009147D01*
X005456Y009145D01*
X005074Y009114D02*
X005056Y009076D01*
X005037Y008770D01*
X005093Y008733D01*
X005093Y008328D01*
X005349Y008328D02*
X005349Y008676D01*
X005387Y008715D01*
X005411Y008691D01*
X005747Y008672D01*
X006072Y008769D02*
X006072Y008413D01*
X006309Y008176D01*
X006309Y007893D01*
X006506Y007676D01*
X006606Y007998D02*
X006857Y008018D01*
X006857Y007971D01*
X006902Y007926D01*
X006996Y007926D01*
X007027Y007895D01*
X007027Y007696D01*
X006996Y007665D01*
X006996Y007926D02*
X007155Y007926D01*
X007362Y007739D01*
X007756Y007739D02*
X007775Y007397D01*
X007777Y007395D01*
X007777Y007386D01*
X007762Y007382D01*
X007401Y008274D02*
X007401Y008304D01*
X006965Y008760D01*
X006937Y008769D01*
X006583Y008769D01*
X006327Y008769D02*
X006327Y008619D01*
X006496Y008450D01*
X006515Y008431D01*
X006857Y008412D01*
X006583Y008021D02*
X006606Y007998D01*
X006092Y008000D02*
X006112Y007676D01*
X006092Y008000D02*
X006072Y008021D01*
X006072Y008101D01*
X005902Y008270D01*
X005759Y008270D01*
X005747Y008278D01*
X005744Y007957D02*
X005371Y007957D01*
X004746Y007957D01*
X004590Y008114D01*
X004590Y008319D01*
X004581Y008328D01*
X004837Y008328D02*
X004837Y008491D01*
X004652Y008676D01*
X004652Y008741D01*
X004643Y008770D01*
X004996Y009635D02*
X005185Y009616D01*
X005333Y009764D01*
X005849Y009145D02*
X006027Y009145D01*
X006072Y009101D01*
X006072Y008769D01*
X005744Y007957D02*
X005746Y007935D01*
X005746Y007542D02*
X005409Y007522D01*
X005349Y007462D01*
X005349Y007636D01*
X005184Y007770D01*
X004527Y007770D01*
X004465Y007832D01*
X004581Y007462D02*
X004581Y007310D01*
X004762Y007129D01*
X004837Y007204D01*
X004837Y007462D01*
X005093Y007462D02*
X005093Y007113D01*
X005143Y007082D01*
X005152Y007111D01*
X005152Y007145D01*
X005152Y007111D02*
X005152Y007020D01*
X005123Y006991D01*
X005143Y006739D01*
X005537Y006739D02*
X005559Y006736D01*
X005559Y006490D01*
X005684Y006365D01*
X005684Y006087D01*
X005714Y006057D01*
X005902Y005801D02*
X005996Y005895D01*
X005996Y006208D01*
X006007Y006219D01*
X006071Y006219D01*
X006246Y006395D01*
X006246Y006837D01*
X006157Y006864D01*
X006007Y006560D02*
X005879Y006560D01*
X005684Y006365D01*
X005382Y006365D01*
X005349Y006332D01*
X004966Y006322D02*
X004966Y006057D01*
X004676Y006057D01*
X004644Y006025D01*
X004966Y005801D02*
X005902Y005801D01*
X005714Y005545D02*
X005714Y005291D01*
X005693Y005270D01*
X005299Y005270D02*
X005299Y005467D01*
X005221Y005545D01*
X004966Y005545D01*
X004527Y005272D02*
X004527Y004888D01*
X004581Y004835D01*
X004211Y006025D02*
X004027Y006208D01*
X004027Y006395D01*
X004762Y007129D02*
X004807Y007102D01*
X005349Y007417D02*
X005559Y007207D01*
X005559Y007085D01*
X005537Y007082D01*
X005349Y007417D02*
X005349Y007462D01*
X004956Y006332D02*
X004966Y006322D01*
X006934Y004551D02*
X007237Y004248D01*
X007301Y004248D01*
X008902Y002770D02*
X009242Y002770D01*
X009322Y002850D01*
X008659Y001807D02*
X008659Y001651D01*
X008559Y001551D01*
X008012Y001551D01*
X007889Y001599D01*
X007652Y001832D02*
X007438Y001618D01*
X007157Y001638D01*
X006975Y001618D01*
X006792Y001832D01*
X007652Y001832D02*
X008257Y001832D01*
X005926Y002088D02*
X005536Y002088D01*
X005276Y002088D01*
X005207Y002020D01*
X005536Y002088D02*
X005559Y002049D01*
X003391Y002555D02*
X003391Y003037D01*
X002801Y003037D02*
X002629Y002809D01*
X002604Y002555D01*
X002397Y002369D02*
X002543Y002223D01*
X002590Y002176D01*
X002527Y002048D01*
X002397Y002369D02*
X002337Y002400D01*
X002192Y001655D02*
X002038Y001655D01*
X001965Y001582D01*
X001527Y001582D01*
X001465Y001645D01*
X001827Y004520D02*
X001949Y004641D01*
X002215Y004622D01*
X001849Y005801D02*
X001849Y006137D01*
X002121Y006145D02*
X002121Y006301D01*
X001951Y006471D01*
X001767Y006490D01*
X001402Y006520D02*
X001402Y006190D01*
X001456Y006137D01*
X002121Y006145D02*
X002215Y006051D01*
X001767Y006884D02*
X001786Y006923D01*
X001767Y007380D01*
X001402Y007380D02*
X001402Y007020D01*
X001402Y007380D02*
X001373Y007380D01*
X001374Y008604D02*
X001711Y008604D01*
X001711Y008998D02*
X001964Y008998D01*
X001986Y009020D01*
X001559Y009364D02*
X001374Y009179D01*
X001374Y008998D01*
X002507Y010134D02*
X002461Y010180D01*
X002461Y010515D01*
X004371Y010676D02*
X004402Y010645D01*
X004402Y010428D01*
X004461Y010475D01*
X004371Y010676D02*
X004371Y010770D01*
X004461Y010810D01*
X004854Y010810D02*
X004838Y010645D01*
X005152Y010645D01*
X005191Y010595D01*
X004838Y010645D02*
X004854Y010475D01*
X006936Y009145D02*
X006965Y009154D01*
X007336Y009174D01*
X007494Y009016D01*
X009377Y009645D02*
X009902Y009645D01*
X010152Y009395D01*
X010152Y009145D01*
X009614Y005302D02*
X009613Y005301D01*
X009246Y005301D01*
X009184Y005239D01*
X009184Y005137D01*
D43*
X008387Y004722D03*
X008902Y003645D03*
X008902Y002770D03*
X009777Y002770D03*
X009777Y003645D03*
X010652Y005395D03*
X010277Y005645D03*
X010590Y006114D03*
X009434Y006239D03*
X010657Y007520D03*
X010657Y008645D03*
X007684Y006957D03*
X007684Y006364D03*
X006590Y007270D03*
X006996Y007665D03*
X006496Y008450D03*
X005387Y008715D03*
X005371Y007957D03*
X004465Y007832D03*
X004597Y006372D03*
X004027Y006395D03*
X002962Y005036D03*
X002652Y005231D03*
X002152Y005520D03*
X002931Y004645D03*
X003414Y004810D03*
X003744Y004457D03*
X004072Y004620D03*
X004215Y004125D03*
X004579Y004227D03*
X004839Y004487D03*
X004350Y003637D03*
X004314Y003254D03*
X004297Y002754D03*
X004387Y001989D03*
X004747Y001980D03*
X005207Y002020D03*
X006409Y001832D03*
X007602Y002385D03*
X007817Y002675D03*
X007790Y003035D03*
X008257Y001832D03*
X009557Y001645D03*
X009917Y001645D03*
X006934Y004551D03*
X005996Y004895D03*
X005684Y006365D03*
X007590Y009502D03*
X006309Y010945D03*
X005746Y009520D03*
X001827Y004520D03*
X001947Y003520D03*
X001840Y003114D03*
X001871Y002707D03*
X002337Y002400D03*
X001837Y002239D03*
X001840Y001864D03*
X001465Y001645D03*
D44*
X002121Y008145D02*
X002627Y008145D01*
X001986Y009642D02*
X001777Y009851D01*
X007590Y009502D02*
X007761Y009673D01*
X007761Y009902D01*
X007761Y009972D01*
X007934Y010145D01*
X007934Y010407D01*
X007953Y010426D01*
D45*
X005746Y010551D02*
X005746Y010020D01*
X005746Y010551D02*
X005652Y010645D01*
X005584Y010595D01*
X002121Y008145D02*
X001986Y008280D01*
X001986Y009020D01*
X001986Y009642D01*
D46*
X001986Y009645D01*
X002677Y009645D01*
D47*
X009614Y005763D02*
X009614Y005302D01*
X009614Y005763D02*
X010371Y006520D01*
X010371Y008989D01*
X010652Y009270D01*
X010652Y010570D01*
X010667Y010585D01*
M02*
