G75*
G70*
%OFA0B0*%
%FSLAX24Y24*%
%IPPOS*%
%LPD*%
%AMOC8*
5,1,8,0,0,1.08239X$1,22.5*
%
%ADD10C,0.0278*%
%ADD11C,0.0320*%
%ADD12C,0.0080*%
%ADD13C,0.0300*%
%ADD14C,0.0100*%
D10*
X002797Y003058D03*
X002797Y003353D03*
X002797Y003649D03*
X003093Y003649D03*
X003388Y003649D03*
X003388Y003353D03*
X003093Y003353D03*
X003093Y003058D03*
X003388Y003058D03*
D11*
X001836Y005260D03*
X002211Y006072D03*
X001399Y006541D03*
X001399Y007041D03*
X002993Y005978D03*
X004305Y009166D03*
X002884Y010155D03*
X002504Y010155D03*
X001555Y009385D03*
D12*
X001386Y009186D02*
X001264Y009186D01*
X001264Y009108D02*
X002004Y009108D01*
X002004Y009186D02*
X001725Y009186D01*
X001702Y009164D02*
X001776Y009237D01*
X001815Y009333D01*
X001815Y009436D01*
X001776Y009532D01*
X001702Y009605D01*
X001607Y009645D01*
X001503Y009645D01*
X001408Y009605D01*
X001335Y009532D01*
X001295Y009436D01*
X001295Y009333D01*
X001335Y009237D01*
X001408Y009164D01*
X001503Y009125D01*
X001607Y009125D01*
X001702Y009164D01*
X001787Y009265D02*
X002004Y009265D01*
X002004Y009343D02*
X001815Y009343D01*
X001815Y009422D02*
X002004Y009422D01*
X002004Y009439D02*
X002004Y008393D01*
X002040Y008305D01*
X002108Y008237D01*
X002196Y008201D01*
X002884Y008201D01*
X002884Y008131D01*
X002196Y008131D01*
X002108Y008094D01*
X002040Y008027D01*
X002004Y007939D01*
X002004Y006893D01*
X002040Y006805D01*
X002108Y006737D01*
X002196Y006701D01*
X002891Y006701D01*
X002920Y006630D01*
X002988Y006562D01*
X003076Y006526D01*
X003799Y006526D01*
X003774Y006466D01*
X003774Y006366D01*
X003812Y006274D01*
X003882Y006204D01*
X003974Y006166D01*
X004074Y006166D01*
X004166Y006204D01*
X004236Y006274D01*
X004274Y006366D01*
X004274Y006466D01*
X004236Y006557D01*
X004166Y006628D01*
X004132Y006642D01*
X004164Y006718D01*
X004164Y008943D01*
X004253Y008906D01*
X004357Y008906D01*
X004452Y008945D01*
X004526Y009019D01*
X004565Y009114D01*
X004565Y009218D01*
X004526Y009313D01*
X004452Y009386D01*
X004357Y009426D01*
X004253Y009426D01*
X004164Y009389D01*
X004164Y009614D01*
X004127Y009702D01*
X004060Y009769D01*
X003972Y009806D01*
X003076Y009806D01*
X002988Y009769D01*
X002920Y009702D01*
X002891Y009631D01*
X002196Y009631D01*
X002108Y009594D01*
X002040Y009527D01*
X002004Y009439D01*
X002029Y009500D02*
X001789Y009500D01*
X001729Y009579D02*
X002092Y009579D01*
X002357Y009934D02*
X002452Y009895D01*
X002556Y009895D01*
X002651Y009934D01*
X002694Y009977D01*
X002737Y009934D01*
X002832Y009895D01*
X002936Y009895D01*
X003031Y009934D01*
X003104Y010007D01*
X003144Y010103D01*
X003144Y010206D01*
X003104Y010302D01*
X003031Y010375D01*
X002936Y010415D01*
X002832Y010415D01*
X002737Y010375D01*
X002694Y010332D01*
X002651Y010375D01*
X002556Y010415D01*
X002452Y010415D01*
X002357Y010375D01*
X002283Y010302D01*
X002244Y010206D01*
X002244Y010103D01*
X002283Y010007D01*
X002357Y009934D01*
X002319Y009971D02*
X001264Y009971D01*
X001264Y009893D02*
X007884Y009893D01*
X007884Y009964D02*
X007884Y007128D01*
X007822Y007190D01*
X007730Y007228D01*
X007630Y007228D01*
X007539Y007190D01*
X007468Y007120D01*
X007430Y007028D01*
X007430Y006929D01*
X007468Y006837D01*
X007539Y006766D01*
X007630Y006728D01*
X007730Y006728D01*
X007822Y006766D01*
X007884Y006829D01*
X007884Y006534D01*
X007822Y006597D01*
X007730Y006635D01*
X007630Y006635D01*
X007539Y006597D01*
X007468Y006526D01*
X007430Y006434D01*
X007430Y006335D01*
X007468Y006243D01*
X007539Y006173D01*
X007630Y006135D01*
X007730Y006135D01*
X007822Y006173D01*
X007892Y006243D01*
X007914Y006296D01*
X007920Y006280D01*
X007988Y006212D01*
X008076Y006176D01*
X008972Y006176D01*
X009060Y006212D01*
X009127Y006280D01*
X009164Y006368D01*
X009164Y006701D01*
X009852Y006701D01*
X009940Y006737D01*
X010007Y006805D01*
X010044Y006893D01*
X010044Y007939D01*
X010007Y008027D01*
X009940Y008094D01*
X009852Y008131D01*
X009164Y008131D01*
X009164Y008201D01*
X009852Y008201D01*
X009940Y008237D01*
X010007Y008305D01*
X010044Y008393D01*
X010044Y009291D01*
X010784Y009291D01*
X010784Y008883D01*
X010704Y008916D01*
X010604Y008916D01*
X010512Y008878D01*
X010442Y008807D01*
X010404Y008716D01*
X010404Y008616D01*
X010442Y008524D01*
X010512Y008454D01*
X010604Y008416D01*
X010704Y008416D01*
X010784Y008449D01*
X010784Y007758D01*
X010704Y007791D01*
X010604Y007791D01*
X010512Y007753D01*
X010442Y007682D01*
X010404Y007591D01*
X010404Y007491D01*
X010442Y007399D01*
X010512Y007329D01*
X010604Y007291D01*
X010704Y007291D01*
X010784Y007324D01*
X010784Y006291D01*
X010728Y006347D01*
X010636Y006385D01*
X010537Y006385D01*
X010445Y006347D01*
X010374Y006276D01*
X010336Y006184D01*
X010336Y006085D01*
X010374Y005993D01*
X010445Y005923D01*
X010537Y005885D01*
X010636Y005885D01*
X010728Y005923D01*
X010784Y005979D01*
X010784Y005631D01*
X010699Y005666D01*
X010599Y005666D01*
X010524Y005635D01*
X010524Y005716D01*
X010486Y005807D01*
X010416Y005878D01*
X010324Y005916D01*
X010224Y005916D01*
X010132Y005878D01*
X010062Y005807D01*
X010024Y005716D01*
X010024Y005616D01*
X010062Y005524D01*
X010132Y005454D01*
X010224Y005416D01*
X010324Y005416D01*
X010399Y005447D01*
X010399Y005366D01*
X010437Y005274D01*
X010507Y005204D01*
X010599Y005166D01*
X010699Y005166D01*
X010784Y005201D01*
X010784Y001566D01*
X010784Y001564D01*
X010782Y001560D01*
X010779Y001558D01*
X010776Y001556D01*
X010774Y001556D01*
X010139Y001556D01*
X010164Y001616D01*
X010164Y001716D01*
X010126Y001807D01*
X010784Y001807D01*
X010784Y001729D02*
X010158Y001729D01*
X010164Y001650D02*
X010784Y001650D01*
X010784Y001572D02*
X010146Y001572D01*
X010126Y001807D02*
X010056Y001878D01*
X009964Y001916D01*
X009864Y001916D01*
X009772Y001878D01*
X009734Y001839D01*
X009696Y001878D01*
X009604Y001916D01*
X009504Y001916D01*
X009412Y001878D01*
X009342Y001807D01*
X008504Y001807D01*
X008504Y001804D02*
X008504Y001903D01*
X008466Y001995D01*
X008396Y002065D01*
X008304Y002103D01*
X008204Y002103D01*
X008112Y002065D01*
X008042Y001995D01*
X008004Y001903D01*
X008004Y001804D01*
X008029Y001743D01*
X002426Y001743D01*
X002258Y001911D01*
X002258Y002349D01*
X002216Y002390D01*
X002216Y002578D01*
X002134Y002660D01*
X002117Y002677D01*
X002118Y002679D01*
X002118Y002778D01*
X002080Y002870D01*
X002009Y002940D01*
X002000Y002944D01*
X002048Y002993D01*
X002086Y003085D01*
X002086Y003184D01*
X002048Y003276D01*
X002022Y003303D01*
X002086Y003329D01*
X002156Y003399D01*
X002194Y003491D01*
X002194Y003591D01*
X002156Y003682D01*
X002086Y003753D01*
X001994Y003791D01*
X001894Y003791D01*
X001802Y003753D01*
X001732Y003682D01*
X001694Y003591D01*
X001694Y003491D01*
X001732Y003399D01*
X001758Y003373D01*
X001695Y003347D01*
X001624Y003276D01*
X001586Y003184D01*
X001586Y003085D01*
X001624Y002993D01*
X001695Y002923D01*
X001704Y002919D01*
X001656Y002870D01*
X001618Y002778D01*
X001618Y002679D01*
X001656Y002587D01*
X001726Y002516D01*
X001763Y002501D01*
X001692Y002472D01*
X001622Y002401D01*
X001584Y002309D01*
X001584Y002210D01*
X001622Y002118D01*
X001669Y002071D01*
X001624Y002026D01*
X001586Y001934D01*
X001586Y001885D01*
X001511Y001916D01*
X001412Y001916D01*
X001320Y001878D01*
X001264Y001822D01*
X001264Y006315D01*
X001347Y006281D01*
X001451Y006281D01*
X001546Y006320D01*
X001619Y006394D01*
X001659Y006489D01*
X001659Y006593D01*
X001619Y006688D01*
X001546Y006761D01*
X001475Y006791D01*
X001546Y006820D01*
X001619Y006894D01*
X001659Y006989D01*
X001659Y007093D01*
X001619Y007188D01*
X001546Y007261D01*
X001451Y007301D01*
X001347Y007301D01*
X001264Y007266D01*
X001264Y011066D01*
X001264Y011068D01*
X001266Y011071D01*
X001268Y011074D01*
X001272Y011076D01*
X001274Y011076D01*
X006080Y011076D01*
X006055Y011016D01*
X006055Y010916D01*
X006093Y010824D01*
X006164Y010754D01*
X006255Y010716D01*
X006355Y010716D01*
X006447Y010754D01*
X006517Y010824D01*
X006555Y010916D01*
X006555Y011016D01*
X006530Y011076D01*
X008024Y011076D01*
X008024Y010134D01*
X007988Y010119D01*
X007920Y010052D01*
X007884Y009964D01*
X007887Y009971D02*
X003068Y009971D01*
X003122Y010050D02*
X007920Y010050D01*
X008010Y010128D02*
X003144Y010128D01*
X003144Y010207D02*
X008024Y010207D01*
X008024Y010285D02*
X003111Y010285D01*
X003042Y010364D02*
X008024Y010364D01*
X008024Y010442D02*
X001264Y010442D01*
X001264Y010364D02*
X002345Y010364D01*
X002277Y010285D02*
X001264Y010285D01*
X001264Y010207D02*
X002244Y010207D01*
X002244Y010128D02*
X001264Y010128D01*
X001264Y010050D02*
X002266Y010050D01*
X002688Y009971D02*
X002699Y009971D01*
X002954Y009736D02*
X001264Y009736D01*
X001264Y009814D02*
X007884Y009814D01*
X007884Y009736D02*
X005901Y009736D01*
X005884Y009753D02*
X005792Y009791D01*
X005693Y009791D01*
X005601Y009753D01*
X005531Y009682D01*
X005493Y009591D01*
X005493Y009491D01*
X005531Y009399D01*
X005601Y009329D01*
X005693Y009291D01*
X005792Y009291D01*
X005884Y009329D01*
X005955Y009399D01*
X005993Y009491D01*
X005993Y009591D01*
X005955Y009682D01*
X005884Y009753D01*
X005965Y009657D02*
X007884Y009657D01*
X007884Y009579D02*
X005993Y009579D01*
X005993Y009500D02*
X007884Y009500D01*
X007884Y009422D02*
X005964Y009422D01*
X005899Y009343D02*
X007884Y009343D01*
X007884Y009265D02*
X004546Y009265D01*
X004565Y009186D02*
X007884Y009186D01*
X007884Y009108D02*
X004563Y009108D01*
X004530Y009029D02*
X007884Y009029D01*
X007884Y008951D02*
X005518Y008951D01*
X005526Y008948D02*
X005434Y008986D01*
X005334Y008986D01*
X005242Y008948D01*
X005172Y008877D01*
X005134Y008786D01*
X005134Y008686D01*
X005172Y008594D01*
X005242Y008524D01*
X005334Y008486D01*
X005434Y008486D01*
X005526Y008524D01*
X005596Y008594D01*
X005634Y008686D01*
X005634Y008786D01*
X005596Y008877D01*
X005526Y008948D01*
X005598Y008872D02*
X007884Y008872D01*
X007884Y008794D02*
X005630Y008794D01*
X005634Y008715D02*
X006430Y008715D01*
X006443Y008721D02*
X006351Y008683D01*
X006281Y008612D01*
X006243Y008521D01*
X006243Y008421D01*
X006281Y008329D01*
X006351Y008259D01*
X006443Y008221D01*
X006542Y008221D01*
X006634Y008259D01*
X006705Y008329D01*
X006743Y008421D01*
X006743Y008521D01*
X006705Y008612D01*
X006634Y008683D01*
X006542Y008721D01*
X006443Y008721D01*
X006556Y008715D02*
X007884Y008715D01*
X007884Y008637D02*
X006680Y008637D01*
X006727Y008558D02*
X007884Y008558D01*
X007884Y008480D02*
X006743Y008480D01*
X006734Y008401D02*
X007884Y008401D01*
X007884Y008323D02*
X006698Y008323D01*
X006599Y008244D02*
X007884Y008244D01*
X007884Y008166D02*
X004164Y008166D01*
X004164Y008244D02*
X006386Y008244D01*
X006287Y008323D02*
X004164Y008323D01*
X004164Y008401D02*
X006251Y008401D01*
X006243Y008480D02*
X004164Y008480D01*
X004164Y008558D02*
X005208Y008558D01*
X005154Y008637D02*
X004164Y008637D01*
X004164Y008715D02*
X005134Y008715D01*
X005137Y008794D02*
X004164Y008794D01*
X004164Y008872D02*
X005170Y008872D01*
X005250Y008951D02*
X004458Y008951D01*
X004495Y009343D02*
X005587Y009343D01*
X005521Y009422D02*
X004367Y009422D01*
X004244Y009422D02*
X004164Y009422D01*
X004164Y009500D02*
X005493Y009500D01*
X005493Y009579D02*
X004164Y009579D01*
X004146Y009657D02*
X005520Y009657D01*
X005584Y009736D02*
X004093Y009736D01*
X002902Y009657D02*
X001264Y009657D01*
X001264Y009579D02*
X001382Y009579D01*
X001322Y009500D02*
X001264Y009500D01*
X001264Y009422D02*
X001295Y009422D01*
X001295Y009343D02*
X001264Y009343D01*
X001264Y009265D02*
X001323Y009265D01*
X001264Y009029D02*
X002004Y009029D01*
X002004Y008951D02*
X001264Y008951D01*
X001264Y008872D02*
X002004Y008872D01*
X002004Y008794D02*
X001264Y008794D01*
X001264Y008715D02*
X002004Y008715D01*
X002004Y008637D02*
X001264Y008637D01*
X001264Y008558D02*
X002004Y008558D01*
X002004Y008480D02*
X001264Y008480D01*
X001264Y008401D02*
X002004Y008401D01*
X002033Y008323D02*
X001264Y008323D01*
X001264Y008244D02*
X002101Y008244D01*
X002101Y008087D02*
X001264Y008087D01*
X001264Y008009D02*
X002033Y008009D01*
X002004Y007930D02*
X001264Y007930D01*
X001264Y007852D02*
X002004Y007852D01*
X002004Y007773D02*
X001264Y007773D01*
X001264Y007695D02*
X002004Y007695D01*
X002004Y007616D02*
X001264Y007616D01*
X001264Y007538D02*
X002004Y007538D01*
X002004Y007459D02*
X001264Y007459D01*
X001264Y007381D02*
X002004Y007381D01*
X002004Y007302D02*
X001264Y007302D01*
X001584Y007224D02*
X002004Y007224D01*
X002004Y007145D02*
X001637Y007145D01*
X001659Y007067D02*
X002004Y007067D01*
X002004Y006988D02*
X001659Y006988D01*
X001626Y006910D02*
X002004Y006910D01*
X002029Y006831D02*
X001557Y006831D01*
X001555Y006753D02*
X002092Y006753D01*
X002160Y006332D02*
X002064Y006293D01*
X001991Y006219D01*
X001951Y006124D01*
X001951Y006020D01*
X001991Y005925D01*
X002064Y005852D01*
X002160Y005812D01*
X002263Y005812D01*
X002359Y005852D01*
X002432Y005925D01*
X002471Y006020D01*
X002471Y006124D01*
X002432Y006219D01*
X002359Y006293D01*
X002263Y006332D01*
X002160Y006332D01*
X002053Y006282D02*
X001453Y006282D01*
X001345Y006282D02*
X001264Y006282D01*
X001264Y006203D02*
X001984Y006203D01*
X001952Y006125D02*
X001264Y006125D01*
X001264Y006046D02*
X001951Y006046D01*
X001973Y005968D02*
X001264Y005968D01*
X001264Y005889D02*
X002026Y005889D01*
X002396Y005889D02*
X002748Y005889D01*
X002733Y005927D02*
X002772Y005831D01*
X002845Y005758D01*
X002941Y005718D01*
X003044Y005718D01*
X003086Y005736D01*
X003081Y005724D01*
X003081Y005548D01*
X003149Y005385D01*
X003273Y005261D01*
X003436Y005193D01*
X003612Y005193D01*
X003775Y005261D01*
X004444Y005261D01*
X004444Y005183D02*
X003177Y005183D01*
X003171Y005199D02*
X003101Y005269D01*
X003009Y005307D01*
X002909Y005307D01*
X002899Y005303D01*
X002861Y005394D01*
X002791Y005464D01*
X002699Y005502D01*
X002599Y005502D01*
X002507Y005464D01*
X002437Y005394D01*
X002399Y005302D01*
X002399Y005202D01*
X002437Y005111D01*
X002507Y005040D01*
X002599Y005002D01*
X002699Y005002D01*
X002709Y005007D01*
X002747Y004916D01*
X002785Y004877D01*
X002716Y004807D01*
X002678Y004716D01*
X002678Y004616D01*
X002716Y004524D01*
X002786Y004454D01*
X002878Y004416D01*
X002977Y004416D01*
X003069Y004454D01*
X003140Y004524D01*
X003178Y004616D01*
X003178Y004716D01*
X003140Y004807D01*
X003101Y004846D01*
X003171Y004916D01*
X003209Y005007D01*
X003209Y005107D01*
X003171Y005199D01*
X003108Y005261D02*
X003273Y005261D01*
X003194Y005340D02*
X002883Y005340D01*
X002836Y005418D02*
X003135Y005418D01*
X003103Y005497D02*
X002711Y005497D01*
X002586Y005497D02*
X001943Y005497D01*
X001984Y005480D02*
X001888Y005520D01*
X001785Y005520D01*
X001689Y005480D01*
X001616Y005407D01*
X001576Y005311D01*
X001576Y005208D01*
X001616Y005112D01*
X001689Y005039D01*
X001785Y005000D01*
X001888Y005000D01*
X001984Y005039D01*
X002057Y005112D01*
X002096Y005208D01*
X002096Y005311D01*
X002057Y005407D01*
X001984Y005480D01*
X002045Y005418D02*
X002462Y005418D01*
X002415Y005340D02*
X002085Y005340D01*
X002096Y005261D02*
X002399Y005261D01*
X002407Y005183D02*
X002086Y005183D01*
X002049Y005104D02*
X002443Y005104D01*
X002542Y005026D02*
X001951Y005026D01*
X001721Y005026D02*
X001264Y005026D01*
X001264Y005104D02*
X001624Y005104D01*
X001587Y005183D02*
X001264Y005183D01*
X001264Y005261D02*
X001576Y005261D01*
X001588Y005340D02*
X001264Y005340D01*
X001264Y005418D02*
X001627Y005418D01*
X001730Y005497D02*
X001264Y005497D01*
X001264Y005575D02*
X003081Y005575D01*
X003081Y005654D02*
X001264Y005654D01*
X001264Y005732D02*
X002907Y005732D01*
X002792Y005811D02*
X001264Y005811D01*
X001586Y006360D02*
X003776Y006360D01*
X003774Y006439D02*
X001638Y006439D01*
X001659Y006517D02*
X003795Y006517D01*
X003809Y006282D02*
X002369Y006282D01*
X002438Y006203D02*
X002856Y006203D01*
X002845Y006199D02*
X002772Y006126D01*
X002733Y006030D01*
X002733Y005927D01*
X002733Y005968D02*
X002450Y005968D01*
X002471Y006046D02*
X002739Y006046D01*
X002772Y006125D02*
X002471Y006125D01*
X002845Y006199D02*
X002941Y006238D01*
X003044Y006238D01*
X003140Y006199D01*
X003213Y006126D01*
X003253Y006030D01*
X003253Y005990D01*
X003273Y006011D01*
X003436Y006078D01*
X003612Y006078D01*
X003775Y006011D01*
X003899Y005887D01*
X003966Y005724D01*
X003966Y005548D01*
X003899Y005385D01*
X003775Y005261D01*
X003854Y005340D02*
X004444Y005340D01*
X004444Y005418D02*
X003913Y005418D01*
X003945Y005497D02*
X004444Y005497D01*
X004444Y005575D02*
X003966Y005575D01*
X003966Y005654D02*
X004444Y005654D01*
X004444Y005732D02*
X003963Y005732D01*
X003930Y005811D02*
X004444Y005811D01*
X004444Y005889D02*
X003896Y005889D01*
X003818Y005968D02*
X004444Y005968D01*
X004444Y006046D02*
X003689Y006046D01*
X003884Y006203D02*
X003129Y006203D01*
X003213Y006125D02*
X004444Y006125D01*
X004444Y006190D02*
X004444Y004767D01*
X004405Y004728D01*
X004405Y004432D01*
X004363Y004390D01*
X004350Y004359D01*
X004261Y004396D01*
X004162Y004396D01*
X004070Y004358D01*
X003999Y004287D01*
X003961Y004196D01*
X003961Y004096D01*
X003999Y004004D01*
X004070Y003934D01*
X004162Y003896D01*
X004261Y003896D01*
X004353Y003934D01*
X004423Y004004D01*
X004436Y004035D01*
X004525Y003998D01*
X004625Y003998D01*
X004717Y004036D01*
X004787Y004107D01*
X004825Y004199D01*
X004825Y004258D01*
X004885Y004258D01*
X004977Y004296D01*
X005047Y004367D01*
X005085Y004459D01*
X005085Y004558D01*
X005047Y004650D01*
X004977Y004720D01*
X004885Y004758D01*
X004785Y004758D01*
X004744Y004741D01*
X004744Y006190D01*
X004806Y006252D01*
X004844Y006344D01*
X004844Y006443D01*
X004806Y006535D01*
X004736Y006605D01*
X004644Y006643D01*
X004544Y006643D01*
X004452Y006605D01*
X004382Y006535D01*
X004344Y006443D01*
X004344Y006344D01*
X004382Y006252D01*
X004444Y006190D01*
X004430Y006203D02*
X004164Y006203D01*
X004239Y006282D02*
X004369Y006282D01*
X004344Y006360D02*
X004271Y006360D01*
X004274Y006439D02*
X004344Y006439D01*
X004375Y006517D02*
X004252Y006517D01*
X004197Y006596D02*
X004443Y006596D01*
X004745Y006596D02*
X007538Y006596D01*
X007465Y006517D02*
X004813Y006517D01*
X004844Y006439D02*
X006347Y006439D01*
X006275Y006409D02*
X006151Y006285D01*
X006084Y006123D01*
X006084Y005948D01*
X006151Y005787D01*
X006275Y005663D01*
X006340Y005636D01*
X006275Y005609D01*
X006151Y005485D01*
X006084Y005323D01*
X006084Y005149D01*
X006042Y005166D01*
X005943Y005166D01*
X005851Y005128D01*
X005781Y005057D01*
X005743Y004966D01*
X005743Y004866D01*
X005781Y004774D01*
X005426Y004659D01*
X005093Y004417D01*
X005093Y004417D01*
X005093Y004417D01*
X004851Y004083D01*
X004724Y003692D01*
X004724Y002398D01*
X004802Y002264D01*
X004936Y002186D01*
X004995Y002186D01*
X004992Y002182D01*
X004966Y002119D01*
X004956Y002142D01*
X004886Y002213D01*
X004794Y002251D01*
X004694Y002251D01*
X004602Y002213D01*
X004532Y002142D01*
X004494Y002051D01*
X004494Y001951D01*
X004532Y001859D01*
X004602Y001789D01*
X004694Y001751D01*
X004794Y001751D01*
X004886Y001789D01*
X004956Y001859D01*
X004982Y001923D01*
X004992Y001899D01*
X005062Y001829D01*
X005154Y001791D01*
X005254Y001791D01*
X005346Y001829D01*
X005416Y001899D01*
X005454Y001991D01*
X005454Y002091D01*
X005416Y002182D01*
X005412Y002186D01*
X007112Y002186D01*
X007246Y002264D01*
X007324Y002398D01*
X007324Y003692D01*
X007197Y004083D01*
X007013Y004336D01*
X007072Y004360D01*
X007142Y004431D01*
X007180Y004522D01*
X007180Y004622D01*
X007142Y004714D01*
X007072Y004784D01*
X006980Y004822D01*
X006880Y004822D01*
X006789Y004784D01*
X006718Y004714D01*
X006680Y004622D01*
X006680Y004616D01*
X006621Y004659D01*
X006230Y004786D01*
X006209Y004786D01*
X006243Y004866D01*
X006243Y004895D01*
X006275Y004863D01*
X006436Y004796D01*
X006611Y004796D01*
X006773Y004863D01*
X006897Y004987D01*
X006964Y005148D01*
X006964Y005323D01*
X006897Y005485D01*
X006773Y005609D01*
X006708Y005636D01*
X006773Y005663D01*
X006897Y005787D01*
X006964Y005948D01*
X006964Y006123D01*
X006897Y006285D01*
X006773Y006409D01*
X006611Y006476D01*
X006436Y006476D01*
X006275Y006409D01*
X006226Y006360D02*
X004844Y006360D01*
X004818Y006282D02*
X006150Y006282D01*
X006117Y006203D02*
X004757Y006203D01*
X004744Y006125D02*
X006085Y006125D01*
X006084Y006046D02*
X004744Y006046D01*
X004744Y005968D02*
X006084Y005968D01*
X006108Y005889D02*
X004744Y005889D01*
X004744Y005811D02*
X006141Y005811D01*
X006205Y005732D02*
X004744Y005732D01*
X004744Y005654D02*
X006296Y005654D01*
X006241Y005575D02*
X004744Y005575D01*
X004744Y005497D02*
X006163Y005497D01*
X006123Y005418D02*
X004744Y005418D01*
X004744Y005340D02*
X006091Y005340D01*
X006084Y005261D02*
X004744Y005261D01*
X004744Y005183D02*
X006084Y005183D01*
X005828Y005104D02*
X004744Y005104D01*
X004744Y005026D02*
X005768Y005026D01*
X005743Y004947D02*
X004744Y004947D01*
X004744Y004869D02*
X005743Y004869D01*
X005774Y004790D02*
X004744Y004790D01*
X004985Y004712D02*
X005590Y004712D01*
X005781Y004774D02*
X005781Y004774D01*
X005426Y004659D02*
X005426Y004659D01*
X005392Y004633D02*
X005054Y004633D01*
X005085Y004555D02*
X005284Y004555D01*
X005175Y004476D02*
X005085Y004476D01*
X005080Y004398D02*
X005060Y004398D01*
X005023Y004319D02*
X005000Y004319D01*
X004966Y004241D02*
X004825Y004241D01*
X004810Y004162D02*
X004909Y004162D01*
X004851Y004084D02*
X004764Y004084D01*
X004851Y004083D02*
X004851Y004083D01*
X004826Y004005D02*
X004642Y004005D01*
X004509Y004005D02*
X004424Y004005D01*
X004396Y003908D02*
X004297Y003908D01*
X004205Y003870D01*
X004134Y003800D01*
X004096Y003708D01*
X004096Y003609D01*
X004134Y003517D01*
X004167Y003485D01*
X004098Y003416D01*
X004060Y003324D01*
X004060Y003225D01*
X004098Y003133D01*
X004169Y003063D01*
X004259Y003025D01*
X004244Y003025D01*
X004152Y002987D01*
X004082Y002917D01*
X004044Y002825D01*
X004044Y002726D01*
X004082Y002634D01*
X004152Y002563D01*
X004244Y002525D01*
X004344Y002525D01*
X004436Y002563D01*
X004506Y002634D01*
X004544Y002726D01*
X004544Y002825D01*
X004506Y002917D01*
X004436Y002987D01*
X004345Y003025D01*
X004360Y003025D01*
X004452Y003063D01*
X004522Y003133D01*
X004560Y003225D01*
X004560Y003324D01*
X004522Y003416D01*
X004490Y003448D01*
X004558Y003517D01*
X004596Y003609D01*
X004596Y003708D01*
X004558Y003800D01*
X004488Y003870D01*
X004396Y003908D01*
X004336Y003927D02*
X004800Y003927D01*
X004775Y003848D02*
X004510Y003848D01*
X004571Y003770D02*
X004749Y003770D01*
X004724Y003691D02*
X004596Y003691D01*
X004596Y003613D02*
X004724Y003613D01*
X004724Y003534D02*
X004566Y003534D01*
X004497Y003456D02*
X004724Y003456D01*
X004724Y003377D02*
X004538Y003377D01*
X004560Y003299D02*
X004724Y003299D01*
X004724Y003220D02*
X004558Y003220D01*
X004526Y003142D02*
X004724Y003142D01*
X004724Y003063D02*
X004452Y003063D01*
X004438Y002985D02*
X004724Y002985D01*
X004724Y002906D02*
X004510Y002906D01*
X004543Y002828D02*
X004724Y002828D01*
X004724Y002749D02*
X004544Y002749D01*
X004521Y002671D02*
X004724Y002671D01*
X004724Y002592D02*
X004464Y002592D01*
X004724Y002514D02*
X002216Y002514D01*
X002216Y002435D02*
X004724Y002435D01*
X004748Y002357D02*
X002250Y002357D01*
X002258Y002278D02*
X004793Y002278D01*
X004802Y002264D02*
X004802Y002264D01*
X004802Y002264D01*
X004898Y002200D02*
X004912Y002200D01*
X004965Y002121D02*
X004967Y002121D01*
X004967Y001886D02*
X005005Y001886D01*
X004904Y001807D02*
X005114Y001807D01*
X005293Y001807D02*
X008004Y001807D01*
X008004Y001886D02*
X005402Y001886D01*
X005443Y001964D02*
X008029Y001964D01*
X008090Y002043D02*
X005454Y002043D01*
X005441Y002121D02*
X010784Y002121D01*
X010784Y002043D02*
X008418Y002043D01*
X008479Y001964D02*
X010784Y001964D01*
X010784Y001886D02*
X010036Y001886D01*
X009792Y001886D02*
X009676Y001886D01*
X009432Y001886D02*
X008504Y001886D01*
X008504Y001804D02*
X008479Y001743D01*
X009315Y001743D01*
X009342Y001807D01*
X009493Y001603D02*
X009554Y001666D01*
X009493Y001603D02*
X002368Y001603D01*
X002118Y001853D01*
X002118Y002291D01*
X002076Y002332D01*
X002076Y002520D01*
X001868Y002728D01*
X002097Y002828D02*
X002729Y002828D01*
X002750Y002819D02*
X002845Y002819D01*
X002933Y002855D01*
X002945Y002868D01*
X002957Y002855D01*
X003045Y002819D01*
X003140Y002819D01*
X003228Y002855D01*
X003240Y002868D01*
X003253Y002855D01*
X003340Y002819D01*
X003435Y002819D01*
X003523Y002855D01*
X003591Y002923D01*
X003627Y003011D01*
X003627Y003106D01*
X003591Y003194D01*
X003578Y003206D01*
X003591Y003218D01*
X003627Y003306D01*
X003627Y003401D01*
X003591Y003489D01*
X003578Y003501D01*
X003591Y003513D01*
X003627Y003601D01*
X003627Y003696D01*
X003591Y003784D01*
X003523Y003851D01*
X003435Y003888D01*
X003340Y003888D01*
X003253Y003851D01*
X003240Y003839D01*
X003228Y003851D01*
X003140Y003888D01*
X003045Y003888D01*
X002957Y003851D01*
X002945Y003839D01*
X002933Y003851D01*
X002845Y003888D01*
X002750Y003888D01*
X002662Y003851D01*
X002595Y003784D01*
X002558Y003696D01*
X002558Y003601D01*
X002595Y003513D01*
X002607Y003501D01*
X002595Y003489D01*
X002558Y003401D01*
X002558Y003306D01*
X002595Y003218D01*
X002607Y003206D01*
X002595Y003194D01*
X002558Y003106D01*
X002558Y003011D01*
X002595Y002923D01*
X002662Y002855D01*
X002750Y002819D01*
X002866Y002828D02*
X003024Y002828D01*
X003161Y002828D02*
X003319Y002828D01*
X003457Y002828D02*
X004045Y002828D01*
X004044Y002749D02*
X002118Y002749D01*
X002123Y002671D02*
X004067Y002671D01*
X004123Y002592D02*
X002202Y002592D01*
X002043Y002906D02*
X002611Y002906D01*
X002569Y002985D02*
X002040Y002985D01*
X002077Y003063D02*
X002558Y003063D01*
X002573Y003142D02*
X002086Y003142D01*
X002071Y003220D02*
X002594Y003220D01*
X002561Y003299D02*
X002026Y003299D01*
X002134Y003377D02*
X002558Y003377D01*
X002581Y003456D02*
X002179Y003456D01*
X002194Y003534D02*
X002586Y003534D01*
X002558Y003613D02*
X002185Y003613D01*
X002147Y003691D02*
X002558Y003691D01*
X002589Y003770D02*
X002044Y003770D01*
X001843Y003770D02*
X001264Y003770D01*
X001264Y003848D02*
X002659Y003848D01*
X002936Y003848D02*
X002954Y003848D01*
X003231Y003848D02*
X003250Y003848D01*
X003526Y003848D02*
X004183Y003848D01*
X004122Y003770D02*
X003596Y003770D01*
X003627Y003691D02*
X004096Y003691D01*
X004096Y003613D02*
X003627Y003613D01*
X003599Y003534D02*
X004127Y003534D01*
X004138Y003456D02*
X003604Y003456D01*
X003627Y003377D02*
X004082Y003377D01*
X004060Y003299D02*
X003624Y003299D01*
X003592Y003220D02*
X004062Y003220D01*
X004095Y003142D02*
X003612Y003142D01*
X003627Y003063D02*
X004168Y003063D01*
X004150Y002985D02*
X003616Y002985D01*
X003574Y002906D02*
X004078Y002906D01*
X004589Y002200D02*
X002258Y002200D01*
X002258Y002121D02*
X004523Y002121D01*
X004494Y002043D02*
X002258Y002043D01*
X002258Y001964D02*
X004494Y001964D01*
X004521Y001886D02*
X002283Y001886D01*
X002362Y001807D02*
X004584Y001807D01*
X004087Y003927D02*
X001264Y003927D01*
X001264Y004005D02*
X003999Y004005D01*
X003966Y004084D02*
X001264Y004084D01*
X001264Y004162D02*
X003961Y004162D01*
X003980Y004241D02*
X003820Y004241D01*
X003790Y004228D02*
X003882Y004266D01*
X003952Y004337D01*
X003981Y004407D01*
X004019Y004391D01*
X004119Y004391D01*
X004211Y004429D01*
X004281Y004499D01*
X004319Y004591D01*
X004319Y004691D01*
X004281Y004782D01*
X004211Y004853D01*
X004119Y004891D01*
X004019Y004891D01*
X003927Y004853D01*
X003857Y004782D01*
X003828Y004713D01*
X003790Y004728D01*
X003690Y004728D01*
X003627Y004702D01*
X003660Y004781D01*
X003660Y004881D01*
X003622Y004972D01*
X003552Y005043D01*
X003460Y005081D01*
X003360Y005081D01*
X003269Y005043D01*
X003198Y004972D01*
X003160Y004881D01*
X003160Y004781D01*
X003198Y004689D01*
X003269Y004619D01*
X003360Y004581D01*
X003460Y004581D01*
X003523Y004607D01*
X003490Y004528D01*
X003490Y004429D01*
X003528Y004337D01*
X003599Y004266D01*
X003690Y004228D01*
X003790Y004228D01*
X003660Y004241D02*
X001264Y004241D01*
X001264Y004319D02*
X003546Y004319D01*
X003503Y004398D02*
X001264Y004398D01*
X001264Y004476D02*
X002764Y004476D01*
X002703Y004555D02*
X001264Y004555D01*
X001264Y004633D02*
X002678Y004633D01*
X002678Y004712D02*
X001264Y004712D01*
X001264Y004790D02*
X002709Y004790D01*
X002777Y004869D02*
X001264Y004869D01*
X001264Y004947D02*
X002734Y004947D01*
X003124Y004869D02*
X003160Y004869D01*
X003160Y004790D02*
X003147Y004790D01*
X003178Y004712D02*
X003189Y004712D01*
X003178Y004633D02*
X003254Y004633D01*
X003152Y004555D02*
X003501Y004555D01*
X003490Y004476D02*
X003092Y004476D01*
X003184Y004947D02*
X003188Y004947D01*
X003209Y005026D02*
X003252Y005026D01*
X003209Y005104D02*
X004444Y005104D01*
X004444Y005026D02*
X003569Y005026D01*
X003632Y004947D02*
X004444Y004947D01*
X004444Y004869D02*
X004172Y004869D01*
X004273Y004790D02*
X004444Y004790D01*
X004405Y004712D02*
X004310Y004712D01*
X004319Y004633D02*
X004405Y004633D01*
X004405Y004555D02*
X004304Y004555D01*
X004258Y004476D02*
X004405Y004476D01*
X004371Y004398D02*
X004135Y004398D01*
X004031Y004319D02*
X003935Y004319D01*
X003977Y004398D02*
X004002Y004398D01*
X003651Y004712D02*
X003631Y004712D01*
X003660Y004790D02*
X003865Y004790D01*
X003966Y004869D02*
X003660Y004869D01*
X003085Y005732D02*
X003078Y005732D01*
X003246Y006046D02*
X003359Y006046D01*
X002954Y006596D02*
X001658Y006596D01*
X001625Y006674D02*
X002902Y006674D01*
X004146Y006674D02*
X007884Y006674D01*
X007884Y006596D02*
X007822Y006596D01*
X007789Y006753D02*
X007884Y006753D01*
X007571Y006753D02*
X004164Y006753D01*
X004164Y006831D02*
X007474Y006831D01*
X007438Y006910D02*
X004164Y006910D01*
X004164Y006988D02*
X007430Y006988D01*
X007446Y007067D02*
X006699Y007067D01*
X006728Y007079D02*
X006798Y007149D01*
X006836Y007241D01*
X006836Y007341D01*
X006798Y007432D01*
X006728Y007503D01*
X006636Y007541D01*
X006537Y007541D01*
X006445Y007503D01*
X006374Y007432D01*
X006336Y007341D01*
X006336Y007241D01*
X006374Y007149D01*
X006445Y007079D01*
X006537Y007041D01*
X006636Y007041D01*
X006728Y007079D01*
X006794Y007145D02*
X007494Y007145D01*
X007620Y007224D02*
X006829Y007224D01*
X006836Y007302D02*
X007884Y007302D01*
X007884Y007224D02*
X007741Y007224D01*
X007867Y007145D02*
X007884Y007145D01*
X007884Y007381D02*
X006820Y007381D01*
X006771Y007459D02*
X007884Y007459D01*
X007884Y007538D02*
X006643Y007538D01*
X006529Y007538D02*
X004164Y007538D01*
X004164Y007616D02*
X004380Y007616D01*
X004412Y007603D02*
X004511Y007603D01*
X004603Y007641D01*
X004673Y007712D01*
X004711Y007804D01*
X004711Y007903D01*
X004673Y007995D01*
X004603Y008065D01*
X004511Y008103D01*
X004412Y008103D01*
X004320Y008065D01*
X004249Y007995D01*
X004211Y007903D01*
X004211Y007804D01*
X004249Y007712D01*
X004320Y007641D01*
X004412Y007603D01*
X004543Y007616D02*
X007884Y007616D01*
X007884Y007695D02*
X004656Y007695D01*
X004699Y007773D02*
X007884Y007773D01*
X007884Y007852D02*
X004711Y007852D01*
X004700Y007930D02*
X007884Y007930D01*
X007884Y008009D02*
X004659Y008009D01*
X004550Y008087D02*
X007884Y008087D01*
X009164Y008166D02*
X010784Y008166D01*
X010784Y008244D02*
X009947Y008244D01*
X010015Y008323D02*
X010784Y008323D01*
X010784Y008401D02*
X010044Y008401D01*
X010044Y008480D02*
X010486Y008480D01*
X010428Y008558D02*
X010044Y008558D01*
X010044Y008637D02*
X010404Y008637D01*
X010404Y008715D02*
X010044Y008715D01*
X010044Y008794D02*
X010436Y008794D01*
X010507Y008872D02*
X010044Y008872D01*
X010044Y008951D02*
X010784Y008951D01*
X010784Y009029D02*
X010044Y009029D01*
X010044Y009108D02*
X010784Y009108D01*
X010784Y009186D02*
X010044Y009186D01*
X010044Y009265D02*
X010784Y009265D01*
X010784Y008087D02*
X009947Y008087D01*
X010015Y008009D02*
X010784Y008009D01*
X010784Y007930D02*
X010044Y007930D01*
X010044Y007852D02*
X010784Y007852D01*
X010784Y007773D02*
X010746Y007773D01*
X010562Y007773D02*
X010044Y007773D01*
X010044Y007695D02*
X010454Y007695D01*
X010415Y007616D02*
X010044Y007616D01*
X010044Y007538D02*
X010404Y007538D01*
X010417Y007459D02*
X010044Y007459D01*
X010044Y007381D02*
X010460Y007381D01*
X010576Y007302D02*
X010044Y007302D01*
X010044Y007224D02*
X010784Y007224D01*
X010784Y007302D02*
X010731Y007302D01*
X010784Y007145D02*
X010044Y007145D01*
X010044Y007067D02*
X010784Y007067D01*
X010784Y006988D02*
X010044Y006988D01*
X010044Y006910D02*
X010784Y006910D01*
X010784Y006831D02*
X010018Y006831D01*
X009955Y006753D02*
X010784Y006753D01*
X010784Y006674D02*
X009164Y006674D01*
X009164Y006596D02*
X010784Y006596D01*
X010784Y006517D02*
X009164Y006517D01*
X009164Y006439D02*
X009256Y006439D01*
X009289Y006472D02*
X009218Y006401D01*
X009180Y006309D01*
X009180Y006210D01*
X009218Y006118D01*
X009289Y006048D01*
X009380Y006010D01*
X009480Y006010D01*
X009572Y006048D01*
X009642Y006118D01*
X009680Y006210D01*
X009680Y006309D01*
X009642Y006401D01*
X009572Y006472D01*
X009480Y006510D01*
X009380Y006510D01*
X009289Y006472D01*
X009201Y006360D02*
X009161Y006360D01*
X009180Y006282D02*
X009128Y006282D01*
X009183Y006203D02*
X009038Y006203D01*
X009215Y006125D02*
X006963Y006125D01*
X006964Y006046D02*
X008365Y006046D01*
X008436Y006076D02*
X008275Y006009D01*
X008151Y005885D01*
X008084Y005723D01*
X008084Y005548D01*
X008151Y005387D01*
X008275Y005263D01*
X008436Y005196D01*
X008611Y005196D01*
X008773Y005263D01*
X008897Y005387D01*
X008964Y005548D01*
X008964Y005723D01*
X008897Y005885D01*
X008773Y006009D01*
X008611Y006076D01*
X008436Y006076D01*
X008234Y005968D02*
X006964Y005968D01*
X006939Y005889D02*
X008155Y005889D01*
X008120Y005811D02*
X006907Y005811D01*
X006843Y005732D02*
X008088Y005732D01*
X008084Y005654D02*
X006751Y005654D01*
X006807Y005575D02*
X008084Y005575D01*
X008105Y005497D02*
X006885Y005497D01*
X006925Y005418D02*
X008138Y005418D01*
X008198Y005340D02*
X006957Y005340D01*
X006964Y005261D02*
X008278Y005261D01*
X008334Y004993D02*
X008242Y004955D01*
X008172Y004885D01*
X008134Y004793D01*
X008134Y004694D01*
X008172Y004602D01*
X008242Y004531D01*
X008334Y004493D01*
X008434Y004493D01*
X008526Y004531D01*
X008596Y004602D01*
X008634Y004694D01*
X008634Y004793D01*
X008596Y004885D01*
X008526Y004955D01*
X008434Y004993D01*
X008334Y004993D01*
X008234Y004947D02*
X006858Y004947D01*
X006913Y005026D02*
X010784Y005026D01*
X010784Y005104D02*
X006946Y005104D01*
X006964Y005183D02*
X010558Y005183D01*
X010450Y005261D02*
X008770Y005261D01*
X008850Y005340D02*
X010410Y005340D01*
X010399Y005418D02*
X010330Y005418D01*
X010218Y005418D02*
X008910Y005418D01*
X008943Y005497D02*
X010089Y005497D01*
X010041Y005575D02*
X008964Y005575D01*
X008964Y005654D02*
X010024Y005654D01*
X010031Y005732D02*
X008960Y005732D01*
X008928Y005811D02*
X010065Y005811D01*
X010160Y005889D02*
X008893Y005889D01*
X008814Y005968D02*
X010400Y005968D01*
X010388Y005889D02*
X010525Y005889D01*
X010482Y005811D02*
X010784Y005811D01*
X010784Y005889D02*
X010648Y005889D01*
X010773Y005968D02*
X010784Y005968D01*
X010784Y005732D02*
X010517Y005732D01*
X010524Y005654D02*
X010570Y005654D01*
X010728Y005654D02*
X010784Y005654D01*
X010784Y005183D02*
X010740Y005183D01*
X010784Y004947D02*
X008533Y004947D01*
X008603Y004869D02*
X010784Y004869D01*
X010784Y004790D02*
X008634Y004790D01*
X008634Y004712D02*
X010784Y004712D01*
X010784Y004633D02*
X008609Y004633D01*
X008549Y004555D02*
X010784Y004555D01*
X010784Y004476D02*
X007161Y004476D01*
X007180Y004555D02*
X008219Y004555D01*
X008159Y004633D02*
X007175Y004633D01*
X007143Y004712D02*
X008134Y004712D01*
X008134Y004790D02*
X007057Y004790D01*
X006804Y004790D02*
X006211Y004790D01*
X006243Y004869D02*
X006269Y004869D01*
X006458Y004712D02*
X006717Y004712D01*
X006685Y004633D02*
X006656Y004633D01*
X006621Y004659D02*
X006621Y004659D01*
X006779Y004869D02*
X008165Y004869D01*
X008757Y003878D02*
X008687Y003807D01*
X008649Y003716D01*
X008649Y003616D01*
X008687Y003524D01*
X008757Y003454D01*
X008849Y003416D01*
X008949Y003416D01*
X009041Y003454D01*
X009111Y003524D01*
X009149Y003616D01*
X009149Y003716D01*
X009111Y003807D01*
X009041Y003878D01*
X008949Y003916D01*
X008849Y003916D01*
X008757Y003878D01*
X008728Y003848D02*
X007273Y003848D01*
X007299Y003770D02*
X008671Y003770D01*
X008649Y003691D02*
X007324Y003691D01*
X007324Y003613D02*
X008650Y003613D01*
X008683Y003534D02*
X007324Y003534D01*
X007324Y003456D02*
X008755Y003456D01*
X009042Y003456D02*
X009630Y003456D01*
X009632Y003454D02*
X009724Y003416D01*
X009824Y003416D01*
X009916Y003454D01*
X009986Y003524D01*
X010024Y003616D01*
X010024Y003716D01*
X009986Y003807D01*
X009916Y003878D01*
X009824Y003916D01*
X009724Y003916D01*
X009632Y003878D01*
X009562Y003807D01*
X009524Y003716D01*
X009524Y003616D01*
X009562Y003524D01*
X009632Y003454D01*
X009558Y003534D02*
X009115Y003534D01*
X009148Y003613D02*
X009525Y003613D01*
X009524Y003691D02*
X009149Y003691D01*
X009126Y003770D02*
X009546Y003770D01*
X009603Y003848D02*
X009070Y003848D01*
X008949Y003041D02*
X008849Y003041D01*
X008757Y003003D01*
X008687Y002932D01*
X008649Y002841D01*
X008649Y002741D01*
X008687Y002649D01*
X008757Y002579D01*
X008849Y002541D01*
X008949Y002541D01*
X009041Y002579D01*
X009111Y002649D01*
X009149Y002741D01*
X009149Y002841D01*
X009111Y002932D01*
X009041Y003003D01*
X008949Y003041D01*
X009058Y002985D02*
X009614Y002985D01*
X009632Y003003D02*
X009562Y002932D01*
X009524Y002841D01*
X009524Y002741D01*
X009562Y002649D01*
X009632Y002579D01*
X009724Y002541D01*
X009824Y002541D01*
X009916Y002579D01*
X009986Y002649D01*
X010024Y002741D01*
X010024Y002841D01*
X009986Y002932D01*
X009916Y003003D01*
X009824Y003041D01*
X009724Y003041D01*
X009632Y003003D01*
X009551Y002906D02*
X009122Y002906D01*
X009149Y002828D02*
X009524Y002828D01*
X009524Y002749D02*
X009149Y002749D01*
X009120Y002671D02*
X009553Y002671D01*
X009619Y002592D02*
X009054Y002592D01*
X008744Y002592D02*
X008042Y002592D01*
X008026Y002554D02*
X008064Y002646D01*
X008064Y002746D01*
X008026Y002837D01*
X007974Y002890D01*
X007998Y002914D01*
X008036Y003006D01*
X008036Y003106D01*
X007998Y003197D01*
X007928Y003268D01*
X007836Y003306D01*
X007737Y003306D01*
X007645Y003268D01*
X007574Y003197D01*
X007536Y003106D01*
X007536Y003006D01*
X007574Y002914D01*
X007627Y002862D01*
X007602Y002837D01*
X007564Y002746D01*
X007564Y002656D01*
X007549Y002656D01*
X007457Y002618D01*
X007387Y002547D01*
X007349Y002456D01*
X007349Y002356D01*
X007387Y002264D01*
X007457Y002194D01*
X007549Y002156D01*
X007649Y002156D01*
X007741Y002194D01*
X007811Y002264D01*
X007849Y002356D01*
X007849Y002446D01*
X007864Y002446D01*
X007956Y002484D01*
X008026Y002554D01*
X007985Y002514D02*
X010784Y002514D01*
X010784Y002592D02*
X009929Y002592D01*
X009995Y002671D02*
X010784Y002671D01*
X010784Y002749D02*
X010024Y002749D01*
X010024Y002828D02*
X010784Y002828D01*
X010784Y002906D02*
X009997Y002906D01*
X009933Y002985D02*
X010784Y002985D01*
X010784Y003063D02*
X008036Y003063D01*
X008028Y002985D02*
X008739Y002985D01*
X008676Y002906D02*
X007990Y002906D01*
X008030Y002828D02*
X008649Y002828D01*
X008649Y002749D02*
X008062Y002749D01*
X008064Y002671D02*
X008678Y002671D01*
X008021Y003142D02*
X010784Y003142D01*
X010784Y003220D02*
X007975Y003220D01*
X007853Y003299D02*
X010784Y003299D01*
X010784Y003377D02*
X007324Y003377D01*
X007324Y003299D02*
X007720Y003299D01*
X007597Y003220D02*
X007324Y003220D01*
X007324Y003142D02*
X007551Y003142D01*
X007536Y003063D02*
X007324Y003063D01*
X007324Y002985D02*
X007545Y002985D01*
X007582Y002906D02*
X007324Y002906D01*
X007324Y002828D02*
X007598Y002828D01*
X007565Y002749D02*
X007324Y002749D01*
X007324Y002671D02*
X007564Y002671D01*
X007432Y002592D02*
X007324Y002592D01*
X007324Y002514D02*
X007373Y002514D01*
X007349Y002435D02*
X007324Y002435D01*
X007300Y002357D02*
X007349Y002357D01*
X007381Y002278D02*
X007255Y002278D01*
X007246Y002264D02*
X007246Y002264D01*
X007246Y002264D01*
X007136Y002200D02*
X007451Y002200D01*
X007746Y002200D02*
X010784Y002200D01*
X010784Y002278D02*
X007817Y002278D01*
X007849Y002357D02*
X010784Y002357D01*
X010784Y002435D02*
X007849Y002435D01*
X007248Y003927D02*
X010784Y003927D01*
X010784Y004005D02*
X007222Y004005D01*
X007196Y004084D02*
X010784Y004084D01*
X010784Y004162D02*
X007139Y004162D01*
X007082Y004241D02*
X010784Y004241D01*
X010784Y004319D02*
X007025Y004319D01*
X007109Y004398D02*
X010784Y004398D01*
X010784Y003848D02*
X009945Y003848D01*
X010001Y003770D02*
X010784Y003770D01*
X010784Y003691D02*
X010024Y003691D01*
X010023Y003613D02*
X010784Y003613D01*
X010784Y003534D02*
X009990Y003534D01*
X009917Y003456D02*
X010784Y003456D01*
X010352Y006046D02*
X009569Y006046D01*
X009645Y006125D02*
X010336Y006125D01*
X010344Y006203D02*
X009677Y006203D01*
X009680Y006282D02*
X010380Y006282D01*
X010478Y006360D02*
X009659Y006360D01*
X009604Y006439D02*
X010784Y006439D01*
X010784Y006360D02*
X010695Y006360D01*
X009292Y006046D02*
X008683Y006046D01*
X008010Y006203D02*
X007852Y006203D01*
X007908Y006282D02*
X007920Y006282D01*
X007508Y006203D02*
X006931Y006203D01*
X006898Y006282D02*
X007452Y006282D01*
X007430Y006360D02*
X006822Y006360D01*
X006701Y006439D02*
X007432Y006439D01*
X006474Y007067D02*
X004164Y007067D01*
X004164Y007145D02*
X006378Y007145D01*
X006344Y007224D02*
X004164Y007224D01*
X004164Y007302D02*
X006336Y007302D01*
X006353Y007381D02*
X004164Y007381D01*
X004164Y007459D02*
X006401Y007459D01*
X006258Y008558D02*
X005560Y008558D01*
X005613Y008637D02*
X006305Y008637D01*
X004373Y008087D02*
X004164Y008087D01*
X004164Y008009D02*
X004263Y008009D01*
X004223Y007930D02*
X004164Y007930D01*
X004164Y007852D02*
X004211Y007852D01*
X004224Y007773D02*
X004164Y007773D01*
X004164Y007695D02*
X004266Y007695D01*
X002884Y008166D02*
X001264Y008166D01*
X002662Y010364D02*
X002725Y010364D01*
X001264Y010521D02*
X008024Y010521D01*
X008024Y010599D02*
X001264Y010599D01*
X001264Y010678D02*
X008024Y010678D01*
X008024Y010756D02*
X006449Y010756D01*
X006521Y010835D02*
X008024Y010835D01*
X008024Y010913D02*
X006554Y010913D01*
X006555Y010992D02*
X008024Y010992D01*
X008024Y011070D02*
X006532Y011070D01*
X006078Y011070D02*
X001265Y011070D01*
X001264Y010992D02*
X006055Y010992D01*
X006056Y010913D02*
X001264Y010913D01*
X001264Y010835D02*
X006089Y010835D01*
X006161Y010756D02*
X001264Y010756D01*
X001264Y003691D02*
X001741Y003691D01*
X001703Y003613D02*
X001264Y003613D01*
X001264Y003534D02*
X001694Y003534D01*
X001709Y003456D02*
X001264Y003456D01*
X001264Y003377D02*
X001754Y003377D01*
X001647Y003299D02*
X001264Y003299D01*
X001264Y003220D02*
X001601Y003220D01*
X001586Y003142D02*
X001264Y003142D01*
X001264Y003063D02*
X001595Y003063D01*
X001633Y002985D02*
X001264Y002985D01*
X001264Y002906D02*
X001692Y002906D01*
X001638Y002828D02*
X001264Y002828D01*
X001264Y002749D02*
X001618Y002749D01*
X001621Y002671D02*
X001264Y002671D01*
X001264Y002592D02*
X001653Y002592D01*
X001732Y002514D02*
X001264Y002514D01*
X001264Y002435D02*
X001656Y002435D01*
X001604Y002357D02*
X001264Y002357D01*
X001264Y002278D02*
X001584Y002278D01*
X001588Y002200D02*
X001264Y002200D01*
X001264Y002121D02*
X001621Y002121D01*
X001641Y002043D02*
X001264Y002043D01*
X001264Y001964D02*
X001599Y001964D01*
X001584Y001886D02*
X001586Y001886D01*
X001339Y001886D02*
X001264Y001886D01*
D13*
X001461Y001666D03*
X001836Y001885D03*
X001834Y002260D03*
X001868Y002728D03*
X002334Y002421D03*
X001836Y003135D03*
X001944Y003541D03*
X001824Y004541D03*
X002649Y005252D03*
X002959Y005057D03*
X002928Y004666D03*
X003410Y004831D03*
X003740Y004478D03*
X004069Y004641D03*
X004211Y004146D03*
X004575Y004248D03*
X004835Y004508D03*
X004346Y003658D03*
X004310Y003275D03*
X004294Y002775D03*
X004384Y002010D03*
X004744Y002001D03*
X005204Y002041D03*
X006405Y001853D03*
X007599Y002406D03*
X007814Y002696D03*
X007786Y003056D03*
X008899Y002791D03*
X008899Y003666D03*
X009774Y003666D03*
X009774Y002791D03*
X009914Y001666D03*
X009554Y001666D03*
X008254Y001853D03*
X006930Y004572D03*
X005993Y004916D03*
X005680Y006386D03*
X006586Y007291D03*
X006993Y007686D03*
X007680Y006978D03*
X007680Y006385D03*
X009430Y006260D03*
X010274Y005666D03*
X010649Y005416D03*
X010586Y006135D03*
X010654Y007541D03*
X010654Y008666D03*
X007586Y009523D03*
X006493Y008471D03*
X005384Y008736D03*
X005368Y007978D03*
X004461Y007853D03*
X004594Y006393D03*
X004024Y006416D03*
X002149Y005541D03*
X005743Y009541D03*
X006305Y010966D03*
X008384Y004743D03*
D14*
X004594Y004705D02*
X004594Y006393D01*
X004594Y004705D02*
X004555Y004666D01*
X004555Y004268D01*
X004575Y004248D01*
M02*
