G75*
%MOIN*%
%OFA0B0*%
%FSLAX24Y24*%
%IPPOS*%
%LPD*%
%AMOC8*
5,1,8,0,0,1.08239X$1,22.5*
%
%ADD10C,0.0278*%
%ADD11C,0.0240*%
%ADD12C,0.0080*%
%ADD13C,0.0100*%
%ADD14C,0.0300*%
D10*
X002801Y003037D03*
X003096Y003037D03*
X003391Y003037D03*
X003391Y003332D03*
X003096Y003332D03*
X003096Y003628D03*
X003391Y003628D03*
X002801Y003628D03*
X002801Y003332D03*
D11*
X001947Y003520D03*
X001840Y003114D03*
X001871Y002707D03*
X002337Y002400D03*
X001837Y002239D03*
X001840Y001864D03*
X001465Y001645D03*
X004297Y002754D03*
X004387Y001989D03*
X004747Y001980D03*
X005207Y002020D03*
X006409Y001832D03*
X007602Y002385D03*
X007817Y002675D03*
X007790Y003035D03*
X008257Y001832D03*
X009557Y001645D03*
X009917Y001645D03*
X006934Y004551D03*
X005996Y004895D03*
X004839Y004487D03*
X004579Y004227D03*
X004215Y004125D03*
X004072Y004620D03*
X003744Y004457D03*
X003414Y004810D03*
X002962Y005036D03*
X002652Y005231D03*
X002931Y004645D03*
X001827Y004520D03*
X001840Y005239D03*
X002215Y006051D03*
X001402Y006520D03*
X001402Y007020D03*
X002996Y005957D03*
X004077Y006375D03*
X004597Y006372D03*
X005684Y006365D03*
X006590Y007270D03*
X006996Y007665D03*
X007684Y006957D03*
X007684Y006364D03*
X009434Y006239D03*
X010277Y005645D03*
X010652Y005395D03*
X010590Y006114D03*
X010657Y007520D03*
X010657Y008645D03*
X007590Y009502D03*
X006496Y008450D03*
X005387Y008715D03*
X005371Y007957D03*
X004465Y007832D03*
X004367Y009145D03*
X005746Y009520D03*
X006309Y010945D03*
X002887Y010134D03*
X002507Y010134D03*
X001559Y009364D03*
X008387Y004722D03*
D12*
X001272Y001536D02*
X001269Y001539D01*
X001268Y001543D01*
X001267Y001545D01*
X001267Y006344D01*
X001311Y006300D01*
X001494Y006300D01*
X001622Y006429D01*
X001622Y006611D01*
X001494Y006740D01*
X001311Y006740D01*
X001267Y006696D01*
X001267Y006844D01*
X001311Y006800D01*
X001494Y006800D01*
X001622Y006929D01*
X001622Y007111D01*
X001494Y007240D01*
X001311Y007240D01*
X001267Y007196D01*
X001267Y011045D01*
X001268Y011047D01*
X001269Y011050D01*
X001272Y011053D01*
X001275Y011055D01*
X001277Y011055D01*
X006108Y011055D01*
X006089Y011036D01*
X006089Y010854D01*
X006218Y010725D01*
X006400Y010725D01*
X006529Y010854D01*
X006529Y011036D01*
X006510Y011055D01*
X008027Y011055D01*
X008027Y010053D01*
X007965Y010017D01*
X007887Y009882D01*
X007887Y009410D01*
X007809Y009410D01*
X007810Y009411D01*
X007810Y009593D01*
X007681Y009722D01*
X007499Y009722D01*
X007370Y009593D01*
X007370Y009411D01*
X007371Y009410D01*
X004485Y009410D01*
X004459Y009623D01*
X004459Y009676D01*
X004451Y009683D01*
X004450Y009694D01*
X004408Y009726D01*
X004111Y010024D01*
X003987Y010024D01*
X003977Y010014D01*
X003079Y010014D01*
X003107Y010042D01*
X003107Y010225D01*
X002979Y010354D01*
X002796Y010354D01*
X002697Y010255D01*
X002599Y010354D01*
X002416Y010354D01*
X002287Y010225D01*
X002287Y010042D01*
X002306Y010024D01*
X002288Y010024D01*
X001778Y009514D01*
X001720Y009514D01*
X001650Y009584D01*
X001468Y009584D01*
X001339Y009455D01*
X001339Y009272D01*
X001468Y009144D01*
X001650Y009144D01*
X001720Y009214D01*
X001825Y009214D01*
X001825Y006837D01*
X002075Y006587D01*
X002157Y006505D01*
X002782Y006505D01*
X002887Y006399D01*
X002969Y006317D01*
X003782Y006317D01*
X003844Y006255D01*
X003886Y006255D01*
X003986Y006155D01*
X004169Y006155D01*
X004269Y006255D01*
X004404Y006255D01*
X004506Y006152D01*
X004689Y006152D01*
X004817Y006281D01*
X004817Y006463D01*
X004776Y006505D01*
X005513Y006505D01*
X005464Y006456D01*
X005464Y006274D01*
X005593Y006145D01*
X005775Y006145D01*
X005904Y006274D01*
X005904Y006456D01*
X005855Y006505D01*
X007887Y006505D01*
X007887Y006407D01*
X007965Y006272D01*
X008100Y006195D01*
X008955Y006195D01*
X009090Y006272D01*
X009090Y006272D01*
X009090Y006272D01*
X009167Y006407D01*
X009167Y006778D01*
X009546Y006744D01*
X009556Y006740D01*
X009593Y006740D01*
X009630Y006737D01*
X009640Y006740D01*
X009690Y006740D01*
X009841Y006827D01*
X009927Y006977D01*
X009927Y007813D01*
X009841Y007963D01*
X009690Y008050D01*
X009640Y008050D01*
X009630Y008053D01*
X009593Y008050D01*
X009556Y008050D01*
X009546Y008046D01*
X009167Y008012D01*
X009167Y008278D01*
X009546Y008244D01*
X009556Y008240D01*
X009593Y008240D01*
X009630Y008237D01*
X009640Y008240D01*
X009690Y008240D01*
X009841Y008327D01*
X009927Y008477D01*
X009927Y009276D01*
X010787Y009276D01*
X010787Y005571D01*
X010744Y005615D01*
X010561Y005615D01*
X010432Y005486D01*
X010432Y005304D01*
X010561Y005175D01*
X010744Y005175D01*
X010787Y005219D01*
X010787Y001545D01*
X010787Y001543D01*
X010786Y001539D01*
X010783Y001536D01*
X010779Y001535D01*
X010777Y001535D01*
X010119Y001535D01*
X010137Y001554D01*
X010137Y001736D01*
X010009Y001865D01*
X010787Y001865D01*
X010787Y001943D02*
X008458Y001943D01*
X008477Y001923D02*
X008349Y002052D01*
X008166Y002052D01*
X008037Y001923D01*
X008037Y001741D01*
X008166Y001612D01*
X008349Y001612D01*
X008477Y001741D01*
X008477Y001923D01*
X008477Y001865D02*
X009466Y001865D01*
X009337Y001736D01*
X009337Y001554D01*
X009356Y001535D01*
X001277Y001535D01*
X001275Y001535D01*
X001272Y001536D01*
X001267Y001551D02*
X009340Y001551D01*
X009337Y001629D02*
X008366Y001629D01*
X008444Y001708D02*
X009337Y001708D01*
X009388Y001786D02*
X008477Y001786D01*
X008379Y002022D02*
X010787Y002022D01*
X010787Y002100D02*
X005427Y002100D01*
X005427Y002111D02*
X005374Y002165D01*
X007115Y002165D01*
X007250Y002242D01*
X007250Y002242D01*
X007250Y002242D01*
X007327Y002377D01*
X007327Y003671D01*
X007200Y004062D01*
X007200Y004062D01*
X006958Y004395D01*
X006625Y004638D01*
X006233Y004765D01*
X006177Y004765D01*
X006216Y004804D01*
X006216Y004904D01*
X006278Y004842D01*
X006440Y004775D01*
X006615Y004775D01*
X006777Y004842D01*
X006900Y004966D01*
X006967Y005127D01*
X006967Y005302D01*
X006900Y005464D01*
X006777Y005588D01*
X006711Y005615D01*
X006777Y005642D01*
X006900Y005766D01*
X006967Y005927D01*
X006967Y006102D01*
X006900Y006264D01*
X006777Y006388D01*
X006615Y006455D01*
X006440Y006455D01*
X006278Y006388D01*
X006154Y006264D01*
X006087Y006102D01*
X006087Y005927D01*
X006154Y005766D01*
X006278Y005642D01*
X006343Y005615D01*
X006278Y005588D01*
X006154Y005464D01*
X006087Y005302D01*
X006087Y005127D01*
X006096Y005106D01*
X006087Y005115D01*
X005905Y005115D01*
X005776Y004986D01*
X005776Y004804D01*
X005817Y004763D01*
X005430Y004638D01*
X005430Y004638D01*
X005097Y004395D01*
X004855Y004062D01*
X004727Y003671D01*
X004727Y002377D01*
X004805Y002242D01*
X004940Y002165D01*
X005041Y002165D01*
X004987Y002111D01*
X004987Y001929D01*
X005116Y001800D01*
X005299Y001800D01*
X005427Y001929D01*
X005427Y002111D01*
X005427Y002022D02*
X006287Y002022D01*
X006318Y002052D02*
X006189Y001923D01*
X006189Y001741D01*
X006318Y001612D01*
X006500Y001612D01*
X006629Y001741D01*
X006629Y001923D01*
X006500Y002052D01*
X006318Y002052D01*
X006209Y001943D02*
X005427Y001943D01*
X005364Y001865D02*
X006189Y001865D01*
X006189Y001786D02*
X004496Y001786D01*
X004479Y001769D02*
X004607Y001897D01*
X004607Y002080D01*
X004479Y002209D01*
X004296Y002209D01*
X004167Y002080D01*
X004167Y001897D01*
X004296Y001769D01*
X004479Y001769D01*
X004575Y001865D02*
X005051Y001865D01*
X004987Y001943D02*
X004607Y001943D01*
X004607Y002022D02*
X004987Y002022D01*
X004987Y002100D02*
X004587Y002100D01*
X004508Y002179D02*
X004915Y002179D01*
X004805Y002242D02*
X004805Y002242D01*
X004805Y002242D01*
X004797Y002257D02*
X002506Y002257D01*
X002557Y002309D02*
X002429Y002180D01*
X002246Y002180D01*
X002117Y002309D01*
X002117Y002491D01*
X002246Y002620D01*
X002429Y002620D01*
X002557Y002491D01*
X002557Y002309D01*
X002557Y002336D02*
X004751Y002336D01*
X004727Y002414D02*
X002557Y002414D01*
X002556Y002493D02*
X004727Y002493D01*
X004727Y002571D02*
X004426Y002571D01*
X004389Y002534D02*
X004517Y002663D01*
X004517Y002845D01*
X004389Y002974D01*
X004206Y002974D01*
X004077Y002845D01*
X004077Y002663D01*
X004206Y002534D01*
X004389Y002534D01*
X004504Y002650D02*
X004727Y002650D01*
X004727Y002728D02*
X004517Y002728D01*
X004517Y002807D02*
X004727Y002807D01*
X004727Y002885D02*
X004478Y002885D01*
X004399Y002964D02*
X004727Y002964D01*
X004727Y003042D02*
X003670Y003042D01*
X003670Y003037D02*
X003670Y003064D01*
X003660Y003118D01*
X003639Y003169D01*
X003628Y003185D01*
X003639Y003200D01*
X003660Y003251D01*
X003670Y003305D01*
X003670Y003332D01*
X003391Y003332D01*
X003096Y003332D01*
X003096Y003332D01*
X003096Y003316D01*
X003096Y003037D01*
X002817Y003037D01*
X002801Y003037D01*
X002801Y003037D01*
X003096Y003037D01*
X003096Y003037D01*
X003096Y003037D01*
X003096Y002758D01*
X003069Y002758D01*
X003015Y002769D01*
X002964Y002790D01*
X002949Y002800D01*
X002933Y002790D01*
X002882Y002769D01*
X002828Y002758D01*
X002801Y002758D01*
X002801Y003037D01*
X002801Y003037D01*
X002801Y003053D01*
X002801Y003332D01*
X002801Y003332D01*
X002801Y003332D01*
X003080Y003332D01*
X003096Y003332D01*
X003096Y003332D01*
X003096Y003037D01*
X003096Y003037D01*
X003096Y002758D01*
X003124Y002758D01*
X003178Y002769D01*
X003228Y002790D01*
X003244Y002800D01*
X003259Y002790D01*
X003310Y002769D01*
X003364Y002758D01*
X003391Y002758D01*
X003391Y003037D01*
X003096Y003037D01*
X003112Y003037D01*
X003391Y003037D01*
X003391Y003037D01*
X003391Y003037D01*
X003391Y003332D01*
X003391Y003332D01*
X003391Y003332D01*
X003112Y003332D01*
X003096Y003332D01*
X002801Y003332D01*
X002801Y003037D01*
X002801Y003037D01*
X002801Y002758D01*
X002773Y002758D01*
X002719Y002769D01*
X002669Y002790D01*
X002623Y002820D01*
X002584Y002859D01*
X002554Y002905D01*
X002533Y002956D01*
X002522Y003010D01*
X002522Y003037D01*
X002801Y003037D01*
X002522Y003037D01*
X002522Y003064D01*
X002533Y003118D01*
X002554Y003169D01*
X002564Y003185D01*
X002554Y003200D01*
X002533Y003251D01*
X002522Y003305D01*
X002522Y003332D01*
X002801Y003332D01*
X002801Y003332D01*
X002522Y003332D01*
X002522Y003360D01*
X002533Y003414D01*
X002554Y003464D01*
X002564Y003480D01*
X002554Y003495D01*
X002533Y003546D01*
X002522Y003600D01*
X002522Y003628D01*
X002801Y003628D01*
X002801Y003628D01*
X002801Y003907D01*
X002828Y003907D01*
X002882Y003896D01*
X002933Y003875D01*
X002949Y003865D01*
X002964Y003875D01*
X003015Y003896D01*
X003069Y003907D01*
X003096Y003907D01*
X003096Y003628D01*
X003096Y003628D01*
X003096Y003907D01*
X003124Y003907D01*
X003178Y003896D01*
X003228Y003875D01*
X003244Y003865D01*
X003259Y003875D01*
X003310Y003896D01*
X003364Y003907D01*
X003391Y003907D01*
X003391Y003628D01*
X003391Y003628D01*
X003391Y003628D01*
X003375Y003628D01*
X003096Y003628D01*
X003096Y003628D01*
X002801Y003628D01*
X002801Y003907D01*
X002773Y003907D01*
X002719Y003896D01*
X002669Y003875D01*
X002623Y003844D01*
X002584Y003805D01*
X002554Y003760D01*
X002533Y003709D01*
X002522Y003655D01*
X002522Y003628D01*
X002801Y003628D01*
X002801Y003628D01*
X002801Y003628D01*
X002817Y003628D01*
X003096Y003628D01*
X003096Y003628D01*
X003096Y003628D01*
X003096Y003349D01*
X003096Y003332D01*
X003096Y003332D01*
X003096Y003332D01*
X003096Y003628D01*
X003391Y003628D01*
X003391Y003907D01*
X003419Y003907D01*
X003473Y003896D01*
X003524Y003875D01*
X003569Y003844D01*
X003608Y003805D01*
X003639Y003760D01*
X003660Y003709D01*
X003670Y003655D01*
X003670Y003628D01*
X003391Y003628D01*
X003391Y003628D01*
X003391Y003611D01*
X003391Y003332D01*
X003391Y003053D01*
X003391Y003037D01*
X003391Y003037D01*
X003391Y002758D01*
X003419Y002758D01*
X003473Y002769D01*
X003524Y002790D01*
X003569Y002820D01*
X003608Y002859D01*
X003639Y002905D01*
X003660Y002956D01*
X003670Y003010D01*
X003670Y003037D01*
X003391Y003037D01*
X003670Y003037D01*
X003661Y002964D02*
X004196Y002964D01*
X004117Y002885D02*
X003626Y002885D01*
X003549Y002807D02*
X004077Y002807D01*
X004077Y002728D02*
X002091Y002728D01*
X002091Y002798D02*
X002091Y002616D01*
X001962Y002487D01*
X001780Y002487D01*
X001651Y002616D01*
X001651Y002798D01*
X001748Y002895D01*
X001620Y003022D01*
X001620Y003205D01*
X001749Y003334D01*
X001823Y003334D01*
X001727Y003429D01*
X001727Y003611D01*
X001856Y003740D01*
X002039Y003740D01*
X002167Y003611D01*
X002167Y003429D01*
X002039Y003300D01*
X001965Y003300D01*
X002060Y003205D01*
X002060Y003022D01*
X001964Y002926D01*
X002091Y002798D01*
X002083Y002807D02*
X002643Y002807D01*
X002567Y002885D02*
X002004Y002885D01*
X002001Y002964D02*
X002531Y002964D01*
X002522Y003042D02*
X002060Y003042D01*
X002060Y003121D02*
X002534Y003121D01*
X002554Y003199D02*
X002060Y003199D01*
X001987Y003278D02*
X002527Y003278D01*
X002522Y003356D02*
X002095Y003356D01*
X002167Y003435D02*
X002541Y003435D01*
X002546Y003513D02*
X002167Y003513D01*
X002167Y003592D02*
X002523Y003592D01*
X002525Y003670D02*
X002108Y003670D01*
X001787Y003670D02*
X001267Y003670D01*
X001267Y003592D02*
X001727Y003592D01*
X001727Y003513D02*
X001267Y003513D01*
X001267Y003435D02*
X001727Y003435D01*
X001800Y003356D02*
X001267Y003356D01*
X001267Y003278D02*
X001693Y003278D01*
X001620Y003199D02*
X001267Y003199D01*
X001267Y003121D02*
X001620Y003121D01*
X001620Y003042D02*
X001267Y003042D01*
X001267Y002964D02*
X001679Y002964D01*
X001738Y002885D02*
X001267Y002885D01*
X001267Y002807D02*
X001660Y002807D01*
X001651Y002728D02*
X001267Y002728D01*
X001267Y002650D02*
X001651Y002650D01*
X001696Y002571D02*
X001267Y002571D01*
X001267Y002493D02*
X001775Y002493D01*
X001746Y002459D02*
X001617Y002330D01*
X001617Y002147D01*
X001715Y002050D01*
X001620Y001955D01*
X001620Y001772D01*
X001749Y001644D01*
X001931Y001644D01*
X002060Y001772D01*
X002060Y001955D01*
X001962Y002052D01*
X002057Y002147D01*
X002057Y002330D01*
X001929Y002459D01*
X001746Y002459D01*
X001702Y002414D02*
X001267Y002414D01*
X001267Y002336D02*
X001624Y002336D01*
X001617Y002257D02*
X001267Y002257D01*
X001267Y002179D02*
X001617Y002179D01*
X001665Y002100D02*
X001267Y002100D01*
X001267Y002022D02*
X001687Y002022D01*
X001620Y001943D02*
X001267Y001943D01*
X001267Y001865D02*
X001620Y001865D01*
X001620Y001786D02*
X001267Y001786D01*
X001267Y001708D02*
X001685Y001708D01*
X001995Y001708D02*
X006222Y001708D01*
X006301Y001629D02*
X001267Y001629D01*
X002060Y001786D02*
X004279Y001786D01*
X004200Y001865D02*
X002060Y001865D01*
X002060Y001943D02*
X004167Y001943D01*
X004167Y002022D02*
X001993Y002022D01*
X002010Y002100D02*
X004188Y002100D01*
X004267Y002179D02*
X002057Y002179D01*
X002057Y002257D02*
X002169Y002257D01*
X002117Y002336D02*
X002051Y002336D01*
X002117Y002414D02*
X001973Y002414D01*
X001968Y002493D02*
X002119Y002493D01*
X002046Y002571D02*
X002198Y002571D01*
X002091Y002650D02*
X004091Y002650D01*
X004169Y002571D02*
X002477Y002571D01*
X002801Y002807D02*
X002801Y002807D01*
X002801Y002885D02*
X002801Y002885D01*
X002801Y002964D02*
X002801Y002964D01*
X002801Y003037D02*
X002801Y003037D01*
X002801Y003042D02*
X002801Y003042D01*
X002801Y003121D02*
X002801Y003121D01*
X002801Y003199D02*
X002801Y003199D01*
X002801Y003278D02*
X002801Y003278D01*
X002801Y003332D02*
X002801Y003611D01*
X002801Y003628D01*
X002801Y003332D01*
X002801Y003332D01*
X002801Y003356D02*
X002801Y003356D01*
X002801Y003435D02*
X002801Y003435D01*
X002801Y003513D02*
X002801Y003513D01*
X002801Y003592D02*
X002801Y003592D01*
X002801Y003628D02*
X002801Y003628D01*
X002801Y003670D02*
X002801Y003670D01*
X002801Y003749D02*
X002801Y003749D01*
X002801Y003827D02*
X002801Y003827D01*
X002801Y003906D02*
X002801Y003906D01*
X002833Y003906D02*
X003064Y003906D01*
X003096Y003906D02*
X003096Y003906D01*
X003128Y003906D02*
X003360Y003906D01*
X003391Y003906D02*
X003391Y003906D01*
X003423Y003906D02*
X004123Y003906D01*
X004124Y003905D02*
X004306Y003905D01*
X004435Y004034D01*
X004435Y004060D01*
X004488Y004007D01*
X004670Y004007D01*
X004799Y004136D01*
X004799Y004318D01*
X004670Y004447D01*
X004488Y004447D01*
X004359Y004318D01*
X004359Y004292D01*
X004306Y004345D01*
X004124Y004345D01*
X003995Y004216D01*
X003995Y004034D01*
X004124Y003905D01*
X004044Y003984D02*
X001267Y003984D01*
X001267Y003906D02*
X002769Y003906D01*
X002606Y003827D02*
X001267Y003827D01*
X001267Y003749D02*
X002549Y003749D01*
X003096Y003749D02*
X003096Y003749D01*
X003096Y003827D02*
X003096Y003827D01*
X003096Y003670D02*
X003096Y003670D01*
X003096Y003592D02*
X003096Y003592D01*
X003096Y003513D02*
X003096Y003513D01*
X003096Y003435D02*
X003096Y003435D01*
X003096Y003356D02*
X003096Y003356D01*
X003096Y003278D02*
X003096Y003278D01*
X003096Y003199D02*
X003096Y003199D01*
X003096Y003121D02*
X003096Y003121D01*
X003096Y003042D02*
X003096Y003042D01*
X003096Y003037D02*
X003096Y003037D01*
X003096Y002964D02*
X003096Y002964D01*
X003096Y002885D02*
X003096Y002885D01*
X003096Y002807D02*
X003096Y002807D01*
X003391Y002807D02*
X003391Y002807D01*
X003391Y002885D02*
X003391Y002885D01*
X003391Y002964D02*
X003391Y002964D01*
X003391Y003037D02*
X003391Y003037D01*
X003391Y003042D02*
X003391Y003042D01*
X003391Y003121D02*
X003391Y003121D01*
X003391Y003199D02*
X003391Y003199D01*
X003391Y003278D02*
X003391Y003278D01*
X003391Y003332D02*
X003391Y003332D01*
X003391Y003332D01*
X003391Y003628D01*
X003391Y003628D01*
X003670Y003628D01*
X003670Y003600D01*
X003660Y003546D01*
X003639Y003495D01*
X003628Y003480D01*
X003639Y003464D01*
X003660Y003414D01*
X003670Y003360D01*
X003670Y003332D01*
X003391Y003332D01*
X003391Y003356D02*
X003391Y003356D01*
X003391Y003435D02*
X003391Y003435D01*
X003391Y003513D02*
X003391Y003513D01*
X003391Y003592D02*
X003391Y003592D01*
X003391Y003670D02*
X003391Y003670D01*
X003391Y003749D02*
X003391Y003749D01*
X003391Y003827D02*
X003391Y003827D01*
X003586Y003827D02*
X004778Y003827D01*
X004753Y003749D02*
X003643Y003749D01*
X003667Y003670D02*
X004727Y003670D01*
X004727Y003592D02*
X003669Y003592D01*
X003646Y003513D02*
X004727Y003513D01*
X004727Y003435D02*
X003651Y003435D01*
X003670Y003356D02*
X004727Y003356D01*
X004727Y003278D02*
X003665Y003278D01*
X003638Y003199D02*
X004727Y003199D01*
X004727Y003121D02*
X003659Y003121D01*
X004307Y003906D02*
X004804Y003906D01*
X004829Y003984D02*
X004386Y003984D01*
X004353Y004298D02*
X004359Y004298D01*
X004417Y004377D02*
X003964Y004377D01*
X003964Y004366D02*
X003964Y004417D01*
X003981Y004400D01*
X004164Y004400D01*
X004292Y004529D01*
X004292Y004711D01*
X004164Y004840D01*
X003981Y004840D01*
X003852Y004711D01*
X003852Y004660D01*
X003835Y004677D01*
X003653Y004677D01*
X003524Y004548D01*
X003524Y004366D01*
X003653Y004237D01*
X003835Y004237D01*
X003964Y004366D01*
X003896Y004298D02*
X004077Y004298D01*
X003999Y004220D02*
X001267Y004220D01*
X001267Y004298D02*
X003592Y004298D01*
X003524Y004377D02*
X001996Y004377D01*
X002047Y004429D02*
X001919Y004300D01*
X001736Y004300D01*
X001607Y004429D01*
X001607Y004611D01*
X001736Y004740D01*
X001919Y004740D01*
X002047Y004611D01*
X002047Y004429D01*
X002047Y004455D02*
X002810Y004455D01*
X002840Y004425D02*
X002711Y004554D01*
X002711Y004736D01*
X002831Y004856D01*
X002742Y004945D01*
X002742Y005011D01*
X002561Y005011D01*
X002432Y005140D01*
X002432Y005322D01*
X002561Y005451D01*
X002744Y005451D01*
X002872Y005322D01*
X002872Y005256D01*
X003054Y005256D01*
X003182Y005127D01*
X003182Y004945D01*
X003062Y004825D01*
X003151Y004736D01*
X003151Y004554D01*
X003022Y004425D01*
X002840Y004425D01*
X002731Y004534D02*
X002047Y004534D01*
X002046Y004612D02*
X002711Y004612D01*
X002711Y004691D02*
X001968Y004691D01*
X001687Y004691D02*
X001267Y004691D01*
X001267Y004769D02*
X002745Y004769D01*
X002823Y004848D02*
X001267Y004848D01*
X001267Y004926D02*
X002761Y004926D01*
X002742Y005005D02*
X001267Y005005D01*
X001267Y005083D02*
X002489Y005083D01*
X002432Y005162D02*
X001267Y005162D01*
X001267Y005240D02*
X002432Y005240D01*
X002432Y005319D02*
X001267Y005319D01*
X001267Y005397D02*
X002508Y005397D01*
X002797Y005397D02*
X003139Y005397D01*
X003152Y005364D02*
X003277Y005240D01*
X003439Y005172D01*
X003615Y005172D01*
X003778Y005240D01*
X003903Y005364D01*
X003970Y005527D01*
X003970Y005703D01*
X003903Y005865D01*
X003778Y005990D01*
X003615Y006057D01*
X003439Y006057D01*
X003277Y005990D01*
X003216Y005929D01*
X003216Y006048D01*
X003087Y006177D01*
X002905Y006177D01*
X002776Y006048D01*
X002776Y005866D01*
X002905Y005737D01*
X003087Y005737D01*
X003108Y005758D01*
X003085Y005703D01*
X003085Y005527D01*
X003152Y005364D01*
X003198Y005319D02*
X002872Y005319D01*
X003069Y005240D02*
X003276Y005240D01*
X003148Y005162D02*
X006087Y005162D01*
X006087Y005240D02*
X003779Y005240D01*
X003857Y005319D02*
X006094Y005319D01*
X006127Y005397D02*
X003916Y005397D01*
X003949Y005476D02*
X006166Y005476D01*
X006245Y005554D02*
X003970Y005554D01*
X003970Y005633D02*
X006300Y005633D01*
X006209Y005711D02*
X003966Y005711D01*
X003934Y005790D02*
X006144Y005790D01*
X006112Y005868D02*
X003900Y005868D01*
X003821Y005947D02*
X006087Y005947D01*
X006087Y006025D02*
X003693Y006025D01*
X003838Y006261D02*
X001267Y006261D01*
X001267Y006339D02*
X001272Y006339D01*
X001267Y006182D02*
X003959Y006182D01*
X004100Y006395D02*
X004242Y006536D01*
X004324Y006618D01*
X004324Y009270D01*
X007887Y009270D01*
X007887Y006645D01*
X004402Y006645D01*
X004402Y006488D01*
X004377Y006463D01*
X004377Y006395D01*
X004100Y006395D01*
X004123Y006418D02*
X004377Y006418D01*
X004402Y006496D02*
X004202Y006496D01*
X004280Y006575D02*
X004402Y006575D01*
X004324Y006653D02*
X007887Y006653D01*
X007887Y006732D02*
X004324Y006732D01*
X004324Y006810D02*
X007887Y006810D01*
X007887Y006889D02*
X004324Y006889D01*
X004324Y006967D02*
X007887Y006967D01*
X007887Y007046D02*
X004324Y007046D01*
X004324Y007124D02*
X007887Y007124D01*
X007887Y007203D02*
X004324Y007203D01*
X004324Y007281D02*
X007887Y007281D01*
X007887Y007360D02*
X004324Y007360D01*
X004324Y007438D02*
X007887Y007438D01*
X007887Y007517D02*
X007159Y007517D01*
X007216Y007574D02*
X007087Y007445D01*
X006905Y007445D01*
X006776Y007574D01*
X006776Y007756D01*
X006905Y007885D01*
X007087Y007885D01*
X007216Y007756D01*
X007216Y007574D01*
X007216Y007595D02*
X007887Y007595D01*
X007887Y007674D02*
X007216Y007674D01*
X007216Y007752D02*
X007887Y007752D01*
X007887Y007831D02*
X007141Y007831D01*
X006851Y007831D02*
X005556Y007831D01*
X005591Y007866D02*
X005462Y007737D01*
X005280Y007737D01*
X005151Y007866D01*
X005151Y008048D01*
X005280Y008177D01*
X005462Y008177D01*
X005591Y008048D01*
X005591Y007866D01*
X005591Y007909D02*
X007887Y007909D01*
X007887Y007988D02*
X005591Y007988D01*
X005573Y008066D02*
X007887Y008066D01*
X007887Y008145D02*
X005495Y008145D01*
X005248Y008145D02*
X004324Y008145D01*
X004324Y008223D02*
X007887Y008223D01*
X007887Y008302D02*
X004324Y008302D01*
X004324Y008380D02*
X007887Y008380D01*
X007887Y008459D02*
X004324Y008459D01*
X004324Y008537D02*
X005254Y008537D01*
X005296Y008495D02*
X005479Y008495D01*
X005607Y008624D01*
X005607Y008806D01*
X005479Y008935D01*
X005296Y008935D01*
X005167Y008806D01*
X005167Y008624D01*
X005296Y008495D01*
X005175Y008616D02*
X004324Y008616D01*
X004324Y008694D02*
X005167Y008694D01*
X005167Y008773D02*
X004324Y008773D01*
X004324Y008851D02*
X005213Y008851D01*
X005291Y008930D02*
X004324Y008930D01*
X004324Y009008D02*
X007887Y009008D01*
X007887Y008930D02*
X005484Y008930D01*
X005562Y008851D02*
X007887Y008851D01*
X007887Y008773D02*
X005607Y008773D01*
X005607Y008694D02*
X007887Y008694D01*
X007887Y008616D02*
X005600Y008616D01*
X005521Y008537D02*
X007887Y008537D01*
X007887Y009087D02*
X004324Y009087D01*
X004324Y009165D02*
X007887Y009165D01*
X007887Y009244D02*
X004324Y009244D01*
X004477Y009479D02*
X007370Y009479D01*
X007370Y009558D02*
X004467Y009558D01*
X004459Y009636D02*
X007413Y009636D01*
X007491Y009715D02*
X004423Y009715D01*
X004341Y009793D02*
X007887Y009793D01*
X007887Y009715D02*
X007689Y009715D01*
X007767Y009636D02*
X007887Y009636D01*
X007887Y009558D02*
X007810Y009558D01*
X007810Y009479D02*
X007887Y009479D01*
X007887Y009872D02*
X004263Y009872D01*
X004184Y009950D02*
X007927Y009950D01*
X007965Y010017D02*
X007965Y010017D01*
X007965Y010017D01*
X007985Y010029D02*
X003094Y010029D01*
X003107Y010107D02*
X008027Y010107D01*
X008027Y010186D02*
X003107Y010186D01*
X003068Y010264D02*
X008027Y010264D01*
X008027Y010343D02*
X002989Y010343D01*
X002786Y010343D02*
X002609Y010343D01*
X002688Y010264D02*
X002707Y010264D01*
X002406Y010343D02*
X001267Y010343D01*
X001267Y010421D02*
X008027Y010421D01*
X008027Y010500D02*
X001267Y010500D01*
X001267Y010578D02*
X008027Y010578D01*
X008027Y010657D02*
X001267Y010657D01*
X001267Y010735D02*
X006207Y010735D01*
X006129Y010814D02*
X001267Y010814D01*
X001267Y010892D02*
X006089Y010892D01*
X006089Y010971D02*
X001267Y010971D01*
X001269Y011049D02*
X006102Y011049D01*
X006515Y011049D02*
X008027Y011049D01*
X008027Y010971D02*
X006529Y010971D01*
X006529Y010892D02*
X008027Y010892D01*
X008027Y010814D02*
X006489Y010814D01*
X006410Y010735D02*
X008027Y010735D01*
X009927Y009244D02*
X010787Y009244D01*
X010787Y009165D02*
X009927Y009165D01*
X009927Y009087D02*
X010787Y009087D01*
X010787Y009008D02*
X009927Y009008D01*
X009927Y008930D02*
X010787Y008930D01*
X010787Y008851D02*
X009927Y008851D01*
X009927Y008773D02*
X010787Y008773D01*
X010787Y008694D02*
X009927Y008694D01*
X009927Y008616D02*
X010787Y008616D01*
X010787Y008537D02*
X009927Y008537D01*
X009917Y008459D02*
X010787Y008459D01*
X010787Y008380D02*
X009872Y008380D01*
X009841Y008327D02*
X009841Y008327D01*
X009841Y008327D01*
X009798Y008302D02*
X010787Y008302D01*
X010787Y008223D02*
X009167Y008223D01*
X009167Y008145D02*
X010787Y008145D01*
X010787Y008066D02*
X009167Y008066D01*
X009798Y007988D02*
X010787Y007988D01*
X010787Y007909D02*
X009872Y007909D01*
X009841Y007963D02*
X009841Y007963D01*
X009917Y007831D02*
X010787Y007831D01*
X010787Y007752D02*
X009927Y007752D01*
X009927Y007674D02*
X010787Y007674D01*
X010787Y007595D02*
X009927Y007595D01*
X009927Y007517D02*
X010787Y007517D01*
X010787Y007438D02*
X009927Y007438D01*
X009927Y007360D02*
X010787Y007360D01*
X010787Y007281D02*
X009927Y007281D01*
X009927Y007203D02*
X010787Y007203D01*
X010787Y007124D02*
X009927Y007124D01*
X009927Y007046D02*
X010787Y007046D01*
X010787Y006967D02*
X009922Y006967D01*
X009877Y006889D02*
X010787Y006889D01*
X010787Y006810D02*
X009812Y006810D01*
X009841Y006827D02*
X009841Y006827D01*
X009841Y006827D01*
X009167Y006732D02*
X010787Y006732D01*
X010787Y006653D02*
X009167Y006653D01*
X009167Y006575D02*
X010787Y006575D01*
X010787Y006496D02*
X009167Y006496D01*
X009167Y006418D02*
X010787Y006418D01*
X010787Y006339D02*
X009128Y006339D01*
X009069Y006261D02*
X010787Y006261D01*
X010787Y006182D02*
X006934Y006182D01*
X006967Y006104D02*
X010787Y006104D01*
X010787Y006025D02*
X008686Y006025D01*
X008615Y006055D02*
X008440Y006055D01*
X008278Y005988D01*
X008154Y005864D01*
X008087Y005702D01*
X008087Y005527D01*
X008154Y005366D01*
X008278Y005242D01*
X008440Y005175D01*
X008615Y005175D01*
X008777Y005242D01*
X008900Y005366D01*
X008967Y005527D01*
X008967Y005702D01*
X008900Y005864D01*
X008777Y005988D01*
X008615Y006055D01*
X008818Y005947D02*
X010787Y005947D01*
X010787Y005868D02*
X008896Y005868D01*
X008931Y005790D02*
X010111Y005790D01*
X010057Y005736D02*
X010186Y005865D01*
X010369Y005865D01*
X010497Y005736D01*
X010497Y005554D01*
X010501Y005554D01*
X010497Y005554D02*
X010369Y005425D01*
X010186Y005425D01*
X010057Y005554D01*
X008967Y005554D01*
X008967Y005633D02*
X010057Y005633D01*
X010057Y005711D02*
X008964Y005711D01*
X008946Y005476D02*
X010135Y005476D01*
X010057Y005554D02*
X010057Y005736D01*
X010444Y005790D02*
X010787Y005790D01*
X010787Y005711D02*
X010497Y005711D01*
X010497Y005633D02*
X010787Y005633D01*
X010432Y005476D02*
X010420Y005476D01*
X010432Y005397D02*
X008914Y005397D01*
X008854Y005319D02*
X010432Y005319D01*
X010496Y005240D02*
X008773Y005240D01*
X008479Y004942D02*
X008296Y004942D01*
X008167Y004813D01*
X008167Y004631D01*
X008296Y004502D01*
X008479Y004502D01*
X008607Y004631D01*
X008607Y004813D01*
X008479Y004942D01*
X008495Y004926D02*
X010787Y004926D01*
X010787Y004848D02*
X008573Y004848D01*
X008607Y004769D02*
X010787Y004769D01*
X010787Y004691D02*
X008607Y004691D01*
X008589Y004612D02*
X010787Y004612D01*
X010787Y004534D02*
X008510Y004534D01*
X008265Y004534D02*
X006768Y004534D01*
X006876Y004455D02*
X010787Y004455D01*
X010787Y004377D02*
X006972Y004377D01*
X006958Y004395D02*
X006958Y004395D01*
X006958Y004395D01*
X007029Y004298D02*
X010787Y004298D01*
X010787Y004220D02*
X007086Y004220D01*
X007143Y004141D02*
X010787Y004141D01*
X010787Y004063D02*
X007200Y004063D01*
X007226Y003984D02*
X010787Y003984D01*
X010787Y003906D02*
X007251Y003906D01*
X007277Y003827D02*
X010787Y003827D01*
X010787Y003749D02*
X007302Y003749D01*
X007327Y003670D02*
X010787Y003670D01*
X010787Y003592D02*
X007327Y003592D01*
X007327Y003513D02*
X010787Y003513D01*
X010787Y003435D02*
X007327Y003435D01*
X007327Y003356D02*
X010787Y003356D01*
X010787Y003278D02*
X007327Y003278D01*
X007327Y003199D02*
X007643Y003199D01*
X007699Y003255D02*
X007570Y003126D01*
X007570Y002944D01*
X007673Y002841D01*
X007597Y002766D01*
X007597Y002605D01*
X007511Y002605D01*
X007382Y002476D01*
X007382Y002294D01*
X007511Y002165D01*
X007694Y002165D01*
X007822Y002294D01*
X007822Y002455D01*
X007909Y002455D01*
X008037Y002584D01*
X008037Y002766D01*
X007935Y002869D01*
X008010Y002944D01*
X008010Y003126D01*
X007881Y003255D01*
X007699Y003255D01*
X007570Y003121D02*
X007327Y003121D01*
X007327Y003042D02*
X007570Y003042D01*
X007570Y002964D02*
X007327Y002964D01*
X007327Y002885D02*
X007628Y002885D01*
X007638Y002807D02*
X007327Y002807D01*
X007327Y002728D02*
X007597Y002728D01*
X007597Y002650D02*
X007327Y002650D01*
X007327Y002571D02*
X007478Y002571D01*
X007399Y002493D02*
X007327Y002493D01*
X007327Y002414D02*
X007382Y002414D01*
X007382Y002336D02*
X007304Y002336D01*
X007258Y002257D02*
X007419Y002257D01*
X007497Y002179D02*
X007139Y002179D01*
X006609Y001943D02*
X008057Y001943D01*
X008037Y001865D02*
X006629Y001865D01*
X006629Y001786D02*
X008037Y001786D01*
X008071Y001708D02*
X006595Y001708D01*
X006517Y001629D02*
X008149Y001629D01*
X008136Y002022D02*
X006530Y002022D01*
X007708Y002179D02*
X010787Y002179D01*
X010787Y002257D02*
X007786Y002257D01*
X007822Y002336D02*
X010787Y002336D01*
X010787Y002414D02*
X007822Y002414D01*
X007947Y002493D02*
X010787Y002493D01*
X010787Y002571D02*
X008025Y002571D01*
X008037Y002650D02*
X010787Y002650D01*
X010787Y002728D02*
X008037Y002728D01*
X007997Y002807D02*
X010787Y002807D01*
X010787Y002885D02*
X007952Y002885D01*
X008010Y002964D02*
X010787Y002964D01*
X010787Y003042D02*
X008010Y003042D01*
X008010Y003121D02*
X010787Y003121D01*
X010787Y003199D02*
X007937Y003199D01*
X008186Y004612D02*
X006660Y004612D01*
X006625Y004638D02*
X006625Y004638D01*
X006461Y004691D02*
X008167Y004691D01*
X008167Y004769D02*
X006182Y004769D01*
X006216Y004848D02*
X006272Y004848D01*
X005874Y005083D02*
X003182Y005083D01*
X003182Y005005D02*
X003298Y005005D01*
X003323Y005030D02*
X003194Y004901D01*
X003194Y004719D01*
X003323Y004590D01*
X003505Y004590D01*
X003634Y004719D01*
X003634Y004901D01*
X003505Y005030D01*
X003323Y005030D01*
X003219Y004926D02*
X003164Y004926D01*
X003194Y004848D02*
X003085Y004848D01*
X003118Y004769D02*
X003194Y004769D01*
X003222Y004691D02*
X003151Y004691D01*
X003151Y004612D02*
X003300Y004612D01*
X003131Y004534D02*
X003524Y004534D01*
X003527Y004612D02*
X003588Y004612D01*
X003606Y004691D02*
X003852Y004691D01*
X003911Y004769D02*
X003634Y004769D01*
X003634Y004848D02*
X005776Y004848D01*
X005776Y004926D02*
X003608Y004926D01*
X003530Y005005D02*
X005795Y005005D01*
X005811Y004769D02*
X004234Y004769D01*
X004292Y004691D02*
X005594Y004691D01*
X005395Y004612D02*
X004292Y004612D01*
X004292Y004534D02*
X005287Y004534D01*
X005179Y004455D02*
X004219Y004455D01*
X003995Y004141D02*
X001267Y004141D01*
X001267Y004063D02*
X003995Y004063D01*
X003524Y004455D02*
X003053Y004455D01*
X003106Y005476D02*
X001267Y005476D01*
X001267Y005554D02*
X003085Y005554D01*
X003085Y005633D02*
X001267Y005633D01*
X001267Y005711D02*
X003088Y005711D01*
X002853Y005790D02*
X001267Y005790D01*
X001267Y005868D02*
X002776Y005868D01*
X002776Y005947D02*
X001267Y005947D01*
X001267Y006025D02*
X002776Y006025D01*
X002832Y006104D02*
X001267Y006104D01*
X001533Y006339D02*
X002947Y006339D01*
X002869Y006418D02*
X001612Y006418D01*
X001622Y006496D02*
X002790Y006496D01*
X003161Y006104D02*
X006088Y006104D01*
X006121Y006182D02*
X005812Y006182D01*
X005891Y006261D02*
X006153Y006261D01*
X006230Y006339D02*
X005904Y006339D01*
X005904Y006418D02*
X006351Y006418D01*
X006704Y006418D02*
X007887Y006418D01*
X007887Y006496D02*
X005863Y006496D01*
X005555Y006182D02*
X004719Y006182D01*
X004797Y006261D02*
X005477Y006261D01*
X005464Y006339D02*
X004817Y006339D01*
X004817Y006418D02*
X005464Y006418D01*
X005504Y006496D02*
X004785Y006496D01*
X004476Y006182D02*
X004196Y006182D01*
X003362Y006025D02*
X003216Y006025D01*
X003216Y005947D02*
X003234Y005947D01*
X002087Y006575D02*
X001622Y006575D01*
X001580Y006653D02*
X002008Y006653D01*
X001930Y006732D02*
X001502Y006732D01*
X001504Y006810D02*
X001851Y006810D01*
X001825Y006889D02*
X001583Y006889D01*
X001622Y006967D02*
X001825Y006967D01*
X001825Y007046D02*
X001622Y007046D01*
X001609Y007124D02*
X001825Y007124D01*
X001825Y007203D02*
X001531Y007203D01*
X001274Y007203D02*
X001267Y007203D01*
X001267Y007281D02*
X001825Y007281D01*
X001825Y007360D02*
X001267Y007360D01*
X001267Y007438D02*
X001825Y007438D01*
X001825Y007517D02*
X001267Y007517D01*
X001267Y007595D02*
X001825Y007595D01*
X001825Y007674D02*
X001267Y007674D01*
X001267Y007752D02*
X001825Y007752D01*
X001825Y007831D02*
X001267Y007831D01*
X001267Y007909D02*
X001825Y007909D01*
X001825Y007988D02*
X001267Y007988D01*
X001267Y008066D02*
X001825Y008066D01*
X001825Y008145D02*
X001267Y008145D01*
X001267Y008223D02*
X001825Y008223D01*
X001825Y008302D02*
X001267Y008302D01*
X001267Y008380D02*
X001825Y008380D01*
X001825Y008459D02*
X001267Y008459D01*
X001267Y008537D02*
X001825Y008537D01*
X001825Y008616D02*
X001267Y008616D01*
X001267Y008694D02*
X001825Y008694D01*
X001825Y008773D02*
X001267Y008773D01*
X001267Y008851D02*
X001825Y008851D01*
X001825Y008930D02*
X001267Y008930D01*
X001267Y009008D02*
X001825Y009008D01*
X001825Y009087D02*
X001267Y009087D01*
X001267Y009165D02*
X001446Y009165D01*
X001367Y009244D02*
X001267Y009244D01*
X001267Y009322D02*
X001339Y009322D01*
X001339Y009401D02*
X001267Y009401D01*
X001267Y009479D02*
X001363Y009479D01*
X001442Y009558D02*
X001267Y009558D01*
X001267Y009636D02*
X001901Y009636D01*
X001979Y009715D02*
X001267Y009715D01*
X001267Y009793D02*
X002058Y009793D01*
X002136Y009872D02*
X001267Y009872D01*
X001267Y009950D02*
X002215Y009950D01*
X002301Y010029D02*
X001267Y010029D01*
X001267Y010107D02*
X002287Y010107D01*
X002287Y010186D02*
X001267Y010186D01*
X001267Y010264D02*
X002327Y010264D01*
X002350Y009874D02*
X004049Y009874D01*
X004324Y008066D02*
X005169Y008066D01*
X005151Y007988D02*
X004324Y007988D01*
X004324Y007909D02*
X005151Y007909D01*
X005187Y007831D02*
X004324Y007831D01*
X004324Y007752D02*
X005265Y007752D01*
X005477Y007752D02*
X006776Y007752D01*
X006776Y007674D02*
X004324Y007674D01*
X004324Y007595D02*
X006776Y007595D01*
X006833Y007517D02*
X004324Y007517D01*
X006755Y005633D02*
X008087Y005633D01*
X008091Y005711D02*
X006846Y005711D01*
X006910Y005790D02*
X008124Y005790D01*
X008159Y005868D02*
X006943Y005868D01*
X006967Y005947D02*
X008237Y005947D01*
X008369Y006025D02*
X006967Y006025D01*
X006902Y006261D02*
X007985Y006261D01*
X007965Y006272D02*
X007965Y006272D01*
X007927Y006339D02*
X006825Y006339D01*
X006810Y005554D02*
X008087Y005554D01*
X008109Y005476D02*
X006889Y005476D01*
X006928Y005397D02*
X008141Y005397D01*
X008201Y005319D02*
X006961Y005319D01*
X006967Y005240D02*
X008282Y005240D01*
X008280Y004926D02*
X006861Y004926D01*
X006917Y005005D02*
X010787Y005005D01*
X010787Y005083D02*
X006949Y005083D01*
X006967Y005162D02*
X010787Y005162D01*
X008202Y004848D02*
X006783Y004848D01*
X005097Y004395D02*
X005097Y004395D01*
X005097Y004395D01*
X005083Y004377D02*
X004740Y004377D01*
X004799Y004298D02*
X005026Y004298D01*
X004969Y004220D02*
X004799Y004220D01*
X004799Y004141D02*
X004912Y004141D01*
X004855Y004063D02*
X004725Y004063D01*
X004855Y004062D02*
X004855Y004062D01*
X001659Y004377D02*
X001267Y004377D01*
X001267Y004455D02*
X001607Y004455D01*
X001607Y004534D02*
X001267Y004534D01*
X001267Y004612D02*
X001609Y004612D01*
X001303Y006732D02*
X001267Y006732D01*
X001267Y006810D02*
X001301Y006810D01*
X001672Y009165D02*
X001825Y009165D01*
X001822Y009558D02*
X001676Y009558D01*
X009466Y001865D02*
X009649Y001865D01*
X009826Y001865D01*
X009737Y001776D01*
X009649Y001865D01*
X009727Y001786D02*
X009748Y001786D01*
X009826Y001865D02*
X010009Y001865D01*
X010087Y001786D02*
X010787Y001786D01*
X010787Y001708D02*
X010137Y001708D01*
X010137Y001629D02*
X010787Y001629D01*
X010787Y001551D02*
X010135Y001551D01*
D13*
X004367Y009145D02*
X004309Y009614D01*
X004049Y009874D01*
X002350Y009874D02*
X001840Y009364D01*
X001559Y009364D01*
D14*
X008902Y003645D03*
X008902Y002770D03*
X009777Y002770D03*
X009777Y003645D03*
M02*
