G75*
%MOIN*%
%OFA0B0*%
%FSLAX24Y24*%
%IPPOS*%
%LPD*%
%AMOC8*
5,1,8,0,0,1.08239X$1,22.5*
%
%ADD10C,0.0338*%
%ADD11C,0.0370*%
%ADD12C,0.0465*%
%ADD13C,0.0460*%
%ADD14R,0.0410X0.0310*%
%ADD15R,0.0360X0.0360*%
%ADD16C,0.0360*%
D10*
X002540Y003037D03*
X002835Y003037D03*
X003131Y003037D03*
X003131Y003332D03*
X003131Y003628D03*
X002835Y003628D03*
X002540Y003628D03*
X002540Y003332D03*
X002835Y003332D03*
D11*
X003767Y005365D03*
X004267Y005365D03*
X004767Y005365D03*
X005267Y005365D03*
X005767Y005365D03*
X005767Y005865D03*
X005267Y005865D03*
X004767Y005865D03*
X004267Y005865D03*
X003767Y005865D03*
X006767Y005865D03*
X007267Y005865D03*
X007767Y005865D03*
X007767Y005365D03*
X007267Y005365D03*
X006767Y005365D03*
D12*
X003267Y005615D03*
D13*
X006267Y006015D03*
X006267Y005215D03*
X008267Y005615D03*
D14*
X001173Y005520D03*
X001173Y006020D03*
X001173Y006520D03*
X001173Y007020D03*
X001173Y007520D03*
X001173Y005020D03*
X001173Y004520D03*
X001173Y004020D03*
X001173Y003520D03*
X001173Y003020D03*
X001173Y002520D03*
X001173Y002020D03*
D15*
X002392Y008145D03*
X009142Y008145D03*
D16*
X001204Y001645D03*
X001579Y001864D03*
X001577Y002239D03*
X001610Y002707D03*
X001579Y003114D03*
X001687Y003520D03*
X001567Y004520D03*
X001642Y005082D03*
X001985Y004970D03*
X002142Y005298D03*
X002704Y005450D03*
X002707Y005005D03*
X002702Y004645D03*
X003184Y004810D03*
X003577Y004520D03*
X003937Y004542D03*
X004579Y004489D03*
X003992Y003800D03*
X004048Y003444D03*
X004048Y003084D03*
X004127Y001989D03*
X004487Y001980D03*
X004947Y002020D03*
X006148Y001832D03*
X007342Y002385D03*
X007557Y002675D03*
X007529Y003035D03*
X008642Y002770D03*
X009517Y002770D03*
X009517Y003645D03*
X008642Y003645D03*
X008127Y004722D03*
X006673Y004551D03*
X005735Y004895D03*
X005360Y006270D03*
X004923Y006364D03*
X004337Y006372D03*
X004204Y006895D03*
X004204Y007832D03*
X005110Y007957D03*
X005127Y008715D03*
X005485Y009520D03*
X006235Y008450D03*
X006735Y007665D03*
X006517Y007332D03*
X007423Y006957D03*
X007017Y006145D03*
X009267Y007520D03*
X010392Y007520D03*
X010392Y008645D03*
X009298Y006395D03*
X010017Y005645D03*
X010392Y005395D03*
X010329Y006114D03*
X007329Y009502D03*
X006048Y010945D03*
X004048Y009145D03*
X002637Y010082D03*
X002110Y009114D03*
X002298Y008707D03*
X001704Y008895D03*
X001548Y007301D03*
X001552Y006330D03*
X001917Y006334D03*
X002077Y002400D03*
X007997Y001832D03*
X009297Y001645D03*
X009657Y001645D03*
M02*
