G75*
%MOIN*%
%OFA0B0*%
%FSLAX24Y24*%
%IPPOS*%
%LPD*%
%AMOC8*
5,1,8,0,0,1.08239X$1,22.5*
%
%ADD10C,0.0000*%
D10*
X001277Y001295D02*
X010777Y001295D01*
X010807Y001297D01*
X010837Y001302D01*
X010866Y001311D01*
X010893Y001324D01*
X010919Y001339D01*
X010943Y001358D01*
X010964Y001379D01*
X010983Y001403D01*
X010998Y001429D01*
X011011Y001456D01*
X011020Y001485D01*
X011025Y001515D01*
X011027Y001545D01*
X011027Y011045D01*
X011025Y011075D01*
X011020Y011105D01*
X011011Y011134D01*
X010998Y011161D01*
X010983Y011187D01*
X010964Y011211D01*
X010943Y011232D01*
X010919Y011251D01*
X010893Y011266D01*
X010866Y011279D01*
X010837Y011288D01*
X010807Y011293D01*
X010777Y011295D01*
X001277Y011295D01*
X001247Y011293D01*
X001217Y011288D01*
X001188Y011279D01*
X001161Y011266D01*
X001135Y011251D01*
X001111Y011232D01*
X001090Y011211D01*
X001071Y011187D01*
X001056Y011161D01*
X001043Y011134D01*
X001034Y011105D01*
X001029Y011075D01*
X001027Y011045D01*
X001027Y001545D01*
X001029Y001515D01*
X001034Y001485D01*
X001043Y001456D01*
X001056Y001429D01*
X001071Y001403D01*
X001090Y001379D01*
X001111Y001358D01*
X001135Y001339D01*
X001161Y001324D01*
X001188Y001311D01*
X001217Y001302D01*
X001247Y001297D01*
X001277Y001295D01*
X004967Y002455D02*
X004967Y003465D01*
X004969Y003529D01*
X004975Y003593D01*
X004984Y003656D01*
X004998Y003719D01*
X005015Y003780D01*
X005036Y003841D01*
X005060Y003900D01*
X005088Y003958D01*
X005120Y004013D01*
X005155Y004067D01*
X005193Y004119D01*
X005234Y004168D01*
X005277Y004215D01*
X005324Y004258D01*
X005373Y004299D01*
X005425Y004337D01*
X005479Y004372D01*
X005534Y004404D01*
X005592Y004432D01*
X005651Y004456D01*
X005712Y004477D01*
X005773Y004494D01*
X005836Y004508D01*
X005899Y004517D01*
X005963Y004523D01*
X006027Y004525D01*
X006327Y005215D02*
X006329Y005243D01*
X006335Y005270D01*
X006344Y005296D01*
X006357Y005321D01*
X006374Y005344D01*
X006393Y005364D01*
X006415Y005381D01*
X006439Y005395D01*
X006465Y005405D01*
X006492Y005412D01*
X006520Y005415D01*
X006548Y005414D01*
X006575Y005409D01*
X006602Y005400D01*
X006627Y005388D01*
X006650Y005373D01*
X006671Y005354D01*
X006689Y005333D01*
X006704Y005309D01*
X006715Y005283D01*
X006723Y005257D01*
X006727Y005229D01*
X006727Y005201D01*
X006723Y005173D01*
X006715Y005147D01*
X006704Y005121D01*
X006689Y005097D01*
X006671Y005076D01*
X006650Y005057D01*
X006627Y005042D01*
X006602Y005030D01*
X006575Y005021D01*
X006548Y005016D01*
X006520Y005015D01*
X006492Y005018D01*
X006465Y005025D01*
X006439Y005035D01*
X006415Y005049D01*
X006393Y005066D01*
X006374Y005086D01*
X006357Y005109D01*
X006344Y005134D01*
X006335Y005160D01*
X006329Y005187D01*
X006327Y005215D01*
X006327Y006015D02*
X006329Y006043D01*
X006335Y006070D01*
X006344Y006096D01*
X006357Y006121D01*
X006374Y006144D01*
X006393Y006164D01*
X006415Y006181D01*
X006439Y006195D01*
X006465Y006205D01*
X006492Y006212D01*
X006520Y006215D01*
X006548Y006214D01*
X006575Y006209D01*
X006602Y006200D01*
X006627Y006188D01*
X006650Y006173D01*
X006671Y006154D01*
X006689Y006133D01*
X006704Y006109D01*
X006715Y006083D01*
X006723Y006057D01*
X006727Y006029D01*
X006727Y006001D01*
X006723Y005973D01*
X006715Y005947D01*
X006704Y005921D01*
X006689Y005897D01*
X006671Y005876D01*
X006650Y005857D01*
X006627Y005842D01*
X006602Y005830D01*
X006575Y005821D01*
X006548Y005816D01*
X006520Y005815D01*
X006492Y005818D01*
X006465Y005825D01*
X006439Y005835D01*
X006415Y005849D01*
X006393Y005866D01*
X006374Y005886D01*
X006357Y005909D01*
X006344Y005934D01*
X006335Y005960D01*
X006329Y005987D01*
X006327Y006015D01*
X008127Y006395D02*
X008127Y009895D01*
X008927Y009895D01*
X008927Y009370D01*
X009807Y009370D01*
X009807Y008420D01*
X008927Y008420D01*
X008927Y007870D01*
X009807Y007870D01*
X009807Y006920D01*
X008927Y006920D01*
X008927Y006395D01*
X008127Y006395D01*
X008327Y005615D02*
X008329Y005643D01*
X008335Y005670D01*
X008344Y005696D01*
X008357Y005721D01*
X008374Y005744D01*
X008393Y005764D01*
X008415Y005781D01*
X008439Y005795D01*
X008465Y005805D01*
X008492Y005812D01*
X008520Y005815D01*
X008548Y005814D01*
X008575Y005809D01*
X008602Y005800D01*
X008627Y005788D01*
X008650Y005773D01*
X008671Y005754D01*
X008689Y005733D01*
X008704Y005709D01*
X008715Y005683D01*
X008723Y005657D01*
X008727Y005629D01*
X008727Y005601D01*
X008723Y005573D01*
X008715Y005547D01*
X008704Y005521D01*
X008689Y005497D01*
X008671Y005476D01*
X008650Y005457D01*
X008627Y005442D01*
X008602Y005430D01*
X008575Y005421D01*
X008548Y005416D01*
X008520Y005415D01*
X008492Y005418D01*
X008465Y005425D01*
X008439Y005435D01*
X008415Y005449D01*
X008393Y005466D01*
X008374Y005486D01*
X008357Y005509D01*
X008344Y005534D01*
X008335Y005560D01*
X008329Y005587D01*
X008327Y005615D01*
X007087Y003465D02*
X007087Y002455D01*
X007085Y002442D01*
X007080Y002430D01*
X007072Y002420D01*
X007062Y002412D01*
X007050Y002407D01*
X007037Y002405D01*
X005017Y002405D01*
X005004Y002407D01*
X004992Y002412D01*
X004982Y002420D01*
X004974Y002430D01*
X004969Y002442D01*
X004967Y002455D01*
X006027Y004525D02*
X006091Y004523D01*
X006155Y004517D01*
X006218Y004508D01*
X006281Y004494D01*
X006342Y004477D01*
X006403Y004456D01*
X006462Y004432D01*
X006520Y004404D01*
X006575Y004372D01*
X006629Y004337D01*
X006681Y004299D01*
X006730Y004258D01*
X006777Y004215D01*
X006820Y004168D01*
X006861Y004119D01*
X006899Y004067D01*
X006934Y004013D01*
X006966Y003958D01*
X006994Y003900D01*
X007018Y003841D01*
X007039Y003780D01*
X007056Y003719D01*
X007070Y003656D01*
X007079Y003593D01*
X007085Y003529D01*
X007087Y003465D01*
X003927Y006745D02*
X003927Y009545D01*
X003127Y009545D01*
X003127Y009370D01*
X002247Y009370D01*
X002247Y008420D01*
X003127Y008420D01*
X003127Y007870D01*
X002247Y007870D01*
X002247Y006920D01*
X003127Y006920D01*
X003127Y006745D01*
X003927Y006745D01*
X003324Y005615D02*
X003326Y005643D01*
X003332Y005671D01*
X003342Y005698D01*
X003355Y005723D01*
X003371Y005745D01*
X003391Y005766D01*
X003413Y005783D01*
X003438Y005797D01*
X003464Y005808D01*
X003492Y005815D01*
X003520Y005818D01*
X003548Y005817D01*
X003576Y005812D01*
X003603Y005803D01*
X003628Y005791D01*
X003652Y005775D01*
X003673Y005756D01*
X003691Y005734D01*
X003706Y005710D01*
X003718Y005684D01*
X003726Y005657D01*
X003730Y005629D01*
X003730Y005601D01*
X003726Y005573D01*
X003718Y005546D01*
X003706Y005520D01*
X003691Y005496D01*
X003673Y005474D01*
X003652Y005455D01*
X003629Y005439D01*
X003603Y005427D01*
X003576Y005418D01*
X003548Y005413D01*
X003520Y005412D01*
X003492Y005415D01*
X003464Y005422D01*
X003438Y005433D01*
X003413Y005447D01*
X003391Y005464D01*
X003371Y005485D01*
X003355Y005507D01*
X003342Y005532D01*
X003332Y005559D01*
X003326Y005587D01*
X003324Y005615D01*
M02*
