G75*
%MOIN*%
%OFA0B0*%
%FSLAX24Y24*%
%IPPOS*%
%LPD*%
%AMOC8*
5,1,8,0,0,1.08239X$1,22.5*
%
%ADD10C,0.0278*%
%ADD11C,0.0300*%
%ADD12C,0.0080*%
%ADD13C,0.0500*%
D10*
X002540Y003037D03*
X002835Y003037D03*
X003131Y003037D03*
X003131Y003332D03*
X003131Y003628D03*
X002835Y003628D03*
X002540Y003628D03*
X002540Y003332D03*
X002835Y003332D03*
D11*
X002077Y002400D03*
X001577Y002239D03*
X001579Y001864D03*
X001204Y001645D03*
X001610Y002707D03*
X001579Y003114D03*
X001687Y003520D03*
X001567Y004520D03*
X001642Y005082D03*
X001985Y004970D03*
X002142Y005298D03*
X002704Y005450D03*
X002707Y005005D03*
X002702Y004645D03*
X003184Y004810D03*
X003577Y004520D03*
X003937Y004542D03*
X004579Y004489D03*
X003992Y003800D03*
X004048Y003444D03*
X004048Y003084D03*
X004127Y001989D03*
X004487Y001980D03*
X004947Y002020D03*
X006148Y001832D03*
X007342Y002385D03*
X007557Y002675D03*
X007529Y003035D03*
X008642Y002770D03*
X009517Y002770D03*
X009517Y003645D03*
X008642Y003645D03*
X008127Y004722D03*
X006673Y004551D03*
X005735Y004895D03*
X005360Y006270D03*
X004923Y006364D03*
X004337Y006372D03*
X004204Y006895D03*
X004204Y007832D03*
X005110Y007957D03*
X005127Y008715D03*
X005485Y009520D03*
X006235Y008450D03*
X006735Y007665D03*
X006517Y007332D03*
X007423Y006957D03*
X007017Y006145D03*
X009142Y008145D03*
X009267Y007520D03*
X010392Y007520D03*
X010392Y008645D03*
X009298Y006395D03*
X010017Y005645D03*
X010392Y005395D03*
X010329Y006114D03*
X007329Y009502D03*
X006048Y010945D03*
X004048Y009145D03*
X002637Y010082D03*
X002110Y009114D03*
X002298Y008707D03*
X002392Y008145D03*
X001704Y008895D03*
X001548Y007301D03*
X001552Y006330D03*
X001917Y006334D03*
X007997Y001832D03*
X009297Y001645D03*
X009657Y001645D03*
D12*
X001011Y001536D02*
X001008Y001539D01*
X001007Y001543D01*
X001007Y001545D01*
X001007Y011045D01*
X001007Y011047D01*
X001008Y011050D01*
X001011Y011053D01*
X001015Y011055D01*
X001017Y011055D01*
X005823Y011055D01*
X005798Y010995D01*
X005798Y010895D01*
X005836Y010803D01*
X005906Y010733D01*
X005998Y010695D01*
X006098Y010695D01*
X006190Y010733D01*
X006260Y010803D01*
X006298Y010895D01*
X006298Y010995D01*
X006273Y011055D01*
X007767Y011055D01*
X007767Y010123D01*
X007706Y010098D01*
X007638Y010031D01*
X007602Y009943D01*
X007602Y009410D01*
X007561Y009410D01*
X007579Y009453D01*
X007579Y009552D01*
X007541Y009644D01*
X007471Y009714D01*
X007379Y009752D01*
X007279Y009752D01*
X007188Y009714D01*
X007117Y009644D01*
X007079Y009552D01*
X007079Y009453D01*
X007097Y009410D01*
X003932Y009410D01*
X003932Y009593D01*
X003895Y009681D01*
X003828Y009748D01*
X003739Y009785D01*
X002619Y009785D01*
X002531Y009748D01*
X002463Y009681D01*
X002427Y009593D01*
X002427Y009410D01*
X001334Y009410D01*
X001252Y009328D01*
X001252Y006587D01*
X001334Y006505D01*
X001373Y006505D01*
X001340Y006471D01*
X001302Y006380D01*
X001302Y006280D01*
X001340Y006188D01*
X001410Y006118D01*
X001502Y006080D01*
X001601Y006080D01*
X001693Y006118D01*
X001736Y006161D01*
X001775Y006122D01*
X001867Y006084D01*
X001966Y006084D01*
X002058Y006122D01*
X002129Y006192D01*
X002167Y006284D01*
X002167Y006297D01*
X002209Y006255D01*
X004115Y006255D01*
X004125Y006231D01*
X004195Y006160D01*
X004287Y006122D01*
X004386Y006122D01*
X004478Y006160D01*
X004549Y006231D01*
X004587Y006323D01*
X004587Y006422D01*
X004552Y006505D01*
X004711Y006505D01*
X004673Y006413D01*
X004673Y006314D01*
X004711Y006222D01*
X004781Y006152D01*
X004873Y006114D01*
X004973Y006114D01*
X005065Y006152D01*
X005135Y006222D01*
X005173Y006314D01*
X005173Y006413D01*
X005135Y006505D01*
X007602Y006505D01*
X007602Y006347D01*
X007638Y006259D01*
X007706Y006191D01*
X007794Y006155D01*
X008914Y006155D01*
X009003Y006191D01*
X009070Y006259D01*
X009107Y006347D01*
X009107Y007715D01*
X009142Y007715D01*
X009415Y007715D01*
X009461Y007727D01*
X009502Y007751D01*
X009536Y007784D01*
X009559Y007825D01*
X009572Y007871D01*
X009572Y008145D01*
X009572Y008418D01*
X009559Y008464D01*
X009536Y008505D01*
X009502Y008539D01*
X009461Y008563D01*
X009415Y008575D01*
X009142Y008575D01*
X009142Y008145D01*
X009572Y008145D01*
X009142Y008145D01*
X009142Y008145D01*
X010527Y008145D01*
X010527Y008223D02*
X009572Y008223D01*
X009572Y008302D02*
X010527Y008302D01*
X010527Y008380D02*
X009572Y008380D01*
X009561Y008459D02*
X010527Y008459D01*
X010527Y008537D02*
X009504Y008537D01*
X009392Y008395D02*
X008767Y008395D01*
X008727Y008520D01*
X008727Y009305D01*
X008457Y009305D01*
X008457Y006985D01*
X008727Y006985D01*
X008727Y007770D01*
X008767Y007895D01*
X009392Y007895D01*
X009392Y008395D01*
X009392Y008380D02*
X008457Y008380D01*
X008457Y008302D02*
X009392Y008302D01*
X009392Y008223D02*
X008457Y008223D01*
X008457Y008145D02*
X009392Y008145D01*
X009392Y008066D02*
X008457Y008066D01*
X008457Y007988D02*
X009392Y007988D01*
X009392Y007909D02*
X008457Y007909D01*
X008457Y007831D02*
X008746Y007831D01*
X008727Y007752D02*
X008457Y007752D01*
X008457Y007674D02*
X008727Y007674D01*
X008727Y007595D02*
X008457Y007595D01*
X008457Y007517D02*
X008727Y007517D01*
X008727Y007438D02*
X008457Y007438D01*
X008457Y007360D02*
X008727Y007360D01*
X008727Y007281D02*
X008457Y007281D01*
X008457Y007203D02*
X008727Y007203D01*
X008727Y007124D02*
X008457Y007124D01*
X008457Y007046D02*
X008727Y007046D01*
X009107Y007046D02*
X010527Y007046D01*
X010527Y007124D02*
X009107Y007124D01*
X009107Y007203D02*
X010527Y007203D01*
X010527Y007281D02*
X009107Y007281D01*
X009107Y007360D02*
X010527Y007360D01*
X010527Y007438D02*
X009107Y007438D01*
X009107Y007517D02*
X010527Y007517D01*
X010527Y007595D02*
X009107Y007595D01*
X009107Y007614D02*
X009107Y008739D01*
X009704Y008739D01*
X009704Y007614D01*
X009107Y007614D01*
X009107Y007674D02*
X009704Y007674D01*
X009704Y007752D02*
X009107Y007752D01*
X009142Y007752D02*
X009142Y007752D01*
X009142Y007715D02*
X009142Y008145D01*
X009142Y008145D01*
X009142Y008575D01*
X009107Y008575D01*
X009107Y009273D01*
X010527Y009276D01*
X010527Y005609D01*
X010441Y005645D01*
X010342Y005645D01*
X010267Y005614D01*
X010267Y005695D01*
X010229Y005786D01*
X010158Y005857D01*
X010066Y005895D01*
X009967Y005895D01*
X009875Y005857D01*
X009805Y005786D01*
X009767Y005695D01*
X009767Y005595D01*
X009805Y005503D01*
X009875Y005433D01*
X009967Y005395D01*
X010066Y005395D01*
X010142Y005426D01*
X010142Y005345D01*
X010180Y005253D01*
X010250Y005183D01*
X010342Y005145D01*
X010441Y005145D01*
X010527Y005180D01*
X010527Y001545D01*
X010526Y001543D01*
X010525Y001539D01*
X010522Y001536D01*
X010519Y001535D01*
X010517Y001535D01*
X009882Y001535D01*
X009907Y001595D01*
X009907Y001695D01*
X009869Y001786D01*
X010527Y001786D01*
X010527Y001708D02*
X009901Y001708D01*
X009907Y001629D02*
X010527Y001629D01*
X010527Y001551D02*
X009888Y001551D01*
X009869Y001786D02*
X009798Y001857D01*
X009706Y001895D01*
X009607Y001895D01*
X009515Y001857D01*
X009477Y001818D01*
X009438Y001857D01*
X009346Y001895D01*
X009247Y001895D01*
X009155Y001857D01*
X009085Y001786D01*
X008247Y001786D01*
X008247Y001783D02*
X008247Y001882D01*
X008209Y001974D01*
X008138Y002044D01*
X008046Y002082D01*
X007947Y002082D01*
X007855Y002044D01*
X007785Y001974D01*
X007747Y001882D01*
X007747Y001783D01*
X007785Y001691D01*
X007855Y001620D01*
X007947Y001582D01*
X008046Y001582D01*
X008138Y001620D01*
X008209Y001691D01*
X008247Y001783D01*
X008216Y001708D02*
X009052Y001708D01*
X009047Y001695D02*
X009047Y001595D01*
X009072Y001535D01*
X001017Y001535D01*
X001015Y001535D01*
X001011Y001536D01*
X001007Y001551D02*
X009065Y001551D01*
X009047Y001629D02*
X008147Y001629D01*
X008247Y001865D02*
X009174Y001865D01*
X009085Y001786D02*
X009047Y001695D01*
X009419Y001865D02*
X009534Y001865D01*
X009779Y001865D02*
X010527Y001865D01*
X010527Y001943D02*
X008221Y001943D01*
X008161Y002022D02*
X010527Y002022D01*
X010527Y002100D02*
X005184Y002100D01*
X005197Y002070D02*
X005159Y002161D01*
X005155Y002165D01*
X006729Y002165D01*
X006854Y002165D01*
X006989Y002242D01*
X007067Y002377D01*
X007067Y003671D01*
X006939Y004062D01*
X006939Y004062D01*
X006697Y004395D01*
X006697Y004395D01*
X006364Y004638D01*
X005973Y004765D01*
X005952Y004765D01*
X005985Y004845D01*
X005985Y004874D01*
X006017Y004842D01*
X006179Y004775D01*
X006354Y004775D01*
X006516Y004842D01*
X006640Y004966D01*
X006707Y005127D01*
X006707Y005302D01*
X006640Y005464D01*
X006516Y005588D01*
X006451Y005615D01*
X006516Y005642D01*
X006640Y005766D01*
X006707Y005927D01*
X006707Y006102D01*
X006640Y006264D01*
X006516Y006388D01*
X006354Y006455D01*
X006179Y006455D01*
X006017Y006388D01*
X005894Y006264D01*
X005827Y006102D01*
X005827Y005927D01*
X005894Y005766D01*
X006017Y005642D01*
X006083Y005615D01*
X006017Y005588D01*
X005894Y005464D01*
X005827Y005302D01*
X005827Y005128D01*
X005785Y005145D01*
X005686Y005145D01*
X005594Y005107D01*
X005523Y005036D01*
X005485Y004945D01*
X005485Y004845D01*
X005523Y004753D01*
X005524Y004753D01*
X005169Y004638D01*
X004836Y004395D01*
X004594Y004062D01*
X004467Y003671D01*
X004467Y002377D01*
X004544Y002242D01*
X004679Y002165D01*
X004738Y002165D01*
X004735Y002161D01*
X004697Y002070D01*
X004697Y001970D01*
X004735Y001878D01*
X004805Y001808D01*
X004897Y001770D01*
X004996Y001770D01*
X005088Y001808D01*
X005159Y001878D01*
X005197Y001970D01*
X005197Y002070D01*
X005197Y002022D02*
X005984Y002022D01*
X006006Y002044D02*
X005936Y001974D01*
X005898Y001882D01*
X005898Y001783D01*
X005936Y001691D01*
X006006Y001620D01*
X006098Y001582D01*
X006198Y001582D01*
X006290Y001620D01*
X006360Y001691D01*
X006398Y001783D01*
X006398Y001882D01*
X006360Y001974D01*
X006290Y002044D01*
X006198Y002082D01*
X006098Y002082D01*
X006006Y002044D01*
X005923Y001943D02*
X005186Y001943D01*
X005145Y001865D02*
X005898Y001865D01*
X005898Y001786D02*
X005036Y001786D01*
X004857Y001786D02*
X004278Y001786D01*
X004268Y001777D02*
X004339Y001847D01*
X004377Y001939D01*
X004377Y002038D01*
X004339Y002130D01*
X004268Y002200D01*
X004176Y002239D01*
X004077Y002239D01*
X003985Y002200D01*
X003915Y002130D01*
X003877Y002038D01*
X003877Y001939D01*
X003915Y001847D01*
X003985Y001777D01*
X004077Y001739D01*
X004176Y001739D01*
X004268Y001777D01*
X004346Y001865D02*
X004748Y001865D01*
X004708Y001943D02*
X004377Y001943D01*
X004377Y002022D02*
X004697Y002022D01*
X004709Y002100D02*
X004351Y002100D01*
X004290Y002179D02*
X004655Y002179D01*
X004544Y002242D02*
X004544Y002242D01*
X004544Y002242D01*
X004536Y002257D02*
X002288Y002257D01*
X002289Y002258D02*
X002218Y002188D01*
X002126Y002150D01*
X002027Y002150D01*
X001935Y002188D01*
X001865Y002258D01*
X001827Y002350D01*
X001827Y002450D01*
X001865Y002541D01*
X001935Y002612D01*
X002027Y002650D01*
X002126Y002650D01*
X002218Y002612D01*
X002289Y002541D01*
X002327Y002450D01*
X002327Y002350D01*
X002289Y002258D01*
X002321Y002336D02*
X004491Y002336D01*
X004467Y002414D02*
X002327Y002414D01*
X002309Y002493D02*
X004467Y002493D01*
X004467Y002571D02*
X002259Y002571D01*
X002126Y002650D02*
X004467Y002650D01*
X004467Y002728D02*
X001860Y002728D01*
X001860Y002757D02*
X001860Y002658D01*
X001822Y002566D01*
X001752Y002495D01*
X001681Y002466D01*
X001718Y002450D01*
X001789Y002380D01*
X001827Y002288D01*
X001827Y002189D01*
X001789Y002097D01*
X001744Y002052D01*
X001791Y002005D01*
X001829Y001913D01*
X001829Y001814D01*
X001791Y001722D01*
X001721Y001652D01*
X001629Y001614D01*
X001529Y001614D01*
X001438Y001652D01*
X001367Y001722D01*
X001329Y001814D01*
X001329Y001913D01*
X001367Y002005D01*
X001412Y002050D01*
X001365Y002097D01*
X001327Y002189D01*
X001327Y002288D01*
X001365Y002380D01*
X001435Y002450D01*
X001506Y002480D01*
X001469Y002495D01*
X001398Y002566D01*
X001360Y002658D01*
X001360Y002757D01*
X001398Y002849D01*
X001447Y002898D01*
X001438Y002902D01*
X001367Y002972D01*
X001329Y003064D01*
X001329Y003163D01*
X001367Y003255D01*
X001438Y003325D01*
X001501Y003352D01*
X001475Y003378D01*
X001437Y003470D01*
X001437Y003570D01*
X001475Y003661D01*
X001545Y003732D01*
X001637Y003770D01*
X001736Y003770D01*
X001828Y003732D01*
X001899Y003661D01*
X001937Y003570D01*
X001937Y003470D01*
X001899Y003378D01*
X001828Y003308D01*
X001765Y003282D01*
X001791Y003255D01*
X001829Y003163D01*
X001829Y003064D01*
X001791Y002972D01*
X001742Y002923D01*
X001752Y002919D01*
X001822Y002849D01*
X001860Y002757D01*
X001840Y002807D02*
X002382Y002807D01*
X002362Y002820D02*
X002408Y002790D01*
X002459Y002769D01*
X002513Y002758D01*
X002540Y002758D01*
X002540Y003037D01*
X002261Y003037D01*
X002261Y003010D01*
X002272Y002956D01*
X002293Y002905D01*
X002323Y002859D01*
X002362Y002820D01*
X002306Y002885D02*
X001786Y002885D01*
X001783Y002964D02*
X002270Y002964D01*
X002261Y003037D02*
X002540Y003037D01*
X002540Y003037D01*
X002540Y003037D01*
X002540Y003332D01*
X002540Y003332D01*
X002261Y003332D01*
X002261Y003305D01*
X002272Y003251D01*
X002293Y003200D01*
X002303Y003185D01*
X002293Y003169D01*
X002272Y003118D01*
X002261Y003064D01*
X002261Y003037D01*
X002261Y003042D02*
X001820Y003042D01*
X001829Y003121D02*
X002273Y003121D01*
X002293Y003199D02*
X001814Y003199D01*
X001768Y003278D02*
X002266Y003278D01*
X002261Y003332D02*
X002540Y003332D01*
X002540Y003332D01*
X002540Y003053D01*
X002540Y003037D01*
X002540Y003037D01*
X002540Y002758D01*
X002568Y002758D01*
X002622Y002769D01*
X002672Y002790D01*
X002688Y002800D01*
X002703Y002790D01*
X002754Y002769D01*
X002808Y002758D01*
X002835Y002758D01*
X002835Y003037D01*
X002556Y003037D01*
X002540Y003037D01*
X002835Y003037D01*
X002835Y003037D01*
X002835Y003037D01*
X002835Y003316D01*
X002835Y003332D01*
X002819Y003332D01*
X002540Y003332D01*
X002540Y003332D01*
X002540Y003611D01*
X002540Y003628D01*
X002540Y003907D01*
X002513Y003907D01*
X002459Y003896D01*
X002408Y003875D01*
X002362Y003844D01*
X002323Y003805D01*
X002293Y003760D01*
X002272Y003709D01*
X002261Y003655D01*
X002261Y003628D01*
X002540Y003628D01*
X002540Y003628D01*
X002540Y003907D01*
X002568Y003907D01*
X002622Y003896D01*
X002672Y003875D01*
X002688Y003865D01*
X002703Y003875D01*
X002754Y003896D01*
X002808Y003907D01*
X002835Y003907D01*
X002835Y003628D01*
X002835Y003628D01*
X002835Y003628D01*
X002540Y003628D01*
X002540Y003628D01*
X002540Y003628D01*
X002261Y003628D01*
X002261Y003600D01*
X002272Y003546D01*
X002293Y003495D01*
X002303Y003480D01*
X002293Y003464D01*
X002272Y003414D01*
X002261Y003360D01*
X002261Y003332D01*
X002261Y003356D02*
X001877Y003356D01*
X001922Y003435D02*
X002281Y003435D01*
X002285Y003513D02*
X001937Y003513D01*
X001927Y003592D02*
X002263Y003592D01*
X002264Y003670D02*
X001890Y003670D01*
X001787Y003749D02*
X002288Y003749D01*
X002345Y003827D02*
X001007Y003827D01*
X001007Y003749D02*
X001586Y003749D01*
X001484Y003670D02*
X001007Y003670D01*
X001007Y003592D02*
X001446Y003592D01*
X001437Y003513D02*
X001007Y003513D01*
X001007Y003435D02*
X001451Y003435D01*
X001497Y003356D02*
X001007Y003356D01*
X001007Y003278D02*
X001390Y003278D01*
X001344Y003199D02*
X001007Y003199D01*
X001007Y003121D02*
X001329Y003121D01*
X001338Y003042D02*
X001007Y003042D01*
X001007Y002964D02*
X001375Y002964D01*
X001435Y002885D02*
X001007Y002885D01*
X001007Y002807D02*
X001381Y002807D01*
X001360Y002728D02*
X001007Y002728D01*
X001007Y002650D02*
X001364Y002650D01*
X001396Y002571D02*
X001007Y002571D01*
X001007Y002493D02*
X001475Y002493D01*
X001399Y002414D02*
X001007Y002414D01*
X001007Y002336D02*
X001346Y002336D01*
X001327Y002257D02*
X001007Y002257D01*
X001007Y002179D02*
X001331Y002179D01*
X001363Y002100D02*
X001007Y002100D01*
X001007Y002022D02*
X001384Y002022D01*
X001342Y001943D02*
X001007Y001943D01*
X001007Y001865D02*
X001329Y001865D01*
X001341Y001786D02*
X001007Y001786D01*
X001007Y001708D02*
X001381Y001708D01*
X001491Y001629D02*
X001007Y001629D01*
X001667Y001629D02*
X005997Y001629D01*
X005929Y001708D02*
X001777Y001708D01*
X001818Y001786D02*
X003975Y001786D01*
X003907Y001865D02*
X001829Y001865D01*
X001817Y001943D02*
X003877Y001943D01*
X003877Y002022D02*
X001774Y002022D01*
X001790Y002100D02*
X003902Y002100D01*
X003963Y002179D02*
X002196Y002179D01*
X001957Y002179D02*
X001823Y002179D01*
X001827Y002257D02*
X001866Y002257D01*
X001833Y002336D02*
X001807Y002336D01*
X001827Y002414D02*
X001754Y002414D01*
X001746Y002493D02*
X001845Y002493D01*
X001825Y002571D02*
X001895Y002571D01*
X001857Y002650D02*
X002027Y002650D01*
X002540Y002807D02*
X002540Y002807D01*
X002540Y002885D02*
X002540Y002885D01*
X002540Y002964D02*
X002540Y002964D01*
X002540Y003037D02*
X002540Y003037D01*
X002540Y003042D02*
X002540Y003042D01*
X002540Y003121D02*
X002540Y003121D01*
X002540Y003199D02*
X002540Y003199D01*
X002540Y003278D02*
X002540Y003278D01*
X002540Y003332D02*
X002835Y003332D01*
X002835Y003332D01*
X002835Y003332D01*
X002835Y003037D01*
X002835Y003037D01*
X002835Y002758D01*
X002863Y002758D01*
X002917Y002769D01*
X002968Y002790D01*
X002983Y002800D01*
X002999Y002790D01*
X003049Y002769D01*
X003103Y002758D01*
X003131Y002758D01*
X003158Y002758D01*
X003212Y002769D01*
X003263Y002790D01*
X003309Y002820D01*
X003347Y002859D01*
X003378Y002905D01*
X003399Y002956D01*
X003410Y003010D01*
X003410Y003037D01*
X003410Y003064D01*
X003399Y003118D01*
X003378Y003169D01*
X003368Y003185D01*
X003378Y003200D01*
X003399Y003251D01*
X003410Y003305D01*
X003410Y003332D01*
X003131Y003332D01*
X003131Y003332D01*
X003131Y003053D01*
X003131Y003037D01*
X003410Y003037D01*
X003131Y003037D01*
X003131Y003037D01*
X003131Y002758D01*
X003131Y003037D01*
X003131Y003037D01*
X003131Y003037D01*
X003131Y003332D01*
X003131Y003332D01*
X003410Y003332D01*
X003410Y003360D01*
X003399Y003414D01*
X003378Y003464D01*
X003368Y003480D01*
X003378Y003495D01*
X003399Y003546D01*
X003410Y003600D01*
X003410Y003628D01*
X003410Y003655D01*
X003399Y003709D01*
X003378Y003760D01*
X003347Y003805D01*
X003309Y003844D01*
X003263Y003875D01*
X003212Y003896D01*
X003158Y003907D01*
X003131Y003907D01*
X003131Y003628D01*
X003131Y003628D01*
X003410Y003628D01*
X003131Y003628D01*
X003131Y003628D01*
X003131Y003907D01*
X003103Y003907D01*
X003049Y003896D01*
X002999Y003875D01*
X002983Y003865D01*
X002968Y003875D01*
X002917Y003896D01*
X002863Y003907D01*
X002835Y003907D01*
X002835Y003628D01*
X002556Y003628D01*
X002540Y003628D01*
X002540Y003628D01*
X002540Y003332D01*
X002540Y003332D01*
X002540Y003356D02*
X002540Y003356D01*
X002540Y003435D02*
X002540Y003435D01*
X002540Y003513D02*
X002540Y003513D01*
X002540Y003592D02*
X002540Y003592D01*
X002540Y003670D02*
X002540Y003670D01*
X002540Y003749D02*
X002540Y003749D01*
X002540Y003827D02*
X002540Y003827D01*
X002540Y003906D02*
X002540Y003906D01*
X002508Y003906D02*
X001007Y003906D01*
X001007Y003984D02*
X003823Y003984D01*
X003850Y004012D02*
X003780Y003941D01*
X003742Y003850D01*
X003742Y003750D01*
X003780Y003658D01*
X003844Y003594D01*
X003836Y003585D01*
X003798Y003493D01*
X003798Y003394D01*
X003836Y003302D01*
X003874Y003264D01*
X003836Y003225D01*
X003798Y003133D01*
X003798Y003034D01*
X003836Y002942D01*
X003906Y002872D01*
X003998Y002834D01*
X004098Y002834D01*
X004190Y002872D01*
X004260Y002942D01*
X004298Y003034D01*
X004298Y003133D01*
X004260Y003225D01*
X004221Y003264D01*
X004260Y003302D01*
X004298Y003394D01*
X004298Y003493D01*
X004260Y003585D01*
X004195Y003650D01*
X004204Y003658D01*
X004242Y003750D01*
X004242Y003850D01*
X004204Y003941D01*
X004133Y004012D01*
X004041Y004050D01*
X003942Y004050D01*
X003850Y004012D01*
X003765Y003906D02*
X003162Y003906D01*
X003131Y003906D02*
X003131Y003906D01*
X003099Y003906D02*
X002867Y003906D01*
X002835Y003906D02*
X002835Y003906D01*
X002804Y003906D02*
X002572Y003906D01*
X002835Y003827D02*
X002835Y003827D01*
X002835Y003749D02*
X002835Y003749D01*
X002835Y003670D02*
X002835Y003670D01*
X002835Y003628D02*
X003114Y003628D01*
X003131Y003628D01*
X003131Y003628D01*
X003131Y003332D01*
X002835Y003332D01*
X002835Y003349D01*
X002835Y003628D01*
X002835Y003628D01*
X002835Y003628D01*
X002835Y003332D01*
X002835Y003332D01*
X002835Y003332D01*
X002852Y003332D01*
X003131Y003332D01*
X003131Y003332D01*
X003131Y003332D01*
X003131Y003611D01*
X003131Y003628D01*
X003131Y003628D01*
X002835Y003628D01*
X002835Y003592D02*
X002835Y003592D01*
X002835Y003513D02*
X002835Y003513D01*
X002835Y003435D02*
X002835Y003435D01*
X002835Y003356D02*
X002835Y003356D01*
X002835Y003278D02*
X002835Y003278D01*
X002835Y003199D02*
X002835Y003199D01*
X002835Y003121D02*
X002835Y003121D01*
X002835Y003042D02*
X002835Y003042D01*
X002835Y003037D02*
X002852Y003037D01*
X003131Y003037D01*
X002835Y003037D01*
X002835Y003037D01*
X002835Y002964D02*
X002835Y002964D01*
X002835Y002885D02*
X002835Y002885D01*
X002835Y002807D02*
X002835Y002807D01*
X003131Y002807D02*
X003131Y002807D01*
X003131Y002885D02*
X003131Y002885D01*
X003131Y002964D02*
X003131Y002964D01*
X003131Y003037D02*
X003131Y003037D01*
X003131Y003042D02*
X003131Y003042D01*
X003131Y003121D02*
X003131Y003121D01*
X003131Y003199D02*
X003131Y003199D01*
X003131Y003278D02*
X003131Y003278D01*
X003131Y003356D02*
X003131Y003356D01*
X003131Y003435D02*
X003131Y003435D01*
X003131Y003513D02*
X003131Y003513D01*
X003131Y003592D02*
X003131Y003592D01*
X003131Y003670D02*
X003131Y003670D01*
X003131Y003749D02*
X003131Y003749D01*
X003131Y003827D02*
X003131Y003827D01*
X003326Y003827D02*
X003742Y003827D01*
X003742Y003749D02*
X003383Y003749D01*
X003407Y003670D02*
X003775Y003670D01*
X003843Y003592D02*
X003408Y003592D01*
X003385Y003513D02*
X003806Y003513D01*
X003798Y003435D02*
X003390Y003435D01*
X003410Y003356D02*
X003813Y003356D01*
X003860Y003278D02*
X003404Y003278D01*
X003377Y003199D02*
X003825Y003199D01*
X003798Y003121D02*
X003398Y003121D01*
X003410Y003042D02*
X003798Y003042D01*
X003827Y002964D02*
X003401Y002964D01*
X003365Y002885D02*
X003893Y002885D01*
X004203Y002885D02*
X004467Y002885D01*
X004467Y002807D02*
X003288Y002807D01*
X004209Y003670D02*
X004467Y003670D01*
X004467Y003592D02*
X004253Y003592D01*
X004290Y003513D02*
X004467Y003513D01*
X004467Y003435D02*
X004298Y003435D01*
X004282Y003356D02*
X004467Y003356D01*
X004467Y003278D02*
X004236Y003278D01*
X004271Y003199D02*
X004467Y003199D01*
X004467Y003121D02*
X004298Y003121D01*
X004298Y003042D02*
X004467Y003042D01*
X004467Y002964D02*
X004269Y002964D01*
X004241Y003749D02*
X004492Y003749D01*
X004518Y003827D02*
X004242Y003827D01*
X004218Y003906D02*
X004543Y003906D01*
X004569Y003984D02*
X004161Y003984D01*
X004438Y004277D02*
X004529Y004239D01*
X004629Y004239D01*
X004721Y004277D01*
X004791Y004347D01*
X004829Y004439D01*
X004829Y004538D01*
X004791Y004630D01*
X004721Y004700D01*
X004629Y004739D01*
X004529Y004739D01*
X004438Y004700D01*
X004367Y004630D01*
X004329Y004538D01*
X004329Y004439D01*
X004367Y004347D01*
X004438Y004277D01*
X004416Y004298D02*
X004001Y004298D01*
X003986Y004292D02*
X004078Y004330D01*
X004149Y004401D01*
X004187Y004493D01*
X004187Y004592D01*
X004149Y004684D01*
X004078Y004754D01*
X003986Y004792D01*
X003887Y004792D01*
X003795Y004754D01*
X003745Y004705D01*
X003718Y004732D01*
X003626Y004770D01*
X003527Y004770D01*
X003435Y004732D01*
X003414Y004710D01*
X003434Y004760D01*
X003434Y004860D01*
X003396Y004951D01*
X003326Y005022D01*
X003234Y005060D01*
X003134Y005060D01*
X003043Y005022D01*
X002972Y004951D01*
X002934Y004860D01*
X002934Y004760D01*
X002972Y004668D01*
X003043Y004598D01*
X003134Y004560D01*
X003234Y004560D01*
X003326Y004598D01*
X003347Y004619D01*
X003327Y004570D01*
X003327Y004470D01*
X003365Y004378D01*
X003435Y004308D01*
X003527Y004270D01*
X003626Y004270D01*
X003718Y004308D01*
X003768Y004357D01*
X003795Y004330D01*
X003887Y004292D01*
X003986Y004292D01*
X003872Y004298D02*
X003695Y004298D01*
X003458Y004298D02*
X001685Y004298D01*
X001708Y004308D02*
X001616Y004270D01*
X001517Y004270D01*
X001425Y004308D01*
X001355Y004378D01*
X001317Y004470D01*
X001317Y004570D01*
X001355Y004661D01*
X001425Y004732D01*
X001517Y004770D01*
X001616Y004770D01*
X001708Y004732D01*
X001779Y004661D01*
X001817Y004570D01*
X001817Y004470D01*
X001779Y004378D01*
X001708Y004308D01*
X001777Y004377D02*
X003366Y004377D01*
X003333Y004455D02*
X002866Y004455D01*
X002843Y004433D02*
X002914Y004503D01*
X002952Y004595D01*
X002952Y004695D01*
X002914Y004786D01*
X002878Y004822D01*
X002919Y004863D01*
X002957Y004955D01*
X002957Y005055D01*
X002919Y005146D01*
X002848Y005217D01*
X002822Y005228D01*
X002846Y005238D01*
X002916Y005308D01*
X002925Y005330D01*
X003016Y005240D01*
X003179Y005172D01*
X003355Y005172D01*
X003517Y005240D01*
X003642Y005364D01*
X003709Y005527D01*
X003709Y005703D01*
X003642Y005865D01*
X003517Y005990D01*
X003355Y006057D01*
X003179Y006057D01*
X003016Y005990D01*
X002892Y005865D01*
X002824Y005703D01*
X002824Y005671D01*
X002754Y005700D01*
X002654Y005700D01*
X002563Y005662D01*
X002492Y005591D01*
X002454Y005500D01*
X002454Y005400D01*
X002492Y005308D01*
X002563Y005238D01*
X002589Y005227D01*
X002565Y005217D01*
X002495Y005146D01*
X002457Y005055D01*
X002457Y004955D01*
X002495Y004863D01*
X002531Y004827D01*
X002490Y004786D01*
X002452Y004695D01*
X002452Y004595D01*
X002490Y004503D01*
X002560Y004433D01*
X002652Y004395D01*
X002751Y004395D01*
X002843Y004433D01*
X002926Y004534D02*
X003327Y004534D01*
X003340Y004612D02*
X003344Y004612D01*
X003434Y004769D02*
X003526Y004769D01*
X003628Y004769D02*
X003831Y004769D01*
X004042Y004769D02*
X005517Y004769D01*
X005485Y004848D02*
X003434Y004848D01*
X003407Y004926D02*
X005485Y004926D01*
X005510Y005005D02*
X003343Y005005D01*
X003518Y005240D02*
X005827Y005240D01*
X005827Y005162D02*
X002903Y005162D01*
X002945Y005083D02*
X005570Y005083D01*
X005833Y005319D02*
X003596Y005319D01*
X003656Y005397D02*
X005866Y005397D01*
X005905Y005476D02*
X003688Y005476D01*
X003709Y005554D02*
X005984Y005554D01*
X006039Y005633D02*
X003709Y005633D01*
X003706Y005711D02*
X005948Y005711D01*
X005884Y005790D02*
X003673Y005790D01*
X003639Y005868D02*
X005851Y005868D01*
X005827Y005947D02*
X003560Y005947D01*
X003432Y006025D02*
X005827Y006025D01*
X005827Y006104D02*
X002015Y006104D01*
X002119Y006182D02*
X004173Y006182D01*
X004087Y006395D02*
X002267Y006395D01*
X002267Y006645D01*
X001392Y006645D01*
X001392Y008391D01*
X001407Y008353D01*
X001814Y007947D01*
X001912Y007848D01*
X002041Y007795D01*
X002044Y007795D01*
X002084Y007755D01*
X002427Y007755D01*
X002427Y006697D01*
X002463Y006609D01*
X002531Y006541D01*
X002619Y006505D01*
X003739Y006505D01*
X003828Y006541D01*
X003895Y006609D01*
X003932Y006697D01*
X003932Y009270D01*
X007237Y009270D01*
X007279Y009252D01*
X007379Y009252D01*
X007421Y009270D01*
X007602Y009270D01*
X007602Y006645D01*
X004142Y006645D01*
X004142Y006531D01*
X004125Y006514D01*
X004087Y006422D01*
X004087Y006395D01*
X004087Y006418D02*
X002267Y006418D01*
X002267Y006496D02*
X004117Y006496D01*
X004142Y006575D02*
X003861Y006575D01*
X003914Y006653D02*
X007602Y006653D01*
X007602Y006732D02*
X003932Y006732D01*
X003932Y006810D02*
X007602Y006810D01*
X007602Y006889D02*
X003932Y006889D01*
X003932Y006967D02*
X007602Y006967D01*
X007602Y007046D02*
X003932Y007046D01*
X003932Y007124D02*
X007602Y007124D01*
X007602Y007203D02*
X003932Y007203D01*
X003932Y007281D02*
X007602Y007281D01*
X007602Y007360D02*
X003932Y007360D01*
X003932Y007438D02*
X006629Y007438D01*
X006594Y007453D02*
X006686Y007415D01*
X006785Y007415D01*
X006877Y007453D01*
X006947Y007523D01*
X006985Y007615D01*
X006985Y007715D01*
X006947Y007806D01*
X006877Y007877D01*
X006785Y007915D01*
X006686Y007915D01*
X006594Y007877D01*
X006523Y007806D01*
X006485Y007715D01*
X006485Y007615D01*
X006523Y007523D01*
X006594Y007453D01*
X006530Y007517D02*
X003932Y007517D01*
X003932Y007595D02*
X006494Y007595D01*
X006485Y007674D02*
X003932Y007674D01*
X003932Y007752D02*
X004962Y007752D01*
X004969Y007745D02*
X005061Y007707D01*
X005160Y007707D01*
X005252Y007745D01*
X005322Y007816D01*
X005360Y007908D01*
X005360Y008007D01*
X005322Y008099D01*
X005252Y008169D01*
X005160Y008207D01*
X005061Y008207D01*
X004969Y008169D01*
X004898Y008099D01*
X004860Y008007D01*
X004860Y007908D01*
X004898Y007816D01*
X004969Y007745D01*
X004892Y007831D02*
X003932Y007831D01*
X003932Y007909D02*
X004860Y007909D01*
X004860Y007988D02*
X003932Y007988D01*
X003932Y008066D02*
X004885Y008066D01*
X004944Y008145D02*
X003932Y008145D01*
X003932Y008223D02*
X007602Y008223D01*
X007602Y008145D02*
X005276Y008145D01*
X005336Y008066D02*
X007602Y008066D01*
X007602Y007988D02*
X005360Y007988D01*
X005360Y007909D02*
X006672Y007909D01*
X006798Y007909D02*
X007602Y007909D01*
X007602Y007831D02*
X006923Y007831D01*
X006970Y007752D02*
X007602Y007752D01*
X007602Y007674D02*
X006985Y007674D01*
X006977Y007595D02*
X007602Y007595D01*
X007602Y007517D02*
X006941Y007517D01*
X006842Y007438D02*
X007602Y007438D01*
X007602Y008302D02*
X003932Y008302D01*
X003932Y008380D02*
X007602Y008380D01*
X007602Y008459D02*
X003932Y008459D01*
X003932Y008537D02*
X004951Y008537D01*
X004985Y008503D02*
X005077Y008465D01*
X005176Y008465D01*
X005268Y008503D01*
X005339Y008573D01*
X005377Y008665D01*
X005377Y008765D01*
X005339Y008856D01*
X005268Y008927D01*
X005176Y008965D01*
X005077Y008965D01*
X004985Y008927D01*
X004915Y008856D01*
X004877Y008765D01*
X004877Y008665D01*
X004915Y008573D01*
X004985Y008503D01*
X004897Y008616D02*
X003932Y008616D01*
X003932Y008694D02*
X004877Y008694D01*
X004880Y008773D02*
X003932Y008773D01*
X003932Y008851D02*
X004913Y008851D01*
X004992Y008930D02*
X003932Y008930D01*
X003932Y009008D02*
X007602Y009008D01*
X007602Y008930D02*
X005261Y008930D01*
X005341Y008851D02*
X007602Y008851D01*
X007602Y008773D02*
X005373Y008773D01*
X005377Y008694D02*
X007602Y008694D01*
X007602Y008616D02*
X005356Y008616D01*
X005303Y008537D02*
X007602Y008537D01*
X007602Y009087D02*
X003932Y009087D01*
X003932Y009165D02*
X007602Y009165D01*
X007602Y009244D02*
X003932Y009244D01*
X003932Y009479D02*
X007079Y009479D01*
X007082Y009558D02*
X003932Y009558D01*
X003914Y009636D02*
X007114Y009636D01*
X007189Y009715D02*
X003861Y009715D01*
X003077Y009305D02*
X003077Y006985D01*
X002807Y006985D01*
X002807Y007770D01*
X002767Y007895D01*
X002142Y007895D01*
X002142Y008395D01*
X002767Y008395D01*
X002807Y008520D01*
X002807Y009305D01*
X003077Y009305D01*
X003077Y009244D02*
X002807Y009244D01*
X002807Y009165D02*
X003077Y009165D01*
X003077Y009087D02*
X002807Y009087D01*
X002807Y009008D02*
X003077Y009008D01*
X003077Y008930D02*
X002807Y008930D01*
X002807Y008851D02*
X003077Y008851D01*
X003077Y008773D02*
X002807Y008773D01*
X002807Y008694D02*
X003077Y008694D01*
X003077Y008616D02*
X002807Y008616D01*
X002807Y008537D02*
X003077Y008537D01*
X003077Y008459D02*
X002787Y008459D01*
X003077Y008380D02*
X002142Y008380D01*
X002142Y008302D02*
X003077Y008302D01*
X003077Y008223D02*
X002142Y008223D01*
X002142Y008145D02*
X003077Y008145D01*
X003077Y008066D02*
X002142Y008066D01*
X002142Y007988D02*
X003077Y007988D01*
X003077Y007909D02*
X002142Y007909D01*
X001954Y007831D02*
X001392Y007831D01*
X001392Y007909D02*
X001851Y007909D01*
X001772Y007988D02*
X001392Y007988D01*
X001392Y008066D02*
X001694Y008066D01*
X001615Y008145D02*
X001392Y008145D01*
X001392Y008223D02*
X001537Y008223D01*
X001458Y008302D02*
X001392Y008302D01*
X001392Y008380D02*
X001396Y008380D01*
X001252Y008380D02*
X001007Y008380D01*
X001007Y008302D02*
X001252Y008302D01*
X001252Y008223D02*
X001007Y008223D01*
X001007Y008145D02*
X001252Y008145D01*
X001252Y008066D02*
X001007Y008066D01*
X001007Y007988D02*
X001252Y007988D01*
X001252Y007909D02*
X001007Y007909D01*
X001007Y007831D02*
X001252Y007831D01*
X001252Y007752D02*
X001007Y007752D01*
X001007Y007674D02*
X001252Y007674D01*
X001252Y007595D02*
X001007Y007595D01*
X001007Y007517D02*
X001252Y007517D01*
X001252Y007438D02*
X001007Y007438D01*
X001007Y007360D02*
X001252Y007360D01*
X001252Y007281D02*
X001007Y007281D01*
X001007Y007203D02*
X001252Y007203D01*
X001252Y007124D02*
X001007Y007124D01*
X001007Y007046D02*
X001252Y007046D01*
X001252Y006967D02*
X001007Y006967D01*
X001007Y006889D02*
X001252Y006889D01*
X001252Y006810D02*
X001007Y006810D01*
X001007Y006732D02*
X001252Y006732D01*
X001252Y006653D02*
X001007Y006653D01*
X001007Y006575D02*
X001264Y006575D01*
X001365Y006496D02*
X001007Y006496D01*
X001007Y006418D02*
X001318Y006418D01*
X001302Y006339D02*
X001007Y006339D01*
X001007Y006261D02*
X001310Y006261D01*
X001346Y006182D02*
X001007Y006182D01*
X001007Y006104D02*
X001444Y006104D01*
X001659Y006104D02*
X001818Y006104D01*
X002157Y006261D02*
X002203Y006261D01*
X002267Y006575D02*
X002497Y006575D01*
X002445Y006653D02*
X001392Y006653D01*
X001392Y006732D02*
X002427Y006732D01*
X002427Y006810D02*
X001392Y006810D01*
X001392Y006889D02*
X002427Y006889D01*
X002427Y006967D02*
X001392Y006967D01*
X001392Y007046D02*
X002427Y007046D01*
X002427Y007124D02*
X001392Y007124D01*
X001392Y007203D02*
X002427Y007203D01*
X002427Y007281D02*
X001392Y007281D01*
X001392Y007360D02*
X002427Y007360D01*
X002427Y007438D02*
X001392Y007438D01*
X001392Y007517D02*
X002427Y007517D01*
X002427Y007595D02*
X001392Y007595D01*
X001392Y007674D02*
X002427Y007674D01*
X002427Y007752D02*
X001392Y007752D01*
X001252Y008459D02*
X001007Y008459D01*
X001007Y008537D02*
X001252Y008537D01*
X001252Y008616D02*
X001007Y008616D01*
X001007Y008694D02*
X001252Y008694D01*
X001252Y008773D02*
X001007Y008773D01*
X001007Y008851D02*
X001252Y008851D01*
X001252Y008930D02*
X001007Y008930D01*
X001007Y009008D02*
X001252Y009008D01*
X001252Y009087D02*
X001007Y009087D01*
X001007Y009165D02*
X001252Y009165D01*
X001252Y009244D02*
X001007Y009244D01*
X001007Y009322D02*
X001252Y009322D01*
X001325Y009401D02*
X001007Y009401D01*
X001007Y009479D02*
X002427Y009479D01*
X002427Y009558D02*
X001007Y009558D01*
X001007Y009636D02*
X002445Y009636D01*
X002497Y009715D02*
X001007Y009715D01*
X001007Y009793D02*
X007602Y009793D01*
X007602Y009715D02*
X007469Y009715D01*
X007544Y009636D02*
X007602Y009636D01*
X007602Y009558D02*
X007577Y009558D01*
X007579Y009479D02*
X007602Y009479D01*
X007602Y009872D02*
X001007Y009872D01*
X001007Y009950D02*
X007605Y009950D01*
X007637Y010029D02*
X001007Y010029D01*
X001007Y010107D02*
X007728Y010107D01*
X007767Y010186D02*
X001007Y010186D01*
X001007Y010264D02*
X007767Y010264D01*
X007767Y010343D02*
X001007Y010343D01*
X001007Y010421D02*
X007767Y010421D01*
X007767Y010500D02*
X001007Y010500D01*
X001007Y010578D02*
X007767Y010578D01*
X007767Y010657D02*
X001007Y010657D01*
X001007Y010735D02*
X005904Y010735D01*
X005832Y010814D02*
X001007Y010814D01*
X001007Y010892D02*
X005799Y010892D01*
X005798Y010971D02*
X001007Y010971D01*
X001008Y011049D02*
X005821Y011049D01*
X006192Y010735D02*
X007767Y010735D01*
X007767Y010814D02*
X006264Y010814D01*
X006297Y010892D02*
X007767Y010892D01*
X007767Y010971D02*
X006298Y010971D01*
X006275Y011049D02*
X007767Y011049D01*
X008457Y009244D02*
X008727Y009244D01*
X008727Y009165D02*
X008457Y009165D01*
X008457Y009087D02*
X008727Y009087D01*
X008727Y009008D02*
X008457Y009008D01*
X008457Y008930D02*
X008727Y008930D01*
X008727Y008851D02*
X008457Y008851D01*
X008457Y008773D02*
X008727Y008773D01*
X008727Y008694D02*
X008457Y008694D01*
X008457Y008616D02*
X008727Y008616D01*
X008727Y008537D02*
X008457Y008537D01*
X008457Y008459D02*
X008746Y008459D01*
X009107Y008459D02*
X009704Y008459D01*
X009704Y008537D02*
X009107Y008537D01*
X009142Y008537D02*
X009142Y008537D01*
X009142Y008459D02*
X009142Y008459D01*
X009142Y008380D02*
X009142Y008380D01*
X009107Y008380D02*
X009704Y008380D01*
X009704Y008302D02*
X009107Y008302D01*
X009142Y008302D02*
X009142Y008302D01*
X009142Y008223D02*
X009142Y008223D01*
X009107Y008223D02*
X009704Y008223D01*
X009704Y008145D02*
X009107Y008145D01*
X009142Y008145D02*
X009142Y008145D01*
X009142Y007715D01*
X009107Y007674D02*
X010527Y007674D01*
X010527Y007752D02*
X009504Y007752D01*
X009561Y007831D02*
X010527Y007831D01*
X010527Y007909D02*
X009572Y007909D01*
X009572Y007988D02*
X010527Y007988D01*
X010527Y008066D02*
X009572Y008066D01*
X009704Y008066D02*
X009107Y008066D01*
X009142Y008066D02*
X009142Y008066D01*
X009142Y007988D02*
X009142Y007988D01*
X009107Y007988D02*
X009704Y007988D01*
X009704Y007909D02*
X009107Y007909D01*
X009142Y007909D02*
X009142Y007909D01*
X009142Y007831D02*
X009142Y007831D01*
X009107Y007831D02*
X009704Y007831D01*
X009704Y008616D02*
X009107Y008616D01*
X010527Y008616D01*
X010527Y008694D02*
X009107Y008694D01*
X009704Y008694D01*
X009107Y008773D02*
X010527Y008773D01*
X010527Y008851D02*
X009107Y008851D01*
X009107Y008930D02*
X010527Y008930D01*
X010527Y009008D02*
X009107Y009008D01*
X009107Y009087D02*
X010527Y009087D01*
X010527Y009165D02*
X009107Y009165D01*
X009107Y009244D02*
X010527Y009244D01*
X010527Y006967D02*
X009107Y006967D01*
X009107Y006889D02*
X010527Y006889D01*
X010527Y006810D02*
X009107Y006810D01*
X009107Y006732D02*
X010527Y006732D01*
X010527Y006653D02*
X009107Y006653D01*
X009107Y006575D02*
X010527Y006575D01*
X010527Y006496D02*
X009107Y006496D01*
X009107Y006418D02*
X010527Y006418D01*
X010527Y006339D02*
X009103Y006339D01*
X009071Y006261D02*
X010527Y006261D01*
X010527Y006182D02*
X008981Y006182D01*
X008640Y005864D02*
X008516Y005988D01*
X008354Y006055D01*
X008179Y006055D01*
X008017Y005988D01*
X007894Y005864D01*
X007827Y005702D01*
X007827Y005527D01*
X007894Y005366D01*
X008017Y005242D01*
X008179Y005175D01*
X008354Y005175D01*
X008516Y005242D01*
X008640Y005366D01*
X008707Y005527D01*
X008707Y005702D01*
X008640Y005864D01*
X008635Y005868D02*
X009903Y005868D01*
X009808Y005790D02*
X008670Y005790D01*
X008703Y005711D02*
X009774Y005711D01*
X009767Y005633D02*
X008707Y005633D01*
X008707Y005554D02*
X009784Y005554D01*
X009832Y005476D02*
X008685Y005476D01*
X008653Y005397D02*
X009961Y005397D01*
X010072Y005397D02*
X010142Y005397D01*
X010153Y005319D02*
X008593Y005319D01*
X008512Y005240D02*
X010193Y005240D01*
X010301Y005162D02*
X006707Y005162D01*
X006707Y005240D02*
X008021Y005240D01*
X007940Y005319D02*
X006700Y005319D01*
X006667Y005397D02*
X007881Y005397D01*
X007848Y005476D02*
X006628Y005476D01*
X006549Y005554D02*
X007827Y005554D01*
X007827Y005633D02*
X006494Y005633D01*
X006585Y005711D02*
X007830Y005711D01*
X007863Y005790D02*
X006650Y005790D01*
X006682Y005868D02*
X007898Y005868D01*
X007976Y005947D02*
X006707Y005947D01*
X006707Y006025D02*
X008108Y006025D01*
X008425Y006025D02*
X010527Y006025D01*
X010527Y005947D02*
X008557Y005947D01*
X007728Y006182D02*
X006674Y006182D01*
X006706Y006104D02*
X010527Y006104D01*
X010527Y005868D02*
X010130Y005868D01*
X010225Y005790D02*
X010527Y005790D01*
X010527Y005711D02*
X010260Y005711D01*
X010267Y005633D02*
X010313Y005633D01*
X010470Y005633D02*
X010527Y005633D01*
X010527Y005162D02*
X010482Y005162D01*
X010527Y005083D02*
X006688Y005083D01*
X006656Y005005D02*
X010527Y005005D01*
X010527Y004926D02*
X008276Y004926D01*
X008268Y004934D02*
X008176Y004972D01*
X008077Y004972D01*
X007985Y004934D01*
X007915Y004864D01*
X007877Y004772D01*
X007877Y004673D01*
X007915Y004581D01*
X007985Y004510D01*
X008077Y004472D01*
X008176Y004472D01*
X008268Y004510D01*
X008339Y004581D01*
X008377Y004673D01*
X008377Y004772D01*
X008339Y004864D01*
X008268Y004934D01*
X008345Y004848D02*
X010527Y004848D01*
X010527Y004769D02*
X008377Y004769D01*
X008377Y004691D02*
X010527Y004691D01*
X010527Y004612D02*
X008352Y004612D01*
X008292Y004534D02*
X010527Y004534D01*
X010527Y004455D02*
X006615Y004455D01*
X006697Y004395D02*
X006697Y004395D01*
X006711Y004377D02*
X010527Y004377D01*
X010527Y004298D02*
X006768Y004298D01*
X006825Y004220D02*
X010527Y004220D01*
X010527Y004141D02*
X006882Y004141D01*
X006939Y004063D02*
X010527Y004063D01*
X010527Y003984D02*
X006965Y003984D01*
X006990Y003906D02*
X010527Y003906D01*
X010527Y003827D02*
X007016Y003827D01*
X007041Y003749D02*
X010527Y003749D01*
X010527Y003670D02*
X007067Y003670D01*
X007067Y003592D02*
X010527Y003592D01*
X010527Y003513D02*
X007067Y003513D01*
X007067Y003435D02*
X010527Y003435D01*
X010527Y003356D02*
X007067Y003356D01*
X007067Y003278D02*
X007463Y003278D01*
X007479Y003285D02*
X007388Y003247D01*
X007317Y003176D01*
X007279Y003085D01*
X007279Y002985D01*
X007317Y002893D01*
X007369Y002841D01*
X007345Y002816D01*
X007307Y002725D01*
X007307Y002635D01*
X007292Y002635D01*
X007200Y002597D01*
X007130Y002526D01*
X007092Y002435D01*
X007092Y002335D01*
X007130Y002243D01*
X007200Y002173D01*
X007292Y002135D01*
X007391Y002135D01*
X007483Y002173D01*
X007554Y002243D01*
X007592Y002335D01*
X007592Y002425D01*
X007606Y002425D01*
X007698Y002463D01*
X007769Y002533D01*
X007807Y002625D01*
X007807Y002725D01*
X007769Y002816D01*
X007716Y002869D01*
X007741Y002893D01*
X007779Y002985D01*
X007779Y003085D01*
X007741Y003176D01*
X007671Y003247D01*
X007579Y003285D01*
X007479Y003285D01*
X007596Y003278D02*
X010527Y003278D01*
X010527Y003199D02*
X007718Y003199D01*
X007764Y003121D02*
X010527Y003121D01*
X010527Y003042D02*
X007779Y003042D01*
X007770Y002964D02*
X010527Y002964D01*
X010527Y002885D02*
X007733Y002885D01*
X007773Y002807D02*
X010527Y002807D01*
X010527Y002728D02*
X007805Y002728D01*
X007807Y002650D02*
X010527Y002650D01*
X010527Y002571D02*
X007784Y002571D01*
X007728Y002493D02*
X010527Y002493D01*
X010527Y002414D02*
X007592Y002414D01*
X007592Y002336D02*
X010527Y002336D01*
X010527Y002257D02*
X007559Y002257D01*
X007489Y002179D02*
X010527Y002179D01*
X010526Y001543D02*
X010526Y001543D01*
X007846Y001629D02*
X006298Y001629D01*
X006367Y001708D02*
X007778Y001708D01*
X007747Y001786D02*
X006398Y001786D01*
X006398Y001865D02*
X007747Y001865D01*
X007772Y001943D02*
X006373Y001943D01*
X006312Y002022D02*
X007833Y002022D01*
X007194Y002179D02*
X006879Y002179D01*
X006989Y002242D02*
X006989Y002242D01*
X006997Y002257D02*
X007124Y002257D01*
X007092Y002336D02*
X007043Y002336D01*
X007067Y002414D02*
X007092Y002414D01*
X007067Y002493D02*
X007116Y002493D01*
X007067Y002571D02*
X007175Y002571D01*
X007067Y002650D02*
X007307Y002650D01*
X007308Y002728D02*
X007067Y002728D01*
X007067Y002807D02*
X007341Y002807D01*
X007325Y002885D02*
X007067Y002885D01*
X007067Y002964D02*
X007288Y002964D01*
X007279Y003042D02*
X007067Y003042D01*
X007067Y003121D02*
X007294Y003121D01*
X007340Y003199D02*
X007067Y003199D01*
X006507Y004534D02*
X007962Y004534D01*
X007902Y004612D02*
X006399Y004612D01*
X006364Y004638D02*
X006364Y004638D01*
X006200Y004691D02*
X007877Y004691D01*
X007877Y004769D02*
X005954Y004769D01*
X005985Y004848D02*
X006011Y004848D01*
X006522Y004848D02*
X007908Y004848D01*
X007977Y004926D02*
X006600Y004926D01*
X005333Y004691D02*
X004730Y004691D01*
X004799Y004612D02*
X005134Y004612D01*
X005169Y004638D02*
X005169Y004638D01*
X005026Y004534D02*
X004829Y004534D01*
X004829Y004455D02*
X004918Y004455D01*
X004836Y004395D02*
X004836Y004395D01*
X004836Y004395D01*
X004822Y004377D02*
X004803Y004377D01*
X004765Y004298D02*
X004742Y004298D01*
X004708Y004220D02*
X001007Y004220D01*
X001007Y004298D02*
X001448Y004298D01*
X001356Y004377D02*
X001007Y004377D01*
X001007Y004455D02*
X001323Y004455D01*
X001317Y004534D02*
X001007Y004534D01*
X001007Y004612D02*
X001334Y004612D01*
X001384Y004691D02*
X001007Y004691D01*
X001007Y004769D02*
X001516Y004769D01*
X001555Y004848D02*
X001007Y004848D01*
X001007Y004926D02*
X001444Y004926D01*
X001430Y004941D02*
X001500Y004870D01*
X001592Y004832D01*
X001691Y004832D01*
X001760Y004861D01*
X001773Y004828D01*
X001844Y004758D01*
X001936Y004720D01*
X002035Y004720D01*
X002127Y004758D01*
X002197Y004828D01*
X002235Y004920D01*
X002235Y005020D01*
X002197Y005111D01*
X002127Y005182D01*
X002035Y005220D01*
X001936Y005220D01*
X001867Y005191D01*
X001854Y005224D01*
X001783Y005294D01*
X001691Y005332D01*
X001592Y005332D01*
X001500Y005294D01*
X001430Y005224D01*
X001392Y005132D01*
X001392Y005033D01*
X001430Y004941D01*
X001403Y005005D02*
X001007Y005005D01*
X001007Y005083D02*
X001392Y005083D01*
X001404Y005162D02*
X001007Y005162D01*
X001007Y005240D02*
X001446Y005240D01*
X001559Y005319D02*
X001007Y005319D01*
X001007Y005397D02*
X002455Y005397D01*
X002454Y005476D02*
X001007Y005476D01*
X001007Y005554D02*
X002477Y005554D01*
X002534Y005633D02*
X001007Y005633D01*
X001007Y005711D02*
X002828Y005711D01*
X002860Y005790D02*
X001007Y005790D01*
X001007Y005868D02*
X002894Y005868D01*
X002973Y005947D02*
X001007Y005947D01*
X001007Y006025D02*
X003101Y006025D01*
X002937Y005319D02*
X002920Y005319D01*
X002848Y005240D02*
X003015Y005240D01*
X003026Y005005D02*
X002957Y005005D01*
X002945Y004926D02*
X002962Y004926D01*
X002934Y004848D02*
X002903Y004848D01*
X002921Y004769D02*
X002934Y004769D01*
X002952Y004691D02*
X002963Y004691D01*
X002952Y004612D02*
X003028Y004612D01*
X002538Y004455D02*
X001811Y004455D01*
X001817Y004534D02*
X002477Y004534D01*
X002452Y004612D02*
X001799Y004612D01*
X001749Y004691D02*
X002452Y004691D01*
X002483Y004769D02*
X002138Y004769D01*
X002205Y004848D02*
X002510Y004848D01*
X002469Y004926D02*
X002235Y004926D01*
X002235Y005005D02*
X002457Y005005D01*
X002469Y005083D02*
X002209Y005083D01*
X002147Y005162D02*
X002510Y005162D01*
X002560Y005240D02*
X001837Y005240D01*
X001724Y005319D02*
X002488Y005319D01*
X001832Y004769D02*
X001618Y004769D01*
X001729Y004848D02*
X001765Y004848D01*
X001007Y004141D02*
X004651Y004141D01*
X004594Y004063D02*
X001007Y004063D01*
X002807Y007046D02*
X003077Y007046D01*
X003077Y007124D02*
X002807Y007124D01*
X002807Y007203D02*
X003077Y007203D01*
X003077Y007281D02*
X002807Y007281D01*
X002807Y007360D02*
X003077Y007360D01*
X003077Y007438D02*
X002807Y007438D01*
X002807Y007517D02*
X003077Y007517D01*
X003077Y007595D02*
X002807Y007595D01*
X002807Y007674D02*
X003077Y007674D01*
X003077Y007752D02*
X002807Y007752D01*
X002787Y007831D02*
X003077Y007831D01*
X004556Y006496D02*
X004707Y006496D01*
X004675Y006418D02*
X004587Y006418D01*
X004587Y006339D02*
X004673Y006339D01*
X004695Y006261D02*
X004561Y006261D01*
X004500Y006182D02*
X004751Y006182D01*
X005095Y006182D02*
X005860Y006182D01*
X005892Y006261D02*
X005151Y006261D01*
X005173Y006339D02*
X005969Y006339D01*
X006090Y006418D02*
X005171Y006418D01*
X005139Y006496D02*
X007602Y006496D01*
X007602Y006418D02*
X006444Y006418D01*
X006564Y006339D02*
X007605Y006339D01*
X007637Y006261D02*
X006641Y006261D01*
X006501Y007752D02*
X005259Y007752D01*
X005329Y007831D02*
X006548Y007831D01*
X004428Y004691D02*
X004142Y004691D01*
X004178Y004612D02*
X004360Y004612D01*
X004329Y004534D02*
X004187Y004534D01*
X004171Y004455D02*
X004329Y004455D01*
X004355Y004377D02*
X004125Y004377D01*
X004594Y004062D02*
X004594Y004062D01*
D13*
X002392Y008145D02*
X002110Y008145D01*
X001704Y008551D01*
X001704Y008895D01*
M02*
