%
M48
M72
T01C0.0080
T02C0.0118
T03C0.0140
T04C0.0400
T05C0.0405
%
T01
X1465Y1645
X1840Y1864
X1837Y2239
X1871Y2707
X2337Y2400
X1840Y3114
X1947Y3520
X1827Y4520
X1840Y5239
X2215Y6051
X2652Y5231
X2962Y5036
X2931Y4645
X3414Y4810
X3744Y4457
X4072Y4620
X4215Y4125
X4579Y4227
X4839Y4487
X5996Y4895
X6934Y4551
X8387Y4722
X9434Y6239
X10277Y5645
X10652Y5395
X10590Y6114
X10657Y7520
X10657Y8645
X7684Y6957
X7684Y6364
X6590Y7270
X6996Y7665
X6496Y8450
X5387Y8715
X5371Y7957
X4465Y7832
X4367Y9145
X5746Y9520
X6309Y10945
X7590Y9502
X5684Y6365
X4597Y6372
X4077Y6375
X2996Y5957
X1402Y6520
X1402Y7020
X1559Y9364
X2507Y10134
X2887Y10134
X7790Y3035
X7817Y2675
X7602Y2385
X8257Y1832
X9557Y1645
X9917Y1645
X6409Y1832
X5207Y2020
X4747Y1980
X4387Y1989
X4297Y2754
T02
X3391Y3037
X3096Y3037
X2801Y3037
X2801Y3332
X2801Y3628
X3096Y3628
X3391Y3628
X3391Y3332
X3096Y3332
T03
X8902Y3645
X8902Y2770
X9777Y2770
X9777Y3645
T04
X8527Y5615
X6527Y6015
X6527Y5215
T05
X3527Y5615
M30
