G75*
%MOIN*%
%OFA0B0*%
%FSLAX24Y24*%
%IPPOS*%
%LPD*%
%AMOC8*
5,1,8,0,0,1.08239X$1,22.5*
%
%ADD10R,0.0237X0.0375*%
%ADD11R,0.0454X0.0375*%
%ADD12R,0.0316X0.0158*%
%ADD13R,0.0375X0.0611*%
%ADD14R,0.0651X0.0572*%
%ADD15R,0.0296X0.0336*%
%ADD16R,0.0336X0.0296*%
%ADD17R,0.0375X0.0454*%
%ADD18R,0.0572X0.0651*%
%ADD19R,0.0198X0.0277*%
%ADD20R,0.0217X0.0375*%
%ADD21R,0.1123X0.0690*%
%ADD22C,0.0170*%
%ADD23R,0.0887X0.0887*%
%ADD24C,0.0338*%
%ADD25C,0.0465*%
%ADD26R,0.0493X0.0651*%
%ADD27R,0.0275X0.0271*%
%ADD28C,0.0140*%
%ADD29R,0.1871X0.1871*%
%ADD30C,0.0147*%
%ADD31R,0.0271X0.0275*%
%ADD32R,0.0375X0.0414*%
%ADD33C,0.0460*%
%ADD34R,0.0395X0.0198*%
%ADD35R,0.0611X0.0375*%
%ADD36R,0.0257X0.0454*%
%ADD37R,0.0375X0.1005*%
%ADD38R,0.0454X0.0257*%
%ADD39R,0.0360X0.0360*%
%ADD40C,0.0360*%
D10*
X002201Y010489D03*
X002201Y010895D03*
X002693Y010895D03*
X002693Y010489D03*
D11*
X003042Y010277D03*
X003042Y010887D03*
D12*
X005072Y010276D03*
X005072Y010020D03*
X005072Y009764D03*
X005899Y009764D03*
X005899Y010020D03*
X005899Y010276D03*
D13*
X005485Y010020D03*
D14*
X006547Y009826D03*
X006547Y010574D03*
D15*
X006073Y010595D03*
X005640Y010595D03*
X005343Y010595D03*
X004910Y010595D03*
X004613Y010475D03*
X004613Y010810D03*
X004180Y010810D03*
X004180Y010475D03*
X004400Y009114D03*
X004363Y008770D03*
X004796Y008770D03*
X004833Y009114D03*
X005175Y009145D03*
X005608Y009145D03*
X005925Y009145D03*
X006358Y009145D03*
X007081Y007739D03*
X007088Y007382D03*
X007521Y007382D03*
X007514Y007739D03*
X006264Y007676D03*
X005831Y007676D03*
X005296Y007082D03*
X005296Y006739D03*
X004863Y006739D03*
X004863Y007082D03*
X002958Y006260D03*
X002525Y006260D03*
X002733Y005801D03*
X002300Y005801D03*
X002003Y005645D03*
X002003Y005982D03*
X001570Y005982D03*
X001570Y005645D03*
X001523Y008026D03*
X001733Y008361D03*
X001300Y008361D03*
X001090Y008026D03*
X006863Y006495D03*
X007296Y006495D03*
X007590Y001805D03*
X008023Y001805D03*
X010010Y001645D03*
X010443Y001645D03*
X004606Y001632D03*
X004173Y001632D03*
D16*
X005235Y001616D03*
X005235Y002049D03*
X002668Y002068D03*
X002329Y002068D03*
X001983Y002069D03*
X001983Y001636D03*
X002329Y001635D03*
X002668Y001635D03*
X001954Y004268D03*
X001954Y004701D03*
X001107Y006178D03*
X001107Y006611D03*
X002037Y007008D03*
X002037Y007441D03*
X001107Y008710D03*
X001107Y009143D03*
X004298Y009616D03*
X004298Y010049D03*
X004735Y010049D03*
X004735Y009616D03*
X005487Y008691D03*
X005487Y008258D03*
X005485Y007955D03*
X005485Y007522D03*
X004547Y007121D03*
X004547Y006688D03*
X004423Y005986D03*
X004079Y005924D03*
X004079Y005491D03*
X004423Y005553D03*
X006597Y007998D03*
X006597Y008431D03*
X006704Y008741D03*
X006704Y009174D03*
D17*
X007082Y010426D03*
X007100Y010889D03*
X007711Y010889D03*
X007692Y010426D03*
X004342Y002405D03*
X003732Y002405D03*
D18*
G36*
X007497Y008517D02*
X007427Y007951D01*
X006783Y008031D01*
X006853Y008597D01*
X007497Y008517D01*
G37*
G36*
X007590Y009259D02*
X007520Y008693D01*
X006876Y008773D01*
X006946Y009339D01*
X007590Y009259D01*
G37*
D19*
X006323Y008769D03*
X006067Y008769D03*
X005811Y008769D03*
X005811Y008021D03*
X006323Y008021D03*
X001763Y007689D03*
X001507Y007689D03*
X001251Y007689D03*
X001251Y006941D03*
X001763Y006941D03*
D20*
X004320Y007462D03*
X004576Y007462D03*
X004832Y007462D03*
X005088Y007462D03*
X005088Y008328D03*
X004832Y008328D03*
X004576Y008328D03*
X004320Y008328D03*
D21*
X001517Y009637D03*
X001517Y010740D03*
D22*
X002343Y004222D02*
X002343Y003998D01*
X002540Y003998D02*
X002540Y004222D01*
X002737Y004222D02*
X002737Y003998D01*
X002934Y003998D02*
X002934Y004222D01*
X003131Y004222D02*
X003131Y003998D01*
X003328Y003998D02*
X003328Y004222D01*
X003501Y003824D02*
X003725Y003824D01*
X003725Y003628D02*
X003501Y003628D01*
X003501Y003431D02*
X003725Y003431D01*
X003725Y003234D02*
X003501Y003234D01*
X003501Y003037D02*
X003725Y003037D01*
X003725Y002840D02*
X003501Y002840D01*
X003328Y002667D02*
X003328Y002443D01*
X003131Y002443D02*
X003131Y002667D01*
X002934Y002667D02*
X002934Y002443D01*
X002737Y002443D02*
X002737Y002667D01*
X002540Y002667D02*
X002540Y002443D01*
X002343Y002443D02*
X002343Y002667D01*
X002170Y002840D02*
X001946Y002840D01*
X001946Y003037D02*
X002170Y003037D01*
X002170Y003234D02*
X001946Y003234D01*
X001946Y003431D02*
X002170Y003431D01*
X002170Y003628D02*
X001946Y003628D01*
X001946Y003824D02*
X002170Y003824D01*
D23*
X002835Y003332D03*
D24*
X002835Y003332D03*
X002540Y003332D03*
X002540Y003628D03*
X002835Y003628D03*
X003131Y003628D03*
X003131Y003332D03*
X003131Y003037D03*
X002835Y003037D03*
X002540Y003037D03*
D25*
X003267Y005615D03*
X006267Y006015D03*
X006267Y005215D03*
D26*
X003758Y001800D03*
X003088Y001800D03*
D27*
X007142Y002724D03*
X007142Y003065D03*
X007807Y004502D03*
X007807Y004843D03*
X008454Y004774D03*
X008454Y005115D03*
D28*
X008398Y004499D02*
X008398Y004265D01*
X008241Y004265D02*
X008241Y004499D01*
X008555Y004499D02*
X008555Y004265D01*
X008713Y004265D02*
X008713Y004499D01*
X008870Y004499D02*
X008870Y004265D01*
X009028Y004265D02*
X009028Y004499D01*
X009185Y004499D02*
X009185Y004265D01*
X009343Y004265D02*
X009343Y004499D01*
X009500Y004499D02*
X009500Y004265D01*
X009658Y004265D02*
X009658Y004499D01*
X009815Y004499D02*
X009815Y004265D01*
X009973Y004265D02*
X009973Y004499D01*
X010171Y004067D02*
X010405Y004067D01*
X010405Y003910D02*
X010171Y003910D01*
X010171Y003752D02*
X010405Y003752D01*
X010405Y003595D02*
X010171Y003595D01*
X010171Y003437D02*
X010405Y003437D01*
X010405Y003280D02*
X010171Y003280D01*
X010171Y003122D02*
X010405Y003122D01*
X010405Y002965D02*
X010171Y002965D01*
X010171Y002807D02*
X010405Y002807D01*
X010405Y002650D02*
X010171Y002650D01*
X010171Y002492D02*
X010405Y002492D01*
X010405Y002335D02*
X010171Y002335D01*
X009973Y002137D02*
X009973Y001903D01*
X009815Y001903D02*
X009815Y002137D01*
X009658Y002137D02*
X009658Y001903D01*
X009500Y001903D02*
X009500Y002137D01*
X009343Y002137D02*
X009343Y001903D01*
X009185Y001903D02*
X009185Y002137D01*
X009028Y002137D02*
X009028Y001903D01*
X008870Y001903D02*
X008870Y002137D01*
X008713Y002137D02*
X008713Y001903D01*
X008555Y001903D02*
X008555Y002137D01*
X008398Y002137D02*
X008398Y001903D01*
X008241Y001903D02*
X008241Y002137D01*
X008043Y002335D02*
X007809Y002335D01*
X007809Y002492D02*
X008043Y002492D01*
X008043Y002650D02*
X007809Y002650D01*
X007809Y002807D02*
X008043Y002807D01*
X008043Y002965D02*
X007809Y002965D01*
X007809Y003122D02*
X008043Y003122D01*
X008043Y003280D02*
X007809Y003280D01*
X007809Y003437D02*
X008043Y003437D01*
X008043Y003595D02*
X007809Y003595D01*
X007809Y003752D02*
X008043Y003752D01*
X008043Y003910D02*
X007809Y003910D01*
X007809Y004067D02*
X008043Y004067D01*
D29*
X009107Y003201D03*
D30*
X009021Y004715D03*
X008824Y004715D03*
X008824Y004953D03*
X009021Y004953D03*
X008923Y005137D03*
D31*
X009354Y005022D03*
X009354Y005302D03*
X009695Y005302D03*
X009695Y005022D03*
X009695Y004742D03*
X009971Y004739D03*
X010312Y004739D03*
X009354Y004742D03*
X007500Y003902D03*
X007500Y003627D03*
X007500Y003352D03*
X007159Y003352D03*
X007159Y003627D03*
X007159Y003902D03*
X001906Y006665D03*
X001565Y006665D03*
D32*
X007040Y004799D03*
X007473Y004799D03*
X007473Y004248D03*
X007040Y004248D03*
D33*
X006267Y005215D03*
X006267Y006015D03*
X008267Y005615D03*
D34*
X006887Y006926D03*
X006021Y006670D03*
X006021Y007182D03*
X005634Y002088D03*
X005634Y001576D03*
X006500Y001832D03*
D35*
X003597Y010139D03*
X003597Y010713D03*
D36*
X007008Y009902D03*
X007500Y009902D03*
D37*
X009067Y010620D03*
X010406Y010620D03*
D38*
X006909Y002091D03*
X006909Y001599D03*
D39*
X009142Y008145D03*
X002392Y008145D03*
D40*
X001204Y001645D03*
X001579Y001864D03*
X001577Y002239D03*
X001610Y002707D03*
X001579Y003114D03*
X001687Y003520D03*
X001567Y004520D03*
X001642Y005082D03*
X002142Y005298D03*
X002704Y005450D03*
X002707Y005005D03*
X002702Y004645D03*
X003184Y004810D03*
X003577Y004520D03*
X003937Y004542D03*
X004579Y004489D03*
X003992Y003800D03*
X004048Y003444D03*
X004048Y003084D03*
X004235Y001989D03*
X004798Y002020D03*
X005923Y001832D03*
X007257Y001845D03*
X007624Y002155D03*
X007342Y002385D03*
X007557Y002675D03*
X007529Y003035D03*
X008642Y002770D03*
X009517Y002770D03*
X009517Y003645D03*
X008642Y003645D03*
X008127Y004722D03*
X008110Y005082D03*
X007017Y006145D03*
X007423Y006957D03*
X006735Y007665D03*
X006517Y007332D03*
X005627Y007082D03*
X004923Y006364D03*
X005360Y006270D03*
X004337Y006372D03*
X004204Y006895D03*
X004204Y007832D03*
X005110Y007957D03*
X005127Y008715D03*
X005485Y009520D03*
X006235Y008450D03*
X007329Y009502D03*
X006048Y010945D03*
X004048Y009145D03*
X002637Y010082D03*
X002110Y009114D03*
X002298Y008707D03*
X001704Y008895D03*
X001548Y007301D03*
X001552Y006330D03*
X001917Y006334D03*
X005735Y004895D03*
X006673Y004551D03*
X009298Y006395D03*
X010017Y005645D03*
X010392Y005395D03*
X010017Y005057D03*
X010329Y006114D03*
X009267Y007520D03*
X009298Y001645D03*
X009673Y001645D03*
X002077Y002400D03*
M02*
