G75*
%MOIN*%
%OFA0B0*%
%FSLAX24Y24*%
%IPPOS*%
%LPD*%
%AMOC8*
5,1,8,0,0,1.08239X$1,22.5*
%
%ADD10C,0.0000*%
D10*
X000767Y001295D02*
X010767Y001295D01*
X010767Y011295D01*
X000767Y011295D01*
X000767Y001295D01*
X004707Y002405D02*
X004707Y003465D01*
X004709Y003529D01*
X004715Y003593D01*
X004724Y003656D01*
X004738Y003719D01*
X004755Y003780D01*
X004776Y003841D01*
X004800Y003900D01*
X004828Y003958D01*
X004860Y004013D01*
X004895Y004067D01*
X004933Y004119D01*
X004974Y004168D01*
X005017Y004215D01*
X005064Y004258D01*
X005113Y004299D01*
X005165Y004337D01*
X005219Y004372D01*
X005274Y004404D01*
X005332Y004432D01*
X005391Y004456D01*
X005452Y004477D01*
X005513Y004494D01*
X005576Y004508D01*
X005639Y004517D01*
X005703Y004523D01*
X005767Y004525D01*
X006067Y005215D02*
X006069Y005243D01*
X006075Y005270D01*
X006084Y005296D01*
X006097Y005321D01*
X006114Y005344D01*
X006133Y005364D01*
X006155Y005381D01*
X006179Y005395D01*
X006205Y005405D01*
X006232Y005412D01*
X006260Y005415D01*
X006288Y005414D01*
X006315Y005409D01*
X006342Y005400D01*
X006367Y005388D01*
X006390Y005373D01*
X006411Y005354D01*
X006429Y005333D01*
X006444Y005309D01*
X006455Y005283D01*
X006463Y005257D01*
X006467Y005229D01*
X006467Y005201D01*
X006463Y005173D01*
X006455Y005147D01*
X006444Y005121D01*
X006429Y005097D01*
X006411Y005076D01*
X006390Y005057D01*
X006367Y005042D01*
X006342Y005030D01*
X006315Y005021D01*
X006288Y005016D01*
X006260Y005015D01*
X006232Y005018D01*
X006205Y005025D01*
X006179Y005035D01*
X006155Y005049D01*
X006133Y005066D01*
X006114Y005086D01*
X006097Y005109D01*
X006084Y005134D01*
X006075Y005160D01*
X006069Y005187D01*
X006067Y005215D01*
X006064Y005215D02*
X006066Y005243D01*
X006072Y005271D01*
X006082Y005298D01*
X006095Y005323D01*
X006111Y005345D01*
X006131Y005366D01*
X006153Y005383D01*
X006178Y005397D01*
X006204Y005408D01*
X006232Y005415D01*
X006260Y005418D01*
X006288Y005417D01*
X006316Y005412D01*
X006343Y005403D01*
X006368Y005391D01*
X006392Y005375D01*
X006413Y005356D01*
X006431Y005334D01*
X006446Y005310D01*
X006458Y005284D01*
X006466Y005257D01*
X006470Y005229D01*
X006470Y005201D01*
X006466Y005173D01*
X006458Y005146D01*
X006446Y005120D01*
X006431Y005096D01*
X006413Y005074D01*
X006392Y005055D01*
X006369Y005039D01*
X006343Y005027D01*
X006316Y005018D01*
X006288Y005013D01*
X006260Y005012D01*
X006232Y005015D01*
X006204Y005022D01*
X006178Y005033D01*
X006153Y005047D01*
X006131Y005064D01*
X006111Y005085D01*
X006095Y005107D01*
X006082Y005132D01*
X006072Y005159D01*
X006066Y005187D01*
X006064Y005215D01*
X006067Y006015D02*
X006069Y006043D01*
X006075Y006070D01*
X006084Y006096D01*
X006097Y006121D01*
X006114Y006144D01*
X006133Y006164D01*
X006155Y006181D01*
X006179Y006195D01*
X006205Y006205D01*
X006232Y006212D01*
X006260Y006215D01*
X006288Y006214D01*
X006315Y006209D01*
X006342Y006200D01*
X006367Y006188D01*
X006390Y006173D01*
X006411Y006154D01*
X006429Y006133D01*
X006444Y006109D01*
X006455Y006083D01*
X006463Y006057D01*
X006467Y006029D01*
X006467Y006001D01*
X006463Y005973D01*
X006455Y005947D01*
X006444Y005921D01*
X006429Y005897D01*
X006411Y005876D01*
X006390Y005857D01*
X006367Y005842D01*
X006342Y005830D01*
X006315Y005821D01*
X006288Y005816D01*
X006260Y005815D01*
X006232Y005818D01*
X006205Y005825D01*
X006179Y005835D01*
X006155Y005849D01*
X006133Y005866D01*
X006114Y005886D01*
X006097Y005909D01*
X006084Y005934D01*
X006075Y005960D01*
X006069Y005987D01*
X006067Y006015D01*
X006064Y006015D02*
X006066Y006043D01*
X006072Y006071D01*
X006082Y006098D01*
X006095Y006123D01*
X006111Y006145D01*
X006131Y006166D01*
X006153Y006183D01*
X006178Y006197D01*
X006204Y006208D01*
X006232Y006215D01*
X006260Y006218D01*
X006288Y006217D01*
X006316Y006212D01*
X006343Y006203D01*
X006368Y006191D01*
X006392Y006175D01*
X006413Y006156D01*
X006431Y006134D01*
X006446Y006110D01*
X006458Y006084D01*
X006466Y006057D01*
X006470Y006029D01*
X006470Y006001D01*
X006466Y005973D01*
X006458Y005946D01*
X006446Y005920D01*
X006431Y005896D01*
X006413Y005874D01*
X006392Y005855D01*
X006369Y005839D01*
X006343Y005827D01*
X006316Y005818D01*
X006288Y005813D01*
X006260Y005812D01*
X006232Y005815D01*
X006204Y005822D01*
X006178Y005833D01*
X006153Y005847D01*
X006131Y005864D01*
X006111Y005885D01*
X006095Y005907D01*
X006082Y005932D01*
X006072Y005959D01*
X006066Y005987D01*
X006064Y006015D01*
X007842Y006395D02*
X007842Y009895D01*
X008867Y009895D01*
X008867Y006395D01*
X007842Y006395D01*
X008067Y006845D02*
X008317Y006845D01*
X008317Y009445D01*
X008067Y009445D01*
X008067Y006845D01*
X008317Y006845D02*
X008867Y006845D01*
X008067Y005615D02*
X008069Y005643D01*
X008075Y005670D01*
X008084Y005696D01*
X008097Y005721D01*
X008114Y005744D01*
X008133Y005764D01*
X008155Y005781D01*
X008179Y005795D01*
X008205Y005805D01*
X008232Y005812D01*
X008260Y005815D01*
X008288Y005814D01*
X008315Y005809D01*
X008342Y005800D01*
X008367Y005788D01*
X008390Y005773D01*
X008411Y005754D01*
X008429Y005733D01*
X008444Y005709D01*
X008455Y005683D01*
X008463Y005657D01*
X008467Y005629D01*
X008467Y005601D01*
X008463Y005573D01*
X008455Y005547D01*
X008444Y005521D01*
X008429Y005497D01*
X008411Y005476D01*
X008390Y005457D01*
X008367Y005442D01*
X008342Y005430D01*
X008315Y005421D01*
X008288Y005416D01*
X008260Y005415D01*
X008232Y005418D01*
X008205Y005425D01*
X008179Y005435D01*
X008155Y005449D01*
X008133Y005466D01*
X008114Y005486D01*
X008097Y005509D01*
X008084Y005534D01*
X008075Y005560D01*
X008069Y005587D01*
X008067Y005615D01*
X006827Y003465D02*
X006827Y002405D01*
X004707Y002405D01*
X006827Y003465D02*
X006825Y003529D01*
X006819Y003593D01*
X006810Y003656D01*
X006796Y003719D01*
X006779Y003780D01*
X006758Y003841D01*
X006734Y003900D01*
X006706Y003958D01*
X006674Y004013D01*
X006639Y004067D01*
X006601Y004119D01*
X006560Y004168D01*
X006517Y004215D01*
X006470Y004258D01*
X006421Y004299D01*
X006369Y004337D01*
X006315Y004372D01*
X006260Y004404D01*
X006202Y004432D01*
X006143Y004456D01*
X006082Y004477D01*
X006021Y004494D01*
X005958Y004508D01*
X005895Y004517D01*
X005831Y004523D01*
X005767Y004525D01*
X003692Y006745D02*
X003692Y009545D01*
X002667Y009545D01*
X002667Y006745D01*
X003692Y006745D01*
X003467Y006845D02*
X003217Y006845D01*
X003217Y009445D01*
X003467Y009445D01*
X003467Y006845D01*
X003217Y006845D02*
X002667Y006845D01*
X003064Y005615D02*
X003066Y005643D01*
X003072Y005671D01*
X003082Y005698D01*
X003095Y005723D01*
X003111Y005745D01*
X003131Y005766D01*
X003153Y005783D01*
X003178Y005797D01*
X003204Y005808D01*
X003232Y005815D01*
X003260Y005818D01*
X003288Y005817D01*
X003316Y005812D01*
X003343Y005803D01*
X003368Y005791D01*
X003392Y005775D01*
X003413Y005756D01*
X003431Y005734D01*
X003446Y005710D01*
X003458Y005684D01*
X003466Y005657D01*
X003470Y005629D01*
X003470Y005601D01*
X003466Y005573D01*
X003458Y005546D01*
X003446Y005520D01*
X003431Y005496D01*
X003413Y005474D01*
X003392Y005455D01*
X003369Y005439D01*
X003343Y005427D01*
X003316Y005418D01*
X003288Y005413D01*
X003260Y005412D01*
X003232Y005415D01*
X003204Y005422D01*
X003178Y005433D01*
X003153Y005447D01*
X003131Y005464D01*
X003111Y005485D01*
X003095Y005507D01*
X003082Y005532D01*
X003072Y005559D01*
X003066Y005587D01*
X003064Y005615D01*
X003217Y009445D02*
X002667Y009445D01*
X008317Y009445D02*
X008867Y009445D01*
X010767Y011295D02*
X010767Y001295D01*
M02*
