G75*
%MOIN*%
%OFA0B0*%
%FSLAX24Y24*%
%IPPOS*%
%LPD*%
%AMOC8*
5,1,8,0,0,1.08239X$1,22.5*
%
%ADD10C,0.0278*%
%ADD11C,0.0320*%
%ADD12C,0.0080*%
%ADD13C,0.0300*%
%ADD14C,0.0100*%
D10*
X002801Y003037D03*
X003096Y003037D03*
X003391Y003037D03*
X003391Y003332D03*
X003096Y003332D03*
X003096Y003628D03*
X003391Y003628D03*
X002801Y003628D03*
X002801Y003332D03*
D11*
X001840Y005239D03*
X002215Y006051D03*
X001402Y006520D03*
X001402Y007020D03*
X002996Y005957D03*
X004309Y009145D03*
X002887Y010134D03*
X002507Y010134D03*
X001559Y009364D03*
D12*
X001389Y009165D02*
X001267Y009165D01*
X001267Y009087D02*
X002007Y009087D01*
X002007Y009165D02*
X001728Y009165D01*
X001706Y009143D02*
X001779Y009216D01*
X001819Y009312D01*
X001819Y009415D01*
X001779Y009511D01*
X001706Y009584D01*
X001610Y009624D01*
X001507Y009624D01*
X001411Y009584D01*
X001338Y009511D01*
X001299Y009415D01*
X001299Y009312D01*
X001338Y009216D01*
X001411Y009143D01*
X001507Y009104D01*
X001610Y009104D01*
X001706Y009143D01*
X001790Y009244D02*
X002007Y009244D01*
X002007Y009322D02*
X001819Y009322D01*
X001819Y009401D02*
X002007Y009401D01*
X002007Y009418D02*
X002007Y008372D01*
X002044Y008284D01*
X002111Y008216D01*
X002200Y008180D01*
X002887Y008180D01*
X002887Y008110D01*
X002200Y008110D01*
X002111Y008073D01*
X002044Y008006D01*
X002007Y007918D01*
X002007Y006872D01*
X002044Y006784D01*
X002111Y006716D01*
X002200Y006680D01*
X002895Y006680D01*
X002924Y006609D01*
X002991Y006541D01*
X003080Y006505D01*
X003802Y006505D01*
X003777Y006445D01*
X003777Y006345D01*
X003815Y006253D01*
X003886Y006183D01*
X003978Y006145D01*
X004077Y006145D01*
X004169Y006183D01*
X004239Y006253D01*
X004277Y006345D01*
X004277Y006445D01*
X004239Y006536D01*
X004169Y006607D01*
X004136Y006621D01*
X004167Y006697D01*
X004167Y008922D01*
X004257Y008885D01*
X004360Y008885D01*
X004456Y008924D01*
X004529Y008998D01*
X004569Y009093D01*
X004569Y009197D01*
X004529Y009292D01*
X004456Y009365D01*
X004360Y009405D01*
X004257Y009405D01*
X004167Y009368D01*
X004167Y009593D01*
X004131Y009681D01*
X004063Y009748D01*
X003975Y009785D01*
X003080Y009785D01*
X002991Y009748D01*
X002924Y009681D01*
X002895Y009610D01*
X002200Y009610D01*
X002111Y009573D01*
X002044Y009506D01*
X002007Y009418D01*
X002033Y009479D02*
X001792Y009479D01*
X001732Y009558D02*
X002096Y009558D01*
X002360Y009913D02*
X002456Y009874D01*
X002559Y009874D01*
X002655Y009913D01*
X002697Y009956D01*
X002740Y009913D01*
X002836Y009874D01*
X002939Y009874D01*
X003035Y009913D01*
X003108Y009986D01*
X003147Y010082D01*
X003147Y010185D01*
X003108Y010281D01*
X003035Y010354D01*
X002939Y010394D01*
X002836Y010394D01*
X002740Y010354D01*
X002697Y010311D01*
X002655Y010354D01*
X002559Y010394D01*
X002456Y010394D01*
X002360Y010354D01*
X002287Y010281D01*
X002247Y010185D01*
X002247Y010082D01*
X002287Y009986D01*
X002360Y009913D01*
X002323Y009950D02*
X001267Y009950D01*
X001267Y009872D02*
X007887Y009872D01*
X007887Y009943D02*
X007887Y007107D01*
X007825Y007169D01*
X007733Y007207D01*
X007634Y007207D01*
X007542Y007169D01*
X007472Y007099D01*
X007434Y007007D01*
X007434Y006908D01*
X007472Y006816D01*
X007542Y006745D01*
X007634Y006707D01*
X007733Y006707D01*
X007825Y006745D01*
X007887Y006807D01*
X007887Y006513D01*
X007825Y006575D01*
X007733Y006614D01*
X007634Y006614D01*
X007542Y006575D01*
X007472Y006505D01*
X007434Y006413D01*
X007434Y006314D01*
X007472Y006222D01*
X007542Y006152D01*
X007634Y006114D01*
X007733Y006114D01*
X007825Y006152D01*
X007896Y006222D01*
X007917Y006275D01*
X007924Y006259D01*
X007991Y006191D01*
X008080Y006155D01*
X008975Y006155D01*
X009063Y006191D01*
X009131Y006259D01*
X009167Y006347D01*
X009167Y006680D01*
X009855Y006680D01*
X009943Y006716D01*
X010011Y006784D01*
X010047Y006872D01*
X010047Y007918D01*
X010011Y008006D01*
X009943Y008073D01*
X009855Y008110D01*
X009167Y008110D01*
X009167Y008180D01*
X009855Y008180D01*
X009943Y008216D01*
X010011Y008284D01*
X010047Y008372D01*
X010047Y009270D01*
X010787Y009270D01*
X010787Y008862D01*
X010707Y008895D01*
X010608Y008895D01*
X010516Y008857D01*
X010445Y008786D01*
X010407Y008695D01*
X010407Y008595D01*
X010445Y008503D01*
X010516Y008433D01*
X010608Y008395D01*
X010707Y008395D01*
X010787Y008428D01*
X010787Y007737D01*
X010707Y007770D01*
X010608Y007770D01*
X010516Y007732D01*
X010445Y007661D01*
X010407Y007570D01*
X010407Y007470D01*
X010445Y007378D01*
X010516Y007308D01*
X010608Y007270D01*
X010707Y007270D01*
X010787Y007303D01*
X010787Y006270D01*
X010732Y006325D01*
X010640Y006364D01*
X010540Y006364D01*
X010448Y006325D01*
X010378Y006255D01*
X010340Y006163D01*
X010340Y006064D01*
X010378Y005972D01*
X010448Y005902D01*
X010540Y005864D01*
X010640Y005864D01*
X010732Y005902D01*
X010787Y005957D01*
X010787Y005609D01*
X010702Y005645D01*
X010603Y005645D01*
X010527Y005614D01*
X010527Y005695D01*
X010489Y005786D01*
X010419Y005857D01*
X010327Y005895D01*
X010228Y005895D01*
X010136Y005857D01*
X010065Y005786D01*
X010027Y005695D01*
X010027Y005595D01*
X010065Y005503D01*
X010136Y005433D01*
X010228Y005395D01*
X010327Y005395D01*
X010402Y005426D01*
X010402Y005345D01*
X010440Y005253D01*
X010511Y005183D01*
X010603Y005145D01*
X010702Y005145D01*
X010787Y005180D01*
X010787Y001545D01*
X010787Y001543D01*
X010786Y001539D01*
X010783Y001536D01*
X010779Y001535D01*
X010777Y001535D01*
X010142Y001535D01*
X010167Y001595D01*
X010167Y001695D01*
X010129Y001786D01*
X010787Y001786D01*
X010787Y001708D02*
X010162Y001708D01*
X010167Y001629D02*
X010787Y001629D01*
X010787Y001551D02*
X010149Y001551D01*
X010129Y001786D02*
X010059Y001857D01*
X009967Y001895D01*
X009868Y001895D01*
X009776Y001857D01*
X009737Y001818D01*
X009699Y001857D01*
X009607Y001895D01*
X009508Y001895D01*
X009416Y001857D01*
X009345Y001786D01*
X008507Y001786D01*
X008507Y001783D02*
X008507Y001882D01*
X008469Y001974D01*
X008399Y002044D01*
X008307Y002082D01*
X008208Y002082D01*
X008116Y002044D01*
X008045Y001974D01*
X008007Y001882D01*
X008007Y001783D01*
X008032Y001722D01*
X002429Y001722D01*
X002261Y001890D01*
X002261Y002328D01*
X002220Y002369D01*
X002220Y002557D01*
X002138Y002639D01*
X002120Y002656D01*
X002121Y002658D01*
X002121Y002757D01*
X002083Y002849D01*
X002013Y002919D01*
X002003Y002923D01*
X002052Y002972D01*
X002090Y003064D01*
X002090Y003163D01*
X002052Y003255D01*
X002025Y003282D01*
X002089Y003308D01*
X002159Y003378D01*
X002197Y003470D01*
X002197Y003570D01*
X002159Y003661D01*
X002089Y003732D01*
X001997Y003770D01*
X001898Y003770D01*
X001806Y003732D01*
X001735Y003661D01*
X001697Y003570D01*
X001697Y003470D01*
X001735Y003378D01*
X001762Y003352D01*
X001698Y003325D01*
X001628Y003255D01*
X001590Y003163D01*
X001590Y003064D01*
X001628Y002972D01*
X001698Y002902D01*
X001708Y002898D01*
X001659Y002849D01*
X001621Y002757D01*
X001621Y002658D01*
X001659Y002566D01*
X001730Y002495D01*
X001767Y002480D01*
X001696Y002450D01*
X001625Y002380D01*
X001587Y002288D01*
X001587Y002189D01*
X001625Y002097D01*
X001673Y002050D01*
X001628Y002005D01*
X001590Y001913D01*
X001590Y001864D01*
X001515Y001895D01*
X001415Y001895D01*
X001323Y001857D01*
X001267Y001801D01*
X001267Y006294D01*
X001351Y006260D01*
X001454Y006260D01*
X001550Y006299D01*
X001623Y006373D01*
X001662Y006468D01*
X001662Y006572D01*
X001623Y006667D01*
X001550Y006740D01*
X001478Y006770D01*
X001550Y006799D01*
X001623Y006873D01*
X001662Y006968D01*
X001662Y007072D01*
X001623Y007167D01*
X001550Y007240D01*
X001454Y007280D01*
X001351Y007280D01*
X001267Y007245D01*
X001267Y011045D01*
X001268Y011047D01*
X001269Y011050D01*
X001272Y011053D01*
X001275Y011055D01*
X001277Y011055D01*
X006084Y011055D01*
X006059Y010995D01*
X006059Y010895D01*
X006097Y010803D01*
X006167Y010733D01*
X006259Y010695D01*
X006358Y010695D01*
X006450Y010733D01*
X006521Y010803D01*
X006559Y010895D01*
X006559Y010995D01*
X006534Y011055D01*
X008027Y011055D01*
X008027Y010113D01*
X007991Y010098D01*
X007924Y010031D01*
X007887Y009943D01*
X007891Y009950D02*
X003072Y009950D01*
X003125Y010029D02*
X007923Y010029D01*
X008013Y010107D02*
X003147Y010107D01*
X003147Y010186D02*
X008027Y010186D01*
X008027Y010264D02*
X003115Y010264D01*
X003046Y010343D02*
X008027Y010343D01*
X008027Y010421D02*
X001267Y010421D01*
X001267Y010343D02*
X002349Y010343D01*
X002280Y010264D02*
X001267Y010264D01*
X001267Y010186D02*
X002248Y010186D01*
X002247Y010107D02*
X001267Y010107D01*
X001267Y010029D02*
X002269Y010029D01*
X002692Y009950D02*
X002703Y009950D01*
X002906Y009636D02*
X001267Y009636D01*
X001267Y009558D02*
X001385Y009558D01*
X001325Y009479D02*
X001267Y009479D01*
X001267Y009401D02*
X001299Y009401D01*
X001299Y009322D02*
X001267Y009322D01*
X001267Y009244D02*
X001327Y009244D01*
X001267Y009008D02*
X002007Y009008D01*
X002007Y008930D02*
X001267Y008930D01*
X001267Y008851D02*
X002007Y008851D01*
X002007Y008773D02*
X001267Y008773D01*
X001267Y008694D02*
X002007Y008694D01*
X002007Y008616D02*
X001267Y008616D01*
X001267Y008537D02*
X002007Y008537D01*
X002007Y008459D02*
X001267Y008459D01*
X001267Y008380D02*
X002007Y008380D01*
X002037Y008302D02*
X001267Y008302D01*
X001267Y008223D02*
X002104Y008223D01*
X002104Y008066D02*
X001267Y008066D01*
X001267Y007988D02*
X002037Y007988D01*
X002007Y007909D02*
X001267Y007909D01*
X001267Y007831D02*
X002007Y007831D01*
X002007Y007752D02*
X001267Y007752D01*
X001267Y007674D02*
X002007Y007674D01*
X002007Y007595D02*
X001267Y007595D01*
X001267Y007517D02*
X002007Y007517D01*
X002007Y007438D02*
X001267Y007438D01*
X001267Y007360D02*
X002007Y007360D01*
X002007Y007281D02*
X001267Y007281D01*
X001587Y007203D02*
X002007Y007203D01*
X002007Y007124D02*
X001641Y007124D01*
X001662Y007046D02*
X002007Y007046D01*
X002007Y006967D02*
X001662Y006967D01*
X001630Y006889D02*
X002007Y006889D01*
X002033Y006810D02*
X001561Y006810D01*
X001558Y006732D02*
X002096Y006732D01*
X002163Y006311D02*
X002068Y006271D01*
X001994Y006198D01*
X001955Y006103D01*
X001955Y005999D01*
X001994Y005904D01*
X002068Y005831D01*
X002163Y005791D01*
X002267Y005791D01*
X002362Y005831D01*
X002435Y005904D01*
X002475Y005999D01*
X002475Y006103D01*
X002435Y006198D01*
X002362Y006271D01*
X002267Y006311D01*
X002163Y006311D01*
X002057Y006261D02*
X001457Y006261D01*
X001348Y006261D02*
X001267Y006261D01*
X001267Y006182D02*
X001988Y006182D01*
X001955Y006104D02*
X001267Y006104D01*
X001267Y006025D02*
X001955Y006025D01*
X001977Y005947D02*
X001267Y005947D01*
X001267Y005868D02*
X002030Y005868D01*
X002400Y005868D02*
X002752Y005868D01*
X002736Y005906D02*
X002776Y005810D01*
X002849Y005737D01*
X002944Y005697D01*
X003048Y005697D01*
X003090Y005715D01*
X003085Y005703D01*
X003085Y005527D01*
X003152Y005364D01*
X003277Y005240D01*
X003439Y005172D01*
X003615Y005172D01*
X003778Y005240D01*
X003903Y005364D01*
X003970Y005527D01*
X003970Y005703D01*
X003903Y005865D01*
X003778Y005990D01*
X003615Y006057D01*
X003439Y006057D01*
X003277Y005990D01*
X003256Y005969D01*
X003256Y006009D01*
X003217Y006105D01*
X003143Y006178D01*
X003048Y006217D01*
X002944Y006217D01*
X002849Y006178D01*
X002776Y006105D01*
X002736Y006009D01*
X002736Y005906D01*
X002736Y005947D02*
X002453Y005947D01*
X002475Y006025D02*
X002743Y006025D01*
X002775Y006104D02*
X002474Y006104D01*
X002442Y006182D02*
X002860Y006182D01*
X003132Y006182D02*
X003887Y006182D01*
X003812Y006261D02*
X002373Y006261D01*
X002796Y005790D02*
X001267Y005790D01*
X001267Y005711D02*
X002911Y005711D01*
X003082Y005711D02*
X003088Y005711D01*
X003085Y005633D02*
X001267Y005633D01*
X001267Y005554D02*
X003085Y005554D01*
X003106Y005476D02*
X002715Y005476D01*
X002702Y005481D02*
X002794Y005443D01*
X002864Y005373D01*
X002902Y005282D01*
X002913Y005286D01*
X003012Y005286D01*
X003104Y005248D01*
X003174Y005178D01*
X003212Y005086D01*
X003212Y004986D01*
X003174Y004894D01*
X003105Y004825D01*
X003143Y004786D01*
X003181Y004695D01*
X003181Y004595D01*
X003143Y004503D01*
X003073Y004433D01*
X002981Y004395D01*
X002881Y004395D01*
X002790Y004433D01*
X002719Y004503D01*
X002681Y004595D01*
X002681Y004695D01*
X002719Y004786D01*
X002789Y004856D01*
X002750Y004894D01*
X002713Y004985D01*
X002702Y004981D01*
X002603Y004981D01*
X002511Y005019D01*
X002440Y005089D01*
X002402Y005181D01*
X002402Y005281D01*
X002440Y005373D01*
X002511Y005443D01*
X002603Y005481D01*
X002702Y005481D01*
X002590Y005476D02*
X001947Y005476D01*
X001987Y005459D02*
X001892Y005499D01*
X001788Y005499D01*
X001693Y005459D01*
X001619Y005386D01*
X001580Y005290D01*
X001580Y005187D01*
X001619Y005091D01*
X001693Y005018D01*
X001788Y004979D01*
X001892Y004979D01*
X001987Y005018D01*
X002060Y005091D01*
X002100Y005187D01*
X002100Y005290D01*
X002060Y005386D01*
X001987Y005459D01*
X002049Y005397D02*
X002465Y005397D01*
X002418Y005319D02*
X002088Y005319D01*
X002100Y005240D02*
X002402Y005240D01*
X002410Y005162D02*
X002090Y005162D01*
X002052Y005083D02*
X002447Y005083D01*
X002545Y005005D02*
X001955Y005005D01*
X001725Y005005D02*
X001267Y005005D01*
X001267Y005083D02*
X001627Y005083D01*
X001590Y005162D02*
X001267Y005162D01*
X001267Y005240D02*
X001580Y005240D01*
X001592Y005319D02*
X001267Y005319D01*
X001267Y005397D02*
X001631Y005397D01*
X001733Y005476D02*
X001267Y005476D01*
X001267Y004926D02*
X002737Y004926D01*
X002781Y004848D02*
X001267Y004848D01*
X001267Y004769D02*
X002712Y004769D01*
X002681Y004691D02*
X001267Y004691D01*
X001267Y004612D02*
X002681Y004612D01*
X002707Y004534D02*
X001267Y004534D01*
X001267Y004455D02*
X002767Y004455D01*
X003095Y004455D02*
X003494Y004455D01*
X003494Y004408D02*
X003532Y004316D01*
X003602Y004245D01*
X003694Y004207D01*
X003793Y004207D01*
X003885Y004245D01*
X003956Y004316D01*
X003985Y004386D01*
X004023Y004370D01*
X004122Y004370D01*
X004214Y004408D01*
X004284Y004478D01*
X004322Y004570D01*
X004322Y004670D01*
X004284Y004761D01*
X004214Y004832D01*
X004122Y004870D01*
X004023Y004870D01*
X003931Y004832D01*
X003860Y004761D01*
X003832Y004691D01*
X003793Y004707D01*
X003694Y004707D01*
X003631Y004681D01*
X003664Y004760D01*
X003664Y004860D01*
X003626Y004951D01*
X003555Y005022D01*
X003463Y005060D01*
X003364Y005060D01*
X003272Y005022D01*
X003202Y004951D01*
X003164Y004860D01*
X003164Y004760D01*
X003202Y004668D01*
X003272Y004598D01*
X003364Y004560D01*
X003463Y004560D01*
X003526Y004586D01*
X003494Y004507D01*
X003494Y004408D01*
X003506Y004377D02*
X001267Y004377D01*
X001267Y004298D02*
X003549Y004298D01*
X003664Y004220D02*
X001267Y004220D01*
X001267Y004141D02*
X003965Y004141D01*
X003965Y004175D02*
X003965Y004075D01*
X004003Y003983D01*
X004073Y003913D01*
X004165Y003875D01*
X004265Y003875D01*
X004357Y003913D01*
X004427Y003983D01*
X004440Y004014D01*
X004529Y003977D01*
X004628Y003977D01*
X004720Y004015D01*
X004791Y004086D01*
X004829Y004178D01*
X004829Y004237D01*
X004888Y004237D01*
X004980Y004275D01*
X005051Y004346D01*
X005089Y004438D01*
X005089Y004537D01*
X005051Y004629D01*
X004980Y004699D01*
X004888Y004737D01*
X004789Y004737D01*
X004747Y004720D01*
X004747Y006169D01*
X004809Y006231D01*
X004847Y006323D01*
X004847Y006422D01*
X004809Y006514D01*
X004739Y006584D01*
X004647Y006622D01*
X004548Y006622D01*
X004456Y006584D01*
X004385Y006514D01*
X004347Y006422D01*
X004347Y006323D01*
X004385Y006231D01*
X004447Y006169D01*
X004447Y004746D01*
X004409Y004707D01*
X004409Y004411D01*
X004367Y004369D01*
X004354Y004338D01*
X004265Y004375D01*
X004165Y004375D01*
X004073Y004337D01*
X004003Y004266D01*
X003965Y004175D01*
X003984Y004220D02*
X003824Y004220D01*
X003938Y004298D02*
X004035Y004298D01*
X004006Y004377D02*
X003981Y004377D01*
X004139Y004377D02*
X004375Y004377D01*
X004409Y004455D02*
X004261Y004455D01*
X004307Y004534D02*
X004409Y004534D01*
X004409Y004612D02*
X004322Y004612D01*
X004314Y004691D02*
X004409Y004691D01*
X004447Y004769D02*
X004276Y004769D01*
X004175Y004848D02*
X004447Y004848D01*
X004447Y004926D02*
X003636Y004926D01*
X003664Y004848D02*
X003970Y004848D01*
X003868Y004769D02*
X003664Y004769D01*
X003654Y004691D02*
X003635Y004691D01*
X003505Y004534D02*
X003156Y004534D01*
X003181Y004612D02*
X003258Y004612D01*
X003192Y004691D02*
X003181Y004691D01*
X003164Y004769D02*
X003150Y004769D01*
X003164Y004848D02*
X003128Y004848D01*
X003188Y004926D02*
X003191Y004926D01*
X003212Y005005D02*
X003255Y005005D01*
X003212Y005083D02*
X004447Y005083D01*
X004447Y005005D02*
X003572Y005005D01*
X003779Y005240D02*
X004447Y005240D01*
X004447Y005162D02*
X003181Y005162D01*
X003112Y005240D02*
X003276Y005240D01*
X003198Y005319D02*
X002887Y005319D01*
X002840Y005397D02*
X003139Y005397D01*
X003249Y006025D02*
X003362Y006025D01*
X003217Y006104D02*
X004447Y006104D01*
X004447Y006025D02*
X003693Y006025D01*
X003821Y005947D02*
X004447Y005947D01*
X004447Y005868D02*
X003900Y005868D01*
X003934Y005790D02*
X004447Y005790D01*
X004447Y005711D02*
X003966Y005711D01*
X003970Y005633D02*
X004447Y005633D01*
X004447Y005554D02*
X003970Y005554D01*
X003949Y005476D02*
X004447Y005476D01*
X004447Y005397D02*
X003916Y005397D01*
X003857Y005319D02*
X004447Y005319D01*
X004747Y005319D02*
X006094Y005319D01*
X006087Y005302D02*
X006087Y005128D01*
X006046Y005145D01*
X005946Y005145D01*
X005855Y005107D01*
X005784Y005036D01*
X005746Y004945D01*
X005746Y004845D01*
X005784Y004753D01*
X005785Y004753D01*
X005430Y004638D01*
X005430Y004638D01*
X005097Y004395D01*
X004855Y004062D01*
X004727Y003671D01*
X004727Y002377D01*
X004805Y002242D01*
X004940Y002165D01*
X004999Y002165D01*
X004995Y002161D01*
X004969Y002098D01*
X004959Y002121D01*
X004889Y002192D01*
X004797Y002230D01*
X004698Y002230D01*
X004606Y002192D01*
X004535Y002121D01*
X004497Y002030D01*
X004497Y001930D01*
X004535Y001838D01*
X004606Y001768D01*
X004698Y001730D01*
X004797Y001730D01*
X004889Y001768D01*
X004959Y001838D01*
X004986Y001902D01*
X004995Y001878D01*
X005066Y001808D01*
X005158Y001770D01*
X005257Y001770D01*
X005349Y001808D01*
X005419Y001878D01*
X005457Y001970D01*
X005457Y002070D01*
X005419Y002161D01*
X005416Y002165D01*
X007115Y002165D01*
X007250Y002242D01*
X007250Y002242D01*
X007250Y002242D01*
X007327Y002377D01*
X007327Y003671D01*
X007200Y004062D01*
X007017Y004315D01*
X007075Y004339D01*
X007146Y004409D01*
X007184Y004501D01*
X007184Y004601D01*
X007146Y004693D01*
X007075Y004763D01*
X006983Y004801D01*
X006884Y004801D01*
X006792Y004763D01*
X006722Y004693D01*
X006684Y004601D01*
X006684Y004595D01*
X006625Y004638D01*
X006233Y004765D01*
X006213Y004765D01*
X006246Y004845D01*
X006246Y004874D01*
X006278Y004842D01*
X006440Y004775D01*
X006615Y004775D01*
X006777Y004842D01*
X006900Y004966D01*
X006967Y005127D01*
X006967Y005302D01*
X006900Y005464D01*
X006777Y005588D01*
X006711Y005615D01*
X006777Y005642D01*
X006900Y005766D01*
X006967Y005927D01*
X006967Y006102D01*
X006900Y006264D01*
X006777Y006388D01*
X006615Y006455D01*
X006440Y006455D01*
X006278Y006388D01*
X006154Y006264D01*
X006087Y006102D01*
X006087Y005927D01*
X006154Y005766D01*
X006278Y005642D01*
X006343Y005615D01*
X006278Y005588D01*
X006154Y005464D01*
X006087Y005302D01*
X006087Y005240D02*
X004747Y005240D01*
X004747Y005162D02*
X006087Y005162D01*
X006127Y005397D02*
X004747Y005397D01*
X004747Y005476D02*
X006166Y005476D01*
X006245Y005554D02*
X004747Y005554D01*
X004747Y005633D02*
X006300Y005633D01*
X006209Y005711D02*
X004747Y005711D01*
X004747Y005790D02*
X006144Y005790D01*
X006112Y005868D02*
X004747Y005868D01*
X004747Y005947D02*
X006087Y005947D01*
X006087Y006025D02*
X004747Y006025D01*
X004747Y006104D02*
X006088Y006104D01*
X006121Y006182D02*
X004761Y006182D01*
X004822Y006261D02*
X006153Y006261D01*
X006230Y006339D02*
X004847Y006339D01*
X004847Y006418D02*
X006351Y006418D01*
X006704Y006418D02*
X007436Y006418D01*
X007434Y006339D02*
X006825Y006339D01*
X006902Y006261D02*
X007456Y006261D01*
X007511Y006182D02*
X006934Y006182D01*
X006967Y006104D02*
X009219Y006104D01*
X009222Y006097D02*
X009292Y006027D01*
X009384Y005989D01*
X009483Y005989D01*
X009575Y006027D01*
X009646Y006097D01*
X009684Y006189D01*
X009684Y006288D01*
X009646Y006380D01*
X009575Y006450D01*
X009483Y006489D01*
X009384Y006489D01*
X009292Y006450D01*
X009222Y006380D01*
X009184Y006288D01*
X009184Y006189D01*
X009222Y006097D01*
X009186Y006182D02*
X009042Y006182D01*
X009132Y006261D02*
X009184Y006261D01*
X009164Y006339D02*
X009205Y006339D01*
X009167Y006418D02*
X009259Y006418D01*
X009167Y006496D02*
X010787Y006496D01*
X010787Y006418D02*
X009608Y006418D01*
X009663Y006339D02*
X010482Y006339D01*
X010384Y006261D02*
X009684Y006261D01*
X009681Y006182D02*
X010348Y006182D01*
X010340Y006104D02*
X009648Y006104D01*
X009572Y006025D02*
X010356Y006025D01*
X010403Y005947D02*
X008818Y005947D01*
X008777Y005988D02*
X008615Y006055D01*
X008440Y006055D01*
X008278Y005988D01*
X008154Y005864D01*
X008087Y005702D01*
X008087Y005527D01*
X008154Y005366D01*
X008278Y005242D01*
X008440Y005175D01*
X008615Y005175D01*
X008777Y005242D01*
X008900Y005366D01*
X008967Y005527D01*
X008967Y005702D01*
X008900Y005864D01*
X008777Y005988D01*
X008686Y006025D02*
X009295Y006025D01*
X008896Y005868D02*
X010164Y005868D01*
X010069Y005790D02*
X008931Y005790D01*
X008964Y005711D02*
X010034Y005711D01*
X010027Y005633D02*
X008967Y005633D01*
X008967Y005554D02*
X010044Y005554D01*
X010093Y005476D02*
X008946Y005476D01*
X008914Y005397D02*
X010222Y005397D01*
X010333Y005397D02*
X010402Y005397D01*
X010413Y005319D02*
X008854Y005319D01*
X008773Y005240D02*
X010453Y005240D01*
X010562Y005162D02*
X006967Y005162D01*
X006967Y005240D02*
X008282Y005240D01*
X008201Y005319D02*
X006961Y005319D01*
X006928Y005397D02*
X008141Y005397D01*
X008109Y005476D02*
X006889Y005476D01*
X006810Y005554D02*
X008087Y005554D01*
X008087Y005633D02*
X006755Y005633D01*
X006846Y005711D02*
X008091Y005711D01*
X008124Y005790D02*
X006910Y005790D01*
X006943Y005868D02*
X008159Y005868D01*
X008237Y005947D02*
X006967Y005947D01*
X006967Y006025D02*
X008369Y006025D01*
X008013Y006182D02*
X007856Y006182D01*
X007912Y006261D02*
X007923Y006261D01*
X007887Y006575D02*
X007826Y006575D01*
X007887Y006653D02*
X004149Y006653D01*
X004167Y006732D02*
X007575Y006732D01*
X007477Y006810D02*
X004167Y006810D01*
X004167Y006889D02*
X007441Y006889D01*
X007434Y006967D02*
X004167Y006967D01*
X004167Y007046D02*
X006477Y007046D01*
X006448Y007058D02*
X006540Y007020D01*
X006640Y007020D01*
X006732Y007058D01*
X006802Y007128D01*
X006840Y007220D01*
X006840Y007320D01*
X006802Y007411D01*
X006732Y007482D01*
X006640Y007520D01*
X006540Y007520D01*
X006448Y007482D01*
X006378Y007411D01*
X006340Y007320D01*
X006340Y007220D01*
X006378Y007128D01*
X006448Y007058D01*
X006382Y007124D02*
X004167Y007124D01*
X004167Y007203D02*
X006347Y007203D01*
X006340Y007281D02*
X004167Y007281D01*
X004167Y007360D02*
X006357Y007360D01*
X006405Y007438D02*
X004167Y007438D01*
X004167Y007517D02*
X006533Y007517D01*
X006647Y007517D02*
X007887Y007517D01*
X007887Y007595D02*
X004546Y007595D01*
X004515Y007582D02*
X004607Y007620D01*
X004677Y007691D01*
X004715Y007783D01*
X004715Y007882D01*
X004677Y007974D01*
X004607Y008044D01*
X004515Y008082D01*
X004415Y008082D01*
X004323Y008044D01*
X004253Y007974D01*
X004215Y007882D01*
X004215Y007783D01*
X004253Y007691D01*
X004323Y007620D01*
X004415Y007582D01*
X004515Y007582D01*
X004384Y007595D02*
X004167Y007595D01*
X004167Y007674D02*
X004270Y007674D01*
X004227Y007752D02*
X004167Y007752D01*
X004167Y007831D02*
X004215Y007831D01*
X004226Y007909D02*
X004167Y007909D01*
X004167Y007988D02*
X004267Y007988D01*
X004167Y008066D02*
X004377Y008066D01*
X004553Y008066D02*
X007887Y008066D01*
X007887Y007988D02*
X004663Y007988D01*
X004704Y007909D02*
X007887Y007909D01*
X007887Y007831D02*
X004715Y007831D01*
X004702Y007752D02*
X007887Y007752D01*
X007887Y007674D02*
X004660Y007674D01*
X004167Y008145D02*
X007887Y008145D01*
X007887Y008223D02*
X006603Y008223D01*
X006638Y008238D02*
X006708Y008308D01*
X006746Y008400D01*
X006746Y008500D01*
X006708Y008591D01*
X006638Y008662D01*
X006546Y008700D01*
X006446Y008700D01*
X006355Y008662D01*
X006284Y008591D01*
X006246Y008500D01*
X006246Y008400D01*
X006284Y008308D01*
X006355Y008238D01*
X006446Y008200D01*
X006546Y008200D01*
X006638Y008238D01*
X006702Y008302D02*
X007887Y008302D01*
X007887Y008380D02*
X006738Y008380D01*
X006746Y008459D02*
X007887Y008459D01*
X007887Y008537D02*
X006731Y008537D01*
X006684Y008616D02*
X007887Y008616D01*
X007887Y008694D02*
X006559Y008694D01*
X006433Y008694D02*
X005637Y008694D01*
X005637Y008665D02*
X005637Y008765D01*
X005599Y008856D01*
X005529Y008927D01*
X005437Y008965D01*
X005338Y008965D01*
X005246Y008927D01*
X005175Y008856D01*
X005137Y008765D01*
X005137Y008665D01*
X005175Y008573D01*
X005246Y008503D01*
X005338Y008465D01*
X005437Y008465D01*
X005529Y008503D01*
X005599Y008573D01*
X005637Y008665D01*
X005617Y008616D02*
X006309Y008616D01*
X006262Y008537D02*
X005563Y008537D01*
X005634Y008773D02*
X007887Y008773D01*
X007887Y008851D02*
X005601Y008851D01*
X005522Y008930D02*
X007887Y008930D01*
X007887Y009008D02*
X004534Y009008D01*
X004566Y009087D02*
X007887Y009087D01*
X007887Y009165D02*
X004569Y009165D01*
X004549Y009244D02*
X007887Y009244D01*
X007887Y009322D02*
X005902Y009322D01*
X005888Y009308D02*
X005958Y009378D01*
X005996Y009470D01*
X005996Y009570D01*
X005958Y009661D01*
X005888Y009732D01*
X005796Y009770D01*
X005696Y009770D01*
X005605Y009732D01*
X005534Y009661D01*
X005496Y009570D01*
X005496Y009470D01*
X005534Y009378D01*
X005605Y009308D01*
X005696Y009270D01*
X005796Y009270D01*
X005888Y009308D01*
X005967Y009401D02*
X007887Y009401D01*
X007887Y009479D02*
X005996Y009479D01*
X005996Y009558D02*
X007887Y009558D01*
X007887Y009636D02*
X005968Y009636D01*
X005905Y009715D02*
X007887Y009715D01*
X007887Y009793D02*
X001267Y009793D01*
X001267Y009715D02*
X002958Y009715D01*
X002729Y010343D02*
X002666Y010343D01*
X001267Y010500D02*
X008027Y010500D01*
X008027Y010578D02*
X001267Y010578D01*
X001267Y010657D02*
X008027Y010657D01*
X008027Y010735D02*
X006453Y010735D01*
X006525Y010814D02*
X008027Y010814D01*
X008027Y010892D02*
X006558Y010892D01*
X006559Y010971D02*
X008027Y010971D01*
X008027Y011049D02*
X006536Y011049D01*
X006165Y010735D02*
X001267Y010735D01*
X001267Y010814D02*
X006092Y010814D01*
X006060Y010892D02*
X001267Y010892D01*
X001267Y010971D02*
X006059Y010971D01*
X006081Y011049D02*
X001269Y011049D01*
X004097Y009715D02*
X005588Y009715D01*
X005524Y009636D02*
X004149Y009636D01*
X004167Y009558D02*
X005496Y009558D01*
X005496Y009479D02*
X004167Y009479D01*
X004167Y009401D02*
X004247Y009401D01*
X004370Y009401D02*
X005525Y009401D01*
X005590Y009322D02*
X004499Y009322D01*
X004461Y008930D02*
X005253Y008930D01*
X005173Y008851D02*
X004167Y008851D01*
X004167Y008773D02*
X005141Y008773D01*
X005137Y008694D02*
X004167Y008694D01*
X004167Y008616D02*
X005158Y008616D01*
X005211Y008537D02*
X004167Y008537D01*
X004167Y008459D02*
X006246Y008459D01*
X006254Y008380D02*
X004167Y008380D01*
X004167Y008302D02*
X006291Y008302D01*
X006390Y008223D02*
X004167Y008223D01*
X002887Y008145D02*
X001267Y008145D01*
X001629Y006653D02*
X002906Y006653D01*
X002958Y006575D02*
X001661Y006575D01*
X001662Y006496D02*
X003799Y006496D01*
X003777Y006418D02*
X001642Y006418D01*
X001590Y006339D02*
X003780Y006339D01*
X004168Y006182D02*
X004434Y006182D01*
X004373Y006261D02*
X004242Y006261D01*
X004275Y006339D02*
X004347Y006339D01*
X004347Y006418D02*
X004277Y006418D01*
X004256Y006496D02*
X004378Y006496D01*
X004446Y006575D02*
X004201Y006575D01*
X004748Y006575D02*
X007541Y006575D01*
X007468Y006496D02*
X004817Y006496D01*
X004747Y005083D02*
X005831Y005083D01*
X005771Y005005D02*
X004747Y005005D01*
X004747Y004926D02*
X005746Y004926D01*
X005746Y004848D02*
X004747Y004848D01*
X004747Y004769D02*
X005778Y004769D01*
X005594Y004691D02*
X004989Y004691D01*
X005057Y004612D02*
X005395Y004612D01*
X005287Y004534D02*
X005089Y004534D01*
X005089Y004455D02*
X005179Y004455D01*
X005097Y004395D02*
X005097Y004395D01*
X005097Y004395D01*
X005083Y004377D02*
X005063Y004377D01*
X005026Y004298D02*
X005003Y004298D01*
X004969Y004220D02*
X004829Y004220D01*
X004814Y004141D02*
X004912Y004141D01*
X004855Y004063D02*
X004768Y004063D01*
X004855Y004062D02*
X004855Y004062D01*
X004829Y003984D02*
X004645Y003984D01*
X004512Y003984D02*
X004427Y003984D01*
X004400Y003887D02*
X004300Y003887D01*
X004208Y003849D01*
X004138Y003779D01*
X004100Y003687D01*
X004100Y003588D01*
X004138Y003496D01*
X004170Y003464D01*
X004102Y003395D01*
X004064Y003303D01*
X004064Y003204D01*
X004102Y003112D01*
X004172Y003042D01*
X004262Y003004D01*
X004248Y003004D01*
X004156Y002966D01*
X004085Y002896D01*
X004047Y002804D01*
X004047Y002705D01*
X004085Y002613D01*
X004156Y002542D01*
X004248Y002504D01*
X004347Y002504D01*
X004439Y002542D01*
X004509Y002613D01*
X004547Y002705D01*
X004547Y002804D01*
X004509Y002896D01*
X004439Y002966D01*
X004349Y003004D01*
X004363Y003004D01*
X004455Y003042D01*
X004526Y003112D01*
X004564Y003204D01*
X004564Y003303D01*
X004526Y003395D01*
X004493Y003427D01*
X004562Y003496D01*
X004600Y003588D01*
X004600Y003687D01*
X004562Y003779D01*
X004492Y003849D01*
X004400Y003887D01*
X004339Y003906D02*
X004804Y003906D01*
X004778Y003827D02*
X004513Y003827D01*
X004574Y003749D02*
X004753Y003749D01*
X004727Y003670D02*
X004600Y003670D01*
X004600Y003592D02*
X004727Y003592D01*
X004727Y003513D02*
X004569Y003513D01*
X004501Y003435D02*
X004727Y003435D01*
X004727Y003356D02*
X004542Y003356D01*
X004564Y003278D02*
X004727Y003278D01*
X004727Y003199D02*
X004562Y003199D01*
X004529Y003121D02*
X004727Y003121D01*
X004727Y003042D02*
X004456Y003042D01*
X004441Y002964D02*
X004727Y002964D01*
X004727Y002885D02*
X004514Y002885D01*
X004546Y002807D02*
X004727Y002807D01*
X004727Y002728D02*
X004547Y002728D01*
X004525Y002650D02*
X004727Y002650D01*
X004727Y002571D02*
X004468Y002571D01*
X004727Y002493D02*
X002220Y002493D01*
X002220Y002414D02*
X004727Y002414D01*
X004751Y002336D02*
X002253Y002336D01*
X002261Y002257D02*
X004797Y002257D01*
X004805Y002242D02*
X004805Y002242D01*
X004805Y002242D01*
X004902Y002179D02*
X004915Y002179D01*
X004968Y002100D02*
X004970Y002100D01*
X004970Y001865D02*
X005009Y001865D01*
X004907Y001786D02*
X005118Y001786D01*
X005297Y001786D02*
X008007Y001786D01*
X008007Y001865D02*
X005406Y001865D01*
X005446Y001943D02*
X008033Y001943D01*
X008093Y002022D02*
X005457Y002022D01*
X005445Y002100D02*
X010787Y002100D01*
X010787Y002022D02*
X008421Y002022D01*
X008482Y001943D02*
X010787Y001943D01*
X010787Y001865D02*
X010040Y001865D01*
X009795Y001865D02*
X009680Y001865D01*
X009435Y001865D02*
X008507Y001865D01*
X008507Y001783D02*
X008482Y001722D01*
X009319Y001722D01*
X009345Y001786D01*
X009496Y001582D02*
X009557Y001645D01*
X009496Y001582D02*
X002371Y001582D01*
X002121Y001832D01*
X002121Y002270D01*
X002080Y002311D01*
X002080Y002499D01*
X001871Y002707D01*
X001642Y002807D02*
X001267Y002807D01*
X001267Y002885D02*
X001696Y002885D01*
X001636Y002964D02*
X001267Y002964D01*
X001267Y003042D02*
X001599Y003042D01*
X001590Y003121D02*
X001267Y003121D01*
X001267Y003199D02*
X001605Y003199D01*
X001651Y003278D02*
X001267Y003278D01*
X001267Y003356D02*
X001757Y003356D01*
X001712Y003435D02*
X001267Y003435D01*
X001267Y003513D02*
X001697Y003513D01*
X001707Y003592D02*
X001267Y003592D01*
X001267Y003670D02*
X001744Y003670D01*
X001847Y003749D02*
X001267Y003749D01*
X001267Y003827D02*
X002663Y003827D01*
X002665Y003830D02*
X002598Y003763D01*
X002562Y003675D01*
X002562Y003580D01*
X002598Y003492D01*
X002610Y003480D01*
X002598Y003468D01*
X002562Y003380D01*
X002562Y003285D01*
X002598Y003197D01*
X002610Y003185D01*
X002598Y003172D01*
X002562Y003085D01*
X002562Y002989D01*
X002598Y002902D01*
X002665Y002834D01*
X002753Y002798D01*
X002848Y002798D01*
X002936Y002834D01*
X002949Y002847D01*
X002961Y002834D01*
X003049Y002798D01*
X003144Y002798D01*
X003232Y002834D01*
X003244Y002847D01*
X003256Y002834D01*
X003344Y002798D01*
X003439Y002798D01*
X003527Y002834D01*
X003594Y002902D01*
X003630Y002989D01*
X003630Y003085D01*
X003594Y003172D01*
X003582Y003185D01*
X003594Y003197D01*
X003630Y003285D01*
X003630Y003380D01*
X003594Y003468D01*
X003582Y003480D01*
X003594Y003492D01*
X003630Y003580D01*
X003630Y003675D01*
X003594Y003763D01*
X003527Y003830D01*
X003439Y003867D01*
X003344Y003867D01*
X003256Y003830D01*
X003244Y003818D01*
X003232Y003830D01*
X003144Y003867D01*
X003049Y003867D01*
X002961Y003830D01*
X002949Y003818D01*
X002936Y003830D01*
X002848Y003867D01*
X002753Y003867D01*
X002665Y003830D01*
X002592Y003749D02*
X002048Y003749D01*
X002150Y003670D02*
X002562Y003670D01*
X002562Y003592D02*
X002188Y003592D01*
X002197Y003513D02*
X002589Y003513D01*
X002585Y003435D02*
X002183Y003435D01*
X002137Y003356D02*
X002562Y003356D01*
X002565Y003278D02*
X002029Y003278D01*
X002075Y003199D02*
X002597Y003199D01*
X002577Y003121D02*
X002090Y003121D01*
X002081Y003042D02*
X002562Y003042D01*
X002572Y002964D02*
X002044Y002964D01*
X002047Y002885D02*
X002615Y002885D01*
X002732Y002807D02*
X002101Y002807D01*
X002121Y002728D02*
X004047Y002728D01*
X004049Y002807D02*
X003460Y002807D01*
X003578Y002885D02*
X004081Y002885D01*
X004153Y002964D02*
X003620Y002964D01*
X003630Y003042D02*
X004171Y003042D01*
X004098Y003121D02*
X003615Y003121D01*
X003595Y003199D02*
X004066Y003199D01*
X004064Y003278D02*
X003628Y003278D01*
X003630Y003356D02*
X004086Y003356D01*
X004141Y003435D02*
X003608Y003435D01*
X003603Y003513D02*
X004131Y003513D01*
X004100Y003592D02*
X003630Y003592D01*
X003630Y003670D02*
X004100Y003670D01*
X004125Y003749D02*
X003600Y003749D01*
X003530Y003827D02*
X004186Y003827D01*
X004090Y003906D02*
X001267Y003906D01*
X001267Y003984D02*
X004003Y003984D01*
X003970Y004063D02*
X001267Y004063D01*
X001267Y002728D02*
X001621Y002728D01*
X001624Y002650D02*
X001267Y002650D01*
X001267Y002571D02*
X001657Y002571D01*
X001736Y002493D02*
X001267Y002493D01*
X001267Y002414D02*
X001660Y002414D01*
X001607Y002336D02*
X001267Y002336D01*
X001267Y002257D02*
X001587Y002257D01*
X001592Y002179D02*
X001267Y002179D01*
X001267Y002100D02*
X001624Y002100D01*
X001645Y002022D02*
X001267Y002022D01*
X001267Y001943D02*
X001602Y001943D01*
X001590Y001865D02*
X001587Y001865D01*
X001343Y001865D02*
X001267Y001865D01*
X002127Y002650D02*
X004070Y002650D01*
X004127Y002571D02*
X002205Y002571D01*
X002261Y002179D02*
X004593Y002179D01*
X004527Y002100D02*
X002261Y002100D01*
X002261Y002022D02*
X004497Y002022D01*
X004497Y001943D02*
X002261Y001943D01*
X002287Y001865D02*
X004524Y001865D01*
X004587Y001786D02*
X002365Y001786D01*
X002870Y002807D02*
X003027Y002807D01*
X003165Y002807D02*
X003323Y002807D01*
X003253Y003827D02*
X003235Y003827D01*
X002958Y003827D02*
X002939Y003827D01*
X006215Y004769D02*
X006807Y004769D01*
X006783Y004848D02*
X008169Y004848D01*
X008175Y004864D02*
X008137Y004772D01*
X008137Y004673D01*
X008175Y004581D01*
X008246Y004510D01*
X008338Y004472D01*
X008437Y004472D01*
X008529Y004510D01*
X008599Y004581D01*
X008637Y004673D01*
X008637Y004772D01*
X008599Y004864D01*
X008529Y004934D01*
X008437Y004972D01*
X008338Y004972D01*
X008246Y004934D01*
X008175Y004864D01*
X008238Y004926D02*
X006861Y004926D01*
X006917Y005005D02*
X010787Y005005D01*
X010787Y005083D02*
X006949Y005083D01*
X007060Y004769D02*
X008137Y004769D01*
X008137Y004691D02*
X007146Y004691D01*
X007179Y004612D02*
X008162Y004612D01*
X008222Y004534D02*
X007184Y004534D01*
X007165Y004455D02*
X010787Y004455D01*
X010787Y004377D02*
X007113Y004377D01*
X007029Y004298D02*
X010787Y004298D01*
X010787Y004220D02*
X007086Y004220D01*
X007143Y004141D02*
X010787Y004141D01*
X010787Y004063D02*
X007200Y004063D01*
X007226Y003984D02*
X010787Y003984D01*
X010787Y003906D02*
X007251Y003906D01*
X007277Y003827D02*
X008731Y003827D01*
X008761Y003857D02*
X008690Y003786D01*
X008652Y003695D01*
X008652Y003595D01*
X008690Y003503D01*
X008761Y003433D01*
X008853Y003395D01*
X008952Y003395D01*
X009044Y003433D01*
X009114Y003503D01*
X009152Y003595D01*
X009152Y003695D01*
X009114Y003786D01*
X009044Y003857D01*
X008952Y003895D01*
X008853Y003895D01*
X008761Y003857D01*
X008675Y003749D02*
X007302Y003749D01*
X007327Y003670D02*
X008652Y003670D01*
X008654Y003592D02*
X007327Y003592D01*
X007327Y003513D02*
X008686Y003513D01*
X008759Y003435D02*
X007327Y003435D01*
X007327Y003356D02*
X010787Y003356D01*
X010787Y003278D02*
X007857Y003278D01*
X007840Y003285D02*
X007740Y003285D01*
X007648Y003247D01*
X007578Y003176D01*
X007540Y003085D01*
X007540Y002985D01*
X007578Y002893D01*
X007630Y002841D01*
X007605Y002816D01*
X007567Y002725D01*
X007567Y002635D01*
X007553Y002635D01*
X007461Y002597D01*
X007390Y002526D01*
X007352Y002435D01*
X007352Y002335D01*
X007390Y002243D01*
X007461Y002173D01*
X007553Y002135D01*
X007652Y002135D01*
X007744Y002173D01*
X007814Y002243D01*
X007852Y002335D01*
X007852Y002425D01*
X007867Y002425D01*
X007959Y002463D01*
X008029Y002533D01*
X008067Y002625D01*
X008067Y002725D01*
X008029Y002816D01*
X007977Y002869D01*
X008002Y002893D01*
X008040Y002985D01*
X008040Y003085D01*
X008002Y003176D01*
X007932Y003247D01*
X007840Y003285D01*
X007723Y003278D02*
X007327Y003278D01*
X007327Y003199D02*
X007601Y003199D01*
X007555Y003121D02*
X007327Y003121D01*
X007327Y003042D02*
X007540Y003042D01*
X007549Y002964D02*
X007327Y002964D01*
X007327Y002885D02*
X007586Y002885D01*
X007601Y002807D02*
X007327Y002807D01*
X007327Y002728D02*
X007569Y002728D01*
X007567Y002650D02*
X007327Y002650D01*
X007327Y002571D02*
X007435Y002571D01*
X007377Y002493D02*
X007327Y002493D01*
X007327Y002414D02*
X007352Y002414D01*
X007352Y002336D02*
X007304Y002336D01*
X007258Y002257D02*
X007385Y002257D01*
X007455Y002179D02*
X007139Y002179D01*
X007750Y002179D02*
X010787Y002179D01*
X010787Y002257D02*
X007820Y002257D01*
X007852Y002336D02*
X010787Y002336D01*
X010787Y002414D02*
X007852Y002414D01*
X007989Y002493D02*
X010787Y002493D01*
X010787Y002571D02*
X009932Y002571D01*
X009919Y002558D02*
X009989Y002628D01*
X010027Y002720D01*
X010027Y002820D01*
X009989Y002911D01*
X009919Y002982D01*
X009827Y003020D01*
X009728Y003020D01*
X009636Y002982D01*
X009565Y002911D01*
X009527Y002820D01*
X009527Y002720D01*
X009565Y002628D01*
X009636Y002558D01*
X009728Y002520D01*
X009827Y002520D01*
X009919Y002558D01*
X009998Y002650D02*
X010787Y002650D01*
X010787Y002728D02*
X010027Y002728D01*
X010027Y002807D02*
X010787Y002807D01*
X010787Y002885D02*
X010000Y002885D01*
X009937Y002964D02*
X010787Y002964D01*
X010787Y003042D02*
X008040Y003042D01*
X008031Y002964D02*
X008743Y002964D01*
X008761Y002982D02*
X008690Y002911D01*
X008652Y002820D01*
X008652Y002720D01*
X008690Y002628D01*
X008761Y002558D01*
X008853Y002520D01*
X008952Y002520D01*
X009044Y002558D01*
X009114Y002628D01*
X009152Y002720D01*
X009152Y002820D01*
X009114Y002911D01*
X009044Y002982D01*
X008952Y003020D01*
X008853Y003020D01*
X008761Y002982D01*
X008680Y002885D02*
X007994Y002885D01*
X008033Y002807D02*
X008652Y002807D01*
X008652Y002728D02*
X008066Y002728D01*
X008067Y002650D02*
X008682Y002650D01*
X008747Y002571D02*
X008045Y002571D01*
X008025Y003121D02*
X010787Y003121D01*
X010787Y003199D02*
X007979Y003199D01*
X009046Y003435D02*
X009634Y003435D01*
X009636Y003433D02*
X009728Y003395D01*
X009827Y003395D01*
X009919Y003433D01*
X009989Y003503D01*
X010027Y003595D01*
X010027Y003695D01*
X009989Y003786D01*
X009919Y003857D01*
X009827Y003895D01*
X009728Y003895D01*
X009636Y003857D01*
X009565Y003786D01*
X009527Y003695D01*
X009527Y003595D01*
X009565Y003503D01*
X009636Y003433D01*
X009561Y003513D02*
X009119Y003513D01*
X009151Y003592D02*
X009529Y003592D01*
X009527Y003670D02*
X009152Y003670D01*
X009130Y003749D02*
X009550Y003749D01*
X009606Y003827D02*
X009073Y003827D01*
X008552Y004534D02*
X010787Y004534D01*
X010787Y004612D02*
X008612Y004612D01*
X008637Y004691D02*
X010787Y004691D01*
X010787Y004769D02*
X008637Y004769D01*
X008606Y004848D02*
X010787Y004848D01*
X010787Y004926D02*
X008537Y004926D01*
X009948Y003827D02*
X010787Y003827D01*
X010787Y003749D02*
X010005Y003749D01*
X010027Y003670D02*
X010787Y003670D01*
X010787Y003592D02*
X010026Y003592D01*
X009994Y003513D02*
X010787Y003513D01*
X010787Y003435D02*
X009921Y003435D01*
X009618Y002964D02*
X009062Y002964D01*
X009125Y002885D02*
X009555Y002885D01*
X009527Y002807D02*
X009152Y002807D01*
X009152Y002728D02*
X009527Y002728D01*
X009557Y002650D02*
X009123Y002650D01*
X009057Y002571D02*
X009622Y002571D01*
X010743Y005162D02*
X010787Y005162D01*
X010787Y005633D02*
X010731Y005633D01*
X010787Y005711D02*
X010520Y005711D01*
X010527Y005633D02*
X010574Y005633D01*
X010486Y005790D02*
X010787Y005790D01*
X010787Y005868D02*
X010651Y005868D01*
X010529Y005868D02*
X010391Y005868D01*
X010777Y005947D02*
X010787Y005947D01*
X010787Y006339D02*
X010698Y006339D01*
X010787Y006575D02*
X009167Y006575D01*
X009167Y006653D02*
X010787Y006653D01*
X010787Y006732D02*
X009959Y006732D01*
X010022Y006810D02*
X010787Y006810D01*
X010787Y006889D02*
X010047Y006889D01*
X010047Y006967D02*
X010787Y006967D01*
X010787Y007046D02*
X010047Y007046D01*
X010047Y007124D02*
X010787Y007124D01*
X010787Y007203D02*
X010047Y007203D01*
X010047Y007281D02*
X010580Y007281D01*
X010464Y007360D02*
X010047Y007360D01*
X010047Y007438D02*
X010421Y007438D01*
X010407Y007517D02*
X010047Y007517D01*
X010047Y007595D02*
X010418Y007595D01*
X010458Y007674D02*
X010047Y007674D01*
X010047Y007752D02*
X010565Y007752D01*
X010749Y007752D02*
X010787Y007752D01*
X010787Y007831D02*
X010047Y007831D01*
X010047Y007909D02*
X010787Y007909D01*
X010787Y007988D02*
X010018Y007988D01*
X009950Y008066D02*
X010787Y008066D01*
X010787Y008145D02*
X009167Y008145D01*
X009950Y008223D02*
X010787Y008223D01*
X010787Y008302D02*
X010018Y008302D01*
X010047Y008380D02*
X010787Y008380D01*
X010490Y008459D02*
X010047Y008459D01*
X010047Y008537D02*
X010431Y008537D01*
X010407Y008616D02*
X010047Y008616D01*
X010047Y008694D02*
X010407Y008694D01*
X010440Y008773D02*
X010047Y008773D01*
X010047Y008851D02*
X010510Y008851D01*
X010787Y008930D02*
X010047Y008930D01*
X010047Y009008D02*
X010787Y009008D01*
X010787Y009087D02*
X010047Y009087D01*
X010047Y009165D02*
X010787Y009165D01*
X010787Y009244D02*
X010047Y009244D01*
X010735Y007281D02*
X010787Y007281D01*
X007887Y007281D02*
X006840Y007281D01*
X006833Y007203D02*
X007623Y007203D01*
X007744Y007203D02*
X007887Y007203D01*
X007887Y007124D02*
X007870Y007124D01*
X007887Y007360D02*
X006823Y007360D01*
X006775Y007438D02*
X007887Y007438D01*
X007497Y007124D02*
X006798Y007124D01*
X006702Y007046D02*
X007450Y007046D01*
X007793Y006732D02*
X007887Y006732D01*
X006272Y004848D02*
X006246Y004848D01*
X006461Y004691D02*
X006721Y004691D01*
X006688Y004612D02*
X006660Y004612D01*
X006625Y004638D02*
X006625Y004638D01*
D13*
X001465Y001645D03*
X001840Y001864D03*
X001837Y002239D03*
X001871Y002707D03*
X002337Y002400D03*
X001840Y003114D03*
X001947Y003520D03*
X001827Y004520D03*
X002652Y005231D03*
X002962Y005036D03*
X002931Y004645D03*
X003414Y004810D03*
X003744Y004457D03*
X004072Y004620D03*
X004215Y004125D03*
X004579Y004227D03*
X004839Y004487D03*
X004350Y003637D03*
X004314Y003254D03*
X004297Y002754D03*
X004387Y001989D03*
X004747Y001980D03*
X005207Y002020D03*
X006409Y001832D03*
X007602Y002385D03*
X007817Y002675D03*
X007790Y003035D03*
X008902Y002770D03*
X008902Y003645D03*
X009777Y003645D03*
X009777Y002770D03*
X009917Y001645D03*
X009557Y001645D03*
X008257Y001832D03*
X006934Y004551D03*
X005996Y004895D03*
X005684Y006365D03*
X006590Y007270D03*
X006996Y007665D03*
X007684Y006957D03*
X007684Y006364D03*
X009434Y006239D03*
X010277Y005645D03*
X010652Y005395D03*
X010590Y006114D03*
X010657Y007520D03*
X010657Y008645D03*
X007590Y009502D03*
X006496Y008450D03*
X005387Y008715D03*
X005371Y007957D03*
X004465Y007832D03*
X004597Y006372D03*
X004027Y006395D03*
X002152Y005520D03*
X005746Y009520D03*
X006309Y010945D03*
X008387Y004722D03*
D14*
X004597Y004684D02*
X004597Y006372D01*
X004597Y004684D02*
X004559Y004645D01*
X004559Y004247D01*
X004579Y004227D01*
M02*
