G75*
%MOIN*%
%OFA0B0*%
%FSLAX24Y24*%
%IPPOS*%
%LPD*%
%AMOC8*
5,1,8,0,0,1.08239X$1,22.5*
%
%ADD10C,0.0278*%
%ADD11C,0.0240*%
%ADD12C,0.0080*%
%ADD13C,0.0100*%
%ADD14C,0.0300*%
D10*
X002801Y003037D03*
X003096Y003037D03*
X003391Y003037D03*
X003391Y003332D03*
X003096Y003332D03*
X003096Y003628D03*
X003391Y003628D03*
X002801Y003628D03*
X002801Y003332D03*
D11*
X001465Y001645D03*
X001840Y001864D03*
X001837Y002239D03*
X001871Y002707D03*
X002337Y002400D03*
X001840Y003114D03*
X001947Y003520D03*
X001827Y004520D03*
X001840Y005239D03*
X002215Y006051D03*
X002652Y005231D03*
X002962Y005036D03*
X002931Y004645D03*
X003414Y004810D03*
X003744Y004457D03*
X004072Y004620D03*
X004215Y004125D03*
X004579Y004227D03*
X004839Y004487D03*
X005996Y004895D03*
X006934Y004551D03*
X008387Y004722D03*
X009434Y006239D03*
X010277Y005645D03*
X010652Y005395D03*
X010590Y006114D03*
X010657Y007520D03*
X010657Y008645D03*
X007684Y006957D03*
X007684Y006364D03*
X006590Y007270D03*
X006996Y007665D03*
X006496Y008450D03*
X005387Y008715D03*
X005371Y007957D03*
X004465Y007832D03*
X004367Y009145D03*
X005746Y009520D03*
X007590Y009502D03*
X005684Y006365D03*
X004597Y006372D03*
X004077Y006375D03*
X002996Y005957D03*
X001402Y006520D03*
X001402Y007020D03*
X001559Y009364D03*
X002507Y010134D03*
X002887Y010134D03*
X007790Y003035D03*
X007817Y002675D03*
X007602Y002385D03*
X008257Y001832D03*
X009557Y001645D03*
X009917Y001645D03*
X006409Y001832D03*
X005207Y002020D03*
X004747Y001980D03*
X004387Y001989D03*
X004297Y002754D03*
D12*
X004077Y002728D02*
X002091Y002728D01*
X002091Y002685D02*
X002091Y002798D01*
X001964Y002926D01*
X002060Y003022D01*
X002060Y003205D01*
X001965Y003300D01*
X002039Y003300D01*
X002167Y003429D01*
X002167Y003611D01*
X002039Y003740D01*
X001856Y003740D01*
X001727Y003611D01*
X001727Y003429D01*
X001823Y003334D01*
X001749Y003334D01*
X001620Y003205D01*
X001620Y003022D01*
X001748Y002895D01*
X001651Y002798D01*
X001651Y002616D01*
X001780Y002487D01*
X001893Y002487D01*
X001922Y002459D01*
X001746Y002459D01*
X001617Y002330D01*
X001617Y002147D01*
X001715Y002050D01*
X001620Y001955D01*
X001620Y001801D01*
X001556Y001865D01*
X001374Y001865D01*
X001267Y001758D01*
X001267Y006344D01*
X001311Y006300D01*
X001494Y006300D01*
X001622Y006429D01*
X001622Y006611D01*
X001494Y006740D01*
X001311Y006740D01*
X001267Y006696D01*
X001267Y006844D01*
X001311Y006800D01*
X001494Y006800D01*
X001622Y006929D01*
X001622Y007111D01*
X001494Y007240D01*
X001311Y007240D01*
X001267Y007196D01*
X001267Y011045D01*
X001268Y011047D01*
X001269Y011050D01*
X001272Y011053D01*
X001275Y011055D01*
X001277Y011055D01*
X008027Y011055D01*
X008027Y010218D01*
X007813Y010004D01*
X007731Y009922D01*
X007731Y007177D01*
X007593Y007177D01*
X007464Y007048D01*
X007464Y006866D01*
X007593Y006737D01*
X007731Y006737D01*
X007731Y006584D01*
X007593Y006584D01*
X007464Y006455D01*
X007464Y006272D01*
X007593Y006144D01*
X007775Y006144D01*
X007850Y006218D01*
X007919Y006149D01*
X008001Y006067D01*
X008992Y006067D01*
X009214Y006289D01*
X009214Y006147D01*
X009343Y006019D01*
X009525Y006019D01*
X009654Y006147D01*
X009654Y006330D01*
X009525Y006459D01*
X009383Y006459D01*
X009460Y006536D01*
X009992Y006536D01*
X010148Y006692D01*
X010230Y006774D01*
X010230Y009270D01*
X010787Y009270D01*
X010787Y008826D01*
X010749Y008865D01*
X010566Y008865D01*
X010437Y008736D01*
X010437Y008554D01*
X010566Y008425D01*
X010749Y008425D01*
X010787Y008464D01*
X010787Y007701D01*
X010749Y007740D01*
X010566Y007740D01*
X010437Y007611D01*
X010437Y007429D01*
X010566Y007300D01*
X010749Y007300D01*
X010787Y007339D01*
X010787Y006227D01*
X010681Y006334D01*
X010499Y006334D01*
X010370Y006205D01*
X010370Y006022D01*
X010499Y005894D01*
X010681Y005894D01*
X010787Y006000D01*
X010787Y005571D01*
X010744Y005615D01*
X010561Y005615D01*
X010432Y005486D01*
X010432Y005304D01*
X010561Y005175D01*
X010744Y005175D01*
X010787Y005219D01*
X010787Y001545D01*
X010787Y001543D01*
X010786Y001539D01*
X010783Y001536D01*
X010779Y001535D01*
X010777Y001535D01*
X010119Y001535D01*
X010137Y001554D01*
X010137Y001736D01*
X010009Y001865D01*
X010787Y001865D01*
X010787Y001943D02*
X008458Y001943D01*
X008477Y001923D02*
X008349Y002052D01*
X008166Y002052D01*
X008037Y001923D01*
X008037Y001741D01*
X008056Y001722D01*
X002429Y001722D01*
X002261Y001890D01*
X002261Y002328D01*
X002220Y002369D01*
X002220Y002557D01*
X002138Y002639D01*
X002091Y002685D01*
X002127Y002650D02*
X004091Y002650D01*
X004077Y002663D02*
X004206Y002534D01*
X004389Y002534D01*
X004517Y002663D01*
X004517Y002845D01*
X004389Y002974D01*
X004206Y002974D01*
X004077Y002845D01*
X004077Y002663D01*
X004169Y002571D02*
X002205Y002571D01*
X002220Y002493D02*
X004727Y002493D01*
X004727Y002571D02*
X004426Y002571D01*
X004504Y002650D02*
X004727Y002650D01*
X004727Y002728D02*
X004517Y002728D01*
X004517Y002807D02*
X004727Y002807D01*
X004727Y002885D02*
X004478Y002885D01*
X004399Y002964D02*
X004727Y002964D01*
X004727Y003042D02*
X003630Y003042D01*
X003630Y003085D02*
X003594Y003172D01*
X003582Y003185D01*
X003594Y003197D01*
X003630Y003285D01*
X003630Y003380D01*
X003594Y003468D01*
X003582Y003480D01*
X003594Y003492D01*
X003630Y003580D01*
X003630Y003675D01*
X003594Y003763D01*
X003527Y003830D01*
X003439Y003867D01*
X003344Y003867D01*
X003256Y003830D01*
X003244Y003818D01*
X003232Y003830D01*
X003144Y003867D01*
X003049Y003867D01*
X002961Y003830D01*
X002949Y003818D01*
X002936Y003830D01*
X002848Y003867D01*
X002753Y003867D01*
X002665Y003830D01*
X002598Y003763D01*
X002562Y003675D01*
X002562Y003580D01*
X002598Y003492D01*
X002610Y003480D01*
X002598Y003468D01*
X002562Y003380D01*
X002562Y003285D01*
X002598Y003197D01*
X002610Y003185D01*
X002598Y003172D01*
X002562Y003085D01*
X002562Y002989D01*
X002598Y002902D01*
X002665Y002834D01*
X002753Y002798D01*
X002848Y002798D01*
X002936Y002834D01*
X002949Y002847D01*
X002961Y002834D01*
X003049Y002798D01*
X003144Y002798D01*
X003232Y002834D01*
X003244Y002847D01*
X003256Y002834D01*
X003344Y002798D01*
X003439Y002798D01*
X003527Y002834D01*
X003594Y002902D01*
X003630Y002989D01*
X003630Y003085D01*
X003615Y003121D02*
X004727Y003121D01*
X004727Y003199D02*
X003595Y003199D01*
X003628Y003278D02*
X004727Y003278D01*
X004727Y003356D02*
X003630Y003356D01*
X003608Y003435D02*
X004727Y003435D01*
X004727Y003513D02*
X003603Y003513D01*
X003630Y003592D02*
X004727Y003592D01*
X004727Y003670D02*
X003630Y003670D01*
X003600Y003749D02*
X004753Y003749D01*
X004778Y003827D02*
X003530Y003827D01*
X003253Y003827D02*
X003235Y003827D01*
X002958Y003827D02*
X002939Y003827D01*
X002663Y003827D02*
X001267Y003827D01*
X001267Y003749D02*
X002592Y003749D01*
X002562Y003670D02*
X002108Y003670D01*
X002167Y003592D02*
X002562Y003592D01*
X002589Y003513D02*
X002167Y003513D01*
X002167Y003435D02*
X002585Y003435D01*
X002562Y003356D02*
X002095Y003356D01*
X001987Y003278D02*
X002565Y003278D01*
X002597Y003199D02*
X002060Y003199D01*
X002060Y003121D02*
X002577Y003121D01*
X002562Y003042D02*
X002060Y003042D01*
X002001Y002964D02*
X002572Y002964D01*
X002615Y002885D02*
X002004Y002885D01*
X002083Y002807D02*
X002732Y002807D01*
X002870Y002807D02*
X003027Y002807D01*
X003165Y002807D02*
X003323Y002807D01*
X003460Y002807D02*
X004077Y002807D01*
X004117Y002885D02*
X003578Y002885D01*
X003620Y002964D02*
X004196Y002964D01*
X004727Y002414D02*
X002220Y002414D01*
X002253Y002336D02*
X004751Y002336D01*
X004727Y002377D02*
X004805Y002242D01*
X004940Y002165D01*
X005041Y002165D01*
X004987Y002111D01*
X004987Y001929D01*
X005116Y001800D01*
X005299Y001800D01*
X005427Y001929D01*
X005427Y002111D01*
X005374Y002165D01*
X007115Y002165D01*
X007250Y002242D01*
X007250Y002242D01*
X007250Y002242D01*
X007327Y002377D01*
X007327Y003671D01*
X007200Y004062D01*
X007200Y004062D01*
X007005Y004331D01*
X007025Y004331D01*
X007154Y004460D01*
X007154Y004642D01*
X007025Y004771D01*
X006843Y004771D01*
X006714Y004642D01*
X006714Y004573D01*
X006625Y004638D01*
X006233Y004765D01*
X006177Y004765D01*
X006216Y004804D01*
X006216Y004904D01*
X006278Y004842D01*
X006440Y004775D01*
X006615Y004775D01*
X006777Y004842D01*
X006900Y004966D01*
X006967Y005127D01*
X006967Y005302D01*
X006900Y005464D01*
X006777Y005588D01*
X006711Y005615D01*
X006777Y005642D01*
X006900Y005766D01*
X006967Y005927D01*
X006967Y006102D01*
X006900Y006264D01*
X006777Y006388D01*
X006615Y006455D01*
X006440Y006455D01*
X006278Y006388D01*
X006154Y006264D01*
X006087Y006102D01*
X006087Y005927D01*
X006154Y005766D01*
X006278Y005642D01*
X006343Y005615D01*
X006278Y005588D01*
X006154Y005464D01*
X006087Y005302D01*
X006087Y005127D01*
X006096Y005106D01*
X006087Y005115D01*
X005905Y005115D01*
X005776Y004986D01*
X005776Y004804D01*
X005817Y004763D01*
X005430Y004638D01*
X005430Y004638D01*
X005097Y004395D01*
X004855Y004062D01*
X004727Y003671D01*
X004727Y002377D01*
X004797Y002257D02*
X002261Y002257D01*
X002261Y002179D02*
X004635Y002179D01*
X004656Y002200D02*
X004527Y002071D01*
X004527Y001889D01*
X004656Y001760D01*
X004839Y001760D01*
X004967Y001889D01*
X004967Y002071D01*
X004839Y002200D01*
X004656Y002200D01*
X004557Y002100D02*
X002261Y002100D01*
X002261Y002022D02*
X004527Y002022D01*
X004527Y001943D02*
X002261Y001943D01*
X002287Y001865D02*
X004551Y001865D01*
X004630Y001786D02*
X002365Y001786D01*
X002371Y001582D02*
X002121Y001832D01*
X002121Y002270D01*
X002080Y002311D01*
X002080Y002499D01*
X001871Y002707D01*
X001651Y002728D02*
X001267Y002728D01*
X001267Y002650D02*
X001651Y002650D01*
X001696Y002571D02*
X001267Y002571D01*
X001267Y002493D02*
X001775Y002493D01*
X001702Y002414D02*
X001267Y002414D01*
X001267Y002336D02*
X001624Y002336D01*
X001617Y002257D02*
X001267Y002257D01*
X001267Y002179D02*
X001617Y002179D01*
X001665Y002100D02*
X001267Y002100D01*
X001267Y002022D02*
X001687Y002022D01*
X001620Y001943D02*
X001267Y001943D01*
X001267Y001865D02*
X001374Y001865D01*
X001295Y001786D02*
X001267Y001786D01*
X001556Y001865D02*
X001620Y001865D01*
X002371Y001582D02*
X009496Y001582D01*
X009557Y001645D01*
X009388Y001786D02*
X008477Y001786D01*
X008477Y001741D02*
X008477Y001923D01*
X008477Y001865D02*
X009466Y001865D01*
X009337Y001736D01*
X009337Y001722D01*
X008459Y001722D01*
X008477Y001741D01*
X008379Y002022D02*
X010787Y002022D01*
X010787Y002100D02*
X005427Y002100D01*
X005427Y002022D02*
X008136Y002022D01*
X008057Y001943D02*
X005427Y001943D01*
X005364Y001865D02*
X008037Y001865D01*
X008037Y001786D02*
X004865Y001786D01*
X004944Y001865D02*
X005051Y001865D01*
X004987Y001943D02*
X004967Y001943D01*
X004967Y002022D02*
X004987Y002022D01*
X004987Y002100D02*
X004938Y002100D01*
X004915Y002179D02*
X004860Y002179D01*
X004805Y002242D02*
X004805Y002242D01*
X004805Y002242D01*
X004804Y003906D02*
X004307Y003906D01*
X004306Y003905D02*
X004435Y004034D01*
X004435Y004060D01*
X004488Y004007D01*
X004670Y004007D01*
X004799Y004136D01*
X004799Y004267D01*
X004930Y004267D01*
X005059Y004396D01*
X005059Y004578D01*
X004930Y004707D01*
X004748Y004707D01*
X004747Y004707D01*
X004747Y006211D01*
X004817Y006281D01*
X004817Y006463D01*
X004689Y006592D01*
X004506Y006592D01*
X004377Y006463D01*
X004377Y006281D01*
X004447Y006211D01*
X004447Y004746D01*
X004409Y004707D01*
X004409Y004368D01*
X004359Y004318D01*
X004359Y004292D01*
X004306Y004345D01*
X004124Y004345D01*
X003995Y004216D01*
X003995Y004034D01*
X004124Y003905D01*
X004306Y003905D01*
X004386Y003984D02*
X004829Y003984D01*
X004855Y004062D02*
X004855Y004062D01*
X004855Y004063D02*
X004725Y004063D01*
X004799Y004141D02*
X004912Y004141D01*
X004969Y004220D02*
X004799Y004220D01*
X004961Y004298D02*
X005026Y004298D01*
X005039Y004377D02*
X005083Y004377D01*
X005097Y004395D02*
X005097Y004395D01*
X005097Y004395D01*
X005059Y004455D02*
X005179Y004455D01*
X005287Y004534D02*
X005059Y004534D01*
X005025Y004612D02*
X005395Y004612D01*
X005594Y004691D02*
X004946Y004691D01*
X004747Y004769D02*
X005811Y004769D01*
X005776Y004848D02*
X004747Y004848D01*
X004747Y004926D02*
X005776Y004926D01*
X005795Y005005D02*
X004747Y005005D01*
X004747Y005083D02*
X005874Y005083D01*
X006087Y005162D02*
X004747Y005162D01*
X004747Y005240D02*
X006087Y005240D01*
X006094Y005319D02*
X004747Y005319D01*
X004747Y005397D02*
X006127Y005397D01*
X006166Y005476D02*
X004747Y005476D01*
X004747Y005554D02*
X006245Y005554D01*
X006300Y005633D02*
X004747Y005633D01*
X004747Y005711D02*
X006209Y005711D01*
X006144Y005790D02*
X004747Y005790D01*
X004747Y005868D02*
X006112Y005868D01*
X006087Y005947D02*
X004747Y005947D01*
X004747Y006025D02*
X006087Y006025D01*
X006088Y006104D02*
X004747Y006104D01*
X004747Y006182D02*
X006121Y006182D01*
X006153Y006261D02*
X004797Y006261D01*
X004817Y006339D02*
X006230Y006339D01*
X006351Y006418D02*
X004817Y006418D01*
X004785Y006496D02*
X007505Y006496D01*
X007464Y006418D02*
X006704Y006418D01*
X006825Y006339D02*
X007464Y006339D01*
X007475Y006261D02*
X006902Y006261D01*
X006934Y006182D02*
X007554Y006182D01*
X007814Y006182D02*
X007886Y006182D01*
X007964Y006104D02*
X006967Y006104D01*
X006967Y006025D02*
X008369Y006025D01*
X008440Y006055D02*
X008278Y005988D01*
X008154Y005864D01*
X008087Y005702D01*
X008087Y005527D01*
X008154Y005366D01*
X008278Y005242D01*
X008440Y005175D01*
X008615Y005175D01*
X008777Y005242D01*
X008900Y005366D01*
X008967Y005527D01*
X008967Y005702D01*
X008900Y005864D01*
X008777Y005988D01*
X008615Y006055D01*
X008440Y006055D01*
X008237Y005947D02*
X006967Y005947D01*
X006943Y005868D02*
X008159Y005868D01*
X008124Y005790D02*
X006910Y005790D01*
X006846Y005711D02*
X008091Y005711D01*
X008087Y005633D02*
X006755Y005633D01*
X006810Y005554D02*
X008087Y005554D01*
X008109Y005476D02*
X006889Y005476D01*
X006928Y005397D02*
X008141Y005397D01*
X008201Y005319D02*
X006961Y005319D01*
X006967Y005240D02*
X008282Y005240D01*
X008296Y004942D02*
X008167Y004813D01*
X008167Y004631D01*
X008296Y004502D01*
X008479Y004502D01*
X008607Y004631D01*
X008607Y004813D01*
X008479Y004942D01*
X008296Y004942D01*
X008280Y004926D02*
X006861Y004926D01*
X006917Y005005D02*
X010787Y005005D01*
X010787Y005083D02*
X006949Y005083D01*
X006967Y005162D02*
X010787Y005162D01*
X010787Y004926D02*
X008495Y004926D01*
X008573Y004848D02*
X010787Y004848D01*
X010787Y004769D02*
X008607Y004769D01*
X008607Y004691D02*
X010787Y004691D01*
X010787Y004612D02*
X008589Y004612D01*
X008510Y004534D02*
X010787Y004534D01*
X010787Y004455D02*
X007149Y004455D01*
X007154Y004534D02*
X008265Y004534D01*
X008186Y004612D02*
X007154Y004612D01*
X007105Y004691D02*
X008167Y004691D01*
X008167Y004769D02*
X007027Y004769D01*
X006841Y004769D02*
X006182Y004769D01*
X006216Y004848D02*
X006272Y004848D01*
X006461Y004691D02*
X006762Y004691D01*
X006714Y004612D02*
X006660Y004612D01*
X006625Y004638D02*
X006625Y004638D01*
X006783Y004848D02*
X008202Y004848D01*
X008773Y005240D02*
X010496Y005240D01*
X010432Y005319D02*
X008854Y005319D01*
X008914Y005397D02*
X010432Y005397D01*
X010369Y005425D02*
X010497Y005554D01*
X010501Y005554D01*
X010497Y005554D02*
X010497Y005736D01*
X010369Y005865D01*
X010186Y005865D01*
X010057Y005736D01*
X010057Y005554D01*
X008967Y005554D01*
X008967Y005633D02*
X010057Y005633D01*
X010057Y005711D02*
X008964Y005711D01*
X008931Y005790D02*
X010111Y005790D01*
X010057Y005554D02*
X010186Y005425D01*
X010369Y005425D01*
X010420Y005476D02*
X010432Y005476D01*
X010497Y005633D02*
X010787Y005633D01*
X010787Y005711D02*
X010497Y005711D01*
X010444Y005790D02*
X010787Y005790D01*
X010787Y005868D02*
X008896Y005868D01*
X008818Y005947D02*
X010446Y005947D01*
X010370Y006025D02*
X009532Y006025D01*
X009610Y006104D02*
X010370Y006104D01*
X010370Y006182D02*
X009654Y006182D01*
X009654Y006261D02*
X010426Y006261D01*
X010754Y006261D02*
X010787Y006261D01*
X010787Y006339D02*
X009644Y006339D01*
X009566Y006418D02*
X010787Y006418D01*
X010787Y006496D02*
X009421Y006496D01*
X009214Y006261D02*
X009185Y006261D01*
X009214Y006182D02*
X009107Y006182D01*
X009028Y006104D02*
X009257Y006104D01*
X009336Y006025D02*
X008686Y006025D01*
X008946Y005476D02*
X010135Y005476D01*
X010734Y005947D02*
X010787Y005947D01*
X010787Y006575D02*
X010030Y006575D01*
X010109Y006653D02*
X010787Y006653D01*
X010787Y006732D02*
X010187Y006732D01*
X010230Y006810D02*
X010787Y006810D01*
X010787Y006889D02*
X010230Y006889D01*
X010230Y006967D02*
X010787Y006967D01*
X010787Y007046D02*
X010230Y007046D01*
X010230Y007124D02*
X010787Y007124D01*
X010787Y007203D02*
X010230Y007203D01*
X010230Y007281D02*
X010787Y007281D01*
X010506Y007360D02*
X010230Y007360D01*
X010230Y007438D02*
X010437Y007438D01*
X010437Y007517D02*
X010230Y007517D01*
X010230Y007595D02*
X010437Y007595D01*
X010500Y007674D02*
X010230Y007674D01*
X010230Y007752D02*
X010787Y007752D01*
X010787Y007831D02*
X010230Y007831D01*
X010230Y007909D02*
X010787Y007909D01*
X010787Y007988D02*
X010230Y007988D01*
X010230Y008066D02*
X010787Y008066D01*
X010787Y008145D02*
X010230Y008145D01*
X010230Y008223D02*
X010787Y008223D01*
X010787Y008302D02*
X010230Y008302D01*
X010230Y008380D02*
X010787Y008380D01*
X010783Y008459D02*
X010787Y008459D01*
X010532Y008459D02*
X010230Y008459D01*
X010230Y008537D02*
X010454Y008537D01*
X010437Y008616D02*
X010230Y008616D01*
X010230Y008694D02*
X010437Y008694D01*
X010474Y008773D02*
X010230Y008773D01*
X010230Y008851D02*
X010553Y008851D01*
X010762Y008851D02*
X010787Y008851D01*
X010787Y008930D02*
X010230Y008930D01*
X010230Y009008D02*
X010787Y009008D01*
X010787Y009087D02*
X010230Y009087D01*
X010230Y009165D02*
X010787Y009165D01*
X010787Y009244D02*
X010230Y009244D01*
X008027Y010264D02*
X003068Y010264D01*
X003107Y010225D02*
X002979Y010354D01*
X002796Y010354D01*
X002697Y010255D01*
X002599Y010354D01*
X002416Y010354D01*
X002287Y010225D01*
X002287Y010042D01*
X002416Y009914D01*
X002599Y009914D01*
X002697Y010012D01*
X002796Y009914D01*
X002979Y009914D01*
X003107Y010042D01*
X003107Y010225D01*
X003107Y010186D02*
X007995Y010186D01*
X007917Y010107D02*
X003107Y010107D01*
X003094Y010029D02*
X007838Y010029D01*
X007760Y009950D02*
X004076Y009950D01*
X004054Y009972D02*
X004136Y009890D01*
X004324Y009703D01*
X004324Y009365D01*
X004459Y009365D01*
X004587Y009236D01*
X004587Y009054D01*
X004459Y008925D01*
X004324Y008925D01*
X004324Y008002D01*
X004374Y008052D01*
X004556Y008052D01*
X004685Y007923D01*
X004685Y007741D01*
X004556Y007612D01*
X004374Y007612D01*
X004324Y007662D01*
X004324Y006618D01*
X004242Y006536D01*
X004234Y006529D01*
X004297Y006466D01*
X004297Y006284D01*
X004169Y006155D01*
X003986Y006155D01*
X003857Y006284D01*
X003857Y006317D01*
X002969Y006317D01*
X002887Y006399D01*
X002782Y006505D01*
X002157Y006505D01*
X002075Y006587D01*
X001825Y006837D01*
X001825Y009515D01*
X001907Y009597D01*
X002063Y009754D01*
X002844Y009754D01*
X003063Y009972D01*
X004054Y009972D01*
X004155Y009872D02*
X007731Y009872D01*
X007731Y009793D02*
X004233Y009793D01*
X004312Y009715D02*
X005630Y009715D01*
X005655Y009740D02*
X005526Y009611D01*
X005526Y009429D01*
X005655Y009300D01*
X005837Y009300D01*
X005966Y009429D01*
X005966Y009611D01*
X005837Y009740D01*
X005655Y009740D01*
X005552Y009636D02*
X004324Y009636D01*
X004324Y009558D02*
X005526Y009558D01*
X005526Y009479D02*
X004324Y009479D01*
X004324Y009401D02*
X005554Y009401D01*
X005633Y009322D02*
X004501Y009322D01*
X004580Y009244D02*
X007731Y009244D01*
X007731Y009322D02*
X005860Y009322D01*
X005938Y009401D02*
X007731Y009401D01*
X007731Y009479D02*
X005966Y009479D01*
X005966Y009558D02*
X007731Y009558D01*
X007731Y009636D02*
X005941Y009636D01*
X005862Y009715D02*
X007731Y009715D01*
X007731Y009165D02*
X004587Y009165D01*
X004587Y009087D02*
X007731Y009087D01*
X007731Y009008D02*
X004542Y009008D01*
X004464Y008930D02*
X005291Y008930D01*
X005296Y008935D02*
X005167Y008806D01*
X005167Y008624D01*
X005296Y008495D01*
X005479Y008495D01*
X005607Y008624D01*
X005607Y008806D01*
X005479Y008935D01*
X005296Y008935D01*
X005213Y008851D02*
X004324Y008851D01*
X004324Y008773D02*
X005167Y008773D01*
X005167Y008694D02*
X004324Y008694D01*
X004324Y008616D02*
X005175Y008616D01*
X005254Y008537D02*
X004324Y008537D01*
X004324Y008459D02*
X006276Y008459D01*
X006276Y008537D02*
X005521Y008537D01*
X005600Y008616D02*
X006351Y008616D01*
X006405Y008670D02*
X006276Y008541D01*
X006276Y008359D01*
X006405Y008230D01*
X006587Y008230D01*
X006716Y008359D01*
X006716Y008541D01*
X006587Y008670D01*
X006405Y008670D01*
X006641Y008616D02*
X007731Y008616D01*
X007731Y008694D02*
X005607Y008694D01*
X005607Y008773D02*
X007731Y008773D01*
X007731Y008851D02*
X005562Y008851D01*
X005484Y008930D02*
X007731Y008930D01*
X007731Y008537D02*
X006716Y008537D01*
X006716Y008459D02*
X007731Y008459D01*
X007731Y008380D02*
X006716Y008380D01*
X006659Y008302D02*
X007731Y008302D01*
X007731Y008223D02*
X004324Y008223D01*
X004324Y008145D02*
X007731Y008145D01*
X007731Y008066D02*
X004324Y008066D01*
X004324Y008302D02*
X006333Y008302D01*
X006276Y008380D02*
X004324Y008380D01*
X004621Y007988D02*
X007731Y007988D01*
X007731Y007909D02*
X004685Y007909D01*
X004685Y007831D02*
X007731Y007831D01*
X007731Y007752D02*
X004685Y007752D01*
X004618Y007674D02*
X007731Y007674D01*
X007731Y007595D02*
X004324Y007595D01*
X004324Y007517D02*
X007731Y007517D01*
X007731Y007438D02*
X006733Y007438D01*
X006681Y007490D02*
X006499Y007490D01*
X006370Y007361D01*
X006370Y007179D01*
X006499Y007050D01*
X006681Y007050D01*
X006810Y007179D01*
X006810Y007361D01*
X006681Y007490D01*
X006810Y007360D02*
X007731Y007360D01*
X007731Y007281D02*
X006810Y007281D01*
X006810Y007203D02*
X007731Y007203D01*
X007540Y007124D02*
X006756Y007124D01*
X006424Y007124D02*
X004324Y007124D01*
X004324Y007046D02*
X007464Y007046D01*
X007464Y006967D02*
X004324Y006967D01*
X004324Y006889D02*
X007464Y006889D01*
X007520Y006810D02*
X004324Y006810D01*
X004324Y006732D02*
X007731Y006732D01*
X007731Y006653D02*
X004324Y006653D01*
X004280Y006575D02*
X004489Y006575D01*
X004410Y006496D02*
X004267Y006496D01*
X004297Y006418D02*
X004377Y006418D01*
X004377Y006339D02*
X004297Y006339D01*
X004275Y006261D02*
X004398Y006261D01*
X004447Y006182D02*
X004196Y006182D01*
X003959Y006182D02*
X002395Y006182D01*
X002435Y006142D02*
X002306Y006271D01*
X002124Y006271D01*
X001995Y006142D01*
X001995Y005960D01*
X002124Y005831D01*
X002306Y005831D01*
X002435Y005960D01*
X002435Y006142D01*
X002435Y006104D02*
X002832Y006104D01*
X002776Y006048D02*
X002776Y005866D01*
X002905Y005737D01*
X003087Y005737D01*
X003108Y005758D01*
X003085Y005703D01*
X003085Y005527D01*
X003152Y005364D01*
X003277Y005240D01*
X003439Y005172D01*
X003615Y005172D01*
X003778Y005240D01*
X003903Y005364D01*
X003970Y005527D01*
X003970Y005703D01*
X003903Y005865D01*
X003778Y005990D01*
X003615Y006057D01*
X003439Y006057D01*
X003277Y005990D01*
X003216Y005929D01*
X003216Y006048D01*
X003087Y006177D01*
X002905Y006177D01*
X002776Y006048D01*
X002776Y006025D02*
X002435Y006025D01*
X002422Y005947D02*
X002776Y005947D01*
X002776Y005868D02*
X002343Y005868D01*
X002087Y005868D02*
X001267Y005868D01*
X001267Y005790D02*
X002853Y005790D01*
X003088Y005711D02*
X001267Y005711D01*
X001267Y005633D02*
X003085Y005633D01*
X003085Y005554D02*
X001267Y005554D01*
X001267Y005476D02*
X003106Y005476D01*
X003139Y005397D02*
X002797Y005397D01*
X002744Y005451D02*
X002561Y005451D01*
X002432Y005322D01*
X002432Y005140D01*
X002561Y005011D01*
X002742Y005011D01*
X002742Y004945D01*
X002831Y004856D01*
X002711Y004736D01*
X002711Y004554D01*
X002840Y004425D01*
X003022Y004425D01*
X003151Y004554D01*
X003151Y004736D01*
X003062Y004825D01*
X003182Y004945D01*
X003182Y005127D01*
X003054Y005256D01*
X002872Y005256D01*
X002872Y005322D01*
X002744Y005451D01*
X002872Y005319D02*
X003198Y005319D01*
X003276Y005240D02*
X003069Y005240D01*
X003148Y005162D02*
X004447Y005162D01*
X004447Y005240D02*
X003779Y005240D01*
X003857Y005319D02*
X004447Y005319D01*
X004447Y005397D02*
X003916Y005397D01*
X003949Y005476D02*
X004447Y005476D01*
X004447Y005554D02*
X003970Y005554D01*
X003970Y005633D02*
X004447Y005633D01*
X004447Y005711D02*
X003966Y005711D01*
X003934Y005790D02*
X004447Y005790D01*
X004447Y005868D02*
X003900Y005868D01*
X003821Y005947D02*
X004447Y005947D01*
X004447Y006025D02*
X003693Y006025D01*
X003880Y006261D02*
X002316Y006261D01*
X002114Y006261D02*
X001267Y006261D01*
X001267Y006339D02*
X001272Y006339D01*
X001267Y006182D02*
X002035Y006182D01*
X001995Y006104D02*
X001267Y006104D01*
X001267Y006025D02*
X001995Y006025D01*
X002008Y005947D02*
X001267Y005947D01*
X001533Y006339D02*
X002947Y006339D01*
X002869Y006418D02*
X001612Y006418D01*
X001622Y006496D02*
X002790Y006496D01*
X003161Y006104D02*
X004447Y006104D01*
X004706Y006575D02*
X007584Y006575D01*
X006447Y007438D02*
X004324Y007438D01*
X004324Y007360D02*
X006370Y007360D01*
X006370Y007281D02*
X004324Y007281D01*
X004324Y007203D02*
X006370Y007203D01*
X004447Y005083D02*
X003182Y005083D01*
X003182Y005005D02*
X003298Y005005D01*
X003323Y005030D02*
X003194Y004901D01*
X003194Y004719D01*
X003323Y004590D01*
X003505Y004590D01*
X003634Y004719D01*
X003634Y004901D01*
X003505Y005030D01*
X003323Y005030D01*
X003219Y004926D02*
X003164Y004926D01*
X003194Y004848D02*
X003085Y004848D01*
X003118Y004769D02*
X003194Y004769D01*
X003222Y004691D02*
X003151Y004691D01*
X003151Y004612D02*
X003300Y004612D01*
X003131Y004534D02*
X003524Y004534D01*
X003524Y004548D02*
X003524Y004366D01*
X003653Y004237D01*
X003835Y004237D01*
X003964Y004366D01*
X003964Y004417D01*
X003981Y004400D01*
X004164Y004400D01*
X004292Y004529D01*
X004292Y004711D01*
X004164Y004840D01*
X003981Y004840D01*
X003852Y004711D01*
X003852Y004660D01*
X003835Y004677D01*
X003653Y004677D01*
X003524Y004548D01*
X003527Y004612D02*
X003588Y004612D01*
X003606Y004691D02*
X003852Y004691D01*
X003911Y004769D02*
X003634Y004769D01*
X003634Y004848D02*
X004447Y004848D01*
X004447Y004926D02*
X003608Y004926D01*
X003530Y005005D02*
X004447Y005005D01*
X004447Y004769D02*
X004234Y004769D01*
X004292Y004691D02*
X004409Y004691D01*
X004409Y004612D02*
X004292Y004612D01*
X004292Y004534D02*
X004409Y004534D01*
X004409Y004455D02*
X004219Y004455D01*
X004409Y004377D02*
X003964Y004377D01*
X003896Y004298D02*
X004077Y004298D01*
X003999Y004220D02*
X001267Y004220D01*
X001267Y004298D02*
X003592Y004298D01*
X003524Y004377D02*
X001267Y004377D01*
X001267Y004455D02*
X002810Y004455D01*
X002731Y004534D02*
X001267Y004534D01*
X001267Y004612D02*
X002711Y004612D01*
X002711Y004691D02*
X001267Y004691D01*
X001267Y004769D02*
X002745Y004769D01*
X002823Y004848D02*
X001267Y004848D01*
X001267Y004926D02*
X002761Y004926D01*
X002742Y005005D02*
X001267Y005005D01*
X001267Y005083D02*
X001684Y005083D01*
X001620Y005147D02*
X001749Y005019D01*
X001931Y005019D01*
X002060Y005147D01*
X002060Y005330D01*
X001931Y005459D01*
X001749Y005459D01*
X001620Y005330D01*
X001620Y005147D01*
X001620Y005162D02*
X001267Y005162D01*
X001267Y005240D02*
X001620Y005240D01*
X001620Y005319D02*
X001267Y005319D01*
X001267Y005397D02*
X001688Y005397D01*
X001992Y005397D02*
X002508Y005397D01*
X002432Y005319D02*
X002060Y005319D01*
X002060Y005240D02*
X002432Y005240D01*
X002432Y005162D02*
X002060Y005162D01*
X001996Y005083D02*
X002489Y005083D01*
X003053Y004455D02*
X003524Y004455D01*
X003995Y004141D02*
X001267Y004141D01*
X001267Y004063D02*
X003995Y004063D01*
X004044Y003984D02*
X001267Y003984D01*
X001267Y003906D02*
X004123Y003906D01*
X004353Y004298D02*
X004359Y004298D01*
X003362Y006025D02*
X003216Y006025D01*
X003216Y005947D02*
X003234Y005947D01*
X002087Y006575D02*
X001622Y006575D01*
X001580Y006653D02*
X002008Y006653D01*
X001930Y006732D02*
X001502Y006732D01*
X001504Y006810D02*
X001851Y006810D01*
X001825Y006889D02*
X001583Y006889D01*
X001622Y006967D02*
X001825Y006967D01*
X001825Y007046D02*
X001622Y007046D01*
X001609Y007124D02*
X001825Y007124D01*
X001825Y007203D02*
X001531Y007203D01*
X001274Y007203D02*
X001267Y007203D01*
X001267Y007281D02*
X001825Y007281D01*
X001825Y007360D02*
X001267Y007360D01*
X001267Y007438D02*
X001825Y007438D01*
X001825Y007517D02*
X001267Y007517D01*
X001267Y007595D02*
X001825Y007595D01*
X001825Y007674D02*
X001267Y007674D01*
X001267Y007752D02*
X001825Y007752D01*
X001825Y007831D02*
X001267Y007831D01*
X001267Y007909D02*
X001825Y007909D01*
X001825Y007988D02*
X001267Y007988D01*
X001267Y008066D02*
X001825Y008066D01*
X001825Y008145D02*
X001267Y008145D01*
X001267Y008223D02*
X001825Y008223D01*
X001825Y008302D02*
X001267Y008302D01*
X001267Y008380D02*
X001825Y008380D01*
X001825Y008459D02*
X001267Y008459D01*
X001267Y008537D02*
X001825Y008537D01*
X001825Y008616D02*
X001267Y008616D01*
X001267Y008694D02*
X001825Y008694D01*
X001825Y008773D02*
X001267Y008773D01*
X001267Y008851D02*
X001825Y008851D01*
X001825Y008930D02*
X001267Y008930D01*
X001267Y009008D02*
X001825Y009008D01*
X001825Y009087D02*
X001267Y009087D01*
X001267Y009165D02*
X001446Y009165D01*
X001468Y009144D02*
X001339Y009272D01*
X001339Y009455D01*
X001468Y009584D01*
X001650Y009584D01*
X001779Y009455D01*
X001779Y009272D01*
X001650Y009144D01*
X001468Y009144D01*
X001367Y009244D02*
X001267Y009244D01*
X001267Y009322D02*
X001339Y009322D01*
X001339Y009401D02*
X001267Y009401D01*
X001267Y009479D02*
X001363Y009479D01*
X001442Y009558D02*
X001267Y009558D01*
X001267Y009636D02*
X001946Y009636D01*
X001867Y009558D02*
X001676Y009558D01*
X001754Y009479D02*
X001825Y009479D01*
X001825Y009401D02*
X001779Y009401D01*
X001779Y009322D02*
X001825Y009322D01*
X001825Y009244D02*
X001750Y009244D01*
X001825Y009165D02*
X001672Y009165D01*
X002024Y009715D02*
X001267Y009715D01*
X001267Y009793D02*
X002884Y009793D01*
X002963Y009872D02*
X001267Y009872D01*
X001267Y009950D02*
X002380Y009950D01*
X002301Y010029D02*
X001267Y010029D01*
X001267Y010107D02*
X002287Y010107D01*
X002287Y010186D02*
X001267Y010186D01*
X001267Y010264D02*
X002327Y010264D01*
X002406Y010343D02*
X001267Y010343D01*
X001267Y010421D02*
X008027Y010421D01*
X008027Y010343D02*
X002989Y010343D01*
X002786Y010343D02*
X002609Y010343D01*
X002688Y010264D02*
X002707Y010264D01*
X002760Y009950D02*
X002635Y009950D01*
X003015Y009950D02*
X003041Y009950D01*
X001267Y010500D02*
X008027Y010500D01*
X008027Y010578D02*
X001267Y010578D01*
X001267Y010657D02*
X008027Y010657D01*
X008027Y010735D02*
X001267Y010735D01*
X001267Y010814D02*
X008027Y010814D01*
X008027Y010892D02*
X001267Y010892D01*
X001267Y010971D02*
X008027Y010971D01*
X008027Y011049D02*
X001269Y011049D01*
X001267Y006810D02*
X001301Y006810D01*
X001303Y006732D02*
X001267Y006732D01*
X001267Y003670D02*
X001787Y003670D01*
X001727Y003592D02*
X001267Y003592D01*
X001267Y003513D02*
X001727Y003513D01*
X001727Y003435D02*
X001267Y003435D01*
X001267Y003356D02*
X001800Y003356D01*
X001693Y003278D02*
X001267Y003278D01*
X001267Y003199D02*
X001620Y003199D01*
X001620Y003121D02*
X001267Y003121D01*
X001267Y003042D02*
X001620Y003042D01*
X001679Y002964D02*
X001267Y002964D01*
X001267Y002885D02*
X001738Y002885D01*
X001660Y002807D02*
X001267Y002807D01*
X007139Y002179D02*
X007497Y002179D01*
X007511Y002165D02*
X007694Y002165D01*
X007822Y002294D01*
X007822Y002455D01*
X007909Y002455D01*
X008037Y002584D01*
X008037Y002766D01*
X007935Y002869D01*
X008010Y002944D01*
X008010Y003126D01*
X007881Y003255D01*
X007699Y003255D01*
X007570Y003126D01*
X007570Y002944D01*
X007673Y002841D01*
X007597Y002766D01*
X007597Y002605D01*
X007511Y002605D01*
X007382Y002476D01*
X007382Y002294D01*
X007511Y002165D01*
X007419Y002257D02*
X007258Y002257D01*
X007304Y002336D02*
X007382Y002336D01*
X007382Y002414D02*
X007327Y002414D01*
X007327Y002493D02*
X007399Y002493D01*
X007327Y002571D02*
X007478Y002571D01*
X007597Y002650D02*
X007327Y002650D01*
X007327Y002728D02*
X007597Y002728D01*
X007638Y002807D02*
X007327Y002807D01*
X007327Y002885D02*
X007628Y002885D01*
X007570Y002964D02*
X007327Y002964D01*
X007327Y003042D02*
X007570Y003042D01*
X007570Y003121D02*
X007327Y003121D01*
X007327Y003199D02*
X007643Y003199D01*
X007937Y003199D02*
X010787Y003199D01*
X010787Y003121D02*
X008010Y003121D01*
X008010Y003042D02*
X010787Y003042D01*
X010787Y002964D02*
X009937Y002964D01*
X009919Y002982D02*
X009827Y003020D01*
X009728Y003020D01*
X009636Y002982D01*
X009565Y002911D01*
X009527Y002820D01*
X009527Y002720D01*
X009565Y002628D01*
X009636Y002558D01*
X009728Y002520D01*
X009827Y002520D01*
X009919Y002558D01*
X009989Y002628D01*
X010027Y002720D01*
X010027Y002820D01*
X009989Y002911D01*
X009919Y002982D01*
X010000Y002885D02*
X010787Y002885D01*
X010787Y002807D02*
X010027Y002807D01*
X010027Y002728D02*
X010787Y002728D01*
X010787Y002650D02*
X009998Y002650D01*
X009932Y002571D02*
X010787Y002571D01*
X010787Y002493D02*
X007947Y002493D01*
X008025Y002571D02*
X008747Y002571D01*
X008761Y002558D02*
X008853Y002520D01*
X008952Y002520D01*
X009044Y002558D01*
X009114Y002628D01*
X009152Y002720D01*
X009152Y002820D01*
X009114Y002911D01*
X009044Y002982D01*
X008952Y003020D01*
X008853Y003020D01*
X008761Y002982D01*
X008690Y002911D01*
X008652Y002820D01*
X008652Y002720D01*
X008690Y002628D01*
X008761Y002558D01*
X008682Y002650D02*
X008037Y002650D01*
X008037Y002728D02*
X008652Y002728D01*
X008652Y002807D02*
X007997Y002807D01*
X007952Y002885D02*
X008680Y002885D01*
X008743Y002964D02*
X008010Y002964D01*
X007822Y002414D02*
X010787Y002414D01*
X010787Y002336D02*
X007822Y002336D01*
X007786Y002257D02*
X010787Y002257D01*
X010787Y002179D02*
X007708Y002179D01*
X007327Y003278D02*
X010787Y003278D01*
X010787Y003356D02*
X007327Y003356D01*
X007327Y003435D02*
X008759Y003435D01*
X008761Y003433D02*
X008853Y003395D01*
X008952Y003395D01*
X009044Y003433D01*
X009114Y003503D01*
X009152Y003595D01*
X009152Y003695D01*
X009114Y003786D01*
X009044Y003857D01*
X008952Y003895D01*
X008853Y003895D01*
X008761Y003857D01*
X008690Y003786D01*
X008652Y003695D01*
X008652Y003595D01*
X008690Y003503D01*
X008761Y003433D01*
X008686Y003513D02*
X007327Y003513D01*
X007327Y003592D02*
X008654Y003592D01*
X008652Y003670D02*
X007327Y003670D01*
X007302Y003749D02*
X008675Y003749D01*
X008731Y003827D02*
X007277Y003827D01*
X007251Y003906D02*
X010787Y003906D01*
X010787Y003984D02*
X007226Y003984D01*
X007200Y004063D02*
X010787Y004063D01*
X010787Y004141D02*
X007143Y004141D01*
X007086Y004220D02*
X010787Y004220D01*
X010787Y004298D02*
X007029Y004298D01*
X007071Y004377D02*
X010787Y004377D01*
X010787Y003827D02*
X009948Y003827D01*
X009919Y003857D02*
X009827Y003895D01*
X009728Y003895D01*
X009636Y003857D01*
X009565Y003786D01*
X009527Y003695D01*
X009527Y003595D01*
X009565Y003503D01*
X009636Y003433D01*
X009728Y003395D01*
X009827Y003395D01*
X009919Y003433D01*
X009989Y003503D01*
X010027Y003595D01*
X010027Y003695D01*
X009989Y003786D01*
X009919Y003857D01*
X010005Y003749D02*
X010787Y003749D01*
X010787Y003670D02*
X010027Y003670D01*
X010026Y003592D02*
X010787Y003592D01*
X010787Y003513D02*
X009994Y003513D01*
X009921Y003435D02*
X010787Y003435D01*
X009634Y003435D02*
X009046Y003435D01*
X009119Y003513D02*
X009561Y003513D01*
X009529Y003592D02*
X009151Y003592D01*
X009152Y003670D02*
X009527Y003670D01*
X009550Y003749D02*
X009130Y003749D01*
X009073Y003827D02*
X009606Y003827D01*
X009618Y002964D02*
X009062Y002964D01*
X009125Y002885D02*
X009555Y002885D01*
X009527Y002807D02*
X009152Y002807D01*
X009152Y002728D02*
X009527Y002728D01*
X009557Y002650D02*
X009123Y002650D01*
X009057Y002571D02*
X009622Y002571D01*
X009649Y001865D02*
X009466Y001865D01*
X009649Y001865D02*
X009737Y001776D01*
X009826Y001865D01*
X009649Y001865D01*
X009727Y001786D02*
X009748Y001786D01*
X009826Y001865D02*
X010009Y001865D01*
X010087Y001786D02*
X010787Y001786D01*
X010787Y001708D02*
X010137Y001708D01*
X010137Y001629D02*
X010787Y001629D01*
X010787Y001551D02*
X010135Y001551D01*
D13*
X004579Y004227D02*
X004559Y004247D01*
X004559Y004645D01*
X004597Y004684D01*
X004597Y006372D01*
D14*
X008902Y003645D03*
X008902Y002770D03*
X009777Y002770D03*
X009777Y003645D03*
M02*
