G75*
G70*
%OFA0B0*%
%FSLAX24Y24*%
%IPPOS*%
%LPD*%
%AMOC8*
5,1,8,0,0,1.08239X$1,22.5*
%
%ADD10C,0.0278*%
%ADD11C,0.0320*%
%ADD12C,0.0300*%
%ADD13C,0.0080*%
%ADD14C,0.0100*%
D10*
X002797Y003058D03*
X002797Y003353D03*
X002797Y003649D03*
X003093Y003649D03*
X003388Y003649D03*
X003388Y003353D03*
X003093Y003353D03*
X003093Y003058D03*
X003388Y003058D03*
D11*
X001836Y005260D03*
X002211Y006072D03*
X001399Y006541D03*
X001399Y007041D03*
X002993Y005978D03*
X004305Y009166D03*
X002884Y010155D03*
X002504Y010155D03*
X001555Y009385D03*
D12*
X004461Y007853D03*
X005368Y007978D03*
X005384Y008736D03*
X005743Y009541D03*
X006493Y008471D03*
X006993Y007686D03*
X006586Y007291D03*
X005680Y006386D03*
X004594Y006393D03*
X004024Y006416D03*
X002959Y005057D03*
X002649Y005252D03*
X002149Y005541D03*
X002928Y004666D03*
X003410Y004831D03*
X003740Y004478D03*
X004069Y004641D03*
X004211Y004146D03*
X004575Y004248D03*
X004835Y004508D03*
X004346Y003658D03*
X004310Y003275D03*
X004294Y002775D03*
X004384Y002010D03*
X004744Y002001D03*
X005204Y002041D03*
X006405Y001853D03*
X007599Y002406D03*
X007814Y002696D03*
X007786Y003056D03*
X008899Y002791D03*
X008899Y003666D03*
X009774Y003666D03*
X009774Y002791D03*
X009914Y001666D03*
X009554Y001666D03*
X008254Y001853D03*
X006930Y004572D03*
X005993Y004916D03*
X007680Y006385D03*
X007680Y006978D03*
X009430Y006260D03*
X010274Y005666D03*
X010649Y005416D03*
X010586Y006135D03*
X010654Y007541D03*
X010654Y008666D03*
X007586Y009523D03*
X006305Y010966D03*
X008384Y004743D03*
X002334Y002421D03*
X001868Y002728D03*
X001836Y003135D03*
X001944Y003541D03*
X001824Y004541D03*
X001834Y002260D03*
X001836Y001885D03*
X001461Y001666D03*
D13*
X001268Y001558D02*
X001266Y001560D01*
X001264Y001564D01*
X001264Y001566D01*
X001264Y006315D01*
X001347Y006281D01*
X001451Y006281D01*
X001546Y006320D01*
X001619Y006394D01*
X001659Y006489D01*
X001659Y006593D01*
X001619Y006688D01*
X001546Y006761D01*
X001475Y006791D01*
X001546Y006820D01*
X001619Y006894D01*
X001659Y006989D01*
X001659Y007093D01*
X001619Y007188D01*
X001546Y007261D01*
X001451Y007301D01*
X001347Y007301D01*
X001264Y007266D01*
X001264Y011066D01*
X001264Y011068D01*
X001266Y011071D01*
X001268Y011074D01*
X001272Y011076D01*
X001274Y011076D01*
X006080Y011076D01*
X006055Y011016D01*
X006055Y010916D01*
X006093Y010824D01*
X006164Y010754D01*
X006255Y010716D01*
X006355Y010716D01*
X006447Y010754D01*
X006517Y010824D01*
X006555Y010916D01*
X006555Y011016D01*
X006530Y011076D01*
X008024Y011076D01*
X008024Y010134D01*
X007988Y010119D01*
X007920Y010052D01*
X007884Y009964D01*
X007884Y009431D01*
X007819Y009431D01*
X007836Y009474D01*
X007836Y009573D01*
X007798Y009665D01*
X007728Y009735D01*
X007636Y009773D01*
X007537Y009773D01*
X007445Y009735D01*
X007374Y009665D01*
X007336Y009573D01*
X007336Y009474D01*
X007354Y009431D01*
X004455Y009431D01*
X004455Y009697D01*
X004367Y009785D01*
X004107Y010045D01*
X003983Y010045D01*
X003973Y010035D01*
X003116Y010035D01*
X003144Y010103D01*
X003144Y010206D01*
X003104Y010302D01*
X003031Y010375D01*
X002936Y010415D01*
X002832Y010415D01*
X002737Y010375D01*
X002694Y010332D01*
X002651Y010375D01*
X002556Y010415D01*
X002452Y010415D01*
X002357Y010375D01*
X002283Y010302D01*
X002244Y010206D01*
X002244Y010103D01*
X002273Y010033D01*
X001774Y009535D01*
X001773Y009535D01*
X001702Y009605D01*
X001607Y009645D01*
X001503Y009645D01*
X001408Y009605D01*
X001335Y009532D01*
X001295Y009436D01*
X001295Y009333D01*
X001335Y009237D01*
X001408Y009164D01*
X001503Y009125D01*
X001607Y009125D01*
X001702Y009164D01*
X001773Y009235D01*
X001899Y009235D01*
X001986Y009322D01*
X001986Y009322D01*
X002004Y009340D01*
X002004Y008393D01*
X002040Y008305D01*
X002108Y008237D01*
X002196Y008201D01*
X002884Y008201D01*
X002884Y008131D01*
X002196Y008131D01*
X002108Y008094D01*
X002040Y008027D01*
X002004Y007939D01*
X002004Y006893D01*
X002040Y006805D01*
X002108Y006737D01*
X002196Y006701D01*
X002891Y006701D01*
X002920Y006630D01*
X002988Y006562D01*
X003076Y006526D01*
X003759Y006526D01*
X003759Y006358D01*
X003790Y006326D01*
X003812Y006274D01*
X003882Y006204D01*
X003974Y006166D01*
X004074Y006166D01*
X004166Y006204D01*
X004236Y006274D01*
X004237Y006276D01*
X004372Y006276D01*
X004382Y006252D01*
X004452Y006181D01*
X004544Y006143D01*
X004644Y006143D01*
X004736Y006181D01*
X004806Y006252D01*
X004844Y006344D01*
X004844Y006443D01*
X004810Y006526D01*
X005468Y006526D01*
X005430Y006436D01*
X005430Y006336D01*
X005468Y006244D01*
X005539Y006174D01*
X005630Y006136D01*
X005730Y006136D01*
X005822Y006174D01*
X005892Y006244D01*
X005930Y006336D01*
X005930Y006436D01*
X005893Y006526D01*
X007884Y006526D01*
X007884Y006368D01*
X007920Y006280D01*
X007988Y006212D01*
X008076Y006176D01*
X008972Y006176D01*
X009060Y006212D01*
X009127Y006280D01*
X009164Y006368D01*
X009164Y006701D01*
X009852Y006701D01*
X009940Y006737D01*
X010007Y006805D01*
X010044Y006893D01*
X010044Y007939D01*
X010007Y008027D01*
X009940Y008094D01*
X009852Y008131D01*
X009164Y008131D01*
X009164Y008201D01*
X009852Y008201D01*
X009940Y008237D01*
X010007Y008305D01*
X010044Y008393D01*
X010044Y009295D01*
X010784Y009297D01*
X010784Y005631D01*
X010699Y005666D01*
X010599Y005666D01*
X010524Y005635D01*
X010524Y005716D01*
X010486Y005807D01*
X010416Y005878D01*
X010324Y005916D01*
X010224Y005916D01*
X010132Y005878D01*
X010062Y005807D01*
X010024Y005716D01*
X010024Y005616D01*
X010062Y005524D01*
X010132Y005454D01*
X010224Y005416D01*
X010324Y005416D01*
X010399Y005447D01*
X010399Y005366D01*
X010437Y005274D01*
X010507Y005204D01*
X010599Y005166D01*
X010699Y005166D01*
X010784Y005201D01*
X010784Y001566D01*
X010784Y001564D01*
X010782Y001560D01*
X010779Y001558D01*
X010776Y001556D01*
X010774Y001556D01*
X010139Y001556D01*
X010164Y001616D01*
X010164Y001716D01*
X010126Y001807D01*
X010784Y001807D01*
X010784Y001729D02*
X010158Y001729D01*
X010164Y001650D02*
X010784Y001650D01*
X010784Y001572D02*
X010146Y001572D01*
X010126Y001807D02*
X010056Y001878D01*
X009964Y001916D01*
X009864Y001916D01*
X009772Y001878D01*
X009734Y001839D01*
X009696Y001878D01*
X009604Y001916D01*
X009504Y001916D01*
X009412Y001878D01*
X009342Y001807D01*
X008504Y001807D01*
X008504Y001804D02*
X008466Y001712D01*
X008396Y001641D01*
X008304Y001603D01*
X008204Y001603D01*
X008112Y001641D01*
X008042Y001712D01*
X008004Y001804D01*
X008004Y001903D01*
X008042Y001995D01*
X008112Y002065D01*
X008204Y002103D01*
X008304Y002103D01*
X008396Y002065D01*
X008466Y001995D01*
X008504Y001903D01*
X008504Y001804D01*
X008473Y001729D02*
X009309Y001729D01*
X009304Y001716D02*
X009304Y001616D01*
X009329Y001556D01*
X001274Y001556D01*
X001272Y001556D01*
X001268Y001558D01*
X001264Y001572D02*
X009322Y001572D01*
X009304Y001650D02*
X008404Y001650D01*
X008504Y001886D02*
X009432Y001886D01*
X009342Y001807D02*
X009304Y001716D01*
X009676Y001886D02*
X009792Y001886D01*
X010036Y001886D02*
X010784Y001886D01*
X010784Y001964D02*
X008479Y001964D01*
X008418Y002043D02*
X010784Y002043D01*
X010784Y002121D02*
X005441Y002121D01*
X005454Y002091D02*
X005416Y002182D01*
X005412Y002186D01*
X007112Y002186D01*
X007246Y002264D01*
X007324Y002398D01*
X007324Y003692D01*
X007197Y004083D01*
X006955Y004417D01*
X006621Y004659D01*
X006230Y004786D01*
X006209Y004786D01*
X006243Y004866D01*
X006243Y004895D01*
X006275Y004863D01*
X006436Y004796D01*
X006611Y004796D01*
X006773Y004863D01*
X006897Y004987D01*
X006964Y005148D01*
X006964Y005323D01*
X006897Y005485D01*
X006773Y005609D01*
X006708Y005636D01*
X006773Y005663D01*
X006897Y005787D01*
X006964Y005948D01*
X006964Y006123D01*
X006897Y006285D01*
X006773Y006409D01*
X006611Y006476D01*
X006436Y006476D01*
X006275Y006409D01*
X006151Y006285D01*
X006084Y006123D01*
X006084Y005948D01*
X006151Y005787D01*
X006275Y005663D01*
X006340Y005636D01*
X006275Y005609D01*
X006151Y005485D01*
X006084Y005323D01*
X006084Y005149D01*
X006042Y005166D01*
X005943Y005166D01*
X005851Y005128D01*
X005781Y005057D01*
X005743Y004966D01*
X005743Y004866D01*
X005781Y004774D01*
X005426Y004659D01*
X005093Y004417D01*
X005093Y004417D01*
X005093Y004417D01*
X004851Y004083D01*
X004724Y003692D01*
X004724Y002398D01*
X004802Y002264D01*
X004936Y002186D01*
X004995Y002186D01*
X004992Y002182D01*
X004954Y002091D01*
X004954Y001991D01*
X004992Y001899D01*
X005062Y001829D01*
X005154Y001791D01*
X005254Y001791D01*
X005346Y001829D01*
X005416Y001899D01*
X005454Y001991D01*
X005454Y002091D01*
X005454Y002043D02*
X006241Y002043D01*
X006264Y002065D02*
X006193Y001995D01*
X006155Y001903D01*
X006155Y001804D01*
X006193Y001712D01*
X006264Y001641D01*
X006355Y001603D01*
X006455Y001603D01*
X006547Y001641D01*
X006617Y001712D01*
X006655Y001804D01*
X006655Y001903D01*
X006617Y001995D01*
X006547Y002065D01*
X006455Y002103D01*
X006355Y002103D01*
X006264Y002065D01*
X006181Y001964D02*
X005443Y001964D01*
X005402Y001886D02*
X006155Y001886D01*
X006155Y001807D02*
X005293Y001807D01*
X005114Y001807D02*
X004535Y001807D01*
X004526Y001798D02*
X004596Y001868D01*
X004634Y001960D01*
X004634Y002059D01*
X004596Y002151D01*
X004526Y002222D01*
X004434Y002260D01*
X004334Y002260D01*
X004242Y002222D01*
X004172Y002151D01*
X004134Y002059D01*
X004134Y001960D01*
X004172Y001868D01*
X004242Y001798D01*
X004334Y001760D01*
X004434Y001760D01*
X004526Y001798D01*
X004603Y001886D02*
X005005Y001886D01*
X004965Y001964D02*
X004634Y001964D01*
X004634Y002043D02*
X004954Y002043D01*
X004967Y002121D02*
X004608Y002121D01*
X004547Y002200D02*
X004912Y002200D01*
X004802Y002264D02*
X004802Y002264D01*
X004802Y002264D01*
X004793Y002278D02*
X002545Y002278D01*
X002546Y002279D02*
X002584Y002371D01*
X002584Y002471D01*
X002546Y002562D01*
X002476Y002633D01*
X002384Y002671D01*
X004067Y002671D01*
X004082Y002634D02*
X004044Y002726D01*
X004044Y002825D01*
X004082Y002917D01*
X004152Y002987D01*
X004244Y003025D01*
X004259Y003025D01*
X004169Y003063D01*
X004098Y003133D01*
X004060Y003225D01*
X004060Y003324D01*
X004098Y003416D01*
X004167Y003485D01*
X004134Y003517D01*
X004096Y003609D01*
X004096Y003708D01*
X004134Y003800D01*
X004205Y003870D01*
X004297Y003908D01*
X004396Y003908D01*
X004488Y003870D01*
X004558Y003800D01*
X004596Y003708D01*
X004596Y003609D01*
X004558Y003517D01*
X004490Y003448D01*
X004522Y003416D01*
X004560Y003324D01*
X004560Y003225D01*
X004522Y003133D01*
X004452Y003063D01*
X004360Y003025D01*
X004345Y003025D01*
X004436Y002987D01*
X004506Y002917D01*
X004544Y002825D01*
X004544Y002726D01*
X004506Y002634D01*
X004436Y002563D01*
X004344Y002525D01*
X004244Y002525D01*
X004152Y002563D01*
X004082Y002634D01*
X004123Y002592D02*
X002516Y002592D01*
X002566Y002514D02*
X004724Y002514D01*
X004724Y002592D02*
X004464Y002592D01*
X004521Y002671D02*
X004724Y002671D01*
X004724Y002749D02*
X004544Y002749D01*
X004543Y002828D02*
X004724Y002828D01*
X004724Y002906D02*
X004510Y002906D01*
X004438Y002985D02*
X004724Y002985D01*
X004724Y003063D02*
X004452Y003063D01*
X004526Y003142D02*
X004724Y003142D01*
X004724Y003220D02*
X004558Y003220D01*
X004560Y003299D02*
X004724Y003299D01*
X004724Y003377D02*
X004538Y003377D01*
X004497Y003456D02*
X004724Y003456D01*
X004724Y003534D02*
X004566Y003534D01*
X004596Y003613D02*
X004724Y003613D01*
X004724Y003691D02*
X004596Y003691D01*
X004571Y003770D02*
X004749Y003770D01*
X004775Y003848D02*
X004510Y003848D01*
X004525Y003998D02*
X004436Y004035D01*
X004423Y004004D01*
X004353Y003934D01*
X004261Y003896D01*
X004162Y003896D01*
X004070Y003934D01*
X003999Y004004D01*
X003961Y004096D01*
X003961Y004196D01*
X003999Y004287D01*
X004070Y004358D01*
X004162Y004396D01*
X004261Y004396D01*
X004350Y004359D01*
X004363Y004390D01*
X004434Y004460D01*
X004525Y004498D01*
X004625Y004498D01*
X004717Y004460D01*
X004787Y004390D01*
X004825Y004298D01*
X004825Y004199D01*
X004787Y004107D01*
X004717Y004036D01*
X004625Y003998D01*
X004525Y003998D01*
X004509Y004005D02*
X004424Y004005D01*
X004336Y003927D02*
X004800Y003927D01*
X004826Y004005D02*
X004642Y004005D01*
X004764Y004084D02*
X004851Y004084D01*
X004851Y004083D02*
X004851Y004083D01*
X004810Y004162D02*
X004909Y004162D01*
X004966Y004241D02*
X004825Y004241D01*
X004816Y004319D02*
X005023Y004319D01*
X005080Y004398D02*
X004779Y004398D01*
X004678Y004476D02*
X005175Y004476D01*
X005284Y004555D02*
X004304Y004555D01*
X004319Y004591D02*
X004281Y004499D01*
X004211Y004429D01*
X004119Y004391D01*
X004019Y004391D01*
X003981Y004407D01*
X003952Y004337D01*
X003882Y004266D01*
X003790Y004228D01*
X003690Y004228D01*
X003599Y004266D01*
X003528Y004337D01*
X003490Y004429D01*
X003490Y004528D01*
X003523Y004607D01*
X003460Y004581D01*
X003360Y004581D01*
X003269Y004619D01*
X003198Y004689D01*
X003160Y004781D01*
X003160Y004881D01*
X003198Y004972D01*
X003269Y005043D01*
X003360Y005081D01*
X003460Y005081D01*
X003552Y005043D01*
X003622Y004972D01*
X003660Y004881D01*
X003660Y004781D01*
X003627Y004702D01*
X003690Y004728D01*
X003790Y004728D01*
X003828Y004713D01*
X003857Y004782D01*
X003927Y004853D01*
X004019Y004891D01*
X004119Y004891D01*
X004211Y004853D01*
X004281Y004782D01*
X004319Y004691D01*
X004319Y004591D01*
X004319Y004633D02*
X005392Y004633D01*
X005426Y004659D02*
X005426Y004659D01*
X005590Y004712D02*
X004310Y004712D01*
X004273Y004790D02*
X005774Y004790D01*
X005781Y004774D02*
X005781Y004774D01*
X005743Y004869D02*
X004172Y004869D01*
X003966Y004869D02*
X003660Y004869D01*
X003660Y004790D02*
X003865Y004790D01*
X003651Y004712D02*
X003631Y004712D01*
X003501Y004555D02*
X003152Y004555D01*
X003140Y004524D02*
X003178Y004616D01*
X003178Y004716D01*
X003140Y004807D01*
X003101Y004846D01*
X003171Y004916D01*
X003209Y005007D01*
X003209Y005107D01*
X003171Y005199D01*
X003101Y005269D01*
X003009Y005307D01*
X002909Y005307D01*
X002899Y005303D01*
X002861Y005394D01*
X002791Y005464D01*
X002699Y005502D01*
X002599Y005502D01*
X002507Y005464D01*
X002437Y005394D01*
X002399Y005302D01*
X002399Y005202D01*
X002437Y005111D01*
X002507Y005040D01*
X002599Y005002D01*
X002699Y005002D01*
X002709Y005007D01*
X002747Y004916D01*
X002785Y004877D01*
X002716Y004807D01*
X002678Y004716D01*
X002678Y004616D01*
X002716Y004524D01*
X002786Y004454D01*
X002878Y004416D01*
X002977Y004416D01*
X003069Y004454D01*
X003140Y004524D01*
X003092Y004476D02*
X003490Y004476D01*
X003503Y004398D02*
X002034Y004398D01*
X002036Y004399D02*
X002074Y004491D01*
X002074Y004591D01*
X002036Y004682D01*
X001966Y004753D01*
X001874Y004791D01*
X001774Y004791D01*
X001682Y004753D01*
X001612Y004682D01*
X001574Y004591D01*
X001574Y004491D01*
X001612Y004399D01*
X001682Y004329D01*
X001774Y004291D01*
X001874Y004291D01*
X001966Y004329D01*
X002036Y004399D01*
X002068Y004476D02*
X002764Y004476D01*
X002703Y004555D02*
X002074Y004555D01*
X002056Y004633D02*
X002678Y004633D01*
X002678Y004712D02*
X002006Y004712D01*
X001875Y004790D02*
X002709Y004790D01*
X002777Y004869D02*
X001264Y004869D01*
X001264Y004947D02*
X002734Y004947D01*
X002542Y005026D02*
X001264Y005026D01*
X001264Y005104D02*
X002443Y005104D01*
X002407Y005183D02*
X001264Y005183D01*
X001264Y005261D02*
X002399Y005261D01*
X002415Y005340D02*
X002301Y005340D01*
X002291Y005329D02*
X002361Y005399D01*
X002399Y005491D01*
X002399Y005591D01*
X002361Y005682D01*
X002291Y005753D01*
X002199Y005791D01*
X002099Y005791D01*
X002007Y005753D01*
X001937Y005682D01*
X001899Y005591D01*
X001899Y005491D01*
X001937Y005399D01*
X002007Y005329D01*
X002099Y005291D01*
X002199Y005291D01*
X002291Y005329D01*
X002369Y005418D02*
X002462Y005418D01*
X002399Y005497D02*
X002586Y005497D01*
X002711Y005497D02*
X003103Y005497D01*
X003081Y005548D02*
X003149Y005385D01*
X003273Y005261D01*
X003436Y005193D01*
X003612Y005193D01*
X003775Y005261D01*
X006084Y005261D01*
X006084Y005183D02*
X003177Y005183D01*
X003209Y005104D02*
X005828Y005104D01*
X005768Y005026D02*
X003569Y005026D01*
X003632Y004947D02*
X005743Y004947D01*
X006091Y005340D02*
X003854Y005340D01*
X003899Y005385D02*
X003966Y005548D01*
X003966Y005724D01*
X003899Y005887D01*
X003775Y006011D01*
X003612Y006078D01*
X003436Y006078D01*
X003273Y006011D01*
X003253Y005990D01*
X003253Y006030D01*
X003213Y006126D01*
X003140Y006199D01*
X003044Y006238D01*
X002941Y006238D01*
X002845Y006199D01*
X002772Y006126D01*
X002733Y006030D01*
X002733Y005927D01*
X002772Y005831D01*
X002845Y005758D01*
X002941Y005718D01*
X003044Y005718D01*
X003086Y005736D01*
X003081Y005724D01*
X003081Y005548D01*
X003081Y005575D02*
X002399Y005575D01*
X002373Y005654D02*
X003081Y005654D01*
X003078Y005732D02*
X003085Y005732D01*
X002907Y005732D02*
X002311Y005732D01*
X001987Y005732D02*
X001264Y005732D01*
X001264Y005654D02*
X001925Y005654D01*
X001899Y005575D02*
X001264Y005575D01*
X001264Y005497D02*
X001899Y005497D01*
X001929Y005418D02*
X001264Y005418D01*
X001264Y005340D02*
X001996Y005340D01*
X001773Y004790D02*
X001264Y004790D01*
X001264Y004712D02*
X001641Y004712D01*
X001592Y004633D02*
X001264Y004633D01*
X001264Y004555D02*
X001574Y004555D01*
X001580Y004476D02*
X001264Y004476D01*
X001264Y004398D02*
X001613Y004398D01*
X001705Y004319D02*
X001264Y004319D01*
X001264Y004241D02*
X003660Y004241D01*
X003546Y004319D02*
X001942Y004319D01*
X001894Y003791D02*
X001802Y003753D01*
X001732Y003682D01*
X001694Y003591D01*
X001694Y003491D01*
X001732Y003399D01*
X001758Y003373D01*
X001695Y003347D01*
X001624Y003276D01*
X001586Y003184D01*
X001586Y003085D01*
X001624Y002993D01*
X001695Y002923D01*
X001704Y002919D01*
X001656Y002870D01*
X001618Y002778D01*
X001618Y002679D01*
X001656Y002587D01*
X001726Y002516D01*
X001763Y002501D01*
X001692Y002472D01*
X001622Y002401D01*
X001584Y002309D01*
X001584Y002210D01*
X001622Y002118D01*
X001669Y002071D01*
X001624Y002026D01*
X001586Y001934D01*
X001586Y001835D01*
X001624Y001743D01*
X001695Y001673D01*
X001787Y001635D01*
X001886Y001635D01*
X001978Y001673D01*
X002048Y001743D01*
X002086Y001835D01*
X002086Y001934D01*
X002048Y002026D01*
X002001Y002073D01*
X002046Y002118D01*
X002084Y002210D01*
X002084Y002309D01*
X002046Y002401D01*
X001976Y002472D01*
X001938Y002487D01*
X002009Y002516D01*
X002080Y002587D01*
X002118Y002679D01*
X002118Y002778D01*
X002080Y002870D01*
X002009Y002940D01*
X002000Y002944D01*
X002048Y002993D01*
X002086Y003085D01*
X002086Y003184D01*
X002048Y003276D01*
X002022Y003303D01*
X002086Y003329D01*
X002156Y003399D01*
X002194Y003491D01*
X002194Y003591D01*
X002156Y003682D01*
X002086Y003753D01*
X001994Y003791D01*
X001894Y003791D01*
X001843Y003770D02*
X001264Y003770D01*
X001264Y003848D02*
X002602Y003848D01*
X002619Y003865D02*
X002581Y003827D01*
X002550Y003781D01*
X002529Y003730D01*
X002518Y003676D01*
X002518Y003649D01*
X002797Y003649D01*
X002797Y003928D01*
X002770Y003928D01*
X002716Y003917D01*
X002665Y003896D01*
X002619Y003865D01*
X002546Y003770D02*
X002044Y003770D01*
X002147Y003691D02*
X002521Y003691D01*
X002518Y003649D02*
X002518Y003621D01*
X002529Y003567D01*
X002550Y003516D01*
X002560Y003501D01*
X002550Y003486D01*
X002529Y003435D01*
X002518Y003381D01*
X002518Y003353D01*
X002797Y003353D01*
X002797Y003353D01*
X002797Y003353D01*
X002797Y003058D01*
X002518Y003058D01*
X002518Y003031D01*
X002529Y002977D01*
X002550Y002926D01*
X002581Y002880D01*
X002619Y002841D01*
X002665Y002811D01*
X002716Y002790D01*
X002770Y002779D01*
X002797Y002779D01*
X002797Y003058D01*
X002797Y003058D01*
X002518Y003058D01*
X002518Y003086D01*
X002529Y003139D01*
X002550Y003190D01*
X002560Y003206D01*
X002550Y003221D01*
X002529Y003272D01*
X002518Y003326D01*
X002518Y003353D01*
X002797Y003353D01*
X002797Y003074D01*
X002797Y003058D01*
X002797Y003058D01*
X002797Y003058D01*
X002797Y002779D01*
X002825Y002779D01*
X002879Y002790D01*
X002930Y002811D01*
X002945Y002821D01*
X002960Y002811D01*
X003011Y002790D01*
X003065Y002779D01*
X003093Y002779D01*
X003120Y002779D01*
X003174Y002790D01*
X003225Y002811D01*
X003240Y002821D01*
X003256Y002811D01*
X003307Y002790D01*
X003360Y002779D01*
X003388Y002779D01*
X003415Y002779D01*
X003469Y002790D01*
X003520Y002811D01*
X003566Y002841D01*
X003605Y002880D01*
X003635Y002926D01*
X003656Y002977D01*
X003667Y003031D01*
X003667Y003058D01*
X003388Y003058D01*
X003388Y003058D01*
X003388Y002779D01*
X003388Y003058D01*
X003388Y003058D01*
X003667Y003058D01*
X003667Y003086D01*
X003656Y003139D01*
X003635Y003190D01*
X003625Y003206D01*
X003635Y003221D01*
X003656Y003272D01*
X003667Y003326D01*
X003667Y003353D01*
X003388Y003353D01*
X003388Y003074D01*
X003388Y003058D01*
X003093Y003058D01*
X003093Y003058D01*
X003109Y003058D01*
X003388Y003058D01*
X003388Y003058D01*
X003388Y003058D01*
X003388Y003353D01*
X003388Y003353D01*
X003388Y003353D01*
X003093Y003353D01*
X003093Y003353D01*
X003093Y003058D01*
X003093Y002779D01*
X003093Y003058D01*
X003093Y003058D01*
X003093Y003058D01*
X002814Y003058D01*
X002797Y003058D01*
X002797Y003058D01*
X003093Y003058D01*
X003093Y003058D01*
X003093Y003337D01*
X003093Y003353D01*
X003093Y003353D01*
X003109Y003353D01*
X003388Y003353D01*
X003388Y003353D01*
X003667Y003353D01*
X003667Y003381D01*
X003656Y003435D01*
X003635Y003486D01*
X003625Y003501D01*
X003635Y003516D01*
X003656Y003567D01*
X003667Y003621D01*
X003667Y003649D01*
X003667Y003676D01*
X003656Y003730D01*
X003635Y003781D01*
X003605Y003827D01*
X003566Y003865D01*
X003520Y003896D01*
X003469Y003917D01*
X003415Y003928D01*
X003388Y003928D01*
X003388Y003649D01*
X003388Y003649D01*
X003388Y003928D01*
X003360Y003928D01*
X003307Y003917D01*
X003256Y003896D01*
X003240Y003886D01*
X003225Y003896D01*
X003174Y003917D01*
X003120Y003928D01*
X003093Y003928D01*
X003093Y003649D01*
X003093Y003649D01*
X003372Y003649D01*
X003388Y003649D01*
X003667Y003649D01*
X003388Y003649D01*
X003388Y003649D01*
X003388Y003649D01*
X003093Y003649D01*
X003093Y003649D01*
X003093Y003928D01*
X003065Y003928D01*
X003011Y003917D01*
X002960Y003896D01*
X002945Y003886D01*
X002930Y003896D01*
X002879Y003917D01*
X002825Y003928D01*
X002797Y003928D01*
X002797Y003649D01*
X002797Y003649D01*
X002797Y003649D01*
X002518Y003649D01*
X002520Y003613D02*
X002185Y003613D01*
X002194Y003534D02*
X002543Y003534D01*
X002538Y003456D02*
X002179Y003456D01*
X002134Y003377D02*
X002518Y003377D01*
X002524Y003299D02*
X002026Y003299D01*
X002071Y003220D02*
X002551Y003220D01*
X002530Y003142D02*
X002086Y003142D01*
X002077Y003063D02*
X002518Y003063D01*
X002527Y002985D02*
X002040Y002985D01*
X002043Y002906D02*
X002563Y002906D01*
X002640Y002828D02*
X002097Y002828D01*
X002118Y002749D02*
X004044Y002749D01*
X004045Y002828D02*
X003546Y002828D01*
X003622Y002906D02*
X004078Y002906D01*
X004150Y002985D02*
X003658Y002985D01*
X003667Y003063D02*
X004168Y003063D01*
X004095Y003142D02*
X003655Y003142D01*
X003635Y003220D02*
X004062Y003220D01*
X004060Y003299D02*
X003662Y003299D01*
X003667Y003377D02*
X004082Y003377D01*
X004138Y003456D02*
X003648Y003456D01*
X003643Y003534D02*
X004127Y003534D01*
X004096Y003613D02*
X003665Y003613D01*
X003664Y003691D02*
X004096Y003691D01*
X004122Y003770D02*
X003640Y003770D01*
X003583Y003848D02*
X004183Y003848D01*
X004087Y003927D02*
X003420Y003927D01*
X003388Y003927D02*
X003388Y003927D01*
X003356Y003927D02*
X003124Y003927D01*
X003093Y003927D02*
X003093Y003927D01*
X003061Y003927D02*
X002829Y003927D01*
X002797Y003927D02*
X002797Y003927D01*
X002766Y003927D02*
X001264Y003927D01*
X001264Y004005D02*
X003999Y004005D01*
X003966Y004084D02*
X001264Y004084D01*
X001264Y004162D02*
X003961Y004162D01*
X003980Y004241D02*
X003820Y004241D01*
X003935Y004319D02*
X004031Y004319D01*
X004002Y004398D02*
X003977Y004398D01*
X004135Y004398D02*
X004371Y004398D01*
X004472Y004476D02*
X004258Y004476D01*
X003775Y005261D02*
X003899Y005385D01*
X003913Y005418D02*
X006123Y005418D01*
X006163Y005497D02*
X003945Y005497D01*
X003966Y005575D02*
X006241Y005575D01*
X006296Y005654D02*
X003966Y005654D01*
X003963Y005732D02*
X006205Y005732D01*
X006141Y005811D02*
X003930Y005811D01*
X003896Y005889D02*
X006108Y005889D01*
X006084Y005968D02*
X003818Y005968D01*
X003689Y006046D02*
X006084Y006046D01*
X006085Y006125D02*
X003213Y006125D01*
X003246Y006046D02*
X003359Y006046D01*
X003129Y006203D02*
X003884Y006203D01*
X003809Y006282D02*
X001453Y006282D01*
X001345Y006282D02*
X001264Y006282D01*
X001264Y006203D02*
X002856Y006203D01*
X002772Y006125D02*
X001264Y006125D01*
X001264Y006046D02*
X002739Y006046D01*
X002733Y005968D02*
X001264Y005968D01*
X001264Y005889D02*
X002748Y005889D01*
X002792Y005811D02*
X001264Y005811D01*
X001586Y006360D02*
X003759Y006360D01*
X003759Y006439D02*
X001638Y006439D01*
X001659Y006517D02*
X003759Y006517D01*
X003899Y006517D02*
X004375Y006517D01*
X004382Y006535D02*
X004344Y006443D01*
X004344Y006416D01*
X003899Y006416D01*
X003899Y006526D01*
X003972Y006526D01*
X004060Y006562D01*
X004127Y006630D01*
X004164Y006718D01*
X004164Y009291D01*
X007494Y009291D01*
X007537Y009273D01*
X007636Y009273D01*
X007678Y009291D01*
X007884Y009291D01*
X007884Y006666D01*
X004399Y006666D01*
X004399Y006552D01*
X004382Y006535D01*
X004399Y006596D02*
X004093Y006596D01*
X004146Y006674D02*
X007884Y006674D01*
X007884Y006753D02*
X004164Y006753D01*
X004164Y006831D02*
X007884Y006831D01*
X007884Y006910D02*
X004164Y006910D01*
X004164Y006988D02*
X007884Y006988D01*
X007884Y007067D02*
X004164Y007067D01*
X004164Y007145D02*
X007884Y007145D01*
X007884Y007224D02*
X004164Y007224D01*
X004164Y007302D02*
X007884Y007302D01*
X007884Y007381D02*
X004164Y007381D01*
X004164Y007459D02*
X006886Y007459D01*
X006851Y007474D02*
X006943Y007436D01*
X007042Y007436D01*
X007134Y007474D01*
X007205Y007544D01*
X007243Y007636D01*
X007243Y007736D01*
X007205Y007827D01*
X007134Y007898D01*
X007042Y007936D01*
X006943Y007936D01*
X006851Y007898D01*
X006781Y007827D01*
X006743Y007736D01*
X006743Y007636D01*
X006781Y007544D01*
X006851Y007474D01*
X006787Y007538D02*
X004164Y007538D01*
X004164Y007616D02*
X006751Y007616D01*
X006743Y007695D02*
X004164Y007695D01*
X004164Y007773D02*
X005219Y007773D01*
X005226Y007766D02*
X005318Y007728D01*
X005417Y007728D01*
X005509Y007766D01*
X005580Y007837D01*
X005618Y007929D01*
X005618Y008028D01*
X005580Y008120D01*
X005509Y008190D01*
X005417Y008228D01*
X005318Y008228D01*
X005226Y008190D01*
X005156Y008120D01*
X005118Y008028D01*
X005118Y007929D01*
X005156Y007837D01*
X005226Y007766D01*
X005149Y007852D02*
X004164Y007852D01*
X004164Y007930D02*
X005118Y007930D01*
X005118Y008009D02*
X004164Y008009D01*
X004164Y008087D02*
X005142Y008087D01*
X005202Y008166D02*
X004164Y008166D01*
X004164Y008244D02*
X007884Y008244D01*
X007884Y008166D02*
X005534Y008166D01*
X005593Y008087D02*
X007884Y008087D01*
X007884Y008009D02*
X005618Y008009D01*
X005618Y007930D02*
X006930Y007930D01*
X007056Y007930D02*
X007884Y007930D01*
X007884Y007852D02*
X007180Y007852D01*
X007227Y007773D02*
X007884Y007773D01*
X007884Y007695D02*
X007243Y007695D01*
X007234Y007616D02*
X007884Y007616D01*
X007884Y007538D02*
X007198Y007538D01*
X007099Y007459D02*
X007884Y007459D01*
X007884Y008323D02*
X004164Y008323D01*
X004164Y008401D02*
X007884Y008401D01*
X007884Y008480D02*
X004164Y008480D01*
X004164Y008558D02*
X005208Y008558D01*
X005242Y008524D02*
X005334Y008486D01*
X005434Y008486D01*
X005526Y008524D01*
X005596Y008594D01*
X005634Y008686D01*
X005634Y008786D01*
X005596Y008877D01*
X005526Y008948D01*
X005434Y008986D01*
X005334Y008986D01*
X005242Y008948D01*
X005172Y008877D01*
X005134Y008786D01*
X005134Y008686D01*
X005172Y008594D01*
X005242Y008524D01*
X005154Y008637D02*
X004164Y008637D01*
X004164Y008715D02*
X005134Y008715D01*
X005137Y008794D02*
X004164Y008794D01*
X004164Y008872D02*
X005170Y008872D01*
X005250Y008951D02*
X004164Y008951D01*
X004164Y009029D02*
X007884Y009029D01*
X007884Y008951D02*
X005518Y008951D01*
X005598Y008872D02*
X007884Y008872D01*
X007884Y008794D02*
X005630Y008794D01*
X005634Y008715D02*
X007884Y008715D01*
X007884Y008637D02*
X005613Y008637D01*
X005560Y008558D02*
X007884Y008558D01*
X007884Y009108D02*
X004164Y009108D01*
X004164Y009186D02*
X007884Y009186D01*
X007884Y009265D02*
X004164Y009265D01*
X004455Y009500D02*
X007336Y009500D01*
X007339Y009579D02*
X004455Y009579D01*
X004455Y009657D02*
X007371Y009657D01*
X007446Y009736D02*
X004416Y009736D01*
X004338Y009814D02*
X007884Y009814D01*
X007884Y009736D02*
X007727Y009736D01*
X007801Y009657D02*
X007884Y009657D01*
X007884Y009579D02*
X007834Y009579D01*
X007836Y009500D02*
X007884Y009500D01*
X007884Y009893D02*
X004259Y009893D01*
X004181Y009971D02*
X007887Y009971D01*
X007920Y010050D02*
X003122Y010050D01*
X003144Y010128D02*
X008010Y010128D01*
X008024Y010207D02*
X003144Y010207D01*
X003111Y010285D02*
X008024Y010285D01*
X008024Y010364D02*
X003042Y010364D01*
X002725Y010364D02*
X002662Y010364D01*
X002345Y010364D02*
X001264Y010364D01*
X001264Y010442D02*
X008024Y010442D01*
X008024Y010521D02*
X001264Y010521D01*
X001264Y010599D02*
X008024Y010599D01*
X008024Y010678D02*
X001264Y010678D01*
X001264Y010756D02*
X006161Y010756D01*
X006089Y010835D02*
X001264Y010835D01*
X001264Y010913D02*
X006056Y010913D01*
X006055Y010992D02*
X001264Y010992D01*
X001265Y011070D02*
X006078Y011070D01*
X006532Y011070D02*
X008024Y011070D01*
X008024Y010992D02*
X006555Y010992D01*
X006554Y010913D02*
X008024Y010913D01*
X008024Y010835D02*
X006521Y010835D01*
X006449Y010756D02*
X008024Y010756D01*
X010044Y009265D02*
X010784Y009265D01*
X010784Y009186D02*
X010044Y009186D01*
X010044Y009108D02*
X010784Y009108D01*
X010784Y009029D02*
X010044Y009029D01*
X010044Y008951D02*
X010784Y008951D01*
X010784Y008872D02*
X010044Y008872D01*
X010044Y008794D02*
X010784Y008794D01*
X010784Y008715D02*
X010044Y008715D01*
X010044Y008637D02*
X010784Y008637D01*
X010784Y008558D02*
X010044Y008558D01*
X010044Y008480D02*
X010784Y008480D01*
X010784Y008401D02*
X010044Y008401D01*
X010015Y008323D02*
X010784Y008323D01*
X010784Y008244D02*
X009947Y008244D01*
X009947Y008087D02*
X010784Y008087D01*
X010784Y008009D02*
X010015Y008009D01*
X010044Y007930D02*
X010784Y007930D01*
X010784Y007852D02*
X010044Y007852D01*
X010044Y007773D02*
X010784Y007773D01*
X010784Y007695D02*
X010044Y007695D01*
X010044Y007616D02*
X010784Y007616D01*
X010784Y007538D02*
X010044Y007538D01*
X010044Y007459D02*
X010784Y007459D01*
X010784Y007381D02*
X010044Y007381D01*
X010044Y007302D02*
X010784Y007302D01*
X010784Y007224D02*
X010044Y007224D01*
X010044Y007145D02*
X010784Y007145D01*
X010784Y007067D02*
X010044Y007067D01*
X010044Y006988D02*
X010784Y006988D01*
X010784Y006910D02*
X010044Y006910D01*
X010018Y006831D02*
X010784Y006831D01*
X010784Y006753D02*
X009955Y006753D01*
X009164Y006674D02*
X010784Y006674D01*
X010784Y006596D02*
X009164Y006596D01*
X009164Y006517D02*
X010784Y006517D01*
X010784Y006439D02*
X009164Y006439D01*
X009161Y006360D02*
X010784Y006360D01*
X010784Y006282D02*
X009128Y006282D01*
X009038Y006203D02*
X010784Y006203D01*
X010784Y006125D02*
X006963Y006125D01*
X006964Y006046D02*
X008365Y006046D01*
X008436Y006076D02*
X008275Y006009D01*
X008151Y005885D01*
X008084Y005723D01*
X008084Y005548D01*
X008151Y005387D01*
X008275Y005263D01*
X008436Y005196D01*
X008611Y005196D01*
X008773Y005263D01*
X008897Y005387D01*
X008964Y005548D01*
X008964Y005723D01*
X008897Y005885D01*
X008773Y006009D01*
X008611Y006076D01*
X008436Y006076D01*
X008234Y005968D02*
X006964Y005968D01*
X006939Y005889D02*
X008155Y005889D01*
X008120Y005811D02*
X006907Y005811D01*
X006843Y005732D02*
X008088Y005732D01*
X008084Y005654D02*
X006751Y005654D01*
X006807Y005575D02*
X008084Y005575D01*
X008105Y005497D02*
X006885Y005497D01*
X006925Y005418D02*
X008138Y005418D01*
X008198Y005340D02*
X006957Y005340D01*
X006964Y005261D02*
X008278Y005261D01*
X008334Y004993D02*
X008242Y004955D01*
X008172Y004885D01*
X008134Y004793D01*
X008134Y004694D01*
X008172Y004602D01*
X008242Y004531D01*
X008334Y004493D01*
X008434Y004493D01*
X008526Y004531D01*
X008596Y004602D01*
X008634Y004694D01*
X008634Y004793D01*
X008596Y004885D01*
X008526Y004955D01*
X008434Y004993D01*
X008334Y004993D01*
X008234Y004947D02*
X006858Y004947D01*
X006913Y005026D02*
X010784Y005026D01*
X010784Y005104D02*
X006946Y005104D01*
X006964Y005183D02*
X010558Y005183D01*
X010450Y005261D02*
X008770Y005261D01*
X008850Y005340D02*
X010410Y005340D01*
X010399Y005418D02*
X010330Y005418D01*
X010218Y005418D02*
X008910Y005418D01*
X008943Y005497D02*
X010089Y005497D01*
X010041Y005575D02*
X008964Y005575D01*
X008964Y005654D02*
X010024Y005654D01*
X010031Y005732D02*
X008960Y005732D01*
X008928Y005811D02*
X010065Y005811D01*
X010160Y005889D02*
X008893Y005889D01*
X008814Y005968D02*
X010784Y005968D01*
X010784Y006046D02*
X008683Y006046D01*
X008010Y006203D02*
X006931Y006203D01*
X006898Y006282D02*
X007920Y006282D01*
X007887Y006360D02*
X006822Y006360D01*
X006701Y006439D02*
X007884Y006439D01*
X007884Y006517D02*
X005896Y006517D01*
X005929Y006439D02*
X006347Y006439D01*
X006226Y006360D02*
X005930Y006360D01*
X005908Y006282D02*
X006150Y006282D01*
X006117Y006203D02*
X005851Y006203D01*
X005509Y006203D02*
X004757Y006203D01*
X004818Y006282D02*
X005453Y006282D01*
X005430Y006360D02*
X004844Y006360D01*
X004844Y006439D02*
X005431Y006439D01*
X005464Y006517D02*
X004813Y006517D01*
X004344Y006439D02*
X003899Y006439D01*
X004164Y006203D02*
X004430Y006203D01*
X003273Y005261D02*
X003108Y005261D01*
X003194Y005340D02*
X002883Y005340D01*
X002836Y005418D02*
X003135Y005418D01*
X003209Y005026D02*
X003252Y005026D01*
X003188Y004947D02*
X003184Y004947D01*
X003160Y004869D02*
X003124Y004869D01*
X003147Y004790D02*
X003160Y004790D01*
X003178Y004712D02*
X003189Y004712D01*
X003178Y004633D02*
X003254Y004633D01*
X003388Y003848D02*
X003388Y003848D01*
X003388Y003770D02*
X003388Y003770D01*
X003388Y003691D02*
X003388Y003691D01*
X003388Y003649D02*
X003388Y003353D01*
X003388Y003353D01*
X003388Y003632D01*
X003388Y003649D01*
X003388Y003649D01*
X003388Y003613D02*
X003388Y003613D01*
X003388Y003534D02*
X003388Y003534D01*
X003388Y003456D02*
X003388Y003456D01*
X003388Y003377D02*
X003388Y003377D01*
X003388Y003299D02*
X003388Y003299D01*
X003388Y003220D02*
X003388Y003220D01*
X003388Y003142D02*
X003388Y003142D01*
X003388Y003063D02*
X003388Y003063D01*
X003388Y002985D02*
X003388Y002985D01*
X003388Y002906D02*
X003388Y002906D01*
X003388Y002828D02*
X003388Y002828D01*
X003093Y002828D02*
X003093Y002828D01*
X003093Y002906D02*
X003093Y002906D01*
X003093Y002985D02*
X003093Y002985D01*
X003093Y003063D02*
X003093Y003063D01*
X003093Y003142D02*
X003093Y003142D01*
X003093Y003220D02*
X003093Y003220D01*
X003093Y003299D02*
X003093Y003299D01*
X003093Y003353D02*
X003076Y003353D01*
X002797Y003353D01*
X002797Y003632D01*
X002797Y003649D01*
X002797Y003649D01*
X003093Y003649D01*
X003093Y003649D01*
X003093Y003353D01*
X003093Y003353D01*
X003093Y003353D01*
X002797Y003353D01*
X002797Y003353D01*
X002797Y003353D01*
X002797Y003649D01*
X002797Y003649D01*
X002814Y003649D01*
X003093Y003649D01*
X003093Y003649D01*
X003093Y003370D01*
X003093Y003353D01*
X003093Y003377D02*
X003093Y003377D01*
X003093Y003456D02*
X003093Y003456D01*
X003093Y003534D02*
X003093Y003534D01*
X003093Y003613D02*
X003093Y003613D01*
X003093Y003691D02*
X003093Y003691D01*
X003093Y003770D02*
X003093Y003770D01*
X003093Y003848D02*
X003093Y003848D01*
X002797Y003848D02*
X002797Y003848D01*
X002797Y003770D02*
X002797Y003770D01*
X002797Y003691D02*
X002797Y003691D01*
X002797Y003613D02*
X002797Y003613D01*
X002797Y003534D02*
X002797Y003534D01*
X002797Y003456D02*
X002797Y003456D01*
X002797Y003377D02*
X002797Y003377D01*
X002797Y003299D02*
X002797Y003299D01*
X002797Y003220D02*
X002797Y003220D01*
X002797Y003142D02*
X002797Y003142D01*
X002797Y003063D02*
X002797Y003063D01*
X002797Y002985D02*
X002797Y002985D01*
X002797Y002906D02*
X002797Y002906D01*
X002797Y002828D02*
X002797Y002828D01*
X002384Y002671D02*
X002284Y002671D01*
X002114Y002671D01*
X002082Y002592D02*
X002152Y002592D01*
X002122Y002562D02*
X002084Y002471D01*
X002084Y002371D01*
X002122Y002279D01*
X002192Y002209D01*
X002284Y002171D01*
X002384Y002171D01*
X002476Y002209D01*
X002546Y002279D01*
X002578Y002357D02*
X004748Y002357D01*
X004724Y002435D02*
X002584Y002435D01*
X002454Y002200D02*
X004221Y002200D01*
X004160Y002121D02*
X002047Y002121D01*
X002032Y002043D02*
X004134Y002043D01*
X004134Y001964D02*
X002074Y001964D01*
X002086Y001886D02*
X004165Y001886D01*
X004233Y001807D02*
X002075Y001807D01*
X002034Y001729D02*
X006186Y001729D01*
X006255Y001650D02*
X001924Y001650D01*
X001749Y001650D02*
X001264Y001650D01*
X001264Y001729D02*
X001639Y001729D01*
X001598Y001807D02*
X001264Y001807D01*
X001264Y001886D02*
X001586Y001886D01*
X001599Y001964D02*
X001264Y001964D01*
X001264Y002043D02*
X001641Y002043D01*
X001621Y002121D02*
X001264Y002121D01*
X001264Y002200D02*
X001588Y002200D01*
X001584Y002278D02*
X001264Y002278D01*
X001264Y002357D02*
X001604Y002357D01*
X001656Y002435D02*
X001264Y002435D01*
X001264Y002514D02*
X001732Y002514D01*
X001653Y002592D02*
X001264Y002592D01*
X001264Y002671D02*
X001621Y002671D01*
X001618Y002749D02*
X001264Y002749D01*
X001264Y002828D02*
X001638Y002828D01*
X001692Y002906D02*
X001264Y002906D01*
X001264Y002985D02*
X001633Y002985D01*
X001595Y003063D02*
X001264Y003063D01*
X001264Y003142D02*
X001586Y003142D01*
X001601Y003220D02*
X001264Y003220D01*
X001264Y003299D02*
X001647Y003299D01*
X001754Y003377D02*
X001264Y003377D01*
X001264Y003456D02*
X001709Y003456D01*
X001694Y003534D02*
X001264Y003534D01*
X001264Y003613D02*
X001703Y003613D01*
X001741Y003691D02*
X001264Y003691D01*
X002192Y002633D02*
X002122Y002562D01*
X002102Y002514D02*
X002003Y002514D01*
X002012Y002435D02*
X002084Y002435D01*
X002090Y002357D02*
X002064Y002357D01*
X002084Y002278D02*
X002123Y002278D01*
X002080Y002200D02*
X002214Y002200D01*
X002192Y002633D02*
X002284Y002671D01*
X006211Y004790D02*
X008134Y004790D01*
X008134Y004712D02*
X006458Y004712D01*
X006621Y004659D02*
X006621Y004659D01*
X006656Y004633D02*
X008159Y004633D01*
X008219Y004555D02*
X006764Y004555D01*
X006872Y004476D02*
X010784Y004476D01*
X010784Y004398D02*
X006968Y004398D01*
X006955Y004417D02*
X006955Y004417D01*
X007025Y004319D02*
X010784Y004319D01*
X010784Y004241D02*
X007082Y004241D01*
X007139Y004162D02*
X010784Y004162D01*
X010784Y004084D02*
X007196Y004084D01*
X007222Y004005D02*
X010784Y004005D01*
X010784Y003927D02*
X007248Y003927D01*
X007273Y003848D02*
X010784Y003848D01*
X010784Y003770D02*
X007299Y003770D01*
X007324Y003691D02*
X010784Y003691D01*
X010784Y003613D02*
X007324Y003613D01*
X007324Y003534D02*
X010784Y003534D01*
X010784Y003456D02*
X007324Y003456D01*
X007324Y003377D02*
X010784Y003377D01*
X010784Y003299D02*
X007853Y003299D01*
X007836Y003306D02*
X007737Y003306D01*
X007645Y003268D01*
X007574Y003197D01*
X007536Y003106D01*
X007536Y003006D01*
X007574Y002914D01*
X007627Y002862D01*
X007602Y002837D01*
X007564Y002746D01*
X007564Y002656D01*
X007549Y002656D01*
X007457Y002618D01*
X007387Y002547D01*
X007349Y002456D01*
X007349Y002356D01*
X007387Y002264D01*
X007457Y002194D01*
X007549Y002156D01*
X007649Y002156D01*
X007741Y002194D01*
X007811Y002264D01*
X007849Y002356D01*
X007849Y002446D01*
X007864Y002446D01*
X007956Y002484D01*
X008026Y002554D01*
X008064Y002646D01*
X008064Y002746D01*
X008026Y002837D01*
X007974Y002890D01*
X007998Y002914D01*
X008036Y003006D01*
X008036Y003106D01*
X007998Y003197D01*
X007928Y003268D01*
X007836Y003306D01*
X007720Y003299D02*
X007324Y003299D01*
X007324Y003220D02*
X007597Y003220D01*
X007551Y003142D02*
X007324Y003142D01*
X007324Y003063D02*
X007536Y003063D01*
X007545Y002985D02*
X007324Y002985D01*
X007324Y002906D02*
X007582Y002906D01*
X007598Y002828D02*
X007324Y002828D01*
X007324Y002749D02*
X007565Y002749D01*
X007564Y002671D02*
X007324Y002671D01*
X007324Y002592D02*
X007432Y002592D01*
X007373Y002514D02*
X007324Y002514D01*
X007324Y002435D02*
X007349Y002435D01*
X007349Y002357D02*
X007300Y002357D01*
X007255Y002278D02*
X007381Y002278D01*
X007451Y002200D02*
X007136Y002200D01*
X007246Y002264D02*
X007246Y002264D01*
X007246Y002264D01*
X007746Y002200D02*
X010784Y002200D01*
X010784Y002278D02*
X007817Y002278D01*
X007849Y002357D02*
X010784Y002357D01*
X010784Y002435D02*
X007849Y002435D01*
X007985Y002514D02*
X010784Y002514D01*
X010784Y002592D02*
X008042Y002592D01*
X008064Y002671D02*
X010784Y002671D01*
X010784Y002749D02*
X008062Y002749D01*
X008030Y002828D02*
X010784Y002828D01*
X010784Y002906D02*
X007990Y002906D01*
X008028Y002985D02*
X010784Y002985D01*
X010784Y003063D02*
X008036Y003063D01*
X008021Y003142D02*
X010784Y003142D01*
X010784Y003220D02*
X007975Y003220D01*
X008090Y002043D02*
X006569Y002043D01*
X006630Y001964D02*
X008029Y001964D01*
X008004Y001886D02*
X006655Y001886D01*
X006655Y001807D02*
X008004Y001807D01*
X008035Y001729D02*
X006624Y001729D01*
X006556Y001650D02*
X008103Y001650D01*
X008549Y004555D02*
X010784Y004555D01*
X010784Y004633D02*
X008609Y004633D01*
X008634Y004712D02*
X010784Y004712D01*
X010784Y004790D02*
X008634Y004790D01*
X008603Y004869D02*
X010784Y004869D01*
X010784Y004947D02*
X008533Y004947D01*
X008165Y004869D02*
X006779Y004869D01*
X006269Y004869D02*
X006243Y004869D01*
X006758Y007773D02*
X005516Y007773D01*
X005586Y007852D02*
X006805Y007852D01*
X009164Y008166D02*
X010784Y008166D01*
X010784Y005889D02*
X010388Y005889D01*
X010482Y005811D02*
X010784Y005811D01*
X010784Y005732D02*
X010517Y005732D01*
X010524Y005654D02*
X010570Y005654D01*
X010728Y005654D02*
X010784Y005654D01*
X010784Y005183D02*
X010740Y005183D01*
X004045Y009895D02*
X002346Y009895D01*
X002266Y010050D02*
X001264Y010050D01*
X001264Y010128D02*
X002244Y010128D01*
X002244Y010207D02*
X001264Y010207D01*
X001264Y010285D02*
X002277Y010285D01*
X002211Y009971D02*
X001264Y009971D01*
X001264Y009893D02*
X002133Y009893D01*
X002054Y009814D02*
X001264Y009814D01*
X001264Y009736D02*
X001976Y009736D01*
X001897Y009657D02*
X001264Y009657D01*
X001264Y009579D02*
X001382Y009579D01*
X001322Y009500D02*
X001264Y009500D01*
X001264Y009422D02*
X001295Y009422D01*
X001295Y009343D02*
X001264Y009343D01*
X001264Y009265D02*
X001323Y009265D01*
X001264Y009186D02*
X001386Y009186D01*
X001264Y009108D02*
X002004Y009108D01*
X002004Y009186D02*
X001725Y009186D01*
X001929Y009265D02*
X002004Y009265D01*
X002004Y009029D02*
X001264Y009029D01*
X001264Y008951D02*
X002004Y008951D01*
X002004Y008872D02*
X001264Y008872D01*
X001264Y008794D02*
X002004Y008794D01*
X002004Y008715D02*
X001264Y008715D01*
X001264Y008637D02*
X002004Y008637D01*
X002004Y008558D02*
X001264Y008558D01*
X001264Y008480D02*
X002004Y008480D01*
X002004Y008401D02*
X001264Y008401D01*
X001264Y008323D02*
X002033Y008323D01*
X002101Y008244D02*
X001264Y008244D01*
X001264Y008166D02*
X002884Y008166D01*
X002101Y008087D02*
X001264Y008087D01*
X001264Y008009D02*
X002033Y008009D01*
X002004Y007930D02*
X001264Y007930D01*
X001264Y007852D02*
X002004Y007852D01*
X002004Y007773D02*
X001264Y007773D01*
X001264Y007695D02*
X002004Y007695D01*
X002004Y007616D02*
X001264Y007616D01*
X001264Y007538D02*
X002004Y007538D01*
X002004Y007459D02*
X001264Y007459D01*
X001264Y007381D02*
X002004Y007381D01*
X002004Y007302D02*
X001264Y007302D01*
X001584Y007224D02*
X002004Y007224D01*
X002004Y007145D02*
X001637Y007145D01*
X001659Y007067D02*
X002004Y007067D01*
X002004Y006988D02*
X001659Y006988D01*
X001626Y006910D02*
X002004Y006910D01*
X002029Y006831D02*
X001557Y006831D01*
X001555Y006753D02*
X002092Y006753D01*
X001658Y006596D02*
X002954Y006596D01*
X002902Y006674D02*
X001625Y006674D01*
X001729Y009579D02*
X001819Y009579D01*
D14*
X001836Y009385D02*
X001555Y009385D01*
X001836Y009385D02*
X002346Y009895D01*
X004045Y009895D02*
X004305Y009635D01*
X004305Y009166D01*
M02*
