G75*
%MOIN*%
%OFA0B0*%
%FSLAX24Y24*%
%IPPOS*%
%LPD*%
%AMOC8*
5,1,8,0,0,1.08239X$1,22.5*
%
%ADD10R,0.0177X0.0315*%
%ADD11R,0.0394X0.0315*%
%ADD12R,0.0256X0.0098*%
%ADD13R,0.0315X0.0551*%
%ADD14R,0.0591X0.0512*%
%ADD15R,0.0236X0.0276*%
%ADD16R,0.0276X0.0236*%
%ADD17R,0.0315X0.0394*%
%ADD18R,0.0512X0.0591*%
%ADD19R,0.0138X0.0217*%
%ADD20R,0.0157X0.0315*%
%ADD21R,0.1063X0.0630*%
%ADD22C,0.0110*%
%ADD23R,0.0827X0.0827*%
%ADD24C,0.0278*%
%ADD25R,0.0433X0.0591*%
%ADD26R,0.0215X0.0211*%
%ADD27C,0.0080*%
%ADD28R,0.1811X0.1811*%
%ADD29C,0.0087*%
%ADD30R,0.0211X0.0215*%
%ADD31R,0.0315X0.0354*%
%ADD32R,0.0335X0.0138*%
%ADD33R,0.0551X0.0315*%
%ADD34R,0.0197X0.0394*%
%ADD35R,0.0315X0.0945*%
%ADD36R,0.0394X0.0197*%
%ADD37R,0.0300X0.0300*%
%ADD38C,0.0060*%
%ADD39C,0.0300*%
%ADD40C,0.0100*%
%ADD41C,0.0160*%
%ADD42C,0.0200*%
%ADD43C,0.0120*%
D10*
X002201Y010489D03*
X002201Y010895D03*
X002693Y010895D03*
X002693Y010489D03*
D11*
X003042Y010277D03*
X003042Y010887D03*
D12*
X005072Y010276D03*
X005072Y010020D03*
X005072Y009764D03*
X005899Y009764D03*
X005899Y010020D03*
X005899Y010276D03*
D13*
X005485Y010020D03*
D14*
X006547Y009826D03*
X006547Y010574D03*
D15*
X006073Y010595D03*
X005640Y010595D03*
X005343Y010595D03*
X004910Y010595D03*
X004613Y010475D03*
X004613Y010810D03*
X004180Y010810D03*
X004180Y010475D03*
X004400Y009114D03*
X004363Y008770D03*
X004796Y008770D03*
X004833Y009114D03*
X005175Y009145D03*
X005608Y009145D03*
X005925Y009145D03*
X006358Y009145D03*
X007081Y007739D03*
X007088Y007382D03*
X007521Y007382D03*
X007514Y007739D03*
X006264Y007676D03*
X005831Y007676D03*
X005296Y007082D03*
X005296Y006739D03*
X004863Y006739D03*
X004863Y007082D03*
X002958Y006260D03*
X002525Y006260D03*
X002733Y005801D03*
X002300Y005801D03*
X002003Y005645D03*
X002003Y005982D03*
X001570Y005982D03*
X001570Y005645D03*
X001523Y008026D03*
X001733Y008361D03*
X001300Y008361D03*
X001090Y008026D03*
X006863Y006495D03*
X007296Y006495D03*
X007590Y001805D03*
X008023Y001805D03*
X010010Y001645D03*
X010443Y001645D03*
X004606Y001632D03*
X004173Y001632D03*
D16*
X005235Y001616D03*
X005235Y002049D03*
X002668Y002068D03*
X002329Y002068D03*
X001983Y002069D03*
X001983Y001636D03*
X002329Y001635D03*
X002668Y001635D03*
X001954Y004268D03*
X001954Y004701D03*
X001107Y006178D03*
X001107Y006611D03*
X002037Y007008D03*
X002037Y007441D03*
X001107Y008710D03*
X001107Y009143D03*
X004298Y009616D03*
X004298Y010049D03*
X004735Y010049D03*
X004735Y009616D03*
X005487Y008691D03*
X005487Y008258D03*
X005485Y007955D03*
X005485Y007522D03*
X004547Y007121D03*
X004547Y006688D03*
X004423Y005986D03*
X004079Y005924D03*
X004079Y005491D03*
X004423Y005553D03*
X006597Y007998D03*
X006597Y008431D03*
X006704Y008741D03*
X006704Y009174D03*
D17*
X007082Y010426D03*
X007100Y010889D03*
X007711Y010889D03*
X007692Y010426D03*
X004342Y002405D03*
X003732Y002405D03*
D18*
G36*
X007464Y008491D02*
X007401Y007984D01*
X006816Y008057D01*
X006879Y008564D01*
X007464Y008491D01*
G37*
G36*
X007557Y009233D02*
X007494Y008726D01*
X006909Y008799D01*
X006972Y009306D01*
X007557Y009233D01*
G37*
D19*
X006323Y008769D03*
X006067Y008769D03*
X005811Y008769D03*
X005811Y008021D03*
X006323Y008021D03*
X001763Y007689D03*
X001507Y007689D03*
X001251Y007689D03*
X001251Y006941D03*
X001763Y006941D03*
D20*
X004320Y007462D03*
X004576Y007462D03*
X004832Y007462D03*
X005088Y007462D03*
X005088Y008328D03*
X004832Y008328D03*
X004576Y008328D03*
X004320Y008328D03*
D21*
X001517Y009637D03*
X001517Y010740D03*
D22*
X002343Y004222D02*
X002343Y003998D01*
X002540Y003998D02*
X002540Y004222D01*
X002737Y004222D02*
X002737Y003998D01*
X002934Y003998D02*
X002934Y004222D01*
X003131Y004222D02*
X003131Y003998D01*
X003328Y003998D02*
X003328Y004222D01*
X003501Y003824D02*
X003725Y003824D01*
X003725Y003628D02*
X003501Y003628D01*
X003501Y003431D02*
X003725Y003431D01*
X003725Y003234D02*
X003501Y003234D01*
X003501Y003037D02*
X003725Y003037D01*
X003725Y002840D02*
X003501Y002840D01*
X003328Y002667D02*
X003328Y002443D01*
X003131Y002443D02*
X003131Y002667D01*
X002934Y002667D02*
X002934Y002443D01*
X002737Y002443D02*
X002737Y002667D01*
X002540Y002667D02*
X002540Y002443D01*
X002343Y002443D02*
X002343Y002667D01*
X002170Y002840D02*
X001946Y002840D01*
X001946Y003037D02*
X002170Y003037D01*
X002170Y003234D02*
X001946Y003234D01*
X001946Y003431D02*
X002170Y003431D01*
X002170Y003628D02*
X001946Y003628D01*
X001946Y003824D02*
X002170Y003824D01*
D23*
X002835Y003332D03*
D24*
X002835Y003332D03*
X002540Y003332D03*
X002540Y003628D03*
X002835Y003628D03*
X003131Y003628D03*
X003131Y003332D03*
X003131Y003037D03*
X002835Y003037D03*
X002540Y003037D03*
D25*
X003088Y001800D03*
X003758Y001800D03*
D26*
X007142Y002724D03*
X007142Y003065D03*
X007807Y004502D03*
X007807Y004843D03*
X008454Y004774D03*
X008454Y005115D03*
D27*
X001007Y005960D02*
X001007Y001535D01*
X001705Y001535D01*
X001705Y001617D01*
X001964Y001617D01*
X001964Y001655D01*
X001724Y001655D01*
X001721Y001652D01*
X001629Y001614D01*
X001529Y001614D01*
X001438Y001652D01*
X001367Y001722D01*
X001329Y001814D01*
X001329Y001913D01*
X001334Y001925D01*
X001199Y002060D01*
X001199Y002216D01*
X001119Y002296D01*
X001119Y002296D01*
X001043Y002372D01*
X001043Y003855D01*
X001119Y003931D01*
X001338Y004150D01*
X001716Y004150D01*
X001716Y004316D01*
X001708Y004308D01*
X001616Y004270D01*
X001517Y004270D01*
X001425Y004308D01*
X001355Y004378D01*
X001317Y004470D01*
X001317Y004570D01*
X001355Y004661D01*
X001425Y004732D01*
X001517Y004770D01*
X001605Y004770D01*
X001667Y004832D01*
X001592Y004832D01*
X001500Y004870D01*
X001430Y004941D01*
X001392Y005033D01*
X001392Y005132D01*
X001430Y005224D01*
X001500Y005294D01*
X001563Y005320D01*
X001526Y005358D01*
X001512Y005358D01*
X001463Y005407D01*
X001411Y005407D01*
X001352Y005466D01*
X001352Y006095D01*
X001344Y006087D01*
X001344Y006019D01*
X001286Y005960D01*
X001007Y005960D01*
X001007Y005947D02*
X001352Y005947D01*
X001344Y006025D02*
X001352Y006025D01*
X001352Y005868D02*
X001007Y005868D01*
X001007Y005790D02*
X001352Y005790D01*
X001352Y005711D02*
X001007Y005711D01*
X001007Y005633D02*
X001352Y005633D01*
X001352Y005554D02*
X001007Y005554D01*
X001007Y005476D02*
X001352Y005476D01*
X001472Y005397D02*
X001007Y005397D01*
X001007Y005319D02*
X001559Y005319D01*
X001446Y005240D02*
X001007Y005240D01*
X001007Y005162D02*
X001404Y005162D01*
X001392Y005083D02*
X001007Y005083D01*
X001007Y005005D02*
X001403Y005005D01*
X001444Y004926D02*
X001007Y004926D01*
X001007Y004848D02*
X001555Y004848D01*
X001516Y004769D02*
X001007Y004769D01*
X001007Y004691D02*
X001384Y004691D01*
X001334Y004612D02*
X001007Y004612D01*
X001007Y004534D02*
X001317Y004534D01*
X001323Y004455D02*
X001007Y004455D01*
X001007Y004377D02*
X001356Y004377D01*
X001448Y004298D02*
X001007Y004298D01*
X001007Y004220D02*
X001716Y004220D01*
X001716Y004298D02*
X001685Y004298D01*
X001329Y004141D02*
X001007Y004141D01*
X001007Y004063D02*
X001251Y004063D01*
X001172Y003984D02*
X001007Y003984D01*
X001007Y003906D02*
X001094Y003906D01*
X001043Y003827D02*
X001007Y003827D01*
X001007Y003749D02*
X001043Y003749D01*
X001043Y003670D02*
X001007Y003670D01*
X001007Y003592D02*
X001043Y003592D01*
X001043Y003513D02*
X001007Y003513D01*
X001007Y003435D02*
X001043Y003435D01*
X001043Y003356D02*
X001007Y003356D01*
X001007Y003278D02*
X001043Y003278D01*
X001043Y003199D02*
X001007Y003199D01*
X001007Y003121D02*
X001043Y003121D01*
X001043Y003042D02*
X001007Y003042D01*
X001007Y002964D02*
X001043Y002964D01*
X001043Y002885D02*
X001007Y002885D01*
X001007Y002807D02*
X001043Y002807D01*
X001043Y002728D02*
X001007Y002728D01*
X001007Y002650D02*
X001043Y002650D01*
X001043Y002571D02*
X001007Y002571D01*
X001007Y002493D02*
X001043Y002493D01*
X001043Y002414D02*
X001007Y002414D01*
X001007Y002336D02*
X001079Y002336D01*
X001007Y002257D02*
X001158Y002257D01*
X001199Y002179D02*
X001007Y002179D01*
X001007Y002100D02*
X001199Y002100D01*
X001237Y002022D02*
X001007Y002022D01*
X001007Y001943D02*
X001316Y001943D01*
X001329Y001865D02*
X001007Y001865D01*
X001007Y001786D02*
X001341Y001786D01*
X001381Y001708D02*
X001007Y001708D01*
X001007Y001629D02*
X001491Y001629D01*
X001667Y001629D02*
X001964Y001629D01*
X002002Y001629D02*
X002310Y001629D01*
X002310Y001615D02*
X002261Y001615D01*
X002261Y001617D01*
X002002Y001617D01*
X002002Y001655D01*
X002051Y001655D01*
X002051Y001654D01*
X002310Y001654D01*
X002310Y001615D01*
X002348Y001615D02*
X002348Y001654D01*
X002649Y001654D01*
X002649Y001615D01*
X002607Y001615D01*
X002348Y001615D01*
X002348Y001629D02*
X002649Y001629D01*
X002668Y002068D02*
X002737Y002137D01*
X002737Y002555D01*
X002540Y002555D02*
X002540Y002387D01*
X002329Y002176D01*
X002091Y002150D02*
X002091Y001957D01*
X001829Y001957D01*
X001829Y002344D01*
X001865Y002258D01*
X001935Y002188D01*
X002027Y002150D01*
X002091Y002150D01*
X002091Y002100D02*
X001829Y002100D01*
X001829Y002022D02*
X002091Y002022D01*
X001957Y002179D02*
X001829Y002179D01*
X001829Y002257D02*
X001866Y002257D01*
X001833Y002336D02*
X001829Y002336D01*
X001829Y002456D02*
X001829Y002582D01*
X001860Y002658D01*
X001860Y002757D01*
X001848Y002788D01*
X001941Y002882D01*
X002225Y002882D01*
X002223Y002866D01*
X002211Y002850D01*
X002217Y002806D01*
X002212Y002755D01*
X002188Y002731D01*
X002188Y002624D01*
X002126Y002650D01*
X002027Y002650D01*
X001935Y002612D01*
X001865Y002541D01*
X001829Y002456D01*
X001829Y002493D02*
X001845Y002493D01*
X001829Y002571D02*
X001895Y002571D01*
X001857Y002650D02*
X002027Y002650D01*
X002126Y002650D02*
X002188Y002650D01*
X002188Y002728D02*
X001860Y002728D01*
X001866Y002807D02*
X002217Y002807D01*
X002291Y003332D02*
X002291Y003332D01*
X002540Y003332D01*
X002540Y003332D01*
X002291Y003332D01*
X002291Y003332D01*
X002540Y003332D02*
X002795Y003332D01*
X002795Y003332D01*
X002540Y003332D01*
X002540Y003332D01*
X002835Y003292D02*
X002835Y003292D01*
X002835Y003037D01*
X002835Y003037D01*
X002835Y003037D01*
X002835Y002788D01*
X002835Y002788D01*
X002835Y002788D01*
X002835Y003037D01*
X002835Y003053D01*
X002835Y003292D01*
X002835Y003278D02*
X002835Y003278D01*
X002875Y003332D02*
X002875Y003332D01*
X003131Y003332D01*
X003131Y003332D01*
X003380Y003332D01*
X003380Y003332D01*
X003380Y003332D01*
X003131Y003332D01*
X003131Y003332D01*
X003114Y003332D01*
X002875Y003332D01*
X002835Y003372D02*
X002835Y003372D01*
X002835Y003628D01*
X002835Y003877D01*
X002835Y003877D01*
X002835Y003877D01*
X002835Y003628D01*
X002835Y003628D01*
X002835Y003628D01*
X002835Y003372D01*
X002835Y003435D02*
X002835Y003435D01*
X002835Y003513D02*
X002835Y003513D01*
X002835Y003592D02*
X002835Y003592D01*
X002835Y003670D02*
X002835Y003670D01*
X002835Y003749D02*
X002835Y003749D01*
X002835Y003827D02*
X002835Y003827D01*
X002835Y003199D02*
X002835Y003199D01*
X002835Y003121D02*
X002835Y003121D01*
X002835Y003042D02*
X002835Y003042D01*
X002835Y002964D02*
X002835Y002964D01*
X002835Y002885D02*
X002835Y002885D01*
X002835Y002807D02*
X002835Y002807D01*
X003329Y002739D02*
X003329Y002369D01*
X003446Y002369D01*
X003607Y002207D01*
X003735Y002207D01*
X003748Y002195D01*
X004016Y002195D01*
X004074Y002136D01*
X004074Y001870D01*
X004332Y001870D01*
X004334Y001868D01*
X004377Y001911D01*
X004377Y002087D01*
X004356Y002108D01*
X004143Y002108D01*
X004084Y002167D01*
X004084Y002390D01*
X003907Y002567D01*
X003802Y002567D01*
X003720Y002649D01*
X003685Y002685D01*
X003437Y002685D01*
X003383Y002739D01*
X003329Y002739D01*
X003329Y002728D02*
X003393Y002728D01*
X003329Y002650D02*
X003720Y002650D01*
X003798Y002571D02*
X003329Y002571D01*
X003329Y002493D02*
X003981Y002493D01*
X004060Y002414D02*
X003329Y002414D01*
X003478Y002336D02*
X004084Y002336D01*
X004084Y002257D02*
X003557Y002257D01*
X004032Y002179D02*
X004084Y002179D01*
X004074Y002100D02*
X004363Y002100D01*
X004377Y002022D02*
X004074Y002022D01*
X004074Y001943D02*
X004377Y001943D01*
X004517Y001895D02*
X004610Y001801D01*
X004610Y001614D01*
X004642Y001645D01*
X004625Y001651D02*
X004864Y001651D01*
X004864Y001776D01*
X004940Y001808D01*
X005009Y001878D01*
X005030Y001857D01*
X005012Y001846D01*
X004986Y001820D01*
X004967Y001788D01*
X004958Y001752D01*
X004958Y001635D01*
X005216Y001635D01*
X005216Y001597D01*
X004958Y001597D01*
X004958Y001535D01*
X004864Y001535D01*
X004864Y001613D01*
X004625Y001613D01*
X004625Y001651D01*
X004625Y001839D01*
X004587Y001878D01*
X004587Y001651D01*
X004625Y001651D01*
X004625Y001629D02*
X005216Y001629D01*
X004958Y001551D02*
X004864Y001551D01*
X004864Y001708D02*
X004958Y001708D01*
X004967Y001786D02*
X004887Y001786D01*
X004996Y001865D02*
X005022Y001865D01*
X004625Y001786D02*
X004587Y001786D01*
X004587Y001708D02*
X004625Y001708D01*
X004599Y001865D02*
X004587Y001865D01*
X004517Y001895D02*
X004517Y002145D01*
X004342Y002320D01*
X004342Y002405D01*
X004329Y002707D02*
X004454Y002832D01*
X004454Y004270D01*
X004579Y004489D01*
X004594Y004739D02*
X004594Y005335D01*
X004602Y005335D01*
X004661Y005394D01*
X004661Y005713D01*
X004621Y005753D01*
X004678Y005810D01*
X004678Y006136D01*
X004559Y006255D01*
X004587Y006323D01*
X004587Y006422D01*
X004586Y006424D01*
X004633Y006470D01*
X004696Y006470D01*
X004673Y006413D01*
X004673Y006314D01*
X004711Y006222D01*
X004781Y006152D01*
X004873Y006114D01*
X004973Y006114D01*
X005065Y006152D01*
X005126Y006214D01*
X005141Y006214D01*
X005229Y006301D01*
X005429Y006501D01*
X005455Y006501D01*
X005459Y006505D01*
X005512Y006505D01*
X005512Y005008D01*
X005485Y004945D01*
X005485Y004845D01*
X005523Y004753D01*
X005524Y004753D01*
X005169Y004638D01*
X004836Y004395D01*
X004594Y004063D01*
X004594Y004063D01*
X004594Y004233D01*
X004598Y004239D01*
X004629Y004239D01*
X004721Y004277D01*
X004791Y004347D01*
X004829Y004439D01*
X004829Y004538D01*
X004791Y004630D01*
X004721Y004700D01*
X004629Y004739D01*
X004594Y004739D01*
X004594Y004769D02*
X005517Y004769D01*
X005485Y004848D02*
X004594Y004848D01*
X004594Y004926D02*
X005485Y004926D01*
X005510Y005005D02*
X004594Y005005D01*
X004594Y005083D02*
X005512Y005083D01*
X005512Y005162D02*
X004594Y005162D01*
X004594Y005240D02*
X005512Y005240D01*
X005512Y005319D02*
X004594Y005319D01*
X004661Y005397D02*
X005512Y005397D01*
X005512Y005476D02*
X004661Y005476D01*
X004661Y005554D02*
X005512Y005554D01*
X005512Y005633D02*
X004661Y005633D01*
X004661Y005711D02*
X005512Y005711D01*
X005512Y005790D02*
X004658Y005790D01*
X004678Y005868D02*
X005512Y005868D01*
X005512Y005947D02*
X004678Y005947D01*
X004678Y006025D02*
X005512Y006025D01*
X005512Y006104D02*
X004678Y006104D01*
X004632Y006182D02*
X004751Y006182D01*
X004695Y006261D02*
X004561Y006261D01*
X004587Y006339D02*
X004673Y006339D01*
X004675Y006418D02*
X004587Y006418D01*
X004547Y006582D02*
X004337Y006372D01*
X004142Y006531D02*
X004125Y006514D01*
X004094Y006440D01*
X004094Y007899D01*
X004213Y008018D01*
X004267Y007964D01*
X004423Y007807D01*
X004907Y007807D01*
X004963Y007752D01*
X004955Y007750D01*
X004923Y007731D01*
X004911Y007719D01*
X004712Y007719D01*
X004704Y007711D01*
X004696Y007719D01*
X004456Y007719D01*
X004448Y007711D01*
X004440Y007719D01*
X004200Y007719D01*
X004142Y007661D01*
X004142Y007263D01*
X004200Y007204D01*
X004214Y007204D01*
X004258Y007160D01*
X004309Y007109D01*
X004309Y006962D01*
X004366Y006905D01*
X004309Y006848D01*
X004309Y006645D01*
X004142Y006645D01*
X004142Y006531D01*
X004117Y006496D02*
X004094Y006496D01*
X004094Y006575D02*
X004142Y006575D01*
X004094Y006653D02*
X004309Y006653D01*
X004309Y006732D02*
X004094Y006732D01*
X004094Y006810D02*
X004309Y006810D01*
X004350Y006889D02*
X004094Y006889D01*
X004094Y006967D02*
X004309Y006967D01*
X004309Y007046D02*
X004094Y007046D01*
X004094Y007124D02*
X004294Y007124D01*
X004216Y007203D02*
X004094Y007203D01*
X004094Y007281D02*
X004142Y007281D01*
X004142Y007360D02*
X004094Y007360D01*
X004094Y007438D02*
X004142Y007438D01*
X004142Y007517D02*
X004094Y007517D01*
X004094Y007595D02*
X004142Y007595D01*
X004155Y007674D02*
X004094Y007674D01*
X004094Y007752D02*
X004962Y007752D01*
X005088Y007707D02*
X005088Y007707D01*
X005088Y007462D01*
X005088Y007462D01*
X005088Y007707D01*
X005088Y007674D02*
X005088Y007674D01*
X005088Y007595D02*
X005088Y007595D01*
X005088Y007517D02*
X005088Y007517D01*
X005088Y007462D02*
X005088Y007328D01*
X005088Y007329D01*
X005088Y007462D01*
X005088Y007462D01*
X005088Y007438D02*
X005088Y007438D01*
X005088Y007360D02*
X005088Y007360D01*
X005303Y007271D02*
X005297Y007250D01*
X005279Y007218D01*
X005277Y007216D01*
X005277Y007101D01*
X005315Y007101D01*
X005315Y007268D01*
X005303Y007271D01*
X005315Y007203D02*
X005277Y007203D01*
X005277Y007124D02*
X005315Y007124D01*
X005627Y007082D02*
X005642Y007097D01*
X005642Y007207D01*
X005831Y007397D01*
X005831Y007676D01*
X005971Y007438D02*
X005991Y007438D01*
X006048Y007495D01*
X006105Y007438D01*
X006424Y007438D01*
X006483Y007497D01*
X006483Y007780D01*
X006513Y007780D01*
X006485Y007715D01*
X006485Y007615D01*
X006523Y007523D01*
X006594Y007453D01*
X006686Y007415D01*
X006785Y007415D01*
X006830Y007433D01*
X006830Y007401D01*
X007069Y007401D01*
X007069Y007363D01*
X006830Y007363D01*
X006830Y007226D01*
X006839Y007190D01*
X006857Y007159D01*
X006881Y007135D01*
X006701Y007135D01*
X006666Y007125D01*
X006634Y007107D01*
X006608Y007081D01*
X006589Y007049D01*
X006580Y007013D01*
X006580Y006926D01*
X006580Y006879D01*
X006543Y006879D01*
X006288Y007134D01*
X006288Y007292D01*
X006230Y007351D01*
X006071Y007351D01*
X006043Y007379D01*
X005971Y007379D01*
X005971Y007438D01*
X005991Y007438D02*
X006105Y007438D01*
X006062Y007360D02*
X006830Y007360D01*
X006830Y007281D02*
X006288Y007281D01*
X006288Y007203D02*
X006836Y007203D01*
X006664Y007124D02*
X006298Y007124D01*
X006376Y007046D02*
X006589Y007046D01*
X006580Y006967D02*
X006455Y006967D01*
X006533Y006889D02*
X006580Y006889D01*
X006580Y006926D02*
X006887Y006926D01*
X006887Y006926D01*
X006580Y006926D01*
X006485Y006739D02*
X005985Y007239D01*
X005965Y007239D01*
X006021Y007182D01*
X006424Y007438D02*
X006629Y007438D01*
X006530Y007517D02*
X006483Y007517D01*
X006483Y007595D02*
X006494Y007595D01*
X006483Y007674D02*
X006485Y007674D01*
X006483Y007752D02*
X006501Y007752D01*
X006346Y008229D02*
X006212Y008229D01*
X006198Y008215D01*
X006198Y008238D01*
X005961Y008475D01*
X005961Y008526D01*
X005979Y008521D01*
X006067Y008521D01*
X006154Y008521D01*
X006190Y008530D01*
X006222Y008549D01*
X006234Y008561D01*
X006319Y008561D01*
X006319Y008450D01*
X006578Y008450D01*
X006578Y008412D01*
X006319Y008412D01*
X006319Y008295D01*
X006328Y008259D01*
X006346Y008229D01*
X006319Y008302D02*
X006134Y008302D01*
X006198Y008223D02*
X006207Y008223D01*
X006319Y008380D02*
X006056Y008380D01*
X005977Y008459D02*
X006319Y008459D01*
X006319Y008537D02*
X006202Y008537D01*
X006067Y008537D02*
X006067Y008537D01*
X006067Y008521D02*
X006067Y008769D01*
X006067Y008769D01*
X006067Y008521D01*
X006067Y008616D02*
X006067Y008616D01*
X006067Y008694D02*
X006067Y008694D01*
X006210Y009470D02*
X006883Y009470D01*
X006942Y009528D01*
X006942Y009565D01*
X006999Y009565D01*
X006999Y009893D01*
X007017Y009893D01*
X007017Y009565D01*
X007085Y009565D01*
X007079Y009552D01*
X007079Y009453D01*
X007097Y009410D01*
X006950Y009410D01*
X006943Y009411D01*
X006942Y009410D01*
X005245Y009410D01*
X005235Y009420D01*
X005141Y009514D01*
X005013Y009514D01*
X005013Y009575D01*
X005072Y009575D01*
X005072Y009764D01*
X005072Y009764D01*
X005072Y009575D01*
X005218Y009575D01*
X005254Y009584D01*
X005286Y009603D01*
X005292Y009609D01*
X005310Y009604D01*
X005447Y009604D01*
X005447Y009981D01*
X005524Y009981D01*
X005524Y009604D01*
X005661Y009604D01*
X005670Y009606D01*
X005709Y009567D01*
X006115Y009567D01*
X006127Y009556D01*
X006151Y009531D01*
X006151Y009528D01*
X006210Y009470D01*
X006201Y009479D02*
X005176Y009479D01*
X005013Y009558D02*
X006124Y009558D01*
X006244Y009636D02*
X006798Y009636D01*
X006798Y009614D02*
X006267Y009614D01*
X006173Y009707D01*
X005767Y009707D01*
X005767Y009801D01*
X006110Y009801D01*
X006127Y009817D01*
X006575Y009817D01*
X006798Y010041D01*
X006798Y009614D01*
X006798Y009715D02*
X005767Y009715D01*
X005767Y009793D02*
X006798Y009793D01*
X006798Y009872D02*
X006629Y009872D01*
X006708Y009950D02*
X006798Y009950D01*
X006786Y010029D02*
X006798Y010029D01*
X006741Y010182D02*
X006210Y010182D01*
X006151Y010123D01*
X006151Y009957D01*
X005767Y009957D01*
X005767Y010051D01*
X005842Y010126D01*
X006068Y010126D01*
X006127Y010185D01*
X006127Y010366D01*
X006068Y010425D01*
X006014Y010425D01*
X005990Y010449D01*
X005990Y010706D01*
X005999Y010714D01*
X005999Y010721D01*
X006329Y011051D01*
X007079Y011051D01*
X007079Y010239D01*
X006798Y010239D01*
X006741Y010182D01*
X006745Y010186D02*
X006127Y010186D01*
X006127Y010264D02*
X007079Y010264D01*
X007079Y010343D02*
X006127Y010343D01*
X006072Y010421D02*
X007079Y010421D01*
X007079Y010500D02*
X005990Y010500D01*
X005990Y010578D02*
X007079Y010578D01*
X007079Y010657D02*
X005990Y010657D01*
X006013Y010735D02*
X007079Y010735D01*
X007079Y010814D02*
X006092Y010814D01*
X006077Y010897D02*
X006073Y010595D01*
X005860Y010775D02*
X005735Y010905D01*
X004995Y010905D01*
X004892Y010801D01*
X004892Y010645D01*
X005362Y010614D02*
X005362Y010576D01*
X005601Y010576D01*
X005621Y010576D01*
X005621Y010614D01*
X005362Y010614D01*
X005362Y010578D02*
X005621Y010578D01*
X005823Y010107D02*
X006151Y010107D01*
X006151Y010029D02*
X005767Y010029D01*
X005524Y009950D02*
X005447Y009950D01*
X005447Y009872D02*
X005524Y009872D01*
X005524Y009793D02*
X005447Y009793D01*
X005447Y009715D02*
X005524Y009715D01*
X005524Y009636D02*
X005447Y009636D01*
X005072Y009636D02*
X005072Y009636D01*
X005072Y009715D02*
X005072Y009715D01*
X004716Y009635D02*
X004716Y009597D01*
X004458Y009597D01*
X004317Y009597D01*
X004317Y009635D01*
X004716Y009635D01*
X004279Y009635D02*
X004279Y009597D01*
X004020Y009597D01*
X004020Y009479D01*
X004030Y009444D01*
X004048Y009412D01*
X004050Y009410D01*
X003932Y009410D01*
X003932Y009497D01*
X003932Y009593D01*
X003895Y009681D01*
X003828Y009748D01*
X003739Y009785D01*
X002619Y009785D01*
X002531Y009748D01*
X002522Y009739D01*
X002522Y010185D01*
X002542Y010205D01*
X002550Y010201D01*
X002586Y010191D01*
X002688Y010191D01*
X002688Y010484D01*
X002697Y010484D01*
X002697Y010191D01*
X002705Y010191D01*
X002705Y010101D01*
X002714Y010066D01*
X002733Y010034D01*
X002759Y010008D01*
X002791Y009989D01*
X002826Y009980D01*
X003003Y009980D01*
X003003Y010238D01*
X003080Y010238D01*
X003080Y009980D01*
X003181Y009980D01*
X003181Y009963D01*
X003191Y009927D01*
X003209Y009895D01*
X003235Y009869D01*
X003267Y009851D01*
X003303Y009841D01*
X003558Y009841D01*
X003558Y010100D01*
X003635Y010100D01*
X003635Y009841D01*
X003891Y009841D01*
X003926Y009851D01*
X003958Y009869D01*
X003984Y009895D01*
X004003Y009927D01*
X004006Y009940D01*
X004091Y009856D01*
X004074Y009846D01*
X004048Y009820D01*
X004030Y009788D01*
X004020Y009752D01*
X004020Y009635D01*
X004279Y009635D01*
X004020Y009636D02*
X003914Y009636D01*
X003932Y009558D02*
X004020Y009558D01*
X004020Y009479D02*
X003932Y009479D01*
X003932Y009270D02*
X003932Y008133D01*
X004002Y008203D01*
X004002Y008672D01*
X004145Y008814D01*
X004145Y008948D01*
X004142Y008957D01*
X004142Y009094D01*
X004381Y009094D01*
X004381Y009133D01*
X004142Y009133D01*
X004142Y009270D01*
X004142Y009270D01*
X003932Y009270D01*
X003932Y009244D02*
X004142Y009244D01*
X004142Y009165D02*
X003932Y009165D01*
X003932Y009087D02*
X004142Y009087D01*
X004142Y009008D02*
X003932Y009008D01*
X003932Y008930D02*
X004145Y008930D01*
X004145Y008851D02*
X003932Y008851D01*
X003932Y008773D02*
X004103Y008773D01*
X004024Y008694D02*
X003932Y008694D01*
X003932Y008616D02*
X004002Y008616D01*
X004002Y008537D02*
X003932Y008537D01*
X003932Y008459D02*
X004002Y008459D01*
X004002Y008380D02*
X003932Y008380D01*
X003932Y008302D02*
X004002Y008302D01*
X004002Y008223D02*
X003932Y008223D01*
X003932Y008145D02*
X003944Y008145D01*
X003954Y007957D02*
X003954Y006207D01*
X004017Y006145D01*
X004017Y006020D01*
X004046Y006020D01*
X004079Y005924D01*
X004017Y006049D01*
X004392Y005520D02*
X004454Y005457D01*
X004454Y004270D01*
X004594Y004220D02*
X004708Y004220D01*
X004742Y004298D02*
X004765Y004298D01*
X004803Y004377D02*
X004822Y004377D01*
X004836Y004395D02*
X004836Y004395D01*
X004836Y004395D01*
X004829Y004455D02*
X004918Y004455D01*
X004829Y004534D02*
X005026Y004534D01*
X005134Y004612D02*
X004799Y004612D01*
X004730Y004691D02*
X005333Y004691D01*
X005169Y004638D02*
X005169Y004638D01*
X004651Y004141D02*
X004594Y004141D01*
X005772Y005145D02*
X005772Y006487D01*
X005800Y006471D01*
X005835Y006461D01*
X006021Y006461D01*
X006021Y006505D01*
X006021Y006505D01*
X006021Y006461D01*
X006207Y006461D01*
X006242Y006471D01*
X006274Y006489D01*
X006290Y006505D01*
X006844Y006505D01*
X006844Y006476D01*
X006882Y006476D01*
X006882Y006217D01*
X006999Y006217D01*
X007035Y006227D01*
X007067Y006245D01*
X007093Y006271D01*
X007104Y006290D01*
X007136Y006257D01*
X007455Y006257D01*
X007514Y006316D01*
X007514Y006505D01*
X007602Y006505D01*
X007602Y006347D01*
X007638Y006259D01*
X007706Y006191D01*
X007794Y006155D01*
X008914Y006155D01*
X009003Y006191D01*
X009070Y006259D01*
X009107Y006347D01*
X009107Y007855D01*
X009142Y007855D01*
X009310Y007855D01*
X009346Y007864D01*
X009378Y007883D01*
X009404Y007909D01*
X009535Y007909D01*
X009535Y007831D02*
X009107Y007831D01*
X009142Y007855D02*
X009142Y008145D01*
X009432Y008145D01*
X009432Y008313D01*
X009422Y008349D01*
X009404Y008381D01*
X009378Y008407D01*
X009346Y008425D01*
X009310Y008435D01*
X009142Y008435D01*
X009142Y008145D01*
X009142Y008145D01*
X009535Y008145D01*
X009535Y008223D02*
X009432Y008223D01*
X009432Y008145D02*
X009142Y008145D01*
X009142Y008145D01*
X009142Y008435D01*
X009107Y008435D01*
X009107Y008991D01*
X009153Y008945D01*
X009535Y008562D01*
X009535Y006228D01*
X009218Y005910D01*
X008594Y005910D01*
X008516Y005988D01*
X008354Y006055D01*
X008179Y006055D01*
X008017Y005988D01*
X007939Y005910D01*
X006702Y005910D01*
X006709Y005927D01*
X006709Y006103D01*
X006644Y006259D01*
X006659Y006245D01*
X006690Y006227D01*
X006726Y006217D01*
X006844Y006217D01*
X006844Y006476D01*
X006605Y006476D01*
X006605Y006339D01*
X006568Y006339D01*
X006605Y006339D02*
X006614Y006303D01*
X006627Y006280D01*
X006517Y006390D01*
X006355Y006457D01*
X006179Y006457D01*
X006016Y006390D01*
X005892Y006265D01*
X005824Y006103D01*
X005824Y005927D01*
X005892Y005764D01*
X006016Y005640D01*
X006050Y005626D01*
X006002Y005578D01*
X006002Y005576D01*
X005892Y005465D01*
X005824Y005303D01*
X005824Y005129D01*
X005785Y005145D01*
X005772Y005145D01*
X005772Y005162D02*
X005824Y005162D01*
X005824Y005240D02*
X005772Y005240D01*
X005772Y005319D02*
X005831Y005319D01*
X005863Y005397D02*
X005772Y005397D01*
X005772Y005476D02*
X005902Y005476D01*
X005980Y005554D02*
X005772Y005554D01*
X005772Y005633D02*
X006033Y005633D01*
X005944Y005711D02*
X005772Y005711D01*
X005772Y005790D02*
X005881Y005790D01*
X005848Y005868D02*
X005772Y005868D01*
X005772Y005947D02*
X005824Y005947D01*
X005824Y006025D02*
X005772Y006025D01*
X005772Y006104D02*
X005825Y006104D01*
X005857Y006182D02*
X005772Y006182D01*
X005772Y006261D02*
X005890Y006261D01*
X005965Y006339D02*
X005772Y006339D01*
X005772Y006418D02*
X006083Y006418D01*
X006021Y006496D02*
X006021Y006496D01*
X006281Y006496D02*
X006844Y006496D01*
X006844Y006418D02*
X006882Y006418D01*
X006882Y006339D02*
X006844Y006339D01*
X006844Y006261D02*
X006882Y006261D01*
X006676Y006182D02*
X007728Y006182D01*
X007637Y006261D02*
X007459Y006261D01*
X007514Y006339D02*
X007605Y006339D01*
X007602Y006418D02*
X007514Y006418D01*
X007514Y006496D02*
X007602Y006496D01*
X007602Y006645D02*
X007514Y006645D01*
X007514Y006674D01*
X007455Y006733D01*
X007270Y006733D01*
X007217Y006792D01*
X007217Y006797D01*
X007190Y006823D01*
X007195Y006839D01*
X007195Y006926D01*
X006887Y006926D01*
X006887Y006926D01*
X007195Y006926D01*
X007195Y007013D01*
X007185Y007049D01*
X007167Y007081D01*
X007143Y007104D01*
X007224Y007104D01*
X007260Y007114D01*
X007292Y007132D01*
X007318Y007159D01*
X007329Y007177D01*
X007361Y007144D01*
X007602Y007144D01*
X007602Y006645D01*
X007602Y006653D02*
X007514Y006653D01*
X007456Y006732D02*
X007602Y006732D01*
X007602Y006810D02*
X007203Y006810D01*
X007195Y006889D02*
X007602Y006889D01*
X007602Y006967D02*
X007195Y006967D01*
X007186Y007046D02*
X007602Y007046D01*
X007602Y007124D02*
X007278Y007124D01*
X007077Y006739D02*
X006485Y006739D01*
X006450Y006418D02*
X006605Y006418D01*
X006709Y006104D02*
X009412Y006104D01*
X009490Y006182D02*
X008981Y006182D01*
X009071Y006261D02*
X009535Y006261D01*
X009535Y006339D02*
X009103Y006339D01*
X009107Y006418D02*
X009535Y006418D01*
X009535Y006496D02*
X009107Y006496D01*
X009107Y006575D02*
X009535Y006575D01*
X009535Y006653D02*
X009107Y006653D01*
X009107Y006732D02*
X009535Y006732D01*
X009535Y006810D02*
X009107Y006810D01*
X009107Y006889D02*
X009535Y006889D01*
X009535Y006967D02*
X009107Y006967D01*
X009107Y007046D02*
X009535Y007046D01*
X009535Y007124D02*
X009107Y007124D01*
X009107Y007203D02*
X009535Y007203D01*
X009535Y007281D02*
X009107Y007281D01*
X009107Y007360D02*
X009535Y007360D01*
X009535Y007438D02*
X009107Y007438D01*
X009107Y007517D02*
X009535Y007517D01*
X009535Y007595D02*
X009107Y007595D01*
X009107Y007674D02*
X009535Y007674D01*
X009535Y007752D02*
X009107Y007752D01*
X009142Y007855D02*
X009142Y008145D01*
X009142Y008145D01*
X009142Y008223D02*
X009142Y008223D01*
X009142Y008302D02*
X009142Y008302D01*
X009142Y008380D02*
X009142Y008380D01*
X009107Y008459D02*
X009535Y008459D01*
X009535Y008537D02*
X009107Y008537D01*
X009107Y008616D02*
X009482Y008616D01*
X009403Y008694D02*
X009107Y008694D01*
X009107Y008773D02*
X009325Y008773D01*
X009246Y008851D02*
X009107Y008851D01*
X009107Y008930D02*
X009168Y008930D01*
X009435Y009228D02*
X009435Y009274D01*
X010527Y009276D01*
X010527Y005910D01*
X009783Y005910D01*
X009818Y005945D01*
X009935Y006062D01*
X009935Y008728D01*
X009435Y009228D01*
X009435Y009244D02*
X010527Y009244D01*
X010527Y009165D02*
X009498Y009165D01*
X009576Y009087D02*
X010527Y009087D01*
X010527Y009008D02*
X009655Y009008D01*
X009733Y008930D02*
X010527Y008930D01*
X010527Y008851D02*
X009812Y008851D01*
X009890Y008773D02*
X010527Y008773D01*
X010527Y008694D02*
X009935Y008694D01*
X009935Y008616D02*
X010527Y008616D01*
X010527Y008537D02*
X009935Y008537D01*
X009935Y008459D02*
X010527Y008459D01*
X010527Y008380D02*
X009935Y008380D01*
X009935Y008302D02*
X010527Y008302D01*
X010527Y008223D02*
X009935Y008223D01*
X009935Y008145D02*
X010527Y008145D01*
X010527Y008066D02*
X009935Y008066D01*
X009935Y007988D02*
X010527Y007988D01*
X010527Y007909D02*
X009935Y007909D01*
X009935Y007831D02*
X010527Y007831D01*
X010527Y007752D02*
X009935Y007752D01*
X009935Y007674D02*
X010527Y007674D01*
X010527Y007595D02*
X009935Y007595D01*
X009935Y007517D02*
X010527Y007517D01*
X010527Y007438D02*
X009935Y007438D01*
X009935Y007360D02*
X010527Y007360D01*
X010527Y007281D02*
X009935Y007281D01*
X009935Y007203D02*
X010527Y007203D01*
X010527Y007124D02*
X009935Y007124D01*
X009935Y007046D02*
X010527Y007046D01*
X010527Y006967D02*
X009935Y006967D01*
X009935Y006889D02*
X010527Y006889D01*
X010527Y006810D02*
X009935Y006810D01*
X009935Y006732D02*
X010527Y006732D01*
X010527Y006653D02*
X009935Y006653D01*
X009935Y006575D02*
X010527Y006575D01*
X010527Y006496D02*
X009935Y006496D01*
X009935Y006418D02*
X010527Y006418D01*
X010527Y006339D02*
X009935Y006339D01*
X009935Y006261D02*
X010527Y006261D01*
X010527Y006182D02*
X009935Y006182D01*
X009935Y006104D02*
X010527Y006104D01*
X010527Y006025D02*
X009899Y006025D01*
X009820Y005947D02*
X010527Y005947D01*
X009798Y005770D02*
X009767Y005695D01*
X009767Y005595D01*
X009785Y005550D01*
X009707Y005550D01*
X009707Y005315D01*
X009682Y005315D01*
X009682Y005550D01*
X009571Y005550D01*
X009535Y005540D01*
X009504Y005522D01*
X009504Y005599D01*
X009554Y005649D01*
X009554Y005680D01*
X009643Y005770D01*
X009798Y005770D01*
X009774Y005711D02*
X009585Y005711D01*
X009538Y005633D02*
X009767Y005633D01*
X009784Y005554D02*
X009504Y005554D01*
X009682Y005476D02*
X009707Y005476D01*
X009707Y005397D02*
X009682Y005397D01*
X009682Y005319D02*
X009707Y005319D01*
X009707Y005315D02*
X009940Y005315D01*
X009940Y005319D01*
X009963Y005296D01*
X010182Y005077D01*
X010182Y004946D01*
X010175Y004946D01*
X010163Y004958D01*
X010131Y004976D01*
X010095Y004986D01*
X009984Y004986D01*
X009984Y004751D01*
X009958Y004751D01*
X009958Y004726D01*
X009940Y004726D01*
X009940Y004730D01*
X009707Y004730D01*
X009707Y004755D01*
X009682Y004755D01*
X009682Y005010D01*
X009707Y005010D01*
X009707Y005035D01*
X009682Y005035D01*
X009682Y005290D01*
X009707Y005290D01*
X009707Y005315D01*
X009707Y005290D02*
X009940Y005290D01*
X009940Y005176D01*
X009936Y005162D01*
X009940Y005148D01*
X009940Y005035D01*
X009707Y005035D01*
X009707Y005270D01*
X009707Y005290D01*
X009707Y005240D02*
X009682Y005240D01*
X009682Y005162D02*
X009707Y005162D01*
X009707Y005083D02*
X009682Y005083D01*
X009707Y005010D02*
X009940Y005010D01*
X009940Y004986D01*
X009958Y004986D01*
X009958Y004751D01*
X009726Y004751D01*
X009726Y004755D01*
X009707Y004755D01*
X009707Y004775D01*
X009707Y005010D01*
X009707Y005005D02*
X009682Y005005D01*
X009682Y004926D02*
X009707Y004926D01*
X009707Y004848D02*
X009682Y004848D01*
X009682Y004769D02*
X009707Y004769D01*
X009958Y004769D02*
X009984Y004769D01*
X009984Y004848D02*
X009958Y004848D01*
X009958Y004926D02*
X009984Y004926D01*
X009940Y005005D02*
X010182Y005005D01*
X010176Y005083D02*
X009940Y005083D01*
X009937Y005162D02*
X010097Y005162D01*
X010019Y005240D02*
X009940Y005240D01*
X009963Y005296D02*
X009963Y005296D01*
X010312Y004739D02*
X010288Y004714D01*
X010288Y004067D01*
X010405Y004067D02*
X010171Y004067D01*
X010171Y003910D02*
X010405Y003910D01*
X010405Y003752D02*
X010171Y003752D01*
X010171Y003595D02*
X010405Y003595D01*
X010405Y003437D02*
X010171Y003437D01*
X010171Y003280D02*
X010405Y003280D01*
X010405Y003122D02*
X010171Y003122D01*
X010171Y002965D02*
X010405Y002965D01*
X010405Y002807D02*
X010171Y002807D01*
X010171Y002650D02*
X010405Y002650D01*
X010405Y002492D02*
X010171Y002492D01*
X010171Y002335D02*
X010405Y002335D01*
X010288Y002335D02*
X010288Y002155D01*
X010429Y002155D01*
X010475Y002167D01*
X010516Y002191D01*
X010527Y002202D01*
X010527Y001923D01*
X010462Y001923D01*
X010462Y001664D01*
X010424Y001664D01*
X010424Y001923D01*
X010307Y001923D01*
X010271Y001913D01*
X010239Y001895D01*
X010213Y001869D01*
X010202Y001850D01*
X010170Y001883D01*
X010113Y001883D01*
X010113Y002164D01*
X010147Y002155D01*
X010288Y002155D01*
X010288Y002335D01*
X009973Y002335D01*
X009107Y003201D01*
X008555Y002650D01*
X008555Y002684D01*
X008642Y002770D01*
X008555Y002650D02*
X007926Y002650D01*
X008043Y002650D02*
X007809Y002650D01*
X007809Y002807D02*
X008043Y002807D01*
X008043Y002965D02*
X007809Y002965D01*
X007809Y003122D02*
X008043Y003122D01*
X008043Y003280D02*
X007809Y003280D01*
X007809Y003437D02*
X008043Y003437D01*
X008043Y003595D02*
X007809Y003595D01*
X007718Y003752D02*
X007610Y003645D01*
X007517Y003645D01*
X007500Y003627D01*
X007718Y003752D02*
X007926Y003752D01*
X008043Y003752D02*
X007809Y003752D01*
X007809Y003910D02*
X008043Y003910D01*
X007926Y003910D02*
X007507Y003910D01*
X007473Y003944D01*
X007473Y004248D01*
X007722Y004502D02*
X007704Y004520D01*
X007722Y004502D02*
X007807Y004502D01*
X007798Y004493D01*
X007798Y004145D01*
X007876Y004067D01*
X007926Y004067D01*
X008043Y004067D02*
X007809Y004067D01*
X007507Y003910D02*
X007500Y003902D01*
X007171Y003890D02*
X007171Y003640D01*
X007146Y003640D01*
X007146Y003875D01*
X007146Y003890D01*
X007171Y003890D01*
X007159Y003902D02*
X007159Y004003D01*
X007110Y004051D01*
X007110Y004178D01*
X007040Y004248D01*
X007001Y004220D02*
X006825Y004220D01*
X006833Y004209D02*
X006776Y004287D01*
X007001Y004287D01*
X007001Y004209D01*
X006833Y004209D01*
X006743Y004333D02*
X006697Y004395D01*
X006697Y004395D01*
X006364Y004638D01*
X006142Y004710D01*
X006142Y004788D01*
X006179Y004772D01*
X006355Y004772D01*
X006517Y004840D01*
X006642Y004964D01*
X006709Y005127D01*
X006709Y005303D01*
X006642Y005465D01*
X006517Y005590D01*
X006457Y005615D01*
X006517Y005640D01*
X006642Y005764D01*
X006644Y005770D01*
X007855Y005770D01*
X007827Y005702D01*
X007827Y005527D01*
X007894Y005366D01*
X007967Y005292D01*
X007898Y005224D01*
X007860Y005132D01*
X007860Y005088D01*
X007819Y005088D01*
X007819Y004856D01*
X007794Y004856D01*
X007794Y005088D01*
X007717Y005088D01*
X007717Y005088D01*
X007685Y005107D01*
X007649Y005116D01*
X007512Y005116D01*
X007512Y004838D01*
X007434Y004838D01*
X007434Y005116D01*
X007297Y005116D01*
X007262Y005107D01*
X007230Y005088D01*
X007218Y005076D01*
X006841Y005076D01*
X006783Y005018D01*
X006783Y004581D01*
X006815Y004548D01*
X006797Y004537D01*
X006771Y004511D01*
X006752Y004479D01*
X006743Y004444D01*
X006743Y004333D01*
X006743Y004377D02*
X006711Y004377D01*
X006697Y004395D02*
X006697Y004395D01*
X006746Y004455D02*
X006615Y004455D01*
X006507Y004534D02*
X006793Y004534D01*
X006783Y004612D02*
X006399Y004612D01*
X006364Y004638D02*
X006364Y004638D01*
X006200Y004691D02*
X006783Y004691D01*
X006783Y004769D02*
X006142Y004769D01*
X006525Y004848D02*
X006783Y004848D01*
X006783Y004926D02*
X006604Y004926D01*
X006659Y005005D02*
X006783Y005005D01*
X006691Y005083D02*
X007225Y005083D01*
X007434Y005083D02*
X007512Y005083D01*
X007512Y005005D02*
X007434Y005005D01*
X007434Y004926D02*
X007512Y004926D01*
X007512Y004848D02*
X007434Y004848D01*
X007512Y004838D02*
X007771Y004838D01*
X007771Y004856D01*
X007794Y004856D01*
X007794Y004830D01*
X007559Y004830D01*
X007559Y004760D01*
X007512Y004760D01*
X007512Y004838D01*
X007512Y004769D02*
X007559Y004769D01*
X007771Y004848D02*
X007794Y004848D01*
X007794Y004926D02*
X007819Y004926D01*
X007819Y005005D02*
X007794Y005005D01*
X007794Y005083D02*
X007819Y005083D01*
X007873Y005162D02*
X006709Y005162D01*
X006709Y005240D02*
X007915Y005240D01*
X007940Y005319D02*
X006703Y005319D01*
X006670Y005397D02*
X007881Y005397D01*
X007848Y005476D02*
X006631Y005476D01*
X006553Y005554D02*
X007827Y005554D01*
X007827Y005633D02*
X006501Y005633D01*
X006589Y005711D02*
X007830Y005711D01*
X007976Y005947D02*
X006709Y005947D01*
X006709Y006025D02*
X008108Y006025D01*
X008425Y006025D02*
X009333Y006025D01*
X009255Y005947D02*
X008557Y005947D01*
X008679Y005770D02*
X009154Y005770D01*
X009154Y005649D01*
X009204Y005599D01*
X009204Y005507D01*
X009148Y005451D01*
X008923Y005451D01*
X008835Y005363D01*
X008773Y005301D01*
X008773Y005129D01*
X008754Y005124D01*
X008712Y005100D01*
X008702Y005090D01*
X008702Y005103D01*
X008467Y005103D01*
X008467Y005128D01*
X008702Y005128D01*
X008702Y005239D01*
X008692Y005275D01*
X008674Y005307D01*
X008648Y005333D01*
X008622Y005348D01*
X008640Y005366D01*
X008707Y005527D01*
X008707Y005702D01*
X008679Y005770D01*
X008703Y005711D02*
X009154Y005711D01*
X009170Y005633D02*
X008707Y005633D01*
X008707Y005554D02*
X009204Y005554D01*
X009173Y005476D02*
X008685Y005476D01*
X008653Y005397D02*
X008870Y005397D01*
X008791Y005319D02*
X008662Y005319D01*
X008701Y005240D02*
X008773Y005240D01*
X008773Y005162D02*
X008702Y005162D01*
X008673Y004989D02*
X008517Y005145D01*
X008484Y005145D01*
X008454Y005115D01*
X008673Y004989D02*
X008673Y004864D01*
X008691Y004953D02*
X008824Y004953D01*
X008824Y004953D01*
X008691Y004953D01*
X008691Y004953D01*
X008824Y004715D02*
X008870Y004669D01*
X008870Y004382D01*
X008870Y004265D02*
X008870Y004499D01*
X009021Y004389D02*
X009021Y004715D01*
X009021Y004953D02*
X009147Y004953D01*
X009158Y004942D01*
X009343Y004732D02*
X009354Y004742D01*
X009343Y004732D02*
X009343Y004382D01*
X009343Y004265D02*
X009343Y004499D01*
X009500Y004499D02*
X009500Y004265D01*
X009658Y004265D02*
X009658Y004499D01*
X009815Y004499D02*
X009815Y004265D01*
X009973Y004265D02*
X009973Y004499D01*
X009185Y004499D02*
X009185Y004265D01*
X009028Y004265D02*
X009028Y004499D01*
X009021Y004389D02*
X009028Y004382D01*
X008713Y004265D02*
X008713Y004499D01*
X008713Y004382D02*
X008555Y004382D01*
X008555Y004265D02*
X008555Y004499D01*
X008555Y004382D02*
X008555Y004382D01*
X008713Y004382D01*
X008713Y004382D01*
X008713Y003716D01*
X008642Y003645D01*
X008398Y004265D02*
X008398Y004499D01*
X008398Y004382D02*
X008398Y004718D01*
X008421Y004741D01*
X008392Y004770D01*
X008344Y004722D01*
X008267Y004722D01*
X008241Y004696D01*
X008241Y004382D01*
X008241Y004265D02*
X008241Y004499D01*
X008267Y004722D02*
X008127Y004722D01*
X008421Y004741D02*
X008454Y004774D01*
X009148Y005451D02*
X009148Y005451D01*
X007296Y006495D02*
X007077Y006739D01*
X007083Y006261D02*
X007132Y006261D01*
X007514Y007739D02*
X007600Y007825D01*
X007600Y008811D01*
X007392Y009020D01*
X007267Y009020D01*
X007263Y009016D01*
X007233Y009016D01*
X007079Y009479D02*
X006893Y009479D01*
X006942Y009558D02*
X007082Y009558D01*
X007017Y009636D02*
X006999Y009636D01*
X006999Y009715D02*
X007017Y009715D01*
X007017Y009793D02*
X006999Y009793D01*
X006999Y009872D02*
X007017Y009872D01*
X007017Y009893D02*
X007017Y009912D01*
X007246Y009912D01*
X007246Y010118D01*
X007243Y010129D01*
X007280Y010129D01*
X007339Y010188D01*
X007339Y010632D01*
X007358Y010650D01*
X007358Y011055D01*
X007413Y011055D01*
X007413Y010927D01*
X007672Y010927D01*
X007672Y010850D01*
X007413Y010850D01*
X007413Y010673D01*
X007423Y010638D01*
X007434Y010617D01*
X007434Y010199D01*
X007360Y010199D01*
X007302Y010141D01*
X007302Y009752D01*
X007279Y009752D01*
X007246Y009739D01*
X007246Y009893D01*
X007017Y009893D01*
X007246Y009872D02*
X007302Y009872D01*
X007302Y009950D02*
X007246Y009950D01*
X007246Y010029D02*
X007302Y010029D01*
X007302Y010107D02*
X007246Y010107D01*
X007337Y010186D02*
X007347Y010186D01*
X007339Y010264D02*
X007434Y010264D01*
X007434Y010343D02*
X007339Y010343D01*
X007339Y010421D02*
X007434Y010421D01*
X007434Y010500D02*
X007339Y010500D01*
X007339Y010578D02*
X007434Y010578D01*
X007417Y010657D02*
X007358Y010657D01*
X007358Y010735D02*
X007413Y010735D01*
X007413Y010814D02*
X007358Y010814D01*
X007358Y010892D02*
X007672Y010892D01*
X007413Y010971D02*
X007358Y010971D01*
X007358Y011049D02*
X007413Y011049D01*
X007079Y011049D02*
X006327Y011049D01*
X006249Y010971D02*
X007079Y010971D01*
X007079Y010892D02*
X006170Y010892D01*
X006077Y010897D02*
X006048Y010926D01*
X006048Y010945D01*
X006048Y010926D02*
X005923Y011051D01*
X004267Y011051D01*
X004110Y010895D01*
X004110Y010770D01*
X003635Y010029D02*
X003558Y010029D01*
X003558Y009950D02*
X003635Y009950D01*
X003635Y009872D02*
X003558Y009872D01*
X003861Y009715D02*
X004020Y009715D01*
X004033Y009793D02*
X002522Y009793D01*
X002522Y009872D02*
X003232Y009872D01*
X003184Y009950D02*
X002522Y009950D01*
X002522Y010029D02*
X002738Y010029D01*
X002705Y010107D02*
X002522Y010107D01*
X002523Y010186D02*
X002705Y010186D01*
X002697Y010264D02*
X002688Y010264D01*
X002688Y010343D02*
X002697Y010343D01*
X002688Y010421D02*
X002697Y010421D01*
X002921Y010575D02*
X002921Y010609D01*
X003150Y010609D01*
X003184Y010575D01*
X003080Y010575D01*
X003080Y010316D01*
X003003Y010316D01*
X003003Y010575D01*
X002921Y010575D01*
X002921Y010578D02*
X003181Y010578D01*
X003080Y010500D02*
X003003Y010500D01*
X003003Y010421D02*
X003080Y010421D01*
X003080Y010343D02*
X003003Y010343D01*
X003003Y010186D02*
X003080Y010186D01*
X003080Y010107D02*
X003003Y010107D01*
X003003Y010029D02*
X003080Y010029D01*
X003961Y009872D02*
X004075Y009872D01*
X005156Y009270D02*
X005156Y009164D01*
X005194Y009164D01*
X005194Y009270D01*
X005156Y009270D01*
X005156Y009244D02*
X005194Y009244D01*
X005194Y009165D02*
X005156Y009165D01*
X004363Y008770D02*
X004298Y008770D01*
X004142Y008614D01*
X004142Y008145D01*
X003954Y007957D01*
X004104Y007909D02*
X004321Y007909D01*
X004400Y007831D02*
X004094Y007831D01*
X004183Y007988D02*
X004243Y007988D01*
X004547Y006688D02*
X004547Y006582D01*
X005095Y006182D02*
X005512Y006182D01*
X005512Y006261D02*
X005189Y006261D01*
X005267Y006339D02*
X005512Y006339D01*
X005512Y006418D02*
X005346Y006418D01*
X005424Y006496D02*
X005512Y006496D01*
X007146Y003827D02*
X007171Y003827D01*
X007171Y003749D02*
X007146Y003749D01*
X007146Y003670D02*
X007171Y003670D01*
X007171Y003615D02*
X007171Y003600D01*
X007171Y003365D01*
X007146Y003365D01*
X007146Y003615D01*
X007171Y003615D01*
X007171Y003592D02*
X007146Y003592D01*
X007146Y003513D02*
X007171Y003513D01*
X007171Y003435D02*
X007146Y003435D01*
X007500Y003352D02*
X007500Y003064D01*
X007529Y003035D01*
X007499Y003065D01*
X007142Y003065D01*
X007548Y002676D02*
X007558Y002676D01*
X007557Y002675D01*
X007563Y002265D02*
X007665Y002265D01*
X007709Y002236D01*
X007750Y002195D01*
X007842Y002195D01*
X007860Y002176D01*
X008258Y002176D01*
X008258Y001880D01*
X008248Y001870D01*
X008248Y001713D01*
X008236Y001701D01*
X007923Y001701D01*
X007923Y001926D01*
X007829Y002020D01*
X007772Y002020D01*
X007750Y002043D01*
X007556Y002043D01*
X007485Y002114D01*
X007485Y002175D01*
X007554Y002243D01*
X007563Y002265D01*
X007559Y002257D02*
X007677Y002257D01*
X007858Y002179D02*
X007489Y002179D01*
X007499Y002100D02*
X008258Y002100D01*
X008258Y002022D02*
X007770Y002022D01*
X007906Y001943D02*
X008258Y001943D01*
X008248Y001865D02*
X007923Y001865D01*
X007923Y001786D02*
X008248Y001786D01*
X008243Y001708D02*
X007923Y001708D01*
X007571Y001786D02*
X007332Y001786D01*
X007332Y001701D01*
X007206Y001701D01*
X007206Y001738D01*
X007147Y001797D01*
X006807Y001797D01*
X006807Y001832D01*
X006500Y001832D01*
X006500Y001832D01*
X006500Y001623D01*
X006612Y001623D01*
X006612Y001535D01*
X006142Y001535D01*
X006142Y001707D01*
X006173Y001783D01*
X006173Y001882D01*
X006142Y001957D01*
X006142Y002165D01*
X006543Y002165D01*
X006543Y002041D01*
X006500Y002041D01*
X006500Y001832D01*
X006500Y001832D01*
X006807Y001832D01*
X006807Y001859D01*
X007227Y001859D01*
X007321Y001952D01*
X007333Y001965D01*
X007332Y001961D01*
X007332Y001824D01*
X007571Y001824D01*
X007571Y001786D01*
X007158Y001786D01*
X007206Y001708D02*
X007332Y001708D01*
X007332Y001865D02*
X007233Y001865D01*
X007311Y001943D02*
X007332Y001943D01*
X007809Y002335D02*
X008043Y002335D01*
X008043Y002492D02*
X007809Y002492D01*
X008241Y002137D02*
X008241Y001903D01*
X008398Y001903D02*
X008398Y002137D01*
X008555Y002137D02*
X008555Y001903D01*
X008713Y001903D02*
X008713Y002137D01*
X008870Y002137D02*
X008870Y001903D01*
X009028Y001903D02*
X009028Y002137D01*
X009185Y002137D02*
X009185Y001903D01*
X009343Y001903D02*
X009343Y002137D01*
X009500Y002137D02*
X009500Y001903D01*
X009500Y001847D02*
X009500Y002020D01*
X009658Y001903D02*
X009658Y002137D01*
X009815Y002137D02*
X009815Y001903D01*
X009973Y001903D02*
X009973Y002137D01*
X009973Y002020D02*
X009973Y001682D01*
X010010Y001645D01*
X009673Y001645D01*
X009500Y001847D02*
X009298Y001645D01*
X010113Y001943D02*
X010527Y001943D01*
X010527Y002022D02*
X010113Y002022D01*
X010113Y002100D02*
X010527Y002100D01*
X010527Y002179D02*
X010495Y002179D01*
X010288Y002179D02*
X010288Y002179D01*
X010288Y002257D02*
X010288Y002257D01*
X010288Y002335D02*
X010288Y002335D01*
X010211Y001865D02*
X010187Y001865D01*
X010424Y001865D02*
X010462Y001865D01*
X010462Y001786D02*
X010424Y001786D01*
X010424Y001708D02*
X010462Y001708D01*
X006612Y001551D02*
X006142Y001551D01*
X006142Y001629D02*
X006292Y001629D01*
X006278Y001633D02*
X006314Y001623D01*
X006500Y001623D01*
X006500Y001832D01*
X006192Y001832D01*
X006192Y001745D01*
X006202Y001709D01*
X006220Y001677D01*
X006246Y001651D01*
X006278Y001633D01*
X006203Y001708D02*
X006142Y001708D01*
X006173Y001786D02*
X006192Y001786D01*
X006192Y001832D02*
X006500Y001832D01*
X006500Y001832D01*
X006500Y001832D01*
X006500Y002041D01*
X006314Y002041D01*
X006278Y002032D01*
X006246Y002013D01*
X006220Y001987D01*
X006202Y001955D01*
X006192Y001920D01*
X006192Y001832D01*
X006192Y001865D02*
X006173Y001865D01*
X006148Y001943D02*
X006199Y001943D01*
X006142Y002022D02*
X006261Y002022D01*
X006142Y002100D02*
X006543Y002100D01*
X006500Y002022D02*
X006500Y002022D01*
X006500Y001943D02*
X006500Y001943D01*
X006500Y001865D02*
X006500Y001865D01*
X006500Y001786D02*
X006500Y001786D01*
X006500Y001708D02*
X006500Y001708D01*
X006500Y001629D02*
X006500Y001629D01*
X006002Y001629D02*
X005941Y001629D01*
X005941Y001664D02*
X005931Y001699D01*
X005913Y001731D01*
X005887Y001757D01*
X005855Y001776D01*
X005819Y001785D01*
X005634Y001785D01*
X005634Y001576D01*
X005634Y001576D01*
X005941Y001576D01*
X005941Y001535D01*
X006002Y001535D01*
X006002Y002165D01*
X005901Y002165D01*
X005901Y001978D01*
X005842Y001919D01*
X005473Y001919D01*
X005473Y001889D01*
X005441Y001857D01*
X005459Y001846D01*
X005485Y001820D01*
X005504Y001788D01*
X005504Y001785D01*
X005634Y001785D01*
X005634Y001576D01*
X005941Y001576D01*
X005941Y001664D01*
X005926Y001708D02*
X006002Y001708D01*
X006002Y001786D02*
X005504Y001786D01*
X005449Y001865D02*
X006002Y001865D01*
X006002Y001943D02*
X005866Y001943D01*
X005901Y002022D02*
X006002Y002022D01*
X006002Y002100D02*
X005901Y002100D01*
X005634Y001708D02*
X005634Y001708D01*
X005634Y001629D02*
X005634Y001629D01*
X005634Y001576D02*
X005634Y001576D01*
X005941Y001551D02*
X006002Y001551D01*
X004329Y002707D02*
X003860Y002707D01*
X003728Y002840D01*
X003613Y002840D01*
X002820Y002068D02*
X003088Y001800D01*
X002820Y002068D02*
X002668Y002068D01*
X002673Y002073D01*
X002673Y002114D01*
X001705Y001551D02*
X001007Y001551D01*
X002058Y003824D02*
X002110Y003828D01*
X002071Y005181D02*
X001885Y005367D01*
X001984Y005367D01*
X001984Y005626D01*
X002022Y005626D01*
X002022Y005367D01*
X002140Y005367D01*
X002175Y005377D01*
X002207Y005395D01*
X002233Y005421D01*
X002252Y005453D01*
X002261Y005489D01*
X002261Y005523D01*
X002281Y005523D01*
X002281Y005782D01*
X002319Y005782D01*
X002319Y005523D01*
X002324Y005523D01*
X002324Y005324D01*
X002182Y005181D01*
X002071Y005181D01*
X002011Y005240D02*
X002241Y005240D01*
X002319Y005319D02*
X001933Y005319D01*
X001984Y005397D02*
X002022Y005397D01*
X002022Y005476D02*
X001984Y005476D01*
X001984Y005554D02*
X002022Y005554D01*
X002210Y005397D02*
X002324Y005397D01*
X002324Y005476D02*
X002258Y005476D01*
X002281Y005554D02*
X002319Y005554D01*
X002319Y005633D02*
X002281Y005633D01*
X002281Y005711D02*
X002319Y005711D01*
X002319Y005820D02*
X002281Y005820D01*
X002281Y006079D01*
X002260Y006079D01*
X002307Y006126D01*
X002307Y006081D01*
X002319Y006068D01*
X002319Y005820D01*
X002319Y005868D02*
X002281Y005868D01*
X002281Y005947D02*
X002319Y005947D01*
X002319Y006025D02*
X002281Y006025D01*
X002285Y006104D02*
X002307Y006104D01*
X001570Y005645D02*
X001570Y005498D01*
X001238Y006178D02*
X001107Y006178D01*
X001107Y006611D02*
X001107Y006680D01*
X001048Y006739D01*
X001048Y007472D01*
X001251Y007689D01*
X001507Y007689D02*
X001507Y007441D01*
X001594Y007441D01*
X001630Y007450D01*
X001662Y007469D01*
X001674Y007481D01*
X001799Y007481D01*
X001799Y007282D01*
X001856Y007225D01*
X001799Y007168D01*
X001799Y007149D01*
X001652Y007149D01*
X001594Y007090D01*
X001594Y006912D01*
X001578Y006912D01*
X001578Y006678D01*
X001552Y006678D01*
X001552Y006912D01*
X001469Y006912D01*
X001420Y006965D01*
X001420Y007090D01*
X001392Y007118D01*
X001392Y007448D01*
X001419Y007441D01*
X001507Y007441D01*
X001507Y007689D01*
X001507Y007689D01*
X001507Y007937D01*
X001542Y007937D01*
X001542Y008007D01*
X001504Y008007D01*
X001504Y007937D01*
X001507Y007937D01*
X001507Y007689D01*
X001507Y007689D01*
X001507Y007674D02*
X001507Y007674D01*
X001507Y007752D02*
X001507Y007752D01*
X001507Y007831D02*
X001507Y007831D01*
X001507Y007909D02*
X001507Y007909D01*
X001504Y007988D02*
X001542Y007988D01*
X001507Y007595D02*
X001507Y007595D01*
X001507Y007517D02*
X001507Y007517D01*
X001392Y007438D02*
X001799Y007438D01*
X001799Y007360D02*
X001392Y007360D01*
X001392Y007281D02*
X001799Y007281D01*
X001834Y007203D02*
X001392Y007203D01*
X001392Y007124D02*
X001627Y007124D01*
X001594Y007046D02*
X001420Y007046D01*
X001420Y006967D02*
X001594Y006967D01*
X001578Y006889D02*
X001552Y006889D01*
X001552Y006810D02*
X001578Y006810D01*
X001578Y006732D02*
X001552Y006732D01*
X001337Y006849D02*
X001251Y006941D01*
X007246Y009793D02*
X007302Y009793D01*
X009142Y008066D02*
X009142Y008066D01*
X009142Y007988D02*
X009142Y007988D01*
X009142Y007909D02*
X009142Y007909D01*
X009404Y007909D02*
X009422Y007941D01*
X009432Y007976D01*
X009432Y008145D01*
X009432Y008066D02*
X009535Y008066D01*
X009535Y007988D02*
X009432Y007988D01*
X009432Y008302D02*
X009535Y008302D01*
X009535Y008380D02*
X009404Y008380D01*
D28*
X009107Y003201D03*
D29*
X009021Y004715D03*
X008824Y004715D03*
X008824Y004953D03*
X009021Y004953D03*
X008923Y005137D03*
D30*
X009354Y005022D03*
X009354Y005302D03*
X009695Y005302D03*
X009695Y005022D03*
X009695Y004742D03*
X009971Y004739D03*
X010312Y004739D03*
X009354Y004742D03*
X007500Y003902D03*
X007500Y003627D03*
X007500Y003352D03*
X007159Y003352D03*
X007159Y003627D03*
X007159Y003902D03*
X001906Y006665D03*
X001565Y006665D03*
D31*
X007040Y004799D03*
X007473Y004799D03*
X007473Y004248D03*
X007040Y004248D03*
D32*
X005634Y002088D03*
X005634Y001576D03*
X006500Y001832D03*
X006021Y006670D03*
X006021Y007182D03*
X006887Y006926D03*
D33*
X003597Y010139D03*
X003597Y010713D03*
D34*
X007008Y009902D03*
X007500Y009902D03*
D35*
X009067Y010620D03*
X010406Y010620D03*
D36*
X006909Y002091D03*
X006909Y001599D03*
D37*
X009142Y008145D03*
X002392Y008145D03*
D38*
X002142Y007926D02*
X002392Y007676D01*
X002392Y006520D01*
X002517Y006395D01*
X002517Y006270D01*
X002525Y006260D01*
X002558Y006030D02*
X002517Y005989D01*
X002517Y005614D01*
X002454Y005551D01*
X002454Y005270D01*
X002235Y005051D01*
X002017Y005051D01*
X001570Y005498D01*
X001570Y005645D02*
X001644Y005719D01*
X001570Y005982D01*
X001337Y006270D02*
X001397Y006330D01*
X001552Y006330D01*
X001337Y006270D02*
X001337Y006849D01*
X001337Y006270D02*
X001238Y006178D01*
X002003Y005982D02*
X002017Y005969D01*
X002017Y005895D01*
X002017Y005969D02*
X002017Y006020D01*
X002235Y006239D01*
X002235Y006364D01*
X002267Y006395D01*
X002267Y007614D01*
X002018Y007862D01*
X002018Y008802D01*
X002110Y008895D01*
X002110Y009114D01*
X002267Y009270D01*
X002267Y010422D01*
X002201Y010489D01*
X002298Y010485D02*
X000997Y010485D01*
X000997Y010543D02*
X002298Y010543D01*
X002298Y010602D02*
X000997Y010602D01*
X000997Y010660D02*
X002298Y010660D01*
X002298Y010719D02*
X000997Y010719D01*
X000997Y010777D02*
X002298Y010777D01*
X002298Y010836D02*
X000997Y010836D01*
X000997Y010894D02*
X002298Y010894D01*
X002298Y010953D02*
X000997Y010953D01*
X000997Y011011D02*
X002298Y011011D01*
X002298Y011065D02*
X002298Y010332D01*
X001048Y010332D01*
X000997Y010384D01*
X000997Y011065D01*
X002298Y011065D01*
X002610Y011051D02*
X003704Y011051D01*
X003923Y010832D01*
X003923Y010520D01*
X003972Y010471D01*
X003972Y010300D01*
X004025Y010247D01*
X004336Y010247D01*
X004388Y010300D01*
X004388Y010332D01*
X004405Y010332D01*
X004405Y010300D01*
X004458Y010247D01*
X004769Y010247D01*
X004821Y010300D01*
X004821Y010332D01*
X005173Y010332D01*
X005173Y009989D01*
X004892Y009989D01*
X004860Y009957D01*
X004173Y009957D01*
X003962Y010168D01*
X003962Y010333D01*
X003910Y010386D01*
X003744Y010386D01*
X003548Y010582D01*
X003360Y010582D01*
X003204Y010739D01*
X002610Y010739D01*
X002610Y011051D01*
X002610Y011011D02*
X003744Y011011D01*
X003802Y010953D02*
X002610Y010953D01*
X002610Y010895D02*
X002454Y010739D01*
X002454Y010301D01*
X002392Y010239D01*
X002392Y008770D01*
X002360Y008770D01*
X002298Y008707D01*
X002142Y008551D01*
X002142Y007926D01*
X002777Y006499D02*
X002735Y006426D01*
X002735Y006082D01*
X002683Y006030D01*
X002558Y006030D01*
X002733Y005861D02*
X002954Y006082D01*
X003454Y006082D01*
X003704Y005832D01*
X003704Y005270D01*
X004177Y004801D01*
X004177Y004426D01*
X003735Y003989D01*
X003735Y003891D01*
X003613Y003824D01*
X003613Y003628D02*
X003739Y003628D01*
X003975Y003864D01*
X003992Y003800D01*
X004048Y003444D02*
X004035Y003431D01*
X003613Y003431D01*
X003613Y003234D02*
X003898Y003234D01*
X004048Y003084D01*
X003954Y002840D02*
X004142Y002840D01*
X004309Y003000D01*
X004309Y004852D01*
X003829Y005332D01*
X003829Y006020D01*
X003350Y006499D01*
X002777Y006499D01*
X002954Y006266D02*
X002958Y006260D01*
X002954Y006266D02*
X002954Y006082D01*
X002733Y005861D02*
X002733Y005801D01*
X002704Y005450D02*
X002704Y005346D01*
X002331Y004976D01*
X002204Y004850D01*
X002204Y004270D01*
X002204Y004249D01*
X002343Y004110D01*
X002203Y004268D02*
X001954Y004268D01*
X002203Y004268D02*
X002204Y004270D01*
X002423Y004395D02*
X002423Y004719D01*
X002707Y005005D01*
X002944Y004916D02*
X002944Y004447D01*
X002934Y004437D01*
X002934Y004110D01*
X003131Y004110D02*
X003131Y004756D01*
X003184Y004810D01*
X002944Y004916D02*
X003110Y005082D01*
X003610Y005082D01*
X003937Y004756D01*
X003937Y004542D01*
X003577Y004520D02*
X003328Y004268D01*
X003328Y004110D01*
X002737Y004110D02*
X002737Y004584D01*
X002719Y004602D01*
X002702Y004645D01*
X002423Y004395D02*
X002539Y004279D01*
X002539Y004113D01*
X002540Y004110D01*
X002058Y003824D02*
X001962Y003824D01*
X001767Y004020D01*
X001392Y004020D01*
X001173Y003801D01*
X001173Y002426D01*
X001329Y002270D01*
X001329Y002114D01*
X001579Y001864D01*
X001577Y002239D02*
X001329Y002489D01*
X001329Y003739D01*
X001454Y003864D01*
X001694Y003864D01*
X001930Y003628D01*
X002058Y003628D01*
X002058Y003431D02*
X001793Y003431D01*
X001687Y003520D01*
X001699Y003234D02*
X001579Y003114D01*
X001699Y003234D02*
X002058Y003234D01*
X002058Y003037D02*
X001940Y003037D01*
X001923Y003020D01*
X001860Y003020D01*
X001610Y002770D01*
X001610Y002707D01*
X001829Y002580D02*
X001829Y002270D01*
X001983Y002116D01*
X001983Y002069D01*
X001829Y002580D02*
X002058Y002840D01*
X002934Y002555D02*
X002934Y002353D01*
X003048Y002239D01*
X003392Y002239D01*
X003642Y001989D01*
X003642Y001916D01*
X003758Y001800D01*
X003925Y001632D01*
X004173Y001632D01*
X003954Y002840D02*
X003749Y003037D01*
X003613Y003037D01*
X005642Y004989D02*
X005642Y006707D01*
X005923Y006989D01*
X005923Y007213D01*
X005892Y007244D01*
X006021Y007182D01*
X005892Y007244D02*
X005866Y007244D01*
X004548Y006082D02*
X004548Y005864D01*
X004329Y005864D01*
X004329Y005895D01*
X004307Y005917D01*
X004307Y006079D01*
X004254Y006132D01*
X004147Y006132D01*
X004147Y006199D01*
X004084Y006261D01*
X004084Y006962D01*
X004173Y007051D01*
X004267Y007051D01*
X004319Y006999D01*
X004319Y006966D01*
X004360Y006924D01*
X004360Y006885D01*
X004319Y006844D01*
X004319Y006612D01*
X004289Y006612D01*
X004201Y006576D01*
X004133Y006508D01*
X004097Y006420D01*
X004097Y006325D01*
X004133Y006236D01*
X004201Y006169D01*
X004289Y006132D01*
X004384Y006132D01*
X004465Y006166D01*
X004548Y006082D01*
X004533Y006097D02*
X004289Y006097D01*
X004307Y006039D02*
X004548Y006039D01*
X004548Y005980D02*
X004307Y005980D01*
X004307Y005922D02*
X004548Y005922D01*
X004474Y006156D02*
X004441Y006156D01*
X004232Y006156D02*
X004147Y006156D01*
X004155Y006214D02*
X004131Y006214D01*
X004118Y006273D02*
X004084Y006273D01*
X004084Y006331D02*
X004097Y006331D01*
X004097Y006390D02*
X004084Y006390D01*
X004084Y006448D02*
X004108Y006448D01*
X004084Y006507D02*
X004133Y006507D01*
X004084Y006565D02*
X004190Y006565D01*
X004084Y006624D02*
X004319Y006624D01*
X004319Y006682D02*
X004084Y006682D01*
X004084Y006741D02*
X004319Y006741D01*
X004319Y006799D02*
X004084Y006799D01*
X004084Y006858D02*
X004333Y006858D01*
X004360Y006916D02*
X004084Y006916D01*
X004097Y006975D02*
X004319Y006975D01*
X004284Y007033D02*
X004155Y007033D01*
X002079Y006051D02*
X002079Y006022D01*
X002003Y005982D01*
X005642Y004989D02*
X005735Y004895D01*
X007040Y004799D02*
X007142Y004698D01*
X007142Y004614D01*
X007235Y004520D01*
X007704Y004520D01*
X008555Y004527D02*
X008555Y004382D01*
X008555Y004527D02*
X008673Y004645D01*
X008673Y004864D01*
X008763Y004953D01*
X008824Y004953D01*
X009158Y004942D02*
X009204Y004989D01*
X009320Y004989D01*
X009354Y005022D01*
X009158Y004942D02*
X009158Y004597D01*
X009185Y004570D01*
X009185Y004382D01*
X008713Y004382D02*
X008713Y004573D01*
X008673Y004614D01*
X008673Y004645D01*
X010017Y005426D02*
X010017Y005645D01*
X010017Y005426D02*
X010312Y005131D01*
X010312Y004739D01*
X010454Y004957D02*
X010454Y005332D01*
X010392Y005395D01*
X010454Y004957D02*
X010537Y004875D01*
X010537Y003957D01*
X010500Y003910D01*
X010288Y003910D01*
X008398Y002020D02*
X008398Y001807D01*
X007926Y002335D02*
X007795Y002335D01*
X007704Y002395D01*
X007352Y002395D01*
X007342Y002385D01*
X007146Y002529D02*
X007057Y002529D01*
X007057Y002587D02*
X007205Y002587D01*
X007206Y002588D02*
X007138Y002521D01*
X007102Y002433D01*
X007102Y002337D01*
X007138Y002249D01*
X007206Y002181D01*
X007267Y002156D01*
X007267Y002085D01*
X007209Y002085D01*
X007121Y002048D01*
X007061Y001989D01*
X006735Y001989D01*
X006673Y002051D01*
X006673Y002175D01*
X006922Y002175D01*
X007057Y002310D01*
X007057Y002832D01*
X007329Y002832D01*
X007329Y002753D01*
X007317Y002723D01*
X007317Y002627D01*
X007318Y002625D01*
X007294Y002625D01*
X007206Y002588D01*
X007317Y002646D02*
X007057Y002646D01*
X007057Y002704D02*
X007317Y002704D01*
X007329Y002763D02*
X007057Y002763D01*
X007057Y002821D02*
X007329Y002821D01*
X007548Y002676D02*
X007794Y002492D01*
X007926Y002492D01*
X007267Y002119D02*
X006673Y002119D01*
X006673Y002061D02*
X007151Y002061D01*
X007075Y002002D02*
X006722Y002002D01*
X006925Y002178D02*
X007214Y002178D01*
X007151Y002236D02*
X006983Y002236D01*
X007042Y002295D02*
X007119Y002295D01*
X007102Y002353D02*
X007057Y002353D01*
X007057Y002412D02*
X007102Y002412D01*
X007117Y002470D02*
X007057Y002470D01*
X004861Y009958D02*
X004172Y009958D01*
X004113Y010017D02*
X005173Y010017D01*
X005173Y010075D02*
X004055Y010075D01*
X003996Y010134D02*
X005173Y010134D01*
X005173Y010192D02*
X003962Y010192D01*
X003962Y010251D02*
X004021Y010251D01*
X003972Y010309D02*
X003962Y010309D01*
X003972Y010368D02*
X003928Y010368D01*
X003972Y010426D02*
X003704Y010426D01*
X003645Y010485D02*
X003958Y010485D01*
X003923Y010543D02*
X003587Y010543D01*
X003341Y010602D02*
X003923Y010602D01*
X003923Y010660D02*
X003282Y010660D01*
X003224Y010719D02*
X003923Y010719D01*
X003923Y010777D02*
X002610Y010777D01*
X002610Y010836D02*
X003919Y010836D01*
X003861Y010894D02*
X002610Y010894D01*
X002610Y010895D02*
X002693Y010895D01*
X002298Y010426D02*
X000997Y010426D01*
X001012Y010368D02*
X002298Y010368D01*
X004339Y010251D02*
X004454Y010251D01*
X004405Y010309D02*
X004388Y010309D01*
X004772Y010251D02*
X005173Y010251D01*
X005173Y010309D02*
X004821Y010309D01*
X005860Y010395D02*
X005860Y010775D01*
X005860Y010395D02*
X005899Y010356D01*
X005899Y010276D01*
D39*
X006048Y010945D03*
X005485Y009520D03*
X005127Y008715D03*
X005110Y007957D03*
X005627Y007082D03*
X004923Y006364D03*
X005360Y006270D03*
X004337Y006372D03*
X004204Y006895D03*
X004204Y007832D03*
X004048Y009145D03*
X002637Y010082D03*
X002110Y009114D03*
X002298Y008707D03*
X001704Y008895D03*
X001548Y007301D03*
X001552Y006330D03*
X001917Y006334D03*
X002704Y005450D03*
X002707Y005005D03*
X002702Y004645D03*
X003184Y004810D03*
X003577Y004520D03*
X003937Y004542D03*
X004579Y004489D03*
X003992Y003800D03*
X004048Y003444D03*
X004048Y003084D03*
X004235Y001989D03*
X004798Y002020D03*
X005923Y001832D03*
X007257Y001845D03*
X007624Y002155D03*
X007342Y002385D03*
X007557Y002675D03*
X007529Y003035D03*
X008642Y002770D03*
X009517Y002770D03*
X009517Y003645D03*
X008642Y003645D03*
X008127Y004722D03*
X008110Y005082D03*
X007017Y006145D03*
X007423Y006957D03*
X006735Y007665D03*
X006517Y007332D03*
X006235Y008450D03*
X007329Y009502D03*
X009267Y007520D03*
X009298Y006395D03*
X010017Y005645D03*
X010392Y005395D03*
X010017Y005057D03*
X010329Y006114D03*
X006673Y004551D03*
X005735Y004895D03*
X009298Y001645D03*
X009673Y001645D03*
X002077Y002400D03*
X001577Y002239D03*
X001579Y001864D03*
X001204Y001645D03*
X001610Y002707D03*
X001579Y003114D03*
X001687Y003520D03*
X001567Y004520D03*
X001642Y005082D03*
X002142Y005298D03*
D40*
X001954Y004701D02*
X001748Y004701D01*
X001567Y004520D01*
X002540Y003037D02*
X002368Y002809D01*
X002343Y002555D01*
X002137Y002369D02*
X002329Y002176D01*
X002329Y002068D01*
X002137Y002369D02*
X002077Y002400D01*
X003131Y002555D02*
X003131Y003037D01*
X004798Y002020D02*
X004827Y002049D01*
X005235Y002049D01*
X005275Y002088D01*
X005634Y002088D01*
X005634Y001576D02*
X005275Y001576D01*
X005235Y001616D01*
X006909Y001599D02*
X007002Y001551D01*
X008298Y001551D01*
X008398Y001651D01*
X008398Y001807D01*
X007040Y004248D02*
X006976Y004248D01*
X006673Y004551D01*
X005079Y006364D02*
X004923Y006364D01*
X005079Y006364D02*
X005298Y006582D01*
X005298Y006736D01*
X005296Y006739D01*
X005296Y007082D02*
X005298Y007085D01*
X005298Y007207D01*
X005088Y007417D01*
X005088Y007462D01*
X005088Y007636D01*
X004923Y007770D01*
X004267Y007770D01*
X004204Y007832D01*
X004485Y007957D02*
X004329Y008114D01*
X004329Y008319D01*
X004320Y008328D01*
X004576Y008328D02*
X004576Y008491D01*
X004392Y008676D01*
X004392Y008741D01*
X004363Y008770D01*
X004400Y009114D02*
X004363Y009272D01*
X004454Y009364D01*
X005079Y009364D01*
X005173Y009270D01*
X005173Y009147D01*
X005175Y009145D01*
X004833Y009114D02*
X004796Y009076D01*
X004796Y008770D01*
X004832Y008733D01*
X004832Y008328D01*
X005088Y008328D02*
X005088Y008676D01*
X005127Y008715D01*
X005150Y008691D01*
X005487Y008691D01*
X005811Y008769D02*
X005811Y008413D01*
X006048Y008176D01*
X006048Y007893D01*
X006264Y007676D01*
X006345Y007998D02*
X006597Y007998D01*
X006597Y007971D01*
X006642Y007926D01*
X006735Y007926D01*
X006767Y007895D01*
X006767Y007696D01*
X006735Y007665D01*
X006735Y007926D02*
X006894Y007926D01*
X007081Y007739D01*
X007514Y007739D02*
X007514Y007397D01*
X007517Y007395D01*
X007517Y007386D01*
X007521Y007382D01*
X007140Y008274D02*
X007140Y008304D01*
X006704Y008741D01*
X006676Y008769D01*
X006323Y008769D01*
X006067Y008769D02*
X006067Y008619D01*
X006235Y008450D01*
X006254Y008431D01*
X006597Y008431D01*
X006323Y008021D02*
X006345Y007998D01*
X005831Y008000D02*
X005831Y007676D01*
X005831Y008000D02*
X005811Y008021D01*
X005811Y008101D01*
X005642Y008270D01*
X005498Y008270D01*
X005487Y008258D01*
X005483Y007957D02*
X005110Y007957D01*
X004485Y007957D01*
X004576Y007462D02*
X004576Y007204D01*
X004501Y007129D01*
X004320Y007310D01*
X004320Y007462D01*
X004501Y007129D02*
X004547Y007121D01*
X004832Y007113D02*
X004832Y007462D01*
X005088Y007462D02*
X005148Y007522D01*
X005485Y007522D01*
X005485Y007955D02*
X005483Y007957D01*
X004892Y007145D02*
X004892Y007111D01*
X004863Y007082D01*
X004832Y007113D01*
X004892Y007111D02*
X004892Y007020D01*
X004863Y006991D01*
X004863Y006739D01*
X004423Y006082D02*
X004423Y005986D01*
X004423Y005553D02*
X004392Y005522D01*
X004392Y005520D01*
X004358Y005491D01*
X004079Y005491D01*
X002037Y007008D02*
X002025Y007020D01*
X002017Y007020D01*
X001938Y006941D01*
X001892Y006941D01*
X001906Y006927D01*
X001906Y006665D01*
X001906Y006438D01*
X001917Y006334D01*
X001892Y006941D02*
X001763Y006941D01*
X002037Y007441D02*
X001954Y007524D01*
X001954Y007614D01*
X001889Y007678D01*
X001766Y007678D01*
X001763Y007689D01*
X001767Y007693D01*
X001767Y008270D01*
X001733Y008303D01*
X001733Y008361D01*
X001360Y008301D02*
X001360Y008189D01*
X001523Y008026D01*
X001360Y008301D02*
X001300Y008361D01*
X001300Y008361D01*
X001048Y008582D02*
X001107Y008641D01*
X001107Y008710D01*
X001048Y008582D02*
X001048Y008068D01*
X001090Y008026D01*
X001090Y007849D01*
X001251Y007689D01*
X001107Y009143D02*
X001142Y009178D01*
X001142Y009520D01*
X001259Y009637D01*
X001517Y009637D01*
X004142Y010428D02*
X004180Y010475D01*
X004142Y010428D02*
X004142Y010645D01*
X004110Y010676D01*
X004110Y010770D01*
X004180Y010810D01*
X004577Y010645D02*
X004892Y010645D01*
X004910Y010595D01*
X004613Y010475D02*
X004577Y010645D01*
X004613Y010810D01*
X005072Y009764D02*
X004924Y009616D01*
X004735Y009616D01*
X005608Y009145D02*
X005767Y009145D01*
X005811Y009101D01*
X005811Y008769D01*
X005767Y009145D02*
X005925Y009145D01*
X006358Y009145D02*
X006675Y009145D01*
X006704Y009174D01*
X007075Y009174D01*
X007233Y009016D01*
X009354Y005732D02*
X009354Y005302D01*
X009352Y005301D01*
X008985Y005301D01*
X008923Y005239D01*
X008923Y005137D01*
D41*
X006863Y006495D02*
X006423Y006489D01*
X006210Y006670D01*
X006021Y006670D01*
X007329Y009502D02*
X007500Y009673D01*
X007500Y009902D01*
X007500Y009972D01*
X007673Y010145D01*
X007673Y010407D01*
X007692Y010426D01*
X001704Y009450D02*
X001704Y008895D01*
X001702Y008893D01*
X001704Y009450D02*
X001517Y009637D01*
D42*
X009079Y010176D02*
X009079Y010608D01*
X009067Y010620D01*
X009079Y010176D02*
X009235Y010020D01*
X009235Y009145D01*
X009735Y008645D01*
X009735Y006145D01*
X009354Y005763D01*
X009354Y005732D01*
D43*
X005485Y010020D02*
X005485Y010551D01*
X005392Y010645D01*
X005343Y010595D01*
M02*
