  0
SECTION
  2
HEADER
  9
$ACADVER
  1
AC1009
  9
$FILLMODE
 70
0
  9
$EXTMIN
 10
-0.550000
 20
-0.675000
 30
0.000000
  9
$EXTMAX
 10
0.550000
 20
0.425000
 30
0.000000
  0
ENDSEC
  0
SECTION
  2
TABLES
  0
TABLE
  2
LTYPE
 70
1
  0
LTYPE
  2
CONTINUOUS
 70
64
  3
Solid line
 72
65
 73
0
 40
0
  0
ENDTAB
  0
TABLE
  2
LAYER
 70
255
  0
LAYER
  2
20
 70
64
 62
7
  6
CONTINUOUS
  0
ENDTAB
  0
ENDSEC
  0
SECTION
  2
BLOCKS
  0
BLOCK
  8
0
  2
RECT
 70
64
 10
0.000000
 20
0.000000
 30
0.000000
  3
RECT
  0
SOLID
  8
0
 10
-0.500000
 20
-0.500000
 30
0.000000
 11
0.500000
 21
-0.500000
 31
0.000000
 12
-0.500000
 22
0.500000
 32
0.000000
 13
0.500000
 23
0.500000
 33
0.000000
  0
ENDBLK
  8
0
  0
BLOCK
  8
0
  2
PIE
 70
64
 10
0.000000
 20
0.000000
 30
0.000000
  3
PIE
  0
CIRCLE
  8
0
 10
0.000000
 20
0.000000
 30
0.000000
 40
0.500000
  0
ENDBLK
  8
0
  0
BLOCK
  8
0
  2
OCTAGONP
 70
64
 10
0.000000
 20
0.000000
 30
0.000000
  3
OCTAGONP
  0
POLYLINE
  8
0
 66
1
 10
0.000000
 20
0.000000
 30
0.000000
 40
0.000000
 41
0.000000
 70
1
  0
VERTEX
  8
0
 10
-0.500000
 20
-0.207107
 30
0.000000
  0
VERTEX
  8
0
 10
-0.500000
 20
0.207107
 30
0.000000
  0
VERTEX
  8
0
 10
-0.207107
 20
0.500000
 30
0.000000
  0
VERTEX
  8
0
 10
0.207107
 20
0.500000
 30
0.000000
  0
VERTEX
  8
0
 10
0.500000
 20
0.207107
 30
0.000000
  0
VERTEX
  8
0
 10
0.500000
 20
-0.207107
 30
0.000000
  0
VERTEX
  8
0
 10
0.207107
 20
-0.500000
 30
0.000000
  0
VERTEX
  8
0
 10
-0.207107
 20
-0.500000
 30
0.000000
  0
SEQEND
  8
0
  0
ENDBLK
  8
0
  0
BLOCK
  8
0
  2
SQUAREP
 70
64
 10
0.000000
 20
0.000000
 30
0.000000
  3
SQUAREP
  0
SOLID
  8
0
 10
-0.500000
 20
-0.500000
 30
0.000000
 11
0.500000
 21
-0.500000
 31
0.000000
 12
-0.500000
 22
0.500000
 32
0.000000
 13
0.500000
 23
0.500000
 33
0.000000
  0
ENDBLK
  8
0
  0
BLOCK
  8
0
  2
ROUNDP
 70
64
 10
0.000000
 20
0.000000
 30
0.000000
  3
ROUNDP
  0
CIRCLE
  8
0
 10
0.000000
 20
0.000000
 30
0.000000
 40
0.500000
  0
ENDBLK
  8
0
  0
BLOCK
  8
0
  2
ANNULUSP
 70
64
 10
0.000000
 20
0.000000
 30
0.000000
  3
ANNULUSP
  0
CIRCLE
  8
0
 10
0.000000
 20
0.000000
 30
0.000000
 40
0.500000
  0
ENDBLK
  8
0
  0
BLOCK
  8
0
  2
THERMALP
 70
64
 10
0.000000
 20
0.000000
 30
0.000000
  3
THERMALP
  0
POLYLINE
  8
0
 66
1
 10
0.000000
 20
0.000000
 30
0.000000
 40
0.000000
 41
0.000000
 70
1
  0
VERTEX
  8
0
 10
-0.237868
 20
0.400000
 30
0.000000
  0
VERTEX
  8
0
 10
0.237868
 20
0.400000
 30
0.000000
 42
1.000000
  0
VERTEX
  8
0
 10
0.237868
 20
0.500000
 30
0.000000
  0
VERTEX
  8
0
 10
-0.237868
 20
0.500000
 30
0.000000
 42
1.000000
  0
SEQEND
  8
0
  0
POLYLINE
  8
0
 66
1
 10
0.000000
 20
0.000000
 30
0.000000
 40
0.000000
 41
0.000000
 70
1
  0
VERTEX
  8
0
 10
0.400000
 20
0.237868
 30
0.000000
  0
VERTEX
  8
0
 10
0.400000
 20
-0.237868
 30
0.000000
 42
1.000000
  0
VERTEX
  8
0
 10
0.500000
 20
-0.237868
 30
0.000000
  0
VERTEX
  8
0
 10
0.500000
 20
0.237868
 30
0.000000
 42
1.000000
  0
SEQEND
  8
0
  0
POLYLINE
  8
0
 66
1
 10
0.000000
 20
0.000000
 30
0.000000
 40
0.000000
 41
0.000000
 70
1
  0
VERTEX
  8
0
 10
0.237868
 20
-0.400000
 30
0.000000
  0
VERTEX
  8
0
 10
-0.237868
 20
-0.400000
 30
0.000000
 42
1.000000
  0
VERTEX
  8
0
 10
-0.237868
 20
-0.500000
 30
0.000000
  0
VERTEX
  8
0
 10
0.237868
 20
-0.500000
 30
0.000000
 42
1.000000
  0
SEQEND
  8
0
  0
POLYLINE
  8
0
 66
1
 10
0.000000
 20
0.000000
 30
0.000000
 40
0.000000
 41
0.000000
 70
1
  0
VERTEX
  8
0
 10
-0.400000
 20
-0.237868
 30
0.000000
  0
VERTEX
  8
0
 10
-0.400000
 20
0.237868
 30
0.000000
 42
1.000000
  0
VERTEX
  8
0
 10
-0.500000
 20
0.237868
 30
0.000000
  0
VERTEX
  8
0
 10
-0.500000
 20
-0.237868
 30
0.000000
 42
1.000000
  0
SEQEND
  8
0
  0
ENDBLK
  8
0
  0
BLOCK
  8
0
  2
OCTAGONV
 70
64
 10
0.000000
 20
0.000000
 30
0.000000
  3
OCTAGONV
  0
POLYLINE
  8
0
 66
1
 10
0.000000
 20
0.000000
 30
0.000000
 40
0.000000
 41
0.000000
 70
1
  0
VERTEX
  8
0
 10
-0.500000
 20
-0.207107
 30
0.000000
  0
VERTEX
  8
0
 10
-0.500000
 20
0.207107
 30
0.000000
  0
VERTEX
  8
0
 10
-0.207107
 20
0.500000
 30
0.000000
  0
VERTEX
  8
0
 10
0.207107
 20
0.500000
 30
0.000000
  0
VERTEX
  8
0
 10
0.500000
 20
0.207107
 30
0.000000
  0
VERTEX
  8
0
 10
0.500000
 20
-0.207107
 30
0.000000
  0
VERTEX
  8
0
 10
0.207107
 20
-0.500000
 30
0.000000
  0
VERTEX
  8
0
 10
-0.207107
 20
-0.500000
 30
0.000000
  0
SEQEND
  8
0
  0
ENDBLK
  8
0
  0
BLOCK
  8
0
  2
SQUAREV
 70
64
 10
0.000000
 20
0.000000
 30
0.000000
  3
SQUAREV
  0
SOLID
  8
0
 10
-0.500000
 20
-0.500000
 30
0.000000
 11
0.500000
 21
-0.500000
 31
0.000000
 12
-0.500000
 22
0.500000
 32
0.000000
 13
0.500000
 23
0.500000
 33
0.000000
  0
ENDBLK
  8
0
  0
BLOCK
  8
0
  2
ROUNDV
 70
64
 10
0.000000
 20
0.000000
 30
0.000000
  3
ROUNDV
  0
CIRCLE
  8
0
 10
0.000000
 20
0.000000
 30
0.000000
 40
0.500000
  0
ENDBLK
  8
0
  0
BLOCK
  8
0
  2
ANNULUSV
 70
64
 10
0.000000
 20
0.000000
 30
0.000000
  3
ANNULUSV
  0
CIRCLE
  8
0
 10
0.000000
 20
0.000000
 30
0.000000
 40
0.500000
  0
ENDBLK
  8
0
  0
BLOCK
  8
0
  2
THERMALV
 70
64
 10
0.000000
 20
0.000000
 30
0.000000
  3
THERMALV
  0
POLYLINE
  8
0
 66
1
 10
0.000000
 20
0.000000
 30
0.000000
 40
0.000000
 41
0.000000
 70
1
  0
VERTEX
  8
0
 10
-0.237868
 20
0.400000
 30
0.000000
  0
VERTEX
  8
0
 10
0.237868
 20
0.400000
 30
0.000000
 42
1.000000
  0
VERTEX
  8
0
 10
0.237868
 20
0.500000
 30
0.000000
  0
VERTEX
  8
0
 10
-0.237868
 20
0.500000
 30
0.000000
 42
1.000000
  0
SEQEND
  8
0
  0
POLYLINE
  8
0
 66
1
 10
0.000000
 20
0.000000
 30
0.000000
 40
0.000000
 41
0.000000
 70
1
  0
VERTEX
  8
0
 10
0.400000
 20
0.237868
 30
0.000000
  0
VERTEX
  8
0
 10
0.400000
 20
-0.237868
 30
0.000000
 42
1.000000
  0
VERTEX
  8
0
 10
0.500000
 20
-0.237868
 30
0.000000
  0
VERTEX
  8
0
 10
0.500000
 20
0.237868
 30
0.000000
 42
1.000000
  0
SEQEND
  8
0
  0
POLYLINE
  8
0
 66
1
 10
0.000000
 20
0.000000
 30
0.000000
 40
0.000000
 41
0.000000
 70
1
  0
VERTEX
  8
0
 10
0.237868
 20
-0.400000
 30
0.000000
  0
VERTEX
  8
0
 10
-0.237868
 20
-0.400000
 30
0.000000
 42
1.000000
  0
VERTEX
  8
0
 10
-0.237868
 20
-0.500000
 30
0.000000
  0
VERTEX
  8
0
 10
0.237868
 20
-0.500000
 30
0.000000
 42
1.000000
  0
SEQEND
  8
0
  0
POLYLINE
  8
0
 66
1
 10
0.000000
 20
0.000000
 30
0.000000
 40
0.000000
 41
0.000000
 70
1
  0
VERTEX
  8
0
 10
-0.400000
 20
-0.237868
 30
0.000000
  0
VERTEX
  8
0
 10
-0.400000
 20
0.237868
 30
0.000000
 42
1.000000
  0
VERTEX
  8
0
 10
-0.500000
 20
0.237868
 30
0.000000
  0
VERTEX
  8
0
 10
-0.500000
 20
-0.237868
 30
0.000000
 42
1.000000
  0
SEQEND
  8
0
  0
ENDBLK
  8
0
  0
ENDSEC
  0
SECTION
  2
ENTITIES
  0
LINE
  8
20
 10
-0.550000
 20
-0.675000
 30
0.000000
 11
-0.550000
 21
0.425000
 31
0.000000
  0
LINE
  8
20
 10
-0.550000
 20
0.425000
 30
0.000000
 11
-0.120079
 21
0.425000
 31
0.000000
  0
LINE
  8
20
 10
-0.120079
 20
0.425000
 30
0.000000
 11
-0.120079
 21
0.212402
 31
0.000000
  0
LINE
  8
20
 10
-0.120079
 20
0.212402
 30
0.000000
 11
0.120079
 21
0.212402
 31
0.000000
  0
LINE
  8
20
 10
0.120079
 20
0.212402
 30
0.000000
 11
0.120079
 21
0.425000
 31
0.000000
  0
LINE
  8
20
 10
0.120079
 20
0.425000
 30
0.000000
 11
0.550000
 21
0.425000
 31
0.000000
  0
LINE
  8
20
 10
0.550000
 20
0.425000
 30
0.000000
 11
0.550000
 21
-0.675000
 31
0.000000
  0
LINE
  8
20
 10
-0.310000
 20
0.140000
 30
0.000000
 11
-0.310000
 21
-0.140000
 31
0.000000
  0
LINE
  8
20
 10
-0.310000
 20
-0.140000
 30
0.000000
 11
-0.220000
 21
-0.140000
 31
0.000000
  0
LINE
  8
20
 10
-0.220000
 20
-0.140000
 30
0.000000
 11
-0.220000
 21
0.140000
 31
0.000000
  0
LINE
  8
20
 10
-0.220000
 20
0.140000
 30
0.000000
 11
-0.310000
 21
0.140000
 31
0.000000
  0
LINE
  8
20
 10
0.310000
 20
0.175000
 30
0.000000
 11
0.310000
 21
-0.175000
 31
0.000000
  0
LINE
  8
20
 10
0.310000
 20
-0.175000
 30
0.000000
 11
0.220000
 21
-0.175000
 31
0.000000
  0
LINE
  8
20
 10
0.220000
 20
-0.175000
 30
0.000000
 11
0.220000
 21
0.175000
 31
0.000000
  0
LINE
  8
20
 10
0.220000
 20
0.175000
 30
0.000000
 11
0.310000
 21
0.175000
 31
0.000000
  0
LINE
  8
20
 10
-0.550000
 20
-0.675000
 30
0.000000
 11
0.550000
 21
-0.675000
 31
0.000000
  0
LINE
  8
20
 10
-0.106000
 20
-0.574000
 30
0.000000
 11
0.106000
 21
-0.574000
 31
0.000000
  0
LINE
  8
20
 10
0.106000
 20
-0.574000
 30
0.000000
 11
0.106000
 21
-0.468000
 31
0.000000
  0
ARC
  8
20
 10
0.000000
 20
-0.468000
 30
0.000000
 40
0.106000
 50
0.000000
 51
90.000000
  0
ARC
  8
20
 10
0.000000
 20
-0.468000
 30
0.000000
 40
0.106000
 50
90.000000
 51
180.000000
  0
LINE
  8
20
 10
-0.106000
 20
-0.468000
 30
0.000000
 11
-0.106000
 21
-0.574000
 31
0.000000
  0
ENDSEC
  0
EOF
