  0
SECTION
  2
HEADER
  9
$ACADVER
  1
AC1009
  9
$FILLMODE
 70
0
  9
$EXTMIN
 10
-14.3933
 20
-20.4338
 30
0.0000
  9
$EXTMAX
 10
15.7252
 20
9.2456
 30
0.0000
  0
ENDSEC
  0
SECTION
  2
TABLES
  0
TABLE
  2
LTYPE
 70
1
  0
LTYPE
  2
CONTINUOUS
 70
64
  3
Solid line
 72
65
 73
0
 40
0
  0
ENDTAB
  0
TABLE
  2
LAYER
 70
255
  0
LAYER
  2
20
 70
64
 62
7
  6
CONTINUOUS
  0
LAYER
  2
31
 70
64
 62
253
  6
CONTINUOUS
  0
ENDTAB
  0
ENDSEC
  0
SECTION
  2
BLOCKS
  0
BLOCK
  8
0
  2
RECT
 70
64
 10
0.0000
 20
0.0000
 30
0.0000
  3
RECT
  0
SOLID
  8
0
 10
-0.5000
 20
-0.5000
 30
0.0000
 11
0.5000
 21
-0.5000
 31
0.0000
 12
-0.5000
 22
0.5000
 32
0.0000
 13
0.5000
 23
0.5000
 33
0.0000
  0
ENDBLK
  8
0
  0
BLOCK
  8
0
  2
PIE
 70
64
 10
0.0000
 20
0.0000
 30
0.0000
  3
PIE
  0
CIRCLE
  8
0
 10
0.0000
 20
0.0000
 30
0.0000
 40
0.5000
  0
ENDBLK
  8
0
  0
BLOCK
  8
0
  2
OCTAGONP
 70
64
 10
0.0000
 20
0.0000
 30
0.0000
  3
OCTAGONP
  0
POLYLINE
  8
0
 66
1
 10
0.0000
 20
0.0000
 30
0.0000
 40
0.0000
 41
0.0000
 70
1
  0
VERTEX
  8
0
 10
-0.5000
 20
-0.2071
 30
0.0000
  0
VERTEX
  8
0
 10
-0.5000
 20
0.2071
 30
0.0000
  0
VERTEX
  8
0
 10
-0.2071
 20
0.5000
 30
0.0000
  0
VERTEX
  8
0
 10
0.2071
 20
0.5000
 30
0.0000
  0
VERTEX
  8
0
 10
0.5000
 20
0.2071
 30
0.0000
  0
VERTEX
  8
0
 10
0.5000
 20
-0.2071
 30
0.0000
  0
VERTEX
  8
0
 10
0.2071
 20
-0.5000
 30
0.0000
  0
VERTEX
  8
0
 10
-0.2071
 20
-0.5000
 30
0.0000
  0
SEQEND
  8
0
  0
ENDBLK
  8
0
  0
BLOCK
  8
0
  2
SQUAREP
 70
64
 10
0.0000
 20
0.0000
 30
0.0000
  3
SQUAREP
  0
SOLID
  8
0
 10
-0.5000
 20
-0.5000
 30
0.0000
 11
0.5000
 21
-0.5000
 31
0.0000
 12
-0.5000
 22
0.5000
 32
0.0000
 13
0.5000
 23
0.5000
 33
0.0000
  0
ENDBLK
  8
0
  0
BLOCK
  8
0
  2
ROUNDP
 70
64
 10
0.0000
 20
0.0000
 30
0.0000
  3
ROUNDP
  0
CIRCLE
  8
0
 10
0.0000
 20
0.0000
 30
0.0000
 40
0.5000
  0
ENDBLK
  8
0
  0
BLOCK
  8
0
  2
ANNULUSP
 70
64
 10
0.0000
 20
0.0000
 30
0.0000
  3
ANNULUSP
  0
CIRCLE
  8
0
 10
0.0000
 20
0.0000
 30
0.0000
 40
0.5000
  0
ENDBLK
  8
0
  0
BLOCK
  8
0
  2
THERMALP
 70
64
 10
0.0000
 20
0.0000
 30
0.0000
  3
THERMALP
  0
LINE
  8
0
 10
-0.2379
 20
0.4500
 30
0.0000
 11
0.2379
 21
0.4500
 31
0.0000
  0
LINE
  8
0
 10
0.4500
 20
0.2379
 30
0.0000
 11
0.4500
 21
-0.2379
 31
0.0000
  0
LINE
  8
0
 10
0.2379
 20
-0.4500
 30
0.0000
 11
-0.2379
 21
-0.4500
 31
0.0000
  0
LINE
  8
0
 10
-0.4500
 20
-0.2379
 30
0.0000
 11
-0.4500
 21
0.2379
 31
0.0000
  0
ENDBLK
  8
0
  0
BLOCK
  8
0
  2
OCTAGONV
 70
64
 10
0.0000
 20
0.0000
 30
0.0000
  3
OCTAGONV
  0
POLYLINE
  8
0
 66
1
 10
0.0000
 20
0.0000
 30
0.0000
 40
0.0000
 41
0.0000
 70
1
  0
VERTEX
  8
0
 10
-0.5000
 20
-0.2071
 30
0.0000
  0
VERTEX
  8
0
 10
-0.5000
 20
0.2071
 30
0.0000
  0
VERTEX
  8
0
 10
-0.2071
 20
0.5000
 30
0.0000
  0
VERTEX
  8
0
 10
0.2071
 20
0.5000
 30
0.0000
  0
VERTEX
  8
0
 10
0.5000
 20
0.2071
 30
0.0000
  0
VERTEX
  8
0
 10
0.5000
 20
-0.2071
 30
0.0000
  0
VERTEX
  8
0
 10
0.2071
 20
-0.5000
 30
0.0000
  0
VERTEX
  8
0
 10
-0.2071
 20
-0.5000
 30
0.0000
  0
SEQEND
  8
0
  0
ENDBLK
  8
0
  0
BLOCK
  8
0
  2
SQUAREV
 70
64
 10
0.0000
 20
0.0000
 30
0.0000
  3
SQUAREV
  0
SOLID
  8
0
 10
-0.5000
 20
-0.5000
 30
0.0000
 11
0.5000
 21
-0.5000
 31
0.0000
 12
-0.5000
 22
0.5000
 32
0.0000
 13
0.5000
 23
0.5000
 33
0.0000
  0
ENDBLK
  8
0
  0
BLOCK
  8
0
  2
ROUNDV
 70
64
 10
0.0000
 20
0.0000
 30
0.0000
  3
ROUNDV
  0
CIRCLE
  8
0
 10
0.0000
 20
0.0000
 30
0.0000
 40
0.5000
  0
ENDBLK
  8
0
  0
BLOCK
  8
0
  2
ANNULUSV
 70
64
 10
0.0000
 20
0.0000
 30
0.0000
  3
ANNULUSV
  0
CIRCLE
  8
0
 10
0.0000
 20
0.0000
 30
0.0000
 40
0.5000
  0
ENDBLK
  8
0
  0
BLOCK
  8
0
  2
THERMALV
 70
64
 10
0.0000
 20
0.0000
 30
0.0000
  3
THERMALV
  0
LINE
  8
0
 10
-0.2379
 20
0.4500
 30
0.0000
 11
0.2379
 21
0.4500
 31
0.0000
  0
LINE
  8
0
 10
0.4500
 20
0.2379
 30
0.0000
 11
0.4500
 21
-0.2379
 31
0.0000
  0
LINE
  8
0
 10
0.2379
 20
-0.4500
 30
0.0000
 11
-0.2379
 21
-0.4500
 31
0.0000
  0
LINE
  8
0
 10
-0.4500
 20
-0.2379
 30
0.0000
 11
-0.4500
 21
0.2379
 31
0.0000
  0
ENDBLK
  8
0
  0
BLOCK
  8
0
  2
RECT27072X27072R100
 70
64
 10
0.0000
 20
0.0000
 30
0.0000
  3
RECT27072X27072R100
  0
POLYLINE
  8
0
 66
1
 10
0.0000
 20
0.0000
 30
0.0000
 40
0.0000
 41
0.0000
 70
1
  0
VERTEX
  8
0
 10
0.0846
 20
0.0000
 30
0.0000
  0
VERTEX
  8
0
 10
0.0846
 20
0.0000
 30
0.0000
 42
0.4142
  0
VERTEX
  8
0
 10
0.0000
 20
0.0846
 30
0.0000
  0
VERTEX
  8
0
 10
0.0000
 20
0.0846
 30
0.0000
 42
0.4142
  0
VERTEX
  8
0
 10
-0.0846
 20
0.0000
 30
0.0000
  0
VERTEX
  8
0
 10
-0.0846
 20
0.0000
 30
0.0000
 42
0.4142
  0
VERTEX
  8
0
 10
0.0000
 20
-0.0846
 30
0.0000
  0
VERTEX
  8
0
 10
0.0000
 20
-0.0846
 30
0.0000
 42
0.4142
  0
SEQEND
  8
0
  0
ENDBLK
  8
0
  0
BLOCK
  8
0
  2
RECT36672X127872R100
 70
64
 10
0.0000
 20
0.0000
 30
0.0000
  3
RECT36672X127872R100
  0
POLYLINE
  8
0
 66
1
 10
0.0000
 20
0.0000
 30
0.0000
 40
0.0000
 41
0.0000
 70
1
  0
VERTEX
  8
0
 10
0.1146
 20
-0.2850
 30
0.0000
  0
VERTEX
  8
0
 10
0.1146
 20
0.2850
 30
0.0000
 42
0.4142
  0
VERTEX
  8
0
 10
0.0000
 20
0.3996
 30
0.0000
  0
VERTEX
  8
0
 10
0.0000
 20
0.3996
 30
0.0000
 42
0.4142
  0
VERTEX
  8
0
 10
-0.1146
 20
0.2850
 30
0.0000
  0
VERTEX
  8
0
 10
-0.1146
 20
-0.2850
 30
0.0000
 42
0.4142
  0
VERTEX
  8
0
 10
0.0000
 20
-0.3996
 30
0.0000
  0
VERTEX
  8
0
 10
0.0000
 20
-0.3996
 30
0.0000
 42
0.4142
  0
SEQEND
  8
0
  0
ENDBLK
  8
0
  0
BLOCK
  8
0
  2
RECT119872X24384R100
 70
64
 10
0.0000
 20
0.0000
 30
0.0000
  3
RECT119872X24384R100
  0
POLYLINE
  8
0
 66
1
 10
0.0000
 20
0.0000
 30
0.0000
 40
0.0000
 41
0.0000
 70
1
  0
VERTEX
  8
0
 10
0.3746
 20
0.0000
 30
0.0000
  0
VERTEX
  8
0
 10
0.3746
 20
0.0000
 30
0.0000
 42
0.4142
  0
VERTEX
  8
0
 10
0.2984
 20
0.0762
 30
0.0000
  0
VERTEX
  8
0
 10
-0.2984
 20
0.0762
 30
0.0000
 42
0.4142
  0
VERTEX
  8
0
 10
-0.3746
 20
0.0000
 30
0.0000
  0
VERTEX
  8
0
 10
-0.3746
 20
0.0000
 30
0.0000
 42
0.4142
  0
VERTEX
  8
0
 10
-0.2984
 20
-0.0762
 30
0.0000
  0
VERTEX
  8
0
 10
0.2984
 20
-0.0762
 30
0.0000
 42
0.4142
  0
SEQEND
  8
0
  0
ENDBLK
  8
0
  0
ENDSEC
  0
SECTION
  2
ENTITIES
  0
INSERT
  8
31
  2
PIE
 10
8.2669
 20
-8.7126
 30
0.0000
 41
0.1692
 42
0.1692
 43
1.0000
 50
0.0000
  0
INSERT
  8
31
  2
PIE
 10
7.7669
 20
-8.7126
 30
0.0000
 41
0.1692
 42
0.1692
 43
1.0000
 50
0.0000
  0
INSERT
  8
31
  2
PIE
 10
7.7669
 20
-8.1066
 30
0.0000
 41
0.1692
 42
0.1692
 43
1.0000
 50
0.0000
  0
INSERT
  8
31
  2
PIE
 10
8.0169
 20
-7.6386
 30
0.0000
 41
0.1692
 42
0.1692
 43
1.0000
 50
0.0000
  0
INSERT
  8
31
  2
PIE
 10
8.2669
 20
-8.1066
 30
0.0000
 41
0.1692
 42
0.1692
 43
1.0000
 50
0.0000
  0
INSERT
  8
31
  2
RECT
 10
-5.5118
 20
6.5244
 30
0.0000
 41
0.7492
 42
1.3492
 43
1.0000
 50
270.0000
  0
INSERT
  8
31
  2
RECT
 10
-5.5118
 20
5.0644
 30
0.0000
 41
0.7492
 42
1.3492
 43
1.0000
 50
270.0000
  0
INSERT
  8
31
  2
RECT
 10
-3.4131
 20
-6.7412
 30
0.0000
 41
0.5492
 42
0.6492
 43
1.0000
 50
90.0000
  0
INSERT
  8
31
  2
RECT
 10
-3.4131
 20
-5.6413
 30
0.0000
 41
0.5492
 42
0.6492
 43
1.0000
 50
90.0000
  0
INSERT
  8
31
  2
RECT
 10
-6.9215
 20
6.9663
 30
0.0000
 41
0.7492
 42
0.9492
 43
1.0000
 50
270.0000
  0
INSERT
  8
31
  2
RECT
 10
-6.9215
 20
5.4163
 30
0.0000
 41
0.7492
 42
0.9492
 43
1.0000
 50
270.0000
  0
INSERT
  8
31
  2
RECT
 10
-4.0298
 20
5.9182
 30
0.0000
 41
0.5492
 42
0.6492
 43
1.0000
 50
0.0000
  0
INSERT
  8
31
  2
RECT
 10
-2.9298
 20
5.9182
 30
0.0000
 41
0.5492
 42
0.6492
 43
1.0000
 50
0.0000
  0
INSERT
  8
31
  2
RECT
 10
4.4032
 20
4.4641
 30
0.0000
 41
0.4492
 42
0.9492
 43
1.0000
 50
180.0000
  0
INSERT
  8
31
  2
RECT
 10
3.1528
 20
4.4641
 30
0.0000
 41
0.4492
 42
0.9492
 43
1.0000
 50
180.0000
  0
INSERT
  8
31
  2
RECT
 10
-8.0264
 20
-16.5361
 30
0.0000
 41
0.5492
 42
0.6492
 43
1.0000
 50
90.0000
  0
INSERT
  8
31
  2
RECT
 10
-8.0264
 20
-15.4361
 30
0.0000
 41
0.5492
 42
0.6492
 43
1.0000
 50
90.0000
  0
INSERT
  8
31
  2
RECT
 10
-3.7306
 20
4.8363
 30
0.0000
 41
0.5492
 42
0.6492
 43
1.0000
 50
270.0000
  0
INSERT
  8
31
  2
RECT
 10
-3.7306
 20
3.7363
 30
0.0000
 41
0.5492
 42
0.6492
 43
1.0000
 50
270.0000
  0
INSERT
  8
31
  2
RECT
 10
-2.6194
 20
4.8363
 30
0.0000
 41
0.5492
 42
0.6492
 43
1.0000
 50
270.0000
  0
INSERT
  8
31
  2
RECT
 10
-2.6194
 20
3.7363
 30
0.0000
 41
0.5492
 42
0.6492
 43
1.0000
 50
270.0000
  0
INSERT
  8
31
  2
RECT
 10
0.7786
 20
6.2230
 30
0.0000
 41
0.5492
 42
0.6492
 43
1.0000
 50
180.0000
  0
INSERT
  8
31
  2
RECT
 10
-0.3214
 20
6.2230
 30
0.0000
 41
0.5492
 42
0.6492
 43
1.0000
 50
180.0000
  0
INSERT
  8
31
  2
RECT
 10
3.3874
 20
6.9691
 30
0.0000
 41
0.7492
 42
0.9492
 43
1.0000
 50
0.0000
  0
INSERT
  8
31
  2
RECT
 10
4.9374
 20
6.9691
 30
0.0000
 41
0.7492
 42
0.9492
 43
1.0000
 50
0.0000
  0
INSERT
  8
31
  2
RECT
 10
2.8575
 20
-16.5774
 30
0.0000
 41
0.5492
 42
0.6492
 43
1.0000
 50
90.0000
  0
INSERT
  8
31
  2
RECT
 10
2.8575
 20
-15.4774
 30
0.0000
 41
0.5492
 42
0.6492
 43
1.0000
 50
90.0000
  0
INSERT
  8
31
  2
RECT
 10
6.8262
 20
-8.5611
 30
0.0000
 41
0.4851
 42
0.4953
 43
1.0000
 50
90.0000
  0
INSERT
  8
31
  2
RECT
 10
6.8262
 20
-7.6949
 30
0.0000
 41
0.4851
 42
0.4953
 43
1.0000
 50
90.0000
  0
INSERT
  8
31
  2
RECT
 10
-9.8063
 20
-3.7592
 30
0.0000
 41
0.4851
 42
0.4953
 43
1.0000
 50
180.0000
  0
INSERT
  8
31
  2
RECT
 10
-10.6724
 20
-3.7592
 30
0.0000
 41
0.4851
 42
0.4953
 43
1.0000
 50
180.0000
  0
INSERT
  8
31
  2
RECT
 10
-8.8900
 20
-15.4361
 30
0.0000
 41
0.5492
 42
0.6492
 43
1.0000
 50
270.0000
  0
INSERT
  8
31
  2
RECT
 10
-8.8900
 20
-16.5361
 30
0.0000
 41
0.5492
 42
0.6492
 43
1.0000
 50
270.0000
  0
INSERT
  8
31
  2
RECT
 10
-5.1692
 20
-14.5796
 30
0.0000
 41
0.7492
 42
0.9492
 43
1.0000
 50
0.0000
  0
INSERT
  8
31
  2
RECT
 10
-3.6192
 20
-14.5796
 30
0.0000
 41
0.7492
 42
0.9492
 43
1.0000
 50
0.0000
  0
INSERT
  8
31
  2
RECT
 10
-9.7409
 20
-16.5329
 30
0.0000
 41
0.5492
 42
0.6492
 43
1.0000
 50
90.0000
  0
INSERT
  8
31
  2
RECT
 10
-9.7409
 20
-15.4329
 30
0.0000
 41
0.5492
 42
0.6492
 43
1.0000
 50
90.0000
  0
INSERT
  8
31
  2
RECT
 10
4.4018
 20
-12.1730
 30
0.0000
 41
0.4851
 42
0.4953
 43
1.0000
 50
180.0000
  0
INSERT
  8
31
  2
RECT
 10
3.5357
 20
-12.1730
 30
0.0000
 41
0.4851
 42
0.4953
 43
1.0000
 50
180.0000
  0
INSERT
  8
31
  2
RECT
 10
5.1816
 20
-9.2532
 30
0.0000
 41
0.4851
 42
0.4953
 43
1.0000
 50
90.0000
  0
INSERT
  8
31
  2
RECT
 10
5.1816
 20
-8.3871
 30
0.0000
 41
0.4851
 42
0.4953
 43
1.0000
 50
90.0000
  0
INSERT
  8
31
  2
RECT
 10
4.4018
 20
-10.7759
 30
0.0000
 41
0.4851
 42
0.4953
 43
1.0000
 50
180.0000
  0
INSERT
  8
31
  2
RECT
 10
3.5357
 20
-10.7759
 30
0.0000
 41
0.4851
 42
0.4953
 43
1.0000
 50
180.0000
  0
INSERT
  8
31
  2
RECT
 10
4.4018
 20
-11.4745
 30
0.0000
 41
0.4851
 42
0.4953
 43
1.0000
 50
180.0000
  0
INSERT
  8
31
  2
RECT
 10
3.5357
 20
-11.4745
 30
0.0000
 41
0.4851
 42
0.4953
 43
1.0000
 50
180.0000
  0
INSERT
  8
31
  2
RECT
 10
9.1110
 20
-8.6424
 30
0.0000
 41
0.4851
 42
0.4953
 43
1.0000
 50
0.0000
  0
INSERT
  8
31
  2
RECT
 10
9.9771
 20
-8.6424
 30
0.0000
 41
0.4851
 42
0.4953
 43
1.0000
 50
0.0000
  0
INSERT
  8
31
  2
RECT
 10
9.1110
 20
-7.9312
 30
0.0000
 41
0.4851
 42
0.4953
 43
1.0000
 50
0.0000
  0
INSERT
  8
31
  2
RECT
 10
9.9771
 20
-7.9312
 30
0.0000
 41
0.4851
 42
0.4953
 43
1.0000
 50
0.0000
  0
INSERT
  8
31
  2
RECT
 10
9.1110
 20
-7.2200
 30
0.0000
 41
0.4851
 42
0.4953
 43
1.0000
 50
0.0000
  0
INSERT
  8
31
  2
RECT
 10
9.9771
 20
-7.2200
 30
0.0000
 41
0.4851
 42
0.4953
 43
1.0000
 50
0.0000
  0
INSERT
  8
31
  2
RECT
 10
10.7276
 20
-16.5100
 30
0.0000
 41
0.5492
 42
0.6492
 43
1.0000
 50
0.0000
  0
INSERT
  8
31
  2
RECT
 10
11.8276
 20
-16.5100
 30
0.0000
 41
0.5492
 42
0.6492
 43
1.0000
 50
0.0000
  0
INSERT
  8
31
  2
RECT
 10
2.1082
 20
-0.3722
 30
0.0000
 41
0.5492
 42
0.6492
 43
1.0000
 50
90.0000
  0
INSERT
  8
31
  2
RECT
 10
2.1082
 20
0.7278
 30
0.0000
 41
0.5492
 42
0.6492
 43
1.0000
 50
90.0000
  0
INSERT
  8
31
  2
RECT
 10
-2.9489
 20
-16.5418
 30
0.0000
 41
0.5492
 42
0.6492
 43
1.0000
 50
180.0000
  0
INSERT
  8
31
  2
RECT
 10
-4.0488
 20
-16.5418
 30
0.0000
 41
0.5492
 42
0.6492
 43
1.0000
 50
180.0000
  0
INSERT
  8
31
  2
RECT
 10
-0.7144
 20
-0.4819
 30
0.0000
 41
0.5492
 42
0.6492
 43
1.0000
 50
270.0000
  0
INSERT
  8
31
  2
RECT
 10
-0.7144
 20
-1.5819
 30
0.0000
 41
0.5492
 42
0.6492
 43
1.0000
 50
270.0000
  0
INSERT
  8
31
  2
RECT
 10
-0.7112
 20
0.2882
 30
0.0000
 41
0.5492
 42
0.6492
 43
1.0000
 50
90.0000
  0
INSERT
  8
31
  2
RECT
 10
-0.7112
 20
1.3882
 30
0.0000
 41
0.5492
 42
0.6492
 43
1.0000
 50
90.0000
  0
INSERT
  8
31
  2
RECT
 10
-7.8078
 20
5.9531
 30
0.0000
 41
0.3992
 42
0.7492
 43
1.0000
 50
180.0000
  0
INSERT
  8
31
  2
RECT
 10
-9.0578
 20
5.9531
 30
0.0000
 41
0.3992
 42
0.7492
 43
1.0000
 50
180.0000
  0
INSERT
  8
31
  2
RECT
 10
-9.0578
 20
6.9850
 30
0.0000
 41
0.3992
 42
0.7492
 43
1.0000
 50
0.0000
  0
INSERT
  8
31
  2
RECT
 10
-7.8078
 20
6.9850
 30
0.0000
 41
0.3992
 42
0.7492
 43
1.0000
 50
0.0000
  0
CIRCLE
  8
20
 10
-6.3500
 20
-6.4262
 30
0.0000
 40
0.5143
  0
ARC
  8
20
 10
-12.0650
 20
-16.7640
 30
0.0000
 40
0.6350
 50
180.0000
 51
270.0000
  0
ARC
  8
20
 10
-12.0650
 20
7.3660
 30
0.0000
 40
0.6350
 50
90.0000
 51
180.0000
  0
LINE
  8
20
 10
-12.0650
 20
8.0010
 30
0.0000
 11
12.0650
 21
8.0010
 31
0.0000
  0
LINE
  8
20
 10
-7.8740
 20
3.5560
 30
0.0000
 11
-7.8740
 21
-3.5560
 31
0.0000
  0
LINE
  8
20
 10
-7.8740
 20
-3.5560
 30
0.0000
 11
-5.2705
 21
-3.5560
 31
0.0000
  0
LINE
  8
20
 10
-5.2705
 20
-3.5560
 30
0.0000
 11
-5.2705
 21
3.5560
 31
0.0000
  0
LINE
  8
20
 10
-5.2705
 20
3.5560
 30
0.0000
 11
-7.8740
 21
3.5560
 31
0.0000
  0
LINE
  8
20
 10
7.8740
 20
4.4450
 30
0.0000
 11
7.8740
 21
-4.4450
 31
0.0000
  0
LINE
  8
20
 10
7.8740
 20
-4.4450
 30
0.0000
 11
5.2705
 21
-4.4450
 31
0.0000
  0
LINE
  8
20
 10
5.2705
 20
-4.4450
 30
0.0000
 11
5.2705
 21
4.4450
 31
0.0000
  0
LINE
  8
20
 10
5.2705
 20
4.4450
 30
0.0000
 11
7.8740
 21
4.4450
 31
0.0000
  0
LINE
  8
20
 10
-12.0650
 20
-17.3990
 30
0.0000
 11
12.0650
 21
-17.3990
 31
0.0000
  0
LINE
  8
20
 10
-2.5654
 20
-14.5796
 30
0.0000
 11
2.5654
 21
-14.5796
 31
0.0000
  0
ARC
  8
20
 10
2.5654
 20
-14.4526
 30
0.0000
 40
0.1270
 50
270.0000
 51
0.0000
  0
LINE
  8
20
 10
2.6924
 20
-14.4526
 30
0.0000
 11
2.6924
 21
-11.8872
 31
0.0000
  0
ARC
  8
20
 10
0.0000
 20
-11.8872
 30
0.0000
 40
2.6924
 50
0.0000
 51
90.0000
  0
ARC
  8
20
 10
0.0000
 20
-11.8872
 30
0.0000
 40
2.6924
 50
90.0000
 51
180.0000
  0
LINE
  8
20
 10
-2.6924
 20
-11.8872
 30
0.0000
 11
-2.6924
 21
-14.4526
 31
0.0000
  0
ARC
  8
20
 10
-2.5654
 20
-14.4526
 30
0.0000
 40
0.1270
 50
180.0000
 51
270.0000
  0
ARC
  8
20
 10
12.0650
 20
-16.7640
 30
0.0000
 40
0.6350
 50
270.0000
 51
0.0000
  0
LINE
  8
20
 10
12.7000
 20
-16.7640
 30
0.0000
 11
12.7000
 21
7.3660
 31
0.0000
  0
ARC
  8
20
 10
12.0650
 20
7.3660
 30
0.0000
 40
0.6350
 50
0.0000
 51
90.0000
  0
LINE
  8
20
 10
-7.8740
 20
3.3020
 30
0.0000
 11
-6.8580
 21
3.3020
 31
0.0000
  0
LINE
  8
20
 10
-6.8580
 20
3.3020
 30
0.0000
 11
-6.7310
 21
3.3020
 31
0.0000
  0
LINE
  8
20
 10
-6.7310
 20
3.3020
 30
0.0000
 11
-6.7310
 21
-3.3020
 31
0.0000
  0
LINE
  8
20
 10
-6.7310
 20
-3.3020
 30
0.0000
 11
-6.8580
 21
-3.3020
 31
0.0000
  0
LINE
  8
20
 10
-6.8580
 20
-3.3020
 30
0.0000
 11
-7.8740
 21
-3.3020
 31
0.0000
  0
LINE
  8
20
 10
7.8740
 20
3.3020
 30
0.0000
 11
6.8580
 21
3.3020
 31
0.0000
  0
LINE
  8
20
 10
6.8580
 20
3.3020
 30
0.0000
 11
6.7310
 21
3.3020
 31
0.0000
  0
LINE
  8
20
 10
6.7310
 20
3.3020
 30
0.0000
 11
6.7310
 21
-3.3020
 31
0.0000
  0
LINE
  8
20
 10
6.7310
 20
-3.3020
 30
0.0000
 11
6.8580
 21
-3.3020
 31
0.0000
  0
LINE
  8
20
 10
6.8580
 20
-3.3020
 30
0.0000
 11
7.8740
 21
-3.3020
 31
0.0000
  0
LINE
  8
20
 10
6.8580
 20
3.3020
 30
0.0000
 11
6.8580
 21
-3.3020
 31
0.0000
  0
LINE
  8
20
 10
-6.8580
 20
-3.3020
 30
0.0000
 11
-6.8580
 21
3.3020
 31
0.0000
  0
LINE
  8
20
 10
-12.7000
 20
7.3660
 30
0.0000
 11
-12.7000
 21
-16.7640
 31
0.0000
  0
CIRCLE
  8
20
 10
6.3500
 20
-6.4262
 30
0.0000
 40
0.5080
  0
CIRCLE
  8
20
 10
1.2700
 20
-5.4102
 30
0.0000
 40
0.5080
  0
CIRCLE
  8
20
 10
1.2700
 20
-7.4422
 30
0.0000
 40
0.5080
  0
INSERT
  8
31
  2
RECT
 10
1.9812
 20
6.1697
 30
0.0000
 41
1.2492
 42
1.4492
 43
1.0000
 50
270.0000
  0
INSERT
  8
31
  2
RECT
 10
1.9812
 20
4.2697
 30
0.0000
 41
1.2492
 42
1.4492
 43
1.0000
 50
270.0000
  0
INSERT
  8
31
  2
RECT
 10
3.4925
 20
-12.9019
 30
0.0000
 41
0.4851
 42
0.4953
 43
1.0000
 50
270.0000
  0
INSERT
  8
31
  2
RECT
 10
3.4925
 20
-13.7681
 30
0.0000
 41
0.4851
 42
0.4953
 43
1.0000
 50
270.0000
  0
INSERT
  8
31
  2
RECT
 10
3.4894
 20
0.3273
 30
0.0000
 41
1.2492
 42
1.4492
 43
1.0000
 50
82.9000
  0
INSERT
  8
31
  2
RECT
 10
3.7242
 20
2.2127
 30
0.0000
 41
1.2492
 42
1.4492
 43
1.0000
 50
82.9000
  0
INSERT
  8
31
  2
RECT
 10
4.7276
 20
-15.3770
 30
0.0000
 41
0.4492
 42
0.9492
 43
1.0000
 50
270.0000
  0
INSERT
  8
31
  2
RECT
 10
4.7276
 20
-16.6275
 30
0.0000
 41
0.4492
 42
0.9492
 43
1.0000
 50
270.0000
  0
INSERT
  8
31
  2
RECT
 10
-0.2586
 20
-15.3838
 30
0.0000
 41
0.7992
 42
0.2992
 43
1.0000
 50
0.0000
  0
INSERT
  8
31
  2
RECT
 10
-0.2586
 20
-16.6837
 30
0.0000
 41
0.7992
 42
0.2992
 43
1.0000
 50
0.0000
  0
INSERT
  8
31
  2
RECT
 10
1.9414
 20
-16.0338
 30
0.0000
 41
0.7992
 42
0.2992
 43
1.0000
 50
0.0000
  0
INSERT
  8
31
  2
RECT
 10
0.6462
 20
-2.4456
 30
0.0000
 41
0.7992
 42
0.2992
 43
1.0000
 50
0.0000
  0
INSERT
  8
31
  2
RECT
 10
0.6462
 20
-3.7456
 30
0.0000
 41
0.7992
 42
0.2992
 43
1.0000
 50
0.0000
  0
INSERT
  8
31
  2
RECT
 10
2.8462
 20
-3.0956
 30
0.0000
 41
0.7992
 42
0.2992
 43
1.0000
 50
0.0000
  0
INSERT
  8
31
  2
RECT
 10
1.5025
 20
2.5400
 30
0.0000
 41
0.5492
 42
0.6492
 43
1.0000
 50
180.0000
  0
INSERT
  8
31
  2
RECT
 10
0.4025
 20
2.5400
 30
0.0000
 41
0.5492
 42
0.6492
 43
1.0000
 50
180.0000
  0
INSERT
  8
31
  2
RECT
 10
-4.2862
 20
-5.6413
 30
0.0000
 41
0.5492
 42
0.6492
 43
1.0000
 50
270.0000
  0
INSERT
  8
31
  2
RECT
 10
-4.2862
 20
-6.7412
 30
0.0000
 41
0.5492
 42
0.6492
 43
1.0000
 50
270.0000
  0
INSERT
  8
31
  2
RECT
 10
-10.7950
 20
3.7911
 30
0.0000
 41
1.5492
 42
2.6492
 43
1.0000
 50
90.0000
  0
INSERT
  8
31
  2
RECT
 10
-10.7950
 20
6.5911
 30
0.0000
 41
1.5492
 42
2.6492
 43
1.0000
 50
90.0000
  0
INSERT
  8
31
  2
RECT
 10
11.5456
 20
-8.6519
 30
0.0000
 41
0.4851
 42
0.4953
 43
1.0000
 50
180.0000
  0
INSERT
  8
31
  2
RECT
 10
10.6794
 20
-8.6519
 30
0.0000
 41
0.4851
 42
0.4953
 43
1.0000
 50
180.0000
  0
INSERT
  8
31
  2
RECT
 10
3.8838
 20
-4.1910
 30
0.0000
 41
0.5492
 42
0.6492
 43
1.0000
 50
180.0000
  0
INSERT
  8
31
  2
RECT
 10
2.7837
 20
-4.1910
 30
0.0000
 41
0.5492
 42
0.6492
 43
1.0000
 50
180.0000
  0
INSERT
  8
31
  2
RECT
 10
-2.9298
 20
6.7691
 30
0.0000
 41
0.5492
 42
0.6492
 43
1.0000
 50
180.0000
  0
INSERT
  8
31
  2
RECT
 10
-4.0298
 20
6.7691
 30
0.0000
 41
0.5492
 42
0.6492
 43
1.0000
 50
180.0000
  0
INSERT
  8
31
  2
RECT
 10
-1.1906
 20
-15.4838
 30
0.0000
 41
0.5492
 42
0.6492
 43
1.0000
 50
270.0000
  0
INSERT
  8
31
  2
RECT
 10
-1.1906
 20
-16.5838
 30
0.0000
 41
0.5492
 42
0.6492
 43
1.0000
 50
270.0000
  0
INSERT
  8
31
  2
RECT
 10
-1.0756
 20
6.2230
 30
0.0000
 41
0.5492
 42
0.6492
 43
1.0000
 50
180.0000
  0
INSERT
  8
31
  2
RECT
 10
-2.1756
 20
6.2230
 30
0.0000
 41
0.5492
 42
0.6492
 43
1.0000
 50
180.0000
  0
INSERT
  8
31
  2
RECT
 10
-7.1335
 20
-4.7879
 30
0.0000
 41
0.5492
 42
0.6492
 43
1.0000
 50
180.0000
  0
INSERT
  8
31
  2
RECT
 10
-8.2335
 20
-4.7879
 30
0.0000
 41
0.5492
 42
0.6492
 43
1.0000
 50
180.0000
  0
INSERT
  8
31
  2
RECT
 10
-8.8050
 20
-5.9531
 30
0.0000
 41
0.5492
 42
0.6492
 43
1.0000
 50
0.0000
  0
INSERT
  8
31
  2
RECT
 10
-7.7050
 20
-5.9531
 30
0.0000
 41
0.5492
 42
0.6492
 43
1.0000
 50
0.0000
  0
INSERT
  8
31
  2
RECT
 10
-9.5592
 20
-6.3500
 30
0.0000
 41
0.5492
 42
0.6492
 43
1.0000
 50
180.0000
  0
INSERT
  8
31
  2
RECT
 10
-10.6592
 20
-6.3500
 30
0.0000
 41
0.5492
 42
0.6492
 43
1.0000
 50
180.0000
  0
INSERT
  8
31
  2
RECT
 10
2.3813
 20
2.6138
 30
0.0000
 41
0.5492
 42
0.6492
 43
1.0000
 50
270.0000
  0
INSERT
  8
31
  2
RECT
 10
2.3813
 20
1.5138
 30
0.0000
 41
0.5492
 42
0.6492
 43
1.0000
 50
270.0000
  0
INSERT
  8
31
  2
RECT
 10
3.3394
 20
-1.0319
 30
0.0000
 41
0.5492
 42
0.6492
 43
1.0000
 50
0.0000
  0
INSERT
  8
31
  2
RECT
 10
4.4394
 20
-1.0319
 30
0.0000
 41
0.5492
 42
0.6492
 43
1.0000
 50
0.0000
  0
INSERT
  8
31
  2
RECT
 10
3.3553
 20
-1.9368
 30
0.0000
 41
0.5492
 42
0.6492
 43
1.0000
 50
0.0000
  0
INSERT
  8
31
  2
RECT
 10
4.4553
 20
-1.9368
 30
0.0000
 41
0.5492
 42
0.6492
 43
1.0000
 50
0.0000
  0
INSERT
  8
31
  2
RECT
 10
1.2644
 20
-1.1906
 30
0.0000
 41
0.5492
 42
0.6492
 43
1.0000
 50
180.0000
  0
INSERT
  8
31
  2
RECT
 10
0.1644
 20
-1.1906
 30
0.0000
 41
0.5492
 42
0.6492
 43
1.0000
 50
180.0000
  0
INSERT
  8
31
  2
RECT
 10
-1.5025
 20
2.5400
 30
0.0000
 41
0.5492
 42
0.6492
 43
1.0000
 50
0.0000
  0
INSERT
  8
31
  2
RECT
 10
-0.4025
 20
2.5400
 30
0.0000
 41
0.5492
 42
0.6492
 43
1.0000
 50
0.0000
  0
INSERT
  8
31
  2
RECT
 10
-9.6837
 20
-9.9988
 30
0.0000
 41
0.5492
 42
0.6492
 43
1.0000
 50
90.0000
  0
INSERT
  8
31
  2
RECT
 10
-9.6837
 20
-8.8988
 30
0.0000
 41
0.5492
 42
0.6492
 43
1.0000
 50
90.0000
  0
INSERT
  8
31
  2
RECT
 10
-9.4742
 20
-1.7868
 30
0.0000
 41
0.5492
 42
0.6492
 43
1.0000
 50
270.0000
  0
INSERT
  8
31
  2
RECT
 10
-9.4742
 20
-2.8868
 30
0.0000
 41
0.5492
 42
0.6492
 43
1.0000
 50
270.0000
  0
INSERT
  8
31
  2
RECT
 10
-11.3450
 20
0.5493
 30
0.0000
 41
0.5492
 42
0.6492
 43
1.0000
 50
0.0000
  0
INSERT
  8
31
  2
RECT
 10
-10.2450
 20
0.5493
 30
0.0000
 41
0.5492
 42
0.6492
 43
1.0000
 50
0.0000
  0
INSERT
  8
31
  2
RECT
 10
-10.6592
 20
-5.4928
 30
0.0000
 41
0.5492
 42
0.6492
 43
1.0000
 50
0.0000
  0
INSERT
  8
31
  2
RECT
 10
-9.5592
 20
-5.4928
 30
0.0000
 41
0.5492
 42
0.6492
 43
1.0000
 50
0.0000
  0
INSERT
  8
31
  2
RECT
 10
3.3398
 20
5.7944
 30
0.0000
 41
0.7492
 42
0.9492
 43
1.0000
 50
0.0000
  0
INSERT
  8
31
  2
RECT
 10
4.8898
 20
5.7944
 30
0.0000
 41
0.7492
 42
0.9492
 43
1.0000
 50
0.0000
  0
INSERT
  8
31
  2
RECT
 10
-3.0988
 20
-2.5996
 30
0.0000
 41
0.5492
 42
0.6492
 43
1.0000
 50
270.0000
  0
INSERT
  8
31
  2
RECT
 10
-3.0988
 20
-3.6996
 30
0.0000
 41
0.5492
 42
0.6492
 43
1.0000
 50
270.0000
  0
INSERT
  8
31
  2
RECT
 10
-2.4663
 20
1.5875
 30
0.0000
 41
0.5492
 42
0.6492
 43
1.0000
 50
180.0000
  0
INSERT
  8
31
  2
RECT
 10
-3.5663
 20
1.5875
 30
0.0000
 41
0.5492
 42
0.6492
 43
1.0000
 50
180.0000
  0
INSERT
  8
31
  2
RECT
 10
-3.4710
 20
2.4606
 30
0.0000
 41
0.5492
 42
0.6492
 43
1.0000
 50
0.0000
  0
INSERT
  8
31
  2
RECT
 10
-2.3710
 20
2.4606
 30
0.0000
 41
0.5492
 42
0.6492
 43
1.0000
 50
0.0000
  0
INSERT
  8
31
  2
RECT
 10
-1.1963
 20
-2.6987
 30
0.0000
 41
0.5492
 42
0.6492
 43
1.0000
 50
180.0000
  0
INSERT
  8
31
  2
RECT
 10
-2.2963
 20
-2.6987
 30
0.0000
 41
0.5492
 42
0.6492
 43
1.0000
 50
180.0000
  0
INSERT
  8
31
  2
RECT
 10
-2.2963
 20
-3.5719
 30
0.0000
 41
0.5492
 42
0.6492
 43
1.0000
 50
0.0000
  0
INSERT
  8
31
  2
RECT
 10
-1.1963
 20
-3.5719
 30
0.0000
 41
0.5492
 42
0.6492
 43
1.0000
 50
0.0000
  0
INSERT
  8
31
  2
RECT
 10
-11.8364
 20
-3.8950
 30
0.0000
 41
0.5492
 42
0.6492
 43
1.0000
 50
270.0000
  0
INSERT
  8
31
  2
RECT
 10
-11.8364
 20
-4.9950
 30
0.0000
 41
0.5492
 42
0.6492
 43
1.0000
 50
270.0000
  0
INSERT
  8
31
  2
RECT
 10
-11.8364
 20
2.5344
 30
0.0000
 41
0.5492
 42
0.6492
 43
1.0000
 50
270.0000
  0
INSERT
  8
31
  2
RECT
 10
-11.8364
 20
1.4344
 30
0.0000
 41
0.5492
 42
0.6492
 43
1.0000
 50
270.0000
  0
INSERT
  8
31
  2
RECT
 10
-10.7784
 20
-0.3016
 30
0.0000
 41
0.5492
 42
0.6492
 43
1.0000
 50
180.0000
  0
INSERT
  8
31
  2
RECT
 10
-11.8784
 20
-0.3016
 30
0.0000
 41
0.5492
 42
0.6492
 43
1.0000
 50
180.0000
  0
INSERT
  8
31
  2
RECT
 10
0.3356
 20
4.1125
 30
0.0000
 41
0.5992
 42
0.1992
 43
1.0000
 50
180.0000
  0
INSERT
  8
31
  2
RECT
 10
0.3356
 20
4.7625
 30
0.0000
 41
0.5992
 42
0.1992
 43
1.0000
 50
180.0000
  0
INSERT
  8
31
  2
RECT
 10
0.3356
 20
5.4125
 30
0.0000
 41
0.5992
 42
0.1992
 43
1.0000
 50
180.0000
  0
INSERT
  8
31
  2
RECT
 10
-1.7644
 20
5.4125
 30
0.0000
 41
0.5992
 42
0.1992
 43
1.0000
 50
180.0000
  0
INSERT
  8
31
  2
RECT
 10
-1.7644
 20
4.7625
 30
0.0000
 41
0.5992
 42
0.1992
 43
1.0000
 50
180.0000
  0
INSERT
  8
31
  2
RECT
 10
-1.7644
 20
4.1125
 30
0.0000
 41
0.5992
 42
0.1992
 43
1.0000
 50
180.0000
  0
INSERT
  8
31
  2
RECT
 10
-0.7144
 20
4.7625
 30
0.0000
 41
0.7492
 42
1.3492
 43
1.0000
 50
180.0000
  0
INSERT
  8
31
  2
RECT
 10
1.4120
 20
1.5850
 30
0.0000
 41
0.4992
 42
0.2992
 43
1.0000
 50
270.0000
  0
INSERT
  8
31
  2
RECT
 10
0.7620
 20
1.5850
 30
0.0000
 41
0.4992
 42
0.2992
 43
1.0000
 50
270.0000
  0
INSERT
  8
31
  2
RECT
 10
0.1120
 20
1.5850
 30
0.0000
 41
0.4992
 42
0.2992
 43
1.0000
 50
270.0000
  0
INSERT
  8
31
  2
RECT
 10
0.1120
 20
-0.3150
 30
0.0000
 41
0.4992
 42
0.2992
 43
1.0000
 50
270.0000
  0
INSERT
  8
31
  2
RECT
 10
1.4120
 20
-0.3150
 30
0.0000
 41
0.4992
 42
0.2992
 43
1.0000
 50
270.0000
  0
INSERT
  8
31
  2
RECT36672X127872R100
 10
-5.4704
 20
-13.4738
 30
0.0000
 41
1.0000
 42
1.0000
 43
1.0000
 50
270.0000
  0
INSERT
  8
31
  2
RECT36672X127872R100
 10
-5.4704
 20
-12.9738
 30
0.0000
 41
1.0000
 42
1.0000
 43
1.0000
 50
270.0000
  0
INSERT
  8
31
  2
RECT36672X127872R100
 10
-5.4704
 20
-12.4738
 30
0.0000
 41
1.0000
 42
1.0000
 43
1.0000
 50
270.0000
  0
INSERT
  8
31
  2
RECT36672X127872R100
 10
-5.4704
 20
-11.9738
 30
0.0000
 41
1.0000
 42
1.0000
 43
1.0000
 50
270.0000
  0
INSERT
  8
31
  2
RECT36672X127872R100
 10
-5.4704
 20
-11.4738
 30
0.0000
 41
1.0000
 42
1.0000
 43
1.0000
 50
270.0000
  0
INSERT
  8
31
  2
RECT36672X127872R100
 10
-5.4704
 20
-10.9738
 30
0.0000
 41
1.0000
 42
1.0000
 43
1.0000
 50
270.0000
  0
INSERT
  8
31
  2
RECT36672X127872R100
 10
-6.1954
 20
-10.2488
 30
0.0000
 41
1.0000
 42
1.0000
 43
1.0000
 50
0.0000
  0
INSERT
  8
31
  2
RECT36672X127872R100
 10
-6.6954
 20
-10.2488
 30
0.0000
 41
1.0000
 42
1.0000
 43
1.0000
 50
0.0000
  0
INSERT
  8
31
  2
RECT36672X127872R100
 10
-7.1954
 20
-10.2488
 30
0.0000
 41
1.0000
 42
1.0000
 43
1.0000
 50
0.0000
  0
INSERT
  8
31
  2
RECT36672X127872R100
 10
-7.6954
 20
-10.2488
 30
0.0000
 41
1.0000
 42
1.0000
 43
1.0000
 50
0.0000
  0
INSERT
  8
31
  2
RECT36672X127872R100
 10
-8.1954
 20
-10.2488
 30
0.0000
 41
1.0000
 42
1.0000
 43
1.0000
 50
0.0000
  0
INSERT
  8
31
  2
RECT36672X127872R100
 10
-8.6954
 20
-10.2488
 30
0.0000
 41
1.0000
 42
1.0000
 43
1.0000
 50
0.0000
  0
INSERT
  8
31
  2
RECT36672X127872R100
 10
-9.4204
 20
-10.9738
 30
0.0000
 41
1.0000
 42
1.0000
 43
1.0000
 50
270.0000
  0
INSERT
  8
31
  2
RECT36672X127872R100
 10
-9.4204
 20
-11.4738
 30
0.0000
 41
1.0000
 42
1.0000
 43
1.0000
 50
270.0000
  0
INSERT
  8
31
  2
RECT36672X127872R100
 10
-9.4204
 20
-11.9738
 30
0.0000
 41
1.0000
 42
1.0000
 43
1.0000
 50
270.0000
  0
INSERT
  8
31
  2
RECT36672X127872R100
 10
-9.4204
 20
-12.4738
 30
0.0000
 41
1.0000
 42
1.0000
 43
1.0000
 50
270.0000
  0
INSERT
  8
31
  2
RECT36672X127872R100
 10
-9.4204
 20
-12.9738
 30
0.0000
 41
1.0000
 42
1.0000
 43
1.0000
 50
270.0000
  0
INSERT
  8
31
  2
RECT36672X127872R100
 10
-9.4204
 20
-13.4738
 30
0.0000
 41
1.0000
 42
1.0000
 43
1.0000
 50
270.0000
  0
INSERT
  8
31
  2
RECT36672X127872R100
 10
-8.6954
 20
-14.1988
 30
0.0000
 41
1.0000
 42
1.0000
 43
1.0000
 50
0.0000
  0
INSERT
  8
31
  2
RECT36672X127872R100
 10
-8.1954
 20
-14.1988
 30
0.0000
 41
1.0000
 42
1.0000
 43
1.0000
 50
0.0000
  0
INSERT
  8
31
  2
RECT36672X127872R100
 10
-7.6954
 20
-14.1988
 30
0.0000
 41
1.0000
 42
1.0000
 43
1.0000
 50
0.0000
  0
INSERT
  8
31
  2
RECT36672X127872R100
 10
-7.1954
 20
-14.1988
 30
0.0000
 41
1.0000
 42
1.0000
 43
1.0000
 50
0.0000
  0
INSERT
  8
31
  2
RECT36672X127872R100
 10
-6.6954
 20
-14.1988
 30
0.0000
 41
1.0000
 42
1.0000
 43
1.0000
 50
0.0000
  0
INSERT
  8
31
  2
RECT36672X127872R100
 10
-6.1954
 20
-14.1988
 30
0.0000
 41
1.0000
 42
1.0000
 43
1.0000
 50
0.0000
  0
INSERT
  8
31
  2
RECT
 10
-7.4454
 20
-12.2238
 30
0.0000
 41
2.0492
 42
2.0492
 43
1.0000
 50
180.0000
  0
INSERT
  8
31
  2
RECT
 10
6.8336
 20
-14.2071
 30
0.0000
 41
1.3000
 42
1.3000
 43
1.0000
 50
90.0000
  0
INSERT
  8
31
  2
RECT
 10
6.8336
 20
-10.9071
 30
0.0000
 41
1.3000
 42
1.3000
 43
1.0000
 50
90.0000
  0
INSERT
  8
31
  2
RECT
 10
6.8336
 20
-12.5571
 30
0.0000
 41
1.2000
 42
1.3000
 43
1.0000
 50
90.0000
  0
INSERT
  8
31
  2
RECT
 10
10.1336
 20
-14.2071
 30
0.0000
 41
1.3000
 42
1.3000
 43
1.0000
 50
90.0000
  0
INSERT
  8
31
  2
RECT
 10
10.1336
 20
-10.9071
 30
0.0000
 41
1.3000
 42
1.3000
 43
1.0000
 50
90.0000
  0
INSERT
  8
31
  2
RECT
 10
10.1336
 20
-12.5571
 30
0.0000
 41
1.2000
 42
1.3000
 43
1.0000
 50
90.0000
  0
INSERT
  8
31
  2
RECT
 10
8.4836
 20
-12.5571
 30
0.0000
 41
1.2000
 42
1.2000
 43
1.0000
 50
90.0000
  0
INSERT
  8
31
  2
RECT
 10
8.4836
 20
-10.9071
 30
0.0000
 41
1.3000
 42
1.2000
 43
1.0000
 50
90.0000
  0
INSERT
  8
31
  2
RECT
 10
8.4836
 20
-14.2071
 30
0.0000
 41
1.3000
 42
1.2000
 43
1.0000
 50
90.0000
  0
INSERT
  8
31
  2
RECT119872X24384R100
 10
6.2836
 20
-15.5571
 30
0.0000
 41
1.0000
 42
1.0000
 43
1.0000
 50
90.0000
  0
INSERT
  8
31
  2
RECT119872X24384R100
 10
6.6836
 20
-15.5571
 30
0.0000
 41
1.0000
 42
1.0000
 43
1.0000
 50
90.0000
  0
INSERT
  8
31
  2
RECT119872X24384R100
 10
7.0836
 20
-15.5571
 30
0.0000
 41
1.0000
 42
1.0000
 43
1.0000
 50
90.0000
  0
INSERT
  8
31
  2
RECT119872X24384R100
 10
7.4836
 20
-15.5571
 30
0.0000
 41
1.0000
 42
1.0000
 43
1.0000
 50
90.0000
  0
INSERT
  8
31
  2
RECT119872X24384R100
 10
7.8836
 20
-15.5571
 30
0.0000
 41
1.0000
 42
1.0000
 43
1.0000
 50
90.0000
  0
INSERT
  8
31
  2
RECT119872X24384R100
 10
8.2836
 20
-15.5571
 30
0.0000
 41
1.0000
 42
1.0000
 43
1.0000
 50
90.0000
  0
INSERT
  8
31
  2
RECT119872X24384R100
 10
8.6836
 20
-15.5571
 30
0.0000
 41
1.0000
 42
1.0000
 43
1.0000
 50
90.0000
  0
INSERT
  8
31
  2
RECT119872X24384R100
 10
9.0836
 20
-15.5571
 30
0.0000
 41
1.0000
 42
1.0000
 43
1.0000
 50
90.0000
  0
INSERT
  8
31
  2
RECT119872X24384R100
 10
9.4836
 20
-15.5571
 30
0.0000
 41
1.0000
 42
1.0000
 43
1.0000
 50
90.0000
  0
INSERT
  8
31
  2
RECT119872X24384R100
 10
9.8836
 20
-15.5571
 30
0.0000
 41
1.0000
 42
1.0000
 43
1.0000
 50
90.0000
  0
INSERT
  8
31
  2
RECT119872X24384R100
 10
10.2836
 20
-15.5571
 30
0.0000
 41
1.0000
 42
1.0000
 43
1.0000
 50
90.0000
  0
INSERT
  8
31
  2
RECT119872X24384R100
 10
10.6836
 20
-15.5571
 30
0.0000
 41
1.0000
 42
1.0000
 43
1.0000
 50
90.0000
  0
INSERT
  8
31
  2
RECT119872X24384R100
 10
11.4836
 20
-14.7571
 30
0.0000
 41
1.0000
 42
1.0000
 43
1.0000
 50
180.0000
  0
INSERT
  8
31
  2
RECT119872X24384R100
 10
11.4836
 20
-14.3571
 30
0.0000
 41
1.0000
 42
1.0000
 43
1.0000
 50
180.0000
  0
INSERT
  8
31
  2
RECT119872X24384R100
 10
11.4836
 20
-13.9571
 30
0.0000
 41
1.0000
 42
1.0000
 43
1.0000
 50
180.0000
  0
INSERT
  8
31
  2
RECT119872X24384R100
 10
11.4836
 20
-13.5571
 30
0.0000
 41
1.0000
 42
1.0000
 43
1.0000
 50
180.0000
  0
INSERT
  8
31
  2
RECT119872X24384R100
 10
11.4836
 20
-13.1571
 30
0.0000
 41
1.0000
 42
1.0000
 43
1.0000
 50
180.0000
  0
INSERT
  8
31
  2
RECT119872X24384R100
 10
11.4836
 20
-12.7571
 30
0.0000
 41
1.0000
 42
1.0000
 43
1.0000
 50
180.0000
  0
INSERT
  8
31
  2
RECT119872X24384R100
 10
11.4836
 20
-12.3571
 30
0.0000
 41
1.0000
 42
1.0000
 43
1.0000
 50
180.0000
  0
INSERT
  8
31
  2
RECT119872X24384R100
 10
11.4836
 20
-11.9571
 30
0.0000
 41
1.0000
 42
1.0000
 43
1.0000
 50
180.0000
  0
INSERT
  8
31
  2
RECT119872X24384R100
 10
11.4836
 20
-11.5571
 30
0.0000
 41
1.0000
 42
1.0000
 43
1.0000
 50
180.0000
  0
INSERT
  8
31
  2
RECT119872X24384R100
 10
11.4836
 20
-11.1571
 30
0.0000
 41
1.0000
 42
1.0000
 43
1.0000
 50
180.0000
  0
INSERT
  8
31
  2
RECT119872X24384R100
 10
11.4836
 20
-10.7571
 30
0.0000
 41
1.0000
 42
1.0000
 43
1.0000
 50
180.0000
  0
INSERT
  8
31
  2
RECT119872X24384R100
 10
11.4836
 20
-10.3571
 30
0.0000
 41
1.0000
 42
1.0000
 43
1.0000
 50
180.0000
  0
INSERT
  8
31
  2
RECT119872X24384R100
 10
10.6836
 20
-9.5571
 30
0.0000
 41
1.0000
 42
1.0000
 43
1.0000
 50
90.0000
  0
INSERT
  8
31
  2
RECT119872X24384R100
 10
10.2836
 20
-9.5571
 30
0.0000
 41
1.0000
 42
1.0000
 43
1.0000
 50
90.0000
  0
INSERT
  8
31
  2
RECT119872X24384R100
 10
9.8836
 20
-9.5571
 30
0.0000
 41
1.0000
 42
1.0000
 43
1.0000
 50
90.0000
  0
INSERT
  8
31
  2
RECT119872X24384R100
 10
9.4836
 20
-9.5571
 30
0.0000
 41
1.0000
 42
1.0000
 43
1.0000
 50
90.0000
  0
INSERT
  8
31
  2
RECT119872X24384R100
 10
9.0836
 20
-9.5571
 30
0.0000
 41
1.0000
 42
1.0000
 43
1.0000
 50
90.0000
  0
INSERT
  8
31
  2
RECT119872X24384R100
 10
8.6836
 20
-9.5571
 30
0.0000
 41
1.0000
 42
1.0000
 43
1.0000
 50
90.0000
  0
INSERT
  8
31
  2
RECT119872X24384R100
 10
8.2836
 20
-9.5571
 30
0.0000
 41
1.0000
 42
1.0000
 43
1.0000
 50
90.0000
  0
INSERT
  8
31
  2
RECT119872X24384R100
 10
7.8836
 20
-9.5571
 30
0.0000
 41
1.0000
 42
1.0000
 43
1.0000
 50
90.0000
  0
INSERT
  8
31
  2
RECT119872X24384R100
 10
7.4836
 20
-9.5571
 30
0.0000
 41
1.0000
 42
1.0000
 43
1.0000
 50
90.0000
  0
INSERT
  8
31
  2
RECT119872X24384R100
 10
7.0836
 20
-9.5571
 30
0.0000
 41
1.0000
 42
1.0000
 43
1.0000
 50
90.0000
  0
INSERT
  8
31
  2
RECT119872X24384R100
 10
6.6836
 20
-9.5571
 30
0.0000
 41
1.0000
 42
1.0000
 43
1.0000
 50
90.0000
  0
INSERT
  8
31
  2
RECT119872X24384R100
 10
6.2836
 20
-9.5571
 30
0.0000
 41
1.0000
 42
1.0000
 43
1.0000
 50
90.0000
  0
INSERT
  8
31
  2
RECT119872X24384R100
 10
5.4836
 20
-10.3571
 30
0.0000
 41
1.0000
 42
1.0000
 43
1.0000
 50
180.0000
  0
INSERT
  8
31
  2
RECT119872X24384R100
 10
5.4836
 20
-10.7571
 30
0.0000
 41
1.0000
 42
1.0000
 43
1.0000
 50
180.0000
  0
INSERT
  8
31
  2
RECT119872X24384R100
 10
5.4836
 20
-11.1571
 30
0.0000
 41
1.0000
 42
1.0000
 43
1.0000
 50
180.0000
  0
INSERT
  8
31
  2
RECT119872X24384R100
 10
5.4836
 20
-11.5571
 30
0.0000
 41
1.0000
 42
1.0000
 43
1.0000
 50
180.0000
  0
INSERT
  8
31
  2
RECT119872X24384R100
 10
5.4836
 20
-11.9571
 30
0.0000
 41
1.0000
 42
1.0000
 43
1.0000
 50
180.0000
  0
INSERT
  8
31
  2
RECT119872X24384R100
 10
5.4836
 20
-12.3571
 30
0.0000
 41
1.0000
 42
1.0000
 43
1.0000
 50
180.0000
  0
INSERT
  8
31
  2
RECT119872X24384R100
 10
5.4836
 20
-12.7571
 30
0.0000
 41
1.0000
 42
1.0000
 43
1.0000
 50
180.0000
  0
INSERT
  8
31
  2
RECT119872X24384R100
 10
5.4836
 20
-13.1571
 30
0.0000
 41
1.0000
 42
1.0000
 43
1.0000
 50
180.0000
  0
INSERT
  8
31
  2
RECT119872X24384R100
 10
5.4836
 20
-13.5571
 30
0.0000
 41
1.0000
 42
1.0000
 43
1.0000
 50
180.0000
  0
INSERT
  8
31
  2
RECT119872X24384R100
 10
5.4836
 20
-13.9571
 30
0.0000
 41
1.0000
 42
1.0000
 43
1.0000
 50
180.0000
  0
INSERT
  8
31
  2
RECT119872X24384R100
 10
5.4836
 20
-14.3571
 30
0.0000
 41
1.0000
 42
1.0000
 43
1.0000
 50
180.0000
  0
INSERT
  8
31
  2
RECT119872X24384R100
 10
5.4836
 20
-14.7571
 30
0.0000
 41
1.0000
 42
1.0000
 43
1.0000
 50
180.0000
  0
INSERT
  8
31
  2
RECT
 10
-10.1704
 20
-1.1582
 30
0.0000
 41
0.4992
 42
0.2992
 43
1.0000
 50
270.0000
  0
INSERT
  8
31
  2
RECT
 10
-10.8204
 20
-1.1582
 30
0.0000
 41
0.4992
 42
0.2992
 43
1.0000
 50
270.0000
  0
INSERT
  8
31
  2
RECT
 10
-11.4704
 20
-1.1582
 30
0.0000
 41
0.4992
 42
0.2992
 43
1.0000
 50
270.0000
  0
INSERT
  8
31
  2
RECT
 10
-11.4704
 20
-3.0582
 30
0.0000
 41
0.4992
 42
0.2992
 43
1.0000
 50
270.0000
  0
INSERT
  8
31
  2
RECT
 10
-10.1704
 20
-3.0582
 30
0.0000
 41
0.4992
 42
0.2992
 43
1.0000
 50
270.0000
  0
INSERT
  8
31
  2
RECT
 10
-3.6738
 20
-1.7350
 30
0.0000
 41
0.7492
 42
0.3492
 43
1.0000
 50
90.0000
  0
INSERT
  8
31
  2
RECT
 10
-3.0238
 20
-1.7350
 30
0.0000
 41
0.7492
 42
0.3492
 43
1.0000
 50
90.0000
  0
INSERT
  8
31
  2
RECT
 10
-2.3738
 20
-1.7350
 30
0.0000
 41
0.7492
 42
0.3492
 43
1.0000
 50
90.0000
  0
INSERT
  8
31
  2
RECT
 10
-1.7238
 20
-1.7350
 30
0.0000
 41
0.7492
 42
0.3492
 43
1.0000
 50
90.0000
  0
INSERT
  8
31
  2
RECT
 10
-1.7238
 20
0.4650
 30
0.0000
 41
0.7492
 42
0.3492
 43
1.0000
 50
270.0000
  0
INSERT
  8
31
  2
RECT
 10
-2.3738
 20
0.4650
 30
0.0000
 41
0.7492
 42
0.3492
 43
1.0000
 50
270.0000
  0
INSERT
  8
31
  2
RECT
 10
-3.0238
 20
0.4650
 30
0.0000
 41
0.7492
 42
0.3492
 43
1.0000
 50
270.0000
  0
INSERT
  8
31
  2
RECT
 10
-3.6738
 20
0.4650
 30
0.0000
 41
0.7492
 42
0.3492
 43
1.0000
 50
270.0000
  0
INSERT
  8
31
  2
RECT
 10
3.2346
 20
-8.4980
 30
0.0000
 41
0.8492
 42
0.7492
 43
1.0000
 50
270.0000
  0
INSERT
  8
31
  2
RECT
 10
3.2346
 20
-9.8980
 30
0.0000
 41
0.8492
 42
0.7492
 43
1.0000
 50
270.0000
  0
INSERT
  8
31
  2
RECT
 10
4.3346
 20
-9.8980
 30
0.0000
 41
0.8492
 42
0.7492
 43
1.0000
 50
270.0000
  0
INSERT
  8
31
  2
RECT
 10
4.3346
 20
-8.4980
 30
0.0000
 41
0.8492
 42
0.7492
 43
1.0000
 50
270.0000
  0
INSERT
  8
31
  2
RECT
 10
-5.2714
 20
-16.1163
 30
0.0000
 41
1.0492
 42
1.4492
 43
1.0000
 50
180.0000
  0
INSERT
  8
31
  2
RECT
 10
-6.9714
 20
-16.1163
 30
0.0000
 41
1.0492
 42
1.4492
 43
1.0000
 50
180.0000
  0
INSERT
  8
31
  2
RECT
 10
11.7838
 20
6.1976
 30
0.0000
 41
0.7492
 42
2.3492
 43
1.0000
 50
0.0000
  0
INSERT
  8
31
  2
RECT
 10
8.3838
 20
6.1976
 30
0.0000
 41
0.7492
 42
2.3492
 43
1.0000
 50
0.0000
  0
ENDSEC
  0
EOF
