  0
SECTION
  2
HEADER
  9
$ACADVER
  1
AC1009
  9
$MEASUREMENT
 70
     1
  0
ENDSEC
  0
SECTION
  2
ENTITIES
  0
LWPOLYLINE
  8
0
 62
7
 90
5
 70
1
 10
-11.226750
 20
-15.557500
 10
-11.226750
 20
-15.243125
 10
-12.109500
 20
-15.243125
 10
-12.109500
 20
-15.871875
 10
-11.226750
 20
-15.871875
  0
LWPOLYLINE
  8
0
 62
7
 90
5
 70
1
 10
-11.226750
 20
-14.287500
 10
-11.226750
 20
-13.973125
 10
-12.109500
 20
-13.973125
 10
-12.109500
 20
-14.601875
 10
-11.226750
 20
-14.601875
  0
LWPOLYLINE
  8
0
 62
7
 90
5
 70
1
 10
-11.226750
 20
-13.017500
 10
-11.226750
 20
-12.703125
 10
-12.109500
 20
-12.703125
 10
-12.109500
 20
-13.331875
 10
-11.226750
 20
-13.331875
  0
LWPOLYLINE
  8
0
 62
7
 90
5
 70
1
 10
-11.226750
 20
-11.747500
 10
-11.226750
 20
-11.433125
 10
-12.109500
 20
-11.433125
 10
-12.109500
 20
-12.061875
 10
-11.226750
 20
-12.061875
  0
LWPOLYLINE
  8
0
 62
7
 90
5
 70
1
 10
-11.226750
 20
-10.477500
 10
-11.226750
 20
-10.163125
 10
-12.109500
 20
-10.163125
 10
-12.109500
 20
-10.791875
 10
-11.226750
 20
-10.791875
  0
LWPOLYLINE
  8
0
 62
7
 90
5
 70
1
 10
-11.226750
 20
-9.207500
 10
-11.226750
 20
-8.893125
 10
-12.109500
 20
-8.893125
 10
-12.109500
 20
-9.521875
 10
-11.226750
 20
-9.521875
  0
LWPOLYLINE
  8
0
 62
7
 90
5
 70
1
 10
-11.226750
 20
-7.937500
 10
-11.226750
 20
-7.623125
 10
-12.109500
 20
-7.623125
 10
-12.109500
 20
-8.251875
 10
-11.226750
 20
-8.251875
  0
LWPOLYLINE
  8
0
 62
7
 90
5
 70
1
 10
-11.226750
 20
-6.667500
 10
-11.226750
 20
-6.353125
 10
-12.109500
 20
-6.353125
 10
-12.109500
 20
-6.981875
 10
-11.226750
 20
-6.981875
  0
LWPOLYLINE
  8
0
 62
7
 90
5
 70
1
 10
-11.226750
 20
-5.397500
 10
-11.226750
 20
-5.083125
 10
-12.109500
 20
-5.083125
 10
-12.109500
 20
-5.711875
 10
-11.226750
 20
-5.711875
  0
LWPOLYLINE
  8
0
 62
7
 90
5
 70
1
 10
-11.226750
 20
-4.127500
 10
-11.226750
 20
-3.813125
 10
-12.109500
 20
-3.813125
 10
-12.109500
 20
-4.441875
 10
-11.226750
 20
-4.441875
  0
LWPOLYLINE
  8
0
 62
7
 90
5
 70
1
 10
-11.226750
 20
-2.857500
 10
-11.226750
 20
-2.543125
 10
-12.109500
 20
-2.543125
 10
-12.109500
 20
-3.171875
 10
-11.226750
 20
-3.171875
  0
LWPOLYLINE
  8
0
 62
7
 90
5
 70
1
 10
-11.226750
 20
-1.587500
 10
-11.226750
 20
-1.273125
 10
-12.109500
 20
-1.273125
 10
-12.109500
 20
-1.901875
 10
-11.226750
 20
-1.901875
  0
ENDSEC
  0
EOF
