  0
SECTION
  2
HEADER
  9
$ACADVER
  1
AC1009
  9
$FILLMODE
 70
0
  9
$EXTMIN
 10
-14.3933
 20
-20.4338
 30
0.0000
  9
$EXTMAX
 10
15.7252
 20
9.2456
 30
0.0000
  0
ENDSEC
  0
SECTION
  2
TABLES
  0
TABLE
  2
LTYPE
 70
1
  0
LTYPE
  2
CONTINUOUS
 70
64
  3
Solid line
 72
65
 73
0
 40
0
  0
ENDTAB
  0
TABLE
  2
LAYER
 70
255
  0
LAYER
  2
20
 70
64
 62
7
  6
CONTINUOUS
  0
ENDTAB
  0
ENDSEC
  0
SECTION
  2
BLOCKS
  0
BLOCK
  8
0
  2
RECT
 70
64
 10
0.0000
 20
0.0000
 30
0.0000
  3
RECT
  0
SOLID
  8
0
 10
-0.5000
 20
-0.5000
 30
0.0000
 11
0.5000
 21
-0.5000
 31
0.0000
 12
-0.5000
 22
0.5000
 32
0.0000
 13
0.5000
 23
0.5000
 33
0.0000
  0
ENDBLK
  8
0
  0
BLOCK
  8
0
  2
PIE
 70
64
 10
0.0000
 20
0.0000
 30
0.0000
  3
PIE
  0
CIRCLE
  8
0
 10
0.0000
 20
0.0000
 30
0.0000
 40
0.5000
  0
ENDBLK
  8
0
  0
BLOCK
  8
0
  2
OCTAGONP
 70
64
 10
0.0000
 20
0.0000
 30
0.0000
  3
OCTAGONP
  0
POLYLINE
  8
0
 66
1
 10
0.0000
 20
0.0000
 30
0.0000
 40
0.0000
 41
0.0000
 70
1
  0
VERTEX
  8
0
 10
-0.5000
 20
-0.2071
 30
0.0000
  0
VERTEX
  8
0
 10
-0.5000
 20
0.2071
 30
0.0000
  0
VERTEX
  8
0
 10
-0.2071
 20
0.5000
 30
0.0000
  0
VERTEX
  8
0
 10
0.2071
 20
0.5000
 30
0.0000
  0
VERTEX
  8
0
 10
0.5000
 20
0.2071
 30
0.0000
  0
VERTEX
  8
0
 10
0.5000
 20
-0.2071
 30
0.0000
  0
VERTEX
  8
0
 10
0.2071
 20
-0.5000
 30
0.0000
  0
VERTEX
  8
0
 10
-0.2071
 20
-0.5000
 30
0.0000
  0
SEQEND
  8
0
  0
ENDBLK
  8
0
  0
BLOCK
  8
0
  2
SQUAREP
 70
64
 10
0.0000
 20
0.0000
 30
0.0000
  3
SQUAREP
  0
SOLID
  8
0
 10
-0.5000
 20
-0.5000
 30
0.0000
 11
0.5000
 21
-0.5000
 31
0.0000
 12
-0.5000
 22
0.5000
 32
0.0000
 13
0.5000
 23
0.5000
 33
0.0000
  0
ENDBLK
  8
0
  0
BLOCK
  8
0
  2
ROUNDP
 70
64
 10
0.0000
 20
0.0000
 30
0.0000
  3
ROUNDP
  0
CIRCLE
  8
0
 10
0.0000
 20
0.0000
 30
0.0000
 40
0.5000
  0
ENDBLK
  8
0
  0
BLOCK
  8
0
  2
ANNULUSP
 70
64
 10
0.0000
 20
0.0000
 30
0.0000
  3
ANNULUSP
  0
CIRCLE
  8
0
 10
0.0000
 20
0.0000
 30
0.0000
 40
0.5000
  0
ENDBLK
  8
0
  0
BLOCK
  8
0
  2
THERMALP
 70
64
 10
0.0000
 20
0.0000
 30
0.0000
  3
THERMALP
  0
LINE
  8
0
 10
-0.2379
 20
0.4500
 30
0.0000
 11
0.2379
 21
0.4500
 31
0.0000
  0
LINE
  8
0
 10
0.4500
 20
0.2379
 30
0.0000
 11
0.4500
 21
-0.2379
 31
0.0000
  0
LINE
  8
0
 10
0.2379
 20
-0.4500
 30
0.0000
 11
-0.2379
 21
-0.4500
 31
0.0000
  0
LINE
  8
0
 10
-0.4500
 20
-0.2379
 30
0.0000
 11
-0.4500
 21
0.2379
 31
0.0000
  0
ENDBLK
  8
0
  0
BLOCK
  8
0
  2
OCTAGONV
 70
64
 10
0.0000
 20
0.0000
 30
0.0000
  3
OCTAGONV
  0
POLYLINE
  8
0
 66
1
 10
0.0000
 20
0.0000
 30
0.0000
 40
0.0000
 41
0.0000
 70
1
  0
VERTEX
  8
0
 10
-0.5000
 20
-0.2071
 30
0.0000
  0
VERTEX
  8
0
 10
-0.5000
 20
0.2071
 30
0.0000
  0
VERTEX
  8
0
 10
-0.2071
 20
0.5000
 30
0.0000
  0
VERTEX
  8
0
 10
0.2071
 20
0.5000
 30
0.0000
  0
VERTEX
  8
0
 10
0.5000
 20
0.2071
 30
0.0000
  0
VERTEX
  8
0
 10
0.5000
 20
-0.2071
 30
0.0000
  0
VERTEX
  8
0
 10
0.2071
 20
-0.5000
 30
0.0000
  0
VERTEX
  8
0
 10
-0.2071
 20
-0.5000
 30
0.0000
  0
SEQEND
  8
0
  0
ENDBLK
  8
0
  0
BLOCK
  8
0
  2
SQUAREV
 70
64
 10
0.0000
 20
0.0000
 30
0.0000
  3
SQUAREV
  0
SOLID
  8
0
 10
-0.5000
 20
-0.5000
 30
0.0000
 11
0.5000
 21
-0.5000
 31
0.0000
 12
-0.5000
 22
0.5000
 32
0.0000
 13
0.5000
 23
0.5000
 33
0.0000
  0
ENDBLK
  8
0
  0
BLOCK
  8
0
  2
ROUNDV
 70
64
 10
0.0000
 20
0.0000
 30
0.0000
  3
ROUNDV
  0
CIRCLE
  8
0
 10
0.0000
 20
0.0000
 30
0.0000
 40
0.5000
  0
ENDBLK
  8
0
  0
BLOCK
  8
0
  2
ANNULUSV
 70
64
 10
0.0000
 20
0.0000
 30
0.0000
  3
ANNULUSV
  0
CIRCLE
  8
0
 10
0.0000
 20
0.0000
 30
0.0000
 40
0.5000
  0
ENDBLK
  8
0
  0
BLOCK
  8
0
  2
THERMALV
 70
64
 10
0.0000
 20
0.0000
 30
0.0000
  3
THERMALV
  0
LINE
  8
0
 10
-0.2379
 20
0.4500
 30
0.0000
 11
0.2379
 21
0.4500
 31
0.0000
  0
LINE
  8
0
 10
0.4500
 20
0.2379
 30
0.0000
 11
0.4500
 21
-0.2379
 31
0.0000
  0
LINE
  8
0
 10
0.2379
 20
-0.4500
 30
0.0000
 11
-0.2379
 21
-0.4500
 31
0.0000
  0
LINE
  8
0
 10
-0.4500
 20
-0.2379
 30
0.0000
 11
-0.4500
 21
0.2379
 31
0.0000
  0
ENDBLK
  8
0
  0
ENDSEC
  0
SECTION
  2
ENTITIES
  0
CIRCLE
  8
20
 10
-6.3500
 20
-6.4262
 30
0.0000
 40
0.5143
  0
ARC
  8
20
 10
-12.0650
 20
-16.7640
 30
0.0000
 40
0.6350
 50
180.0000
 51
270.0000
  0
ARC
  8
20
 10
-12.0650
 20
7.3660
 30
0.0000
 40
0.6350
 50
90.0000
 51
180.0000
  0
LINE
  8
20
 10
-12.0650
 20
8.0010
 30
0.0000
 11
12.0650
 21
8.0010
 31
0.0000
  0
LINE
  8
20
 10
-7.8740
 20
3.5560
 30
0.0000
 11
-7.8740
 21
-3.5560
 31
0.0000
  0
LINE
  8
20
 10
-7.8740
 20
-3.5560
 30
0.0000
 11
-5.2705
 21
-3.5560
 31
0.0000
  0
LINE
  8
20
 10
-5.2705
 20
-3.5560
 30
0.0000
 11
-5.2705
 21
3.5560
 31
0.0000
  0
LINE
  8
20
 10
-5.2705
 20
3.5560
 30
0.0000
 11
-7.8740
 21
3.5560
 31
0.0000
  0
LINE
  8
20
 10
7.8740
 20
4.4450
 30
0.0000
 11
7.8740
 21
-4.4450
 31
0.0000
  0
LINE
  8
20
 10
7.8740
 20
-4.4450
 30
0.0000
 11
5.2705
 21
-4.4450
 31
0.0000
  0
LINE
  8
20
 10
5.2705
 20
-4.4450
 30
0.0000
 11
5.2705
 21
4.4450
 31
0.0000
  0
LINE
  8
20
 10
5.2705
 20
4.4450
 30
0.0000
 11
7.8740
 21
4.4450
 31
0.0000
  0
LINE
  8
20
 10
-12.0650
 20
-17.3990
 30
0.0000
 11
12.0650
 21
-17.3990
 31
0.0000
  0
LINE
  8
20
 10
-2.5654
 20
-14.5796
 30
0.0000
 11
2.5654
 21
-14.5796
 31
0.0000
  0
ARC
  8
20
 10
2.5654
 20
-14.4526
 30
0.0000
 40
0.1270
 50
270.0000
 51
0.0000
  0
LINE
  8
20
 10
2.6924
 20
-14.4526
 30
0.0000
 11
2.6924
 21
-11.8872
 31
0.0000
  0
ARC
  8
20
 10
0.0000
 20
-11.8872
 30
0.0000
 40
2.6924
 50
0.0000
 51
90.0000
  0
ARC
  8
20
 10
0.0000
 20
-11.8872
 30
0.0000
 40
2.6924
 50
90.0000
 51
180.0000
  0
LINE
  8
20
 10
-2.6924
 20
-11.8872
 30
0.0000
 11
-2.6924
 21
-14.4526
 31
0.0000
  0
ARC
  8
20
 10
-2.5654
 20
-14.4526
 30
0.0000
 40
0.1270
 50
180.0000
 51
270.0000
  0
ARC
  8
20
 10
12.0650
 20
-16.7640
 30
0.0000
 40
0.6350
 50
270.0000
 51
0.0000
  0
LINE
  8
20
 10
12.7000
 20
-16.7640
 30
0.0000
 11
12.7000
 21
7.3660
 31
0.0000
  0
ARC
  8
20
 10
12.0650
 20
7.3660
 30
0.0000
 40
0.6350
 50
0.0000
 51
90.0000
  0
LINE
  8
20
 10
-7.8740
 20
3.3020
 30
0.0000
 11
-6.8580
 21
3.3020
 31
0.0000
  0
LINE
  8
20
 10
-6.8580
 20
3.3020
 30
0.0000
 11
-6.7310
 21
3.3020
 31
0.0000
  0
LINE
  8
20
 10
-6.7310
 20
3.3020
 30
0.0000
 11
-6.7310
 21
-3.3020
 31
0.0000
  0
LINE
  8
20
 10
-6.7310
 20
-3.3020
 30
0.0000
 11
-6.8580
 21
-3.3020
 31
0.0000
  0
LINE
  8
20
 10
-6.8580
 20
-3.3020
 30
0.0000
 11
-7.8740
 21
-3.3020
 31
0.0000
  0
LINE
  8
20
 10
7.8740
 20
3.3020
 30
0.0000
 11
6.8580
 21
3.3020
 31
0.0000
  0
LINE
  8
20
 10
6.8580
 20
3.3020
 30
0.0000
 11
6.7310
 21
3.3020
 31
0.0000
  0
LINE
  8
20
 10
6.7310
 20
3.3020
 30
0.0000
 11
6.7310
 21
-3.3020
 31
0.0000
  0
LINE
  8
20
 10
6.7310
 20
-3.3020
 30
0.0000
 11
6.8580
 21
-3.3020
 31
0.0000
  0
LINE
  8
20
 10
6.8580
 20
-3.3020
 30
0.0000
 11
7.8740
 21
-3.3020
 31
0.0000
  0
LINE
  8
20
 10
6.8580
 20
3.3020
 30
0.0000
 11
6.8580
 21
-3.3020
 31
0.0000
  0
LINE
  8
20
 10
-6.8580
 20
-3.3020
 30
0.0000
 11
-6.8580
 21
3.3020
 31
0.0000
  0
LINE
  8
20
 10
-12.7000
 20
7.3660
 30
0.0000
 11
-12.7000
 21
-16.7640
 31
0.0000
  0
CIRCLE
  8
20
 10
6.3500
 20
-6.4262
 30
0.0000
 40
0.5080
  0
CIRCLE
  8
20
 10
1.2700
 20
-5.4102
 30
0.0000
 40
0.5080
  0
CIRCLE
  8
20
 10
1.2700
 20
-7.4422
 30
0.0000
 40
0.5080
  0
ENDSEC
  0
EOF
