  0
SECTION
  2
HEADER
  9
$ACADVER
  1
AC1009
  9
$MEASUREMENT
 70
     1
  0
ENDSEC
  0
SECTION
  2
ENTITIES
  0
LWPOLYLINE
  8
0
 62
7
 90
5
 70
1
 10
8.266875
 20
-8.605750
 10
8.160000
 20
-8.605750
 10
8.160000
 20
-8.819500
 10
8.373750
 20
-8.819500
 10
8.373750
 20
-8.605750
  0
LWPOLYLINE
  8
0
 62
7
 90
5
 70
1
 10
7.766875
 20
-8.605750
 10
7.660000
 20
-8.605750
 10
7.660000
 20
-8.819500
 10
7.873750
 20
-8.819500
 10
7.873750
 20
-8.605750
  0
LWPOLYLINE
  8
0
 62
7
 90
5
 70
1
 10
7.766875
 20
-7.999750
 10
7.660000
 20
-7.999750
 10
7.660000
 20
-8.213500
 10
7.873750
 20
-8.213500
 10
7.873750
 20
-7.999750
  0
LWPOLYLINE
  8
0
 62
7
 90
5
 70
1
 10
8.016875
 20
-7.531750
 10
7.910000
 20
-7.531750
 10
7.910000
 20
-7.745500
 10
8.123750
 20
-7.745500
 10
8.123750
 20
-7.531750
  0
LWPOLYLINE
  8
0
 62
7
 90
5
 70
1
 10
8.266875
 20
-7.999750
 10
8.160000
 20
-7.999750
 10
8.160000
 20
-8.213500
 10
8.373750
 20
-8.213500
 10
8.373750
 20
-7.999750
  0
LWPOLYLINE
  8
0
 62
7
 90
5
 70
1
 10
-5.511800
 20
6.127500
 10
-4.814925
 20
6.127500
 10
-4.814925
 20
6.921250
 10
-6.208675
 20
6.921250
 10
-6.208675
 20
6.127500
  0
LWPOLYLINE
  8
0
 62
7
 90
5
 70
1
 10
-5.511800
 20
4.667500
 10
-4.814925
 20
4.667500
 10
-4.814925
 20
5.461250
 10
-6.208675
 20
5.461250
 10
-6.208675
 20
4.667500
  0
LWPOLYLINE
  8
0
 62
7
 90
5
 70
1
 10
-3.413125
 20
-6.444375
 10
-3.760000
 20
-6.444375
 10
-3.760000
 20
-7.038125
 10
-3.066250
 20
-7.038125
 10
-3.066250
 20
-6.444375
  0
LWPOLYLINE
  8
0
 62
7
 90
5
 70
1
 10
-3.413125
 20
-5.344375
 10
-3.760000
 20
-5.344375
 10
-3.760000
 20
-5.938125
 10
-3.066250
 20
-5.938125
 10
-3.066250
 20
-5.344375
  0
LWPOLYLINE
  8
0
 62
7
 90
5
 70
1
 10
-6.921500
 20
6.569375
 10
-6.424625
 20
6.569375
 10
-6.424625
 20
7.363125
 10
-7.418375
 20
7.363125
 10
-7.418375
 20
6.569375
  0
LWPOLYLINE
  8
0
 62
7
 90
5
 70
1
 10
-6.921500
 20
5.019375
 10
-6.424625
 20
5.019375
 10
-6.424625
 20
5.813125
 10
-7.418375
 20
5.813125
 10
-7.418375
 20
5.019375
  0
LWPOLYLINE
  8
0
 62
7
 90
5
 70
1
 10
-3.732925
 20
5.918200
 10
-3.732925
 20
6.265075
 10
-4.326675
 20
6.265075
 10
-4.326675
 20
5.571325
 10
-3.732925
 20
5.571325
  0
LWPOLYLINE
  8
0
 62
7
 90
5
 70
1
 10
-2.632925
 20
5.918200
 10
-2.632925
 20
6.265075
 10
-3.226675
 20
6.265075
 10
-3.226675
 20
5.571325
 10
-2.632925
 20
5.571325
  0
LWPOLYLINE
  8
0
 62
7
 90
5
 70
1
 10
4.156375
 20
4.464050
 10
4.156375
 20
3.967175
 10
4.650125
 20
3.967175
 10
4.650125
 20
4.960925
 10
4.156375
 20
4.960925
  0
LWPOLYLINE
  8
0
 62
7
 90
5
 70
1
 10
2.905875
 20
4.464050
 10
2.905875
 20
3.967175
 10
3.399625
 20
3.967175
 10
3.399625
 20
4.960925
 10
2.905875
 20
4.960925
  0
LWPOLYLINE
  8
0
 62
7
 90
5
 70
1
 10
-8.026400
 20
-16.239250
 10
-8.373275
 20
-16.239250
 10
-8.373275
 20
-16.833000
 10
-7.679525
 20
-16.833000
 10
-7.679525
 20
-16.239250
  0
LWPOLYLINE
  8
0
 62
7
 90
5
 70
1
 10
-8.026400
 20
-15.139250
 10
-8.373275
 20
-15.139250
 10
-8.373275
 20
-15.733000
 10
-7.679525
 20
-15.733000
 10
-7.679525
 20
-15.139250
  0
LWPOLYLINE
  8
0
 62
7
 90
5
 70
1
 10
-3.730625
 20
4.539375
 10
-3.383750
 20
4.539375
 10
-3.383750
 20
5.133125
 10
-4.077500
 20
5.133125
 10
-4.077500
 20
4.539375
  0
LWPOLYLINE
  8
0
 62
7
 90
5
 70
1
 10
-3.730625
 20
3.439375
 10
-3.383750
 20
3.439375
 10
-3.383750
 20
4.033125
 10
-4.077500
 20
4.033125
 10
-4.077500
 20
3.439375
  0
LWPOLYLINE
  8
0
 62
7
 90
5
 70
1
 10
-2.619375
 20
4.539375
 10
-2.272500
 20
4.539375
 10
-2.272500
 20
5.133125
 10
-2.966250
 20
5.133125
 10
-2.966250
 20
4.539375
  0
LWPOLYLINE
  8
0
 62
7
 90
5
 70
1
 10
-2.619375
 20
3.439375
 10
-2.272500
 20
3.439375
 10
-2.272500
 20
4.033125
 10
-2.966250
 20
4.033125
 10
-2.966250
 20
3.439375
  0
LWPOLYLINE
  8
0
 62
7
 90
5
 70
1
 10
0.481725
 20
6.223000
 10
0.481725
 20
5.876125
 10
1.075475
 20
5.876125
 10
1.075475
 20
6.569875
 10
0.481725
 20
6.569875
  0
LWPOLYLINE
  8
0
 62
7
 90
5
 70
1
 10
-0.618275
 20
6.223000
 10
-0.618275
 20
5.876125
 10
-0.024525
 20
5.876125
 10
-0.024525
 20
6.569875
 10
-0.618275
 20
6.569875
  0
LWPOLYLINE
  8
0
 62
7
 90
5
 70
1
 10
3.784300
 20
6.969125
 10
3.784300
 20
7.466000
 10
2.990550
 20
7.466000
 10
2.990550
 20
6.472250
 10
3.784300
 20
6.472250
  0
LWPOLYLINE
  8
0
 62
7
 90
5
 70
1
 10
5.334300
 20
6.969125
 10
5.334300
 20
7.466000
 10
4.540550
 20
7.466000
 10
4.540550
 20
6.472250
 10
5.334300
 20
6.472250
  0
LWPOLYLINE
  8
0
 62
7
 90
5
 70
1
 10
2.857500
 20
-16.280525
 10
2.510625
 20
-16.280525
 10
2.510625
 20
-16.874275
 10
3.204375
 20
-16.874275
 10
3.204375
 20
-16.280525
  0
LWPOLYLINE
  8
0
 62
7
 90
5
 70
1
 10
2.857500
 20
-15.180525
 10
2.510625
 20
-15.180525
 10
2.510625
 20
-15.774275
 10
3.204375
 20
-15.774275
 10
3.204375
 20
-15.180525
  0
LWPOLYLINE
  8
0
 62
7
 90
5
 70
1
 10
6.826250
 20
-8.296223
 10
6.556325
 20
-8.296223
 10
6.556325
 20
-8.825914
 10
7.096175
 20
-8.825914
 10
7.096175
 20
-8.296223
  0
LWPOLYLINE
  8
0
 62
7
 90
5
 70
1
 10
6.826250
 20
-7.430086
 10
6.556325
 20
-7.430086
 10
6.556325
 20
-7.959777
 10
7.096175
 20
-7.959777
 10
7.096175
 20
-7.430086
  0
LWPOLYLINE
  8
0
 62
7
 90
5
 70
1
 10
-10.071152
 20
-3.759200
 10
-10.071152
 20
-4.029125
 10
-9.541461
 20
-4.029125
 10
-9.541461
 20
-3.489275
 10
-10.071152
 20
-3.489275
  0
LWPOLYLINE
  8
0
 62
7
 90
5
 70
1
 10
-10.937289
 20
-3.759200
 10
-10.937289
 20
-4.029125
 10
-10.407598
 20
-4.029125
 10
-10.407598
 20
-3.489275
 10
-10.937289
 20
-3.489275
  0
LWPOLYLINE
  8
0
 62
7
 90
5
 70
1
 10
-8.890000
 20
-15.733000
 10
-8.543125
 20
-15.733000
 10
-8.543125
 20
-15.139250
 10
-9.236875
 20
-15.139250
 10
-9.236875
 20
-15.733000
  0
LWPOLYLINE
  8
0
 62
7
 90
5
 70
1
 10
-8.890000
 20
-16.833000
 10
-8.543125
 20
-16.833000
 10
-8.543125
 20
-16.239250
 10
-9.236875
 20
-16.239250
 10
-9.236875
 20
-16.833000
  0
LWPOLYLINE
  8
0
 62
7
 90
5
 70
1
 10
-4.772325
 20
-14.579600
 10
-4.772325
 20
-14.082725
 10
-5.566075
 20
-14.082725
 10
-5.566075
 20
-15.076475
 10
-4.772325
 20
-15.076475
  0
LWPOLYLINE
  8
0
 62
7
 90
5
 70
1
 10
-3.222325
 20
-14.579600
 10
-3.222325
 20
-14.082725
 10
-4.016075
 20
-14.082725
 10
-4.016075
 20
-15.076475
 10
-3.222325
 20
-15.076475
  0
LWPOLYLINE
  8
0
 62
7
 90
5
 70
1
 10
-9.740900
 20
-16.236075
 10
-10.087775
 20
-16.236075
 10
-10.087775
 20
-16.829825
 10
-9.394025
 20
-16.829825
 10
-9.394025
 20
-16.236075
  0
LWPOLYLINE
  8
0
 62
7
 90
5
 70
1
 10
-9.740900
 20
-15.136075
 10
-10.087775
 20
-15.136075
 10
-10.087775
 20
-15.729825
 10
-9.394025
 20
-15.729825
 10
-9.394025
 20
-15.136075
  0
LWPOLYLINE
  8
0
 62
7
 90
5
 70
1
 10
4.136973
 20
-12.172950
 10
4.136973
 20
-12.442875
 10
4.666664
 20
-12.442875
 10
4.666664
 20
-11.903025
 10
4.136973
 20
-11.903025
  0
LWPOLYLINE
  8
0
 62
7
 90
5
 70
1
 10
3.270836
 20
-12.172950
 10
3.270836
 20
-12.442875
 10
3.800527
 20
-12.442875
 10
3.800527
 20
-11.903025
 10
3.270836
 20
-11.903025
  0
LWPOLYLINE
  8
0
 62
7
 90
5
 70
1
 10
5.181600
 20
-8.988373
 10
4.911675
 20
-8.988373
 10
4.911675
 20
-9.518064
 10
5.451525
 20
-9.518064
 10
5.451525
 20
-8.988373
  0
LWPOLYLINE
  8
0
 62
7
 90
5
 70
1
 10
5.181600
 20
-8.122236
 10
4.911675
 20
-8.122236
 10
4.911675
 20
-8.651927
 10
5.451525
 20
-8.651927
 10
5.451525
 20
-8.122236
  0
LWPOLYLINE
  8
0
 62
7
 90
5
 70
1
 10
4.136973
 20
-10.775950
 10
4.136973
 20
-11.045875
 10
4.666664
 20
-11.045875
 10
4.666664
 20
-10.506025
 10
4.136973
 20
-10.506025
  0
LWPOLYLINE
  8
0
 62
7
 90
5
 70
1
 10
3.270836
 20
-10.775950
 10
3.270836
 20
-11.045875
 10
3.800527
 20
-11.045875
 10
3.800527
 20
-10.506025
 10
3.270836
 20
-10.506025
  0
LWPOLYLINE
  8
0
 62
7
 90
5
 70
1
 10
4.136973
 20
-11.474450
 10
4.136973
 20
-11.744375
 10
4.666664
 20
-11.744375
 10
4.666664
 20
-11.204525
 10
4.136973
 20
-11.204525
  0
LWPOLYLINE
  8
0
 62
7
 90
5
 70
1
 10
3.270836
 20
-11.474450
 10
3.270836
 20
-11.744375
 10
3.800527
 20
-11.744375
 10
3.800527
 20
-11.204525
 10
3.270836
 20
-11.204525
  0
LWPOLYLINE
  8
0
 62
7
 90
5
 70
1
 10
9.375827
 20
-8.642350
 10
9.375827
 20
-8.372425
 10
8.846136
 20
-8.372425
 10
8.846136
 20
-8.912275
 10
9.375827
 20
-8.912275
  0
LWPOLYLINE
  8
0
 62
7
 90
5
 70
1
 10
10.241964
 20
-8.642350
 10
10.241964
 20
-8.372425
 10
9.712273
 20
-8.372425
 10
9.712273
 20
-8.912275
 10
10.241964
 20
-8.912275
  0
LWPOLYLINE
  8
0
 62
7
 90
5
 70
1
 10
9.375827
 20
-7.931150
 10
9.375827
 20
-7.661225
 10
8.846136
 20
-7.661225
 10
8.846136
 20
-8.201075
 10
9.375827
 20
-8.201075
  0
LWPOLYLINE
  8
0
 62
7
 90
5
 70
1
 10
10.241964
 20
-7.931150
 10
10.241964
 20
-7.661225
 10
9.712273
 20
-7.661225
 10
9.712273
 20
-8.201075
 10
10.241964
 20
-8.201075
  0
LWPOLYLINE
  8
0
 62
7
 90
5
 70
1
 10
9.375827
 20
-7.219950
 10
9.375827
 20
-6.950025
 10
8.846136
 20
-6.950025
 10
8.846136
 20
-7.489875
 10
9.375827
 20
-7.489875
  0
LWPOLYLINE
  8
0
 62
7
 90
5
 70
1
 10
10.241964
 20
-7.219950
 10
10.241964
 20
-6.950025
 10
9.712273
 20
-6.950025
 10
9.712273
 20
-7.489875
 10
10.241964
 20
-7.489875
  0
LWPOLYLINE
  8
0
 62
7
 90
5
 70
1
 10
11.024475
 20
-16.510000
 10
11.024475
 20
-16.163125
 10
10.430725
 20
-16.163125
 10
10.430725
 20
-16.856875
 10
11.024475
 20
-16.856875
  0
LWPOLYLINE
  8
0
 62
7
 90
5
 70
1
 10
12.124475
 20
-16.510000
 10
12.124475
 20
-16.163125
 10
11.530725
 20
-16.163125
 10
11.530725
 20
-16.856875
 10
12.124475
 20
-16.856875
  0
LWPOLYLINE
  8
0
 62
7
 90
5
 70
1
 10
2.108200
 20
-0.075325
 10
1.761325
 20
-0.075325
 10
1.761325
 20
-0.669075
 10
2.455075
 20
-0.669075
 10
2.455075
 20
-0.075325
  0
LWPOLYLINE
  8
0
 62
7
 90
5
 70
1
 10
2.108200
 20
1.024675
 10
1.761325
 20
1.024675
 10
1.761325
 20
0.430925
 10
2.455075
 20
0.430925
 10
2.455075
 20
1.024675
  0
LWPOLYLINE
  8
0
 62
7
 90
5
 70
1
 10
-3.245725
 20
-16.541750
 10
-3.245725
 20
-16.888625
 10
-2.651975
 20
-16.888625
 10
-2.651975
 20
-16.194875
 10
-3.245725
 20
-16.194875
  0
LWPOLYLINE
  8
0
 62
7
 90
5
 70
1
 10
-4.345725
 20
-16.541750
 10
-4.345725
 20
-16.888625
 10
-3.751975
 20
-16.888625
 10
-3.751975
 20
-16.194875
 10
-4.345725
 20
-16.194875
  0
LWPOLYLINE
  8
0
 62
7
 90
5
 70
1
 10
-0.714375
 20
-0.778750
 10
-0.367500
 20
-0.778750
 10
-0.367500
 20
-0.185000
 10
-1.061250
 20
-0.185000
 10
-1.061250
 20
-0.778750
  0
LWPOLYLINE
  8
0
 62
7
 90
5
 70
1
 10
-0.714375
 20
-1.878750
 10
-0.367500
 20
-1.878750
 10
-0.367500
 20
-1.285000
 10
-1.061250
 20
-1.285000
 10
-1.061250
 20
-1.878750
  0
LWPOLYLINE
  8
0
 62
7
 90
5
 70
1
 10
-0.711200
 20
0.585075
 10
-1.058075
 20
0.585075
 10
-1.058075
 20
-0.008675
 10
-0.364325
 20
-0.008675
 10
-0.364325
 20
0.585075
  0
LWPOLYLINE
  8
0
 62
7
 90
5
 70
1
 10
-0.711200
 20
1.685075
 10
-1.058075
 20
1.685075
 10
-1.058075
 20
1.091325
 10
-0.364325
 20
1.091325
 10
-0.364325
 20
1.685075
  0
LWPOLYLINE
  8
0
 62
7
 90
5
 70
1
 10
-8.029675
 20
5.953125
 10
-8.029675
 20
5.556250
 10
-7.585925
 20
5.556250
 10
-7.585925
 20
6.350000
 10
-8.029675
 20
6.350000
  0
LWPOLYLINE
  8
0
 62
7
 90
5
 70
1
 10
-9.279675
 20
5.953125
 10
-9.279675
 20
5.556250
 10
-8.835925
 20
5.556250
 10
-8.835925
 20
6.350000
 10
-9.279675
 20
6.350000
  0
LWPOLYLINE
  8
0
 62
7
 90
5
 70
1
 10
-8.835925
 20
6.985000
 10
-8.835925
 20
7.381875
 10
-9.279675
 20
7.381875
 10
-9.279675
 20
6.588125
 10
-8.835925
 20
6.588125
  0
LWPOLYLINE
  8
0
 62
7
 90
5
 70
1
 10
-7.585925
 20
6.985000
 10
-7.585925
 20
7.381875
 10
-8.029675
 20
7.381875
 10
-8.029675
 20
6.588125
 10
-7.585925
 20
6.588125
  0
LWPOLYLINE
  8
0
 62
7
 90
5
 70
1
 10
1.981200
 20
5.522825
 10
2.728075
 20
5.522825
 10
2.728075
 20
6.816575
 10
1.234325
 20
6.816575
 10
1.234325
 20
5.522825
  0
LWPOLYLINE
  8
0
 62
7
 90
5
 70
1
 10
1.981200
 20
3.622825
 10
2.728075
 20
3.622825
 10
2.728075
 20
4.916575
 10
1.234325
 20
4.916575
 10
1.234325
 20
3.622825
  0
LWPOLYLINE
  8
0
 62
7
 90
5
 70
1
 10
3.492500
 20
-13.166777
 10
3.762425
 20
-13.166777
 10
3.762425
 20
-12.637086
 10
3.222575
 20
-12.637086
 10
3.222575
 20
-13.166777
  0
LWPOLYLINE
  8
0
 62
7
 90
5
 70
1
 10
3.492500
 20
-14.032914
 10
3.762425
 20
-14.032914
 10
3.762425
 20
-13.503223
 10
3.222575
 20
-13.503223
 10
3.222575
 20
-14.032914
  0
LWPOLYLINE
  8
0
 62
7
 90
5
 70
1
 10
3.569333
 20
0.969199
 10
2.828185
 20
1.061514
 10
2.668276
 20
-0.222315
 10
4.150571
 20
-0.406945
 10
4.310481
 20
0.876884
  0
LWPOLYLINE
  8
0
 62
7
 90
5
 70
1
 10
3.804173
 20
2.854627
 10
3.063026
 20
2.946942
 10
2.903116
 20
1.663113
 10
4.385412
 20
1.478483
 10
4.545321
 20
2.762312
  0
LWPOLYLINE
  8
0
 62
7
 90
5
 70
1
 10
4.727575
 20
-15.623875
 10
5.224450
 20
-15.623875
 10
5.224450
 20
-15.130125
 10
4.230700
 20
-15.130125
 10
4.230700
 20
-15.623875
  0
LWPOLYLINE
  8
0
 62
7
 90
5
 70
1
 10
4.727575
 20
-16.874375
 10
5.224450
 20
-16.874375
 10
5.224450
 20
-16.380625
 10
4.230700
 20
-16.380625
 10
4.230700
 20
-16.874375
  0
LWPOLYLINE
  8
0
 62
7
 90
5
 70
1
 10
0.163250
 20
-15.383750
 10
0.163250
 20
-15.211875
 10
-0.680500
 20
-15.211875
 10
-0.680500
 20
-15.555625
 10
0.163250
 20
-15.555625
  0
LWPOLYLINE
  8
0
 62
7
 90
5
 70
1
 10
0.163250
 20
-16.683750
 10
0.163250
 20
-16.511875
 10
-0.680500
 20
-16.511875
 10
-0.680500
 20
-16.855625
 10
0.163250
 20
-16.855625
  0
LWPOLYLINE
  8
0
 62
7
 90
5
 70
1
 10
2.363250
 20
-16.033750
 10
2.363250
 20
-15.861875
 10
1.519500
 20
-15.861875
 10
1.519500
 20
-16.205625
 10
2.363250
 20
-16.205625
  0
LWPOLYLINE
  8
0
 62
7
 90
5
 70
1
 10
1.068125
 20
-2.445625
 10
1.068125
 20
-2.273750
 10
0.224375
 20
-2.273750
 10
0.224375
 20
-2.617500
 10
1.068125
 20
-2.617500
  0
LWPOLYLINE
  8
0
 62
7
 90
5
 70
1
 10
1.068125
 20
-3.745625
 10
1.068125
 20
-3.573750
 10
0.224375
 20
-3.573750
 10
0.224375
 20
-3.917500
 10
1.068125
 20
-3.917500
  0
LWPOLYLINE
  8
0
 62
7
 90
5
 70
1
 10
3.268125
 20
-3.095625
 10
3.268125
 20
-2.923750
 10
2.424375
 20
-2.923750
 10
2.424375
 20
-3.267500
 10
3.268125
 20
-3.267500
  0
LWPOLYLINE
  8
0
 62
7
 90
5
 70
1
 10
1.205625
 20
2.540000
 10
1.205625
 20
2.193125
 10
1.799375
 20
2.193125
 10
1.799375
 20
2.886875
 10
1.205625
 20
2.886875
  0
LWPOLYLINE
  8
0
 62
7
 90
5
 70
1
 10
0.105625
 20
2.540000
 10
0.105625
 20
2.193125
 10
0.699375
 20
2.193125
 10
0.699375
 20
2.886875
 10
0.105625
 20
2.886875
  0
LWPOLYLINE
  8
0
 62
7
 90
5
 70
1
 10
-4.286250
 20
-5.938125
 10
-3.939375
 20
-5.938125
 10
-3.939375
 20
-5.344375
 10
-4.633125
 20
-5.344375
 10
-4.633125
 20
-5.938125
  0
LWPOLYLINE
  8
0
 62
7
 90
5
 70
1
 10
-4.286250
 20
-7.038125
 10
-3.939375
 20
-7.038125
 10
-3.939375
 20
-6.444375
 10
-4.633125
 20
-6.444375
 10
-4.633125
 20
-7.038125
  0
LWPOLYLINE
  8
0
 62
7
 90
5
 70
1
 10
-10.795000
 20
4.588000
 10
-12.141875
 20
4.588000
 10
-12.141875
 20
2.994250
 10
-9.448125
 20
2.994250
 10
-9.448125
 20
4.588000
  0
LWPOLYLINE
  8
0
 62
7
 90
5
 70
1
 10
-10.795000
 20
7.388000
 10
-12.141875
 20
7.388000
 10
-12.141875
 20
5.794250
 10
-9.448125
 20
5.794250
 10
-9.448125
 20
7.388000
  0
LWPOLYLINE
  8
0
 62
7
 90
5
 70
1
 10
11.280723
 20
-8.651875
 10
11.280723
 20
-8.921800
 10
11.810414
 20
-8.921800
 10
11.810414
 20
-8.381950
 10
11.280723
 20
-8.381950
  0
LWPOLYLINE
  8
0
 62
7
 90
5
 70
1
 10
10.414586
 20
-8.651875
 10
10.414586
 20
-8.921800
 10
10.944277
 20
-8.921800
 10
10.944277
 20
-8.381950
 10
10.414586
 20
-8.381950
  0
LWPOLYLINE
  8
0
 62
7
 90
5
 70
1
 10
3.586875
 20
-4.191000
 10
3.586875
 20
-4.537875
 10
4.180625
 20
-4.537875
 10
4.180625
 20
-3.844125
 10
3.586875
 20
-3.844125
  0
LWPOLYLINE
  8
0
 62
7
 90
5
 70
1
 10
2.486875
 20
-4.191000
 10
2.486875
 20
-4.537875
 10
3.080625
 20
-4.537875
 10
3.080625
 20
-3.844125
 10
2.486875
 20
-3.844125
  0
LWPOLYLINE
  8
0
 62
7
 90
5
 70
1
 10
-3.226675
 20
6.769100
 10
-3.226675
 20
6.422225
 10
-2.632925
 20
6.422225
 10
-2.632925
 20
7.115975
 10
-3.226675
 20
7.115975
  0
LWPOLYLINE
  8
0
 62
7
 90
5
 70
1
 10
-4.326675
 20
6.769100
 10
-4.326675
 20
6.422225
 10
-3.732925
 20
6.422225
 10
-3.732925
 20
7.115975
 10
-4.326675
 20
7.115975
  0
LWPOLYLINE
  8
0
 62
7
 90
5
 70
1
 10
-1.190625
 20
-15.780625
 10
-0.843750
 20
-15.780625
 10
-0.843750
 20
-15.186875
 10
-1.537500
 20
-15.186875
 10
-1.537500
 20
-15.780625
  0
LWPOLYLINE
  8
0
 62
7
 90
5
 70
1
 10
-1.190625
 20
-16.880625
 10
-0.843750
 20
-16.880625
 10
-0.843750
 20
-16.286875
 10
-1.537500
 20
-16.286875
 10
-1.537500
 20
-16.880625
  0
LWPOLYLINE
  8
0
 62
7
 90
5
 70
1
 10
-1.372475
 20
6.223000
 10
-1.372475
 20
5.876125
 10
-0.778725
 20
5.876125
 10
-0.778725
 20
6.569875
 10
-1.372475
 20
6.569875
  0
LWPOLYLINE
  8
0
 62
7
 90
5
 70
1
 10
-2.472475
 20
6.223000
 10
-2.472475
 20
5.876125
 10
-1.878725
 20
5.876125
 10
-1.878725
 20
6.569875
 10
-2.472475
 20
6.569875
  0
LWPOLYLINE
  8
0
 62
7
 90
5
 70
1
 10
-7.430375
 20
-4.787900
 10
-7.430375
 20
-5.134775
 10
-6.836625
 20
-5.134775
 10
-6.836625
 20
-4.441025
 10
-7.430375
 20
-4.441025
  0
LWPOLYLINE
  8
0
 62
7
 90
5
 70
1
 10
-8.530375
 20
-4.787900
 10
-8.530375
 20
-5.134775
 10
-7.936625
 20
-5.134775
 10
-7.936625
 20
-4.441025
 10
-8.530375
 20
-4.441025
  0
LWPOLYLINE
  8
0
 62
7
 90
5
 70
1
 10
-8.508125
 20
-5.953125
 10
-8.508125
 20
-5.606250
 10
-9.101875
 20
-5.606250
 10
-9.101875
 20
-6.300000
 10
-8.508125
 20
-6.300000
  0
LWPOLYLINE
  8
0
 62
7
 90
5
 70
1
 10
-7.408125
 20
-5.953125
 10
-7.408125
 20
-5.606250
 10
-8.001875
 20
-5.606250
 10
-8.001875
 20
-6.300000
 10
-7.408125
 20
-6.300000
  0
LWPOLYLINE
  8
0
 62
7
 90
5
 70
1
 10
-9.856075
 20
-6.350000
 10
-9.856075
 20
-6.696875
 10
-9.262325
 20
-6.696875
 10
-9.262325
 20
-6.003125
 10
-9.856075
 20
-6.003125
  0
LWPOLYLINE
  8
0
 62
7
 90
5
 70
1
 10
-10.956075
 20
-6.350000
 10
-10.956075
 20
-6.696875
 10
-10.362325
 20
-6.696875
 10
-10.362325
 20
-6.003125
 10
-10.956075
 20
-6.003125
  0
LWPOLYLINE
  8
0
 62
7
 90
5
 70
1
 10
2.381250
 20
2.316875
 10
2.728125
 20
2.316875
 10
2.728125
 20
2.910625
 10
2.034375
 20
2.910625
 10
2.034375
 20
2.316875
  0
LWPOLYLINE
  8
0
 62
7
 90
5
 70
1
 10
2.381250
 20
1.216875
 10
2.728125
 20
1.216875
 10
2.728125
 20
1.810625
 10
2.034375
 20
1.810625
 10
2.034375
 20
1.216875
  0
LWPOLYLINE
  8
0
 62
7
 90
5
 70
1
 10
3.636250
 20
-1.031875
 10
3.636250
 20
-0.685000
 10
3.042500
 20
-0.685000
 10
3.042500
 20
-1.378750
 10
3.636250
 20
-1.378750
  0
LWPOLYLINE
  8
0
 62
7
 90
5
 70
1
 10
4.736250
 20
-1.031875
 10
4.736250
 20
-0.685000
 10
4.142500
 20
-0.685000
 10
4.142500
 20
-1.378750
 10
4.736250
 20
-1.378750
  0
LWPOLYLINE
  8
0
 62
7
 90
5
 70
1
 10
3.652125
 20
-1.936750
 10
3.652125
 20
-1.589875
 10
3.058375
 20
-1.589875
 10
3.058375
 20
-2.283625
 10
3.652125
 20
-2.283625
  0
LWPOLYLINE
  8
0
 62
7
 90
5
 70
1
 10
4.752125
 20
-1.936750
 10
4.752125
 20
-1.589875
 10
4.158375
 20
-1.589875
 10
4.158375
 20
-2.283625
 10
4.752125
 20
-2.283625
  0
LWPOLYLINE
  8
0
 62
7
 90
5
 70
1
 10
0.967500
 20
-1.190625
 10
0.967500
 20
-1.537500
 10
1.561250
 20
-1.537500
 10
1.561250
 20
-0.843750
 10
0.967500
 20
-0.843750
  0
LWPOLYLINE
  8
0
 62
7
 90
5
 70
1
 10
-0.132500
 20
-1.190625
 10
-0.132500
 20
-1.537500
 10
0.461250
 20
-1.537500
 10
0.461250
 20
-0.843750
 10
-0.132500
 20
-0.843750
  0
LWPOLYLINE
  8
0
 62
7
 90
5
 70
1
 10
-1.205625
 20
2.540000
 10
-1.205625
 20
2.886875
 10
-1.799375
 20
2.886875
 10
-1.799375
 20
2.193125
 10
-1.205625
 20
2.193125
  0
LWPOLYLINE
  8
0
 62
7
 90
5
 70
1
 10
-0.105625
 20
2.540000
 10
-0.105625
 20
2.886875
 10
-0.699375
 20
2.886875
 10
-0.699375
 20
2.193125
 10
-0.105625
 20
2.193125
  0
LWPOLYLINE
  8
0
 62
7
 90
5
 70
1
 10
-9.683750
 20
-9.701925
 10
-10.030625
 20
-9.701925
 10
-10.030625
 20
-10.295675
 10
-9.336875
 20
-10.295675
 10
-9.336875
 20
-9.701925
  0
LWPOLYLINE
  8
0
 62
7
 90
5
 70
1
 10
-9.683750
 20
-8.601925
 10
-10.030625
 20
-8.601925
 10
-10.030625
 20
-9.195675
 10
-9.336875
 20
-9.195675
 10
-9.336875
 20
-8.601925
  0
LWPOLYLINE
  8
0
 62
7
 90
5
 70
1
 10
-9.474200
 20
-2.083675
 10
-9.127325
 20
-2.083675
 10
-9.127325
 20
-1.489925
 10
-9.821075
 20
-1.489925
 10
-9.821075
 20
-2.083675
  0
LWPOLYLINE
  8
0
 62
7
 90
5
 70
1
 10
-9.474200
 20
-3.183675
 10
-9.127325
 20
-3.183675
 10
-9.127325
 20
-2.589925
 10
-9.821075
 20
-2.589925
 10
-9.821075
 20
-3.183675
  0
LWPOLYLINE
  8
0
 62
7
 90
5
 70
1
 10
-11.048125
 20
0.549275
 10
-11.048125
 20
0.896150
 10
-11.641875
 20
0.896150
 10
-11.641875
 20
0.202400
 10
-11.048125
 20
0.202400
  0
LWPOLYLINE
  8
0
 62
7
 90
5
 70
1
 10
-9.948125
 20
0.549275
 10
-9.948125
 20
0.896150
 10
-10.541875
 20
0.896150
 10
-10.541875
 20
0.202400
 10
-9.948125
 20
0.202400
  0
LWPOLYLINE
  8
0
 62
7
 90
5
 70
1
 10
-10.362325
 20
-5.492750
 10
-10.362325
 20
-5.145875
 10
-10.956075
 20
-5.145875
 10
-10.956075
 20
-5.839625
 10
-10.362325
 20
-5.839625
  0
LWPOLYLINE
  8
0
 62
7
 90
5
 70
1
 10
-9.262325
 20
-5.492750
 10
-9.262325
 20
-5.145875
 10
-9.856075
 20
-5.145875
 10
-9.856075
 20
-5.839625
 10
-9.262325
 20
-5.839625
  0
LWPOLYLINE
  8
0
 62
7
 90
5
 70
1
 10
3.736675
 20
5.794375
 10
3.736675
 20
6.291250
 10
2.942925
 20
6.291250
 10
2.942925
 20
5.297500
 10
3.736675
 20
5.297500
  0
LWPOLYLINE
  8
0
 62
7
 90
5
 70
1
 10
5.286675
 20
5.794375
 10
5.286675
 20
6.291250
 10
4.492925
 20
6.291250
 10
4.492925
 20
5.297500
 10
5.286675
 20
5.297500
  0
LWPOLYLINE
  8
0
 62
7
 90
5
 70
1
 10
-3.098800
 20
-2.896475
 10
-2.751925
 20
-2.896475
 10
-2.751925
 20
-2.302725
 10
-3.445675
 20
-2.302725
 10
-3.445675
 20
-2.896475
  0
LWPOLYLINE
  8
0
 62
7
 90
5
 70
1
 10
-3.098800
 20
-3.996475
 10
-2.751925
 20
-3.996475
 10
-2.751925
 20
-3.402725
 10
-3.445675
 20
-3.402725
 10
-3.445675
 20
-3.996475
  0
LWPOLYLINE
  8
0
 62
7
 90
5
 70
1
 10
-2.763125
 20
1.587500
 10
-2.763125
 20
1.240625
 10
-2.169375
 20
1.240625
 10
-2.169375
 20
1.934375
 10
-2.763125
 20
1.934375
  0
LWPOLYLINE
  8
0
 62
7
 90
5
 70
1
 10
-3.863125
 20
1.587500
 10
-3.863125
 20
1.240625
 10
-3.269375
 20
1.240625
 10
-3.269375
 20
1.934375
 10
-3.863125
 20
1.934375
  0
LWPOLYLINE
  8
0
 62
7
 90
5
 70
1
 10
-3.174125
 20
2.460625
 10
-3.174125
 20
2.807500
 10
-3.767875
 20
2.807500
 10
-3.767875
 20
2.113750
 10
-3.174125
 20
2.113750
  0
LWPOLYLINE
  8
0
 62
7
 90
5
 70
1
 10
-2.074125
 20
2.460625
 10
-2.074125
 20
2.807500
 10
-2.667875
 20
2.807500
 10
-2.667875
 20
2.113750
 10
-2.074125
 20
2.113750
  0
LWPOLYLINE
  8
0
 62
7
 90
5
 70
1
 10
-1.493125
 20
-2.698750
 10
-1.493125
 20
-3.045625
 10
-0.899375
 20
-3.045625
 10
-0.899375
 20
-2.351875
 10
-1.493125
 20
-2.351875
  0
LWPOLYLINE
  8
0
 62
7
 90
5
 70
1
 10
-2.593125
 20
-2.698750
 10
-2.593125
 20
-3.045625
 10
-1.999375
 20
-3.045625
 10
-1.999375
 20
-2.351875
 10
-2.593125
 20
-2.351875
  0
LWPOLYLINE
  8
0
 62
7
 90
5
 70
1
 10
-1.999375
 20
-3.571875
 10
-1.999375
 20
-3.225000
 10
-2.593125
 20
-3.225000
 10
-2.593125
 20
-3.918750
 10
-1.999375
 20
-3.918750
  0
LWPOLYLINE
  8
0
 62
7
 90
5
 70
1
 10
-0.899375
 20
-3.571875
 10
-0.899375
 20
-3.225000
 10
-1.493125
 20
-3.225000
 10
-1.493125
 20
-3.918750
 10
-0.899375
 20
-3.918750
  0
LWPOLYLINE
  8
0
 62
7
 90
5
 70
1
 10
-11.836400
 20
-4.191875
 10
-11.489525
 20
-4.191875
 10
-11.489525
 20
-3.598125
 10
-12.183275
 20
-3.598125
 10
-12.183275
 20
-4.191875
  0
LWPOLYLINE
  8
0
 62
7
 90
5
 70
1
 10
-11.836400
 20
-5.291875
 10
-11.489525
 20
-5.291875
 10
-11.489525
 20
-4.698125
 10
-12.183275
 20
-4.698125
 10
-12.183275
 20
-5.291875
  0
LWPOLYLINE
  8
0
 62
7
 90
5
 70
1
 10
-11.836400
 20
2.237500
 10
-11.489525
 20
2.237500
 10
-11.489525
 20
2.831250
 10
-12.183275
 20
2.831250
 10
-12.183275
 20
2.237500
  0
LWPOLYLINE
  8
0
 62
7
 90
5
 70
1
 10
-11.836400
 20
1.137500
 10
-11.489525
 20
1.137500
 10
-11.489525
 20
1.731250
 10
-12.183275
 20
1.731250
 10
-12.183275
 20
1.137500
  0
LWPOLYLINE
  8
0
 62
7
 90
5
 70
1
 10
-11.075275
 20
-0.301625
 10
-11.075275
 20
-0.648500
 10
-10.481525
 20
-0.648500
 10
-10.481525
 20
0.045250
 10
-11.075275
 20
0.045250
  0
LWPOLYLINE
  8
0
 62
7
 90
5
 70
1
 10
-12.175275
 20
-0.301625
 10
-12.175275
 20
-0.648500
 10
-11.581525
 20
-0.648500
 10
-11.581525
 20
0.045250
 10
-12.175275
 20
0.045250
  0
LWPOLYLINE
  8
0
 62
7
 90
5
 70
1
 10
0.013750
 20
4.112500
 10
0.013750
 20
3.990625
 10
0.657500
 20
3.990625
 10
0.657500
 20
4.234375
 10
0.013750
 20
4.234375
  0
LWPOLYLINE
  8
0
 62
7
 90
5
 70
1
 10
0.013750
 20
4.762500
 10
0.013750
 20
4.640625
 10
0.657500
 20
4.640625
 10
0.657500
 20
4.884375
 10
0.013750
 20
4.884375
  0
LWPOLYLINE
  8
0
 62
7
 90
5
 70
1
 10
0.013750
 20
5.412500
 10
0.013750
 20
5.290625
 10
0.657500
 20
5.290625
 10
0.657500
 20
5.534375
 10
0.013750
 20
5.534375
  0
LWPOLYLINE
  8
0
 62
7
 90
5
 70
1
 10
-2.086250
 20
5.412500
 10
-2.086250
 20
5.290625
 10
-1.442500
 20
5.290625
 10
-1.442500
 20
5.534375
 10
-2.086250
 20
5.534375
  0
LWPOLYLINE
  8
0
 62
7
 90
5
 70
1
 10
-2.086250
 20
4.762500
 10
-2.086250
 20
4.640625
 10
-1.442500
 20
4.640625
 10
-1.442500
 20
4.884375
 10
-2.086250
 20
4.884375
  0
LWPOLYLINE
  8
0
 62
7
 90
5
 70
1
 10
-2.086250
 20
4.112500
 10
-2.086250
 20
3.990625
 10
-1.442500
 20
3.990625
 10
-1.442500
 20
4.234375
 10
-2.086250
 20
4.234375
  0
LWPOLYLINE
  8
0
 62
7
 90
5
 70
1
 10
-1.111250
 20
4.762500
 10
-1.111250
 20
4.065625
 10
-0.317500
 20
4.065625
 10
-0.317500
 20
5.459375
 10
-1.111250
 20
5.459375
  0
LWPOLYLINE
  8
0
 62
7
 90
5
 70
1
 10
1.412000
 20
1.313125
 10
1.583875
 20
1.313125
 10
1.583875
 20
1.856875
 10
1.240125
 20
1.856875
 10
1.240125
 20
1.313125
  0
LWPOLYLINE
  8
0
 62
7
 90
5
 70
1
 10
0.762000
 20
1.313125
 10
0.933875
 20
1.313125
 10
0.933875
 20
1.856875
 10
0.590125
 20
1.856875
 10
0.590125
 20
1.313125
  0
LWPOLYLINE
  8
0
 62
7
 90
5
 70
1
 10
0.112000
 20
1.313125
 10
0.283875
 20
1.313125
 10
0.283875
 20
1.856875
 10
-0.059875
 20
1.856875
 10
-0.059875
 20
1.313125
  0
LWPOLYLINE
  8
0
 62
7
 90
5
 70
1
 10
0.112000
 20
-0.586875
 10
0.283875
 20
-0.586875
 10
0.283875
 20
-0.043125
 10
-0.059875
 20
-0.043125
 10
-0.059875
 20
-0.586875
  0
LWPOLYLINE
  8
0
 62
7
 90
5
 70
1
 10
1.412000
 20
-0.586875
 10
1.583875
 20
-0.586875
 10
1.583875
 20
-0.043125
 10
1.240125
 20
-0.043125
 10
1.240125
 20
-0.586875
  0
LWPOLYLINE
  8
0
 62
7
 90
5
 70
1
 10
-5.470375
 20
-13.610625
 10
-5.048500
 20
-13.610625
 10
-5.048500
 20
-13.336875
 10
-5.892250
 20
-13.336875
 10
-5.892250
 20
-13.610625
  0
LWPOLYLINE
  8
0
 62
7
 90
5
 70
1
 10
-5.470375
 20
-13.110625
 10
-5.048500
 20
-13.110625
 10
-5.048500
 20
-12.836875
 10
-5.892250
 20
-12.836875
 10
-5.892250
 20
-13.110625
  0
LWPOLYLINE
  8
0
 62
7
 90
5
 70
1
 10
-5.470375
 20
-12.610625
 10
-5.048500
 20
-12.610625
 10
-5.048500
 20
-12.336875
 10
-5.892250
 20
-12.336875
 10
-5.892250
 20
-12.610625
  0
LWPOLYLINE
  8
0
 62
7
 90
5
 70
1
 10
-5.470375
 20
-12.110625
 10
-5.048500
 20
-12.110625
 10
-5.048500
 20
-11.836875
 10
-5.892250
 20
-11.836875
 10
-5.892250
 20
-12.110625
  0
LWPOLYLINE
  8
0
 62
7
 90
5
 70
1
 10
-5.470375
 20
-11.610625
 10
-5.048500
 20
-11.610625
 10
-5.048500
 20
-11.336875
 10
-5.892250
 20
-11.336875
 10
-5.892250
 20
-11.610625
  0
LWPOLYLINE
  8
0
 62
7
 90
5
 70
1
 10
-5.470375
 20
-11.110625
 10
-5.048500
 20
-11.110625
 10
-5.048500
 20
-10.836875
 10
-5.892250
 20
-10.836875
 10
-5.892250
 20
-11.110625
  0
LWPOLYLINE
  8
0
 62
7
 90
5
 70
1
 10
-6.058500
 20
-10.248750
 10
-6.058500
 20
-9.826875
 10
-6.332250
 20
-9.826875
 10
-6.332250
 20
-10.670625
 10
-6.058500
 20
-10.670625
  0
LWPOLYLINE
  8
0
 62
7
 90
5
 70
1
 10
-6.558500
 20
-10.248750
 10
-6.558500
 20
-9.826875
 10
-6.832250
 20
-9.826875
 10
-6.832250
 20
-10.670625
 10
-6.558500
 20
-10.670625
  0
LWPOLYLINE
  8
0
 62
7
 90
5
 70
1
 10
-7.058500
 20
-10.248750
 10
-7.058500
 20
-9.826875
 10
-7.332250
 20
-9.826875
 10
-7.332250
 20
-10.670625
 10
-7.058500
 20
-10.670625
  0
LWPOLYLINE
  8
0
 62
7
 90
5
 70
1
 10
-7.558500
 20
-10.248750
 10
-7.558500
 20
-9.826875
 10
-7.832250
 20
-9.826875
 10
-7.832250
 20
-10.670625
 10
-7.558500
 20
-10.670625
  0
LWPOLYLINE
  8
0
 62
7
 90
5
 70
1
 10
-8.058500
 20
-10.248750
 10
-8.058500
 20
-9.826875
 10
-8.332250
 20
-9.826875
 10
-8.332250
 20
-10.670625
 10
-8.058500
 20
-10.670625
  0
LWPOLYLINE
  8
0
 62
7
 90
5
 70
1
 10
-8.558500
 20
-10.248750
 10
-8.558500
 20
-9.826875
 10
-8.832250
 20
-9.826875
 10
-8.832250
 20
-10.670625
 10
-8.558500
 20
-10.670625
  0
LWPOLYLINE
  8
0
 62
7
 90
5
 70
1
 10
-9.420375
 20
-11.110625
 10
-8.998500
 20
-11.110625
 10
-8.998500
 20
-10.836875
 10
-9.842250
 20
-10.836875
 10
-9.842250
 20
-11.110625
  0
LWPOLYLINE
  8
0
 62
7
 90
5
 70
1
 10
-9.420375
 20
-11.610625
 10
-8.998500
 20
-11.610625
 10
-8.998500
 20
-11.336875
 10
-9.842250
 20
-11.336875
 10
-9.842250
 20
-11.610625
  0
LWPOLYLINE
  8
0
 62
7
 90
5
 70
1
 10
-9.420375
 20
-12.110625
 10
-8.998500
 20
-12.110625
 10
-8.998500
 20
-11.836875
 10
-9.842250
 20
-11.836875
 10
-9.842250
 20
-12.110625
  0
LWPOLYLINE
  8
0
 62
7
 90
5
 70
1
 10
-9.420375
 20
-12.610625
 10
-8.998500
 20
-12.610625
 10
-8.998500
 20
-12.336875
 10
-9.842250
 20
-12.336875
 10
-9.842250
 20
-12.610625
  0
LWPOLYLINE
  8
0
 62
7
 90
5
 70
1
 10
-9.420375
 20
-13.110625
 10
-8.998500
 20
-13.110625
 10
-8.998500
 20
-12.836875
 10
-9.842250
 20
-12.836875
 10
-9.842250
 20
-13.110625
  0
LWPOLYLINE
  8
0
 62
7
 90
5
 70
1
 10
-9.420375
 20
-13.610625
 10
-8.998500
 20
-13.610625
 10
-8.998500
 20
-13.336875
 10
-9.842250
 20
-13.336875
 10
-9.842250
 20
-13.610625
  0
LWPOLYLINE
  8
0
 62
7
 90
5
 70
1
 10
-8.558500
 20
-14.198750
 10
-8.558500
 20
-13.776875
 10
-8.832250
 20
-13.776875
 10
-8.832250
 20
-14.620625
 10
-8.558500
 20
-14.620625
  0
LWPOLYLINE
  8
0
 62
7
 90
5
 70
1
 10
-8.058500
 20
-14.198750
 10
-8.058500
 20
-13.776875
 10
-8.332250
 20
-13.776875
 10
-8.332250
 20
-14.620625
 10
-8.058500
 20
-14.620625
  0
LWPOLYLINE
  8
0
 62
7
 90
5
 70
1
 10
-7.558500
 20
-14.198750
 10
-7.558500
 20
-13.776875
 10
-7.832250
 20
-13.776875
 10
-7.832250
 20
-14.620625
 10
-7.558500
 20
-14.620625
  0
LWPOLYLINE
  8
0
 62
7
 90
5
 70
1
 10
-7.058500
 20
-14.198750
 10
-7.058500
 20
-13.776875
 10
-7.332250
 20
-13.776875
 10
-7.332250
 20
-14.620625
 10
-7.058500
 20
-14.620625
  0
LWPOLYLINE
  8
0
 62
7
 90
5
 70
1
 10
-6.558500
 20
-14.198750
 10
-6.558500
 20
-13.776875
 10
-6.832250
 20
-13.776875
 10
-6.832250
 20
-14.620625
 10
-6.558500
 20
-14.620625
  0
LWPOLYLINE
  8
0
 62
7
 90
5
 70
1
 10
-6.058500
 20
-14.198750
 10
-6.058500
 20
-13.776875
 10
-6.332250
 20
-13.776875
 10
-6.332250
 20
-14.620625
 10
-6.058500
 20
-14.620625
  0
LWPOLYLINE
  8
0
 62
7
 90
5
 70
1
 10
-8.492250
 20
-12.223750
 10
-8.492250
 20
-13.270625
 10
-6.398500
 20
-13.270625
 10
-6.398500
 20
-11.176875
 10
-8.492250
 20
-11.176875
  0
LWPOLYLINE
  8
0
 62
7
 90
5
 70
1
 10
6.283600
 20
-15.160250
 10
6.185125
 20
-15.160250
 10
6.185125
 20
-15.954000
 10
6.382075
 20
-15.954000
 10
6.382075
 20
-15.160250
  0
LWPOLYLINE
  8
0
 62
7
 90
5
 70
1
 10
6.683600
 20
-15.160250
 10
6.585125
 20
-15.160250
 10
6.585125
 20
-15.954000
 10
6.782075
 20
-15.954000
 10
6.782075
 20
-15.160250
  0
LWPOLYLINE
  8
0
 62
7
 90
5
 70
1
 10
7.083600
 20
-15.160250
 10
6.985125
 20
-15.160250
 10
6.985125
 20
-15.954000
 10
7.182075
 20
-15.954000
 10
7.182075
 20
-15.160250
  0
LWPOLYLINE
  8
0
 62
7
 90
5
 70
1
 10
7.483600
 20
-15.160250
 10
7.385125
 20
-15.160250
 10
7.385125
 20
-15.954000
 10
7.582075
 20
-15.954000
 10
7.582075
 20
-15.160250
  0
LWPOLYLINE
  8
0
 62
7
 90
5
 70
1
 10
7.883600
 20
-15.160250
 10
7.785125
 20
-15.160250
 10
7.785125
 20
-15.954000
 10
7.982075
 20
-15.954000
 10
7.982075
 20
-15.160250
  0
LWPOLYLINE
  8
0
 62
7
 90
5
 70
1
 10
8.283600
 20
-15.160250
 10
8.185125
 20
-15.160250
 10
8.185125
 20
-15.954000
 10
8.382075
 20
-15.954000
 10
8.382075
 20
-15.160250
  0
LWPOLYLINE
  8
0
 62
7
 90
5
 70
1
 10
8.683600
 20
-15.160250
 10
8.585125
 20
-15.160250
 10
8.585125
 20
-15.954000
 10
8.782075
 20
-15.954000
 10
8.782075
 20
-15.160250
  0
LWPOLYLINE
  8
0
 62
7
 90
5
 70
1
 10
9.083600
 20
-15.160250
 10
8.985125
 20
-15.160250
 10
8.985125
 20
-15.954000
 10
9.182075
 20
-15.954000
 10
9.182075
 20
-15.160250
  0
LWPOLYLINE
  8
0
 62
7
 90
5
 70
1
 10
9.483600
 20
-15.160250
 10
9.385125
 20
-15.160250
 10
9.385125
 20
-15.954000
 10
9.582075
 20
-15.954000
 10
9.582075
 20
-15.160250
  0
LWPOLYLINE
  8
0
 62
7
 90
5
 70
1
 10
9.883600
 20
-15.160250
 10
9.785125
 20
-15.160250
 10
9.785125
 20
-15.954000
 10
9.982075
 20
-15.954000
 10
9.982075
 20
-15.160250
  0
LWPOLYLINE
  8
0
 62
7
 90
5
 70
1
 10
10.283600
 20
-15.160250
 10
10.185125
 20
-15.160250
 10
10.185125
 20
-15.954000
 10
10.382075
 20
-15.954000
 10
10.382075
 20
-15.160250
  0
LWPOLYLINE
  8
0
 62
7
 90
5
 70
1
 10
10.683600
 20
-15.160250
 10
10.585125
 20
-15.160250
 10
10.585125
 20
-15.954000
 10
10.782075
 20
-15.954000
 10
10.782075
 20
-15.160250
  0
LWPOLYLINE
  8
0
 62
7
 90
5
 70
1
 10
11.086725
 20
-14.757125
 10
11.086725
 20
-14.855600
 10
11.880475
 20
-14.855600
 10
11.880475
 20
-14.658650
 10
11.086725
 20
-14.658650
  0
LWPOLYLINE
  8
0
 62
7
 90
5
 70
1
 10
11.086725
 20
-14.357125
 10
11.086725
 20
-14.455600
 10
11.880475
 20
-14.455600
 10
11.880475
 20
-14.258650
 10
11.086725
 20
-14.258650
  0
LWPOLYLINE
  8
0
 62
7
 90
5
 70
1
 10
11.086725
 20
-13.957125
 10
11.086725
 20
-14.055600
 10
11.880475
 20
-14.055600
 10
11.880475
 20
-13.858650
 10
11.086725
 20
-13.858650
  0
LWPOLYLINE
  8
0
 62
7
 90
5
 70
1
 10
11.086725
 20
-13.557125
 10
11.086725
 20
-13.655600
 10
11.880475
 20
-13.655600
 10
11.880475
 20
-13.458650
 10
11.086725
 20
-13.458650
  0
LWPOLYLINE
  8
0
 62
7
 90
5
 70
1
 10
11.086725
 20
-13.157125
 10
11.086725
 20
-13.255600
 10
11.880475
 20
-13.255600
 10
11.880475
 20
-13.058650
 10
11.086725
 20
-13.058650
  0
LWPOLYLINE
  8
0
 62
7
 90
5
 70
1
 10
11.086725
 20
-12.757125
 10
11.086725
 20
-12.855600
 10
11.880475
 20
-12.855600
 10
11.880475
 20
-12.658650
 10
11.086725
 20
-12.658650
  0
LWPOLYLINE
  8
0
 62
7
 90
5
 70
1
 10
11.086725
 20
-12.357125
 10
11.086725
 20
-12.455600
 10
11.880475
 20
-12.455600
 10
11.880475
 20
-12.258650
 10
11.086725
 20
-12.258650
  0
LWPOLYLINE
  8
0
 62
7
 90
5
 70
1
 10
11.086725
 20
-11.957125
 10
11.086725
 20
-12.055600
 10
11.880475
 20
-12.055600
 10
11.880475
 20
-11.858650
 10
11.086725
 20
-11.858650
  0
LWPOLYLINE
  8
0
 62
7
 90
5
 70
1
 10
11.086725
 20
-11.557125
 10
11.086725
 20
-11.655600
 10
11.880475
 20
-11.655600
 10
11.880475
 20
-11.458650
 10
11.086725
 20
-11.458650
  0
LWPOLYLINE
  8
0
 62
7
 90
5
 70
1
 10
11.086725
 20
-11.157125
 10
11.086725
 20
-11.255600
 10
11.880475
 20
-11.255600
 10
11.880475
 20
-11.058650
 10
11.086725
 20
-11.058650
  0
LWPOLYLINE
  8
0
 62
7
 90
5
 70
1
 10
11.086725
 20
-10.757125
 10
11.086725
 20
-10.855600
 10
11.880475
 20
-10.855600
 10
11.880475
 20
-10.658650
 10
11.086725
 20
-10.658650
  0
LWPOLYLINE
  8
0
 62
7
 90
5
 70
1
 10
11.086725
 20
-10.357125
 10
11.086725
 20
-10.455600
 10
11.880475
 20
-10.455600
 10
11.880475
 20
-10.258650
 10
11.086725
 20
-10.258650
  0
LWPOLYLINE
  8
0
 62
7
 90
5
 70
1
 10
10.683600
 20
-9.160250
 10
10.585125
 20
-9.160250
 10
10.585125
 20
-9.954000
 10
10.782075
 20
-9.954000
 10
10.782075
 20
-9.160250
  0
LWPOLYLINE
  8
0
 62
7
 90
5
 70
1
 10
10.283600
 20
-9.160250
 10
10.185125
 20
-9.160250
 10
10.185125
 20
-9.954000
 10
10.382075
 20
-9.954000
 10
10.382075
 20
-9.160250
  0
LWPOLYLINE
  8
0
 62
7
 90
5
 70
1
 10
9.883600
 20
-9.160250
 10
9.785125
 20
-9.160250
 10
9.785125
 20
-9.954000
 10
9.982075
 20
-9.954000
 10
9.982075
 20
-9.160250
  0
LWPOLYLINE
  8
0
 62
7
 90
5
 70
1
 10
9.483600
 20
-9.160250
 10
9.385125
 20
-9.160250
 10
9.385125
 20
-9.954000
 10
9.582075
 20
-9.954000
 10
9.582075
 20
-9.160250
  0
LWPOLYLINE
  8
0
 62
7
 90
5
 70
1
 10
9.083600
 20
-9.160250
 10
8.985125
 20
-9.160250
 10
8.985125
 20
-9.954000
 10
9.182075
 20
-9.954000
 10
9.182075
 20
-9.160250
  0
LWPOLYLINE
  8
0
 62
7
 90
5
 70
1
 10
8.683600
 20
-9.160250
 10
8.585125
 20
-9.160250
 10
8.585125
 20
-9.954000
 10
8.782075
 20
-9.954000
 10
8.782075
 20
-9.160250
  0
LWPOLYLINE
  8
0
 62
7
 90
5
 70
1
 10
8.283600
 20
-9.160250
 10
8.185125
 20
-9.160250
 10
8.185125
 20
-9.954000
 10
8.382075
 20
-9.954000
 10
8.382075
 20
-9.160250
  0
LWPOLYLINE
  8
0
 62
7
 90
5
 70
1
 10
7.883600
 20
-9.160250
 10
7.785125
 20
-9.160250
 10
7.785125
 20
-9.954000
 10
7.982075
 20
-9.954000
 10
7.982075
 20
-9.160250
  0
LWPOLYLINE
  8
0
 62
7
 90
5
 70
1
 10
7.483600
 20
-9.160250
 10
7.385125
 20
-9.160250
 10
7.385125
 20
-9.954000
 10
7.582075
 20
-9.954000
 10
7.582075
 20
-9.160250
  0
LWPOLYLINE
  8
0
 62
7
 90
5
 70
1
 10
7.083600
 20
-9.160250
 10
6.985125
 20
-9.160250
 10
6.985125
 20
-9.954000
 10
7.182075
 20
-9.954000
 10
7.182075
 20
-9.160250
  0
LWPOLYLINE
  8
0
 62
7
 90
5
 70
1
 10
6.683600
 20
-9.160250
 10
6.585125
 20
-9.160250
 10
6.585125
 20
-9.954000
 10
6.782075
 20
-9.954000
 10
6.782075
 20
-9.160250
  0
LWPOLYLINE
  8
0
 62
7
 90
5
 70
1
 10
6.283600
 20
-9.160250
 10
6.185125
 20
-9.160250
 10
6.185125
 20
-9.954000
 10
6.382075
 20
-9.954000
 10
6.382075
 20
-9.160250
  0
LWPOLYLINE
  8
0
 62
7
 90
5
 70
1
 10
5.086725
 20
-10.357125
 10
5.086725
 20
-10.455600
 10
5.880475
 20
-10.455600
 10
5.880475
 20
-10.258650
 10
5.086725
 20
-10.258650
  0
LWPOLYLINE
  8
0
 62
7
 90
5
 70
1
 10
5.086725
 20
-10.757125
 10
5.086725
 20
-10.855600
 10
5.880475
 20
-10.855600
 10
5.880475
 20
-10.658650
 10
5.086725
 20
-10.658650
  0
LWPOLYLINE
  8
0
 62
7
 90
5
 70
1
 10
5.086725
 20
-11.157125
 10
5.086725
 20
-11.255600
 10
5.880475
 20
-11.255600
 10
5.880475
 20
-11.058650
 10
5.086725
 20
-11.058650
  0
LWPOLYLINE
  8
0
 62
7
 90
5
 70
1
 10
5.086725
 20
-11.557125
 10
5.086725
 20
-11.655600
 10
5.880475
 20
-11.655600
 10
5.880475
 20
-11.458650
 10
5.086725
 20
-11.458650
  0
LWPOLYLINE
  8
0
 62
7
 90
5
 70
1
 10
5.086725
 20
-11.957125
 10
5.086725
 20
-12.055600
 10
5.880475
 20
-12.055600
 10
5.880475
 20
-11.858650
 10
5.086725
 20
-11.858650
  0
LWPOLYLINE
  8
0
 62
7
 90
5
 70
1
 10
5.086725
 20
-12.357125
 10
5.086725
 20
-12.455600
 10
5.880475
 20
-12.455600
 10
5.880475
 20
-12.258650
 10
5.086725
 20
-12.258650
  0
LWPOLYLINE
  8
0
 62
7
 90
5
 70
1
 10
5.086725
 20
-12.757125
 10
5.086725
 20
-12.855600
 10
5.880475
 20
-12.855600
 10
5.880475
 20
-12.658650
 10
5.086725
 20
-12.658650
  0
LWPOLYLINE
  8
0
 62
7
 90
5
 70
1
 10
5.086725
 20
-13.157125
 10
5.086725
 20
-13.255600
 10
5.880475
 20
-13.255600
 10
5.880475
 20
-13.058650
 10
5.086725
 20
-13.058650
  0
LWPOLYLINE
  8
0
 62
7
 90
5
 70
1
 10
5.086725
 20
-13.557125
 10
5.086725
 20
-13.655600
 10
5.880475
 20
-13.655600
 10
5.880475
 20
-13.458650
 10
5.086725
 20
-13.458650
  0
LWPOLYLINE
  8
0
 62
7
 90
5
 70
1
 10
5.086725
 20
-13.957125
 10
5.086725
 20
-14.055600
 10
5.880475
 20
-14.055600
 10
5.880475
 20
-13.858650
 10
5.086725
 20
-13.858650
  0
LWPOLYLINE
  8
0
 62
7
 90
5
 70
1
 10
5.086725
 20
-14.357125
 10
5.086725
 20
-14.455600
 10
5.880475
 20
-14.455600
 10
5.880475
 20
-14.258650
 10
5.086725
 20
-14.258650
  0
LWPOLYLINE
  8
0
 62
7
 90
5
 70
1
 10
5.086725
 20
-14.757125
 10
5.086725
 20
-14.855600
 10
5.880475
 20
-14.855600
 10
5.880475
 20
-14.658650
 10
5.086725
 20
-14.658650
  0
LWPOLYLINE
  8
0
 62
7
 90
5
 70
1
  0
LWPOLYLINE
  8
0
 62
7
 90
5
 70
1
 10
6.833600
 20
-13.560250
 10
6.186725
 20
-13.560250
 10
6.186725
 20
-14.854000
 10
7.480475
 20
-14.854000
 10
7.480475
 20
-13.560250
  0
LWPOLYLINE
  8
0
 62
7
 90
5
 70
1
  0
LWPOLYLINE
  8
0
 62
7
 90
5
 70
1
 10
6.833600
 20
-10.260250
 10
6.186725
 20
-10.260250
 10
6.186725
 20
-11.554000
 10
7.480475
 20
-11.554000
 10
7.480475
 20
-10.260250
  0
LWPOLYLINE
  8
0
 62
7
 90
5
 70
1
  0
LWPOLYLINE
  8
0
 62
7
 90
5
 70
1
 10
6.833600
 20
-11.960250
 10
6.186725
 20
-11.960250
 10
6.186725
 20
-13.154000
 10
7.480475
 20
-13.154000
 10
7.480475
 20
-11.960250
  0
LWPOLYLINE
  8
0
 62
7
 90
5
 70
1
  0
LWPOLYLINE
  8
0
 62
7
 90
5
 70
1
 10
10.133600
 20
-13.560250
 10
9.486725
 20
-13.560250
 10
9.486725
 20
-14.854000
 10
10.780475
 20
-14.854000
 10
10.780475
 20
-13.560250
  0
LWPOLYLINE
  8
0
 62
7
 90
5
 70
1
  0
LWPOLYLINE
  8
0
 62
7
 90
5
 70
1
 10
10.133600
 20
-10.260250
 10
9.486725
 20
-10.260250
 10
9.486725
 20
-11.554000
 10
10.780475
 20
-11.554000
 10
10.780475
 20
-10.260250
  0
LWPOLYLINE
  8
0
 62
7
 90
5
 70
1
  0
LWPOLYLINE
  8
0
 62
7
 90
5
 70
1
 10
10.133600
 20
-11.960250
 10
9.486725
 20
-11.960250
 10
9.486725
 20
-13.154000
 10
10.780475
 20
-13.154000
 10
10.780475
 20
-11.960250
  0
LWPOLYLINE
  8
0
 62
7
 90
5
 70
1
  0
LWPOLYLINE
  8
0
 62
7
 90
5
 70
1
 10
8.483600
 20
-11.960250
 10
7.886725
 20
-11.960250
 10
7.886725
 20
-13.154000
 10
9.080475
 20
-13.154000
 10
9.080475
 20
-11.960250
  0
LWPOLYLINE
  8
0
 62
7
 90
5
 70
1
  0
LWPOLYLINE
  8
0
 62
7
 90
5
 70
1
 10
8.483600
 20
-10.260250
 10
7.886725
 20
-10.260250
 10
7.886725
 20
-11.554000
 10
9.080475
 20
-11.554000
 10
9.080475
 20
-10.260250
  0
LWPOLYLINE
  8
0
 62
7
 90
5
 70
1
  0
LWPOLYLINE
  8
0
 62
7
 90
5
 70
1
 10
8.483600
 20
-13.560250
 10
7.886725
 20
-13.560250
 10
7.886725
 20
-14.854000
 10
9.080475
 20
-14.854000
 10
9.080475
 20
-13.560250
  0
LWPOLYLINE
  8
0
 62
7
 90
5
 70
1
 10
-10.170400
 20
-1.430075
 10
-9.998525
 20
-1.430075
 10
-9.998525
 20
-0.886325
 10
-10.342275
 20
-0.886325
 10
-10.342275
 20
-1.430075
  0
LWPOLYLINE
  8
0
 62
7
 90
5
 70
1
 10
-10.820400
 20
-1.430075
 10
-10.648525
 20
-1.430075
 10
-10.648525
 20
-0.886325
 10
-10.992275
 20
-0.886325
 10
-10.992275
 20
-1.430075
  0
LWPOLYLINE
  8
0
 62
7
 90
5
 70
1
 10
-11.470400
 20
-1.430075
 10
-11.298525
 20
-1.430075
 10
-11.298525
 20
-0.886325
 10
-11.642275
 20
-0.886325
 10
-11.642275
 20
-1.430075
  0
LWPOLYLINE
  8
0
 62
7
 90
5
 70
1
 10
-11.470400
 20
-3.330075
 10
-11.298525
 20
-3.330075
 10
-11.298525
 20
-2.786325
 10
-11.642275
 20
-2.786325
 10
-11.642275
 20
-3.330075
  0
LWPOLYLINE
  8
0
 62
7
 90
5
 70
1
 10
-10.170400
 20
-3.330075
 10
-9.998525
 20
-3.330075
 10
-9.998525
 20
-2.786325
 10
-10.342275
 20
-2.786325
 10
-10.342275
 20
-3.330075
  0
LWPOLYLINE
  8
0
 62
7
 90
5
 70
1
 10
-3.673750
 20
-1.338125
 10
-3.870625
 20
-1.338125
 10
-3.870625
 20
-2.131875
 10
-3.476875
 20
-2.131875
 10
-3.476875
 20
-1.338125
  0
LWPOLYLINE
  8
0
 62
7
 90
5
 70
1
 10
-3.023750
 20
-1.338125
 10
-3.220625
 20
-1.338125
 10
-3.220625
 20
-2.131875
 10
-2.826875
 20
-2.131875
 10
-2.826875
 20
-1.338125
  0
LWPOLYLINE
  8
0
 62
7
 90
5
 70
1
 10
-2.373750
 20
-1.338125
 10
-2.570625
 20
-1.338125
 10
-2.570625
 20
-2.131875
 10
-2.176875
 20
-2.131875
 10
-2.176875
 20
-1.338125
  0
LWPOLYLINE
  8
0
 62
7
 90
5
 70
1
 10
-1.723750
 20
-1.338125
 10
-1.920625
 20
-1.338125
 10
-1.920625
 20
-2.131875
 10
-1.526875
 20
-2.131875
 10
-1.526875
 20
-1.338125
  0
LWPOLYLINE
  8
0
 62
7
 90
5
 70
1
 10
-1.723750
 20
0.068125
 10
-1.526875
 20
0.068125
 10
-1.526875
 20
0.861875
 10
-1.920625
 20
0.861875
 10
-1.920625
 20
0.068125
  0
LWPOLYLINE
  8
0
 62
7
 90
5
 70
1
 10
-2.373750
 20
0.068125
 10
-2.176875
 20
0.068125
 10
-2.176875
 20
0.861875
 10
-2.570625
 20
0.861875
 10
-2.570625
 20
0.068125
  0
LWPOLYLINE
  8
0
 62
7
 90
5
 70
1
 10
-3.023750
 20
0.068125
 10
-2.826875
 20
0.068125
 10
-2.826875
 20
0.861875
 10
-3.220625
 20
0.861875
 10
-3.220625
 20
0.068125
  0
LWPOLYLINE
  8
0
 62
7
 90
5
 70
1
 10
-3.673750
 20
0.068125
 10
-3.476875
 20
0.068125
 10
-3.476875
 20
0.861875
 10
-3.870625
 20
0.861875
 10
-3.870625
 20
0.068125
  0
LWPOLYLINE
  8
0
 62
7
 90
5
 70
1
 10
3.234600
 20
-8.944850
 10
3.631475
 20
-8.944850
 10
3.631475
 20
-8.051100
 10
2.837725
 20
-8.051100
 10
2.837725
 20
-8.944850
  0
LWPOLYLINE
  8
0
 62
7
 90
5
 70
1
 10
3.234600
 20
-10.344850
 10
3.631475
 20
-10.344850
 10
3.631475
 20
-9.451100
 10
2.837725
 20
-9.451100
 10
2.837725
 20
-10.344850
  0
LWPOLYLINE
  8
0
 62
7
 90
5
 70
1
 10
4.334600
 20
-10.344850
 10
4.731475
 20
-10.344850
 10
4.731475
 20
-9.451100
 10
3.937725
 20
-9.451100
 10
3.937725
 20
-10.344850
  0
LWPOLYLINE
  8
0
 62
7
 90
5
 70
1
 10
4.334600
 20
-8.944850
 10
4.731475
 20
-8.944850
 10
4.731475
 20
-8.051100
 10
3.937725
 20
-8.051100
 10
3.937725
 20
-8.944850
  0
LWPOLYLINE
  8
0
 62
7
 90
5
 70
1
 10
-5.818275
 20
-16.116300
 10
-5.818275
 20
-16.863175
 10
-4.724525
 20
-16.863175
 10
-4.724525
 20
-15.369425
 10
-5.818275
 20
-15.369425
  0
LWPOLYLINE
  8
0
 62
7
 90
5
 70
1
 10
-7.518275
 20
-16.116300
 10
-7.518275
 20
-16.863175
 10
-6.424525
 20
-16.863175
 10
-6.424525
 20
-15.369425
 10
-7.518275
 20
-15.369425
  0
LWPOLYLINE
  8
0
 62
7
 90
5
 70
1
 10
12.180675
 20
6.197600
 10
12.180675
 20
7.394475
 10
11.386925
 20
7.394475
 10
11.386925
 20
5.000725
 10
12.180675
 20
5.000725
  0
LWPOLYLINE
  8
0
 62
7
 90
5
 70
1
 10
8.780675
 20
6.197600
 10
8.780675
 20
7.394475
 10
7.986925
 20
7.394475
 10
7.986925
 20
5.000725
 10
8.780675
 20
5.000725
  0
ENDSEC
  0
EOF
