G75*
%MOIN*%
%OFA0B0*%
%FSLAX24Y24*%
%IPPOS*%
%LPD*%
%AMOC8*
5,1,8,0,0,1.08239X$1,22.5*
%
%ADD10C,0.0278*%
%ADD11C,0.0300*%
%ADD12C,0.0080*%
D10*
X002540Y003037D03*
X002835Y003037D03*
X003131Y003037D03*
X003131Y003332D03*
X003131Y003628D03*
X002835Y003628D03*
X002540Y003628D03*
X002540Y003332D03*
X002835Y003332D03*
D11*
X001204Y001645D03*
X001579Y001864D03*
X001577Y002239D03*
X001610Y002707D03*
X001579Y003114D03*
X001687Y003520D03*
X001567Y004520D03*
X001642Y005082D03*
X001985Y004970D03*
X002142Y005298D03*
X002704Y005450D03*
X002707Y005005D03*
X002702Y004645D03*
X003184Y004810D03*
X003577Y004520D03*
X003937Y004542D03*
X004579Y004489D03*
X003992Y003800D03*
X004048Y003444D03*
X004048Y003084D03*
X004127Y001989D03*
X004487Y001980D03*
X004947Y002020D03*
X006148Y001832D03*
X007342Y002385D03*
X007557Y002675D03*
X007529Y003035D03*
X008642Y002770D03*
X009517Y002770D03*
X009517Y003645D03*
X008642Y003645D03*
X008127Y004722D03*
X006673Y004551D03*
X005735Y004895D03*
X005360Y006270D03*
X004923Y006364D03*
X004337Y006372D03*
X004204Y006895D03*
X004204Y007832D03*
X005110Y007957D03*
X005127Y008715D03*
X005485Y009520D03*
X006235Y008450D03*
X006735Y007665D03*
X006517Y007332D03*
X007423Y006957D03*
X007017Y006145D03*
X009142Y008145D03*
X009267Y007520D03*
X010392Y007520D03*
X010392Y008645D03*
X009298Y006395D03*
X010017Y005645D03*
X010392Y005395D03*
X010329Y006114D03*
X007329Y009502D03*
X006048Y010945D03*
X004048Y009145D03*
X002637Y010082D03*
X002110Y009114D03*
X002298Y008707D03*
X002392Y008145D03*
X001704Y008895D03*
X001548Y007301D03*
X001552Y006330D03*
X001917Y006334D03*
X002077Y002400D03*
X007997Y001832D03*
X009297Y001645D03*
X009657Y001645D03*
D12*
X009882Y001535D02*
X009907Y001595D01*
X009907Y001695D01*
X009869Y001786D01*
X010527Y001786D01*
X010527Y001708D02*
X009901Y001708D01*
X009907Y001629D02*
X010527Y001629D01*
X010527Y001551D02*
X009888Y001551D01*
X009882Y001535D02*
X010517Y001535D01*
X010519Y001535D01*
X010522Y001536D01*
X010525Y001539D01*
X010526Y001543D01*
X010526Y001543D01*
X010527Y001545D01*
X010527Y005180D01*
X010441Y005145D01*
X010342Y005145D01*
X010250Y005183D01*
X010180Y005253D01*
X010142Y005345D01*
X010142Y005426D01*
X010066Y005395D01*
X009967Y005395D01*
X009875Y005433D01*
X009805Y005503D01*
X009767Y005595D01*
X009767Y005695D01*
X009805Y005786D01*
X009875Y005857D01*
X009967Y005895D01*
X010066Y005895D01*
X010158Y005857D01*
X010229Y005786D01*
X010267Y005695D01*
X010267Y005614D01*
X010342Y005645D01*
X010441Y005645D01*
X010527Y005609D01*
X010527Y005957D01*
X010471Y005902D01*
X010379Y005864D01*
X010279Y005864D01*
X010188Y005902D01*
X010117Y005972D01*
X010079Y006064D01*
X010079Y006163D01*
X010117Y006255D01*
X010188Y006325D01*
X010279Y006364D01*
X010379Y006364D01*
X010471Y006325D01*
X010527Y006270D01*
X010527Y007305D01*
X010441Y007270D01*
X010342Y007270D01*
X010250Y007308D01*
X010180Y007378D01*
X010142Y007470D01*
X010142Y007570D01*
X010180Y007661D01*
X010250Y007732D01*
X010342Y007770D01*
X010441Y007770D01*
X010527Y007734D01*
X010527Y008430D01*
X010441Y008395D01*
X010342Y008395D01*
X010250Y008433D01*
X010180Y008503D01*
X010142Y008595D01*
X010142Y008695D01*
X010180Y008786D01*
X010250Y008857D01*
X010342Y008895D01*
X010441Y008895D01*
X010527Y008859D01*
X010527Y009270D01*
X009107Y009270D01*
X009107Y008535D01*
X009450Y008535D01*
X009532Y008453D01*
X009532Y007837D01*
X009450Y007755D01*
X009353Y007755D01*
X009408Y007732D01*
X009479Y007661D01*
X009517Y007570D01*
X009517Y007470D01*
X009479Y007378D01*
X009408Y007308D01*
X009316Y007270D01*
X009217Y007270D01*
X009125Y007308D01*
X009107Y007326D01*
X009107Y006557D01*
X009156Y006607D01*
X009248Y006645D01*
X009348Y006645D01*
X009440Y006607D01*
X009510Y006536D01*
X009548Y006445D01*
X009548Y006345D01*
X009510Y006253D01*
X009440Y006183D01*
X009348Y006145D01*
X009248Y006145D01*
X009156Y006183D01*
X009086Y006253D01*
X009077Y006275D01*
X009070Y006259D01*
X009003Y006191D01*
X008914Y006155D01*
X007794Y006155D01*
X007706Y006191D01*
X007638Y006259D01*
X007602Y006347D01*
X007602Y006782D01*
X007565Y006745D01*
X007473Y006707D01*
X007373Y006707D01*
X007281Y006745D01*
X007211Y006816D01*
X007173Y006908D01*
X007173Y007007D01*
X007211Y007099D01*
X007281Y007169D01*
X007373Y007207D01*
X007473Y007207D01*
X007565Y007169D01*
X007602Y007132D01*
X007602Y009943D01*
X007638Y010031D01*
X007706Y010098D01*
X007767Y010123D01*
X007767Y011055D01*
X006273Y011055D01*
X006298Y010995D01*
X006298Y010895D01*
X006260Y010803D01*
X006190Y010733D01*
X006098Y010695D01*
X005998Y010695D01*
X005906Y010733D01*
X005836Y010803D01*
X005798Y010895D01*
X005798Y010995D01*
X005823Y011055D01*
X001017Y011055D01*
X001015Y011055D01*
X001011Y011053D01*
X001008Y011050D01*
X001007Y011047D01*
X001007Y011045D01*
X001007Y005988D01*
X001012Y005993D01*
X001052Y006034D01*
X001053Y006034D01*
X001302Y006280D01*
X001302Y006280D01*
X001302Y006380D01*
X001340Y006471D01*
X001410Y006542D01*
X001502Y006580D01*
X001601Y006580D01*
X001693Y006542D01*
X001764Y006471D01*
X001802Y006380D01*
X001802Y006280D01*
X001764Y006188D01*
X001693Y006118D01*
X001601Y006080D01*
X001502Y006080D01*
X001499Y006081D01*
X001250Y005835D01*
X001250Y004453D01*
X001543Y004160D01*
X003830Y004160D01*
X003940Y004049D01*
X003942Y004050D01*
X004041Y004050D01*
X004133Y004012D01*
X004204Y003941D01*
X004242Y003850D01*
X004242Y003750D01*
X004204Y003658D01*
X004195Y003650D01*
X004260Y003585D01*
X004298Y003493D01*
X004298Y003394D01*
X004260Y003302D01*
X004221Y003264D01*
X004260Y003225D01*
X004298Y003133D01*
X004298Y003034D01*
X004260Y002942D01*
X004190Y002872D01*
X004098Y002834D01*
X003998Y002834D01*
X003906Y002872D01*
X003836Y002942D01*
X003798Y003034D01*
X003798Y003133D01*
X003836Y003225D01*
X003874Y003264D01*
X003836Y003302D01*
X003798Y003394D01*
X003798Y003493D01*
X003836Y003585D01*
X003844Y003594D01*
X003780Y003658D01*
X003742Y003750D01*
X003742Y003850D01*
X003742Y003851D01*
X003714Y003880D01*
X001427Y003880D01*
X001345Y003962D01*
X001007Y004301D01*
X001007Y001801D01*
X001063Y001857D01*
X001154Y001895D01*
X001254Y001895D01*
X001329Y001864D01*
X001329Y001913D01*
X001367Y002005D01*
X001412Y002050D01*
X001365Y002097D01*
X001327Y002189D01*
X001327Y002288D01*
X001365Y002380D01*
X001435Y002450D01*
X001506Y002480D01*
X001469Y002495D01*
X001398Y002566D01*
X001360Y002658D01*
X001360Y002757D01*
X001398Y002849D01*
X001447Y002898D01*
X001438Y002902D01*
X001367Y002972D01*
X001329Y003064D01*
X001329Y003163D01*
X001367Y003255D01*
X001438Y003325D01*
X001501Y003352D01*
X001475Y003378D01*
X001437Y003470D01*
X001437Y003570D01*
X001475Y003661D01*
X001545Y003732D01*
X001637Y003770D01*
X001736Y003770D01*
X001828Y003732D01*
X001899Y003661D01*
X001937Y003570D01*
X001937Y003470D01*
X001899Y003378D01*
X001828Y003308D01*
X001765Y003282D01*
X001791Y003255D01*
X001829Y003163D01*
X001829Y003064D01*
X001791Y002972D01*
X001742Y002923D01*
X001752Y002919D01*
X001822Y002849D01*
X001860Y002757D01*
X001860Y002658D01*
X001860Y002656D01*
X001877Y002639D01*
X001959Y002557D01*
X001959Y002369D01*
X002000Y002328D01*
X002000Y001890D01*
X002168Y001722D01*
X007772Y001722D01*
X007747Y001783D01*
X007747Y001882D01*
X007785Y001974D01*
X007855Y002044D01*
X007947Y002082D01*
X008046Y002082D01*
X008138Y002044D01*
X008209Y001974D01*
X008247Y001882D01*
X008247Y001783D01*
X008222Y001722D01*
X009058Y001722D01*
X009085Y001786D01*
X008247Y001786D01*
X008247Y001865D02*
X009174Y001865D01*
X009155Y001857D02*
X009247Y001895D01*
X009346Y001895D01*
X009438Y001857D01*
X009477Y001818D01*
X009515Y001857D01*
X009607Y001895D01*
X009706Y001895D01*
X009798Y001857D01*
X009869Y001786D01*
X009779Y001865D02*
X010527Y001865D01*
X010527Y001943D02*
X008221Y001943D01*
X008161Y002022D02*
X010527Y002022D01*
X010527Y002100D02*
X005184Y002100D01*
X005197Y002070D02*
X005159Y002161D01*
X005155Y002165D01*
X006854Y002165D01*
X006989Y002242D01*
X007067Y002377D01*
X007067Y003671D01*
X006939Y004062D01*
X006939Y004062D01*
X006756Y004315D01*
X006815Y004339D01*
X006885Y004409D01*
X006923Y004501D01*
X006923Y004601D01*
X006885Y004693D01*
X006815Y004763D01*
X006723Y004801D01*
X006623Y004801D01*
X006531Y004763D01*
X006461Y004693D01*
X006423Y004601D01*
X006423Y004595D01*
X006364Y004638D01*
X005973Y004765D01*
X005952Y004765D01*
X005985Y004845D01*
X005985Y004874D01*
X006017Y004842D01*
X006179Y004775D01*
X006354Y004775D01*
X006516Y004842D01*
X006640Y004966D01*
X006707Y005127D01*
X006707Y005302D01*
X006640Y005464D01*
X006516Y005588D01*
X006451Y005615D01*
X006516Y005642D01*
X006640Y005766D01*
X006707Y005927D01*
X006707Y006102D01*
X006640Y006264D01*
X006516Y006388D01*
X006354Y006455D01*
X006179Y006455D01*
X006017Y006388D01*
X005894Y006264D01*
X005827Y006102D01*
X005827Y005927D01*
X005894Y005766D01*
X006017Y005642D01*
X006083Y005615D01*
X006017Y005588D01*
X005894Y005464D01*
X005827Y005302D01*
X005827Y005128D01*
X005785Y005145D01*
X005686Y005145D01*
X005594Y005107D01*
X005523Y005036D01*
X005485Y004945D01*
X005485Y004845D01*
X005523Y004753D01*
X005524Y004753D01*
X005169Y004638D01*
X004836Y004395D01*
X004594Y004062D01*
X004467Y003671D01*
X004467Y002377D01*
X004544Y002242D01*
X004679Y002165D01*
X004738Y002165D01*
X004735Y002161D01*
X004708Y002098D01*
X004699Y002121D01*
X004628Y002192D01*
X004536Y002230D01*
X004437Y002230D01*
X004345Y002192D01*
X004275Y002121D01*
X004237Y002030D01*
X004237Y001930D01*
X004275Y001838D01*
X004345Y001768D01*
X004437Y001730D01*
X004536Y001730D01*
X004628Y001768D01*
X004699Y001838D01*
X004725Y001902D01*
X004735Y001878D01*
X004805Y001808D01*
X004897Y001770D01*
X004996Y001770D01*
X005088Y001808D01*
X005159Y001878D01*
X005197Y001970D01*
X005197Y002070D01*
X005197Y002022D02*
X007833Y002022D01*
X007772Y001943D02*
X005186Y001943D01*
X005145Y001865D02*
X007747Y001865D01*
X007747Y001786D02*
X005036Y001786D01*
X004857Y001786D02*
X004647Y001786D01*
X004710Y001865D02*
X004748Y001865D01*
X004707Y002100D02*
X004709Y002100D01*
X004655Y002179D02*
X004641Y002179D01*
X004544Y002242D02*
X004544Y002242D01*
X004544Y002242D01*
X004536Y002257D02*
X002000Y002257D01*
X002000Y002179D02*
X004332Y002179D01*
X004266Y002100D02*
X002000Y002100D01*
X002000Y002022D02*
X004237Y002022D01*
X004237Y001943D02*
X002000Y001943D01*
X002026Y001865D02*
X004264Y001865D01*
X004327Y001786D02*
X002104Y001786D01*
X002110Y001582D02*
X001860Y001832D01*
X001860Y002270D01*
X001819Y002311D01*
X001819Y002499D01*
X001610Y002707D01*
X001381Y002807D02*
X001007Y002807D01*
X001007Y002885D02*
X001435Y002885D01*
X001375Y002964D02*
X001007Y002964D01*
X001007Y003042D02*
X001338Y003042D01*
X001329Y003121D02*
X001007Y003121D01*
X001007Y003199D02*
X001344Y003199D01*
X001390Y003278D02*
X001007Y003278D01*
X001007Y003356D02*
X001497Y003356D01*
X001451Y003435D02*
X001007Y003435D01*
X001007Y003513D02*
X001437Y003513D01*
X001446Y003592D02*
X001007Y003592D01*
X001007Y003670D02*
X001484Y003670D01*
X001586Y003749D02*
X001007Y003749D01*
X001007Y003827D02*
X002402Y003827D01*
X002405Y003830D02*
X002337Y003763D01*
X002301Y003675D01*
X002301Y003580D01*
X002337Y003492D01*
X002350Y003480D01*
X002337Y003468D01*
X002301Y003380D01*
X002301Y003285D01*
X002337Y003197D01*
X002350Y003185D01*
X002337Y003172D01*
X002301Y003085D01*
X002301Y002989D01*
X002337Y002902D01*
X002405Y002834D01*
X002493Y002798D01*
X002588Y002798D01*
X002676Y002834D01*
X002688Y002847D01*
X002700Y002834D01*
X002788Y002798D01*
X002883Y002798D01*
X002971Y002834D01*
X002983Y002847D01*
X002995Y002834D01*
X003083Y002798D01*
X003178Y002798D01*
X003266Y002834D01*
X003333Y002902D01*
X003370Y002989D01*
X003370Y003085D01*
X003333Y003172D01*
X003321Y003185D01*
X003333Y003197D01*
X003370Y003285D01*
X003370Y003380D01*
X003333Y003468D01*
X003321Y003480D01*
X003333Y003492D01*
X003370Y003580D01*
X003370Y003675D01*
X003333Y003763D01*
X003266Y003830D01*
X003178Y003867D01*
X003083Y003867D01*
X002995Y003830D01*
X002983Y003818D01*
X002971Y003830D01*
X002883Y003867D01*
X002788Y003867D01*
X002700Y003830D01*
X002688Y003818D01*
X002676Y003830D01*
X002588Y003867D01*
X002493Y003867D01*
X002405Y003830D01*
X002332Y003749D02*
X001787Y003749D01*
X001890Y003670D02*
X002301Y003670D01*
X002301Y003592D02*
X001927Y003592D01*
X001937Y003513D02*
X002329Y003513D01*
X002324Y003435D02*
X001922Y003435D01*
X001877Y003356D02*
X002301Y003356D01*
X002304Y003278D02*
X001768Y003278D01*
X001814Y003199D02*
X002336Y003199D01*
X002316Y003121D02*
X001829Y003121D01*
X001820Y003042D02*
X002301Y003042D01*
X002312Y002964D02*
X001783Y002964D01*
X001786Y002885D02*
X002354Y002885D01*
X002471Y002807D02*
X001840Y002807D01*
X001860Y002728D02*
X004467Y002728D01*
X004467Y002650D02*
X001866Y002650D01*
X001944Y002571D02*
X004467Y002571D01*
X004467Y002493D02*
X001959Y002493D01*
X001959Y002414D02*
X004467Y002414D01*
X004491Y002336D02*
X001992Y002336D01*
X001475Y002493D02*
X001007Y002493D01*
X001007Y002571D02*
X001396Y002571D01*
X001364Y002650D02*
X001007Y002650D01*
X001007Y002728D02*
X001360Y002728D01*
X001399Y002414D02*
X001007Y002414D01*
X001007Y002336D02*
X001346Y002336D01*
X001327Y002257D02*
X001007Y002257D01*
X001007Y002179D02*
X001331Y002179D01*
X001363Y002100D02*
X001007Y002100D01*
X001007Y002022D02*
X001384Y002022D01*
X001342Y001943D02*
X001007Y001943D01*
X001007Y001865D02*
X001082Y001865D01*
X001326Y001865D02*
X001329Y001865D01*
X002110Y001582D02*
X009235Y001582D01*
X009297Y001645D01*
X009419Y001865D02*
X009534Y001865D01*
X009155Y001857D02*
X009085Y001786D01*
X009375Y002558D02*
X009467Y002520D01*
X009566Y002520D01*
X009658Y002558D01*
X009729Y002628D01*
X009767Y002720D01*
X009767Y002820D01*
X009729Y002911D01*
X009658Y002982D01*
X009566Y003020D01*
X009467Y003020D01*
X009375Y002982D01*
X009305Y002911D01*
X009267Y002820D01*
X009267Y002720D01*
X009305Y002628D01*
X009375Y002558D01*
X009362Y002571D02*
X008797Y002571D01*
X008783Y002558D02*
X008854Y002628D01*
X008892Y002720D01*
X008892Y002820D01*
X008854Y002911D01*
X008783Y002982D01*
X008691Y003020D01*
X008592Y003020D01*
X008500Y002982D01*
X008430Y002911D01*
X008392Y002820D01*
X008392Y002720D01*
X008430Y002628D01*
X008500Y002558D01*
X008592Y002520D01*
X008691Y002520D01*
X008783Y002558D01*
X008863Y002650D02*
X009296Y002650D01*
X009267Y002728D02*
X008892Y002728D01*
X008892Y002807D02*
X009267Y002807D01*
X009294Y002885D02*
X008864Y002885D01*
X008801Y002964D02*
X009357Y002964D01*
X009676Y002964D02*
X010527Y002964D01*
X010527Y003042D02*
X007779Y003042D01*
X007779Y003085D02*
X007741Y003176D01*
X007671Y003247D01*
X007579Y003285D01*
X007479Y003285D01*
X007388Y003247D01*
X007317Y003176D01*
X007279Y003085D01*
X007279Y002985D01*
X007317Y002893D01*
X007369Y002841D01*
X007345Y002816D01*
X007307Y002725D01*
X007307Y002635D01*
X007292Y002635D01*
X007200Y002597D01*
X007130Y002526D01*
X007092Y002435D01*
X007092Y002335D01*
X007130Y002243D01*
X007200Y002173D01*
X007292Y002135D01*
X007391Y002135D01*
X007483Y002173D01*
X007554Y002243D01*
X007592Y002335D01*
X007592Y002425D01*
X007606Y002425D01*
X007698Y002463D01*
X007769Y002533D01*
X007807Y002625D01*
X007807Y002725D01*
X007769Y002816D01*
X007716Y002869D01*
X007741Y002893D01*
X007779Y002985D01*
X007779Y003085D01*
X007764Y003121D02*
X010527Y003121D01*
X010527Y003199D02*
X007718Y003199D01*
X007596Y003278D02*
X010527Y003278D01*
X010527Y003356D02*
X007067Y003356D01*
X007067Y003278D02*
X007463Y003278D01*
X007340Y003199D02*
X007067Y003199D01*
X007067Y003121D02*
X007294Y003121D01*
X007279Y003042D02*
X007067Y003042D01*
X007067Y002964D02*
X007288Y002964D01*
X007325Y002885D02*
X007067Y002885D01*
X007067Y002807D02*
X007341Y002807D01*
X007308Y002728D02*
X007067Y002728D01*
X007067Y002650D02*
X007307Y002650D01*
X007175Y002571D02*
X007067Y002571D01*
X007067Y002493D02*
X007116Y002493D01*
X007092Y002414D02*
X007067Y002414D01*
X007043Y002336D02*
X007092Y002336D01*
X007124Y002257D02*
X006997Y002257D01*
X006989Y002242D02*
X006989Y002242D01*
X006879Y002179D02*
X007194Y002179D01*
X007489Y002179D02*
X010527Y002179D01*
X010527Y002257D02*
X007559Y002257D01*
X007592Y002336D02*
X010527Y002336D01*
X010527Y002414D02*
X007592Y002414D01*
X007728Y002493D02*
X010527Y002493D01*
X010527Y002571D02*
X009672Y002571D01*
X009738Y002650D02*
X010527Y002650D01*
X010527Y002728D02*
X009767Y002728D01*
X009767Y002807D02*
X010527Y002807D01*
X010527Y002885D02*
X009739Y002885D01*
X009566Y003395D02*
X009467Y003395D01*
X009375Y003433D01*
X009305Y003503D01*
X009267Y003595D01*
X009267Y003695D01*
X009305Y003786D01*
X009375Y003857D01*
X009467Y003895D01*
X009566Y003895D01*
X009658Y003857D01*
X009729Y003786D01*
X009767Y003695D01*
X009767Y003595D01*
X009729Y003503D01*
X009658Y003433D01*
X009566Y003395D01*
X009660Y003435D02*
X010527Y003435D01*
X010527Y003513D02*
X009733Y003513D01*
X009765Y003592D02*
X010527Y003592D01*
X010527Y003670D02*
X009767Y003670D01*
X009744Y003749D02*
X010527Y003749D01*
X010527Y003827D02*
X009688Y003827D01*
X009346Y003827D02*
X008813Y003827D01*
X008783Y003857D02*
X008854Y003786D01*
X008892Y003695D01*
X008892Y003595D01*
X008854Y003503D01*
X008783Y003433D01*
X008691Y003395D01*
X008592Y003395D01*
X008500Y003433D01*
X008430Y003503D01*
X008392Y003595D01*
X008392Y003695D01*
X008430Y003786D01*
X008500Y003857D01*
X008592Y003895D01*
X008691Y003895D01*
X008783Y003857D01*
X008869Y003749D02*
X009289Y003749D01*
X009267Y003670D02*
X008892Y003670D01*
X008890Y003592D02*
X009268Y003592D01*
X009301Y003513D02*
X008858Y003513D01*
X008785Y003435D02*
X009373Y003435D01*
X008498Y003435D02*
X007067Y003435D01*
X007067Y003513D02*
X008426Y003513D01*
X008393Y003592D02*
X007067Y003592D01*
X007067Y003670D02*
X008392Y003670D01*
X008414Y003749D02*
X007041Y003749D01*
X007016Y003827D02*
X008471Y003827D01*
X008176Y004472D02*
X008077Y004472D01*
X007985Y004510D01*
X007915Y004581D01*
X007877Y004673D01*
X007877Y004772D01*
X007915Y004864D01*
X007985Y004934D01*
X008077Y004972D01*
X008176Y004972D01*
X008268Y004934D01*
X008339Y004864D01*
X008377Y004772D01*
X008377Y004673D01*
X008339Y004581D01*
X008268Y004510D01*
X008176Y004472D01*
X008292Y004534D02*
X010527Y004534D01*
X010527Y004612D02*
X008352Y004612D01*
X008377Y004691D02*
X010527Y004691D01*
X010527Y004769D02*
X008377Y004769D01*
X008345Y004848D02*
X010527Y004848D01*
X010527Y004926D02*
X008276Y004926D01*
X008354Y005175D02*
X008179Y005175D01*
X008017Y005242D01*
X007894Y005366D01*
X007827Y005527D01*
X007827Y005702D01*
X007894Y005864D01*
X008017Y005988D01*
X008179Y006055D01*
X008354Y006055D01*
X008516Y005988D01*
X008640Y005864D01*
X008707Y005702D01*
X008707Y005527D01*
X008640Y005366D01*
X008516Y005242D01*
X008354Y005175D01*
X008512Y005240D02*
X010193Y005240D01*
X010153Y005319D02*
X008593Y005319D01*
X008653Y005397D02*
X009961Y005397D01*
X010072Y005397D02*
X010142Y005397D01*
X010267Y005633D02*
X010313Y005633D01*
X010260Y005711D02*
X010527Y005711D01*
X010527Y005633D02*
X010470Y005633D01*
X010527Y005790D02*
X010225Y005790D01*
X010268Y005868D02*
X010130Y005868D01*
X010142Y005947D02*
X008557Y005947D01*
X008635Y005868D02*
X009903Y005868D01*
X009808Y005790D02*
X008670Y005790D01*
X008703Y005711D02*
X009774Y005711D01*
X009767Y005633D02*
X008707Y005633D01*
X008707Y005554D02*
X009784Y005554D01*
X009832Y005476D02*
X008685Y005476D01*
X008425Y006025D02*
X010095Y006025D01*
X010079Y006104D02*
X007267Y006104D01*
X007267Y006095D02*
X007229Y006003D01*
X007158Y005933D01*
X007066Y005895D01*
X006967Y005895D01*
X006875Y005933D01*
X006805Y006003D01*
X006767Y006095D01*
X006767Y006195D01*
X006805Y006286D01*
X006875Y006357D01*
X006967Y006395D01*
X007066Y006395D01*
X007158Y006357D01*
X007229Y006286D01*
X007267Y006195D01*
X007267Y006095D01*
X007238Y006025D02*
X008108Y006025D01*
X007976Y005947D02*
X007172Y005947D01*
X007267Y006182D02*
X007728Y006182D01*
X007637Y006261D02*
X007239Y006261D01*
X007176Y006339D02*
X007605Y006339D01*
X007602Y006418D02*
X006444Y006418D01*
X006564Y006339D02*
X006858Y006339D01*
X006794Y006261D02*
X006641Y006261D01*
X006674Y006182D02*
X006767Y006182D01*
X006767Y006104D02*
X006706Y006104D01*
X006707Y006025D02*
X006796Y006025D01*
X006861Y005947D02*
X006707Y005947D01*
X006682Y005868D02*
X007898Y005868D01*
X007863Y005790D02*
X006650Y005790D01*
X006585Y005711D02*
X007830Y005711D01*
X007827Y005633D02*
X006494Y005633D01*
X006549Y005554D02*
X007827Y005554D01*
X007848Y005476D02*
X006628Y005476D01*
X006667Y005397D02*
X007881Y005397D01*
X007940Y005319D02*
X006700Y005319D01*
X006707Y005240D02*
X008021Y005240D01*
X007977Y004926D02*
X006600Y004926D01*
X006656Y005005D02*
X010527Y005005D01*
X010527Y005083D02*
X006688Y005083D01*
X006707Y005162D02*
X010301Y005162D01*
X010482Y005162D02*
X010527Y005162D01*
X010527Y005868D02*
X010390Y005868D01*
X010516Y005947D02*
X010527Y005947D01*
X010527Y006339D02*
X010437Y006339D01*
X010527Y006418D02*
X009548Y006418D01*
X009546Y006339D02*
X010221Y006339D01*
X010123Y006261D02*
X009513Y006261D01*
X009438Y006182D02*
X010087Y006182D01*
X010527Y006496D02*
X009526Y006496D01*
X009471Y006575D02*
X010527Y006575D01*
X010527Y006653D02*
X009107Y006653D01*
X009107Y006575D02*
X009124Y006575D01*
X009107Y006732D02*
X010527Y006732D01*
X010527Y006810D02*
X009107Y006810D01*
X009107Y006889D02*
X010527Y006889D01*
X010527Y006967D02*
X009107Y006967D01*
X009107Y007046D02*
X010527Y007046D01*
X010527Y007124D02*
X009107Y007124D01*
X009107Y007203D02*
X010527Y007203D01*
X010527Y007281D02*
X010469Y007281D01*
X010314Y007281D02*
X009344Y007281D01*
X009460Y007360D02*
X010198Y007360D01*
X010155Y007438D02*
X009504Y007438D01*
X009517Y007517D02*
X010142Y007517D01*
X010152Y007595D02*
X009506Y007595D01*
X009466Y007674D02*
X010192Y007674D01*
X010300Y007752D02*
X009359Y007752D01*
X009392Y007895D02*
X009392Y008395D01*
X008767Y008395D01*
X008727Y008520D01*
X008727Y009305D01*
X008457Y009305D01*
X008457Y006985D01*
X008727Y006985D01*
X008727Y007770D01*
X008767Y007895D01*
X009392Y007895D01*
X009392Y007909D02*
X008457Y007909D01*
X008457Y007831D02*
X008746Y007831D01*
X008727Y007752D02*
X008457Y007752D01*
X008457Y007674D02*
X008727Y007674D01*
X008727Y007595D02*
X008457Y007595D01*
X008457Y007517D02*
X008727Y007517D01*
X008727Y007438D02*
X008457Y007438D01*
X008457Y007360D02*
X008727Y007360D01*
X008727Y007281D02*
X008457Y007281D01*
X008457Y007203D02*
X008727Y007203D01*
X008727Y007124D02*
X008457Y007124D01*
X008457Y007046D02*
X008727Y007046D01*
X009107Y007281D02*
X009189Y007281D01*
X009526Y007831D02*
X010527Y007831D01*
X010527Y007909D02*
X009532Y007909D01*
X009532Y007988D02*
X010527Y007988D01*
X010527Y008066D02*
X009532Y008066D01*
X009532Y008145D02*
X010527Y008145D01*
X010527Y008223D02*
X009532Y008223D01*
X009532Y008302D02*
X010527Y008302D01*
X010527Y008380D02*
X009532Y008380D01*
X009526Y008459D02*
X010224Y008459D01*
X010166Y008537D02*
X009107Y008537D01*
X009107Y008616D02*
X010142Y008616D01*
X010142Y008694D02*
X009107Y008694D01*
X009107Y008773D02*
X010174Y008773D01*
X010245Y008851D02*
X009107Y008851D01*
X009107Y008930D02*
X010527Y008930D01*
X010527Y009008D02*
X009107Y009008D01*
X009107Y009087D02*
X010527Y009087D01*
X010527Y009165D02*
X009107Y009165D01*
X009107Y009244D02*
X010527Y009244D01*
X009392Y008380D02*
X008457Y008380D01*
X008457Y008302D02*
X009392Y008302D01*
X009392Y008223D02*
X008457Y008223D01*
X008457Y008145D02*
X009392Y008145D01*
X009392Y008066D02*
X008457Y008066D01*
X008457Y007988D02*
X009392Y007988D01*
X008746Y008459D02*
X008457Y008459D01*
X008457Y008537D02*
X008727Y008537D01*
X008727Y008616D02*
X008457Y008616D01*
X008457Y008694D02*
X008727Y008694D01*
X008727Y008773D02*
X008457Y008773D01*
X008457Y008851D02*
X008727Y008851D01*
X008727Y008930D02*
X008457Y008930D01*
X008457Y009008D02*
X008727Y009008D01*
X008727Y009087D02*
X008457Y009087D01*
X008457Y009165D02*
X008727Y009165D01*
X008727Y009244D02*
X008457Y009244D01*
X007602Y009244D02*
X004278Y009244D01*
X004260Y009286D02*
X004298Y009195D01*
X004298Y009095D01*
X004260Y009003D01*
X004190Y008933D01*
X004098Y008895D01*
X003998Y008895D01*
X003932Y008922D01*
X003932Y006697D01*
X003895Y006609D01*
X003828Y006541D01*
X003739Y006505D01*
X002619Y006505D01*
X002531Y006541D01*
X002463Y006609D01*
X002427Y006697D01*
X002427Y006793D01*
X002427Y007755D01*
X002084Y007755D01*
X002002Y007837D01*
X002002Y008453D01*
X002084Y008535D01*
X002117Y008535D01*
X002086Y008566D01*
X002048Y008658D01*
X002048Y008757D01*
X002086Y008849D01*
X002101Y008864D01*
X002061Y008864D01*
X001969Y008902D01*
X001954Y008916D01*
X001954Y008845D01*
X001916Y008753D01*
X001846Y008683D01*
X001754Y008645D01*
X001654Y008645D01*
X001563Y008683D01*
X001492Y008753D01*
X001454Y008845D01*
X001454Y008945D01*
X001492Y009036D01*
X001563Y009107D01*
X001654Y009145D01*
X001754Y009145D01*
X001846Y009107D01*
X001860Y009092D01*
X001860Y009163D01*
X001898Y009255D01*
X001969Y009325D01*
X002061Y009364D01*
X002160Y009364D01*
X002252Y009325D01*
X002322Y009255D01*
X002360Y009163D01*
X002360Y009064D01*
X002322Y008972D01*
X002308Y008957D01*
X002348Y008957D01*
X002427Y008925D01*
X002427Y009593D01*
X002463Y009681D01*
X002531Y009748D01*
X002619Y009785D01*
X003739Y009785D01*
X003828Y009748D01*
X003895Y009681D01*
X003932Y009593D01*
X003932Y009367D01*
X003998Y009395D01*
X004098Y009395D01*
X004190Y009357D01*
X004260Y009286D01*
X004224Y009322D02*
X005329Y009322D01*
X005344Y009308D02*
X005436Y009270D01*
X005535Y009270D01*
X005627Y009308D01*
X005697Y009378D01*
X005735Y009470D01*
X005735Y009570D01*
X005697Y009661D01*
X005627Y009732D01*
X005535Y009770D01*
X005436Y009770D01*
X005344Y009732D01*
X005273Y009661D01*
X005235Y009570D01*
X005235Y009470D01*
X005273Y009378D01*
X005344Y009308D01*
X005264Y009401D02*
X003932Y009401D01*
X003932Y009479D02*
X005235Y009479D01*
X005235Y009558D02*
X003932Y009558D01*
X003914Y009636D02*
X005263Y009636D01*
X005327Y009715D02*
X003861Y009715D01*
X004298Y009165D02*
X007602Y009165D01*
X007602Y009087D02*
X004294Y009087D01*
X004262Y009008D02*
X007602Y009008D01*
X007602Y008930D02*
X005261Y008930D01*
X005268Y008927D02*
X005176Y008965D01*
X005077Y008965D01*
X004985Y008927D01*
X004915Y008856D01*
X004877Y008765D01*
X004877Y008665D01*
X004915Y008573D01*
X004985Y008503D01*
X005077Y008465D01*
X005176Y008465D01*
X005268Y008503D01*
X005339Y008573D01*
X005377Y008665D01*
X005377Y008765D01*
X005339Y008856D01*
X005268Y008927D01*
X005341Y008851D02*
X007602Y008851D01*
X007602Y008773D02*
X005373Y008773D01*
X005377Y008694D02*
X006172Y008694D01*
X006186Y008700D02*
X006094Y008662D01*
X006023Y008591D01*
X005985Y008500D01*
X005985Y008400D01*
X006023Y008308D01*
X006094Y008238D01*
X006186Y008200D01*
X006285Y008200D01*
X006377Y008238D01*
X006447Y008308D01*
X006485Y008400D01*
X006485Y008500D01*
X006447Y008591D01*
X006377Y008662D01*
X006285Y008700D01*
X006186Y008700D01*
X006298Y008694D02*
X007602Y008694D01*
X007602Y008616D02*
X006423Y008616D01*
X006470Y008537D02*
X007602Y008537D01*
X007602Y008459D02*
X006485Y008459D01*
X006477Y008380D02*
X007602Y008380D01*
X007602Y008302D02*
X006441Y008302D01*
X006342Y008223D02*
X007602Y008223D01*
X007602Y008145D02*
X003932Y008145D01*
X003932Y008223D02*
X006129Y008223D01*
X006030Y008302D02*
X003932Y008302D01*
X003932Y008380D02*
X005994Y008380D01*
X005985Y008459D02*
X003932Y008459D01*
X003932Y008537D02*
X004951Y008537D01*
X004897Y008616D02*
X003932Y008616D01*
X003932Y008694D02*
X004877Y008694D01*
X004880Y008773D02*
X003932Y008773D01*
X003932Y008851D02*
X004913Y008851D01*
X004992Y008930D02*
X004182Y008930D01*
X004154Y008082D02*
X004063Y008044D01*
X003992Y007974D01*
X003954Y007882D01*
X003954Y007783D01*
X003992Y007691D01*
X004063Y007620D01*
X004154Y007582D01*
X004254Y007582D01*
X004346Y007620D01*
X004416Y007691D01*
X004454Y007783D01*
X004454Y007882D01*
X004416Y007974D01*
X004346Y008044D01*
X004254Y008082D01*
X004154Y008082D01*
X004116Y008066D02*
X003932Y008066D01*
X003932Y007988D02*
X004006Y007988D01*
X003965Y007909D02*
X003932Y007909D01*
X003932Y007831D02*
X003954Y007831D01*
X003967Y007752D02*
X003932Y007752D01*
X003932Y007674D02*
X004009Y007674D01*
X003932Y007595D02*
X004123Y007595D01*
X004285Y007595D02*
X007602Y007595D01*
X007602Y007517D02*
X006686Y007517D01*
X006658Y007544D02*
X006566Y007582D01*
X006467Y007582D01*
X006375Y007544D01*
X006305Y007474D01*
X006267Y007382D01*
X006267Y007283D01*
X006305Y007191D01*
X006375Y007120D01*
X006467Y007082D01*
X006566Y007082D01*
X006658Y007120D01*
X006729Y007191D01*
X006767Y007283D01*
X006767Y007382D01*
X006729Y007474D01*
X006658Y007544D01*
X006743Y007438D02*
X007602Y007438D01*
X007602Y007360D02*
X006767Y007360D01*
X006766Y007281D02*
X007602Y007281D01*
X007602Y007203D02*
X007484Y007203D01*
X007362Y007203D02*
X006734Y007203D01*
X006662Y007124D02*
X007236Y007124D01*
X007189Y007046D02*
X004407Y007046D01*
X004416Y007036D02*
X004346Y007107D01*
X004254Y007145D01*
X004154Y007145D01*
X004063Y007107D01*
X003992Y007036D01*
X003954Y006945D01*
X003954Y006845D01*
X003992Y006753D01*
X004063Y006683D01*
X004154Y006645D01*
X004254Y006645D01*
X004346Y006683D01*
X004416Y006753D01*
X004454Y006845D01*
X004454Y006945D01*
X004416Y007036D01*
X004445Y006967D02*
X007173Y006967D01*
X007181Y006889D02*
X004454Y006889D01*
X004440Y006810D02*
X007216Y006810D01*
X007314Y006732D02*
X004395Y006732D01*
X004386Y006622D02*
X004287Y006622D01*
X004195Y006584D01*
X004125Y006514D01*
X004087Y006422D01*
X004087Y006323D01*
X004125Y006231D01*
X004195Y006160D01*
X004287Y006122D01*
X004386Y006122D01*
X004478Y006160D01*
X004549Y006231D01*
X004587Y006323D01*
X004587Y006422D01*
X004549Y006514D01*
X004478Y006584D01*
X004386Y006622D01*
X004488Y006575D02*
X007602Y006575D01*
X007602Y006653D02*
X004274Y006653D01*
X004186Y006575D02*
X003861Y006575D01*
X003914Y006653D02*
X004134Y006653D01*
X004014Y006732D02*
X003932Y006732D01*
X003932Y006810D02*
X003969Y006810D01*
X003954Y006889D02*
X003932Y006889D01*
X003932Y006967D02*
X003964Y006967D01*
X003932Y007046D02*
X004002Y007046D01*
X003932Y007124D02*
X004105Y007124D01*
X004303Y007124D02*
X006371Y007124D01*
X006300Y007203D02*
X003932Y007203D01*
X003932Y007281D02*
X006267Y007281D01*
X006267Y007360D02*
X003932Y007360D01*
X003932Y007438D02*
X006290Y007438D01*
X006348Y007517D02*
X003932Y007517D01*
X004399Y007674D02*
X007602Y007674D01*
X007602Y007752D02*
X004442Y007752D01*
X004454Y007831D02*
X007602Y007831D01*
X007602Y007909D02*
X004443Y007909D01*
X004402Y007988D02*
X007602Y007988D01*
X007602Y008066D02*
X004293Y008066D01*
X005303Y008537D02*
X006001Y008537D01*
X006048Y008616D02*
X005356Y008616D01*
X005641Y009322D02*
X007602Y009322D01*
X007602Y009401D02*
X005707Y009401D01*
X005735Y009479D02*
X007602Y009479D01*
X007602Y009558D02*
X005735Y009558D01*
X005708Y009636D02*
X007602Y009636D01*
X007602Y009715D02*
X005644Y009715D01*
X005904Y010735D02*
X001007Y010735D01*
X001007Y010657D02*
X007767Y010657D01*
X007767Y010735D02*
X006192Y010735D01*
X006264Y010814D02*
X007767Y010814D01*
X007767Y010892D02*
X006297Y010892D01*
X006298Y010971D02*
X007767Y010971D01*
X007767Y011049D02*
X006275Y011049D01*
X005821Y011049D02*
X001008Y011049D01*
X001007Y010971D02*
X005798Y010971D01*
X005799Y010892D02*
X001007Y010892D01*
X001007Y010814D02*
X005832Y010814D01*
X007637Y010029D02*
X002885Y010029D01*
X002887Y010033D02*
X002849Y009941D01*
X002778Y009870D01*
X002686Y009832D01*
X002587Y009832D01*
X002495Y009870D01*
X002425Y009941D01*
X002387Y010033D01*
X002387Y010132D01*
X002425Y010224D01*
X002495Y010294D01*
X002587Y010332D01*
X002686Y010332D01*
X002778Y010294D01*
X002849Y010224D01*
X002887Y010132D01*
X002887Y010033D01*
X002887Y010107D02*
X007728Y010107D01*
X007767Y010186D02*
X002864Y010186D01*
X002808Y010264D02*
X007767Y010264D01*
X007767Y010343D02*
X001007Y010343D01*
X001007Y010421D02*
X007767Y010421D01*
X007767Y010500D02*
X001007Y010500D01*
X001007Y010578D02*
X007767Y010578D01*
X007605Y009950D02*
X002853Y009950D01*
X002780Y009872D02*
X007602Y009872D01*
X007602Y009793D02*
X001007Y009793D01*
X001007Y009715D02*
X002497Y009715D01*
X002445Y009636D02*
X001007Y009636D01*
X001007Y009558D02*
X002427Y009558D01*
X002427Y009479D02*
X001007Y009479D01*
X001007Y009401D02*
X002427Y009401D01*
X002427Y009322D02*
X002255Y009322D01*
X002327Y009244D02*
X002427Y009244D01*
X002427Y009165D02*
X002360Y009165D01*
X002360Y009087D02*
X002427Y009087D01*
X002427Y009008D02*
X002337Y009008D01*
X002414Y008930D02*
X002427Y008930D01*
X002088Y008851D02*
X001954Y008851D01*
X001924Y008773D02*
X002054Y008773D01*
X002048Y008694D02*
X001857Y008694D01*
X002065Y008616D02*
X001007Y008616D01*
X001007Y008694D02*
X001551Y008694D01*
X001484Y008773D02*
X001007Y008773D01*
X001007Y008851D02*
X001454Y008851D01*
X001454Y008930D02*
X001007Y008930D01*
X001007Y009008D02*
X001481Y009008D01*
X001543Y009087D02*
X001007Y009087D01*
X001007Y009165D02*
X001861Y009165D01*
X001894Y009244D02*
X001007Y009244D01*
X001007Y009322D02*
X001966Y009322D01*
X002494Y009872D02*
X001007Y009872D01*
X001007Y009950D02*
X002421Y009950D01*
X002388Y010029D02*
X001007Y010029D01*
X001007Y010107D02*
X002387Y010107D01*
X002409Y010186D02*
X001007Y010186D01*
X001007Y010264D02*
X002465Y010264D01*
X002807Y009305D02*
X002807Y008520D01*
X002767Y008395D01*
X002142Y008395D01*
X002142Y007895D01*
X002767Y007895D01*
X002807Y007770D01*
X002807Y006985D01*
X003077Y006985D01*
X003077Y009305D01*
X002807Y009305D01*
X002807Y009244D02*
X003077Y009244D01*
X003077Y009165D02*
X002807Y009165D01*
X002807Y009087D02*
X003077Y009087D01*
X003077Y009008D02*
X002807Y009008D01*
X002807Y008930D02*
X003077Y008930D01*
X003077Y008851D02*
X002807Y008851D01*
X002807Y008773D02*
X003077Y008773D01*
X003077Y008694D02*
X002807Y008694D01*
X002807Y008616D02*
X003077Y008616D01*
X003077Y008537D02*
X002807Y008537D01*
X002787Y008459D02*
X003077Y008459D01*
X003077Y008380D02*
X002142Y008380D01*
X002142Y008302D02*
X003077Y008302D01*
X003077Y008223D02*
X002142Y008223D01*
X002142Y008145D02*
X003077Y008145D01*
X003077Y008066D02*
X002142Y008066D01*
X002142Y007988D02*
X003077Y007988D01*
X003077Y007909D02*
X002142Y007909D01*
X002002Y007909D02*
X001007Y007909D01*
X001007Y007831D02*
X002008Y007831D01*
X002002Y007988D02*
X001007Y007988D01*
X001007Y008066D02*
X002002Y008066D01*
X002002Y008145D02*
X001007Y008145D01*
X001007Y008223D02*
X002002Y008223D01*
X002002Y008302D02*
X001007Y008302D01*
X001007Y008380D02*
X002002Y008380D01*
X002008Y008459D02*
X001007Y008459D01*
X001007Y008537D02*
X002114Y008537D01*
X002427Y007752D02*
X001007Y007752D01*
X001007Y007674D02*
X002427Y007674D01*
X002427Y007595D02*
X001007Y007595D01*
X001007Y007517D02*
X001415Y007517D01*
X001406Y007513D02*
X001336Y007443D01*
X001298Y007351D01*
X001298Y007251D01*
X001336Y007159D01*
X001406Y007089D01*
X001498Y007051D01*
X001598Y007051D01*
X001690Y007089D01*
X001760Y007159D01*
X001798Y007251D01*
X001798Y007351D01*
X001760Y007443D01*
X001690Y007513D01*
X001598Y007551D01*
X001498Y007551D01*
X001406Y007513D01*
X001334Y007438D02*
X001007Y007438D01*
X001007Y007360D02*
X001302Y007360D01*
X001298Y007281D02*
X001007Y007281D01*
X001007Y007203D02*
X001318Y007203D01*
X001371Y007124D02*
X001007Y007124D01*
X001007Y007046D02*
X002427Y007046D01*
X002427Y007124D02*
X001725Y007124D01*
X001778Y007203D02*
X002427Y007203D01*
X002427Y007281D02*
X001798Y007281D01*
X001794Y007360D02*
X002427Y007360D01*
X002427Y007438D02*
X001762Y007438D01*
X001680Y007517D02*
X002427Y007517D01*
X002807Y007517D02*
X003077Y007517D01*
X003077Y007595D02*
X002807Y007595D01*
X002807Y007674D02*
X003077Y007674D01*
X003077Y007752D02*
X002807Y007752D01*
X002787Y007831D02*
X003077Y007831D01*
X003077Y007438D02*
X002807Y007438D01*
X002807Y007360D02*
X003077Y007360D01*
X003077Y007281D02*
X002807Y007281D01*
X002807Y007203D02*
X003077Y007203D01*
X003077Y007124D02*
X002807Y007124D01*
X002807Y007046D02*
X003077Y007046D01*
X002427Y006967D02*
X001007Y006967D01*
X001007Y006889D02*
X002427Y006889D01*
X002427Y006810D02*
X001007Y006810D01*
X001007Y006732D02*
X002427Y006732D01*
X002445Y006653D02*
X001007Y006653D01*
X001007Y006575D02*
X001490Y006575D01*
X001613Y006575D02*
X002497Y006575D01*
X003016Y005990D02*
X002892Y005865D01*
X002824Y005703D01*
X002824Y005671D01*
X002754Y005700D01*
X002654Y005700D01*
X002563Y005662D01*
X002492Y005591D01*
X002454Y005500D01*
X002454Y005400D01*
X002492Y005308D01*
X002563Y005238D01*
X002589Y005227D01*
X002565Y005217D01*
X002495Y005146D01*
X002457Y005055D01*
X002457Y004955D01*
X002495Y004863D01*
X002531Y004827D01*
X002490Y004786D01*
X002452Y004695D01*
X002452Y004595D01*
X002490Y004503D01*
X002560Y004433D01*
X002652Y004395D01*
X002751Y004395D01*
X002843Y004433D01*
X002914Y004503D01*
X002952Y004595D01*
X002952Y004695D01*
X002914Y004786D01*
X002878Y004822D01*
X002919Y004863D01*
X002957Y004955D01*
X002957Y005055D01*
X002919Y005146D01*
X002848Y005217D01*
X002822Y005228D01*
X002846Y005238D01*
X002916Y005308D01*
X002925Y005330D01*
X003016Y005240D01*
X003179Y005172D01*
X003355Y005172D01*
X003517Y005240D01*
X003642Y005364D01*
X003709Y005527D01*
X003709Y005703D01*
X003642Y005865D01*
X003517Y005990D01*
X003355Y006057D01*
X003179Y006057D01*
X003016Y005990D01*
X002973Y005947D02*
X001363Y005947D01*
X001284Y005868D02*
X002894Y005868D01*
X002860Y005790D02*
X001250Y005790D01*
X001250Y005711D02*
X002828Y005711D01*
X002534Y005633D02*
X001250Y005633D01*
X001250Y005554D02*
X002477Y005554D01*
X002454Y005476D02*
X002317Y005476D01*
X002283Y005510D02*
X002354Y005439D01*
X002392Y005348D01*
X002392Y005248D01*
X002354Y005156D01*
X002283Y005086D01*
X002219Y005059D01*
X002235Y005020D01*
X002235Y004920D01*
X002197Y004828D01*
X002127Y004758D01*
X002035Y004720D01*
X001936Y004720D01*
X001844Y004758D01*
X001773Y004828D01*
X001735Y004920D01*
X001735Y005020D01*
X001773Y005111D01*
X001844Y005182D01*
X001908Y005208D01*
X001892Y005248D01*
X001892Y005348D01*
X001930Y005439D01*
X002000Y005510D01*
X002092Y005548D01*
X002191Y005548D01*
X002283Y005510D01*
X002371Y005397D02*
X002455Y005397D01*
X002488Y005319D02*
X002392Y005319D01*
X002388Y005240D02*
X002560Y005240D01*
X002510Y005162D02*
X002356Y005162D01*
X002277Y005083D02*
X002469Y005083D01*
X002457Y005005D02*
X002235Y005005D01*
X002235Y004926D02*
X002469Y004926D01*
X002510Y004848D02*
X002205Y004848D01*
X002138Y004769D02*
X002483Y004769D01*
X002452Y004691D02*
X001250Y004691D01*
X001250Y004769D02*
X001832Y004769D01*
X001765Y004848D02*
X001250Y004848D01*
X001250Y004926D02*
X001735Y004926D01*
X001735Y005005D02*
X001250Y005005D01*
X001250Y005083D02*
X001762Y005083D01*
X001824Y005162D02*
X001250Y005162D01*
X001250Y005240D02*
X001895Y005240D01*
X001892Y005319D02*
X001250Y005319D01*
X001250Y005397D02*
X001912Y005397D01*
X001966Y005476D02*
X001250Y005476D01*
X001110Y005894D02*
X001110Y004395D01*
X001485Y004020D01*
X003772Y004020D01*
X003992Y003800D01*
X004218Y003906D02*
X004543Y003906D01*
X004569Y003984D02*
X004161Y003984D01*
X004242Y003827D02*
X004518Y003827D01*
X004492Y003749D02*
X004241Y003749D01*
X004209Y003670D02*
X004467Y003670D01*
X004467Y003592D02*
X004253Y003592D01*
X004290Y003513D02*
X004467Y003513D01*
X004467Y003435D02*
X004298Y003435D01*
X004282Y003356D02*
X004467Y003356D01*
X004467Y003278D02*
X004236Y003278D01*
X004271Y003199D02*
X004467Y003199D01*
X004467Y003121D02*
X004298Y003121D01*
X004298Y003042D02*
X004467Y003042D01*
X004467Y002964D02*
X004269Y002964D01*
X004203Y002885D02*
X004467Y002885D01*
X004467Y002807D02*
X003200Y002807D01*
X003062Y002807D02*
X002904Y002807D01*
X002767Y002807D02*
X002609Y002807D01*
X003317Y002885D02*
X003893Y002885D01*
X003827Y002964D02*
X003359Y002964D01*
X003370Y003042D02*
X003798Y003042D01*
X003798Y003121D02*
X003355Y003121D01*
X003334Y003199D02*
X003825Y003199D01*
X003860Y003278D02*
X003367Y003278D01*
X003370Y003356D02*
X003813Y003356D01*
X003798Y003435D02*
X003347Y003435D01*
X003342Y003513D02*
X003806Y003513D01*
X003843Y003592D02*
X003370Y003592D01*
X003370Y003670D02*
X003775Y003670D01*
X003742Y003749D02*
X003339Y003749D01*
X003269Y003827D02*
X003742Y003827D01*
X003927Y004063D02*
X004594Y004063D01*
X004594Y004062D02*
X004594Y004062D01*
X004651Y004141D02*
X003848Y004141D01*
X003718Y004308D02*
X003626Y004270D01*
X003527Y004270D01*
X003435Y004308D01*
X003365Y004378D01*
X003327Y004470D01*
X003327Y004570D01*
X003347Y004619D01*
X003326Y004598D01*
X003234Y004560D01*
X003134Y004560D01*
X003043Y004598D01*
X002972Y004668D01*
X002934Y004760D01*
X002934Y004860D01*
X002972Y004951D01*
X003043Y005022D01*
X003134Y005060D01*
X003234Y005060D01*
X003326Y005022D01*
X003396Y004951D01*
X003434Y004860D01*
X003434Y004760D01*
X003414Y004710D01*
X003435Y004732D01*
X003527Y004770D01*
X003626Y004770D01*
X003718Y004732D01*
X003745Y004705D01*
X003795Y004754D01*
X003887Y004792D01*
X003986Y004792D01*
X004078Y004754D01*
X004149Y004684D01*
X004187Y004592D01*
X004187Y004493D01*
X004149Y004401D01*
X004078Y004330D01*
X003986Y004292D01*
X003887Y004292D01*
X003795Y004330D01*
X003768Y004357D01*
X003718Y004308D01*
X003695Y004298D02*
X003872Y004298D01*
X004001Y004298D02*
X004416Y004298D01*
X004438Y004277D02*
X004367Y004347D01*
X004329Y004439D01*
X004329Y004538D01*
X004367Y004630D01*
X004438Y004700D01*
X004529Y004739D01*
X004629Y004739D01*
X004721Y004700D01*
X004791Y004630D01*
X004829Y004538D01*
X004829Y004439D01*
X004791Y004347D01*
X004721Y004277D01*
X004629Y004239D01*
X004529Y004239D01*
X004438Y004277D01*
X004355Y004377D02*
X004125Y004377D01*
X004171Y004455D02*
X004329Y004455D01*
X004329Y004534D02*
X004187Y004534D01*
X004178Y004612D02*
X004360Y004612D01*
X004428Y004691D02*
X004142Y004691D01*
X004042Y004769D02*
X005517Y004769D01*
X005485Y004848D02*
X003434Y004848D01*
X003434Y004769D02*
X003526Y004769D01*
X003628Y004769D02*
X003831Y004769D01*
X003407Y004926D02*
X005485Y004926D01*
X005510Y005005D02*
X003343Y005005D01*
X003518Y005240D02*
X005827Y005240D01*
X005827Y005162D02*
X002903Y005162D01*
X002945Y005083D02*
X005570Y005083D01*
X005833Y005319D02*
X003596Y005319D01*
X003656Y005397D02*
X005866Y005397D01*
X005905Y005476D02*
X003688Y005476D01*
X003709Y005554D02*
X005984Y005554D01*
X006039Y005633D02*
X003709Y005633D01*
X003706Y005711D02*
X005948Y005711D01*
X005884Y005790D02*
X003673Y005790D01*
X003639Y005868D02*
X005851Y005868D01*
X005827Y005947D02*
X003560Y005947D01*
X003432Y006025D02*
X005297Y006025D01*
X005311Y006020D02*
X005219Y006058D01*
X005148Y006128D01*
X005110Y006220D01*
X005110Y006320D01*
X005148Y006411D01*
X005219Y006482D01*
X005311Y006520D01*
X005410Y006520D01*
X005502Y006482D01*
X005572Y006411D01*
X005610Y006320D01*
X005610Y006220D01*
X005572Y006128D01*
X005502Y006058D01*
X005410Y006020D01*
X005311Y006020D01*
X005423Y006025D02*
X005827Y006025D01*
X005827Y006104D02*
X005548Y006104D01*
X005595Y006182D02*
X005860Y006182D01*
X005892Y006261D02*
X005610Y006261D01*
X005602Y006339D02*
X005969Y006339D01*
X006090Y006418D02*
X005566Y006418D01*
X005467Y006496D02*
X007602Y006496D01*
X007602Y006732D02*
X007532Y006732D01*
X008981Y006182D02*
X009158Y006182D01*
X009083Y006261D02*
X009071Y006261D01*
X007908Y004848D02*
X006522Y004848D01*
X006547Y004769D02*
X005954Y004769D01*
X005985Y004848D02*
X006011Y004848D01*
X006200Y004691D02*
X006460Y004691D01*
X006428Y004612D02*
X006399Y004612D01*
X006364Y004638D02*
X006364Y004638D01*
X006799Y004769D02*
X007877Y004769D01*
X007877Y004691D02*
X006886Y004691D01*
X006918Y004612D02*
X007902Y004612D01*
X007962Y004534D02*
X006923Y004534D01*
X006904Y004455D02*
X010527Y004455D01*
X010527Y004377D02*
X006852Y004377D01*
X006768Y004298D02*
X010527Y004298D01*
X010527Y004220D02*
X006825Y004220D01*
X006882Y004141D02*
X010527Y004141D01*
X010527Y004063D02*
X006939Y004063D01*
X006965Y003984D02*
X010527Y003984D01*
X010527Y003906D02*
X006990Y003906D01*
X007770Y002964D02*
X008482Y002964D01*
X008419Y002885D02*
X007733Y002885D01*
X007773Y002807D02*
X008392Y002807D01*
X008392Y002728D02*
X007805Y002728D01*
X007807Y002650D02*
X008421Y002650D01*
X008487Y002571D02*
X007784Y002571D01*
X005333Y004691D02*
X004730Y004691D01*
X004799Y004612D02*
X005134Y004612D01*
X005169Y004638D02*
X005169Y004638D01*
X005026Y004534D02*
X004829Y004534D01*
X004829Y004455D02*
X004918Y004455D01*
X004836Y004395D02*
X004836Y004395D01*
X004836Y004395D01*
X004822Y004377D02*
X004803Y004377D01*
X004765Y004298D02*
X004742Y004298D01*
X004708Y004220D02*
X001483Y004220D01*
X001405Y004298D02*
X003458Y004298D01*
X003366Y004377D02*
X001326Y004377D01*
X001250Y004455D02*
X002538Y004455D01*
X002477Y004534D02*
X001250Y004534D01*
X001250Y004612D02*
X002452Y004612D01*
X002866Y004455D02*
X003333Y004455D01*
X003327Y004534D02*
X002926Y004534D01*
X002952Y004612D02*
X003028Y004612D01*
X002963Y004691D02*
X002952Y004691D01*
X002934Y004769D02*
X002921Y004769D01*
X002934Y004848D02*
X002903Y004848D01*
X002945Y004926D02*
X002962Y004926D01*
X002957Y005005D02*
X003026Y005005D01*
X003015Y005240D02*
X002848Y005240D01*
X002920Y005319D02*
X002937Y005319D01*
X003101Y006025D02*
X001443Y006025D01*
X001659Y006104D02*
X005173Y006104D01*
X005126Y006182D02*
X004500Y006182D01*
X004561Y006261D02*
X005110Y006261D01*
X005119Y006339D02*
X004587Y006339D01*
X004587Y006418D02*
X005155Y006418D01*
X005254Y006496D02*
X004556Y006496D01*
X004117Y006496D02*
X001739Y006496D01*
X001786Y006418D02*
X004087Y006418D01*
X004087Y006339D02*
X001802Y006339D01*
X001794Y006261D02*
X004112Y006261D01*
X004173Y006182D02*
X001758Y006182D01*
X001552Y006330D02*
X001110Y005894D01*
X001044Y006025D02*
X001007Y006025D01*
X001007Y006104D02*
X001124Y006104D01*
X001203Y006182D02*
X001007Y006182D01*
X001007Y006261D02*
X001283Y006261D01*
X001302Y006339D02*
X001007Y006339D01*
X001007Y006418D02*
X001318Y006418D01*
X001365Y006496D02*
X001007Y006496D01*
X001007Y004298D02*
X001009Y004298D01*
X001007Y004220D02*
X001087Y004220D01*
X001166Y004141D02*
X001007Y004141D01*
X001007Y004063D02*
X001244Y004063D01*
X001323Y003984D02*
X001007Y003984D01*
X001007Y003906D02*
X001401Y003906D01*
X002679Y003827D02*
X002697Y003827D01*
X002974Y003827D02*
X002992Y003827D01*
X003340Y004612D02*
X003344Y004612D01*
X010484Y007752D02*
X010527Y007752D01*
M02*
