%
M48
M72
T01C0.0118
T02C0.0140
T03C0.0400
T04C0.0405
%
T01
X2540Y3037
X2835Y3037
X3131Y3037
X3131Y3332
X3131Y3628
X2835Y3628
X2540Y3628
X2540Y3332
X2835Y3332
T02
X1204Y1645
X1579Y1864
X1577Y2239
X1610Y2707
X1579Y3114
X1687Y3520
X1567Y4520
X1642Y5082
X1985Y4970
X2142Y5298
X2704Y5450
X2707Y5005
X2702Y4645
X3184Y4810
X3577Y4520
X3937Y4542
X4579Y4489
X3992Y3800
X4048Y3444
X4048Y3084
X4127Y1989
X4487Y1980
X4947Y2020
X6148Y1832
X7342Y2385
X7557Y2675
X7529Y3035
X8642Y2770
X9517Y2770
X9517Y3645
X8642Y3645
X8127Y4722
X6673Y4551
X5735Y4895
X5360Y6270
X4923Y6364
X4337Y6372
X4204Y6895
X4204Y7832
X5110Y7957
X5127Y8715
X5485Y9520
X6235Y8450
X6735Y7665
X6517Y7332
X7423Y6957
X7017Y6145
X9142Y8145
X9267Y7520
X10392Y7520
X10392Y8645
X9298Y6395
X10017Y5645
X10392Y5395
X10329Y6114
X7329Y9502
X6048Y10945
X4048Y9145
X2637Y10082
X2110Y9114
X2298Y8707
X2392Y8145
X1704Y8895
X1548Y7301
X1552Y6330
X1917Y6334
X2077Y2400
X7997Y1832
X9297Y1645
X9657Y1645
T03
X6267Y5215
X6267Y6015
X8267Y5615
T04
X3267Y5615
M30
