G75*
%MOIN*%
%OFA0B0*%
%FSLAX24Y24*%
%IPPOS*%
%LPD*%
%AMOC8*
5,1,8,0,0,1.08239X$1,22.5*
%
%ADD10C,0.0000*%
D10*
X001017Y001295D02*
X010517Y001295D01*
X010547Y001297D01*
X010577Y001302D01*
X010606Y001311D01*
X010633Y001324D01*
X010659Y001339D01*
X010683Y001358D01*
X010704Y001379D01*
X010723Y001403D01*
X010738Y001429D01*
X010751Y001456D01*
X010760Y001485D01*
X010765Y001515D01*
X010767Y001545D01*
X010767Y011045D01*
X010765Y011075D01*
X010760Y011105D01*
X010751Y011134D01*
X010738Y011161D01*
X010723Y011187D01*
X010704Y011211D01*
X010683Y011232D01*
X010659Y011251D01*
X010633Y011266D01*
X010606Y011279D01*
X010577Y011288D01*
X010547Y011293D01*
X010517Y011295D01*
X001017Y011295D01*
X000987Y011293D01*
X000957Y011288D01*
X000928Y011279D01*
X000901Y011266D01*
X000875Y011251D01*
X000851Y011232D01*
X000830Y011211D01*
X000811Y011187D01*
X000796Y011161D01*
X000783Y011134D01*
X000774Y011105D01*
X000769Y011075D01*
X000767Y011045D01*
X000767Y001545D01*
X000769Y001515D01*
X000774Y001485D01*
X000783Y001456D01*
X000796Y001429D01*
X000811Y001403D01*
X000830Y001379D01*
X000851Y001358D01*
X000875Y001339D01*
X000901Y001324D01*
X000928Y001311D01*
X000957Y001302D01*
X000987Y001297D01*
X001017Y001295D01*
X004707Y002455D02*
X004707Y003465D01*
X004709Y003529D01*
X004715Y003593D01*
X004724Y003656D01*
X004738Y003719D01*
X004755Y003780D01*
X004776Y003841D01*
X004800Y003900D01*
X004828Y003958D01*
X004860Y004013D01*
X004895Y004067D01*
X004933Y004119D01*
X004974Y004168D01*
X005017Y004215D01*
X005064Y004258D01*
X005113Y004299D01*
X005165Y004337D01*
X005219Y004372D01*
X005274Y004404D01*
X005332Y004432D01*
X005391Y004456D01*
X005452Y004477D01*
X005513Y004494D01*
X005576Y004508D01*
X005639Y004517D01*
X005703Y004523D01*
X005767Y004525D01*
X006067Y005215D02*
X006069Y005243D01*
X006075Y005270D01*
X006084Y005296D01*
X006097Y005321D01*
X006114Y005344D01*
X006133Y005364D01*
X006155Y005381D01*
X006179Y005395D01*
X006205Y005405D01*
X006232Y005412D01*
X006260Y005415D01*
X006288Y005414D01*
X006315Y005409D01*
X006342Y005400D01*
X006367Y005388D01*
X006390Y005373D01*
X006411Y005354D01*
X006429Y005333D01*
X006444Y005309D01*
X006455Y005283D01*
X006463Y005257D01*
X006467Y005229D01*
X006467Y005201D01*
X006463Y005173D01*
X006455Y005147D01*
X006444Y005121D01*
X006429Y005097D01*
X006411Y005076D01*
X006390Y005057D01*
X006367Y005042D01*
X006342Y005030D01*
X006315Y005021D01*
X006288Y005016D01*
X006260Y005015D01*
X006232Y005018D01*
X006205Y005025D01*
X006179Y005035D01*
X006155Y005049D01*
X006133Y005066D01*
X006114Y005086D01*
X006097Y005109D01*
X006084Y005134D01*
X006075Y005160D01*
X006069Y005187D01*
X006067Y005215D01*
X006067Y006015D02*
X006069Y006043D01*
X006075Y006070D01*
X006084Y006096D01*
X006097Y006121D01*
X006114Y006144D01*
X006133Y006164D01*
X006155Y006181D01*
X006179Y006195D01*
X006205Y006205D01*
X006232Y006212D01*
X006260Y006215D01*
X006288Y006214D01*
X006315Y006209D01*
X006342Y006200D01*
X006367Y006188D01*
X006390Y006173D01*
X006411Y006154D01*
X006429Y006133D01*
X006444Y006109D01*
X006455Y006083D01*
X006463Y006057D01*
X006467Y006029D01*
X006467Y006001D01*
X006463Y005973D01*
X006455Y005947D01*
X006444Y005921D01*
X006429Y005897D01*
X006411Y005876D01*
X006390Y005857D01*
X006367Y005842D01*
X006342Y005830D01*
X006315Y005821D01*
X006288Y005816D01*
X006260Y005815D01*
X006232Y005818D01*
X006205Y005825D01*
X006179Y005835D01*
X006155Y005849D01*
X006133Y005866D01*
X006114Y005886D01*
X006097Y005909D01*
X006084Y005934D01*
X006075Y005960D01*
X006069Y005987D01*
X006067Y006015D01*
X007842Y006395D02*
X007842Y009895D01*
X008867Y009895D01*
X008867Y006395D01*
X007842Y006395D01*
X008417Y006845D02*
X008467Y006845D01*
X008467Y009445D01*
X008417Y009445D01*
X008417Y006845D01*
X008467Y006845D02*
X008867Y006845D01*
X008067Y005615D02*
X008069Y005643D01*
X008075Y005670D01*
X008084Y005696D01*
X008097Y005721D01*
X008114Y005744D01*
X008133Y005764D01*
X008155Y005781D01*
X008179Y005795D01*
X008205Y005805D01*
X008232Y005812D01*
X008260Y005815D01*
X008288Y005814D01*
X008315Y005809D01*
X008342Y005800D01*
X008367Y005788D01*
X008390Y005773D01*
X008411Y005754D01*
X008429Y005733D01*
X008444Y005709D01*
X008455Y005683D01*
X008463Y005657D01*
X008467Y005629D01*
X008467Y005601D01*
X008463Y005573D01*
X008455Y005547D01*
X008444Y005521D01*
X008429Y005497D01*
X008411Y005476D01*
X008390Y005457D01*
X008367Y005442D01*
X008342Y005430D01*
X008315Y005421D01*
X008288Y005416D01*
X008260Y005415D01*
X008232Y005418D01*
X008205Y005425D01*
X008179Y005435D01*
X008155Y005449D01*
X008133Y005466D01*
X008114Y005486D01*
X008097Y005509D01*
X008084Y005534D01*
X008075Y005560D01*
X008069Y005587D01*
X008067Y005615D01*
X006827Y003465D02*
X006827Y002455D01*
X006825Y002442D01*
X006820Y002430D01*
X006812Y002420D01*
X006802Y002412D01*
X006790Y002407D01*
X006777Y002405D01*
X004757Y002405D01*
X004744Y002407D01*
X004732Y002412D01*
X004722Y002420D01*
X004714Y002430D01*
X004709Y002442D01*
X004707Y002455D01*
X005767Y004525D02*
X005831Y004523D01*
X005895Y004517D01*
X005958Y004508D01*
X006021Y004494D01*
X006082Y004477D01*
X006143Y004456D01*
X006202Y004432D01*
X006260Y004404D01*
X006315Y004372D01*
X006369Y004337D01*
X006421Y004299D01*
X006470Y004258D01*
X006517Y004215D01*
X006560Y004168D01*
X006601Y004119D01*
X006639Y004067D01*
X006674Y004013D01*
X006706Y003958D01*
X006734Y003900D01*
X006758Y003841D01*
X006779Y003780D01*
X006796Y003719D01*
X006810Y003656D01*
X006819Y003593D01*
X006825Y003529D01*
X006827Y003465D01*
X003692Y006745D02*
X003692Y009545D01*
X002667Y009545D01*
X002667Y006745D01*
X003692Y006745D01*
X003117Y006845D02*
X003067Y006845D01*
X003067Y009445D01*
X003117Y009445D01*
X003117Y006845D01*
X003067Y006845D02*
X002667Y006845D01*
X003064Y005615D02*
X003066Y005643D01*
X003072Y005671D01*
X003082Y005698D01*
X003095Y005723D01*
X003111Y005745D01*
X003131Y005766D01*
X003153Y005783D01*
X003178Y005797D01*
X003204Y005808D01*
X003232Y005815D01*
X003260Y005818D01*
X003288Y005817D01*
X003316Y005812D01*
X003343Y005803D01*
X003368Y005791D01*
X003392Y005775D01*
X003413Y005756D01*
X003431Y005734D01*
X003446Y005710D01*
X003458Y005684D01*
X003466Y005657D01*
X003470Y005629D01*
X003470Y005601D01*
X003466Y005573D01*
X003458Y005546D01*
X003446Y005520D01*
X003431Y005496D01*
X003413Y005474D01*
X003392Y005455D01*
X003369Y005439D01*
X003343Y005427D01*
X003316Y005418D01*
X003288Y005413D01*
X003260Y005412D01*
X003232Y005415D01*
X003204Y005422D01*
X003178Y005433D01*
X003153Y005447D01*
X003131Y005464D01*
X003111Y005485D01*
X003095Y005507D01*
X003082Y005532D01*
X003072Y005559D01*
X003066Y005587D01*
X003064Y005615D01*
X003067Y009445D02*
X002667Y009445D01*
X008467Y009445D02*
X008867Y009445D01*
M02*
