G75*
%MOIN*%
%OFA0B0*%
%FSLAX24Y24*%
%IPPOS*%
%LPD*%
%AMOC8*
5,1,8,0,0,1.08239X$1,22.5*
%
%ADD10C,0.0338*%
%ADD11C,0.0370*%
%ADD12C,0.0465*%
%ADD13C,0.0460*%
%ADD14R,0.0410X0.0310*%
%ADD15R,0.0660X0.0310*%
%ADD16R,0.0560X0.0310*%
%ADD17C,0.0380*%
%ADD18C,0.0360*%
D10*
X002801Y003037D03*
X003096Y003037D03*
X003391Y003037D03*
X003391Y003332D03*
X003096Y003332D03*
X003096Y003628D03*
X003391Y003628D03*
X002801Y003628D03*
X002801Y003332D03*
D11*
X004027Y005365D03*
X004027Y005865D03*
X004527Y005865D03*
X004527Y005365D03*
X005027Y005365D03*
X005027Y005865D03*
X005527Y005865D03*
X005527Y005365D03*
X006027Y005365D03*
X006027Y005865D03*
X007027Y005865D03*
X007027Y005365D03*
X007527Y005365D03*
X007527Y005865D03*
X008027Y005865D03*
X008027Y005365D03*
D12*
X003527Y005615D03*
D13*
X006527Y006015D03*
X006527Y005215D03*
X008527Y005615D03*
D14*
X001434Y005520D03*
X001434Y006020D03*
X001434Y006520D03*
X001434Y007020D03*
X001434Y007520D03*
X001434Y005020D03*
X001434Y004520D03*
X001434Y004020D03*
X001434Y003520D03*
X001434Y003020D03*
X001434Y002520D03*
X001434Y002020D03*
D15*
X002627Y008145D03*
X009427Y008145D03*
D16*
X009377Y009645D03*
X009377Y006645D03*
X002677Y006645D03*
X002677Y009645D03*
D17*
X002507Y010134D03*
X002887Y010134D03*
X001559Y009364D03*
X001402Y007020D03*
X001402Y006520D03*
X002215Y006051D03*
X001840Y005239D03*
X002996Y005957D03*
X004309Y009145D03*
D18*
X001465Y001645D03*
X001840Y001864D03*
X001837Y002239D03*
X001871Y002707D03*
X002337Y002400D03*
X001840Y003114D03*
X001947Y003520D03*
X001827Y004520D03*
X002652Y005231D03*
X002962Y005036D03*
X002931Y004645D03*
X003414Y004810D03*
X003744Y004457D03*
X004072Y004620D03*
X004215Y004125D03*
X004579Y004227D03*
X004839Y004487D03*
X004350Y003637D03*
X004314Y003254D03*
X004297Y002754D03*
X004387Y001989D03*
X004747Y001980D03*
X005207Y002020D03*
X006409Y001832D03*
X007602Y002385D03*
X007817Y002675D03*
X007790Y003035D03*
X008902Y002770D03*
X008902Y003645D03*
X009777Y003645D03*
X009777Y002770D03*
X009917Y001645D03*
X009557Y001645D03*
X008257Y001832D03*
X006934Y004551D03*
X005996Y004895D03*
X005684Y006365D03*
X006590Y007270D03*
X006996Y007665D03*
X007684Y006957D03*
X007684Y006364D03*
X009434Y006239D03*
X010277Y005645D03*
X010652Y005395D03*
X010590Y006114D03*
X010657Y007520D03*
X010657Y008645D03*
X007590Y009502D03*
X006496Y008450D03*
X005387Y008715D03*
X005371Y007957D03*
X004465Y007832D03*
X004597Y006372D03*
X004027Y006395D03*
X002152Y005520D03*
X005746Y009520D03*
X006309Y010945D03*
X008387Y004722D03*
M02*
