%
M48
M72
T01C0.0200
T02C0.0320
T03C0.0402
T04C0.0630
T05C0.0965
%
T01
X7350Y8240
X7850Y8240
X8100Y8990
X7850Y9740
X7350Y9740
X7350Y9240
X9100Y9990
X10163Y10959
X10100Y11490
X10944Y11396
X11100Y11865
X12069Y11678
X11913Y10490
X11444Y9615
X10750Y10210
X12381Y9084
X13381Y9084
X13725Y10021
X12975Y10553
X14038Y11990
X13663Y12459
X13850Y13240
X14600Y13240
X15600Y13240
X15538Y13865
X15600Y14740
X15600Y15990
X18100Y15990
X18038Y15428
X18350Y17490
X17350Y11990
X17350Y11490
X18100Y10990
X18100Y10490
X17850Y9490
X17850Y8740
X17850Y7990
X17850Y7240
X17100Y7240
X16475Y7178
X15975Y7178
X16100Y6490
X16100Y5740
X15350Y6490
X14600Y6490
X13850Y6490
X13381Y8084
X14381Y8084
X15038Y8646
X14381Y9084
X14975Y10084
X14631Y12021
X13100Y13490
X12350Y13490
X12350Y14240
X13100Y14240
X11600Y14240
X11600Y14990
X10694Y13209
X9100Y12771
X5600Y12990
X5038Y11459
X5350Y9740
X5350Y9240
X9350Y7990
X9350Y7240
X10100Y7240
X10100Y6490
X10319Y8240
X13194Y4146
X13006Y3271
X14475Y4553
X16100Y4240
X17069Y2959
X16225Y1615
X16225Y1115
X15475Y1115
X15475Y1615
X14725Y1615
X14725Y1115
X16975Y1115
X18100Y1615
X17850Y5740
X17850Y6490
X17100Y6490
X17100Y5740
X17100Y7990
X17100Y8740
X17100Y9490
X16600Y11303
X19444Y6240
T02
X14100Y7240
X13100Y7240
T03
X15759Y17289
X16941Y17289
T04
X19100Y17740
X19100Y16240
X19100Y14740
X19100Y13240
X19100Y11740
X19100Y10115
X19100Y8490
X19100Y6990
X19100Y5490
X19100Y3990
X19100Y2490
X19100Y990
X19100Y19240
T05
X17787Y18990
X14913Y18990
M30
