G75*
%MOIN*%
%OFA0B0*%
%FSLAX24Y24*%
%IPPOS*%
%LPD*%
%AMOC8*
5,1,8,0,0,1.08239X$1,22.5*
%
%ADD10R,0.0560X0.0310*%
%ADD11C,0.1005*%
%ADD12C,0.0662*%
%ADD13C,0.1025*%
%ADD14C,0.0800*%
%ADD15C,0.0420*%
D10*
X001600Y011240D03*
X001600Y012740D03*
D11*
X019100Y013240D03*
X019100Y011740D03*
X019100Y010115D03*
X019100Y008490D03*
X019100Y006990D03*
X019100Y005490D03*
X019100Y003990D03*
X019100Y002490D03*
X019100Y000990D03*
X019100Y014740D03*
X019100Y016240D03*
X019100Y017740D03*
X019100Y019240D03*
D12*
X016941Y017289D03*
X015759Y017289D03*
D13*
X014913Y018990D03*
X017787Y018990D03*
D14*
X014100Y007240D03*
X013100Y007240D03*
D15*
X007350Y008240D03*
X007850Y008240D03*
X008100Y008990D03*
X007850Y009740D03*
X007350Y009740D03*
X007350Y009240D03*
X009100Y009990D03*
X010163Y010959D03*
X010100Y011490D03*
X010944Y011396D03*
X011100Y011865D03*
X012069Y011678D03*
X011913Y010490D03*
X011444Y009615D03*
X010750Y010210D03*
X012381Y009084D03*
X013381Y009084D03*
X013725Y010021D03*
X012975Y010553D03*
X014038Y011990D03*
X013663Y012459D03*
X013850Y013240D03*
X014600Y013240D03*
X015600Y013240D03*
X015538Y013865D03*
X015600Y014740D03*
X015600Y015990D03*
X018100Y015990D03*
X018038Y015428D03*
X018350Y017490D03*
X017350Y011990D03*
X017350Y011490D03*
X018100Y010990D03*
X018100Y010490D03*
X017850Y009490D03*
X017850Y008740D03*
X017850Y007990D03*
X017850Y007240D03*
X017100Y007240D03*
X016475Y007178D03*
X015975Y007178D03*
X016100Y006490D03*
X016100Y005740D03*
X015350Y006490D03*
X014600Y006490D03*
X013850Y006490D03*
X013381Y008084D03*
X014381Y008084D03*
X015038Y008646D03*
X014381Y009084D03*
X014975Y010084D03*
X014631Y012021D03*
X013100Y013490D03*
X012350Y013490D03*
X012350Y014240D03*
X013100Y014240D03*
X011600Y014240D03*
X011600Y014990D03*
X010694Y013209D03*
X009100Y012771D03*
X005600Y012990D03*
X005038Y011459D03*
X005350Y009740D03*
X005350Y009240D03*
X009350Y007990D03*
X009350Y007240D03*
X010100Y007240D03*
X010100Y006490D03*
X010319Y008240D03*
X013194Y004146D03*
X013006Y003271D03*
X014475Y004553D03*
X016100Y004240D03*
X017069Y002959D03*
X016225Y001615D03*
X016225Y001115D03*
X015475Y001115D03*
X015475Y001615D03*
X014725Y001615D03*
X014725Y001115D03*
X016975Y001115D03*
X018100Y001615D03*
X017850Y005740D03*
X017850Y006490D03*
X017100Y006490D03*
X017100Y005740D03*
X017100Y007990D03*
X017100Y008740D03*
X017100Y009490D03*
X016600Y011303D03*
X019444Y006240D03*
M02*
