G75*
%MOIN*%
%OFA0B0*%
%FSLAX24Y24*%
%IPPOS*%
%LPD*%
%AMOC8*
5,1,8,0,0,1.08239X$1,22.5*
%
%ADD10R,0.0500X0.0250*%
%ADD11C,0.0945*%
%ADD12C,0.0602*%
%ADD13C,0.0740*%
%ADD14C,0.0360*%
%ADD15C,0.0160*%
%ADD16C,0.0240*%
%ADD17C,0.0080*%
%ADD18C,0.0100*%
D10*
X001600Y011240D03*
X001600Y012740D03*
D11*
X019100Y013240D03*
X019100Y011740D03*
X019100Y010115D03*
X019100Y008490D03*
X019100Y006990D03*
X019100Y005490D03*
X019100Y003990D03*
X019100Y002490D03*
X019100Y000990D03*
X019100Y014740D03*
X019100Y016240D03*
X019100Y017740D03*
X019100Y019240D03*
D12*
X016941Y017289D03*
X015759Y017289D03*
D13*
X014100Y007240D03*
X013100Y007240D03*
D14*
X013381Y008084D03*
X013381Y009084D03*
X013725Y010021D03*
X012975Y010553D03*
X012069Y011678D03*
X011100Y011865D03*
X010944Y011396D03*
X010100Y011490D03*
X010163Y010959D03*
X010750Y010210D03*
X011444Y009615D03*
X011913Y010490D03*
X012381Y009084D03*
X014381Y009084D03*
X015038Y008646D03*
X014381Y008084D03*
X014600Y006490D03*
X013850Y006490D03*
X015350Y006490D03*
X015975Y007178D03*
X016475Y007178D03*
X017100Y007240D03*
X017100Y007990D03*
X017100Y008740D03*
X017100Y009490D03*
X017850Y009490D03*
X017850Y008740D03*
X017850Y007990D03*
X017850Y007240D03*
X017850Y006490D03*
X017850Y005740D03*
X017100Y005740D03*
X017100Y006490D03*
X016100Y006490D03*
X016100Y005740D03*
X016100Y004240D03*
X017069Y002959D03*
X016225Y001615D03*
X016225Y001115D03*
X015475Y001115D03*
X015475Y001615D03*
X014725Y001615D03*
X014725Y001115D03*
X013006Y003271D03*
X013194Y004146D03*
X014475Y004553D03*
X016975Y001115D03*
X018100Y001615D03*
X019444Y006240D03*
X018100Y010490D03*
X018100Y010990D03*
X017350Y011490D03*
X017350Y011990D03*
X016600Y011303D03*
X014975Y010084D03*
X014631Y012021D03*
X014038Y011990D03*
X013663Y012459D03*
X013850Y013240D03*
X014600Y013240D03*
X015600Y013240D03*
X015538Y013865D03*
X015600Y014740D03*
X015600Y015990D03*
X018100Y015990D03*
X018038Y015428D03*
X018350Y017490D03*
X013100Y014240D03*
X012350Y014240D03*
X012350Y013490D03*
X013100Y013490D03*
X011600Y014240D03*
X011600Y014990D03*
X010694Y013209D03*
X009100Y012771D03*
X009100Y009990D03*
X008100Y008990D03*
X007850Y008240D03*
X007350Y008240D03*
X007350Y009240D03*
X007350Y009740D03*
X007850Y009740D03*
X009350Y007990D03*
X009350Y007240D03*
X010100Y007240D03*
X010100Y006490D03*
X010319Y008240D03*
X005600Y012990D03*
X005038Y011459D03*
X005350Y009740D03*
X005350Y009240D03*
D15*
X012381Y009084D02*
X012381Y008990D01*
X016475Y007178D02*
X016475Y011178D01*
X016600Y011303D01*
X016475Y007178D02*
X016475Y003553D01*
X017069Y002959D01*
X017069Y001771D01*
X017850Y000990D01*
X019100Y000990D01*
D16*
X014475Y004553D02*
X012381Y006646D01*
X012381Y008990D01*
X008100Y008990D01*
X011100Y011865D02*
X012381Y010584D01*
X012381Y009084D01*
X011100Y011865D02*
X011694Y012459D01*
X013663Y012459D01*
X015538Y013865D02*
X016475Y013865D01*
X018038Y015428D01*
D17*
X006400Y005388D02*
X006402Y005384D01*
X006404Y005382D01*
X006408Y005380D01*
X006410Y005380D01*
X009898Y005380D01*
X009986Y005343D01*
X010053Y005276D01*
X010053Y005276D01*
X014949Y000380D01*
X019563Y000380D01*
X019574Y000383D01*
X019610Y000380D01*
X019607Y000416D01*
X019610Y000427D01*
X019610Y000725D01*
X019585Y000666D01*
X019424Y000505D01*
X019214Y000418D01*
X018986Y000418D01*
X018776Y000505D01*
X018615Y000666D01*
X018555Y000810D01*
X017775Y000810D01*
X016994Y001591D01*
X016889Y001697D01*
X016889Y002743D01*
X016831Y002800D01*
X016789Y002903D01*
X016789Y002984D01*
X016295Y003478D01*
X016295Y006962D01*
X016238Y007019D01*
X016225Y007049D01*
X016212Y007019D01*
X016134Y006940D01*
X016031Y006898D01*
X015919Y006898D01*
X015816Y006940D01*
X015738Y007019D01*
X015734Y007028D01*
X015725Y007028D01*
X013975Y008778D01*
X013975Y008778D01*
X013888Y008865D01*
X013888Y011749D01*
X013879Y011753D01*
X013800Y011831D01*
X013758Y011934D01*
X013758Y012046D01*
X013800Y012149D01*
X013879Y012227D01*
X013982Y012270D01*
X014093Y012270D01*
X014196Y012227D01*
X014275Y012149D01*
X014317Y012046D01*
X014317Y011934D01*
X014275Y011831D01*
X014196Y011753D01*
X014187Y011749D01*
X014187Y011390D01*
X014413Y011390D01*
X018294Y015271D01*
X018294Y015314D01*
X018275Y015269D01*
X018196Y015190D01*
X018093Y015148D01*
X018069Y015148D01*
X016566Y013645D01*
X015713Y013645D01*
X015696Y013628D01*
X015593Y013585D01*
X015482Y013585D01*
X015379Y013628D01*
X015300Y013706D01*
X015258Y013809D01*
X015258Y013921D01*
X015300Y014024D01*
X015379Y014102D01*
X015482Y014145D01*
X015593Y014145D01*
X015696Y014102D01*
X015713Y014085D01*
X016384Y014085D01*
X017758Y015459D01*
X017758Y015483D01*
X017800Y015586D01*
X017879Y015665D01*
X017982Y015707D01*
X018093Y015707D01*
X018196Y015665D01*
X018275Y015586D01*
X018294Y015541D01*
X018294Y017146D01*
X018600Y017452D01*
X018528Y017626D01*
X018528Y017854D01*
X018615Y018064D01*
X018776Y018225D01*
X018986Y018312D01*
X019214Y018312D01*
X019424Y018225D01*
X019585Y018064D01*
X019610Y018005D01*
X019610Y018975D01*
X019585Y018916D01*
X019424Y018755D01*
X019214Y018668D01*
X018986Y018668D01*
X018776Y018755D01*
X018615Y018916D01*
X018528Y019126D01*
X018528Y019354D01*
X018615Y019564D01*
X018776Y019725D01*
X018986Y019812D01*
X019214Y019812D01*
X019424Y019725D01*
X019585Y019564D01*
X019610Y019505D01*
X019610Y019890D01*
X019610Y019892D01*
X019608Y019896D01*
X019606Y019898D01*
X019602Y019900D01*
X019600Y019900D01*
X014949Y019900D01*
X014756Y019707D01*
X014769Y019712D01*
X015057Y019712D01*
X015322Y019602D01*
X015525Y019399D01*
X015635Y019134D01*
X015635Y018846D01*
X015525Y018581D01*
X015322Y018378D01*
X015057Y018268D01*
X014769Y018268D01*
X014504Y018378D01*
X014301Y018581D01*
X014191Y018846D01*
X014191Y019134D01*
X014196Y019147D01*
X010053Y015004D01*
X010053Y015004D01*
X009986Y014937D01*
X009898Y014900D01*
X003850Y014900D01*
X003850Y007670D01*
X003927Y007908D01*
X003927Y007908D01*
X004169Y008241D01*
X004169Y008241D01*
X004169Y008241D01*
X004502Y008483D01*
X004502Y008483D01*
X004894Y008610D01*
X005306Y008610D01*
X005698Y008483D01*
X005698Y008483D01*
X006031Y008241D01*
X006031Y008241D01*
X006031Y008241D01*
X006273Y007908D01*
X006273Y007908D01*
X006400Y007516D01*
X006400Y005390D01*
X006400Y005388D01*
X006400Y005396D02*
X013320Y005396D01*
X013242Y005474D02*
X006400Y005474D01*
X006400Y005553D02*
X013163Y005553D01*
X013085Y005631D02*
X006400Y005631D01*
X006400Y005710D02*
X013006Y005710D01*
X012928Y005788D02*
X006400Y005788D01*
X006400Y005867D02*
X012849Y005867D01*
X012771Y005945D02*
X006400Y005945D01*
X006400Y006024D02*
X012692Y006024D01*
X012614Y006102D02*
X006400Y006102D01*
X006400Y006181D02*
X012535Y006181D01*
X012457Y006259D02*
X006400Y006259D01*
X006400Y006338D02*
X012378Y006338D01*
X012300Y006416D02*
X006400Y006416D01*
X006400Y006495D02*
X012221Y006495D01*
X012161Y006555D02*
X014195Y004521D01*
X014195Y004497D01*
X014238Y004394D01*
X014316Y004315D01*
X014419Y004273D01*
X014531Y004273D01*
X014634Y004315D01*
X014712Y004394D01*
X014755Y004497D01*
X014755Y004608D01*
X014712Y004711D01*
X014634Y004790D01*
X014531Y004832D01*
X014506Y004832D01*
X012601Y006737D01*
X012601Y008908D01*
X012619Y008925D01*
X012661Y009028D01*
X012661Y009139D01*
X012619Y009242D01*
X012601Y009260D01*
X012601Y010675D01*
X011411Y011865D01*
X011785Y012239D01*
X013487Y012239D01*
X013504Y012221D01*
X013607Y012179D01*
X013718Y012179D01*
X013821Y012221D01*
X013900Y012300D01*
X013942Y012403D01*
X013942Y012514D01*
X013900Y012617D01*
X013833Y012684D01*
X013850Y012684D01*
X014382Y012152D01*
X014351Y012077D01*
X014351Y011966D01*
X014394Y011863D01*
X014473Y011784D01*
X014576Y011741D01*
X014687Y011741D01*
X014790Y011784D01*
X014869Y011863D01*
X014911Y011966D01*
X014911Y012077D01*
X014869Y012180D01*
X014790Y012259D01*
X014687Y012301D01*
X014657Y012301D01*
X013975Y012984D01*
X011382Y012984D01*
X011294Y012896D01*
X010164Y011766D01*
X010156Y011770D01*
X010044Y011770D01*
X009941Y011727D01*
X009863Y011649D01*
X009820Y011546D01*
X009820Y011434D01*
X009863Y011331D01*
X009941Y011253D01*
X010044Y011210D01*
X010156Y011210D01*
X010259Y011253D01*
X010337Y011331D01*
X010380Y011434D01*
X010380Y011546D01*
X010376Y011554D01*
X011506Y012684D01*
X013492Y012684D01*
X013487Y012679D01*
X011603Y012679D01*
X011474Y012550D01*
X011069Y012145D01*
X011044Y012145D01*
X010941Y012102D01*
X010863Y012024D01*
X010820Y011921D01*
X010820Y011809D01*
X010863Y011706D01*
X010941Y011628D01*
X011044Y011585D01*
X011069Y011585D01*
X012161Y010493D01*
X012161Y009260D01*
X012144Y009242D01*
X012130Y009210D01*
X008276Y009210D01*
X008259Y009227D01*
X008156Y009270D01*
X008044Y009270D01*
X007941Y009227D01*
X007863Y009149D01*
X007820Y009046D01*
X007820Y008934D01*
X007863Y008831D01*
X007941Y008753D01*
X008044Y008710D01*
X008156Y008710D01*
X008259Y008753D01*
X008276Y008770D01*
X012161Y008770D01*
X012161Y006555D01*
X012161Y006573D02*
X006400Y006573D01*
X006400Y006652D02*
X012161Y006652D01*
X012161Y006730D02*
X006400Y006730D01*
X006400Y006809D02*
X012161Y006809D01*
X012161Y006887D02*
X006400Y006887D01*
X006400Y006966D02*
X012161Y006966D01*
X012161Y007044D02*
X006400Y007044D01*
X006400Y007123D02*
X012161Y007123D01*
X012161Y007201D02*
X006400Y007201D01*
X006400Y007280D02*
X012161Y007280D01*
X012161Y007358D02*
X006400Y007358D01*
X006400Y007437D02*
X012161Y007437D01*
X012161Y007515D02*
X006400Y007515D01*
X006375Y007594D02*
X012161Y007594D01*
X012161Y007672D02*
X006349Y007672D01*
X006324Y007751D02*
X012161Y007751D01*
X012161Y007829D02*
X006298Y007829D01*
X006272Y007908D02*
X012161Y007908D01*
X012161Y007986D02*
X006215Y007986D01*
X006158Y008065D02*
X012161Y008065D01*
X012161Y008143D02*
X006101Y008143D01*
X006044Y008222D02*
X012161Y008222D01*
X012161Y008300D02*
X005948Y008300D01*
X005840Y008379D02*
X012161Y008379D01*
X012161Y008457D02*
X005732Y008457D01*
X005534Y008536D02*
X012161Y008536D01*
X012161Y008614D02*
X003850Y008614D01*
X003850Y008536D02*
X004666Y008536D01*
X004468Y008457D02*
X003850Y008457D01*
X003850Y008379D02*
X004360Y008379D01*
X004252Y008300D02*
X003850Y008300D01*
X003850Y008222D02*
X004156Y008222D01*
X004099Y008143D02*
X003850Y008143D01*
X003850Y008065D02*
X004042Y008065D01*
X003985Y007986D02*
X003850Y007986D01*
X003850Y007908D02*
X003928Y007908D01*
X003902Y007829D02*
X003850Y007829D01*
X003850Y007751D02*
X003876Y007751D01*
X003851Y007672D02*
X003850Y007672D01*
X003850Y008693D02*
X012161Y008693D01*
X012601Y008693D02*
X014060Y008693D01*
X014138Y008614D02*
X012601Y008614D01*
X012601Y008536D02*
X014217Y008536D01*
X014295Y008457D02*
X012601Y008457D01*
X012601Y008379D02*
X014374Y008379D01*
X014452Y008300D02*
X012601Y008300D01*
X012601Y008222D02*
X014531Y008222D01*
X014609Y008143D02*
X012601Y008143D01*
X012601Y008065D02*
X014688Y008065D01*
X014766Y007986D02*
X012601Y007986D01*
X012601Y007908D02*
X014845Y007908D01*
X014923Y007829D02*
X012601Y007829D01*
X012601Y007751D02*
X015002Y007751D01*
X015080Y007672D02*
X014372Y007672D01*
X014367Y007676D02*
X014296Y007713D01*
X014219Y007737D01*
X014140Y007750D01*
X014140Y007750D01*
X014140Y007280D01*
X014610Y007280D01*
X014610Y007280D01*
X014597Y007359D01*
X014573Y007436D01*
X014536Y007507D01*
X014489Y007572D01*
X014432Y007629D01*
X014367Y007676D01*
X014467Y007594D02*
X015159Y007594D01*
X015237Y007515D02*
X014530Y007515D01*
X014572Y007437D02*
X015316Y007437D01*
X015394Y007358D02*
X014598Y007358D01*
X014610Y007200D02*
X014140Y007200D01*
X014140Y007280D01*
X014060Y007280D01*
X014060Y007750D01*
X014060Y007750D01*
X013981Y007737D01*
X013904Y007713D01*
X013833Y007676D01*
X013768Y007629D01*
X013711Y007572D01*
X013664Y007507D01*
X013627Y007436D01*
X013603Y007359D01*
X013590Y007280D01*
X014060Y007280D01*
X014060Y007200D01*
X014140Y007200D01*
X014140Y006730D01*
X014140Y006730D01*
X014219Y006743D01*
X014296Y006767D01*
X014367Y006804D01*
X014432Y006851D01*
X014489Y006908D01*
X014536Y006973D01*
X014573Y007044D01*
X014597Y007121D01*
X014610Y007200D01*
X014610Y007200D01*
X014598Y007123D02*
X015630Y007123D01*
X015708Y007044D02*
X014573Y007044D01*
X014531Y006966D02*
X015791Y006966D01*
X015551Y007201D02*
X014140Y007201D01*
X014140Y007123D02*
X014060Y007123D01*
X014060Y007200D02*
X014060Y006730D01*
X014060Y006730D01*
X013981Y006743D01*
X013904Y006767D01*
X013833Y006804D01*
X013768Y006851D01*
X013711Y006908D01*
X013664Y006973D01*
X013627Y007044D01*
X013603Y007121D01*
X013590Y007200D01*
X013590Y007200D01*
X014060Y007200D01*
X014060Y007201D02*
X013570Y007201D01*
X013570Y007147D02*
X013498Y006974D01*
X013366Y006842D01*
X013193Y006770D01*
X013007Y006770D01*
X012834Y006842D01*
X012702Y006974D01*
X012630Y007147D01*
X012630Y007333D01*
X012702Y007506D01*
X012834Y007638D01*
X013007Y007710D01*
X013193Y007710D01*
X013366Y007638D01*
X013498Y007506D01*
X013570Y007333D01*
X013570Y007147D01*
X013560Y007123D02*
X013602Y007123D01*
X013627Y007044D02*
X013528Y007044D01*
X013491Y006966D02*
X013669Y006966D01*
X013731Y006887D02*
X013412Y006887D01*
X013288Y006809D02*
X013826Y006809D01*
X014060Y006809D02*
X014140Y006809D01*
X014140Y006887D02*
X014060Y006887D01*
X014060Y006966D02*
X014140Y006966D01*
X014140Y007044D02*
X014060Y007044D01*
X014060Y007280D02*
X013570Y007280D01*
X013590Y007280D02*
X013590Y007280D01*
X013602Y007358D02*
X013560Y007358D01*
X013527Y007437D02*
X013628Y007437D01*
X013670Y007515D02*
X013489Y007515D01*
X013411Y007594D02*
X013733Y007594D01*
X013828Y007672D02*
X013284Y007672D01*
X012916Y007672D02*
X012601Y007672D01*
X012601Y007594D02*
X012789Y007594D01*
X012711Y007515D02*
X012601Y007515D01*
X012601Y007437D02*
X012673Y007437D01*
X012640Y007358D02*
X012601Y007358D01*
X012601Y007280D02*
X012630Y007280D01*
X012630Y007201D02*
X012601Y007201D01*
X012601Y007123D02*
X012640Y007123D01*
X012672Y007044D02*
X012601Y007044D01*
X012601Y006966D02*
X012709Y006966D01*
X012788Y006887D02*
X012601Y006887D01*
X012601Y006809D02*
X012912Y006809D01*
X012687Y006652D02*
X016295Y006652D01*
X016295Y006730D02*
X014143Y006730D01*
X014140Y006730D02*
X014060Y006730D01*
X014057Y006730D02*
X012608Y006730D01*
X012765Y006573D02*
X016295Y006573D01*
X016295Y006495D02*
X012844Y006495D01*
X012922Y006416D02*
X016295Y006416D01*
X016295Y006338D02*
X013001Y006338D01*
X013079Y006259D02*
X016295Y006259D01*
X016295Y006181D02*
X013158Y006181D01*
X013236Y006102D02*
X016295Y006102D01*
X016295Y006024D02*
X013315Y006024D01*
X013393Y005945D02*
X016295Y005945D01*
X016295Y005867D02*
X013472Y005867D01*
X013550Y005788D02*
X016295Y005788D01*
X016295Y005710D02*
X013629Y005710D01*
X013707Y005631D02*
X016295Y005631D01*
X016295Y005553D02*
X013786Y005553D01*
X013864Y005474D02*
X016295Y005474D01*
X016295Y005396D02*
X013943Y005396D01*
X014021Y005317D02*
X016295Y005317D01*
X016295Y005239D02*
X014100Y005239D01*
X014178Y005160D02*
X016295Y005160D01*
X016295Y005082D02*
X014257Y005082D01*
X014335Y005003D02*
X016295Y005003D01*
X016295Y004925D02*
X014414Y004925D01*
X014492Y004846D02*
X016295Y004846D01*
X016295Y004768D02*
X014656Y004768D01*
X014721Y004689D02*
X016295Y004689D01*
X016295Y004611D02*
X014754Y004611D01*
X014755Y004532D02*
X016295Y004532D01*
X016295Y004454D02*
X014737Y004454D01*
X014694Y004375D02*
X016295Y004375D01*
X016295Y004297D02*
X014590Y004297D01*
X014360Y004297D02*
X011032Y004297D01*
X010954Y004375D02*
X014256Y004375D01*
X014213Y004454D02*
X010875Y004454D01*
X010797Y004532D02*
X014184Y004532D01*
X014105Y004611D02*
X010718Y004611D01*
X010640Y004689D02*
X014027Y004689D01*
X013948Y004768D02*
X010561Y004768D01*
X010483Y004846D02*
X013870Y004846D01*
X013791Y004925D02*
X010404Y004925D01*
X010326Y005003D02*
X013713Y005003D01*
X013634Y005082D02*
X010247Y005082D01*
X010169Y005160D02*
X013556Y005160D01*
X013477Y005239D02*
X010090Y005239D01*
X010012Y005317D02*
X013399Y005317D01*
X014374Y006809D02*
X016295Y006809D01*
X016295Y006887D02*
X014469Y006887D01*
X014140Y007280D02*
X015473Y007280D01*
X015662Y007515D02*
X016295Y007515D01*
X016295Y007437D02*
X016080Y007437D01*
X016031Y007457D02*
X016134Y007415D01*
X016212Y007336D01*
X016225Y007306D01*
X016238Y007336D01*
X016295Y007393D01*
X016295Y011252D01*
X016320Y011277D01*
X016320Y011358D01*
X016363Y011461D01*
X016441Y011540D01*
X016544Y011582D01*
X016656Y011582D01*
X016759Y011540D01*
X016837Y011461D01*
X016880Y011358D01*
X016880Y011247D01*
X016837Y011144D01*
X016759Y011065D01*
X016656Y011023D01*
X016655Y011023D01*
X016655Y007393D01*
X016712Y007336D01*
X016755Y007233D01*
X016755Y007122D01*
X016712Y007019D01*
X016655Y006962D01*
X016655Y003627D01*
X017043Y003239D01*
X017124Y003239D01*
X017227Y003196D01*
X017306Y003117D01*
X017349Y003014D01*
X017349Y002903D01*
X017306Y002800D01*
X017249Y002743D01*
X017249Y001846D01*
X017925Y001170D01*
X018555Y001170D01*
X018615Y001314D01*
X018776Y001475D01*
X018986Y001562D01*
X019214Y001562D01*
X019424Y001475D01*
X019585Y001314D01*
X019610Y001255D01*
X019610Y002225D01*
X019585Y002166D01*
X019424Y002005D01*
X019214Y001918D01*
X018986Y001918D01*
X018776Y002005D01*
X018615Y002166D01*
X018528Y002376D01*
X018528Y002604D01*
X018615Y002814D01*
X018776Y002975D01*
X018986Y003062D01*
X019214Y003062D01*
X019424Y002975D01*
X019585Y002814D01*
X019610Y002755D01*
X019610Y003650D01*
X019567Y003591D01*
X019499Y003523D01*
X019421Y003466D01*
X019335Y003422D01*
X019243Y003393D01*
X019148Y003378D01*
X019140Y003378D01*
X019140Y003950D01*
X019060Y003950D01*
X019060Y003378D01*
X019052Y003378D01*
X018957Y003393D01*
X018865Y003422D01*
X018779Y003466D01*
X018701Y003523D01*
X018633Y003591D01*
X018576Y003669D01*
X018532Y003755D01*
X018503Y003847D01*
X018488Y003942D01*
X018488Y003950D01*
X019060Y003950D01*
X019060Y004030D01*
X019060Y004602D01*
X019052Y004602D01*
X018957Y004587D01*
X018865Y004558D01*
X018779Y004514D01*
X018701Y004457D01*
X018633Y004389D01*
X018576Y004311D01*
X018532Y004225D01*
X018503Y004133D01*
X018488Y004038D01*
X018488Y004030D01*
X019060Y004030D01*
X019140Y004030D01*
X019140Y004602D01*
X019148Y004602D01*
X019243Y004587D01*
X019335Y004558D01*
X019421Y004514D01*
X019499Y004457D01*
X019567Y004389D01*
X019610Y004330D01*
X019610Y005225D01*
X019585Y005166D01*
X019424Y005005D01*
X019214Y004918D01*
X018986Y004918D01*
X018776Y005005D01*
X018615Y005166D01*
X018528Y005376D01*
X018528Y005604D01*
X018615Y005814D01*
X018776Y005975D01*
X018986Y006062D01*
X019214Y006062D01*
X019424Y005975D01*
X019585Y005814D01*
X019610Y005755D01*
X019610Y006725D01*
X019585Y006666D01*
X019424Y006505D01*
X019214Y006418D01*
X018986Y006418D01*
X018776Y006505D01*
X018615Y006666D01*
X018528Y006876D01*
X018528Y007104D01*
X018615Y007314D01*
X018776Y007475D01*
X018986Y007562D01*
X019214Y007562D01*
X019424Y007475D01*
X019585Y007314D01*
X019610Y007255D01*
X019610Y008150D01*
X019567Y008091D01*
X019499Y008023D01*
X019421Y007966D01*
X019335Y007922D01*
X019243Y007893D01*
X019148Y007878D01*
X019140Y007878D01*
X019140Y008450D01*
X019060Y008450D01*
X019060Y007878D01*
X019052Y007878D01*
X018957Y007893D01*
X018865Y007922D01*
X018779Y007966D01*
X018701Y008023D01*
X018633Y008091D01*
X018576Y008169D01*
X018532Y008255D01*
X018503Y008347D01*
X018488Y008442D01*
X018488Y008450D01*
X019060Y008450D01*
X019060Y008530D01*
X019060Y009102D01*
X019052Y009102D01*
X018957Y009087D01*
X018865Y009058D01*
X018779Y009014D01*
X018701Y008957D01*
X018633Y008889D01*
X018576Y008811D01*
X018532Y008725D01*
X018503Y008633D01*
X018488Y008538D01*
X018488Y008530D01*
X019060Y008530D01*
X019140Y008530D01*
X019140Y009102D01*
X019148Y009102D01*
X019243Y009087D01*
X019335Y009058D01*
X019421Y009014D01*
X019499Y008957D01*
X019567Y008889D01*
X019610Y008830D01*
X019610Y009850D01*
X019585Y009791D01*
X019424Y009630D01*
X019214Y009543D01*
X018986Y009543D01*
X018776Y009630D01*
X018615Y009791D01*
X018528Y010001D01*
X018528Y010229D01*
X018615Y010439D01*
X018776Y010600D01*
X018986Y010687D01*
X019214Y010687D01*
X019424Y010600D01*
X019585Y010439D01*
X019610Y010380D01*
X019610Y011400D01*
X019567Y011341D01*
X019499Y011273D01*
X019421Y011216D01*
X019335Y011172D01*
X019243Y011143D01*
X019148Y011128D01*
X019140Y011128D01*
X019140Y011700D01*
X019060Y011700D01*
X019060Y011128D01*
X019052Y011128D01*
X018957Y011143D01*
X018865Y011172D01*
X018779Y011216D01*
X018701Y011273D01*
X018633Y011341D01*
X018576Y011419D01*
X018532Y011505D01*
X018503Y011597D01*
X018488Y011692D01*
X018488Y011700D01*
X019060Y011700D01*
X019060Y011780D01*
X019060Y012352D01*
X019052Y012352D01*
X018957Y012337D01*
X018865Y012308D01*
X018779Y012264D01*
X018701Y012207D01*
X018633Y012139D01*
X018576Y012061D01*
X018532Y011975D01*
X018503Y011883D01*
X018488Y011788D01*
X018488Y011780D01*
X019060Y011780D01*
X019140Y011780D01*
X019140Y012352D01*
X019148Y012352D01*
X019243Y012337D01*
X019335Y012308D01*
X019421Y012264D01*
X019499Y012207D01*
X019567Y012139D01*
X019610Y012080D01*
X019610Y012975D01*
X019585Y012916D01*
X019424Y012755D01*
X019214Y012668D01*
X018986Y012668D01*
X018776Y012755D01*
X018615Y012916D01*
X018528Y013126D01*
X018528Y013354D01*
X018615Y013564D01*
X018776Y013725D01*
X018986Y013812D01*
X019214Y013812D01*
X019424Y013725D01*
X019585Y013564D01*
X019610Y013505D01*
X019610Y014475D01*
X019585Y014416D01*
X019424Y014255D01*
X019214Y014168D01*
X018986Y014168D01*
X018776Y014255D01*
X018615Y014416D01*
X018578Y014505D01*
X015750Y011678D01*
X015750Y009147D01*
X015662Y009059D01*
X015314Y008711D01*
X015317Y008702D01*
X015317Y008591D01*
X015275Y008488D01*
X015196Y008409D01*
X015093Y008366D01*
X014982Y008366D01*
X014879Y008409D01*
X014800Y008488D01*
X014758Y008591D01*
X014758Y008702D01*
X014800Y008805D01*
X014879Y008884D01*
X014982Y008926D01*
X015093Y008926D01*
X015102Y008923D01*
X015450Y009271D01*
X015450Y011802D01*
X018450Y014802D01*
X018538Y014890D01*
X018543Y014890D01*
X018615Y015064D01*
X018776Y015225D01*
X018986Y015312D01*
X019214Y015312D01*
X019424Y015225D01*
X019585Y015064D01*
X019610Y015005D01*
X019610Y015900D01*
X019567Y015841D01*
X019499Y015773D01*
X019421Y015716D01*
X019335Y015672D01*
X019243Y015643D01*
X019148Y015628D01*
X019140Y015628D01*
X019140Y016200D01*
X019060Y016200D01*
X019060Y015628D01*
X019052Y015628D01*
X018957Y015643D01*
X018865Y015672D01*
X018779Y015716D01*
X018701Y015773D01*
X018633Y015841D01*
X018594Y015895D01*
X018594Y015147D01*
X018506Y015059D01*
X014625Y011178D01*
X014625Y011178D01*
X014537Y011090D01*
X014187Y011090D01*
X014187Y008990D01*
X015789Y007388D01*
X015816Y007415D01*
X015919Y007457D01*
X016031Y007457D01*
X015870Y007437D02*
X015740Y007437D01*
X015583Y007594D02*
X016295Y007594D01*
X016295Y007672D02*
X015505Y007672D01*
X015426Y007751D02*
X016295Y007751D01*
X016295Y007829D02*
X015348Y007829D01*
X015269Y007908D02*
X016295Y007908D01*
X016295Y007986D02*
X015191Y007986D01*
X015112Y008065D02*
X016295Y008065D01*
X016295Y008143D02*
X015034Y008143D01*
X014955Y008222D02*
X016295Y008222D01*
X016295Y008300D02*
X014877Y008300D01*
X014951Y008379D02*
X014798Y008379D01*
X014830Y008457D02*
X014720Y008457D01*
X014780Y008536D02*
X014641Y008536D01*
X014563Y008614D02*
X014758Y008614D01*
X014758Y008693D02*
X014484Y008693D01*
X014406Y008771D02*
X014786Y008771D01*
X014845Y008850D02*
X014327Y008850D01*
X014249Y008928D02*
X015108Y008928D01*
X015186Y009007D02*
X014187Y009007D01*
X014187Y009085D02*
X015265Y009085D01*
X015343Y009164D02*
X014187Y009164D01*
X014187Y009242D02*
X015422Y009242D01*
X015450Y009321D02*
X014187Y009321D01*
X014187Y009399D02*
X015450Y009399D01*
X015450Y009478D02*
X014187Y009478D01*
X014187Y009556D02*
X015450Y009556D01*
X015450Y009635D02*
X014187Y009635D01*
X014187Y009713D02*
X015450Y009713D01*
X015450Y009792D02*
X014187Y009792D01*
X014187Y009870D02*
X015450Y009870D01*
X015450Y009949D02*
X014187Y009949D01*
X014187Y010027D02*
X015450Y010027D01*
X015450Y010106D02*
X014187Y010106D01*
X014187Y010184D02*
X015450Y010184D01*
X015450Y010263D02*
X014187Y010263D01*
X014187Y010341D02*
X015450Y010341D01*
X015450Y010420D02*
X014187Y010420D01*
X014187Y010498D02*
X015450Y010498D01*
X015450Y010577D02*
X014187Y010577D01*
X014187Y010655D02*
X015450Y010655D01*
X015450Y010734D02*
X014187Y010734D01*
X014187Y010812D02*
X015450Y010812D01*
X015450Y010891D02*
X014187Y010891D01*
X014187Y010969D02*
X015450Y010969D01*
X015450Y011048D02*
X014187Y011048D01*
X013888Y011048D02*
X012228Y011048D01*
X012150Y011126D02*
X013888Y011126D01*
X013888Y011205D02*
X012071Y011205D01*
X011993Y011283D02*
X013888Y011283D01*
X013888Y011362D02*
X011914Y011362D01*
X011836Y011440D02*
X013888Y011440D01*
X013888Y011519D02*
X011757Y011519D01*
X011679Y011597D02*
X013888Y011597D01*
X013888Y011676D02*
X011600Y011676D01*
X011522Y011754D02*
X013877Y011754D01*
X013799Y011833D02*
X011443Y011833D01*
X011458Y011911D02*
X013767Y011911D01*
X013758Y011990D02*
X011536Y011990D01*
X011615Y012069D02*
X013767Y012069D01*
X013799Y012147D02*
X011693Y012147D01*
X011772Y012226D02*
X013500Y012226D01*
X013825Y012226D02*
X013877Y012226D01*
X013901Y012304D02*
X014230Y012304D01*
X014198Y012226D02*
X014309Y012226D01*
X014276Y012147D02*
X014380Y012147D01*
X014351Y012069D02*
X014308Y012069D01*
X014317Y011990D02*
X014351Y011990D01*
X014374Y011911D02*
X014308Y011911D01*
X014276Y011833D02*
X014424Y011833D01*
X014544Y011754D02*
X014198Y011754D01*
X014187Y011676D02*
X014699Y011676D01*
X014719Y011754D02*
X014777Y011754D01*
X014839Y011833D02*
X014856Y011833D01*
X014889Y011911D02*
X014934Y011911D01*
X014911Y011990D02*
X015013Y011990D01*
X015091Y012069D02*
X014911Y012069D01*
X014882Y012147D02*
X015170Y012147D01*
X015248Y012226D02*
X014823Y012226D01*
X014654Y012304D02*
X015327Y012304D01*
X015405Y012383D02*
X014576Y012383D01*
X014497Y012461D02*
X015484Y012461D01*
X015562Y012540D02*
X014419Y012540D01*
X014340Y012618D02*
X015641Y012618D01*
X015719Y012697D02*
X014262Y012697D01*
X014183Y012775D02*
X015798Y012775D01*
X015876Y012854D02*
X014105Y012854D01*
X014026Y012932D02*
X015955Y012932D01*
X016033Y013011D02*
X008440Y013011D01*
X008440Y013089D02*
X016112Y013089D01*
X016190Y013168D02*
X008440Y013168D01*
X008440Y013246D02*
X016269Y013246D01*
X016347Y013325D02*
X008440Y013325D01*
X008440Y013403D02*
X016426Y013403D01*
X016504Y013482D02*
X008440Y013482D01*
X008440Y013560D02*
X016583Y013560D01*
X016661Y013639D02*
X015707Y013639D01*
X015368Y013639D02*
X008440Y013639D01*
X008440Y013717D02*
X015296Y013717D01*
X015263Y013796D02*
X008437Y013796D01*
X008440Y013788D02*
X008403Y013876D01*
X008336Y013943D01*
X008248Y013980D01*
X007127Y013980D01*
X007039Y013943D01*
X006972Y013876D01*
X006935Y013788D01*
X006935Y013692D01*
X006935Y010192D01*
X006972Y010104D01*
X007039Y010037D01*
X007127Y010000D01*
X008248Y010000D01*
X008336Y010037D01*
X008403Y010104D01*
X008440Y010192D01*
X008440Y013788D01*
X008404Y013874D02*
X015258Y013874D01*
X015271Y013953D02*
X008314Y013953D01*
X008440Y012932D02*
X011330Y012932D01*
X011251Y012854D02*
X008440Y012854D01*
X008440Y012775D02*
X011173Y012775D01*
X011094Y012697D02*
X008440Y012697D01*
X008440Y012618D02*
X011016Y012618D01*
X010937Y012540D02*
X008440Y012540D01*
X008440Y012461D02*
X010859Y012461D01*
X010780Y012383D02*
X008440Y012383D01*
X008440Y012304D02*
X010702Y012304D01*
X010623Y012226D02*
X008440Y012226D01*
X008440Y012147D02*
X010545Y012147D01*
X010466Y012069D02*
X008440Y012069D01*
X008440Y011990D02*
X010388Y011990D01*
X010309Y011911D02*
X008440Y011911D01*
X008440Y011833D02*
X010231Y011833D01*
X010007Y011754D02*
X008440Y011754D01*
X008440Y011676D02*
X009890Y011676D01*
X009841Y011597D02*
X008440Y011597D01*
X008440Y011519D02*
X009820Y011519D01*
X009820Y011440D02*
X008440Y011440D01*
X008440Y011362D02*
X009850Y011362D01*
X009911Y011283D02*
X008440Y011283D01*
X008440Y011205D02*
X011449Y011205D01*
X011527Y011126D02*
X008440Y011126D01*
X008440Y011048D02*
X011606Y011048D01*
X011684Y010969D02*
X008440Y010969D01*
X008440Y010891D02*
X011763Y010891D01*
X011841Y010812D02*
X008440Y010812D01*
X008440Y010734D02*
X011920Y010734D01*
X011998Y010655D02*
X008440Y010655D01*
X008440Y010577D02*
X012077Y010577D01*
X012155Y010498D02*
X008440Y010498D01*
X008440Y010420D02*
X012161Y010420D01*
X012161Y010341D02*
X008440Y010341D01*
X008440Y010263D02*
X012161Y010263D01*
X012161Y010184D02*
X008437Y010184D01*
X008404Y010106D02*
X012161Y010106D01*
X012161Y010027D02*
X008314Y010027D01*
X008222Y009242D02*
X012144Y009242D01*
X012161Y009321D02*
X003850Y009321D01*
X003850Y009399D02*
X012161Y009399D01*
X012161Y009478D02*
X003850Y009478D01*
X003850Y009556D02*
X012161Y009556D01*
X012161Y009635D02*
X003850Y009635D01*
X003850Y009713D02*
X012161Y009713D01*
X012161Y009792D02*
X003850Y009792D01*
X003850Y009870D02*
X012161Y009870D01*
X012161Y009949D02*
X003850Y009949D01*
X003850Y010027D02*
X007061Y010027D01*
X006971Y010106D02*
X003850Y010106D01*
X003850Y010184D02*
X006938Y010184D01*
X006935Y010263D02*
X003850Y010263D01*
X003850Y010341D02*
X006935Y010341D01*
X006935Y010420D02*
X003850Y010420D01*
X003850Y010498D02*
X006935Y010498D01*
X006935Y010577D02*
X003850Y010577D01*
X003850Y010655D02*
X006935Y010655D01*
X006935Y010734D02*
X003850Y010734D01*
X003850Y010812D02*
X006935Y010812D01*
X006935Y010891D02*
X003850Y010891D01*
X003850Y010969D02*
X006935Y010969D01*
X006935Y011048D02*
X003850Y011048D01*
X003850Y011126D02*
X006935Y011126D01*
X006935Y011205D02*
X003850Y011205D01*
X003850Y011283D02*
X006935Y011283D01*
X006935Y011362D02*
X003850Y011362D01*
X003850Y011440D02*
X006935Y011440D01*
X006935Y011519D02*
X003850Y011519D01*
X003850Y011597D02*
X006935Y011597D01*
X006935Y011676D02*
X003850Y011676D01*
X003850Y011754D02*
X006935Y011754D01*
X006935Y011833D02*
X003850Y011833D01*
X003850Y011911D02*
X006935Y011911D01*
X006935Y011990D02*
X003850Y011990D01*
X003850Y012069D02*
X006935Y012069D01*
X006935Y012147D02*
X003850Y012147D01*
X003850Y012226D02*
X006935Y012226D01*
X006935Y012304D02*
X003850Y012304D01*
X003850Y012383D02*
X006935Y012383D01*
X006935Y012461D02*
X003850Y012461D01*
X003850Y012540D02*
X006935Y012540D01*
X006935Y012618D02*
X003850Y012618D01*
X003850Y012697D02*
X006935Y012697D01*
X006935Y012775D02*
X003850Y012775D01*
X003850Y012854D02*
X006935Y012854D01*
X006935Y012932D02*
X003850Y012932D01*
X003850Y013011D02*
X006935Y013011D01*
X006935Y013089D02*
X003850Y013089D01*
X003850Y013168D02*
X006935Y013168D01*
X006935Y013246D02*
X003850Y013246D01*
X003850Y013325D02*
X006935Y013325D01*
X006935Y013403D02*
X003850Y013403D01*
X003850Y013482D02*
X006935Y013482D01*
X006935Y013560D02*
X003850Y013560D01*
X003850Y013639D02*
X006935Y013639D01*
X006935Y013717D02*
X003850Y013717D01*
X003850Y013796D02*
X006938Y013796D01*
X006971Y013874D02*
X003850Y013874D01*
X003850Y013953D02*
X007061Y013953D01*
X010022Y014973D02*
X017272Y014973D01*
X017350Y015052D02*
X010101Y015052D01*
X010179Y015130D02*
X017429Y015130D01*
X017507Y015209D02*
X010258Y015209D01*
X010336Y015287D02*
X017586Y015287D01*
X017664Y015366D02*
X010415Y015366D01*
X010493Y015444D02*
X017743Y015444D01*
X017774Y015523D02*
X010572Y015523D01*
X010650Y015601D02*
X017815Y015601D01*
X017914Y015680D02*
X010729Y015680D01*
X010807Y015758D02*
X018294Y015758D01*
X018294Y015680D02*
X018161Y015680D01*
X018260Y015601D02*
X018294Y015601D01*
X018294Y015837D02*
X010886Y015837D01*
X010964Y015915D02*
X018294Y015915D01*
X018294Y015994D02*
X011043Y015994D01*
X011121Y016072D02*
X018294Y016072D01*
X018294Y016151D02*
X011200Y016151D01*
X011278Y016229D02*
X018294Y016229D01*
X018294Y016308D02*
X011357Y016308D01*
X011435Y016386D02*
X018294Y016386D01*
X018294Y016465D02*
X011514Y016465D01*
X011592Y016543D02*
X018294Y016543D01*
X018294Y016622D02*
X011671Y016622D01*
X011749Y016700D02*
X018294Y016700D01*
X018294Y016779D02*
X011828Y016779D01*
X011906Y016857D02*
X016849Y016857D01*
X016837Y016859D02*
X016901Y016849D01*
X016901Y017249D01*
X016981Y017249D01*
X016981Y017329D01*
X017381Y017329D01*
X017371Y017393D01*
X017349Y017459D01*
X017318Y017520D01*
X017277Y017577D01*
X017228Y017626D01*
X017172Y017667D01*
X017110Y017698D01*
X017044Y017720D01*
X016981Y017730D01*
X016981Y017329D01*
X016901Y017329D01*
X016901Y017730D01*
X016837Y017720D01*
X016771Y017698D01*
X016709Y017667D01*
X016653Y017626D01*
X016604Y017577D01*
X016563Y017520D01*
X016532Y017459D01*
X016510Y017393D01*
X016500Y017329D01*
X016901Y017329D01*
X016901Y017249D01*
X016500Y017249D01*
X016510Y017186D01*
X016532Y017120D01*
X016563Y017058D01*
X016604Y017002D01*
X016653Y016953D01*
X016709Y016912D01*
X016771Y016880D01*
X016837Y016859D01*
X016901Y016857D02*
X016981Y016857D01*
X016981Y016849D02*
X017044Y016859D01*
X017110Y016880D01*
X017172Y016912D01*
X017228Y016953D01*
X017277Y017002D01*
X017318Y017058D01*
X017349Y017120D01*
X017371Y017186D01*
X017381Y017249D01*
X016981Y017249D01*
X016981Y016849D01*
X017032Y016857D02*
X018294Y016857D01*
X018294Y016936D02*
X017204Y016936D01*
X017286Y017014D02*
X018294Y017014D01*
X018294Y017093D02*
X017335Y017093D01*
X017366Y017171D02*
X018319Y017171D01*
X018397Y017250D02*
X016981Y017250D01*
X016981Y017328D02*
X018476Y017328D01*
X018554Y017407D02*
X017366Y017407D01*
X017336Y017485D02*
X018586Y017485D01*
X018553Y017564D02*
X017287Y017564D01*
X017206Y017642D02*
X018528Y017642D01*
X018528Y017721D02*
X017038Y017721D01*
X016981Y017721D02*
X016901Y017721D01*
X016843Y017721D02*
X012770Y017721D01*
X012848Y017799D02*
X018528Y017799D01*
X018537Y017878D02*
X012927Y017878D01*
X013005Y017956D02*
X018570Y017956D01*
X018602Y018035D02*
X013084Y018035D01*
X013162Y018113D02*
X018663Y018113D01*
X018742Y018192D02*
X013241Y018192D01*
X013319Y018270D02*
X014764Y018270D01*
X014574Y018349D02*
X013398Y018349D01*
X013476Y018427D02*
X014455Y018427D01*
X014376Y018506D02*
X013555Y018506D01*
X013633Y018584D02*
X014299Y018584D01*
X014267Y018663D02*
X013712Y018663D01*
X013790Y018741D02*
X014234Y018741D01*
X014202Y018820D02*
X013869Y018820D01*
X013947Y018898D02*
X014191Y018898D01*
X014191Y018977D02*
X014026Y018977D01*
X014104Y019055D02*
X014191Y019055D01*
X014183Y019134D02*
X014191Y019134D01*
X014811Y019762D02*
X018863Y019762D01*
X018733Y019683D02*
X018001Y019683D01*
X017931Y019712D02*
X017643Y019712D01*
X017378Y019602D01*
X017175Y019399D01*
X017065Y019134D01*
X017065Y018846D01*
X017175Y018581D01*
X017378Y018378D01*
X017643Y018268D01*
X017931Y018268D01*
X018196Y018378D01*
X018399Y018581D01*
X018509Y018846D01*
X018509Y019134D01*
X018399Y019399D01*
X018196Y019602D01*
X017931Y019712D01*
X018191Y019605D02*
X018655Y019605D01*
X018599Y019526D02*
X018272Y019526D01*
X018351Y019448D02*
X018566Y019448D01*
X018534Y019369D02*
X018412Y019369D01*
X018444Y019291D02*
X018528Y019291D01*
X018528Y019212D02*
X018477Y019212D01*
X018509Y019134D02*
X018528Y019134D01*
X018509Y019055D02*
X018557Y019055D01*
X018590Y018977D02*
X018509Y018977D01*
X018509Y018898D02*
X018632Y018898D01*
X018711Y018820D02*
X018498Y018820D01*
X018466Y018741D02*
X018809Y018741D01*
X018433Y018663D02*
X019610Y018663D01*
X019610Y018741D02*
X019391Y018741D01*
X019489Y018820D02*
X019610Y018820D01*
X019610Y018898D02*
X019568Y018898D01*
X019610Y018584D02*
X018401Y018584D01*
X018324Y018506D02*
X019610Y018506D01*
X019610Y018427D02*
X018245Y018427D01*
X018126Y018349D02*
X019610Y018349D01*
X019610Y018270D02*
X019316Y018270D01*
X019458Y018192D02*
X019610Y018192D01*
X019610Y018113D02*
X019537Y018113D01*
X019598Y018035D02*
X019610Y018035D01*
X019610Y017475D02*
X019610Y016580D01*
X019567Y016639D01*
X019499Y016707D01*
X019421Y016764D01*
X019335Y016808D01*
X019243Y016837D01*
X019148Y016852D01*
X019140Y016852D01*
X019140Y016280D01*
X019060Y016280D01*
X019060Y016852D01*
X019052Y016852D01*
X018957Y016837D01*
X018865Y016808D01*
X018779Y016764D01*
X018701Y016707D01*
X018633Y016639D01*
X018594Y016585D01*
X018594Y017022D01*
X018812Y017240D01*
X018986Y017168D01*
X019214Y017168D01*
X019424Y017255D01*
X019585Y017416D01*
X019610Y017475D01*
X019610Y017407D02*
X019576Y017407D01*
X019610Y017328D02*
X019498Y017328D01*
X019412Y017250D02*
X019610Y017250D01*
X019610Y017171D02*
X019222Y017171D01*
X018978Y017171D02*
X018743Y017171D01*
X018665Y017093D02*
X019610Y017093D01*
X019610Y017014D02*
X018594Y017014D01*
X018594Y016936D02*
X019610Y016936D01*
X019610Y016857D02*
X018594Y016857D01*
X018594Y016779D02*
X018808Y016779D01*
X018694Y016700D02*
X018594Y016700D01*
X018594Y016622D02*
X018620Y016622D01*
X019060Y016622D02*
X019140Y016622D01*
X019140Y016700D02*
X019060Y016700D01*
X019060Y016779D02*
X019140Y016779D01*
X019140Y016543D02*
X019060Y016543D01*
X019060Y016465D02*
X019140Y016465D01*
X019140Y016386D02*
X019060Y016386D01*
X019060Y016308D02*
X019140Y016308D01*
X019140Y016151D02*
X019060Y016151D01*
X019060Y016072D02*
X019140Y016072D01*
X019140Y015994D02*
X019060Y015994D01*
X019060Y015915D02*
X019140Y015915D01*
X019140Y015837D02*
X019060Y015837D01*
X019060Y015758D02*
X019140Y015758D01*
X019140Y015680D02*
X019060Y015680D01*
X018851Y015680D02*
X018594Y015680D01*
X018594Y015758D02*
X018721Y015758D01*
X018637Y015837D02*
X018594Y015837D01*
X018594Y015601D02*
X019610Y015601D01*
X019610Y015523D02*
X018594Y015523D01*
X018594Y015444D02*
X019610Y015444D01*
X019610Y015366D02*
X018594Y015366D01*
X018594Y015287D02*
X018925Y015287D01*
X018759Y015209D02*
X018594Y015209D01*
X018577Y015130D02*
X018680Y015130D01*
X018609Y015052D02*
X018499Y015052D01*
X018420Y014973D02*
X018577Y014973D01*
X018544Y014895D02*
X018342Y014895D01*
X018263Y014816D02*
X018464Y014816D01*
X018385Y014738D02*
X018185Y014738D01*
X018106Y014659D02*
X018307Y014659D01*
X018228Y014581D02*
X018028Y014581D01*
X017949Y014502D02*
X018150Y014502D01*
X018071Y014424D02*
X017871Y014424D01*
X017792Y014345D02*
X017993Y014345D01*
X017914Y014267D02*
X017714Y014267D01*
X017635Y014188D02*
X017836Y014188D01*
X017757Y014110D02*
X017557Y014110D01*
X017478Y014031D02*
X017679Y014031D01*
X017600Y013953D02*
X017400Y013953D01*
X017321Y013874D02*
X017522Y013874D01*
X017443Y013796D02*
X017243Y013796D01*
X017164Y013717D02*
X017365Y013717D01*
X017286Y013639D02*
X017086Y013639D01*
X017007Y013560D02*
X017208Y013560D01*
X017129Y013482D02*
X016929Y013482D01*
X016850Y013403D02*
X017051Y013403D01*
X016972Y013325D02*
X016772Y013325D01*
X016693Y013246D02*
X016894Y013246D01*
X016815Y013168D02*
X016615Y013168D01*
X016536Y013089D02*
X016737Y013089D01*
X016658Y013011D02*
X016458Y013011D01*
X016379Y012932D02*
X016580Y012932D01*
X016501Y012854D02*
X016301Y012854D01*
X016222Y012775D02*
X016423Y012775D01*
X016344Y012697D02*
X016144Y012697D01*
X016065Y012618D02*
X016266Y012618D01*
X016187Y012540D02*
X015987Y012540D01*
X015908Y012461D02*
X016109Y012461D01*
X016030Y012383D02*
X015830Y012383D01*
X015751Y012304D02*
X015952Y012304D01*
X015873Y012226D02*
X015673Y012226D01*
X015594Y012147D02*
X015795Y012147D01*
X015716Y012069D02*
X015516Y012069D01*
X015437Y011990D02*
X015638Y011990D01*
X015559Y011911D02*
X015359Y011911D01*
X015280Y011833D02*
X015481Y011833D01*
X015450Y011754D02*
X015202Y011754D01*
X015123Y011676D02*
X015450Y011676D01*
X015450Y011597D02*
X015045Y011597D01*
X014966Y011519D02*
X015450Y011519D01*
X015450Y011440D02*
X014888Y011440D01*
X014809Y011362D02*
X015450Y011362D01*
X015450Y011283D02*
X014731Y011283D01*
X014652Y011205D02*
X015450Y011205D01*
X015450Y011126D02*
X014574Y011126D01*
X014463Y011440D02*
X014187Y011440D01*
X014187Y011519D02*
X014542Y011519D01*
X014620Y011597D02*
X014187Y011597D01*
X013888Y010969D02*
X012307Y010969D01*
X012385Y010891D02*
X013888Y010891D01*
X013888Y010812D02*
X012464Y010812D01*
X012542Y010734D02*
X013888Y010734D01*
X013888Y010655D02*
X012601Y010655D01*
X012601Y010577D02*
X013888Y010577D01*
X013888Y010498D02*
X012601Y010498D01*
X012601Y010420D02*
X013888Y010420D01*
X013888Y010341D02*
X012601Y010341D01*
X012601Y010263D02*
X013888Y010263D01*
X013888Y010184D02*
X012601Y010184D01*
X012601Y010106D02*
X013888Y010106D01*
X013888Y010027D02*
X012601Y010027D01*
X012601Y009949D02*
X013888Y009949D01*
X013888Y009870D02*
X012601Y009870D01*
X012601Y009792D02*
X013888Y009792D01*
X013888Y009713D02*
X012601Y009713D01*
X012601Y009635D02*
X013888Y009635D01*
X013888Y009556D02*
X012601Y009556D01*
X012601Y009478D02*
X013888Y009478D01*
X013888Y009399D02*
X012601Y009399D01*
X012601Y009321D02*
X013888Y009321D01*
X013888Y009242D02*
X012618Y009242D01*
X012651Y009164D02*
X013888Y009164D01*
X013888Y009085D02*
X012661Y009085D01*
X012653Y009007D02*
X013888Y009007D01*
X013888Y008928D02*
X012620Y008928D01*
X012601Y008850D02*
X013903Y008850D01*
X013981Y008771D02*
X012601Y008771D01*
X014060Y007672D02*
X014140Y007672D01*
X014140Y007594D02*
X014060Y007594D01*
X014060Y007515D02*
X014140Y007515D01*
X014140Y007437D02*
X014060Y007437D01*
X014060Y007358D02*
X014140Y007358D01*
X015124Y008379D02*
X016295Y008379D01*
X016295Y008457D02*
X015245Y008457D01*
X015295Y008536D02*
X016295Y008536D01*
X016295Y008614D02*
X015317Y008614D01*
X015317Y008693D02*
X016295Y008693D01*
X016295Y008771D02*
X015375Y008771D01*
X015453Y008850D02*
X016295Y008850D01*
X016295Y008928D02*
X015532Y008928D01*
X015610Y009007D02*
X016295Y009007D01*
X016295Y009085D02*
X015689Y009085D01*
X015750Y009164D02*
X016295Y009164D01*
X016295Y009242D02*
X015750Y009242D01*
X015750Y009321D02*
X016295Y009321D01*
X016295Y009399D02*
X015750Y009399D01*
X015750Y009478D02*
X016295Y009478D01*
X016295Y009556D02*
X015750Y009556D01*
X015750Y009635D02*
X016295Y009635D01*
X016295Y009713D02*
X015750Y009713D01*
X015750Y009792D02*
X016295Y009792D01*
X016295Y009870D02*
X015750Y009870D01*
X015750Y009949D02*
X016295Y009949D01*
X016295Y010027D02*
X015750Y010027D01*
X015750Y010106D02*
X016295Y010106D01*
X016295Y010184D02*
X015750Y010184D01*
X015750Y010263D02*
X016295Y010263D01*
X016295Y010341D02*
X015750Y010341D01*
X015750Y010420D02*
X016295Y010420D01*
X016295Y010498D02*
X015750Y010498D01*
X015750Y010577D02*
X016295Y010577D01*
X016295Y010655D02*
X015750Y010655D01*
X015750Y010734D02*
X016295Y010734D01*
X016295Y010812D02*
X015750Y010812D01*
X015750Y010891D02*
X016295Y010891D01*
X016295Y010969D02*
X015750Y010969D01*
X015750Y011048D02*
X016295Y011048D01*
X016295Y011126D02*
X015750Y011126D01*
X015750Y011205D02*
X016295Y011205D01*
X016320Y011283D02*
X015750Y011283D01*
X015750Y011362D02*
X016322Y011362D01*
X016354Y011440D02*
X015750Y011440D01*
X015750Y011519D02*
X016421Y011519D01*
X016779Y011519D02*
X018528Y011519D01*
X018502Y011597D02*
X015750Y011597D01*
X015750Y011676D02*
X018490Y011676D01*
X018495Y011833D02*
X015905Y011833D01*
X015827Y011754D02*
X019060Y011754D01*
X019060Y011676D02*
X019140Y011676D01*
X019140Y011597D02*
X019060Y011597D01*
X019060Y011519D02*
X019140Y011519D01*
X019140Y011440D02*
X019060Y011440D01*
X019060Y011362D02*
X019140Y011362D01*
X019140Y011283D02*
X019060Y011283D01*
X019060Y011205D02*
X019140Y011205D01*
X018801Y011205D02*
X016863Y011205D01*
X016880Y011283D02*
X018690Y011283D01*
X018618Y011362D02*
X016878Y011362D01*
X016846Y011440D02*
X018565Y011440D01*
X018512Y011911D02*
X015984Y011911D01*
X016062Y011990D02*
X018540Y011990D01*
X018582Y012069D02*
X016141Y012069D01*
X016219Y012147D02*
X018641Y012147D01*
X018726Y012226D02*
X016298Y012226D01*
X016376Y012304D02*
X018858Y012304D01*
X019060Y012304D02*
X019140Y012304D01*
X019140Y012226D02*
X019060Y012226D01*
X019060Y012147D02*
X019140Y012147D01*
X019140Y012069D02*
X019060Y012069D01*
X019060Y011990D02*
X019140Y011990D01*
X019140Y011911D02*
X019060Y011911D01*
X019060Y011833D02*
X019140Y011833D01*
X019342Y012304D02*
X019610Y012304D01*
X019610Y012226D02*
X019474Y012226D01*
X019559Y012147D02*
X019610Y012147D01*
X019610Y012383D02*
X016455Y012383D01*
X016533Y012461D02*
X019610Y012461D01*
X019610Y012540D02*
X016612Y012540D01*
X016690Y012618D02*
X019610Y012618D01*
X019610Y012697D02*
X019284Y012697D01*
X019445Y012775D02*
X019610Y012775D01*
X019610Y012854D02*
X019523Y012854D01*
X019592Y012932D02*
X019610Y012932D01*
X019587Y013560D02*
X019610Y013560D01*
X019610Y013639D02*
X019511Y013639D01*
X019433Y013717D02*
X019610Y013717D01*
X019610Y013796D02*
X019255Y013796D01*
X018945Y013796D02*
X017868Y013796D01*
X017946Y013874D02*
X019610Y013874D01*
X019610Y013953D02*
X018025Y013953D01*
X018103Y014031D02*
X019610Y014031D01*
X019610Y014110D02*
X018182Y014110D01*
X018260Y014188D02*
X018937Y014188D01*
X018764Y014267D02*
X018339Y014267D01*
X018417Y014345D02*
X018685Y014345D01*
X018611Y014424D02*
X018496Y014424D01*
X018574Y014502D02*
X018579Y014502D01*
X018153Y015130D02*
X018051Y015130D01*
X018074Y015052D02*
X017973Y015052D01*
X017996Y014973D02*
X017894Y014973D01*
X017917Y014895D02*
X017816Y014895D01*
X017839Y014816D02*
X017737Y014816D01*
X017760Y014738D02*
X017659Y014738D01*
X017682Y014659D02*
X017580Y014659D01*
X017603Y014581D02*
X017502Y014581D01*
X017525Y014502D02*
X017423Y014502D01*
X017446Y014424D02*
X017345Y014424D01*
X017368Y014345D02*
X017266Y014345D01*
X017289Y014267D02*
X017188Y014267D01*
X017211Y014188D02*
X017109Y014188D01*
X017132Y014110D02*
X017031Y014110D01*
X017054Y014031D02*
X016952Y014031D01*
X016975Y013953D02*
X016874Y013953D01*
X016897Y013874D02*
X016795Y013874D01*
X016818Y013796D02*
X016717Y013796D01*
X016740Y013717D02*
X016638Y013717D01*
X016408Y014110D02*
X015679Y014110D01*
X015396Y014110D02*
X003850Y014110D01*
X003850Y014188D02*
X016487Y014188D01*
X016565Y014267D02*
X003850Y014267D01*
X003850Y014345D02*
X016644Y014345D01*
X016722Y014424D02*
X003850Y014424D01*
X003850Y014502D02*
X016801Y014502D01*
X016879Y014581D02*
X003850Y014581D01*
X003850Y014659D02*
X016958Y014659D01*
X017036Y014738D02*
X003850Y014738D01*
X003850Y014816D02*
X017115Y014816D01*
X017193Y014895D02*
X003850Y014895D01*
X003850Y014031D02*
X015308Y014031D01*
X016769Y012697D02*
X018916Y012697D01*
X018755Y012775D02*
X016847Y012775D01*
X016926Y012854D02*
X018677Y012854D01*
X018608Y012932D02*
X017004Y012932D01*
X017083Y013011D02*
X018575Y013011D01*
X018543Y013089D02*
X017161Y013089D01*
X017240Y013168D02*
X018528Y013168D01*
X018528Y013246D02*
X017318Y013246D01*
X017397Y013325D02*
X018528Y013325D01*
X018548Y013403D02*
X017475Y013403D01*
X017554Y013482D02*
X018580Y013482D01*
X018613Y013560D02*
X017632Y013560D01*
X017711Y013639D02*
X018689Y013639D01*
X018767Y013717D02*
X017789Y013717D01*
X019263Y014188D02*
X019610Y014188D01*
X019610Y014267D02*
X019436Y014267D01*
X019515Y014345D02*
X019610Y014345D01*
X019610Y014424D02*
X019589Y014424D01*
X019591Y015052D02*
X019610Y015052D01*
X019610Y015130D02*
X019520Y015130D01*
X019441Y015209D02*
X019610Y015209D01*
X019610Y015287D02*
X019275Y015287D01*
X019349Y015680D02*
X019610Y015680D01*
X019610Y015758D02*
X019479Y015758D01*
X019563Y015837D02*
X019610Y015837D01*
X019580Y016622D02*
X019610Y016622D01*
X019610Y016700D02*
X019506Y016700D01*
X019610Y016779D02*
X019392Y016779D01*
X018884Y018270D02*
X017936Y018270D01*
X017638Y018270D02*
X015062Y018270D01*
X015252Y018349D02*
X017448Y018349D01*
X017329Y018427D02*
X015371Y018427D01*
X015450Y018506D02*
X017250Y018506D01*
X017173Y018584D02*
X015527Y018584D01*
X015559Y018663D02*
X017141Y018663D01*
X017108Y018741D02*
X015592Y018741D01*
X015624Y018820D02*
X017076Y018820D01*
X017065Y018898D02*
X015635Y018898D01*
X015635Y018977D02*
X017065Y018977D01*
X017065Y019055D02*
X015635Y019055D01*
X015635Y019134D02*
X017065Y019134D01*
X017097Y019212D02*
X015603Y019212D01*
X015570Y019291D02*
X017130Y019291D01*
X017162Y019369D02*
X015538Y019369D01*
X015477Y019448D02*
X017223Y019448D01*
X017302Y019526D02*
X015398Y019526D01*
X015317Y019605D02*
X017383Y019605D01*
X017573Y019683D02*
X015127Y019683D01*
X014889Y019840D02*
X019610Y019840D01*
X019610Y019762D02*
X019337Y019762D01*
X019467Y019683D02*
X019610Y019683D01*
X019610Y019605D02*
X019545Y019605D01*
X019601Y019526D02*
X019610Y019526D01*
X016981Y017642D02*
X016901Y017642D01*
X016901Y017564D02*
X016981Y017564D01*
X016981Y017485D02*
X016901Y017485D01*
X016901Y017407D02*
X016981Y017407D01*
X016901Y017328D02*
X016161Y017328D01*
X016161Y017369D02*
X016161Y017209D01*
X016100Y017062D01*
X015987Y016949D01*
X015839Y016888D01*
X015680Y016888D01*
X015532Y016949D01*
X015419Y017062D01*
X015358Y017209D01*
X015358Y017369D01*
X015419Y017516D01*
X015532Y017629D01*
X015680Y017690D01*
X015839Y017690D01*
X015987Y017629D01*
X016100Y017516D01*
X016161Y017369D01*
X016145Y017407D02*
X016515Y017407D01*
X016545Y017485D02*
X016113Y017485D01*
X016052Y017564D02*
X016595Y017564D01*
X016676Y017642D02*
X015956Y017642D01*
X015563Y017642D02*
X012691Y017642D01*
X012613Y017564D02*
X015466Y017564D01*
X015406Y017485D02*
X012534Y017485D01*
X012456Y017407D02*
X015374Y017407D01*
X015358Y017328D02*
X012377Y017328D01*
X012299Y017250D02*
X015358Y017250D01*
X015374Y017171D02*
X012220Y017171D01*
X012142Y017093D02*
X015407Y017093D01*
X015467Y017014D02*
X012063Y017014D01*
X011985Y016936D02*
X015565Y016936D01*
X015954Y016936D02*
X016677Y016936D01*
X016595Y017014D02*
X016052Y017014D01*
X016112Y017093D02*
X016546Y017093D01*
X016515Y017171D02*
X016145Y017171D01*
X016161Y017250D02*
X016901Y017250D01*
X016901Y017171D02*
X016981Y017171D01*
X016981Y017093D02*
X016901Y017093D01*
X016901Y017014D02*
X016981Y017014D01*
X016981Y016936D02*
X016901Y016936D01*
X018282Y015287D02*
X018294Y015287D01*
X018231Y015209D02*
X018214Y015209D01*
X019582Y011362D02*
X019610Y011362D01*
X019610Y011283D02*
X019510Y011283D01*
X019610Y011205D02*
X019399Y011205D01*
X019610Y011126D02*
X016820Y011126D01*
X016717Y011048D02*
X019610Y011048D01*
X019610Y010969D02*
X016655Y010969D01*
X016655Y010891D02*
X019610Y010891D01*
X019610Y010812D02*
X016655Y010812D01*
X016655Y010734D02*
X019610Y010734D01*
X019610Y010655D02*
X019291Y010655D01*
X019448Y010577D02*
X019610Y010577D01*
X019610Y010498D02*
X019526Y010498D01*
X019593Y010420D02*
X019610Y010420D01*
X019586Y009792D02*
X019610Y009792D01*
X019610Y009713D02*
X019508Y009713D01*
X019430Y009635D02*
X019610Y009635D01*
X019610Y009556D02*
X019248Y009556D01*
X018952Y009556D02*
X016655Y009556D01*
X016655Y009478D02*
X019610Y009478D01*
X019610Y009399D02*
X016655Y009399D01*
X016655Y009321D02*
X019610Y009321D01*
X019610Y009242D02*
X016655Y009242D01*
X016655Y009164D02*
X019610Y009164D01*
X019610Y009085D02*
X019249Y009085D01*
X019140Y009085D02*
X019060Y009085D01*
X019060Y009007D02*
X019140Y009007D01*
X019140Y008928D02*
X019060Y008928D01*
X019060Y008850D02*
X019140Y008850D01*
X019140Y008771D02*
X019060Y008771D01*
X019060Y008693D02*
X019140Y008693D01*
X019140Y008614D02*
X019060Y008614D01*
X019060Y008536D02*
X019140Y008536D01*
X019060Y008457D02*
X016655Y008457D01*
X016655Y008379D02*
X018498Y008379D01*
X018518Y008300D02*
X016655Y008300D01*
X016655Y008222D02*
X018549Y008222D01*
X018595Y008143D02*
X016655Y008143D01*
X016655Y008065D02*
X018659Y008065D01*
X018751Y007986D02*
X016655Y007986D01*
X016655Y007908D02*
X018909Y007908D01*
X019060Y007908D02*
X019140Y007908D01*
X019140Y007986D02*
X019060Y007986D01*
X019060Y008065D02*
X019140Y008065D01*
X019140Y008143D02*
X019060Y008143D01*
X019060Y008222D02*
X019140Y008222D01*
X019140Y008300D02*
X019060Y008300D01*
X019060Y008379D02*
X019140Y008379D01*
X019291Y007908D02*
X019610Y007908D01*
X019610Y007986D02*
X019449Y007986D01*
X019541Y008065D02*
X019610Y008065D01*
X019605Y008143D02*
X019610Y008143D01*
X019610Y007829D02*
X016655Y007829D01*
X016655Y007751D02*
X019610Y007751D01*
X019610Y007672D02*
X016655Y007672D01*
X016655Y007594D02*
X019610Y007594D01*
X019610Y007515D02*
X019327Y007515D01*
X019463Y007437D02*
X019610Y007437D01*
X019610Y007358D02*
X019541Y007358D01*
X019599Y007280D02*
X019610Y007280D01*
X019610Y006652D02*
X019572Y006652D01*
X019610Y006573D02*
X019493Y006573D01*
X019401Y006495D02*
X019610Y006495D01*
X019610Y006416D02*
X016655Y006416D01*
X016655Y006338D02*
X019610Y006338D01*
X019610Y006259D02*
X016655Y006259D01*
X016655Y006181D02*
X019610Y006181D01*
X019610Y006102D02*
X016655Y006102D01*
X016655Y006024D02*
X018893Y006024D01*
X018746Y005945D02*
X016655Y005945D01*
X016655Y005867D02*
X018667Y005867D01*
X018604Y005788D02*
X016655Y005788D01*
X016655Y005710D02*
X018572Y005710D01*
X018539Y005631D02*
X016655Y005631D01*
X016655Y005553D02*
X018528Y005553D01*
X018528Y005474D02*
X016655Y005474D01*
X016655Y005396D02*
X018528Y005396D01*
X018552Y005317D02*
X016655Y005317D01*
X016655Y005239D02*
X018584Y005239D01*
X018620Y005160D02*
X016655Y005160D01*
X016655Y005082D02*
X018698Y005082D01*
X018779Y005003D02*
X016655Y005003D01*
X016655Y004925D02*
X018968Y004925D01*
X019232Y004925D02*
X019610Y004925D01*
X019610Y005003D02*
X019421Y005003D01*
X019502Y005082D02*
X019610Y005082D01*
X019610Y005160D02*
X019580Y005160D01*
X019610Y004846D02*
X016655Y004846D01*
X016655Y004768D02*
X019610Y004768D01*
X019610Y004689D02*
X016655Y004689D01*
X016655Y004611D02*
X019610Y004611D01*
X019610Y004532D02*
X019384Y004532D01*
X019502Y004454D02*
X019610Y004454D01*
X019610Y004375D02*
X019577Y004375D01*
X019140Y004375D02*
X019060Y004375D01*
X019060Y004297D02*
X019140Y004297D01*
X019140Y004218D02*
X019060Y004218D01*
X019060Y004140D02*
X019140Y004140D01*
X019140Y004061D02*
X019060Y004061D01*
X019060Y003983D02*
X016655Y003983D01*
X016655Y004061D02*
X018491Y004061D01*
X018505Y004140D02*
X016655Y004140D01*
X016655Y004218D02*
X018530Y004218D01*
X018569Y004297D02*
X016655Y004297D01*
X016655Y004375D02*
X018623Y004375D01*
X018698Y004454D02*
X016655Y004454D01*
X016655Y004532D02*
X018816Y004532D01*
X019060Y004532D02*
X019140Y004532D01*
X019140Y004454D02*
X019060Y004454D01*
X019060Y003904D02*
X019140Y003904D01*
X019140Y003826D02*
X019060Y003826D01*
X019060Y003747D02*
X019140Y003747D01*
X019140Y003669D02*
X019060Y003669D01*
X019060Y003590D02*
X019140Y003590D01*
X019140Y003512D02*
X019060Y003512D01*
X019060Y003433D02*
X019140Y003433D01*
X018843Y003433D02*
X016849Y003433D01*
X016927Y003355D02*
X019610Y003355D01*
X019610Y003433D02*
X019357Y003433D01*
X019484Y003512D02*
X019610Y003512D01*
X019610Y003590D02*
X019567Y003590D01*
X019610Y003276D02*
X017006Y003276D01*
X017223Y003198D02*
X019610Y003198D01*
X019610Y003119D02*
X017304Y003119D01*
X017338Y003041D02*
X018934Y003041D01*
X018763Y002962D02*
X017349Y002962D01*
X017341Y002884D02*
X018684Y002884D01*
X018611Y002805D02*
X017308Y002805D01*
X017249Y002727D02*
X018579Y002727D01*
X018546Y002648D02*
X017249Y002648D01*
X017249Y002570D02*
X018528Y002570D01*
X018528Y002491D02*
X017249Y002491D01*
X017249Y002413D02*
X018528Y002413D01*
X018545Y002334D02*
X017249Y002334D01*
X017249Y002256D02*
X018577Y002256D01*
X018610Y002177D02*
X017249Y002177D01*
X017249Y002099D02*
X018681Y002099D01*
X018760Y002020D02*
X017249Y002020D01*
X017249Y001942D02*
X018927Y001942D01*
X019273Y001942D02*
X019610Y001942D01*
X019610Y002020D02*
X019440Y002020D01*
X019519Y002099D02*
X019610Y002099D01*
X019610Y002177D02*
X019590Y002177D01*
X019610Y001863D02*
X017249Y001863D01*
X017310Y001785D02*
X019610Y001785D01*
X019610Y001706D02*
X017388Y001706D01*
X017467Y001628D02*
X019610Y001628D01*
X019610Y001549D02*
X019245Y001549D01*
X019429Y001471D02*
X019610Y001471D01*
X019610Y001392D02*
X019507Y001392D01*
X019585Y001314D02*
X019610Y001314D01*
X019594Y000686D02*
X019610Y000686D01*
X019610Y000607D02*
X019527Y000607D01*
X019449Y000529D02*
X019610Y000529D01*
X019610Y000450D02*
X019293Y000450D01*
X018907Y000450D02*
X014879Y000450D01*
X014800Y000529D02*
X018751Y000529D01*
X018673Y000607D02*
X014722Y000607D01*
X014643Y000686D02*
X018606Y000686D01*
X018574Y000764D02*
X014565Y000764D01*
X014486Y000843D02*
X017742Y000843D01*
X017664Y000921D02*
X014408Y000921D01*
X014329Y001000D02*
X017585Y001000D01*
X017507Y001078D02*
X014251Y001078D01*
X014172Y001157D02*
X017428Y001157D01*
X017350Y001235D02*
X014094Y001235D01*
X014015Y001314D02*
X017271Y001314D01*
X017193Y001392D02*
X013937Y001392D01*
X013858Y001471D02*
X017114Y001471D01*
X017036Y001549D02*
X013780Y001549D01*
X013701Y001628D02*
X016957Y001628D01*
X016889Y001706D02*
X013623Y001706D01*
X013544Y001785D02*
X016889Y001785D01*
X016889Y001863D02*
X013466Y001863D01*
X013387Y001942D02*
X016889Y001942D01*
X016889Y002020D02*
X013309Y002020D01*
X013230Y002099D02*
X016889Y002099D01*
X016889Y002177D02*
X013152Y002177D01*
X013073Y002256D02*
X016889Y002256D01*
X016889Y002334D02*
X012995Y002334D01*
X012916Y002413D02*
X016889Y002413D01*
X016889Y002491D02*
X012838Y002491D01*
X012759Y002570D02*
X016889Y002570D01*
X016889Y002648D02*
X012681Y002648D01*
X012602Y002727D02*
X016889Y002727D01*
X016829Y002805D02*
X012524Y002805D01*
X012445Y002884D02*
X016797Y002884D01*
X016789Y002962D02*
X012367Y002962D01*
X012288Y003041D02*
X016732Y003041D01*
X016653Y003119D02*
X012210Y003119D01*
X012131Y003198D02*
X016575Y003198D01*
X016496Y003276D02*
X012053Y003276D01*
X011974Y003355D02*
X016418Y003355D01*
X016339Y003433D02*
X011896Y003433D01*
X011817Y003512D02*
X016295Y003512D01*
X016295Y003590D02*
X011739Y003590D01*
X011660Y003669D02*
X016295Y003669D01*
X016295Y003747D02*
X011582Y003747D01*
X011503Y003826D02*
X016295Y003826D01*
X016295Y003904D02*
X011425Y003904D01*
X011346Y003983D02*
X016295Y003983D01*
X016295Y004061D02*
X011268Y004061D01*
X011189Y004140D02*
X016295Y004140D01*
X016295Y004218D02*
X011111Y004218D01*
X007923Y008771D02*
X003850Y008771D01*
X003850Y008850D02*
X007855Y008850D01*
X007822Y008928D02*
X003850Y008928D01*
X003850Y009007D02*
X007820Y009007D01*
X007836Y009085D02*
X003850Y009085D01*
X003850Y009164D02*
X007878Y009164D01*
X007978Y009242D02*
X003850Y009242D01*
X010289Y011283D02*
X011370Y011283D01*
X011292Y011362D02*
X010350Y011362D01*
X010380Y011440D02*
X011213Y011440D01*
X011135Y011519D02*
X010380Y011519D01*
X010420Y011597D02*
X011014Y011597D01*
X010893Y011676D02*
X010498Y011676D01*
X010577Y011754D02*
X010843Y011754D01*
X010820Y011833D02*
X010655Y011833D01*
X010734Y011911D02*
X010820Y011911D01*
X010812Y011990D02*
X010849Y011990D01*
X010891Y012069D02*
X010908Y012069D01*
X010969Y012147D02*
X011071Y012147D01*
X011048Y012226D02*
X011149Y012226D01*
X011126Y012304D02*
X011228Y012304D01*
X011205Y012383D02*
X011306Y012383D01*
X011283Y012461D02*
X011385Y012461D01*
X011362Y012540D02*
X011463Y012540D01*
X011440Y012618D02*
X011542Y012618D01*
X013899Y012618D02*
X013916Y012618D01*
X013932Y012540D02*
X013995Y012540D01*
X013942Y012461D02*
X014073Y012461D01*
X014152Y012383D02*
X013934Y012383D01*
X016655Y010655D02*
X018909Y010655D01*
X018752Y010577D02*
X016655Y010577D01*
X016655Y010498D02*
X018674Y010498D01*
X018607Y010420D02*
X016655Y010420D01*
X016655Y010341D02*
X018574Y010341D01*
X018542Y010263D02*
X016655Y010263D01*
X016655Y010184D02*
X018528Y010184D01*
X018528Y010106D02*
X016655Y010106D01*
X016655Y010027D02*
X018528Y010027D01*
X018549Y009949D02*
X016655Y009949D01*
X016655Y009870D02*
X018582Y009870D01*
X018614Y009792D02*
X016655Y009792D01*
X016655Y009713D02*
X018692Y009713D01*
X018770Y009635D02*
X016655Y009635D01*
X016655Y009085D02*
X018951Y009085D01*
X018770Y009007D02*
X016655Y009007D01*
X016655Y008928D02*
X018672Y008928D01*
X018605Y008850D02*
X016655Y008850D01*
X016655Y008771D02*
X018556Y008771D01*
X018522Y008693D02*
X016655Y008693D01*
X016655Y008614D02*
X018500Y008614D01*
X018488Y008536D02*
X016655Y008536D01*
X016655Y007515D02*
X018873Y007515D01*
X018737Y007437D02*
X016655Y007437D01*
X016690Y007358D02*
X018659Y007358D01*
X018601Y007280D02*
X016736Y007280D01*
X016755Y007201D02*
X018568Y007201D01*
X018535Y007123D02*
X016755Y007123D01*
X016723Y007044D02*
X018528Y007044D01*
X018528Y006966D02*
X016659Y006966D01*
X016655Y006887D02*
X018528Y006887D01*
X018555Y006809D02*
X016655Y006809D01*
X016655Y006730D02*
X018588Y006730D01*
X018628Y006652D02*
X016655Y006652D01*
X016655Y006573D02*
X018707Y006573D01*
X018799Y006495D02*
X016655Y006495D01*
X016291Y006966D02*
X016159Y006966D01*
X016223Y007044D02*
X016227Y007044D01*
X016260Y007358D02*
X016190Y007358D01*
X016655Y003904D02*
X018493Y003904D01*
X018509Y003826D02*
X016655Y003826D01*
X016655Y003747D02*
X018536Y003747D01*
X018576Y003669D02*
X016655Y003669D01*
X016692Y003590D02*
X018633Y003590D01*
X018716Y003512D02*
X016770Y003512D01*
X017545Y001549D02*
X018955Y001549D01*
X018771Y001471D02*
X017624Y001471D01*
X017702Y001392D02*
X018693Y001392D01*
X018615Y001314D02*
X017781Y001314D01*
X017859Y001235D02*
X018582Y001235D01*
X019589Y002805D02*
X019610Y002805D01*
X019610Y002884D02*
X019516Y002884D01*
X019437Y002962D02*
X019610Y002962D01*
X019610Y003041D02*
X019266Y003041D01*
X019596Y005788D02*
X019610Y005788D01*
X019610Y005867D02*
X019533Y005867D01*
X019610Y005945D02*
X019454Y005945D01*
X019307Y006024D02*
X019610Y006024D01*
X019595Y008850D02*
X019610Y008850D01*
X019610Y008928D02*
X019528Y008928D01*
X019610Y009007D02*
X019430Y009007D01*
D18*
X015975Y007178D02*
X015788Y007178D01*
X014038Y008928D01*
X014038Y011240D01*
X014475Y011240D01*
X018444Y015209D01*
X018444Y017084D01*
X019100Y017740D01*
X019100Y014740D02*
X018600Y014740D01*
X015600Y011740D01*
X015600Y009209D01*
X015038Y008646D01*
X014038Y011240D02*
X014038Y011990D01*
X014631Y012021D02*
X014631Y012115D01*
X013913Y012834D01*
X011444Y012834D01*
X010100Y011490D01*
M02*
