G75*
%MOIN*%
%OFA0B0*%
%FSLAX24Y24*%
%IPPOS*%
%LPD*%
%AMOC8*
5,1,8,0,0,1.08239X$1,22.5*
%
%ADD10R,0.0552X0.1950*%
%ADD11R,0.0525X0.2600*%
%ADD12R,0.0525X0.3100*%
%ADD13C,0.0668*%
%ADD14C,0.0420*%
D10*
X003136Y010275D03*
X006144Y010275D03*
D11*
X002803Y007140D03*
D12*
X008478Y007140D03*
D13*
X000778Y002044D02*
X000778Y001436D01*
X001865Y001436D02*
X001865Y002044D01*
X002953Y002044D02*
X002953Y001436D01*
X004015Y001436D02*
X004015Y002044D01*
X007315Y002044D02*
X007315Y001436D01*
X008428Y001436D02*
X008428Y002044D01*
X009528Y002044D02*
X009528Y001436D01*
X010628Y001436D02*
X010628Y002044D01*
D14*
X007953Y002765D03*
X006640Y004140D03*
X005940Y004140D03*
X004890Y004828D03*
X005015Y005515D03*
X005953Y006578D03*
X006390Y006140D03*
X007140Y005390D03*
X004890Y006828D03*
X004390Y006828D03*
X003828Y006828D03*
X003828Y008328D03*
X005203Y008590D03*
X006703Y010703D03*
X007140Y010703D03*
X007640Y010765D03*
X010015Y008453D03*
X010640Y007953D03*
X010703Y010265D03*
X010703Y010703D03*
X003515Y002703D03*
X002453Y002515D03*
X001740Y003240D03*
X001140Y003840D03*
X000953Y004765D03*
X001740Y004740D03*
X002640Y004740D03*
X002340Y003840D03*
X005340Y000840D03*
X006240Y000840D03*
X000890Y007890D03*
X001328Y007953D03*
X000828Y009453D03*
X000578Y010578D03*
X002578Y010515D03*
M02*
