G75*
%MOIN*%
%OFA0B0*%
%FSLAX24Y24*%
%IPPOS*%
%LPD*%
%AMOC8*
5,1,8,0,0,1.08239X$1,22.5*
%
%ADD10R,0.0394X0.0433*%
%ADD11R,0.0492X0.1890*%
%ADD12R,0.0118X0.0315*%
%ADD13R,0.0236X0.0276*%
%ADD14C,0.0080*%
%ADD15R,0.0360X0.0360*%
%ADD16C,0.0607*%
%ADD17R,0.0256X0.0098*%
%ADD18R,0.0315X0.0551*%
%ADD19R,0.0591X0.0512*%
%ADD20R,0.0276X0.0354*%
%ADD21R,0.0354X0.0276*%
%ADD22R,0.0433X0.0394*%
%ADD23R,0.0512X0.0591*%
%ADD24R,0.0217X0.0138*%
%ADD25R,0.0157X0.0315*%
%ADD26R,0.0394X0.0394*%
%ADD27C,0.0240*%
%ADD28C,0.0100*%
%ADD29C,0.0360*%
%ADD30C,0.0120*%
%ADD31C,0.0160*%
D10*
X003868Y008828D03*
X004537Y008828D03*
X002975Y009015D03*
X002305Y009015D03*
X007673Y009343D03*
X007673Y010012D03*
D11*
X006144Y010275D03*
X003136Y010275D03*
D12*
X006677Y010115D03*
X007228Y010115D03*
D13*
X007228Y009490D03*
X006677Y009490D03*
D14*
X006828Y009495D02*
X006081Y009495D01*
X006081Y009417D02*
X006828Y009417D01*
X006828Y009338D02*
X006081Y009338D01*
X006081Y009265D02*
X006081Y010303D01*
X006765Y010303D01*
X006828Y010240D01*
X006828Y009328D01*
X006765Y009265D01*
X006081Y009265D01*
X006279Y009024D02*
X006521Y009024D01*
X006521Y009007D02*
X006394Y009007D01*
X006288Y008902D01*
X006244Y008857D01*
X006112Y008857D01*
X006320Y009065D01*
X006320Y009125D01*
X006823Y009125D01*
X006885Y009188D01*
X006885Y009188D01*
X006967Y009270D01*
X006967Y010298D01*
X006905Y010360D01*
X006823Y010442D01*
X006806Y010442D01*
X006861Y010465D01*
X006878Y010483D01*
X006924Y010483D01*
X007010Y010396D01*
X007000Y010385D01*
X007000Y009895D01*
X007082Y009813D01*
X007127Y009768D01*
X007092Y009768D01*
X007056Y009758D01*
X007024Y009740D01*
X006998Y009714D01*
X006980Y009682D01*
X006970Y009646D01*
X006970Y009509D01*
X007209Y009509D01*
X007209Y009471D01*
X006970Y009471D01*
X006970Y009334D01*
X006980Y009298D01*
X006998Y009266D01*
X007024Y009240D01*
X007056Y009222D01*
X007092Y009212D01*
X007209Y009212D01*
X007209Y009471D01*
X007247Y009471D01*
X007247Y009212D01*
X007336Y009212D01*
X007336Y009145D01*
X007300Y009145D01*
X007300Y008856D01*
X007549Y008856D01*
X007549Y008986D01*
X007620Y008986D01*
X007600Y008938D01*
X007600Y005342D01*
X007637Y005254D01*
X007704Y005187D01*
X007792Y005150D01*
X008788Y005150D01*
X008876Y005187D01*
X008943Y005254D01*
X008980Y005342D01*
X008980Y005500D01*
X009673Y005500D01*
X009755Y005582D01*
X009755Y008698D01*
X009673Y008780D01*
X008980Y008780D01*
X008980Y008938D01*
X008943Y009026D01*
X008876Y009093D01*
X008854Y009103D01*
X008867Y009115D01*
X008885Y009147D01*
X008895Y009182D01*
X008977Y009182D01*
X009123Y009182D01*
X009159Y009192D01*
X009191Y009210D01*
X009197Y009217D01*
X009214Y009212D01*
X009351Y009212D01*
X009351Y009589D01*
X009429Y009589D01*
X009429Y009212D01*
X009563Y009212D01*
X009563Y009207D01*
X009645Y009125D01*
X010145Y008625D01*
X010823Y008625D01*
X010846Y008648D01*
X010852Y008648D01*
X010900Y008696D01*
X010900Y008056D01*
X010877Y008111D01*
X010799Y008190D01*
X010696Y008232D01*
X010584Y008232D01*
X010481Y008190D01*
X010444Y008153D01*
X010444Y008175D01*
X010385Y008234D01*
X009870Y008234D01*
X009811Y008175D01*
X009811Y007699D01*
X009870Y007640D01*
X010385Y007640D01*
X010444Y007699D01*
X010444Y007752D01*
X010460Y007737D01*
X010460Y004590D01*
X008378Y002507D01*
X008297Y002427D01*
X008199Y002386D01*
X008085Y002272D01*
X008024Y002124D01*
X008024Y001356D01*
X008085Y001208D01*
X008173Y001120D01*
X008131Y001078D01*
X008131Y000630D01*
X007612Y000630D01*
X007612Y001078D01*
X007570Y001120D01*
X007657Y001208D01*
X007719Y001356D01*
X007719Y002124D01*
X007657Y002272D01*
X007544Y002386D01*
X007495Y002406D01*
X007495Y004560D01*
X009615Y004560D01*
X009720Y004665D01*
X010307Y005253D01*
X010307Y006971D01*
X010385Y006971D01*
X010444Y007030D01*
X010444Y007506D01*
X010385Y007565D01*
X009870Y007565D01*
X009811Y007506D01*
X009811Y007030D01*
X009870Y006971D01*
X009948Y006971D01*
X009948Y005402D01*
X009465Y004920D01*
X006740Y004920D01*
X006132Y005527D01*
X006132Y006335D01*
X006544Y006335D01*
X006544Y006206D01*
X006793Y006206D01*
X006793Y006149D01*
X006544Y006149D01*
X006544Y005982D01*
X006553Y005946D01*
X006572Y005914D01*
X006598Y005888D01*
X006630Y005870D01*
X006665Y005860D01*
X006793Y005860D01*
X006793Y006149D01*
X006850Y006149D01*
X006850Y005860D01*
X006978Y005860D01*
X007013Y005870D01*
X007045Y005888D01*
X007071Y005914D01*
X007090Y005946D01*
X007096Y005968D01*
X007096Y005959D01*
X007154Y005900D01*
X007513Y005900D01*
X007571Y005959D01*
X007571Y006396D01*
X007559Y006409D01*
X007571Y006421D01*
X007571Y006859D01*
X007513Y006916D01*
X007513Y007024D01*
X007396Y007141D01*
X007443Y007515D01*
X007392Y007580D01*
X006760Y007659D01*
X006793Y007692D01*
X007396Y007616D01*
X007462Y007667D01*
X007535Y008257D01*
X007484Y008323D01*
X006816Y008406D01*
X006751Y008355D01*
X006715Y008066D01*
X006668Y008019D01*
X006575Y007926D01*
X006575Y007965D01*
X006575Y008052D01*
X006565Y008088D01*
X006547Y008120D01*
X006535Y008132D01*
X006535Y008331D01*
X006487Y008379D01*
X006487Y008541D01*
X006461Y008566D01*
X006521Y008626D01*
X006521Y008609D01*
X006580Y008550D01*
X006938Y008550D01*
X006997Y008609D01*
X006997Y008618D01*
X007003Y008596D01*
X007021Y008564D01*
X007047Y008538D01*
X007079Y008520D01*
X007115Y008510D01*
X007242Y008510D01*
X007242Y008799D01*
X007300Y008799D01*
X007300Y008856D01*
X007242Y008856D01*
X007242Y009145D01*
X007115Y009145D01*
X007079Y009135D01*
X007047Y009117D01*
X007021Y009091D01*
X007003Y009059D01*
X006997Y009037D01*
X006997Y009046D01*
X006938Y009105D01*
X006580Y009105D01*
X006521Y009046D01*
X006521Y009007D01*
X006578Y009103D02*
X006320Y009103D01*
X006332Y008946D02*
X006200Y008946D01*
X006253Y008867D02*
X006122Y008867D01*
X005983Y008773D02*
X005983Y008361D01*
X006042Y008303D01*
X006118Y008303D01*
X006118Y008132D01*
X006106Y008120D01*
X006088Y008088D01*
X006078Y008052D01*
X006078Y007965D01*
X006327Y007965D01*
X006575Y007965D01*
X006327Y007965D01*
X006327Y007965D01*
X006078Y007965D01*
X006078Y007878D01*
X006088Y007842D01*
X006106Y007810D01*
X006118Y007799D01*
X005989Y007799D01*
X005989Y007550D01*
X005931Y007550D01*
X005931Y007799D01*
X005787Y007799D01*
X005787Y007819D01*
X005728Y007878D01*
X005477Y007878D01*
X005421Y007934D01*
X005009Y007934D01*
X005009Y007971D01*
X005421Y007971D01*
X005480Y008029D01*
X005480Y008052D01*
X005728Y008052D01*
X005787Y008111D01*
X005787Y008203D01*
X005869Y008285D01*
X005869Y008303D01*
X005888Y008303D01*
X005947Y008361D01*
X005947Y008773D01*
X005983Y008773D01*
X005983Y008710D02*
X005947Y008710D01*
X005947Y008632D02*
X005983Y008632D01*
X005983Y008553D02*
X005947Y008553D01*
X005947Y008475D02*
X005983Y008475D01*
X005983Y008396D02*
X005947Y008396D01*
X005903Y008318D02*
X006027Y008318D01*
X006118Y008239D02*
X005823Y008239D01*
X005787Y008161D02*
X006118Y008161D01*
X006086Y008082D02*
X005758Y008082D01*
X005760Y007847D02*
X006087Y007847D01*
X006078Y007925D02*
X005430Y007925D01*
X005454Y008004D02*
X006078Y008004D01*
X005989Y007768D02*
X005931Y007768D01*
X005931Y007690D02*
X005989Y007690D01*
X005989Y007611D02*
X005931Y007611D01*
X006327Y007965D02*
X006327Y007965D01*
X006575Y008004D02*
X006652Y008004D01*
X006717Y008082D02*
X006567Y008082D01*
X006535Y008161D02*
X006727Y008161D01*
X006736Y008239D02*
X006535Y008239D01*
X006535Y008318D02*
X006746Y008318D01*
X006803Y008396D02*
X006487Y008396D01*
X006487Y008475D02*
X007600Y008475D01*
X007600Y008553D02*
X007509Y008553D01*
X007521Y008564D02*
X007539Y008596D01*
X007549Y008632D01*
X007549Y008799D01*
X007300Y008799D01*
X007300Y008510D01*
X007427Y008510D01*
X007463Y008520D01*
X007495Y008538D01*
X007521Y008564D01*
X007549Y008632D02*
X007600Y008632D01*
X007600Y008710D02*
X007549Y008710D01*
X007549Y008789D02*
X007600Y008789D01*
X007600Y008867D02*
X007549Y008867D01*
X007549Y008946D02*
X007603Y008946D01*
X007336Y009181D02*
X006879Y009181D01*
X006940Y009103D02*
X007033Y009103D01*
X007005Y009260D02*
X006957Y009260D01*
X006967Y009338D02*
X006970Y009338D01*
X006967Y009417D02*
X006970Y009417D01*
X006967Y009495D02*
X007209Y009495D01*
X007209Y009417D02*
X007247Y009417D01*
X007247Y009338D02*
X007209Y009338D01*
X007209Y009260D02*
X007247Y009260D01*
X007242Y009103D02*
X007300Y009103D01*
X007300Y009024D02*
X007242Y009024D01*
X007242Y008946D02*
X007300Y008946D01*
X007300Y008867D02*
X007242Y008867D01*
X007242Y008789D02*
X007300Y008789D01*
X007300Y008710D02*
X007242Y008710D01*
X007242Y008632D02*
X007300Y008632D01*
X007300Y008553D02*
X007242Y008553D01*
X007032Y008553D02*
X006941Y008553D01*
X006896Y008396D02*
X007600Y008396D01*
X007600Y008318D02*
X007488Y008318D01*
X007533Y008239D02*
X007600Y008239D01*
X007600Y008161D02*
X007523Y008161D01*
X007513Y008082D02*
X007600Y008082D01*
X007600Y008004D02*
X007504Y008004D01*
X007494Y007925D02*
X007600Y007925D01*
X007600Y007847D02*
X007484Y007847D01*
X007474Y007768D02*
X007600Y007768D01*
X007600Y007690D02*
X007464Y007690D01*
X007600Y007611D02*
X007146Y007611D01*
X007429Y007533D02*
X007600Y007533D01*
X007600Y007454D02*
X007435Y007454D01*
X007425Y007376D02*
X007600Y007376D01*
X007600Y007297D02*
X007416Y007297D01*
X007406Y007219D02*
X007600Y007219D01*
X007600Y007140D02*
X007397Y007140D01*
X007476Y007061D02*
X007600Y007061D01*
X007600Y006983D02*
X007513Y006983D01*
X007525Y006904D02*
X007600Y006904D01*
X007600Y006826D02*
X007571Y006826D01*
X007571Y006747D02*
X007600Y006747D01*
X007600Y006669D02*
X007571Y006669D01*
X007571Y006590D02*
X007600Y006590D01*
X007600Y006512D02*
X007571Y006512D01*
X007571Y006433D02*
X007600Y006433D01*
X007600Y006355D02*
X007571Y006355D01*
X007571Y006276D02*
X007600Y006276D01*
X007600Y006198D02*
X007571Y006198D01*
X007571Y006119D02*
X007600Y006119D01*
X007600Y006041D02*
X007571Y006041D01*
X007571Y005962D02*
X007600Y005962D01*
X007600Y005884D02*
X007038Y005884D01*
X007094Y005962D02*
X007096Y005962D01*
X006850Y005962D02*
X006793Y005962D01*
X006793Y005884D02*
X006850Y005884D01*
X006850Y006041D02*
X006793Y006041D01*
X006793Y006119D02*
X006850Y006119D01*
X006793Y006198D02*
X006132Y006198D01*
X006132Y006276D02*
X006544Y006276D01*
X006544Y006119D02*
X006132Y006119D01*
X006132Y006041D02*
X006544Y006041D01*
X006549Y005962D02*
X006132Y005962D01*
X006132Y005884D02*
X006605Y005884D01*
X006132Y005805D02*
X007600Y005805D01*
X007600Y005727D02*
X006132Y005727D01*
X006132Y005648D02*
X007600Y005648D01*
X007600Y005570D02*
X006132Y005570D01*
X006168Y005491D02*
X007600Y005491D01*
X007600Y005413D02*
X006247Y005413D01*
X006325Y005334D02*
X007603Y005334D01*
X007636Y005256D02*
X006404Y005256D01*
X006482Y005177D02*
X007726Y005177D01*
X007495Y004549D02*
X010420Y004549D01*
X010460Y004628D02*
X009683Y004628D01*
X009761Y004706D02*
X010460Y004706D01*
X010460Y004785D02*
X009840Y004785D01*
X009918Y004863D02*
X010460Y004863D01*
X010460Y004942D02*
X009997Y004942D01*
X010075Y005020D02*
X010460Y005020D01*
X010460Y005099D02*
X010154Y005099D01*
X010232Y005177D02*
X010460Y005177D01*
X010460Y005256D02*
X010307Y005256D01*
X010307Y005334D02*
X010460Y005334D01*
X010460Y005413D02*
X010307Y005413D01*
X010307Y005491D02*
X010460Y005491D01*
X010460Y005570D02*
X010307Y005570D01*
X010307Y005648D02*
X010460Y005648D01*
X010460Y005727D02*
X010307Y005727D01*
X010307Y005805D02*
X010460Y005805D01*
X010460Y005884D02*
X010307Y005884D01*
X010307Y005962D02*
X010460Y005962D01*
X010460Y006041D02*
X010307Y006041D01*
X010307Y006119D02*
X010460Y006119D01*
X010460Y006198D02*
X010307Y006198D01*
X010307Y006276D02*
X010460Y006276D01*
X010460Y006355D02*
X010307Y006355D01*
X010307Y006433D02*
X010460Y006433D01*
X010460Y006512D02*
X010307Y006512D01*
X010307Y006590D02*
X010460Y006590D01*
X010460Y006669D02*
X010307Y006669D01*
X010307Y006747D02*
X010460Y006747D01*
X010460Y006826D02*
X010307Y006826D01*
X010307Y006904D02*
X010460Y006904D01*
X010460Y006983D02*
X010397Y006983D01*
X010444Y007061D02*
X010460Y007061D01*
X010460Y007140D02*
X010444Y007140D01*
X010444Y007219D02*
X010460Y007219D01*
X010460Y007297D02*
X010444Y007297D01*
X010444Y007376D02*
X010460Y007376D01*
X010460Y007454D02*
X010444Y007454D01*
X010460Y007533D02*
X010418Y007533D01*
X010460Y007611D02*
X009755Y007611D01*
X009755Y007533D02*
X009837Y007533D01*
X009811Y007454D02*
X009755Y007454D01*
X009755Y007376D02*
X009811Y007376D01*
X009811Y007297D02*
X009755Y007297D01*
X009755Y007219D02*
X009811Y007219D01*
X009811Y007140D02*
X009755Y007140D01*
X009755Y007061D02*
X009811Y007061D01*
X009858Y006983D02*
X009755Y006983D01*
X009755Y006904D02*
X009948Y006904D01*
X009948Y006826D02*
X009755Y006826D01*
X009755Y006747D02*
X009948Y006747D01*
X009948Y006669D02*
X009755Y006669D01*
X009755Y006590D02*
X009948Y006590D01*
X009948Y006512D02*
X009755Y006512D01*
X009755Y006433D02*
X009948Y006433D01*
X009948Y006355D02*
X009755Y006355D01*
X009755Y006276D02*
X009948Y006276D01*
X009948Y006198D02*
X009755Y006198D01*
X009755Y006119D02*
X009948Y006119D01*
X009948Y006041D02*
X009755Y006041D01*
X009755Y005962D02*
X009948Y005962D01*
X009948Y005884D02*
X009755Y005884D01*
X009755Y005805D02*
X009948Y005805D01*
X009948Y005727D02*
X009755Y005727D01*
X009755Y005648D02*
X009948Y005648D01*
X009948Y005570D02*
X009743Y005570D01*
X009615Y005640D02*
X009615Y008640D01*
X008265Y008640D01*
X008265Y005640D01*
X009615Y005640D01*
X009615Y005648D02*
X008265Y005648D01*
X008265Y005727D02*
X009615Y005727D01*
X009615Y005805D02*
X008265Y005805D01*
X008265Y005884D02*
X009615Y005884D01*
X009615Y005962D02*
X008265Y005962D01*
X008265Y006041D02*
X009615Y006041D01*
X009615Y006119D02*
X008265Y006119D01*
X008265Y006198D02*
X009615Y006198D01*
X009615Y006276D02*
X008265Y006276D01*
X008265Y006355D02*
X009615Y006355D01*
X009615Y006433D02*
X008265Y006433D01*
X008265Y006512D02*
X009615Y006512D01*
X009615Y006590D02*
X008265Y006590D01*
X008265Y006669D02*
X009615Y006669D01*
X009615Y006747D02*
X008265Y006747D01*
X008265Y006826D02*
X009615Y006826D01*
X009615Y006904D02*
X008265Y006904D01*
X008265Y006983D02*
X009615Y006983D01*
X009615Y007061D02*
X008265Y007061D01*
X008265Y007140D02*
X009615Y007140D01*
X009615Y007219D02*
X008265Y007219D01*
X008265Y007297D02*
X009615Y007297D01*
X009615Y007376D02*
X008265Y007376D01*
X008265Y007454D02*
X009615Y007454D01*
X009615Y007533D02*
X008265Y007533D01*
X008265Y007611D02*
X009615Y007611D01*
X009615Y007690D02*
X008265Y007690D01*
X008265Y007768D02*
X009615Y007768D01*
X009615Y007847D02*
X008265Y007847D01*
X008265Y007925D02*
X009615Y007925D01*
X009615Y008004D02*
X008265Y008004D01*
X008265Y008082D02*
X009615Y008082D01*
X009615Y008161D02*
X008265Y008161D01*
X008265Y008239D02*
X009615Y008239D01*
X009615Y008318D02*
X008265Y008318D01*
X008265Y008396D02*
X009615Y008396D01*
X009615Y008475D02*
X008265Y008475D01*
X008265Y008553D02*
X009615Y008553D01*
X009615Y008632D02*
X008265Y008632D01*
X008854Y009103D02*
X009667Y009103D01*
X009589Y009181D02*
X008894Y009181D01*
X008977Y009182D02*
X008977Y009372D01*
X008977Y009182D01*
X008977Y009260D02*
X008977Y009260D01*
X008977Y009338D02*
X008977Y009338D01*
X008977Y009372D02*
X008977Y009372D01*
X009078Y009578D02*
X008828Y009578D01*
X008703Y009703D01*
X007890Y009703D01*
X007828Y009765D01*
X007328Y009765D01*
X007140Y009953D01*
X007140Y010328D01*
X007765Y010328D01*
X007844Y010249D01*
X007844Y010121D01*
X007902Y010063D01*
X008261Y010063D01*
X008319Y010121D01*
X008319Y010140D01*
X008356Y010140D01*
X008356Y010121D01*
X008414Y010063D01*
X008755Y010063D01*
X008796Y010021D01*
X009009Y010021D01*
X009078Y009953D01*
X009078Y009578D01*
X009078Y009652D02*
X008753Y009652D01*
X008606Y009563D02*
X008606Y009368D01*
X008549Y009368D01*
X008549Y009563D01*
X008606Y009563D01*
X008606Y009495D02*
X008549Y009495D01*
X008549Y009417D02*
X008606Y009417D01*
X008549Y009368D02*
X008549Y009310D01*
X008260Y009310D01*
X008169Y009310D01*
X008169Y009368D01*
X008549Y009368D01*
X008549Y009338D02*
X008169Y009338D01*
X008111Y009338D02*
X007713Y009338D01*
X007713Y009303D02*
X007713Y009383D01*
X007823Y009383D01*
X007823Y009368D01*
X008111Y009368D01*
X008111Y009310D01*
X007823Y009310D01*
X007823Y009303D01*
X007713Y009303D01*
X007862Y009731D02*
X009078Y009731D01*
X009078Y009809D02*
X007283Y009809D01*
X007205Y009888D02*
X009078Y009888D01*
X009064Y009966D02*
X007140Y009966D01*
X007140Y010045D02*
X008773Y010045D01*
X009044Y010230D02*
X009044Y010288D01*
X009332Y010288D01*
X009332Y010353D01*
X009356Y010353D01*
X009356Y010281D01*
X009605Y010281D01*
X009605Y010224D01*
X009356Y010224D01*
X009356Y010057D01*
X009366Y010021D01*
X009384Y009989D01*
X009410Y009963D01*
X009429Y009953D01*
X009429Y009666D01*
X009351Y009666D01*
X009351Y010043D01*
X009309Y010043D01*
X009323Y010067D01*
X009332Y010103D01*
X009332Y010230D01*
X009044Y010230D01*
X009044Y010280D02*
X009605Y010280D01*
X009356Y010202D02*
X009332Y010202D01*
X009332Y010123D02*
X009356Y010123D01*
X009360Y010045D02*
X009309Y010045D01*
X009351Y009966D02*
X009408Y009966D01*
X009429Y009888D02*
X009351Y009888D01*
X009351Y009809D02*
X009429Y009809D01*
X009429Y009731D02*
X009351Y009731D01*
X009351Y009574D02*
X009429Y009574D01*
X009429Y009495D02*
X009351Y009495D01*
X009351Y009417D02*
X009429Y009417D01*
X009429Y009338D02*
X009351Y009338D01*
X009351Y009260D02*
X009429Y009260D01*
X009703Y009265D02*
X009703Y009390D01*
X010078Y009390D01*
X010265Y009203D01*
X010765Y009203D01*
X010765Y008765D01*
X010203Y008765D01*
X009703Y009265D01*
X009708Y009260D02*
X010208Y009260D01*
X010129Y009338D02*
X009703Y009338D01*
X009703Y009530D02*
X009703Y009734D01*
X009740Y009734D01*
X009741Y009733D01*
X009883Y009733D01*
X009884Y009734D01*
X009973Y009734D01*
X010031Y009793D01*
X010031Y009882D01*
X010040Y009890D01*
X010040Y011015D01*
X009977Y011077D01*
X009905Y011150D01*
X010900Y011150D01*
X010900Y009515D01*
X010150Y009515D01*
X010135Y009530D01*
X009703Y009530D01*
X009703Y009574D02*
X010900Y009574D01*
X010900Y009652D02*
X009703Y009652D01*
X009703Y009731D02*
X010900Y009731D01*
X010900Y009809D02*
X010031Y009809D01*
X010037Y009888D02*
X010900Y009888D01*
X010900Y009966D02*
X010040Y009966D01*
X010040Y010045D02*
X010900Y010045D01*
X010900Y010123D02*
X010040Y010123D01*
X010040Y010202D02*
X010900Y010202D01*
X010900Y010280D02*
X010040Y010280D01*
X010040Y010359D02*
X010900Y010359D01*
X010900Y010437D02*
X010040Y010437D01*
X010040Y010516D02*
X010900Y010516D01*
X010900Y010594D02*
X010040Y010594D01*
X010040Y010673D02*
X010900Y010673D01*
X010900Y010751D02*
X010040Y010751D01*
X010040Y010830D02*
X010900Y010830D01*
X010900Y010908D02*
X010040Y010908D01*
X010040Y010987D02*
X010900Y010987D01*
X010900Y011065D02*
X009990Y011065D01*
X009911Y011144D02*
X010900Y011144D01*
X010765Y009181D02*
X009786Y009181D01*
X009865Y009103D02*
X010765Y009103D01*
X010765Y009024D02*
X009943Y009024D01*
X010022Y008946D02*
X010765Y008946D01*
X010765Y008867D02*
X010100Y008867D01*
X010179Y008789D02*
X010765Y008789D01*
X010829Y008632D02*
X010900Y008632D01*
X010900Y008553D02*
X009755Y008553D01*
X009755Y008475D02*
X010900Y008475D01*
X010900Y008396D02*
X009755Y008396D01*
X009755Y008318D02*
X010900Y008318D01*
X010900Y008239D02*
X009755Y008239D01*
X009755Y008161D02*
X009811Y008161D01*
X009811Y008082D02*
X009755Y008082D01*
X009755Y008004D02*
X009811Y008004D01*
X009811Y007925D02*
X009755Y007925D01*
X009755Y007847D02*
X009811Y007847D01*
X009811Y007768D02*
X009755Y007768D01*
X009755Y007690D02*
X009820Y007690D01*
X010435Y007690D02*
X010460Y007690D01*
X010820Y007690D02*
X010900Y007690D01*
X010900Y007768D02*
X010851Y007768D01*
X010877Y007794D02*
X010900Y007849D01*
X010900Y002394D01*
X010860Y002423D01*
X010798Y002455D01*
X010731Y002477D01*
X010667Y002487D01*
X010667Y001780D01*
X010588Y001780D01*
X010588Y002487D01*
X010524Y002477D01*
X010457Y002455D01*
X010395Y002423D01*
X010338Y002382D01*
X010289Y002333D01*
X010248Y002276D01*
X010216Y002214D01*
X010195Y002148D01*
X010184Y002079D01*
X010184Y001780D01*
X010587Y001780D01*
X010587Y001700D01*
X010184Y001700D01*
X010184Y001401D01*
X010195Y001332D01*
X010216Y001266D01*
X010248Y001204D01*
X010289Y001147D01*
X010317Y001119D01*
X010300Y001091D01*
X010291Y001055D01*
X010291Y000880D01*
X010587Y000880D01*
X010587Y000800D01*
X010291Y000800D01*
X010291Y000630D01*
X009837Y000630D01*
X009837Y001078D01*
X009789Y001126D01*
X009870Y001208D01*
X009931Y001356D01*
X009931Y002124D01*
X009870Y002272D01*
X009756Y002386D01*
X009608Y002447D01*
X009447Y002447D01*
X009299Y002386D01*
X009185Y002272D01*
X009124Y002124D01*
X009124Y001356D01*
X009185Y001208D01*
X009279Y001114D01*
X009243Y001078D01*
X009243Y000630D01*
X008724Y000630D01*
X008724Y001078D01*
X008682Y001120D01*
X008770Y001208D01*
X008831Y001356D01*
X008831Y002124D01*
X008770Y002272D01*
X008711Y002331D01*
X010820Y004440D01*
X010820Y004590D01*
X010820Y007737D01*
X010877Y007794D01*
X010899Y007847D02*
X010900Y007847D01*
X010889Y008082D02*
X010900Y008082D01*
X010900Y008161D02*
X010828Y008161D01*
X010452Y008161D02*
X010444Y008161D01*
X010138Y008632D02*
X009755Y008632D01*
X009743Y008710D02*
X010060Y008710D01*
X009981Y008789D02*
X008980Y008789D01*
X008980Y008867D02*
X009903Y008867D01*
X009824Y008946D02*
X008977Y008946D01*
X008944Y009024D02*
X009746Y009024D01*
X008356Y010123D02*
X008319Y010123D01*
X007844Y010123D02*
X007140Y010123D01*
X007140Y010202D02*
X007844Y010202D01*
X007812Y010280D02*
X007140Y010280D01*
X007000Y010280D02*
X006967Y010280D01*
X006967Y010202D02*
X007000Y010202D01*
X007000Y010123D02*
X006967Y010123D01*
X006967Y010045D02*
X007000Y010045D01*
X007000Y009966D02*
X006967Y009966D01*
X006967Y009888D02*
X007007Y009888D01*
X006967Y009809D02*
X007086Y009809D01*
X007015Y009731D02*
X006967Y009731D01*
X006967Y009652D02*
X006972Y009652D01*
X006967Y009574D02*
X006970Y009574D01*
X006828Y009574D02*
X006081Y009574D01*
X006081Y009652D02*
X006828Y009652D01*
X006828Y009731D02*
X006081Y009731D01*
X006081Y009809D02*
X006828Y009809D01*
X006828Y009888D02*
X006081Y009888D01*
X006081Y009966D02*
X006828Y009966D01*
X006828Y010045D02*
X006081Y010045D01*
X006081Y010123D02*
X006828Y010123D01*
X006828Y010202D02*
X006081Y010202D01*
X006081Y010280D02*
X006787Y010280D01*
X006907Y010359D02*
X007000Y010359D01*
X006969Y010437D02*
X006828Y010437D01*
X006577Y008553D02*
X006474Y008553D01*
X006791Y007690D02*
X006809Y007690D01*
X005312Y005936D02*
X005255Y005936D01*
X005255Y005648D01*
X005127Y005648D01*
X005092Y005657D01*
X005060Y005676D01*
X005034Y005702D01*
X005015Y005734D01*
X005009Y005755D01*
X005009Y005746D01*
X004951Y005688D01*
X004592Y005688D01*
X004552Y005728D01*
X004513Y005688D01*
X004304Y005688D01*
X004640Y005352D01*
X005265Y005352D01*
X005490Y005577D01*
X005490Y005666D01*
X005475Y005657D01*
X005440Y005648D01*
X005312Y005648D01*
X005312Y005936D01*
X005312Y005884D02*
X005255Y005884D01*
X005255Y005805D02*
X005312Y005805D01*
X005312Y005727D02*
X005255Y005727D01*
X005255Y005648D02*
X005312Y005648D01*
X005442Y005648D02*
X005490Y005648D01*
X005483Y005570D02*
X004422Y005570D01*
X004344Y005648D02*
X005125Y005648D01*
X005040Y005640D02*
X004953Y005553D01*
X004953Y005515D01*
X005040Y005640D02*
X005040Y006358D01*
X005004Y006394D01*
X004990Y005727D02*
X005019Y005727D01*
X005326Y005413D02*
X004579Y005413D01*
X004501Y005491D02*
X005404Y005491D01*
X005593Y005256D02*
X005894Y005256D01*
X005878Y005273D02*
X006590Y004560D01*
X007135Y004560D01*
X007135Y002406D01*
X007086Y002386D01*
X006973Y002272D01*
X006940Y002193D01*
X006940Y002666D01*
X006813Y003058D01*
X006571Y003391D01*
X006238Y003633D01*
X006238Y003633D01*
X005846Y003760D01*
X005434Y003760D01*
X005042Y003633D01*
X004709Y003391D01*
X004709Y003391D01*
X004709Y003391D01*
X004467Y003058D01*
X004467Y003058D01*
X004340Y002666D01*
X004340Y002290D01*
X004244Y002386D01*
X004095Y002447D01*
X003935Y002447D01*
X003786Y002386D01*
X003673Y002272D01*
X003611Y002124D01*
X003611Y001356D01*
X003673Y001208D01*
X003760Y001120D01*
X003718Y001078D01*
X003718Y000630D01*
X003249Y000630D01*
X003249Y001078D01*
X003207Y001120D01*
X003295Y001208D01*
X003356Y001356D01*
X003356Y002124D01*
X003295Y002272D01*
X003181Y002386D01*
X003033Y002447D01*
X002872Y002447D01*
X002724Y002386D01*
X002610Y002272D01*
X002549Y002124D01*
X002549Y001356D01*
X002610Y001208D01*
X002698Y001120D01*
X002656Y001078D01*
X002656Y000630D01*
X002162Y000630D01*
X002162Y001078D01*
X002120Y001120D01*
X002207Y001208D01*
X002269Y001356D01*
X002269Y002124D01*
X002207Y002272D01*
X002094Y002386D01*
X001945Y002447D01*
X001785Y002447D01*
X001636Y002386D01*
X001523Y002272D01*
X001461Y002124D01*
X001461Y001356D01*
X001523Y001208D01*
X001610Y001120D01*
X001568Y001078D01*
X001568Y000630D01*
X001074Y000630D01*
X001074Y001078D01*
X001032Y001120D01*
X001120Y001208D01*
X001181Y001356D01*
X001181Y002124D01*
X001120Y002272D01*
X001006Y002386D01*
X000858Y002447D01*
X000697Y002447D01*
X000549Y002386D01*
X000435Y002272D01*
X000380Y002139D01*
X000380Y007895D01*
X000460Y007815D01*
X000565Y007710D01*
X000674Y007710D01*
X000731Y007653D01*
X000834Y007610D01*
X000946Y007610D01*
X001049Y007653D01*
X001127Y007731D01*
X001170Y007834D01*
X001170Y007946D01*
X001127Y008049D01*
X001076Y008100D01*
X001250Y008100D01*
X001309Y008159D01*
X001309Y008218D01*
X001381Y008218D01*
X001456Y008293D01*
X001525Y008361D01*
X001525Y005832D01*
X001607Y005750D01*
X002300Y005750D01*
X002300Y005692D01*
X002337Y005604D01*
X002404Y005537D01*
X002492Y005500D01*
X003488Y005500D01*
X003576Y005537D01*
X003643Y005604D01*
X003678Y005688D01*
X003928Y005688D01*
X003928Y005640D01*
X004428Y005140D01*
X004515Y005053D01*
X005390Y005053D01*
X005702Y005365D01*
X005773Y005435D01*
X005773Y005378D01*
X005878Y005273D01*
X005816Y005334D02*
X005672Y005334D01*
X005750Y005413D02*
X005773Y005413D01*
X005973Y005177D02*
X005515Y005177D01*
X005436Y005099D02*
X006051Y005099D01*
X006130Y005020D02*
X000380Y005020D01*
X000380Y004942D02*
X006208Y004942D01*
X006287Y004863D02*
X000380Y004863D01*
X000380Y004785D02*
X006365Y004785D01*
X006444Y004706D02*
X000380Y004706D01*
X000380Y004628D02*
X006522Y004628D01*
X006718Y004942D02*
X009487Y004942D01*
X009566Y005020D02*
X006639Y005020D01*
X006561Y005099D02*
X009644Y005099D01*
X009723Y005177D02*
X008854Y005177D01*
X008944Y005256D02*
X009801Y005256D01*
X009880Y005334D02*
X008977Y005334D01*
X008980Y005413D02*
X009948Y005413D01*
X009948Y005491D02*
X008980Y005491D01*
X010184Y004314D02*
X007495Y004314D01*
X007495Y004392D02*
X010263Y004392D01*
X010341Y004471D02*
X007495Y004471D01*
X007495Y004235D02*
X010106Y004235D01*
X010027Y004157D02*
X007495Y004157D01*
X007495Y004078D02*
X009949Y004078D01*
X009870Y004000D02*
X007495Y004000D01*
X007495Y003921D02*
X009792Y003921D01*
X009713Y003843D02*
X007495Y003843D01*
X007495Y003764D02*
X009635Y003764D01*
X009556Y003686D02*
X007495Y003686D01*
X007495Y003607D02*
X009478Y003607D01*
X009399Y003529D02*
X007495Y003529D01*
X007495Y003450D02*
X009321Y003450D01*
X009242Y003372D02*
X007495Y003372D01*
X007495Y003293D02*
X009164Y003293D01*
X009085Y003215D02*
X007495Y003215D01*
X007495Y003136D02*
X009007Y003136D01*
X008928Y003058D02*
X007495Y003058D01*
X007495Y002979D02*
X008850Y002979D01*
X008771Y002901D02*
X007495Y002901D01*
X007495Y002822D02*
X008693Y002822D01*
X008614Y002744D02*
X007495Y002744D01*
X007495Y002665D02*
X008536Y002665D01*
X008457Y002587D02*
X007495Y002587D01*
X007495Y002508D02*
X008379Y002508D01*
X008300Y002430D02*
X007495Y002430D01*
X007578Y002351D02*
X008164Y002351D01*
X008086Y002273D02*
X007657Y002273D01*
X007690Y002194D02*
X008053Y002194D01*
X008024Y002116D02*
X007719Y002116D01*
X007719Y002037D02*
X008024Y002037D01*
X008024Y001959D02*
X007719Y001959D01*
X007719Y001880D02*
X008024Y001880D01*
X008024Y001802D02*
X007719Y001802D01*
X007719Y001723D02*
X008024Y001723D01*
X008024Y001645D02*
X007719Y001645D01*
X007719Y001566D02*
X008024Y001566D01*
X008024Y001488D02*
X007719Y001488D01*
X007719Y001409D02*
X008024Y001409D01*
X008034Y001331D02*
X007708Y001331D01*
X007676Y001252D02*
X008067Y001252D01*
X008119Y001174D02*
X007624Y001174D01*
X007595Y001095D02*
X008148Y001095D01*
X008131Y001017D02*
X007612Y001017D01*
X007612Y000938D02*
X008131Y000938D01*
X008131Y000860D02*
X007612Y000860D01*
X007612Y000781D02*
X008131Y000781D01*
X008131Y000703D02*
X007612Y000703D01*
X007018Y000703D02*
X004312Y000703D01*
X004312Y000630D02*
X004312Y001078D01*
X004270Y001120D01*
X004357Y001208D01*
X004379Y001261D01*
X004444Y001197D01*
X004532Y001160D01*
X006748Y001160D01*
X006836Y001197D01*
X006903Y001264D01*
X006926Y001319D01*
X006973Y001208D01*
X007060Y001120D01*
X007018Y001078D01*
X007018Y000630D01*
X004312Y000630D01*
X004312Y000781D02*
X007018Y000781D01*
X007018Y000860D02*
X004312Y000860D01*
X004312Y000938D02*
X007018Y000938D01*
X007018Y001017D02*
X004312Y001017D01*
X004295Y001095D02*
X007035Y001095D01*
X007006Y001174D02*
X006781Y001174D01*
X006892Y001252D02*
X006954Y001252D01*
X006940Y002194D02*
X006940Y002194D01*
X006940Y002273D02*
X006973Y002273D01*
X006940Y002351D02*
X007052Y002351D01*
X007135Y002430D02*
X006940Y002430D01*
X006940Y002508D02*
X007135Y002508D01*
X007135Y002587D02*
X006940Y002587D01*
X006940Y002665D02*
X007135Y002665D01*
X007135Y002744D02*
X006915Y002744D01*
X006889Y002822D02*
X007135Y002822D01*
X007135Y002901D02*
X006864Y002901D01*
X006838Y002979D02*
X007135Y002979D01*
X007135Y003058D02*
X006812Y003058D01*
X006755Y003136D02*
X007135Y003136D01*
X007135Y003215D02*
X006698Y003215D01*
X006641Y003293D02*
X007135Y003293D01*
X007135Y003372D02*
X006584Y003372D01*
X006571Y003391D02*
X006571Y003391D01*
X006488Y003450D02*
X007135Y003450D01*
X007135Y003529D02*
X006380Y003529D01*
X006272Y003607D02*
X007135Y003607D01*
X007135Y003686D02*
X006074Y003686D01*
X005206Y003686D02*
X000380Y003686D01*
X000380Y003764D02*
X007135Y003764D01*
X007135Y003843D02*
X000380Y003843D01*
X000380Y003921D02*
X007135Y003921D01*
X007135Y004000D02*
X000380Y004000D01*
X000380Y004078D02*
X007135Y004078D01*
X007135Y004157D02*
X000380Y004157D01*
X000380Y004235D02*
X007135Y004235D01*
X007135Y004314D02*
X000380Y004314D01*
X000380Y004392D02*
X007135Y004392D01*
X007135Y004471D02*
X000380Y004471D01*
X000380Y004549D02*
X007135Y004549D01*
X009045Y002665D02*
X010900Y002665D01*
X010900Y002587D02*
X008967Y002587D01*
X008888Y002508D02*
X010900Y002508D01*
X010900Y002430D02*
X010847Y002430D01*
X010667Y002430D02*
X010588Y002430D01*
X010588Y002351D02*
X010667Y002351D01*
X010667Y002273D02*
X010588Y002273D01*
X010588Y002194D02*
X010667Y002194D01*
X010667Y002116D02*
X010588Y002116D01*
X010588Y002037D02*
X010667Y002037D01*
X010667Y001959D02*
X010588Y001959D01*
X010588Y001880D02*
X010667Y001880D01*
X010667Y001802D02*
X010588Y001802D01*
X010587Y001723D02*
X009931Y001723D01*
X009931Y001645D02*
X010184Y001645D01*
X010184Y001566D02*
X009931Y001566D01*
X009931Y001488D02*
X010184Y001488D01*
X010184Y001409D02*
X009931Y001409D01*
X009921Y001331D02*
X010195Y001331D01*
X010223Y001252D02*
X009888Y001252D01*
X009836Y001174D02*
X010270Y001174D01*
X010303Y001095D02*
X009820Y001095D01*
X009837Y001017D02*
X010291Y001017D01*
X010291Y000938D02*
X009837Y000938D01*
X009837Y000860D02*
X010587Y000860D01*
X010588Y000880D02*
X010588Y001177D01*
X010588Y001177D01*
X010588Y001700D01*
X010667Y001700D01*
X010667Y001177D01*
X010667Y000880D01*
X010588Y000880D01*
X010588Y000938D02*
X010667Y000938D01*
X010667Y001017D02*
X010588Y001017D01*
X010588Y001095D02*
X010667Y001095D01*
X010667Y001174D02*
X010588Y001174D01*
X010588Y001252D02*
X010667Y001252D01*
X010667Y001177D02*
X010667Y001177D01*
X010667Y001331D02*
X010588Y001331D01*
X010588Y001409D02*
X010667Y001409D01*
X010667Y001488D02*
X010588Y001488D01*
X010588Y001566D02*
X010667Y001566D01*
X010667Y001645D02*
X010588Y001645D01*
X010184Y001802D02*
X009931Y001802D01*
X009931Y001880D02*
X010184Y001880D01*
X010184Y001959D02*
X009931Y001959D01*
X009931Y002037D02*
X010184Y002037D01*
X010190Y002116D02*
X009931Y002116D01*
X009902Y002194D02*
X010210Y002194D01*
X010246Y002273D02*
X009869Y002273D01*
X009791Y002351D02*
X010308Y002351D01*
X010408Y002430D02*
X009650Y002430D01*
X009405Y002430D02*
X008810Y002430D01*
X008731Y002351D02*
X009264Y002351D01*
X009186Y002273D02*
X008769Y002273D01*
X008802Y002194D02*
X009153Y002194D01*
X009124Y002116D02*
X008831Y002116D01*
X008831Y002037D02*
X009124Y002037D01*
X009124Y001959D02*
X008831Y001959D01*
X008831Y001880D02*
X009124Y001880D01*
X009124Y001802D02*
X008831Y001802D01*
X008831Y001723D02*
X009124Y001723D01*
X009124Y001645D02*
X008831Y001645D01*
X008831Y001566D02*
X009124Y001566D01*
X009124Y001488D02*
X008831Y001488D01*
X008831Y001409D02*
X009124Y001409D01*
X009134Y001331D02*
X008821Y001331D01*
X008788Y001252D02*
X009167Y001252D01*
X009219Y001174D02*
X008736Y001174D01*
X008707Y001095D02*
X009260Y001095D01*
X009243Y001017D02*
X008724Y001017D01*
X008724Y000938D02*
X009243Y000938D01*
X009243Y000860D02*
X008724Y000860D01*
X008724Y000781D02*
X009243Y000781D01*
X009243Y000703D02*
X008724Y000703D01*
X009837Y000703D02*
X010291Y000703D01*
X010291Y000781D02*
X009837Y000781D01*
X009124Y002744D02*
X010900Y002744D01*
X010900Y002822D02*
X009202Y002822D01*
X009281Y002901D02*
X010900Y002901D01*
X010900Y002979D02*
X009359Y002979D01*
X009438Y003058D02*
X010900Y003058D01*
X010900Y003136D02*
X009516Y003136D01*
X009595Y003215D02*
X010900Y003215D01*
X010900Y003293D02*
X009673Y003293D01*
X009752Y003372D02*
X010900Y003372D01*
X010900Y003450D02*
X009830Y003450D01*
X009909Y003529D02*
X010900Y003529D01*
X010900Y003607D02*
X009987Y003607D01*
X010066Y003686D02*
X010900Y003686D01*
X010900Y003764D02*
X010144Y003764D01*
X010223Y003843D02*
X010900Y003843D01*
X010900Y003921D02*
X010301Y003921D01*
X010380Y004000D02*
X010900Y004000D01*
X010900Y004078D02*
X010458Y004078D01*
X010537Y004157D02*
X010900Y004157D01*
X010900Y004235D02*
X010615Y004235D01*
X010694Y004314D02*
X010900Y004314D01*
X010900Y004392D02*
X010772Y004392D01*
X010820Y004471D02*
X010900Y004471D01*
X010900Y004549D02*
X010820Y004549D01*
X010820Y004628D02*
X010900Y004628D01*
X010900Y004706D02*
X010820Y004706D01*
X010820Y004785D02*
X010900Y004785D01*
X010900Y004863D02*
X010820Y004863D01*
X010820Y004942D02*
X010900Y004942D01*
X010900Y005020D02*
X010820Y005020D01*
X010820Y005099D02*
X010900Y005099D01*
X010900Y005177D02*
X010820Y005177D01*
X010820Y005256D02*
X010900Y005256D01*
X010900Y005334D02*
X010820Y005334D01*
X010820Y005413D02*
X010900Y005413D01*
X010900Y005491D02*
X010820Y005491D01*
X010820Y005570D02*
X010900Y005570D01*
X010900Y005648D02*
X010820Y005648D01*
X010820Y005727D02*
X010900Y005727D01*
X010900Y005805D02*
X010820Y005805D01*
X010820Y005884D02*
X010900Y005884D01*
X010900Y005962D02*
X010820Y005962D01*
X010820Y006041D02*
X010900Y006041D01*
X010900Y006119D02*
X010820Y006119D01*
X010820Y006198D02*
X010900Y006198D01*
X010900Y006276D02*
X010820Y006276D01*
X010820Y006355D02*
X010900Y006355D01*
X010900Y006433D02*
X010820Y006433D01*
X010820Y006512D02*
X010900Y006512D01*
X010900Y006590D02*
X010820Y006590D01*
X010820Y006669D02*
X010900Y006669D01*
X010900Y006747D02*
X010820Y006747D01*
X010820Y006826D02*
X010900Y006826D01*
X010900Y006904D02*
X010820Y006904D01*
X010820Y006983D02*
X010900Y006983D01*
X010900Y007061D02*
X010820Y007061D01*
X010820Y007140D02*
X010900Y007140D01*
X010900Y007219D02*
X010820Y007219D01*
X010820Y007297D02*
X010900Y007297D01*
X010900Y007376D02*
X010820Y007376D01*
X010820Y007454D02*
X010900Y007454D01*
X010900Y007533D02*
X010820Y007533D01*
X010820Y007611D02*
X010900Y007611D01*
X005042Y003633D02*
X005042Y003633D01*
X005008Y003607D02*
X000380Y003607D01*
X000380Y003529D02*
X004900Y003529D01*
X004792Y003450D02*
X000380Y003450D01*
X000380Y003372D02*
X004696Y003372D01*
X004639Y003293D02*
X000380Y003293D01*
X000380Y003215D02*
X004582Y003215D01*
X004525Y003136D02*
X000380Y003136D01*
X000380Y003058D02*
X004468Y003058D01*
X004442Y002979D02*
X000380Y002979D01*
X000380Y002901D02*
X004416Y002901D01*
X004391Y002822D02*
X000380Y002822D01*
X000380Y002744D02*
X004365Y002744D01*
X004340Y002665D02*
X000380Y002665D01*
X000380Y002587D02*
X004340Y002587D01*
X004340Y002508D02*
X000380Y002508D01*
X000380Y002430D02*
X000655Y002430D01*
X000514Y002351D02*
X000380Y002351D01*
X000380Y002273D02*
X000436Y002273D01*
X000403Y002194D02*
X000380Y002194D01*
X000900Y002430D02*
X001742Y002430D01*
X001602Y002351D02*
X001041Y002351D01*
X001119Y002273D02*
X001523Y002273D01*
X001490Y002194D02*
X001152Y002194D01*
X001181Y002116D02*
X001461Y002116D01*
X001461Y002037D02*
X001181Y002037D01*
X001181Y001959D02*
X001461Y001959D01*
X001461Y001880D02*
X001181Y001880D01*
X001181Y001802D02*
X001461Y001802D01*
X001461Y001723D02*
X001181Y001723D01*
X001181Y001645D02*
X001461Y001645D01*
X001461Y001566D02*
X001181Y001566D01*
X001181Y001488D02*
X001461Y001488D01*
X001461Y001409D02*
X001181Y001409D01*
X001171Y001331D02*
X001472Y001331D01*
X001504Y001252D02*
X001138Y001252D01*
X001086Y001174D02*
X001556Y001174D01*
X001585Y001095D02*
X001057Y001095D01*
X001074Y001017D02*
X001568Y001017D01*
X001568Y000938D02*
X001074Y000938D01*
X001074Y000860D02*
X001568Y000860D01*
X001568Y000781D02*
X001074Y000781D01*
X001074Y000703D02*
X001568Y000703D01*
X002162Y000703D02*
X002656Y000703D01*
X002656Y000781D02*
X002162Y000781D01*
X002162Y000860D02*
X002656Y000860D01*
X002656Y000938D02*
X002162Y000938D01*
X002162Y001017D02*
X002656Y001017D01*
X002673Y001095D02*
X002145Y001095D01*
X002174Y001174D02*
X002644Y001174D01*
X002592Y001252D02*
X002226Y001252D01*
X002258Y001331D02*
X002559Y001331D01*
X002549Y001409D02*
X002269Y001409D01*
X002269Y001488D02*
X002549Y001488D01*
X002549Y001566D02*
X002269Y001566D01*
X002269Y001645D02*
X002549Y001645D01*
X002549Y001723D02*
X002269Y001723D01*
X002269Y001802D02*
X002549Y001802D01*
X002549Y001880D02*
X002269Y001880D01*
X002269Y001959D02*
X002549Y001959D01*
X002549Y002037D02*
X002269Y002037D01*
X002269Y002116D02*
X002549Y002116D01*
X002578Y002194D02*
X002240Y002194D01*
X002207Y002273D02*
X002611Y002273D01*
X002689Y002351D02*
X002128Y002351D01*
X001988Y002430D02*
X002830Y002430D01*
X003075Y002430D02*
X003892Y002430D01*
X003752Y002351D02*
X003216Y002351D01*
X003294Y002273D02*
X003673Y002273D01*
X003640Y002194D02*
X003327Y002194D01*
X003356Y002116D02*
X003611Y002116D01*
X003611Y002037D02*
X003356Y002037D01*
X003356Y001959D02*
X003611Y001959D01*
X003611Y001880D02*
X003356Y001880D01*
X003356Y001802D02*
X003611Y001802D01*
X003611Y001723D02*
X003356Y001723D01*
X003356Y001645D02*
X003611Y001645D01*
X003611Y001566D02*
X003356Y001566D01*
X003356Y001488D02*
X003611Y001488D01*
X003611Y001409D02*
X003356Y001409D01*
X003346Y001331D02*
X003622Y001331D01*
X003654Y001252D02*
X003313Y001252D01*
X003261Y001174D02*
X003706Y001174D01*
X003735Y001095D02*
X003232Y001095D01*
X003249Y001017D02*
X003718Y001017D01*
X003718Y000938D02*
X003249Y000938D01*
X003249Y000860D02*
X003718Y000860D01*
X003718Y000781D02*
X003249Y000781D01*
X003249Y000703D02*
X003718Y000703D01*
X004324Y001174D02*
X004499Y001174D01*
X004388Y001252D02*
X004376Y001252D01*
X004340Y002351D02*
X004278Y002351D01*
X004340Y002430D02*
X004138Y002430D01*
X004469Y005099D02*
X000380Y005099D01*
X000380Y005177D02*
X004390Y005177D01*
X004312Y005256D02*
X000380Y005256D01*
X000380Y005334D02*
X004233Y005334D01*
X004155Y005413D02*
X000380Y005413D01*
X000380Y005491D02*
X004076Y005491D01*
X003998Y005570D02*
X003609Y005570D01*
X003662Y005648D02*
X003928Y005648D01*
X004552Y005727D02*
X004553Y005727D01*
X003015Y005890D02*
X003015Y008390D01*
X001665Y008390D01*
X001665Y005890D01*
X003015Y005890D01*
X003015Y005962D02*
X001665Y005962D01*
X001665Y006041D02*
X003015Y006041D01*
X003015Y006119D02*
X001665Y006119D01*
X001665Y006198D02*
X003015Y006198D01*
X003015Y006276D02*
X001665Y006276D01*
X001665Y006355D02*
X003015Y006355D01*
X003015Y006433D02*
X001665Y006433D01*
X001665Y006512D02*
X003015Y006512D01*
X003015Y006590D02*
X001665Y006590D01*
X001665Y006669D02*
X003015Y006669D01*
X003015Y006747D02*
X001665Y006747D01*
X001665Y006826D02*
X003015Y006826D01*
X003015Y006904D02*
X001665Y006904D01*
X001665Y006983D02*
X003015Y006983D01*
X003015Y007061D02*
X001665Y007061D01*
X001665Y007140D02*
X003015Y007140D01*
X003015Y007219D02*
X001665Y007219D01*
X001665Y007297D02*
X003015Y007297D01*
X003015Y007376D02*
X001665Y007376D01*
X001665Y007454D02*
X003015Y007454D01*
X003015Y007533D02*
X001665Y007533D01*
X001665Y007611D02*
X003015Y007611D01*
X003015Y007690D02*
X001665Y007690D01*
X001665Y007768D02*
X003015Y007768D01*
X003015Y007847D02*
X001665Y007847D01*
X001665Y007925D02*
X003015Y007925D01*
X003015Y008004D02*
X001665Y008004D01*
X001665Y008082D02*
X003015Y008082D01*
X003015Y008161D02*
X001665Y008161D01*
X001665Y008239D02*
X003015Y008239D01*
X003015Y008318D02*
X001665Y008318D01*
X001525Y008318D02*
X001481Y008318D01*
X001525Y008239D02*
X001403Y008239D01*
X001309Y008161D02*
X001525Y008161D01*
X001525Y008082D02*
X001094Y008082D01*
X001146Y008004D02*
X001525Y008004D01*
X001525Y007925D02*
X001170Y007925D01*
X001170Y007847D02*
X001525Y007847D01*
X001525Y007768D02*
X001143Y007768D01*
X001085Y007690D02*
X001525Y007690D01*
X001525Y007611D02*
X000948Y007611D01*
X000832Y007611D02*
X000380Y007611D01*
X000380Y007533D02*
X001525Y007533D01*
X001525Y007454D02*
X000380Y007454D01*
X000380Y007376D02*
X001525Y007376D01*
X001525Y007297D02*
X000380Y007297D01*
X000380Y007219D02*
X001525Y007219D01*
X001525Y007140D02*
X000380Y007140D01*
X000380Y007061D02*
X001525Y007061D01*
X001525Y006983D02*
X000380Y006983D01*
X000380Y006904D02*
X001525Y006904D01*
X001525Y006826D02*
X000380Y006826D01*
X000380Y006747D02*
X001525Y006747D01*
X001525Y006669D02*
X000380Y006669D01*
X000380Y006590D02*
X001525Y006590D01*
X001525Y006512D02*
X000380Y006512D01*
X000380Y006433D02*
X001525Y006433D01*
X001525Y006355D02*
X000380Y006355D01*
X000380Y006276D02*
X001525Y006276D01*
X001525Y006198D02*
X000380Y006198D01*
X000380Y006119D02*
X001525Y006119D01*
X001525Y006041D02*
X000380Y006041D01*
X000380Y005962D02*
X001525Y005962D01*
X001525Y005884D02*
X000380Y005884D01*
X000380Y005805D02*
X001552Y005805D01*
X002300Y005727D02*
X000380Y005727D01*
X000380Y005648D02*
X002318Y005648D01*
X002371Y005570D02*
X000380Y005570D01*
X000380Y007690D02*
X000695Y007690D01*
X000507Y007768D02*
X000380Y007768D01*
X000380Y007847D02*
X000429Y007847D01*
X001042Y008894D02*
X001042Y009182D01*
X000915Y009182D01*
X000879Y009173D01*
X000847Y009154D01*
X000821Y009128D01*
X000803Y009096D01*
X000797Y009075D01*
X000797Y009084D01*
X000749Y009131D01*
X000749Y009294D01*
X000691Y009353D01*
X000391Y009353D01*
X000380Y009342D01*
X000380Y009538D01*
X000391Y009527D01*
X000691Y009527D01*
X000749Y009586D01*
X000749Y009800D01*
X000776Y009800D01*
X000834Y009859D01*
X000834Y010296D01*
X000859Y010271D01*
X000871Y010271D01*
X000871Y009859D01*
X000929Y009800D01*
X001081Y009800D01*
X001081Y009607D01*
X001069Y009595D01*
X001050Y009563D01*
X001041Y009527D01*
X001041Y009440D01*
X001041Y009353D01*
X001050Y009317D01*
X001069Y009285D01*
X001081Y009273D01*
X001081Y009074D01*
X001100Y009055D01*
X001100Y008894D01*
X001042Y008894D01*
X001042Y008946D02*
X001100Y008946D01*
X001100Y009024D02*
X001042Y009024D01*
X001042Y009103D02*
X001081Y009103D01*
X001081Y009181D02*
X001042Y009181D01*
X001081Y009260D02*
X000749Y009260D01*
X000749Y009181D02*
X000910Y009181D01*
X000806Y009103D02*
X000778Y009103D01*
X000706Y009338D02*
X001045Y009338D01*
X001041Y009417D02*
X000380Y009417D01*
X000380Y009495D02*
X001041Y009495D01*
X001041Y009440D02*
X001289Y009440D01*
X001289Y009440D01*
X001041Y009440D01*
X001056Y009574D02*
X000737Y009574D01*
X000749Y009652D02*
X001081Y009652D01*
X001081Y009731D02*
X000749Y009731D01*
X000784Y009809D02*
X000921Y009809D01*
X000871Y009888D02*
X000834Y009888D01*
X000834Y009966D02*
X000871Y009966D01*
X000871Y010045D02*
X000834Y010045D01*
X000834Y010123D02*
X000871Y010123D01*
X000871Y010202D02*
X000834Y010202D01*
X000834Y010280D02*
X000850Y010280D01*
X000825Y010713D02*
X000815Y010736D01*
X000736Y010815D01*
X000633Y010857D01*
X000522Y010857D01*
X000419Y010815D01*
X000380Y010776D01*
X000380Y011150D01*
X000800Y011150D01*
X000800Y010842D01*
X000859Y010783D01*
X001296Y010783D01*
X001354Y010841D01*
X002790Y010841D01*
X002790Y009332D01*
X002736Y009332D01*
X002678Y009273D01*
X002678Y008780D01*
X002602Y008780D01*
X002602Y009273D01*
X002544Y009332D01*
X002067Y009332D01*
X002009Y009273D01*
X002009Y009029D01*
X001849Y008870D01*
X001720Y008741D01*
X001720Y008530D01*
X001607Y008530D01*
X001550Y008473D01*
X001550Y009024D01*
X002003Y009024D01*
X002009Y009103D02*
X001772Y009103D01*
X001851Y009181D02*
X002009Y009181D01*
X002009Y009260D02*
X001929Y009260D01*
X002008Y009338D02*
X002790Y009338D01*
X002790Y009417D02*
X002316Y009417D01*
X002330Y009430D02*
X002271Y009371D01*
X002041Y009371D01*
X001694Y009024D01*
X001550Y009024D01*
X001550Y008946D02*
X001925Y008946D01*
X001846Y008867D02*
X001550Y008867D01*
X001550Y008789D02*
X001768Y008789D01*
X001720Y008710D02*
X001550Y008710D01*
X001550Y008632D02*
X001720Y008632D01*
X001720Y008553D02*
X001550Y008553D01*
X001550Y008475D02*
X001552Y008475D01*
X001561Y009344D02*
X001535Y009344D01*
X001537Y009353D01*
X001537Y009440D01*
X001537Y009527D01*
X001528Y009563D01*
X001509Y009595D01*
X001497Y009607D01*
X001497Y009806D01*
X001449Y009854D01*
X001449Y009963D01*
X001346Y010066D01*
X001346Y010272D01*
X001380Y010238D01*
X001735Y010238D01*
X001735Y010150D01*
X002024Y010150D01*
X002024Y010198D01*
X002042Y010198D01*
X002042Y010486D01*
X002100Y010486D01*
X002100Y010544D01*
X002349Y010544D01*
X002349Y010711D01*
X002339Y010746D01*
X002321Y010778D01*
X002295Y010804D01*
X002263Y010823D01*
X002227Y010832D01*
X002100Y010832D01*
X002100Y010544D01*
X002042Y010544D01*
X002042Y010832D01*
X001915Y010832D01*
X001879Y010823D01*
X001847Y010804D01*
X001821Y010778D01*
X001803Y010746D01*
X001797Y010725D01*
X001797Y010734D01*
X001738Y010792D01*
X001380Y010792D01*
X001321Y010734D01*
X001321Y010722D01*
X001296Y010747D01*
X000859Y010747D01*
X000825Y010713D01*
X000800Y010751D02*
X001339Y010751D01*
X001342Y010830D02*
X001905Y010830D01*
X001805Y010751D02*
X001779Y010751D01*
X002042Y010751D02*
X002100Y010751D01*
X002100Y010673D02*
X002042Y010673D01*
X002042Y010594D02*
X002100Y010594D01*
X002100Y010516D02*
X002790Y010516D01*
X002790Y010594D02*
X002349Y010594D01*
X002349Y010673D02*
X002790Y010673D01*
X002790Y010751D02*
X002336Y010751D01*
X002237Y010830D02*
X002790Y010830D01*
X002790Y010437D02*
X002349Y010437D01*
X002349Y010486D02*
X002349Y010333D01*
X002360Y010313D01*
X002370Y010277D01*
X002370Y010150D01*
X002081Y010150D01*
X002024Y010150D01*
X002024Y010092D01*
X001735Y010092D01*
X001735Y009965D01*
X001745Y009929D01*
X001763Y009897D01*
X001789Y009871D01*
X001821Y009853D01*
X001843Y009847D01*
X001834Y009847D01*
X001775Y009788D01*
X001775Y009558D01*
X001561Y009344D01*
X001537Y009417D02*
X001634Y009417D01*
X001537Y009440D02*
X001289Y009440D01*
X001537Y009440D01*
X001537Y009495D02*
X001712Y009495D01*
X001775Y009574D02*
X001522Y009574D01*
X001497Y009652D02*
X001775Y009652D01*
X001775Y009731D02*
X001497Y009731D01*
X001494Y009809D02*
X001796Y009809D01*
X001773Y009888D02*
X001449Y009888D01*
X001446Y009966D02*
X001735Y009966D01*
X001735Y010045D02*
X001368Y010045D01*
X001346Y010123D02*
X002024Y010123D01*
X002081Y010123D02*
X002790Y010123D01*
X002790Y010045D02*
X002370Y010045D01*
X002370Y010092D02*
X002081Y010092D01*
X002081Y010150D01*
X002081Y010399D01*
X002100Y010399D01*
X002100Y010486D01*
X002349Y010486D01*
X002349Y010359D02*
X002790Y010359D01*
X002790Y010280D02*
X002369Y010280D01*
X002370Y010202D02*
X002790Y010202D01*
X002790Y009966D02*
X002370Y009966D01*
X002370Y009965D02*
X002370Y010092D01*
X002370Y009965D02*
X002360Y009929D01*
X002342Y009897D01*
X002316Y009871D01*
X002284Y009853D01*
X002262Y009847D01*
X002271Y009847D01*
X002330Y009788D01*
X002330Y009430D01*
X002330Y009495D02*
X002790Y009495D01*
X002790Y009574D02*
X002330Y009574D01*
X002330Y009652D02*
X002790Y009652D01*
X002790Y009731D02*
X002330Y009731D01*
X002309Y009809D02*
X002790Y009809D01*
X002790Y009888D02*
X002332Y009888D01*
X002081Y010202D02*
X002042Y010202D01*
X002042Y010280D02*
X002081Y010280D01*
X002081Y010359D02*
X002042Y010359D01*
X002042Y010437D02*
X002100Y010437D01*
X002100Y010830D02*
X002042Y010830D01*
X001735Y010202D02*
X001346Y010202D01*
X000813Y010830D02*
X000701Y010830D01*
X000800Y010908D02*
X000380Y010908D01*
X000380Y010830D02*
X000454Y010830D01*
X000380Y010987D02*
X000800Y010987D01*
X000800Y011065D02*
X000380Y011065D01*
X000380Y011144D02*
X000800Y011144D01*
X001289Y009440D02*
X001289Y009440D01*
X002602Y009260D02*
X002678Y009260D01*
X002678Y009181D02*
X002602Y009181D01*
X002602Y009103D02*
X002678Y009103D01*
X002678Y009024D02*
X002602Y009024D01*
X002602Y008946D02*
X002678Y008946D01*
X002678Y008867D02*
X002602Y008867D01*
X002602Y008789D02*
X002678Y008789D01*
X003680Y008511D02*
X003680Y007999D01*
X003811Y007999D01*
X003811Y007750D01*
X003869Y007750D01*
X003869Y007999D01*
X004021Y007999D01*
X004021Y008065D01*
X004009Y008077D01*
X003991Y008109D01*
X003981Y008144D01*
X003981Y008311D01*
X004230Y008311D01*
X004230Y008369D01*
X003981Y008369D01*
X003981Y008511D01*
X003680Y008511D01*
X003680Y008475D02*
X003981Y008475D01*
X003981Y008396D02*
X003680Y008396D01*
X003680Y008318D02*
X004230Y008318D01*
X004230Y008369D02*
X004230Y008657D01*
X004165Y008657D01*
X004165Y009024D01*
X004240Y009024D01*
X004240Y008570D01*
X004288Y008522D01*
X004288Y008369D01*
X004230Y008369D01*
X004230Y008396D02*
X004288Y008396D01*
X004288Y008475D02*
X004230Y008475D01*
X004230Y008553D02*
X004257Y008553D01*
X004240Y008632D02*
X004230Y008632D01*
X004240Y008710D02*
X004165Y008710D01*
X004165Y008789D02*
X004240Y008789D01*
X004240Y008867D02*
X004165Y008867D01*
X004165Y008946D02*
X004240Y008946D01*
X004240Y009024D02*
X004165Y009024D01*
X003981Y008239D02*
X003680Y008239D01*
X003680Y008161D02*
X003981Y008161D01*
X004006Y008082D02*
X003680Y008082D01*
X003680Y008004D02*
X004021Y008004D01*
X003869Y007925D02*
X003811Y007925D01*
X003811Y007847D02*
X003869Y007847D01*
X003869Y007768D02*
X003811Y007768D01*
D15*
X001940Y007640D03*
X001940Y007140D03*
X001940Y006640D03*
X001940Y006140D03*
X001940Y008140D03*
X009340Y007890D03*
X009340Y007390D03*
X009340Y006890D03*
X009340Y006390D03*
X009340Y005890D03*
X009340Y008390D03*
D16*
X009528Y002044D02*
X009528Y001436D01*
X010628Y001436D02*
X010628Y002044D01*
X008428Y002044D02*
X008428Y001436D01*
X007315Y001436D02*
X007315Y002044D01*
X004015Y002044D02*
X004015Y001436D01*
X002953Y001436D02*
X002953Y002044D01*
X001865Y002044D02*
X001865Y001436D01*
X000778Y001436D02*
X000778Y002044D01*
D17*
X008977Y009372D03*
X008977Y009628D03*
X008977Y009883D03*
X009803Y009883D03*
X009803Y009628D03*
X009803Y009372D03*
D18*
X009390Y009628D03*
D19*
X010515Y009752D03*
X010515Y009003D03*
D20*
X010146Y010253D03*
X009634Y010253D03*
X008593Y010340D03*
X008608Y010765D03*
X008097Y010765D03*
X008082Y010340D03*
X007271Y008828D03*
X006759Y008828D03*
X006221Y008580D03*
X005709Y008580D03*
X004771Y008340D03*
X004771Y007890D03*
X004259Y007890D03*
X004259Y008340D03*
X002071Y010515D03*
X001559Y010515D03*
X001108Y010078D03*
X000597Y010078D03*
X000559Y008865D03*
X000559Y008378D03*
X001071Y008378D03*
X001071Y008865D03*
X003822Y005965D03*
X004333Y005965D03*
X004772Y005965D03*
X005283Y005965D03*
X006822Y006178D03*
X006822Y006640D03*
X007333Y006640D03*
X007333Y006178D03*
D21*
X006390Y006897D03*
X005960Y007009D03*
X005960Y007521D03*
X006390Y007408D03*
X005390Y006908D03*
X005390Y006397D03*
X005203Y007697D03*
X005203Y008208D03*
X003840Y007721D03*
X003840Y007209D03*
X002053Y009609D03*
X002053Y010121D03*
X001078Y010509D03*
X001078Y011021D03*
X008140Y009851D03*
X008578Y009851D03*
X008578Y009339D03*
X008140Y009339D03*
X009015Y010259D03*
X009015Y010771D03*
D22*
X009555Y010690D03*
X010225Y010690D03*
X010128Y007937D03*
X010128Y007268D03*
D23*
G36*
X006782Y007794D02*
X006845Y008301D01*
X007430Y008228D01*
X007367Y007721D01*
X006782Y007794D01*
G37*
G36*
X006690Y007052D02*
X006753Y007559D01*
X007338Y007486D01*
X007275Y006979D01*
X006690Y007052D01*
G37*
D24*
X006327Y007709D03*
X006327Y007965D03*
X006327Y008221D03*
X005578Y008221D03*
X005578Y007709D03*
X001289Y009184D03*
X001289Y009440D03*
X001289Y009696D03*
X000541Y009696D03*
X000541Y009184D03*
D25*
X004236Y007261D03*
X004492Y007261D03*
X004748Y007261D03*
X005004Y007261D03*
X005004Y006394D03*
X004748Y006394D03*
X004492Y006394D03*
X004236Y006394D03*
D26*
X000778Y000840D03*
X001865Y000840D03*
X002953Y000840D03*
X004015Y000840D03*
X007315Y000840D03*
X008428Y000840D03*
X009540Y000840D03*
X010628Y000840D03*
D27*
X003840Y006840D02*
X003828Y006828D01*
X003822Y006822D01*
X003822Y005965D01*
X003840Y006840D02*
X003840Y007209D01*
X002305Y009015D02*
X001940Y008650D01*
X001940Y008140D01*
X001940Y007640D01*
X001940Y007140D01*
X001940Y006640D01*
X001940Y008140D02*
X001890Y008190D01*
X006703Y010703D02*
X007140Y010703D01*
X007140Y010578D01*
X007265Y010453D01*
X007265Y010152D01*
X007228Y010115D01*
X007228Y009490D02*
X007265Y009453D01*
X007265Y009265D01*
X007328Y009328D01*
X007640Y009328D01*
X007652Y009339D01*
X008578Y009339D01*
X008593Y010340D02*
X008608Y010355D01*
X008608Y010765D01*
X008614Y010771D01*
X009015Y010771D01*
X008097Y010765D02*
X008097Y010355D01*
X008082Y010340D01*
X008097Y010765D02*
X007640Y010765D01*
D28*
X009015Y010771D02*
X009015Y010953D01*
X009078Y011015D01*
X009828Y011015D01*
X009890Y010953D01*
X009890Y009953D01*
X009821Y009883D01*
X009803Y009883D01*
X009634Y010253D02*
X009555Y010331D01*
X009555Y010690D01*
X008977Y009372D02*
X008596Y009372D01*
X008578Y009390D01*
X005571Y006397D02*
X005640Y006328D01*
X005640Y005515D01*
X005328Y005203D01*
X004578Y005203D01*
X004078Y005703D01*
X004078Y006236D01*
X004236Y006394D01*
X004492Y006394D01*
X005390Y006397D02*
X005571Y006397D01*
D29*
X005953Y006578D03*
X006390Y006140D03*
X007140Y005390D03*
X006640Y004140D03*
X005940Y004140D03*
X004890Y004828D03*
X005015Y005515D03*
X004890Y006828D03*
X004390Y006828D03*
X003828Y006828D03*
X003828Y008328D03*
X005203Y008590D03*
X006703Y010703D03*
X007140Y010703D03*
X007640Y010765D03*
X010015Y008453D03*
X010640Y007953D03*
X010703Y010265D03*
X010703Y010703D03*
X007953Y002765D03*
X006240Y000840D03*
X005340Y000840D03*
X003515Y002703D03*
X002453Y002515D03*
X001740Y003240D03*
X001140Y003840D03*
X000953Y004765D03*
X001740Y004740D03*
X002640Y004740D03*
X002340Y003840D03*
X000890Y007890D03*
X001328Y007953D03*
X000828Y009453D03*
X000578Y010578D03*
X002578Y010515D03*
D30*
X002053Y009609D02*
X001628Y009184D01*
X001289Y009184D01*
X001390Y009083D01*
X001390Y008453D01*
X001315Y008378D01*
X001071Y008378D01*
X000559Y008378D02*
X000559Y008865D01*
X000541Y008883D01*
X000541Y009184D01*
X000541Y009696D02*
X000541Y010022D01*
X000597Y010078D01*
X000597Y010558D01*
X000578Y010578D01*
X001078Y010509D02*
X001078Y010108D01*
X001108Y010078D01*
X001289Y009897D01*
X001289Y009696D01*
X001078Y010509D02*
X001553Y010509D01*
X001559Y010515D01*
X004259Y007890D02*
X004259Y007708D01*
X004492Y007475D01*
X004492Y007261D01*
X004492Y006930D01*
X004390Y006828D01*
X004236Y007261D02*
X003891Y007261D01*
X003840Y007209D01*
X004748Y007261D02*
X004748Y007867D01*
X004771Y007890D01*
X004771Y008340D01*
X005206Y008580D02*
X005206Y008587D01*
X005203Y008590D01*
X005578Y008221D02*
X005709Y008352D01*
X005709Y008580D01*
X006221Y008580D02*
X006327Y008474D01*
X006327Y008221D01*
X006327Y007709D02*
X006390Y007646D01*
X006390Y007408D01*
X006327Y007709D02*
X006584Y007709D01*
X006828Y007953D01*
X007048Y007953D01*
X006894Y007269D02*
X006578Y006953D01*
X006446Y006953D01*
X006390Y006897D01*
X005960Y007009D02*
X005829Y007140D01*
X005765Y007140D01*
X005578Y007327D01*
X005578Y007709D01*
X005203Y007697D02*
X005004Y007498D01*
X005004Y007261D01*
X005004Y007026D01*
X005004Y006941D01*
X004890Y006828D01*
X005004Y007026D02*
X005140Y006890D01*
X005372Y006890D01*
X005390Y006908D01*
X004748Y006394D02*
X004748Y005989D01*
X004772Y005965D01*
X004333Y005965D01*
X004015Y001740D02*
X004015Y000840D01*
X002953Y000840D02*
X002953Y001740D01*
X001865Y001740D02*
X001865Y000840D01*
X000778Y000840D02*
X000778Y001740D01*
X007315Y001740D02*
X007315Y000840D01*
X008428Y000840D02*
X008428Y001740D01*
X009528Y001740D02*
X009528Y000853D01*
X009540Y000840D01*
D31*
X008453Y001765D02*
X008428Y001740D01*
X008453Y001765D02*
X008453Y002328D01*
X010640Y004515D01*
X010640Y007953D01*
X010143Y007953D01*
X010128Y007937D01*
X010128Y007268D02*
X010128Y005328D01*
X009540Y004740D01*
X007265Y004740D01*
X007315Y004690D01*
X007315Y001740D01*
X007265Y004740D02*
X006665Y004740D01*
X005953Y005453D01*
X005953Y006578D01*
X006015Y006515D01*
X006578Y006515D01*
X006703Y006640D01*
X006822Y006640D01*
X007333Y006640D02*
X007333Y006178D01*
X007333Y006640D02*
X007333Y006949D01*
X007014Y007269D01*
X006894Y007269D01*
X007048Y007953D02*
X007106Y008011D01*
X006759Y008828D02*
X006468Y008828D01*
X006221Y008580D01*
X005953Y008953D02*
X006140Y009140D01*
X006140Y010271D01*
X006144Y010275D01*
X005953Y008953D02*
X004703Y008953D01*
X004578Y008828D01*
X004537Y008828D01*
X003868Y008828D02*
X003805Y008890D01*
X003100Y008890D01*
X002975Y009015D01*
X002975Y010114D01*
X003136Y010275D01*
X003240Y010379D01*
X003240Y010740D01*
X002940Y011040D01*
X002921Y011021D01*
X001078Y011021D01*
X000559Y008378D02*
X000559Y007971D01*
X000640Y007890D01*
X000890Y007890D01*
X005203Y008208D02*
X005206Y008580D01*
X005709Y008580D01*
X005960Y007009D02*
X005953Y007002D01*
X005953Y006578D01*
M02*
