%
M48
M72
T01C0.0118
T02C0.0200
T03C0.0276
T04C0.0405
%
T01
X1845Y2845
X2140Y2845
X2140Y3140
X2140Y3435
X1845Y3435
X1845Y3140
X2435Y3140
X2435Y3435
X2435Y2845
T02
X3370Y2750
X3770Y2890
X2890Y4390
X4015Y5190
X3920Y6328
X5990Y6265
X6453Y7515
X4953Y8578
X5328Y9140
X7995Y9135
X9015Y7515
X8453Y4578
X7703Y4578
X8390Y2890
X9078Y2578
X5703Y3890
X5203Y3890
X1390Y7265
X1828Y8953
X1140Y5453
X1140Y4953
T03
X9640Y9890
T04
X1640Y1140
X2703Y1140
X5140Y4953
X6203Y4953
X6640Y3640
X7640Y1140
X8703Y1140
X9640Y3240
X9640Y4040
X9203Y5890
X890Y9640
M30
