G75*
%MOIN*%
%OFA0B0*%
%FSLAX24Y24*%
%IPPOS*%
%LPD*%
%AMOC8*
5,1,8,0,0,1.08239X$1,22.5*
%
%ADD10R,0.0492X0.1890*%
%ADD11R,0.0100X0.0500*%
%ADD12C,0.0080*%
%ADD13R,0.0360X0.0360*%
%ADD14C,0.0607*%
%ADD15C,0.0240*%
%ADD16C,0.0360*%
%ADD17C,0.0120*%
%ADD18C,0.0160*%
%ADD19C,0.0100*%
D10*
X003136Y010275D03*
X006144Y010275D03*
D11*
X008890Y007140D03*
X002390Y007140D03*
D12*
X000380Y001341D02*
X000380Y000630D01*
X010900Y000630D01*
X010900Y001086D01*
X010860Y001057D01*
X010798Y001025D01*
X010731Y001003D01*
X010667Y000993D01*
X010667Y001700D01*
X010588Y001700D01*
X010588Y000993D01*
X010524Y001003D01*
X010457Y001025D01*
X010395Y001057D01*
X010338Y001098D01*
X010289Y001147D01*
X010248Y001204D01*
X010216Y001266D01*
X010195Y001332D01*
X010184Y001401D01*
X010184Y001700D01*
X010587Y001700D01*
X010587Y001780D01*
X010184Y001780D01*
X010184Y002079D01*
X010195Y002148D01*
X010216Y002214D01*
X010248Y002276D01*
X010289Y002333D01*
X010338Y002382D01*
X010395Y002423D01*
X010457Y002455D01*
X010524Y002477D01*
X010588Y002487D01*
X010588Y001780D01*
X010667Y001780D01*
X010667Y002487D01*
X010731Y002477D01*
X010798Y002455D01*
X010860Y002423D01*
X010900Y002394D01*
X010900Y007849D01*
X010877Y007794D01*
X010799Y007715D01*
X010696Y007673D01*
X010584Y007673D01*
X010481Y007715D01*
X010403Y007794D01*
X010360Y007897D01*
X010360Y008008D01*
X010403Y008111D01*
X010481Y008190D01*
X010523Y008207D01*
X010523Y010049D01*
X010465Y010106D01*
X010423Y010209D01*
X010423Y010321D01*
X010465Y010424D01*
X010523Y010481D01*
X010523Y010487D01*
X010465Y010544D01*
X010448Y010585D01*
X007856Y010585D01*
X007799Y010528D01*
X007696Y010485D01*
X007584Y010485D01*
X007481Y010528D01*
X007403Y010606D01*
X007377Y010544D01*
X007360Y010527D01*
X007360Y010231D01*
X007831Y009760D01*
X008731Y009760D01*
X009431Y009060D01*
X009560Y008931D01*
X009560Y008780D01*
X009673Y008780D01*
X009755Y008698D01*
X009755Y005582D01*
X009687Y005515D01*
X009687Y002414D01*
X009756Y002386D01*
X009870Y002272D01*
X009931Y002124D01*
X009931Y001356D01*
X009870Y001208D01*
X009756Y001094D01*
X009608Y001033D01*
X009447Y001033D01*
X009299Y001094D01*
X009185Y001208D01*
X009124Y001356D01*
X009124Y002124D01*
X009185Y002272D01*
X009299Y002386D01*
X009368Y002414D01*
X009368Y005500D01*
X008980Y005500D01*
X008980Y005342D01*
X008943Y005254D01*
X008876Y005187D01*
X008788Y005150D01*
X007792Y005150D01*
X007704Y005187D01*
X007637Y005254D01*
X007600Y005342D01*
X007600Y008938D01*
X007637Y009026D01*
X007704Y009093D01*
X007792Y009130D01*
X008739Y009130D01*
X008549Y009320D01*
X007649Y009320D01*
X007520Y009449D01*
X006920Y010049D01*
X006920Y010483D01*
X006878Y010483D01*
X006861Y010465D01*
X006758Y010423D01*
X006647Y010423D01*
X006544Y010465D01*
X006490Y010519D01*
X006490Y009289D01*
X006431Y009230D01*
X006081Y009230D01*
X006081Y009216D01*
X006044Y009128D01*
X005977Y009061D01*
X005889Y009024D01*
X003391Y009024D01*
X003303Y009061D01*
X003236Y009128D01*
X003199Y009216D01*
X003199Y009230D01*
X002849Y009230D01*
X002790Y009289D01*
X002790Y011150D01*
X000380Y011150D01*
X000380Y010776D01*
X000419Y010815D01*
X000522Y010857D01*
X000633Y010857D01*
X000736Y010815D01*
X000815Y010736D01*
X000857Y010633D01*
X000857Y010522D01*
X000815Y010419D01*
X000736Y010340D01*
X000633Y010298D01*
X000612Y010298D01*
X000612Y007952D01*
X000653Y008049D01*
X000731Y008127D01*
X000834Y008170D01*
X000946Y008170D01*
X001049Y008127D01*
X001127Y008049D01*
X001170Y007946D01*
X001170Y007865D01*
X001445Y007590D01*
X001445Y005840D01*
X001777Y005507D01*
X002474Y005507D01*
X002404Y005537D01*
X002337Y005604D01*
X002300Y005692D01*
X002300Y005750D01*
X001607Y005750D01*
X001525Y005832D01*
X001525Y008448D01*
X001607Y008530D01*
X002300Y008530D01*
X002300Y008588D01*
X002337Y008676D01*
X002404Y008743D01*
X002492Y008780D01*
X003488Y008780D01*
X003576Y008743D01*
X003643Y008676D01*
X003680Y008588D01*
X003680Y007069D01*
X003697Y007076D01*
X003898Y007277D01*
X004003Y007382D01*
X005402Y007382D01*
X005927Y006857D01*
X006008Y006857D01*
X006111Y006815D01*
X006178Y006748D01*
X006178Y007403D01*
X005267Y008314D01*
X005258Y008310D01*
X005147Y008310D01*
X005044Y008353D01*
X004965Y008431D01*
X004923Y008534D01*
X004923Y008646D01*
X004965Y008749D01*
X005044Y008827D01*
X005147Y008870D01*
X005258Y008870D01*
X005361Y008827D01*
X005440Y008749D01*
X005482Y008646D01*
X005482Y008534D01*
X005479Y008526D01*
X006477Y007527D01*
X006477Y006453D01*
X006390Y006365D01*
X006165Y006140D01*
X006165Y005353D01*
X006077Y005265D01*
X004165Y003353D01*
X004165Y002419D01*
X004244Y002386D01*
X004340Y002290D01*
X004340Y002666D01*
X004467Y003058D01*
X004467Y003058D01*
X004709Y003391D01*
X004709Y003391D01*
X005042Y003633D01*
X005042Y003633D01*
X005434Y003760D01*
X005846Y003760D01*
X006238Y003633D01*
X006238Y003633D01*
X006571Y003391D01*
X006571Y003391D01*
X006571Y003391D01*
X006813Y003058D01*
X006813Y003058D01*
X006940Y002666D01*
X006940Y002193D01*
X006973Y002272D01*
X007086Y002386D01*
X007235Y002447D01*
X007395Y002447D01*
X007544Y002386D01*
X007657Y002272D01*
X007719Y002124D01*
X007719Y001356D01*
X007657Y001208D01*
X007544Y001094D01*
X007395Y001033D01*
X007235Y001033D01*
X007086Y001094D01*
X006973Y001208D01*
X006926Y001319D01*
X006903Y001264D01*
X006836Y001197D01*
X006748Y001160D01*
X004532Y001160D01*
X004444Y001197D01*
X004379Y001261D01*
X004357Y001208D01*
X004244Y001094D01*
X004095Y001033D01*
X003935Y001033D01*
X003786Y001094D01*
X003673Y001208D01*
X003611Y001356D01*
X003611Y002124D01*
X003673Y002272D01*
X003786Y002386D01*
X003865Y002419D01*
X003865Y003477D01*
X005865Y005477D01*
X005865Y006265D01*
X005898Y006298D01*
X005897Y006298D01*
X005794Y006340D01*
X005715Y006419D01*
X005673Y006522D01*
X005673Y006603D01*
X005253Y007023D01*
X005091Y007023D01*
X005127Y006986D01*
X005170Y006883D01*
X005170Y006772D01*
X005127Y006669D01*
X005049Y006590D01*
X005040Y006587D01*
X005040Y005890D01*
X004952Y005803D01*
X004590Y005440D01*
X004590Y004378D01*
X004502Y004290D01*
X003102Y002890D01*
X003102Y002419D01*
X003181Y002386D01*
X003295Y002272D01*
X003356Y002124D01*
X003356Y001356D01*
X003295Y001208D01*
X003181Y001094D01*
X003033Y001033D01*
X002872Y001033D01*
X002724Y001094D01*
X002610Y001208D01*
X002549Y001356D01*
X002549Y002124D01*
X002610Y002272D01*
X002724Y002386D01*
X002803Y002419D01*
X002803Y003015D01*
X004290Y004502D01*
X004290Y005453D01*
X004227Y005390D01*
X004227Y004640D01*
X004140Y004553D01*
X002015Y002428D01*
X002015Y002419D01*
X002094Y002386D01*
X002207Y002272D01*
X002269Y002124D01*
X002269Y001356D01*
X002207Y001208D01*
X002094Y001094D01*
X001945Y001033D01*
X001785Y001033D01*
X001636Y001094D01*
X001523Y001208D01*
X001461Y001356D01*
X001461Y002124D01*
X001523Y002272D01*
X001636Y002386D01*
X001715Y002419D01*
X001715Y002552D01*
X003928Y004765D01*
X003928Y005485D01*
X003695Y005253D01*
X003590Y005148D01*
X001628Y005148D01*
X001190Y005585D01*
X001085Y005690D01*
X001085Y007440D01*
X000915Y007610D01*
X000834Y007610D01*
X000731Y007653D01*
X000653Y007731D01*
X000612Y007828D01*
X000612Y002412D01*
X000697Y002447D01*
X000858Y002447D01*
X001006Y002386D01*
X001120Y002272D01*
X001181Y002124D01*
X001181Y001356D01*
X001120Y001208D01*
X001006Y001094D01*
X000858Y001033D01*
X000697Y001033D01*
X000549Y001094D01*
X000435Y001208D01*
X000380Y001341D01*
X000380Y001331D02*
X000384Y001331D01*
X000380Y001252D02*
X000417Y001252D01*
X000380Y001174D02*
X000469Y001174D01*
X000547Y001095D02*
X000380Y001095D01*
X000380Y001017D02*
X010482Y001017D01*
X010588Y001017D02*
X010667Y001017D01*
X010667Y001095D02*
X010588Y001095D01*
X010588Y001174D02*
X010667Y001174D01*
X010667Y001252D02*
X010588Y001252D01*
X010588Y001331D02*
X010667Y001331D01*
X010667Y001409D02*
X010588Y001409D01*
X010588Y001488D02*
X010667Y001488D01*
X010667Y001566D02*
X010588Y001566D01*
X010588Y001645D02*
X010667Y001645D01*
X010587Y001723D02*
X009931Y001723D01*
X009931Y001645D02*
X010184Y001645D01*
X010184Y001566D02*
X009931Y001566D01*
X009931Y001488D02*
X010184Y001488D01*
X010184Y001409D02*
X009931Y001409D01*
X009921Y001331D02*
X010195Y001331D01*
X010223Y001252D02*
X009888Y001252D01*
X009836Y001174D02*
X010270Y001174D01*
X010342Y001095D02*
X009758Y001095D01*
X009297Y001095D02*
X008658Y001095D01*
X008656Y001094D02*
X008770Y001208D01*
X008831Y001356D01*
X008831Y002124D01*
X008770Y002272D01*
X008656Y002386D01*
X008508Y002447D01*
X008347Y002447D01*
X008199Y002386D01*
X008085Y002272D01*
X008024Y002124D01*
X008024Y001356D01*
X008085Y001208D01*
X008199Y001094D01*
X008347Y001033D01*
X008508Y001033D01*
X008656Y001094D01*
X008736Y001174D02*
X009219Y001174D01*
X009167Y001252D02*
X008788Y001252D01*
X008821Y001331D02*
X009134Y001331D01*
X009124Y001409D02*
X008831Y001409D01*
X008831Y001488D02*
X009124Y001488D01*
X009124Y001566D02*
X008831Y001566D01*
X008831Y001645D02*
X009124Y001645D01*
X009124Y001723D02*
X008831Y001723D01*
X008831Y001802D02*
X009124Y001802D01*
X009124Y001880D02*
X008831Y001880D01*
X008831Y001959D02*
X009124Y001959D01*
X009124Y002037D02*
X008831Y002037D01*
X008831Y002116D02*
X009124Y002116D01*
X009153Y002194D02*
X008802Y002194D01*
X008769Y002273D02*
X009186Y002273D01*
X009264Y002351D02*
X008691Y002351D01*
X008550Y002430D02*
X009368Y002430D01*
X009368Y002508D02*
X006940Y002508D01*
X006940Y002430D02*
X007192Y002430D01*
X007052Y002351D02*
X006940Y002351D01*
X006940Y002273D02*
X006973Y002273D01*
X006940Y002194D02*
X006940Y002194D01*
X006940Y002587D02*
X009368Y002587D01*
X009368Y002665D02*
X006940Y002665D01*
X006915Y002744D02*
X009368Y002744D01*
X009368Y002822D02*
X006889Y002822D01*
X006864Y002901D02*
X009368Y002901D01*
X009368Y002979D02*
X006838Y002979D01*
X006812Y003058D02*
X009368Y003058D01*
X009368Y003136D02*
X006755Y003136D01*
X006698Y003215D02*
X009368Y003215D01*
X009368Y003293D02*
X006641Y003293D01*
X006584Y003372D02*
X009368Y003372D01*
X009368Y003450D02*
X006488Y003450D01*
X006380Y003529D02*
X009368Y003529D01*
X009368Y003607D02*
X006272Y003607D01*
X006074Y003686D02*
X009368Y003686D01*
X009368Y003764D02*
X004577Y003764D01*
X004498Y003686D02*
X005206Y003686D01*
X005008Y003607D02*
X004420Y003607D01*
X004341Y003529D02*
X004900Y003529D01*
X004792Y003450D02*
X004263Y003450D01*
X004184Y003372D02*
X004696Y003372D01*
X004639Y003293D02*
X004165Y003293D01*
X004165Y003215D02*
X004582Y003215D01*
X004525Y003136D02*
X004165Y003136D01*
X004165Y003058D02*
X004468Y003058D01*
X004442Y002979D02*
X004165Y002979D01*
X004165Y002901D02*
X004416Y002901D01*
X004391Y002822D02*
X004165Y002822D01*
X004165Y002744D02*
X004365Y002744D01*
X004340Y002665D02*
X004165Y002665D01*
X004165Y002587D02*
X004340Y002587D01*
X004340Y002508D02*
X004165Y002508D01*
X004165Y002430D02*
X004340Y002430D01*
X004340Y002351D02*
X004278Y002351D01*
X003865Y002430D02*
X003102Y002430D01*
X003102Y002508D02*
X003865Y002508D01*
X003865Y002587D02*
X003102Y002587D01*
X003102Y002665D02*
X003865Y002665D01*
X003865Y002744D02*
X003102Y002744D01*
X003102Y002822D02*
X003865Y002822D01*
X003865Y002901D02*
X003113Y002901D01*
X003192Y002979D02*
X003865Y002979D01*
X003865Y003058D02*
X003270Y003058D01*
X003349Y003136D02*
X003865Y003136D01*
X003865Y003215D02*
X003427Y003215D01*
X003506Y003293D02*
X003865Y003293D01*
X003865Y003372D02*
X003584Y003372D01*
X003663Y003450D02*
X003865Y003450D01*
X003917Y003529D02*
X003741Y003529D01*
X003820Y003607D02*
X003995Y003607D01*
X004074Y003686D02*
X003898Y003686D01*
X003977Y003764D02*
X004152Y003764D01*
X004231Y003843D02*
X004055Y003843D01*
X004134Y003921D02*
X004309Y003921D01*
X004388Y004000D02*
X004212Y004000D01*
X004291Y004078D02*
X004466Y004078D01*
X004545Y004157D02*
X004369Y004157D01*
X004448Y004235D02*
X004623Y004235D01*
X004702Y004314D02*
X004526Y004314D01*
X004590Y004392D02*
X004780Y004392D01*
X004859Y004471D02*
X004590Y004471D01*
X004590Y004549D02*
X004937Y004549D01*
X005016Y004628D02*
X004590Y004628D01*
X004590Y004706D02*
X005094Y004706D01*
X005173Y004785D02*
X004590Y004785D01*
X004590Y004863D02*
X005251Y004863D01*
X005330Y004942D02*
X004590Y004942D01*
X004590Y005020D02*
X005408Y005020D01*
X005487Y005099D02*
X004590Y005099D01*
X004590Y005177D02*
X005565Y005177D01*
X005644Y005256D02*
X004590Y005256D01*
X004590Y005334D02*
X005722Y005334D01*
X005801Y005413D02*
X004590Y005413D01*
X004641Y005491D02*
X005865Y005491D01*
X005865Y005570D02*
X004720Y005570D01*
X004798Y005648D02*
X005865Y005648D01*
X005865Y005727D02*
X004877Y005727D01*
X004955Y005805D02*
X005865Y005805D01*
X005865Y005884D02*
X005034Y005884D01*
X005040Y005962D02*
X005865Y005962D01*
X005865Y006041D02*
X005040Y006041D01*
X005040Y006119D02*
X005865Y006119D01*
X005865Y006198D02*
X005040Y006198D01*
X005040Y006276D02*
X005877Y006276D01*
X005779Y006355D02*
X005040Y006355D01*
X005040Y006433D02*
X005709Y006433D01*
X005677Y006512D02*
X005040Y006512D01*
X005049Y006590D02*
X005673Y006590D01*
X005606Y006669D02*
X005127Y006669D01*
X005160Y006747D02*
X005528Y006747D01*
X005449Y006826D02*
X005170Y006826D01*
X005161Y006904D02*
X005371Y006904D01*
X005292Y006983D02*
X005129Y006983D01*
X005488Y007297D02*
X006178Y007297D01*
X006178Y007219D02*
X005566Y007219D01*
X005645Y007140D02*
X006178Y007140D01*
X006178Y007061D02*
X005723Y007061D01*
X005802Y006983D02*
X006178Y006983D01*
X006178Y006904D02*
X005880Y006904D01*
X006084Y006826D02*
X006178Y006826D01*
X006477Y006826D02*
X007600Y006826D01*
X007600Y006904D02*
X006477Y006904D01*
X006477Y006983D02*
X007600Y006983D01*
X007600Y007061D02*
X006477Y007061D01*
X006477Y007140D02*
X007600Y007140D01*
X007600Y007219D02*
X006477Y007219D01*
X006477Y007297D02*
X007600Y007297D01*
X007600Y007376D02*
X006477Y007376D01*
X006477Y007454D02*
X007600Y007454D01*
X007600Y007533D02*
X006472Y007533D01*
X006394Y007611D02*
X007600Y007611D01*
X007600Y007690D02*
X006315Y007690D01*
X006237Y007768D02*
X007600Y007768D01*
X007600Y007847D02*
X006158Y007847D01*
X006080Y007925D02*
X007600Y007925D01*
X007600Y008004D02*
X006001Y008004D01*
X005923Y008082D02*
X007600Y008082D01*
X007600Y008161D02*
X005844Y008161D01*
X005766Y008239D02*
X007600Y008239D01*
X007600Y008318D02*
X005687Y008318D01*
X005609Y008396D02*
X007600Y008396D01*
X007600Y008475D02*
X005530Y008475D01*
X005482Y008553D02*
X007600Y008553D01*
X007600Y008632D02*
X005482Y008632D01*
X005456Y008710D02*
X007600Y008710D01*
X007600Y008789D02*
X005400Y008789D01*
X005265Y008867D02*
X007600Y008867D01*
X007603Y008946D02*
X000612Y008946D01*
X000612Y009024D02*
X007636Y009024D01*
X007726Y009103D02*
X006019Y009103D01*
X006066Y009181D02*
X008688Y009181D01*
X008609Y009260D02*
X006461Y009260D01*
X006490Y009338D02*
X007631Y009338D01*
X007552Y009417D02*
X006490Y009417D01*
X006490Y009495D02*
X007474Y009495D01*
X007395Y009574D02*
X006490Y009574D01*
X006490Y009652D02*
X007317Y009652D01*
X007238Y009731D02*
X006490Y009731D01*
X006490Y009809D02*
X007160Y009809D01*
X007081Y009888D02*
X006490Y009888D01*
X006490Y009966D02*
X007003Y009966D01*
X006924Y010045D02*
X006490Y010045D01*
X006490Y010123D02*
X006920Y010123D01*
X006920Y010202D02*
X006490Y010202D01*
X006490Y010280D02*
X006920Y010280D01*
X006920Y010359D02*
X006490Y010359D01*
X006490Y010437D02*
X006612Y010437D01*
X006494Y010516D02*
X006490Y010516D01*
X006793Y010437D02*
X006920Y010437D01*
X007360Y010437D02*
X010479Y010437D01*
X010494Y010516D02*
X007769Y010516D01*
X007511Y010516D02*
X007360Y010516D01*
X007398Y010594D02*
X007415Y010594D01*
X007360Y010359D02*
X010438Y010359D01*
X010423Y010280D02*
X007360Y010280D01*
X007390Y010202D02*
X010426Y010202D01*
X010458Y010123D02*
X007468Y010123D01*
X007547Y010045D02*
X010523Y010045D01*
X010523Y009966D02*
X007625Y009966D01*
X007704Y009888D02*
X010523Y009888D01*
X010523Y009809D02*
X007782Y009809D01*
X008761Y009731D02*
X010523Y009731D01*
X010523Y009652D02*
X008839Y009652D01*
X008918Y009574D02*
X010523Y009574D01*
X010523Y009495D02*
X008996Y009495D01*
X009075Y009417D02*
X010523Y009417D01*
X010523Y009338D02*
X009153Y009338D01*
X009232Y009260D02*
X010523Y009260D01*
X010523Y009181D02*
X009310Y009181D01*
X009389Y009103D02*
X010523Y009103D01*
X010523Y009024D02*
X009467Y009024D01*
X009546Y008946D02*
X010523Y008946D01*
X010523Y008867D02*
X009560Y008867D01*
X009560Y008789D02*
X010523Y008789D01*
X010523Y008710D02*
X009743Y008710D01*
X009755Y008632D02*
X010523Y008632D01*
X010523Y008553D02*
X009755Y008553D01*
X009755Y008475D02*
X010523Y008475D01*
X010523Y008396D02*
X009755Y008396D01*
X009755Y008318D02*
X010523Y008318D01*
X010523Y008239D02*
X009755Y008239D01*
X009755Y008161D02*
X010452Y008161D01*
X010391Y008082D02*
X009755Y008082D01*
X009755Y008004D02*
X010360Y008004D01*
X010360Y007925D02*
X009755Y007925D01*
X009755Y007847D02*
X010381Y007847D01*
X010429Y007768D02*
X009755Y007768D01*
X009755Y007690D02*
X010543Y007690D01*
X010737Y007690D02*
X010900Y007690D01*
X010900Y007768D02*
X010851Y007768D01*
X010899Y007847D02*
X010900Y007847D01*
X010900Y007611D02*
X009755Y007611D01*
X009755Y007533D02*
X010900Y007533D01*
X010900Y007454D02*
X009755Y007454D01*
X009755Y007376D02*
X010900Y007376D01*
X010900Y007297D02*
X009755Y007297D01*
X009755Y007219D02*
X010900Y007219D01*
X010900Y007140D02*
X009755Y007140D01*
X009755Y007061D02*
X010900Y007061D01*
X010900Y006983D02*
X009755Y006983D01*
X009755Y006904D02*
X010900Y006904D01*
X010900Y006826D02*
X009755Y006826D01*
X009755Y006747D02*
X010900Y006747D01*
X010900Y006669D02*
X009755Y006669D01*
X009755Y006590D02*
X010900Y006590D01*
X010900Y006512D02*
X009755Y006512D01*
X009755Y006433D02*
X010900Y006433D01*
X010900Y006355D02*
X009755Y006355D01*
X009755Y006276D02*
X010900Y006276D01*
X010900Y006198D02*
X009755Y006198D01*
X009755Y006119D02*
X010900Y006119D01*
X010900Y006041D02*
X009755Y006041D01*
X009755Y005962D02*
X010900Y005962D01*
X010900Y005884D02*
X009755Y005884D01*
X009755Y005805D02*
X010900Y005805D01*
X010900Y005727D02*
X009755Y005727D01*
X009755Y005648D02*
X010900Y005648D01*
X010900Y005570D02*
X009743Y005570D01*
X009687Y005491D02*
X010900Y005491D01*
X010900Y005413D02*
X009687Y005413D01*
X009687Y005334D02*
X010900Y005334D01*
X010900Y005256D02*
X009687Y005256D01*
X009687Y005177D02*
X010900Y005177D01*
X010900Y005099D02*
X009687Y005099D01*
X009687Y005020D02*
X010900Y005020D01*
X010900Y004942D02*
X009687Y004942D01*
X009687Y004863D02*
X010900Y004863D01*
X010900Y004785D02*
X009687Y004785D01*
X009687Y004706D02*
X010900Y004706D01*
X010900Y004628D02*
X009687Y004628D01*
X009687Y004549D02*
X010900Y004549D01*
X010900Y004471D02*
X009687Y004471D01*
X009687Y004392D02*
X010900Y004392D01*
X010900Y004314D02*
X009687Y004314D01*
X009687Y004235D02*
X010900Y004235D01*
X010900Y004157D02*
X009687Y004157D01*
X009687Y004078D02*
X010900Y004078D01*
X010900Y004000D02*
X009687Y004000D01*
X009687Y003921D02*
X010900Y003921D01*
X010900Y003843D02*
X009687Y003843D01*
X009687Y003764D02*
X010900Y003764D01*
X010900Y003686D02*
X009687Y003686D01*
X009687Y003607D02*
X010900Y003607D01*
X010900Y003529D02*
X009687Y003529D01*
X009687Y003450D02*
X010900Y003450D01*
X010900Y003372D02*
X009687Y003372D01*
X009687Y003293D02*
X010900Y003293D01*
X010900Y003215D02*
X009687Y003215D01*
X009687Y003136D02*
X010900Y003136D01*
X010900Y003058D02*
X009687Y003058D01*
X009687Y002979D02*
X010900Y002979D01*
X010900Y002901D02*
X009687Y002901D01*
X009687Y002822D02*
X010900Y002822D01*
X010900Y002744D02*
X009687Y002744D01*
X009687Y002665D02*
X010900Y002665D01*
X010900Y002587D02*
X009687Y002587D01*
X009687Y002508D02*
X010900Y002508D01*
X010900Y002430D02*
X010847Y002430D01*
X010667Y002430D02*
X010588Y002430D01*
X010588Y002351D02*
X010667Y002351D01*
X010667Y002273D02*
X010588Y002273D01*
X010588Y002194D02*
X010667Y002194D01*
X010667Y002116D02*
X010588Y002116D01*
X010588Y002037D02*
X010667Y002037D01*
X010667Y001959D02*
X010588Y001959D01*
X010588Y001880D02*
X010667Y001880D01*
X010667Y001802D02*
X010588Y001802D01*
X010184Y001802D02*
X009931Y001802D01*
X009931Y001880D02*
X010184Y001880D01*
X010184Y001959D02*
X009931Y001959D01*
X009931Y002037D02*
X010184Y002037D01*
X010190Y002116D02*
X009931Y002116D01*
X009902Y002194D02*
X010210Y002194D01*
X010246Y002273D02*
X009869Y002273D01*
X009791Y002351D02*
X010308Y002351D01*
X010408Y002430D02*
X009687Y002430D01*
X008305Y002430D02*
X007438Y002430D01*
X007578Y002351D02*
X008164Y002351D01*
X008086Y002273D02*
X007657Y002273D01*
X007690Y002194D02*
X008053Y002194D01*
X008024Y002116D02*
X007719Y002116D01*
X007719Y002037D02*
X008024Y002037D01*
X008024Y001959D02*
X007719Y001959D01*
X007719Y001880D02*
X008024Y001880D01*
X008024Y001802D02*
X007719Y001802D01*
X007719Y001723D02*
X008024Y001723D01*
X008024Y001645D02*
X007719Y001645D01*
X007719Y001566D02*
X008024Y001566D01*
X008024Y001488D02*
X007719Y001488D01*
X007719Y001409D02*
X008024Y001409D01*
X008034Y001331D02*
X007708Y001331D01*
X007676Y001252D02*
X008067Y001252D01*
X008119Y001174D02*
X007624Y001174D01*
X007545Y001095D02*
X008197Y001095D01*
X007085Y001095D02*
X004245Y001095D01*
X004324Y001174D02*
X004499Y001174D01*
X004388Y001252D02*
X004376Y001252D01*
X003785Y001095D02*
X003183Y001095D01*
X003261Y001174D02*
X003706Y001174D01*
X003654Y001252D02*
X003313Y001252D01*
X003346Y001331D02*
X003622Y001331D01*
X003611Y001409D02*
X003356Y001409D01*
X003356Y001488D02*
X003611Y001488D01*
X003611Y001566D02*
X003356Y001566D01*
X003356Y001645D02*
X003611Y001645D01*
X003611Y001723D02*
X003356Y001723D01*
X003356Y001802D02*
X003611Y001802D01*
X003611Y001880D02*
X003356Y001880D01*
X003356Y001959D02*
X003611Y001959D01*
X003611Y002037D02*
X003356Y002037D01*
X003356Y002116D02*
X003611Y002116D01*
X003640Y002194D02*
X003327Y002194D01*
X003294Y002273D02*
X003673Y002273D01*
X003752Y002351D02*
X003216Y002351D01*
X002803Y002430D02*
X002017Y002430D01*
X002096Y002508D02*
X002803Y002508D01*
X002803Y002587D02*
X002174Y002587D01*
X002253Y002665D02*
X002803Y002665D01*
X002803Y002744D02*
X002331Y002744D01*
X002410Y002822D02*
X002803Y002822D01*
X002803Y002901D02*
X002488Y002901D01*
X002567Y002979D02*
X002803Y002979D01*
X002846Y003058D02*
X002645Y003058D01*
X002724Y003136D02*
X002924Y003136D01*
X003003Y003215D02*
X002802Y003215D01*
X002881Y003293D02*
X003081Y003293D01*
X003160Y003372D02*
X002959Y003372D01*
X003038Y003450D02*
X003238Y003450D01*
X003317Y003529D02*
X003116Y003529D01*
X003195Y003607D02*
X003395Y003607D01*
X003474Y003686D02*
X003273Y003686D01*
X003352Y003764D02*
X003552Y003764D01*
X003631Y003843D02*
X003430Y003843D01*
X003509Y003921D02*
X003709Y003921D01*
X003788Y004000D02*
X003587Y004000D01*
X003666Y004078D02*
X003866Y004078D01*
X003945Y004157D02*
X003744Y004157D01*
X003823Y004235D02*
X004023Y004235D01*
X004102Y004314D02*
X003901Y004314D01*
X003980Y004392D02*
X004180Y004392D01*
X004259Y004471D02*
X004058Y004471D01*
X004137Y004549D02*
X004290Y004549D01*
X004290Y004628D02*
X004215Y004628D01*
X004227Y004706D02*
X004290Y004706D01*
X004290Y004785D02*
X004227Y004785D01*
X004227Y004863D02*
X004290Y004863D01*
X004290Y004942D02*
X004227Y004942D01*
X004227Y005020D02*
X004290Y005020D01*
X004290Y005099D02*
X004227Y005099D01*
X004227Y005177D02*
X004290Y005177D01*
X004290Y005256D02*
X004227Y005256D01*
X004227Y005334D02*
X004290Y005334D01*
X004290Y005413D02*
X004250Y005413D01*
X003928Y005413D02*
X003855Y005413D01*
X003928Y005334D02*
X003777Y005334D01*
X003698Y005256D02*
X003928Y005256D01*
X003928Y005177D02*
X003620Y005177D01*
X003928Y005099D02*
X000612Y005099D01*
X000612Y005177D02*
X001598Y005177D01*
X001519Y005256D02*
X000612Y005256D01*
X000612Y005334D02*
X001441Y005334D01*
X001362Y005413D02*
X000612Y005413D01*
X000612Y005491D02*
X001284Y005491D01*
X001205Y005570D02*
X000612Y005570D01*
X000612Y005648D02*
X001127Y005648D01*
X001085Y005727D02*
X000612Y005727D01*
X000612Y005805D02*
X001085Y005805D01*
X001085Y005884D02*
X000612Y005884D01*
X000612Y005962D02*
X001085Y005962D01*
X001085Y006041D02*
X000612Y006041D01*
X000612Y006119D02*
X001085Y006119D01*
X001085Y006198D02*
X000612Y006198D01*
X000612Y006276D02*
X001085Y006276D01*
X001085Y006355D02*
X000612Y006355D01*
X000612Y006433D02*
X001085Y006433D01*
X001085Y006512D02*
X000612Y006512D01*
X000612Y006590D02*
X001085Y006590D01*
X001085Y006669D02*
X000612Y006669D01*
X000612Y006747D02*
X001085Y006747D01*
X001085Y006826D02*
X000612Y006826D01*
X000612Y006904D02*
X001085Y006904D01*
X001085Y006983D02*
X000612Y006983D01*
X000612Y007061D02*
X001085Y007061D01*
X001085Y007140D02*
X000612Y007140D01*
X000612Y007219D02*
X001085Y007219D01*
X001085Y007297D02*
X000612Y007297D01*
X000612Y007376D02*
X001085Y007376D01*
X001071Y007454D02*
X000612Y007454D01*
X000612Y007533D02*
X000993Y007533D01*
X000832Y007611D02*
X000612Y007611D01*
X000612Y007690D02*
X000695Y007690D01*
X000637Y007768D02*
X000612Y007768D01*
X000612Y008004D02*
X000634Y008004D01*
X000612Y008082D02*
X000686Y008082D01*
X000612Y008161D02*
X000811Y008161D01*
X000969Y008161D02*
X001525Y008161D01*
X001525Y008239D02*
X000612Y008239D01*
X000612Y008318D02*
X001525Y008318D01*
X001525Y008396D02*
X000612Y008396D01*
X000612Y008475D02*
X001552Y008475D01*
X001665Y008390D02*
X001665Y005890D01*
X003015Y005890D01*
X003015Y008390D01*
X001665Y008390D01*
X001665Y008318D02*
X003015Y008318D01*
X003015Y008239D02*
X001665Y008239D01*
X001665Y008161D02*
X003015Y008161D01*
X003015Y008082D02*
X001665Y008082D01*
X001665Y008004D02*
X003015Y008004D01*
X003015Y007925D02*
X001665Y007925D01*
X001665Y007847D02*
X003015Y007847D01*
X003015Y007768D02*
X001665Y007768D01*
X001665Y007690D02*
X003015Y007690D01*
X003015Y007611D02*
X001665Y007611D01*
X001665Y007533D02*
X003015Y007533D01*
X003015Y007454D02*
X001665Y007454D01*
X001665Y007376D02*
X003015Y007376D01*
X003015Y007297D02*
X001665Y007297D01*
X001665Y007219D02*
X003015Y007219D01*
X003015Y007140D02*
X001665Y007140D01*
X001665Y007061D02*
X003015Y007061D01*
X003015Y006983D02*
X001665Y006983D01*
X001665Y006904D02*
X003015Y006904D01*
X003015Y006826D02*
X001665Y006826D01*
X001665Y006747D02*
X003015Y006747D01*
X003015Y006669D02*
X001665Y006669D01*
X001665Y006590D02*
X003015Y006590D01*
X003015Y006512D02*
X001665Y006512D01*
X001665Y006433D02*
X003015Y006433D01*
X003015Y006355D02*
X001665Y006355D01*
X001665Y006276D02*
X003015Y006276D01*
X003015Y006198D02*
X001665Y006198D01*
X001665Y006119D02*
X003015Y006119D01*
X003015Y006041D02*
X001665Y006041D01*
X001665Y005962D02*
X003015Y005962D01*
X002371Y005570D02*
X001715Y005570D01*
X001636Y005648D02*
X002318Y005648D01*
X002300Y005727D02*
X001558Y005727D01*
X001552Y005805D02*
X001479Y005805D01*
X001445Y005884D02*
X001525Y005884D01*
X001525Y005962D02*
X001445Y005962D01*
X001445Y006041D02*
X001525Y006041D01*
X001525Y006119D02*
X001445Y006119D01*
X001445Y006198D02*
X001525Y006198D01*
X001525Y006276D02*
X001445Y006276D01*
X001445Y006355D02*
X001525Y006355D01*
X001525Y006433D02*
X001445Y006433D01*
X001445Y006512D02*
X001525Y006512D01*
X001525Y006590D02*
X001445Y006590D01*
X001445Y006669D02*
X001525Y006669D01*
X001525Y006747D02*
X001445Y006747D01*
X001445Y006826D02*
X001525Y006826D01*
X001525Y006904D02*
X001445Y006904D01*
X001445Y006983D02*
X001525Y006983D01*
X001525Y007061D02*
X001445Y007061D01*
X001445Y007140D02*
X001525Y007140D01*
X001525Y007219D02*
X001445Y007219D01*
X001445Y007297D02*
X001525Y007297D01*
X001525Y007376D02*
X001445Y007376D01*
X001445Y007454D02*
X001525Y007454D01*
X001525Y007533D02*
X001445Y007533D01*
X001424Y007611D02*
X001525Y007611D01*
X001525Y007690D02*
X001345Y007690D01*
X001267Y007768D02*
X001525Y007768D01*
X001525Y007847D02*
X001188Y007847D01*
X001170Y007925D02*
X001525Y007925D01*
X001525Y008004D02*
X001146Y008004D01*
X001094Y008082D02*
X001525Y008082D01*
X002300Y008553D02*
X000612Y008553D01*
X000612Y008632D02*
X002318Y008632D01*
X002371Y008710D02*
X000612Y008710D01*
X000612Y008789D02*
X005005Y008789D01*
X004949Y008710D02*
X003609Y008710D01*
X003662Y008632D02*
X004923Y008632D01*
X004923Y008553D02*
X003680Y008553D01*
X003680Y008475D02*
X004947Y008475D01*
X005001Y008396D02*
X003680Y008396D01*
X003680Y008318D02*
X005129Y008318D01*
X005341Y008239D02*
X003680Y008239D01*
X003680Y008161D02*
X005420Y008161D01*
X005498Y008082D02*
X003680Y008082D01*
X003680Y008004D02*
X005577Y008004D01*
X005655Y007925D02*
X003680Y007925D01*
X003680Y007847D02*
X005734Y007847D01*
X005812Y007768D02*
X003680Y007768D01*
X003680Y007690D02*
X005891Y007690D01*
X005969Y007611D02*
X003680Y007611D01*
X003680Y007533D02*
X006048Y007533D01*
X006126Y007454D02*
X003680Y007454D01*
X003680Y007376D02*
X003996Y007376D01*
X003917Y007297D02*
X003680Y007297D01*
X003680Y007219D02*
X003839Y007219D01*
X003760Y007140D02*
X003680Y007140D01*
X002390Y007140D02*
X001940Y007140D01*
X000612Y008867D02*
X005140Y008867D01*
X005409Y007376D02*
X006178Y007376D01*
X006477Y006747D02*
X007600Y006747D01*
X007600Y006669D02*
X006477Y006669D01*
X006477Y006590D02*
X007600Y006590D01*
X007600Y006512D02*
X006477Y006512D01*
X006458Y006433D02*
X007600Y006433D01*
X007600Y006355D02*
X006380Y006355D01*
X006301Y006276D02*
X007600Y006276D01*
X007600Y006198D02*
X006223Y006198D01*
X006165Y006119D02*
X007600Y006119D01*
X007600Y006041D02*
X006165Y006041D01*
X006165Y005962D02*
X007600Y005962D01*
X007600Y005884D02*
X006165Y005884D01*
X006165Y005805D02*
X007600Y005805D01*
X007600Y005727D02*
X006165Y005727D01*
X006165Y005648D02*
X007600Y005648D01*
X007600Y005570D02*
X006165Y005570D01*
X006165Y005491D02*
X007600Y005491D01*
X007600Y005413D02*
X006165Y005413D01*
X006147Y005334D02*
X007603Y005334D01*
X007636Y005256D02*
X006068Y005256D01*
X005990Y005177D02*
X007726Y005177D01*
X008265Y005640D02*
X009615Y005640D01*
X009615Y008640D01*
X008265Y008640D01*
X008265Y005640D01*
X008265Y005648D02*
X009615Y005648D01*
X009615Y005727D02*
X008265Y005727D01*
X008265Y005805D02*
X009615Y005805D01*
X009615Y005884D02*
X008265Y005884D01*
X008265Y005962D02*
X009615Y005962D01*
X009615Y006041D02*
X008265Y006041D01*
X008265Y006119D02*
X009615Y006119D01*
X009615Y006198D02*
X008265Y006198D01*
X008265Y006276D02*
X009615Y006276D01*
X009615Y006355D02*
X008265Y006355D01*
X008265Y006433D02*
X009615Y006433D01*
X009615Y006512D02*
X008265Y006512D01*
X008265Y006590D02*
X009615Y006590D01*
X009615Y006669D02*
X008265Y006669D01*
X008265Y006747D02*
X009615Y006747D01*
X009615Y006826D02*
X008265Y006826D01*
X008265Y006904D02*
X009615Y006904D01*
X009615Y006983D02*
X008265Y006983D01*
X008265Y007061D02*
X009615Y007061D01*
X009615Y007140D02*
X008265Y007140D01*
X008265Y007219D02*
X009615Y007219D01*
X009615Y007297D02*
X008265Y007297D01*
X008265Y007376D02*
X009615Y007376D01*
X009615Y007454D02*
X008265Y007454D01*
X008265Y007533D02*
X009615Y007533D01*
X009615Y007611D02*
X008265Y007611D01*
X008265Y007690D02*
X009615Y007690D01*
X009615Y007768D02*
X008265Y007768D01*
X008265Y007847D02*
X009615Y007847D01*
X009615Y007925D02*
X008265Y007925D01*
X008265Y008004D02*
X009615Y008004D01*
X009615Y008082D02*
X008265Y008082D01*
X008265Y008161D02*
X009615Y008161D01*
X009615Y008239D02*
X008265Y008239D01*
X008265Y008318D02*
X009615Y008318D01*
X009615Y008396D02*
X008265Y008396D01*
X008265Y008475D02*
X009615Y008475D01*
X009615Y008553D02*
X008265Y008553D01*
X008265Y008632D02*
X009615Y008632D01*
X009368Y005491D02*
X008980Y005491D01*
X008980Y005413D02*
X009368Y005413D01*
X009368Y005334D02*
X008977Y005334D01*
X008944Y005256D02*
X009368Y005256D01*
X009368Y005177D02*
X008854Y005177D01*
X009368Y005099D02*
X005911Y005099D01*
X005833Y005020D02*
X009368Y005020D01*
X009368Y004942D02*
X005754Y004942D01*
X005676Y004863D02*
X009368Y004863D01*
X009368Y004785D02*
X005597Y004785D01*
X005519Y004706D02*
X009368Y004706D01*
X009368Y004628D02*
X005440Y004628D01*
X005362Y004549D02*
X009368Y004549D01*
X009368Y004471D02*
X005283Y004471D01*
X005205Y004392D02*
X009368Y004392D01*
X009368Y004314D02*
X005126Y004314D01*
X005048Y004235D02*
X009368Y004235D01*
X009368Y004157D02*
X004969Y004157D01*
X004891Y004078D02*
X009368Y004078D01*
X009368Y004000D02*
X004812Y004000D01*
X004734Y003921D02*
X009368Y003921D01*
X009368Y003843D02*
X004655Y003843D01*
X003869Y004706D02*
X000612Y004706D01*
X000612Y004628D02*
X003791Y004628D01*
X003712Y004549D02*
X000612Y004549D01*
X000612Y004471D02*
X003634Y004471D01*
X003555Y004392D02*
X000612Y004392D01*
X000612Y004314D02*
X003477Y004314D01*
X003398Y004235D02*
X000612Y004235D01*
X000612Y004157D02*
X003320Y004157D01*
X003241Y004078D02*
X000612Y004078D01*
X000612Y004000D02*
X003163Y004000D01*
X003084Y003921D02*
X000612Y003921D01*
X000612Y003843D02*
X003006Y003843D01*
X002927Y003764D02*
X000612Y003764D01*
X000612Y003686D02*
X002849Y003686D01*
X002770Y003607D02*
X000612Y003607D01*
X000612Y003529D02*
X002692Y003529D01*
X002613Y003450D02*
X000612Y003450D01*
X000612Y003372D02*
X002535Y003372D01*
X002456Y003293D02*
X000612Y003293D01*
X000612Y003215D02*
X002378Y003215D01*
X002299Y003136D02*
X000612Y003136D01*
X000612Y003058D02*
X002221Y003058D01*
X002142Y002979D02*
X000612Y002979D01*
X000612Y002901D02*
X002064Y002901D01*
X001985Y002822D02*
X000612Y002822D01*
X000612Y002744D02*
X001907Y002744D01*
X001828Y002665D02*
X000612Y002665D01*
X000612Y002587D02*
X001750Y002587D01*
X001715Y002508D02*
X000612Y002508D01*
X000612Y002430D02*
X000655Y002430D01*
X000900Y002430D02*
X001715Y002430D01*
X001602Y002351D02*
X001041Y002351D01*
X001119Y002273D02*
X001523Y002273D01*
X001490Y002194D02*
X001152Y002194D01*
X001181Y002116D02*
X001461Y002116D01*
X001461Y002037D02*
X001181Y002037D01*
X001181Y001959D02*
X001461Y001959D01*
X001461Y001880D02*
X001181Y001880D01*
X001181Y001802D02*
X001461Y001802D01*
X001461Y001723D02*
X001181Y001723D01*
X001181Y001645D02*
X001461Y001645D01*
X001461Y001566D02*
X001181Y001566D01*
X001181Y001488D02*
X001461Y001488D01*
X001461Y001409D02*
X001181Y001409D01*
X001171Y001331D02*
X001472Y001331D01*
X001504Y001252D02*
X001138Y001252D01*
X001086Y001174D02*
X001556Y001174D01*
X001635Y001095D02*
X001008Y001095D01*
X000380Y000938D02*
X010900Y000938D01*
X010900Y000860D02*
X000380Y000860D01*
X000380Y000781D02*
X010900Y000781D01*
X010900Y000703D02*
X000380Y000703D01*
X002095Y001095D02*
X002722Y001095D01*
X002644Y001174D02*
X002174Y001174D01*
X002226Y001252D02*
X002592Y001252D01*
X002559Y001331D02*
X002258Y001331D01*
X002269Y001409D02*
X002549Y001409D01*
X002549Y001488D02*
X002269Y001488D01*
X002269Y001566D02*
X002549Y001566D01*
X002549Y001645D02*
X002269Y001645D01*
X002269Y001723D02*
X002549Y001723D01*
X002549Y001802D02*
X002269Y001802D01*
X002269Y001880D02*
X002549Y001880D01*
X002549Y001959D02*
X002269Y001959D01*
X002269Y002037D02*
X002549Y002037D01*
X002549Y002116D02*
X002269Y002116D01*
X002240Y002194D02*
X002578Y002194D01*
X002611Y002273D02*
X002207Y002273D01*
X002128Y002351D02*
X002689Y002351D01*
X003928Y004785D02*
X000612Y004785D01*
X000612Y004863D02*
X003928Y004863D01*
X003928Y004942D02*
X000612Y004942D01*
X000612Y005020D02*
X003928Y005020D01*
X006892Y001252D02*
X006954Y001252D01*
X007006Y001174D02*
X006781Y001174D01*
X010773Y001017D02*
X010900Y001017D01*
X003261Y009103D02*
X000612Y009103D01*
X000612Y009181D02*
X003214Y009181D01*
X002819Y009260D02*
X000612Y009260D01*
X000612Y009338D02*
X002790Y009338D01*
X002790Y009417D02*
X000612Y009417D01*
X000612Y009495D02*
X002790Y009495D01*
X002790Y009574D02*
X000612Y009574D01*
X000612Y009652D02*
X002790Y009652D01*
X002790Y009731D02*
X000612Y009731D01*
X000612Y009809D02*
X002790Y009809D01*
X002790Y009888D02*
X000612Y009888D01*
X000612Y009966D02*
X002790Y009966D01*
X002790Y010045D02*
X000612Y010045D01*
X000612Y010123D02*
X002790Y010123D01*
X002790Y010202D02*
X000612Y010202D01*
X000612Y010280D02*
X002790Y010280D01*
X002790Y010359D02*
X000754Y010359D01*
X000822Y010437D02*
X002790Y010437D01*
X002790Y010516D02*
X000855Y010516D01*
X000857Y010594D02*
X002790Y010594D01*
X002790Y010673D02*
X000841Y010673D01*
X000800Y010751D02*
X002790Y010751D01*
X002790Y010830D02*
X000701Y010830D01*
X000454Y010830D02*
X000380Y010830D01*
X000380Y010908D02*
X002790Y010908D01*
X002790Y010987D02*
X000380Y010987D01*
X000380Y011065D02*
X002790Y011065D01*
X002790Y011144D02*
X000380Y011144D01*
D13*
X001940Y008140D03*
X001940Y007640D03*
X001940Y007140D03*
X001940Y006640D03*
X001940Y006140D03*
X009340Y005890D03*
X009340Y006390D03*
X009340Y006890D03*
X009340Y007390D03*
X009340Y007890D03*
X009340Y008390D03*
D14*
X009528Y002044D02*
X009528Y001436D01*
X010628Y001436D02*
X010628Y002044D01*
X008428Y002044D02*
X008428Y001436D01*
X007315Y001436D02*
X007315Y002044D01*
X004015Y002044D02*
X004015Y001436D01*
X002953Y001436D02*
X002953Y002044D01*
X001865Y002044D02*
X001865Y001436D01*
X000778Y001436D02*
X000778Y002044D01*
D15*
X001940Y006140D02*
X001940Y006640D01*
X006703Y010703D02*
X007140Y010703D01*
X007140Y010140D01*
X007740Y009540D01*
X008640Y009540D01*
X009340Y008840D01*
X009340Y008390D01*
X009340Y007890D01*
X009340Y007390D01*
X009140Y007390D01*
X008890Y007140D01*
X009340Y006890D02*
X009340Y006390D01*
X009340Y005890D01*
X009340Y006890D02*
X009340Y007390D01*
D16*
X010015Y008453D03*
X010640Y007953D03*
X010703Y010265D03*
X010703Y010703D03*
X007640Y010765D03*
X007140Y010703D03*
X006703Y010703D03*
X005203Y008590D03*
X003828Y008328D03*
X003828Y006828D03*
X004390Y006828D03*
X004890Y006828D03*
X005953Y006578D03*
X006390Y006140D03*
X007140Y005390D03*
X006640Y004140D03*
X005940Y004140D03*
X004890Y004828D03*
X005015Y005515D03*
X002640Y004740D03*
X001740Y004740D03*
X000953Y004765D03*
X001140Y003840D03*
X001740Y003240D03*
X002340Y003840D03*
X002453Y002515D03*
X003515Y002703D03*
X005340Y000840D03*
X006240Y000840D03*
X007953Y002765D03*
X001328Y007953D03*
X000890Y007890D03*
X000828Y009453D03*
X000578Y010578D03*
X002578Y010515D03*
D17*
X000578Y010578D02*
X000453Y010453D01*
X000453Y002165D01*
X000778Y001840D01*
X000778Y001740D01*
X009340Y005890D02*
X009528Y005703D01*
X009528Y001740D01*
D18*
X005953Y006578D02*
X005328Y007203D01*
X004078Y007203D01*
X003828Y006953D01*
X003828Y006828D01*
X003828Y005640D01*
X003515Y005328D01*
X001703Y005328D01*
X001265Y005765D01*
X001265Y007515D01*
X000890Y007890D01*
X007640Y010765D02*
X010640Y010765D01*
X010703Y010703D01*
X010703Y010265D01*
X010703Y008015D01*
X010640Y007953D01*
D19*
X006328Y007465D02*
X006328Y006515D01*
X006015Y006203D01*
X006015Y005415D01*
X004015Y003415D01*
X004015Y001740D01*
X002953Y001740D02*
X002953Y002953D01*
X004440Y004440D01*
X004440Y005503D01*
X004890Y005953D01*
X004890Y006828D01*
X004390Y006828D02*
X004328Y006765D01*
X004328Y005703D01*
X004078Y005453D01*
X004078Y004703D01*
X001865Y002490D01*
X001865Y001740D01*
X006328Y007465D02*
X005203Y008590D01*
M02*
