%
M48
M72
T01C0.0200
T02C0.0405
%
T01
X2453Y2515
X1740Y3240
X1140Y3840
X953Y4765
X1740Y4740
X2640Y4740
X2340Y3840
X3515Y2703
X5340Y840
X6240Y840
X7953Y2765
X6640Y4140
X5940Y4140
X4890Y4828
X5015Y5515
X5953Y6578
X6390Y6140
X7140Y5390
X9340Y5890
X9340Y6390
X9340Y6890
X9340Y7390
X9340Y7890
X9340Y8390
X10015Y8453
X10640Y7953
X10703Y10265
X10703Y10703
X7640Y10765
X7140Y10703
X6703Y10703
X5203Y8590
X3828Y8328
X3828Y6828
X4390Y6828
X4890Y6828
X1940Y6640
X1940Y6140
X1940Y7140
X1940Y7640
X1940Y8140
X1328Y7953
X890Y7890
X828Y9453
X578Y10578
X2578Y10515
T02
X778Y1740
X1865Y1740
X2953Y1740
X4015Y1740
X7315Y1740
X8428Y1740
X9528Y1740
X10628Y1740
M30
