G75*
G70*
%OFA0B0*%
%FSLAX24Y24*%
%IPPOS*%
%LPD*%
%AMOC8*
5,1,8,0,0,1.08239X$1,22.5*
%
%ADD10R,0.0400X0.2600*%
%ADD11R,0.0400X0.3100*%
%ADD12C,0.0668*%
%ADD13C,0.0338*%
%ADD14C,0.0465*%
%ADD15C,0.0420*%
%ADD16C,0.0496*%
D10*
X002865Y007140D03*
X003415Y007140D03*
D11*
X007865Y007140D03*
X008415Y007140D03*
D12*
X002140Y001640D03*
X003203Y001640D03*
X005640Y005453D03*
X006703Y005453D03*
X009703Y006390D03*
X009203Y001640D03*
X008140Y001640D03*
X001390Y010140D03*
D13*
X002345Y003935D03*
X002345Y003640D03*
X002345Y003345D03*
X002640Y003345D03*
X002640Y003640D03*
X002640Y003935D03*
X002935Y003935D03*
X002935Y003640D03*
X002935Y003345D03*
D14*
X007140Y004140D03*
X010140Y003740D03*
X010140Y004540D03*
D15*
X008953Y005078D03*
X008203Y004995D03*
X008890Y003390D03*
X009578Y003078D03*
X006203Y004390D03*
X005703Y004390D03*
X004515Y005690D03*
X004420Y006828D03*
X003390Y004890D03*
X004270Y003390D03*
X003870Y003250D03*
X001640Y005453D03*
X001640Y005953D03*
X001890Y007765D03*
X002328Y009453D03*
X005453Y009078D03*
X006953Y008015D03*
X006490Y006765D03*
X009515Y008365D03*
X008495Y009985D03*
X005453Y010953D03*
D16*
X010140Y010740D03*
M02*
