G75*
%MOIN*%
%OFA0B0*%
%FSLAX24Y24*%
%IPPOS*%
%LPD*%
%AMOC8*
5,1,8,0,0,1.08239X$1,22.5*
%
%ADD10R,0.0454X0.0493*%
%ADD11R,0.0552X0.1950*%
%ADD12R,0.0178X0.0375*%
%ADD13R,0.0296X0.0336*%
%ADD14R,0.0525X0.3100*%
%ADD15R,0.0525X0.2600*%
%ADD16C,0.0668*%
%ADD17R,0.0316X0.0158*%
%ADD18R,0.0375X0.0611*%
%ADD19R,0.0651X0.0572*%
%ADD20R,0.0336X0.0414*%
%ADD21R,0.0414X0.0336*%
%ADD22R,0.0493X0.0454*%
%ADD23R,0.0572X0.0651*%
%ADD24R,0.0277X0.0198*%
%ADD25R,0.0217X0.0375*%
%ADD26R,0.0454X0.0454*%
%ADD27C,0.0420*%
D10*
X003868Y008828D03*
X004537Y008828D03*
X002975Y009015D03*
X002305Y009015D03*
X007673Y009343D03*
X007673Y010012D03*
D11*
X006144Y010275D03*
X003136Y010275D03*
D12*
X006677Y010115D03*
X007228Y010115D03*
D13*
X007228Y009490D03*
X006677Y009490D03*
D14*
X008478Y007140D03*
D15*
X002803Y007140D03*
D16*
X002953Y002044D02*
X002953Y001436D01*
X004015Y001436D02*
X004015Y002044D01*
X001865Y002044D02*
X001865Y001436D01*
X000778Y001436D02*
X000778Y002044D01*
X007315Y002044D02*
X007315Y001436D01*
X008428Y001436D02*
X008428Y002044D01*
X009528Y002044D02*
X009528Y001436D01*
X010628Y001436D02*
X010628Y002044D01*
D17*
X009803Y009372D03*
X009803Y009628D03*
X009803Y009883D03*
X008977Y009883D03*
X008977Y009628D03*
X008977Y009372D03*
D18*
X009390Y009628D03*
D19*
X010515Y009752D03*
X010515Y009003D03*
D20*
X010146Y010253D03*
X009634Y010253D03*
X008593Y010340D03*
X008608Y010765D03*
X008097Y010765D03*
X008082Y010340D03*
X007271Y008828D03*
X006759Y008828D03*
X006221Y008580D03*
X005709Y008580D03*
X004771Y008340D03*
X004771Y007890D03*
X004259Y007890D03*
X004259Y008340D03*
X002071Y010515D03*
X001559Y010515D03*
X001108Y010078D03*
X000597Y010078D03*
X000559Y008865D03*
X000559Y008378D03*
X001071Y008378D03*
X001071Y008865D03*
X003822Y005965D03*
X004333Y005965D03*
X004772Y005965D03*
X005283Y005965D03*
X006822Y006178D03*
X006822Y006640D03*
X007333Y006640D03*
X007333Y006178D03*
D21*
X006390Y006897D03*
X005960Y007009D03*
X005960Y007521D03*
X006390Y007408D03*
X005390Y006908D03*
X005390Y006397D03*
X005203Y007697D03*
X005203Y008208D03*
X003840Y007721D03*
X003840Y007209D03*
X002053Y009609D03*
X002053Y010121D03*
X001078Y010509D03*
X001078Y011021D03*
X008140Y009851D03*
X008578Y009851D03*
X008578Y009339D03*
X008140Y009339D03*
X009015Y010259D03*
X009015Y010771D03*
D22*
X009555Y010690D03*
X010225Y010690D03*
X010128Y007937D03*
X010128Y007268D03*
D23*
G36*
X006749Y007768D02*
X006819Y008334D01*
X007463Y008254D01*
X007393Y007688D01*
X006749Y007768D01*
G37*
G36*
X006657Y007026D02*
X006727Y007592D01*
X007371Y007512D01*
X007301Y006946D01*
X006657Y007026D01*
G37*
D24*
X006327Y007709D03*
X006327Y007965D03*
X006327Y008221D03*
X005578Y008221D03*
X005578Y007709D03*
X001289Y009184D03*
X001289Y009440D03*
X001289Y009696D03*
X000541Y009696D03*
X000541Y009184D03*
D25*
X004236Y007261D03*
X004492Y007261D03*
X004748Y007261D03*
X005004Y007261D03*
X005004Y006394D03*
X004748Y006394D03*
X004492Y006394D03*
X004236Y006394D03*
D26*
X000778Y000840D03*
X001865Y000840D03*
X002953Y000840D03*
X004015Y000840D03*
X007315Y000840D03*
X008428Y000840D03*
X009540Y000840D03*
X010628Y000840D03*
D27*
X007953Y002765D03*
X006640Y004140D03*
X005940Y004140D03*
X004890Y004828D03*
X005015Y005515D03*
X005953Y006578D03*
X006390Y006140D03*
X007140Y005390D03*
X004890Y006828D03*
X004390Y006828D03*
X003828Y006828D03*
X003828Y008328D03*
X005203Y008590D03*
X006703Y010703D03*
X007140Y010703D03*
X007640Y010765D03*
X010015Y008453D03*
X010640Y007953D03*
X010703Y010265D03*
X010703Y010703D03*
X003515Y002703D03*
X002453Y002515D03*
X001740Y003240D03*
X001140Y003840D03*
X000953Y004765D03*
X001740Y004740D03*
X002640Y004740D03*
X002340Y003840D03*
X005340Y000840D03*
X006240Y000840D03*
X000890Y007890D03*
X001328Y007953D03*
X000828Y009453D03*
X000578Y010578D03*
X002578Y010515D03*
M02*
