%
M48
M72
T01C0.0118
T02C0.0200
T03C0.0276
T04C0.0405
%
T01
X2345Y3345
X2345Y3640
X2640Y3640
X2640Y3345
X2935Y3345
X2935Y3640
X2935Y3935
X2640Y3935
X2345Y3935
T02
X3390Y4890
X4515Y5690
X4420Y6828
X6490Y6765
X6953Y8015
X5453Y9078
X5453Y10953
X8495Y9985
X9515Y8365
X8953Y5078
X8203Y4995
X8890Y3390
X9578Y3078
X6203Y4390
X5703Y4390
X4270Y3390
X3870Y3250
X1640Y5453
X1640Y5953
X1890Y7765
X2328Y9453
T03
X10140Y10740
T04
X2140Y1640
X3203Y1640
X5640Y5453
X6703Y5453
X7140Y4140
X8140Y1640
X9203Y1640
X10140Y3740
X10140Y4540
X9703Y6390
X1390Y10140
M30
