G75*
%MOIN*%
%OFA0B0*%
%FSLAX24Y24*%
%IPPOS*%
%LPD*%
%AMOC8*
5,1,8,0,0,1.08239X$1,22.5*
%
%ADD10R,0.0160X0.0560*%
%ADD11C,0.0668*%
%ADD12C,0.0338*%
%ADD13C,0.0465*%
%ADD14C,0.0420*%
%ADD15C,0.0496*%
D10*
X001890Y006640D03*
X008390Y006640D03*
D11*
X001640Y001140D03*
X002703Y001140D03*
X005140Y004953D03*
X006203Y004953D03*
X009203Y005890D03*
X008703Y001140D03*
X007640Y001140D03*
X000890Y009640D03*
D12*
X001845Y003435D03*
X001845Y003140D03*
X002140Y003140D03*
X002140Y003435D03*
X002435Y003435D03*
X002435Y003140D03*
X002435Y002845D03*
X002140Y002845D03*
X001845Y002845D03*
D13*
X006640Y003640D03*
X009640Y003240D03*
X009640Y004040D03*
D14*
X008453Y004578D03*
X007703Y004578D03*
X008390Y002890D03*
X009078Y002578D03*
X005703Y003890D03*
X005203Y003890D03*
X004015Y005190D03*
X003920Y006328D03*
X002890Y004390D03*
X003770Y002890D03*
X003370Y002750D03*
X001140Y004953D03*
X001140Y005453D03*
X001390Y007265D03*
X001828Y008953D03*
X004953Y008578D03*
X005328Y009140D03*
X006453Y007515D03*
X005990Y006265D03*
X007995Y009135D03*
X009015Y007515D03*
D15*
X009640Y009890D03*
M02*
