G75*
G70*
%OFA0B0*%
%FSLAX24Y24*%
%IPPOS*%
%LPD*%
%AMOC8*
5,1,8,0,0,1.08239X$1,22.5*
%
%ADD10R,0.0433X0.0394*%
%ADD11R,0.2165X0.0728*%
%ADD12R,0.0118X0.0315*%
%ADD13R,0.0236X0.0276*%
%ADD14R,0.0394X0.0433*%
%ADD15C,0.0607*%
%ADD16R,0.0472X0.0354*%
%ADD17R,0.0315X0.0354*%
%ADD18R,0.0256X0.0098*%
%ADD19R,0.0315X0.0551*%
%ADD20R,0.0591X0.0512*%
%ADD21R,0.0276X0.0354*%
%ADD22R,0.0335X0.0138*%
%ADD23R,0.0354X0.0276*%
%ADD24C,0.0110*%
%ADD25R,0.0827X0.0827*%
%ADD26C,0.0278*%
%ADD27C,0.0310*%
%ADD28R,0.0315X0.0157*%
%ADD29C,0.0160*%
%ADD30C,0.0120*%
%ADD31C,0.0360*%
%ADD32C,0.0080*%
%ADD33C,0.0100*%
%ADD34C,0.0060*%
%ADD35C,0.0436*%
%ADD36C,0.0240*%
D10*
X001105Y004703D03*
X001775Y004703D03*
X001890Y006618D03*
X001890Y007287D03*
X002828Y009493D03*
X003453Y009493D03*
X003453Y010162D03*
X002828Y010162D03*
X007015Y010155D03*
X007015Y010825D03*
X008868Y010570D03*
X009537Y010570D03*
X007078Y007537D03*
X007078Y006868D03*
D11*
X004900Y008306D03*
X004900Y010314D03*
D12*
X006177Y009615D03*
X006728Y009615D03*
D13*
X006728Y008990D03*
X006177Y008990D03*
D14*
X007110Y008905D03*
X007110Y009575D03*
X006515Y010145D03*
X006515Y010815D03*
X007618Y010620D03*
X008287Y010620D03*
X009368Y007615D03*
X010037Y007615D03*
X006037Y007578D03*
X005368Y007578D03*
X004725Y007640D03*
X004055Y007640D03*
X005368Y006890D03*
X005368Y006390D03*
X006037Y006390D03*
X006037Y006890D03*
X004850Y005265D03*
X004600Y004765D03*
X004180Y005265D03*
X003930Y004765D03*
X001390Y002912D03*
X001078Y003493D03*
X001078Y004162D03*
X001390Y002243D03*
X001328Y006618D03*
X001328Y007287D03*
D15*
X001390Y010140D03*
X005640Y005453D03*
X006703Y005453D03*
X009703Y006390D03*
X009203Y001640D03*
X008140Y001640D03*
X003203Y001640D03*
X002140Y001640D03*
D16*
X004138Y006371D03*
D17*
X004846Y006371D03*
X004846Y007159D03*
X004059Y007159D03*
D18*
X008539Y009172D03*
X008539Y009428D03*
X008539Y009683D03*
X009366Y009683D03*
X009366Y009428D03*
X009366Y009172D03*
D19*
X008953Y009428D03*
D20*
X010140Y009303D03*
X010140Y010052D03*
D21*
X009521Y010053D03*
X009009Y010053D03*
X008083Y010165D03*
X007572Y010165D03*
D22*
X009082Y008365D03*
X009948Y008109D03*
X009948Y008621D03*
D23*
X008078Y009264D03*
X007578Y009264D03*
X007578Y009776D03*
X008078Y009776D03*
D24*
X003132Y004530D02*
X003132Y004306D01*
X002935Y004306D02*
X002935Y004530D01*
X002738Y004530D02*
X002738Y004306D01*
X002542Y004306D02*
X002542Y004530D01*
X002345Y004530D02*
X002345Y004306D01*
X002148Y004306D02*
X002148Y004530D01*
X001974Y004132D02*
X001750Y004132D01*
X001750Y003935D02*
X001974Y003935D01*
X001974Y003738D02*
X001750Y003738D01*
X001750Y003542D02*
X001974Y003542D01*
X001974Y003345D02*
X001750Y003345D01*
X001750Y003148D02*
X001974Y003148D01*
X002148Y002974D02*
X002148Y002750D01*
X002345Y002750D02*
X002345Y002974D01*
X002542Y002974D02*
X002542Y002750D01*
X002738Y002750D02*
X002738Y002974D01*
X002935Y002974D02*
X002935Y002750D01*
X003132Y002750D02*
X003132Y002974D01*
X003306Y003148D02*
X003530Y003148D01*
X003530Y003345D02*
X003306Y003345D01*
X003306Y003542D02*
X003530Y003542D01*
X003530Y003738D02*
X003306Y003738D01*
X003306Y003935D02*
X003530Y003935D01*
X003530Y004132D02*
X003306Y004132D01*
D25*
X002640Y003640D03*
D26*
X002640Y003640D03*
X002640Y003345D03*
X002345Y003345D03*
X002345Y003640D03*
X002345Y003935D03*
X002640Y003935D03*
X002935Y003935D03*
X002935Y003640D03*
X002935Y003345D03*
D27*
X007640Y003890D03*
X007640Y004390D03*
X008140Y004390D03*
X008140Y003890D03*
X008640Y003890D03*
X008640Y004390D03*
X009140Y004390D03*
X009140Y003890D03*
X009640Y003890D03*
X009640Y004390D03*
D28*
X002073Y005256D03*
X002073Y005512D03*
X002073Y005768D03*
X002073Y006024D03*
X001207Y006024D03*
X001207Y005768D03*
X001207Y005512D03*
X001207Y005256D03*
D29*
X000953Y005015D02*
X000953Y004855D01*
X001105Y004703D01*
X001162Y004078D02*
X001390Y004078D01*
X001532Y003935D01*
X001532Y003095D01*
X001390Y002953D01*
X001368Y002953D01*
X003390Y004890D02*
X003805Y004890D01*
X003930Y004765D01*
X003930Y005015D01*
X004180Y005265D01*
X004328Y006015D02*
X005328Y006015D01*
X005390Y006078D01*
X005390Y006368D01*
X005368Y006390D01*
X005305Y006828D02*
X005140Y006828D01*
X004846Y006534D01*
X004846Y006371D01*
X004328Y006015D02*
X004138Y006205D01*
X004138Y006371D01*
X004059Y007159D02*
X004055Y007162D01*
X004055Y007640D01*
X004140Y008140D02*
X004640Y008140D01*
X004725Y008055D01*
X004725Y007640D01*
X004734Y008140D02*
X004900Y008306D01*
X004734Y008140D02*
X004640Y008140D01*
X004203Y008203D02*
X004140Y008140D01*
X004203Y008203D02*
X004203Y009140D01*
X003850Y009493D01*
X003453Y009493D01*
X002828Y009493D02*
X002787Y009453D01*
X002328Y009453D01*
X002828Y010162D02*
X003453Y010162D01*
X003475Y010140D01*
X004140Y010140D01*
X004314Y010314D01*
X004900Y010314D01*
X005453Y010953D02*
X006377Y010953D01*
X006515Y010815D01*
X007005Y010815D01*
X007015Y010825D01*
X008083Y010165D02*
X008265Y010178D01*
X008453Y010028D01*
X008495Y009985D01*
X008868Y010194D02*
X008868Y010570D01*
X008828Y010553D02*
X008890Y010490D01*
X008890Y010428D01*
X008828Y010553D02*
X008703Y010553D01*
X008640Y010490D01*
X008417Y010490D01*
X008287Y010620D01*
X008868Y010194D02*
X009009Y010053D01*
X008953Y009996D01*
X008953Y009428D01*
X007078Y007890D02*
X007078Y007537D01*
X007078Y007890D02*
X006953Y008015D01*
X006578Y008078D02*
X006453Y008203D01*
X006453Y009178D01*
X006728Y009453D01*
X006728Y009615D01*
X006578Y008078D02*
X006578Y007140D01*
X006850Y006868D01*
X007078Y006868D01*
X006600Y006390D01*
X006703Y006287D01*
X006703Y005453D01*
X006600Y006390D02*
X006037Y006390D01*
X006037Y006890D02*
X006365Y006890D01*
X006490Y006765D01*
X005368Y006890D02*
X005305Y006828D01*
X001640Y005953D02*
X001569Y006024D01*
X001207Y006024D01*
D30*
X001890Y006618D02*
X001930Y006578D01*
X002265Y006578D01*
X002390Y006453D01*
X002390Y005890D01*
X002268Y005768D01*
X002073Y005768D01*
X001862Y003148D02*
X001890Y003120D01*
X001890Y002515D01*
X002078Y002328D01*
X002953Y002328D01*
X003203Y002078D01*
X003203Y001640D01*
X004787Y007578D02*
X004725Y007640D01*
X004787Y007578D02*
X005368Y007578D01*
X002805Y010140D02*
X002828Y010162D01*
X002805Y010140D02*
X001390Y010140D01*
X009703Y006390D02*
X010037Y006725D01*
X010037Y007615D01*
X009948Y007704D01*
X009948Y008109D01*
D31*
X009515Y008365D03*
X008495Y009985D03*
X006953Y008015D03*
X006490Y006765D03*
X008203Y004995D03*
X008953Y005078D03*
X008890Y003390D03*
X009578Y003078D03*
X006203Y004390D03*
X005703Y004390D03*
X004515Y005690D03*
X004420Y006828D03*
X003390Y004890D03*
X004270Y003390D03*
X003870Y003250D03*
X001640Y005453D03*
X001640Y005953D03*
X001890Y007765D03*
X002328Y009453D03*
X005453Y009078D03*
X005453Y010953D03*
D32*
X000380Y011150D02*
X000380Y000630D01*
X010900Y000630D01*
X010900Y011150D01*
X010582Y011150D01*
X010582Y009624D01*
X010581Y009622D01*
X010592Y009610D01*
X010592Y008995D01*
X010510Y008913D01*
X009145Y008913D01*
X009063Y008995D01*
X009063Y009012D01*
X008991Y009012D01*
X008991Y009389D01*
X008914Y009389D01*
X008914Y009012D01*
X008824Y009012D01*
X008855Y008938D01*
X008855Y008516D01*
X008873Y008534D01*
X009288Y008534D01*
X009356Y008602D01*
X009459Y008645D01*
X009571Y008645D01*
X009641Y008616D01*
X009641Y008621D01*
X009948Y008621D01*
X009948Y008830D01*
X009762Y008830D01*
X009727Y008820D01*
X009695Y008802D01*
X009669Y008776D01*
X009650Y008744D01*
X009641Y008708D01*
X009641Y008621D01*
X009948Y008621D01*
X009948Y008621D01*
X009948Y008621D01*
X009948Y008830D01*
X010134Y008830D01*
X010169Y008820D01*
X010201Y008802D01*
X010227Y008776D01*
X010246Y008744D01*
X010255Y008708D01*
X010255Y008621D01*
X009948Y008621D01*
X009948Y008621D01*
X009948Y008621D01*
X009948Y008412D01*
X009795Y008412D01*
X009795Y008309D01*
X009782Y008278D01*
X010157Y008278D01*
X010215Y008219D01*
X010215Y007999D01*
X010157Y007940D01*
X010108Y007940D01*
X010108Y007932D01*
X010275Y007932D01*
X010334Y007873D01*
X010334Y007357D01*
X010275Y007298D01*
X010197Y007298D01*
X010197Y006658D01*
X010078Y006539D01*
X010106Y006470D01*
X010106Y006310D01*
X010045Y006161D01*
X009931Y006048D01*
X009783Y005986D01*
X009622Y005986D01*
X009474Y006048D01*
X009360Y006161D01*
X009299Y006310D01*
X009299Y006470D01*
X009360Y006619D01*
X009474Y006732D01*
X009622Y006794D01*
X009783Y006794D01*
X009852Y006765D01*
X009877Y006791D01*
X009877Y007298D01*
X009799Y007298D01*
X009740Y007357D01*
X009740Y007873D01*
X009788Y007921D01*
X009788Y007940D01*
X009739Y007940D01*
X009681Y007999D01*
X009681Y008135D01*
X009674Y008128D01*
X009571Y008085D01*
X009459Y008085D01*
X009356Y008128D01*
X009288Y008196D01*
X008873Y008196D01*
X008855Y008214D01*
X008855Y005342D01*
X008854Y005340D01*
X008897Y005357D01*
X009008Y005357D01*
X009111Y005315D01*
X009190Y005236D01*
X009232Y005133D01*
X009232Y005022D01*
X009229Y005013D01*
X009290Y004952D01*
X009290Y004601D01*
X009356Y004534D01*
X009390Y004453D01*
X009424Y004534D01*
X009496Y004606D01*
X009589Y004645D01*
X009691Y004645D01*
X009703Y004640D01*
X009765Y004791D01*
X009889Y004915D01*
X010052Y004982D01*
X010228Y004982D01*
X010391Y004915D01*
X010515Y004791D01*
X010582Y004628D01*
X010900Y004628D01*
X010900Y004706D02*
X010550Y004706D01*
X010582Y004628D02*
X010582Y004452D01*
X010515Y004289D01*
X010391Y004165D01*
X010331Y004140D01*
X010391Y004115D01*
X010515Y003991D01*
X010582Y003828D01*
X010582Y003652D01*
X010515Y003489D01*
X010391Y003365D01*
X010228Y003298D01*
X010052Y003298D01*
X009889Y003365D01*
X009790Y003464D01*
X009790Y003261D01*
X009815Y003236D01*
X009857Y003133D01*
X009857Y003022D01*
X009815Y002919D01*
X009736Y002840D01*
X009633Y002798D01*
X009522Y002798D01*
X009419Y002840D01*
X009340Y002919D01*
X009298Y003022D01*
X009298Y003133D01*
X009340Y003236D01*
X009419Y003315D01*
X009490Y003344D01*
X009490Y003679D01*
X009424Y003746D01*
X009390Y003827D01*
X009356Y003746D01*
X009284Y003674D01*
X009191Y003635D01*
X009089Y003635D01*
X008996Y003674D01*
X008924Y003746D01*
X008890Y003827D01*
X008856Y003746D01*
X008801Y003691D01*
X008826Y003666D01*
X008834Y003670D01*
X008946Y003670D01*
X009049Y003627D01*
X009127Y003549D01*
X009170Y003446D01*
X009170Y003334D01*
X009127Y003231D01*
X009049Y003153D01*
X008946Y003110D01*
X008834Y003110D01*
X008731Y003153D01*
X008653Y003231D01*
X008610Y003334D01*
X008610Y003446D01*
X008614Y003454D01*
X008578Y003490D01*
X008490Y003578D01*
X008490Y003679D01*
X008424Y003746D01*
X008390Y003827D01*
X008356Y003746D01*
X008290Y003679D01*
X008290Y002015D01*
X008369Y001982D01*
X008482Y001869D01*
X008544Y001720D01*
X008544Y001560D01*
X008482Y001411D01*
X008369Y001298D01*
X008220Y001236D01*
X008060Y001236D01*
X007911Y001298D01*
X007804Y001405D01*
X007390Y000990D01*
X003640Y000990D01*
X003553Y001078D01*
X003362Y001269D01*
X003283Y001236D01*
X003122Y001236D01*
X002974Y001298D01*
X002860Y001411D01*
X002799Y001560D01*
X002799Y001720D01*
X002860Y001869D01*
X002974Y001982D01*
X003043Y002011D01*
X003043Y002011D01*
X002886Y002168D01*
X002011Y002168D01*
X001918Y002261D01*
X001730Y002449D01*
X001730Y002993D01*
X001687Y002993D01*
X001687Y002654D01*
X001628Y002596D01*
X001619Y002596D01*
X001641Y002590D01*
X001673Y002571D01*
X001699Y002545D01*
X001717Y002513D01*
X001727Y002478D01*
X001727Y002283D01*
X001430Y002283D01*
X001430Y002203D01*
X001727Y002203D01*
X001727Y002008D01*
X001717Y001972D01*
X001699Y001940D01*
X001673Y001914D01*
X001641Y001896D01*
X001605Y001886D01*
X001430Y001886D01*
X001430Y002203D01*
X001350Y002203D01*
X001053Y002203D01*
X001053Y002008D01*
X001063Y001972D01*
X001081Y001940D01*
X001107Y001914D01*
X001139Y001896D01*
X001175Y001886D01*
X001350Y001886D01*
X001350Y002203D01*
X001350Y002283D01*
X001053Y002283D01*
X001053Y002478D01*
X001063Y002513D01*
X001081Y002545D01*
X001107Y002571D01*
X001139Y002590D01*
X001161Y002596D01*
X001152Y002596D01*
X001093Y002654D01*
X001093Y003170D01*
X001117Y003194D01*
X001117Y003453D01*
X001038Y003453D01*
X001038Y003136D01*
X000862Y003136D01*
X000827Y003146D01*
X000795Y003164D01*
X000769Y003190D01*
X000750Y003222D01*
X000741Y003258D01*
X000741Y003453D01*
X001037Y003453D01*
X001037Y003533D01*
X000741Y003533D01*
X000741Y003728D01*
X000750Y003763D01*
X000769Y003795D01*
X000795Y003821D01*
X000827Y003840D01*
X000848Y003846D01*
X000839Y003846D01*
X000781Y003904D01*
X000781Y004416D01*
X000777Y004420D01*
X000758Y004452D01*
X000749Y004487D01*
X000749Y004663D01*
X001065Y004663D01*
X001065Y004742D01*
X000749Y004742D01*
X000749Y004918D01*
X000758Y004953D01*
X000777Y004985D01*
X000803Y005011D01*
X000835Y005030D01*
X000870Y005039D01*
X001057Y005039D01*
X001057Y005077D01*
X001008Y005077D01*
X000949Y005136D01*
X000949Y005335D01*
X000937Y005347D01*
X000919Y005379D01*
X000909Y005415D01*
X000909Y005512D01*
X001207Y005512D01*
X001207Y005512D01*
X001504Y005512D01*
X001504Y005415D01*
X001495Y005379D01*
X001476Y005347D01*
X001464Y005335D01*
X001464Y005165D01*
X001816Y005165D01*
X001816Y005335D01*
X001804Y005347D01*
X001785Y005379D01*
X001776Y005415D01*
X001776Y005512D01*
X002073Y005512D01*
X002073Y005512D01*
X001776Y005512D01*
X001776Y005609D01*
X001785Y005645D01*
X001804Y005677D01*
X001816Y005689D01*
X001816Y005732D01*
X001799Y005715D01*
X001696Y005673D01*
X001584Y005673D01*
X001530Y005695D01*
X001530Y005645D01*
X001502Y005617D01*
X001504Y005609D01*
X001504Y005512D01*
X001207Y005512D01*
X001207Y005512D01*
X000909Y005512D01*
X000909Y005609D01*
X000919Y005645D01*
X000926Y005656D01*
X000875Y005707D01*
X000875Y006823D01*
X000957Y006905D01*
X001060Y006905D01*
X001089Y006934D01*
X001098Y006934D01*
X001077Y006940D01*
X001045Y006959D01*
X001019Y006985D01*
X001000Y007017D01*
X000991Y007052D01*
X000991Y007247D01*
X001287Y007247D01*
X001287Y007327D01*
X000991Y007327D01*
X000991Y007522D01*
X001000Y007558D01*
X001019Y007590D01*
X001045Y007616D01*
X001077Y007634D01*
X001112Y007644D01*
X001288Y007644D01*
X001288Y007327D01*
X001367Y007327D01*
X001367Y007644D01*
X001543Y007644D01*
X001578Y007634D01*
X001610Y007616D01*
X001614Y007612D01*
X001619Y007614D01*
X001655Y007624D01*
X001850Y007624D01*
X001850Y007327D01*
X001850Y007247D01*
X001930Y007247D01*
X001930Y006950D01*
X002125Y006950D01*
X002161Y006960D01*
X002192Y006978D01*
X002219Y007004D01*
X002237Y007036D01*
X002247Y007072D01*
X002247Y007247D01*
X001930Y007247D01*
X001930Y007327D01*
X002247Y007327D01*
X002247Y007502D01*
X002237Y007538D01*
X002219Y007570D01*
X002192Y007596D01*
X002161Y007614D01*
X002125Y007624D01*
X001930Y007624D01*
X001930Y007327D01*
X001850Y007327D01*
X001368Y007327D01*
X001368Y007247D01*
X001533Y007247D01*
X001850Y007247D01*
X001850Y006950D01*
X001655Y006950D01*
X001619Y006960D01*
X001614Y006963D01*
X001610Y006959D01*
X001578Y006940D01*
X001557Y006934D01*
X001566Y006934D01*
X001609Y006891D01*
X001632Y006915D01*
X002148Y006915D01*
X002207Y006856D01*
X002207Y006737D01*
X002331Y006737D01*
X002425Y006644D01*
X002425Y006644D01*
X002425Y006644D01*
X002425Y008613D01*
X002462Y008701D01*
X002529Y008768D01*
X002617Y008805D01*
X003663Y008805D01*
X003751Y008768D01*
X003763Y008757D01*
X003776Y008770D01*
X004023Y008770D01*
X004023Y009065D01*
X003775Y009313D01*
X003769Y009313D01*
X003769Y009255D01*
X003710Y009196D01*
X003195Y009196D01*
X003140Y009251D01*
X003085Y009196D01*
X002570Y009196D01*
X002518Y009247D01*
X002486Y009215D01*
X002383Y009173D01*
X002272Y009173D01*
X002169Y009215D01*
X002090Y009294D01*
X002048Y009397D01*
X002048Y009508D01*
X002090Y009611D01*
X002169Y009690D01*
X002272Y009732D01*
X002383Y009732D01*
X002486Y009690D01*
X002511Y009665D01*
X002511Y009731D01*
X002570Y009790D01*
X003085Y009790D01*
X003140Y009735D01*
X003195Y009790D01*
X003710Y009790D01*
X003769Y009731D01*
X003769Y009673D01*
X003924Y009673D01*
X004277Y009320D01*
X004382Y009215D01*
X004382Y008770D01*
X005750Y008770D01*
X005750Y009233D01*
X005739Y009256D01*
X005750Y009289D01*
X005750Y009323D01*
X005768Y009341D01*
X005938Y009826D01*
X005938Y009850D01*
X003776Y009850D01*
X003735Y009890D01*
X003710Y009865D01*
X003195Y009865D01*
X003140Y009920D01*
X003085Y009865D01*
X002570Y009865D01*
X002511Y009924D01*
X002511Y009980D01*
X001761Y009980D01*
X001732Y009911D01*
X001619Y009798D01*
X001470Y009736D01*
X001310Y009736D01*
X001161Y009798D01*
X001048Y009911D01*
X000986Y010060D01*
X000986Y010220D01*
X001048Y010369D01*
X001161Y010482D01*
X001310Y010544D01*
X001470Y010544D01*
X001619Y010482D01*
X001732Y010369D01*
X001761Y010300D01*
X002511Y010300D01*
X002511Y010400D01*
X002570Y010459D01*
X003085Y010459D01*
X003140Y010404D01*
X003195Y010459D01*
X003710Y010459D01*
X003717Y010452D01*
X003717Y010720D01*
X003776Y010778D01*
X005231Y010778D01*
X005215Y010794D01*
X005173Y010897D01*
X005173Y011008D01*
X005215Y011111D01*
X005254Y011150D01*
X000380Y011150D01*
X000380Y011144D02*
X005248Y011144D01*
X005196Y011065D02*
X000380Y011065D01*
X000380Y010987D02*
X005173Y010987D01*
X005173Y010908D02*
X000380Y010908D01*
X000380Y010830D02*
X005200Y010830D01*
X005931Y009809D02*
X001630Y009809D01*
X001708Y009888D02*
X002547Y009888D01*
X002511Y009966D02*
X001755Y009966D01*
X001737Y010359D02*
X002511Y010359D01*
X002548Y010437D02*
X001664Y010437D01*
X001538Y010516D02*
X003717Y010516D01*
X003717Y010594D02*
X000380Y010594D01*
X000380Y010516D02*
X001242Y010516D01*
X001116Y010437D02*
X000380Y010437D01*
X000380Y010359D02*
X001043Y010359D01*
X001011Y010280D02*
X000380Y010280D01*
X000380Y010202D02*
X000986Y010202D01*
X000986Y010123D02*
X000380Y010123D01*
X000380Y010045D02*
X000993Y010045D01*
X001025Y009966D02*
X000380Y009966D01*
X000380Y009888D02*
X001072Y009888D01*
X001150Y009809D02*
X000380Y009809D01*
X000380Y009731D02*
X002267Y009731D01*
X002388Y009731D02*
X002511Y009731D01*
X002131Y009652D02*
X000380Y009652D01*
X000380Y009574D02*
X002075Y009574D01*
X002048Y009495D02*
X000380Y009495D01*
X000380Y009417D02*
X002048Y009417D01*
X002072Y009338D02*
X000380Y009338D01*
X000380Y009260D02*
X002125Y009260D01*
X002251Y009181D02*
X000380Y009181D01*
X000380Y009103D02*
X003985Y009103D01*
X004023Y009024D02*
X000380Y009024D01*
X000380Y008946D02*
X004023Y008946D01*
X004023Y008867D02*
X000380Y008867D01*
X000380Y008789D02*
X002577Y008789D01*
X002471Y008710D02*
X000380Y008710D01*
X000380Y008632D02*
X002433Y008632D01*
X002425Y008553D02*
X000380Y008553D01*
X000380Y008475D02*
X002425Y008475D01*
X002425Y008396D02*
X000380Y008396D01*
X000380Y008318D02*
X002425Y008318D01*
X002425Y008239D02*
X000380Y008239D01*
X000380Y008161D02*
X002425Y008161D01*
X002425Y008082D02*
X000380Y008082D01*
X000380Y008004D02*
X002425Y008004D01*
X002425Y007925D02*
X000380Y007925D01*
X000380Y007847D02*
X002425Y007847D01*
X002425Y007768D02*
X000380Y007768D01*
X000380Y007690D02*
X002425Y007690D01*
X002425Y007611D02*
X002167Y007611D01*
X002238Y007533D02*
X002425Y007533D01*
X002425Y007454D02*
X002247Y007454D01*
X002247Y007376D02*
X002425Y007376D01*
X002425Y007297D02*
X001930Y007297D01*
X001930Y007219D02*
X001850Y007219D01*
X001850Y007297D02*
X001368Y007297D01*
X001367Y007376D02*
X001288Y007376D01*
X001288Y007454D02*
X001367Y007454D01*
X001367Y007533D02*
X001288Y007533D01*
X001288Y007611D02*
X001367Y007611D01*
X001287Y007297D02*
X000380Y007297D01*
X000380Y007219D02*
X000991Y007219D01*
X000991Y007140D02*
X000380Y007140D01*
X000380Y007061D02*
X000991Y007061D01*
X001020Y006983D02*
X000380Y006983D01*
X000380Y006904D02*
X000957Y006904D01*
X000878Y006826D02*
X000380Y006826D01*
X000380Y006747D02*
X000875Y006747D01*
X000875Y006669D02*
X000380Y006669D01*
X000380Y006590D02*
X000875Y006590D01*
X000875Y006512D02*
X000380Y006512D01*
X000380Y006433D02*
X000875Y006433D01*
X000875Y006355D02*
X000380Y006355D01*
X000380Y006276D02*
X000875Y006276D01*
X000875Y006198D02*
X000380Y006198D01*
X000380Y006119D02*
X000875Y006119D01*
X000875Y006041D02*
X000380Y006041D01*
X000380Y005962D02*
X000875Y005962D01*
X000875Y005884D02*
X000380Y005884D01*
X000380Y005805D02*
X000875Y005805D01*
X000875Y005727D02*
X000380Y005727D01*
X000380Y005648D02*
X000921Y005648D01*
X000909Y005570D02*
X000380Y005570D01*
X000380Y005491D02*
X000909Y005491D01*
X000910Y005413D02*
X000380Y005413D01*
X000380Y005334D02*
X000949Y005334D01*
X000949Y005256D02*
X000380Y005256D01*
X000380Y005177D02*
X000949Y005177D01*
X000986Y005099D02*
X000380Y005099D01*
X000380Y005020D02*
X000819Y005020D01*
X000890Y005078D02*
X000890Y005265D01*
X000890Y005078D02*
X000953Y005015D01*
X000755Y004942D02*
X000380Y004942D01*
X000380Y004863D02*
X000749Y004863D01*
X000749Y004785D02*
X000380Y004785D01*
X000380Y004706D02*
X001065Y004706D01*
X000749Y004628D02*
X000380Y004628D01*
X000380Y004549D02*
X000749Y004549D01*
X000753Y004471D02*
X000380Y004471D01*
X000380Y004392D02*
X000781Y004392D01*
X000781Y004314D02*
X000380Y004314D01*
X000380Y004235D02*
X000781Y004235D01*
X000781Y004157D02*
X000380Y004157D01*
X000380Y004078D02*
X000781Y004078D01*
X000781Y004000D02*
X000380Y004000D01*
X000380Y003921D02*
X000781Y003921D01*
X000838Y003843D02*
X000380Y003843D01*
X000380Y003764D02*
X000751Y003764D01*
X000741Y003686D02*
X000380Y003686D01*
X000380Y003607D02*
X000741Y003607D01*
X000741Y003450D02*
X000380Y003450D01*
X000380Y003372D02*
X000741Y003372D01*
X000741Y003293D02*
X000380Y003293D01*
X000380Y003215D02*
X000754Y003215D01*
X000862Y003136D02*
X000380Y003136D01*
X000380Y003058D02*
X001093Y003058D01*
X001093Y003136D02*
X001038Y003136D01*
X001038Y003215D02*
X001117Y003215D01*
X001117Y003293D02*
X001038Y003293D01*
X001038Y003372D02*
X001117Y003372D01*
X001117Y003450D02*
X001038Y003450D01*
X001037Y003529D02*
X000380Y003529D01*
X000380Y002979D02*
X001093Y002979D01*
X001093Y002901D02*
X000380Y002901D01*
X000380Y002822D02*
X001093Y002822D01*
X001093Y002744D02*
X000380Y002744D01*
X000380Y002665D02*
X001093Y002665D01*
X001134Y002587D02*
X000380Y002587D01*
X000380Y002508D02*
X001061Y002508D01*
X001053Y002430D02*
X000380Y002430D01*
X000380Y002351D02*
X001053Y002351D01*
X001053Y002194D02*
X000380Y002194D01*
X000380Y002116D02*
X001053Y002116D01*
X001053Y002037D02*
X000380Y002037D01*
X000380Y001959D02*
X001070Y001959D01*
X001350Y001959D02*
X001430Y001959D01*
X001430Y002037D02*
X001350Y002037D01*
X001350Y002116D02*
X001430Y002116D01*
X001430Y002194D02*
X001350Y002194D01*
X001350Y002273D02*
X000380Y002273D01*
X000380Y001880D02*
X001766Y001880D01*
X001760Y001873D02*
X001729Y001810D01*
X001707Y001744D01*
X001697Y001680D01*
X002100Y001680D01*
X002100Y002083D01*
X002036Y002073D01*
X001970Y002051D01*
X001907Y002020D01*
X001851Y001978D01*
X001802Y001929D01*
X001760Y001873D01*
X001726Y001802D02*
X000380Y001802D01*
X000380Y001723D02*
X001704Y001723D01*
X001697Y001600D02*
X001707Y001536D01*
X001729Y001470D01*
X001760Y001407D01*
X001802Y001351D01*
X001851Y001302D01*
X001907Y001260D01*
X001970Y001229D01*
X002036Y001207D01*
X002100Y001197D01*
X002100Y001600D01*
X002180Y001600D01*
X002180Y001680D01*
X002583Y001680D01*
X002573Y001744D01*
X002551Y001810D01*
X002520Y001873D01*
X002478Y001929D01*
X002429Y001978D01*
X002373Y002020D01*
X002310Y002051D01*
X002244Y002073D01*
X002180Y002083D01*
X002180Y001680D01*
X002100Y001680D01*
X002100Y001600D01*
X001697Y001600D01*
X001702Y001566D02*
X000380Y001566D01*
X000380Y001488D02*
X001723Y001488D01*
X001759Y001409D02*
X000380Y001409D01*
X000380Y001331D02*
X001821Y001331D01*
X001923Y001252D02*
X000380Y001252D01*
X000380Y001174D02*
X003456Y001174D01*
X003378Y001252D02*
X003322Y001252D01*
X003083Y001252D02*
X002357Y001252D01*
X002373Y001260D02*
X002310Y001229D01*
X002244Y001207D01*
X002180Y001197D01*
X002180Y001600D01*
X002583Y001600D01*
X002573Y001536D01*
X002551Y001470D01*
X002520Y001407D01*
X002478Y001351D01*
X002429Y001302D01*
X002373Y001260D01*
X002459Y001331D02*
X002941Y001331D01*
X002862Y001409D02*
X002521Y001409D01*
X002557Y001488D02*
X002828Y001488D01*
X002799Y001566D02*
X002578Y001566D01*
X002576Y001723D02*
X002800Y001723D01*
X002799Y001645D02*
X002180Y001645D01*
X002180Y001723D02*
X002100Y001723D01*
X002100Y001645D02*
X000380Y001645D01*
X000380Y001095D02*
X003535Y001095D01*
X003613Y001017D02*
X000380Y001017D01*
X000380Y000938D02*
X010900Y000938D01*
X010900Y000860D02*
X000380Y000860D01*
X000380Y000781D02*
X010900Y000781D01*
X010900Y000703D02*
X000380Y000703D01*
X001710Y001959D02*
X001831Y001959D01*
X001727Y002037D02*
X001943Y002037D01*
X002100Y002037D02*
X002180Y002037D01*
X002180Y001959D02*
X002100Y001959D01*
X002100Y001880D02*
X002180Y001880D01*
X002180Y001802D02*
X002100Y001802D01*
X002100Y001566D02*
X002180Y001566D01*
X002180Y001488D02*
X002100Y001488D01*
X002100Y001409D02*
X002180Y001409D01*
X002180Y001331D02*
X002100Y001331D01*
X002100Y001252D02*
X002180Y001252D01*
X002554Y001802D02*
X002833Y001802D01*
X002872Y001880D02*
X002514Y001880D01*
X002449Y001959D02*
X002950Y001959D01*
X003016Y002037D02*
X002337Y002037D01*
X001984Y002194D02*
X001727Y002194D01*
X001727Y002116D02*
X002938Y002116D01*
X002640Y003096D02*
X002640Y003096D01*
X002640Y003345D01*
X002640Y003600D01*
X002640Y003345D01*
X002640Y003345D01*
X002640Y003096D01*
X002640Y003096D01*
X002640Y003136D02*
X002640Y003136D01*
X002640Y003215D02*
X002640Y003215D01*
X002640Y003293D02*
X002640Y003293D01*
X002640Y003345D02*
X002640Y003345D01*
X002640Y003372D02*
X002640Y003372D01*
X002640Y003450D02*
X002640Y003450D01*
X002640Y003529D02*
X002640Y003529D01*
X002640Y003600D02*
X002640Y003600D01*
X002680Y003640D02*
X002935Y003640D01*
X002935Y003640D01*
X002680Y003640D01*
X002680Y003640D01*
X002640Y003680D02*
X002640Y003935D01*
X002640Y003935D01*
X002640Y003680D01*
X002640Y003680D01*
X002640Y003686D02*
X002640Y003686D01*
X002600Y003640D02*
X002600Y003640D01*
X002345Y003640D01*
X002361Y003640D01*
X002600Y003640D01*
X002640Y003764D02*
X002640Y003764D01*
X002640Y003843D02*
X002640Y003843D01*
X002640Y003921D02*
X002640Y003921D01*
X002640Y003935D02*
X002640Y004184D01*
X002640Y004184D01*
X002640Y003935D01*
X002640Y003935D01*
X002640Y004000D02*
X002640Y004000D01*
X002640Y004078D02*
X002640Y004078D01*
X002640Y004157D02*
X002640Y004157D01*
X002640Y004184D02*
X002640Y004184D01*
X002692Y004685D02*
X002692Y005051D01*
X002604Y005138D01*
X002361Y005381D01*
X002371Y005415D01*
X002371Y005512D01*
X002073Y005512D01*
X002073Y005512D01*
X002371Y005512D01*
X002371Y005609D01*
X002363Y005637D01*
X002425Y005699D01*
X002425Y005667D01*
X002462Y005579D01*
X002529Y005512D01*
X002617Y005475D01*
X003663Y005475D01*
X003751Y005512D01*
X003818Y005579D01*
X003855Y005667D01*
X003855Y006099D01*
X003860Y006094D01*
X003994Y006094D01*
X004148Y005940D01*
X004253Y005835D01*
X004272Y005835D01*
X004235Y005746D01*
X004235Y005634D01*
X004257Y005582D01*
X003942Y005582D01*
X003884Y005523D01*
X003884Y005223D01*
X003856Y005195D01*
X003856Y005195D01*
X003750Y005090D01*
X003750Y005082D01*
X003692Y005082D01*
X003681Y005070D01*
X003606Y005070D01*
X003549Y005127D01*
X003446Y005170D01*
X003334Y005170D01*
X003231Y005127D01*
X003153Y005049D01*
X003110Y004946D01*
X003110Y004834D01*
X003153Y004731D01*
X003231Y004653D01*
X003334Y004610D01*
X003446Y004610D01*
X003549Y004653D01*
X003606Y004710D01*
X003634Y004710D01*
X003634Y004507D01*
X003692Y004448D01*
X004169Y004448D01*
X004227Y004507D01*
X004227Y004948D01*
X004303Y004948D01*
X004303Y004507D01*
X004361Y004448D01*
X004799Y004448D01*
X004632Y004282D01*
X003599Y004282D01*
X003594Y004287D01*
X003287Y004287D01*
X003287Y004594D01*
X003196Y004685D01*
X003068Y004685D01*
X003034Y004651D01*
X003000Y004685D01*
X002871Y004685D01*
X002837Y004651D01*
X002803Y004685D01*
X002692Y004685D01*
X002692Y004706D02*
X003178Y004706D01*
X003130Y004785D02*
X002692Y004785D01*
X002692Y004863D02*
X003110Y004863D01*
X003110Y004942D02*
X002692Y004942D01*
X002692Y005020D02*
X003141Y005020D01*
X003203Y005099D02*
X002643Y005099D01*
X002565Y005177D02*
X003838Y005177D01*
X003884Y005256D02*
X002486Y005256D01*
X002408Y005334D02*
X003884Y005334D01*
X003884Y005413D02*
X002370Y005413D01*
X002371Y005491D02*
X002577Y005491D01*
X002471Y005570D02*
X002371Y005570D01*
X002375Y005648D02*
X002433Y005648D01*
X001816Y005727D02*
X001810Y005727D01*
X001787Y005648D02*
X001530Y005648D01*
X001504Y005570D02*
X001776Y005570D01*
X001776Y005491D02*
X001504Y005491D01*
X001504Y005413D02*
X001776Y005413D01*
X001816Y005334D02*
X001464Y005334D01*
X001464Y005256D02*
X001816Y005256D01*
X001816Y005177D02*
X001464Y005177D01*
X001390Y005703D02*
X001078Y005703D01*
X001015Y005765D01*
X001015Y006765D01*
X001515Y006765D01*
X001515Y006390D01*
X001390Y006265D01*
X001390Y005703D01*
X001390Y005727D02*
X001053Y005727D01*
X001015Y005805D02*
X001390Y005805D01*
X001390Y005884D02*
X001015Y005884D01*
X001015Y005962D02*
X001390Y005962D01*
X001390Y006041D02*
X001015Y006041D01*
X001015Y006119D02*
X001390Y006119D01*
X001390Y006198D02*
X001015Y006198D01*
X001015Y006276D02*
X001401Y006276D01*
X001480Y006355D02*
X001015Y006355D01*
X001015Y006433D02*
X001515Y006433D01*
X001515Y006512D02*
X001015Y006512D01*
X001015Y006590D02*
X001515Y006590D01*
X001515Y006669D02*
X001015Y006669D01*
X001015Y006747D02*
X001515Y006747D01*
X001596Y006904D02*
X001622Y006904D01*
X001850Y006983D02*
X001930Y006983D01*
X001930Y007061D02*
X001850Y007061D01*
X001850Y007140D02*
X001930Y007140D01*
X001930Y007376D02*
X001850Y007376D01*
X001850Y007454D02*
X001930Y007454D01*
X001930Y007533D02*
X001850Y007533D01*
X001850Y007611D02*
X001930Y007611D01*
X002247Y007219D02*
X002425Y007219D01*
X002425Y007140D02*
X002247Y007140D01*
X002244Y007061D02*
X002425Y007061D01*
X002425Y006983D02*
X002197Y006983D01*
X002158Y006904D02*
X002425Y006904D01*
X002425Y006826D02*
X002207Y006826D01*
X002207Y006747D02*
X002425Y006747D01*
X002425Y006669D02*
X002400Y006669D01*
X003703Y005491D02*
X003884Y005491D01*
X003931Y005570D02*
X003809Y005570D01*
X003847Y005648D02*
X004235Y005648D01*
X004235Y005727D02*
X003855Y005727D01*
X003855Y005805D02*
X004260Y005805D01*
X004204Y005884D02*
X003855Y005884D01*
X003855Y005962D02*
X004125Y005962D01*
X004047Y006041D02*
X003855Y006041D01*
X003855Y006644D02*
X003855Y006886D01*
X003860Y006882D01*
X004258Y006882D01*
X004316Y006940D01*
X004316Y007346D01*
X004352Y007382D01*
X004352Y007842D01*
X004428Y007842D01*
X004428Y007382D01*
X004486Y007323D01*
X004549Y007323D01*
X004549Y007197D01*
X004807Y007197D01*
X004807Y007120D01*
X004549Y007120D01*
X004549Y006963D01*
X004558Y006927D01*
X004577Y006896D01*
X004603Y006870D01*
X004635Y006851D01*
X004670Y006842D01*
X004807Y006842D01*
X004807Y007120D01*
X004885Y007120D01*
X004885Y006842D01*
X004899Y006842D01*
X004706Y006648D01*
X004647Y006648D01*
X004589Y006590D01*
X004589Y006195D01*
X004474Y006195D01*
X004474Y006590D01*
X004415Y006648D01*
X003860Y006648D01*
X003855Y006644D01*
X003855Y006669D02*
X004727Y006669D01*
X004805Y006747D02*
X003855Y006747D01*
X003855Y006826D02*
X004884Y006826D01*
X004885Y006904D02*
X004807Y006904D01*
X004807Y006983D02*
X004885Y006983D01*
X004885Y007061D02*
X004807Y007061D01*
X004807Y007140D02*
X004316Y007140D01*
X004316Y007061D02*
X004549Y007061D01*
X004549Y006983D02*
X004316Y006983D01*
X004281Y006904D02*
X004572Y006904D01*
X004589Y006590D02*
X004473Y006590D01*
X004474Y006512D02*
X004589Y006512D01*
X004589Y006433D02*
X004474Y006433D01*
X004474Y006355D02*
X004589Y006355D01*
X004589Y006276D02*
X004474Y006276D01*
X004474Y006198D02*
X004589Y006198D01*
X004944Y005835D02*
X005253Y005835D01*
X005402Y005835D01*
X005465Y005898D01*
X005570Y006003D01*
X005570Y006073D01*
X005606Y006073D01*
X005665Y006132D01*
X005665Y007148D01*
X005606Y007207D01*
X005144Y007207D01*
X005144Y007261D01*
X005606Y007261D01*
X005665Y007320D01*
X005665Y007835D01*
X005658Y007842D01*
X005747Y007842D01*
X005740Y007835D01*
X005740Y007320D01*
X005799Y007261D01*
X005821Y007261D01*
X005875Y007207D01*
X005799Y007207D01*
X005740Y007148D01*
X005740Y006132D01*
X005799Y006073D01*
X006275Y006073D01*
X006334Y006132D01*
X006334Y006210D01*
X006523Y006210D01*
X006523Y005815D01*
X006474Y005795D01*
X006360Y005681D01*
X006299Y005533D01*
X006299Y005372D01*
X006360Y005224D01*
X006474Y005110D01*
X006622Y005049D01*
X006783Y005049D01*
X006931Y005110D01*
X007045Y005224D01*
X007106Y005372D01*
X007106Y005533D01*
X007045Y005681D01*
X006931Y005795D01*
X006882Y005815D01*
X006882Y006362D01*
X006854Y006390D01*
X007035Y006571D01*
X007335Y006571D01*
X007394Y006630D01*
X007394Y007106D01*
X007335Y007165D01*
X006820Y007165D01*
X006813Y007159D01*
X006757Y007215D01*
X006757Y007814D01*
X006779Y007793D01*
X006761Y007775D01*
X006761Y007299D01*
X006820Y007240D01*
X007335Y007240D01*
X007394Y007299D01*
X007394Y007775D01*
X007335Y007834D01*
X007257Y007834D01*
X007257Y007965D01*
X007232Y007990D01*
X007232Y008071D01*
X007190Y008174D01*
X007111Y008252D01*
X007008Y008295D01*
X006897Y008295D01*
X006794Y008252D01*
X006726Y008184D01*
X006652Y008257D01*
X006632Y008277D01*
X006632Y008712D01*
X006709Y008712D01*
X006709Y008971D01*
X006747Y008971D01*
X006747Y008712D01*
X006773Y008712D01*
X006773Y008670D01*
X006783Y008635D01*
X006801Y008603D01*
X006827Y008577D01*
X006859Y008558D01*
X006895Y008549D01*
X007070Y008549D01*
X007070Y008865D01*
X007150Y008865D01*
X007150Y008549D01*
X007325Y008549D01*
X007361Y008558D01*
X007393Y008577D01*
X007419Y008603D01*
X007425Y008613D01*
X007425Y005342D01*
X007462Y005254D01*
X007529Y005187D01*
X007617Y005150D01*
X007964Y005150D01*
X007923Y005051D01*
X007923Y004939D01*
X007965Y004836D01*
X008044Y004758D01*
X008147Y004715D01*
X008258Y004715D01*
X008292Y004729D01*
X008472Y004583D01*
X008424Y004534D01*
X008412Y004505D01*
X008401Y004530D01*
X008369Y004578D01*
X008328Y004619D01*
X008280Y004651D01*
X008226Y004674D01*
X008178Y004683D01*
X008178Y004428D01*
X008102Y004428D01*
X008102Y004683D01*
X008054Y004674D01*
X008000Y004651D01*
X007952Y004619D01*
X007911Y004578D01*
X007879Y004530D01*
X007868Y004505D01*
X007856Y004534D01*
X007784Y004606D01*
X007691Y004645D01*
X007597Y004645D01*
X007390Y004852D01*
X004927Y004852D01*
X004896Y004859D01*
X004896Y004948D01*
X005088Y004948D01*
X005146Y005007D01*
X005146Y005523D01*
X005088Y005582D01*
X005070Y005582D01*
X005070Y005709D01*
X004985Y005794D01*
X004944Y005835D01*
X004973Y005805D02*
X005371Y005805D01*
X005351Y005791D02*
X005302Y005742D01*
X005260Y005685D01*
X005229Y005623D01*
X005207Y005556D01*
X005197Y005492D01*
X005600Y005492D01*
X005600Y005413D01*
X005146Y005413D01*
X005197Y005413D02*
X005207Y005349D01*
X005229Y005282D01*
X005260Y005220D01*
X005302Y005163D01*
X005351Y005114D01*
X005407Y005073D01*
X005470Y005041D01*
X005536Y005020D01*
X005600Y005010D01*
X005600Y005412D01*
X005680Y005412D01*
X005680Y005010D01*
X005744Y005020D01*
X005810Y005041D01*
X005873Y005073D01*
X005929Y005114D01*
X005978Y005163D01*
X006020Y005220D01*
X006051Y005282D01*
X006073Y005349D01*
X006083Y005413D01*
X005680Y005413D01*
X006299Y005413D01*
X006299Y005491D02*
X005680Y005491D01*
X005680Y005492D02*
X006083Y005492D01*
X006073Y005556D01*
X006051Y005623D01*
X006020Y005685D01*
X005978Y005742D01*
X005929Y005791D01*
X005873Y005832D01*
X005810Y005864D01*
X005744Y005885D01*
X005680Y005895D01*
X005680Y005493D01*
X005600Y005493D01*
X005600Y005895D01*
X005536Y005885D01*
X005470Y005864D01*
X005407Y005832D01*
X005351Y005791D01*
X005291Y005727D02*
X005052Y005727D01*
X005070Y005648D02*
X005242Y005648D01*
X005212Y005570D02*
X005099Y005570D01*
X005146Y005491D02*
X005600Y005491D01*
X005600Y005413D02*
X005197Y005413D01*
X005212Y005334D02*
X005146Y005334D01*
X005146Y005256D02*
X005242Y005256D01*
X005291Y005177D02*
X005146Y005177D01*
X005146Y005099D02*
X005372Y005099D01*
X005534Y005020D02*
X005146Y005020D01*
X004896Y004942D02*
X007923Y004942D01*
X007923Y005020D02*
X005746Y005020D01*
X005680Y005020D02*
X005600Y005020D01*
X005600Y005099D02*
X005680Y005099D01*
X005680Y005177D02*
X005600Y005177D01*
X005600Y005256D02*
X005680Y005256D01*
X005680Y005334D02*
X005600Y005334D01*
X005680Y005413D02*
X005680Y005492D01*
X005680Y005570D02*
X005600Y005570D01*
X005600Y005648D02*
X005680Y005648D01*
X005680Y005727D02*
X005600Y005727D01*
X005600Y005805D02*
X005680Y005805D01*
X005680Y005884D02*
X005600Y005884D01*
X005532Y005884D02*
X005451Y005884D01*
X005530Y005962D02*
X006523Y005962D01*
X006523Y005884D02*
X005748Y005884D01*
X005909Y005805D02*
X006500Y005805D01*
X006406Y005727D02*
X005989Y005727D01*
X006038Y005648D02*
X006347Y005648D01*
X006314Y005570D02*
X006068Y005570D01*
X006068Y005334D02*
X006314Y005334D01*
X006347Y005256D02*
X006038Y005256D01*
X005989Y005177D02*
X006407Y005177D01*
X006501Y005099D02*
X005908Y005099D01*
X005570Y006041D02*
X006523Y006041D01*
X006523Y006119D02*
X006321Y006119D01*
X006334Y006198D02*
X006523Y006198D01*
X006882Y006198D02*
X007425Y006198D01*
X007425Y006276D02*
X006882Y006276D01*
X006882Y006355D02*
X007425Y006355D01*
X007425Y006433D02*
X006898Y006433D01*
X006976Y006512D02*
X007425Y006512D01*
X007425Y006590D02*
X007355Y006590D01*
X007394Y006669D02*
X007425Y006669D01*
X007425Y006747D02*
X007394Y006747D01*
X007394Y006826D02*
X007425Y006826D01*
X007425Y006904D02*
X007394Y006904D01*
X007394Y006983D02*
X007425Y006983D01*
X007425Y007061D02*
X007394Y007061D01*
X007425Y007140D02*
X007360Y007140D01*
X007425Y007219D02*
X006757Y007219D01*
X006757Y007297D02*
X006763Y007297D01*
X006757Y007376D02*
X006761Y007376D01*
X006757Y007454D02*
X006761Y007454D01*
X006757Y007533D02*
X006761Y007533D01*
X006757Y007611D02*
X006761Y007611D01*
X006757Y007690D02*
X006761Y007690D01*
X006757Y007768D02*
X006761Y007768D01*
X006328Y007768D02*
X005890Y007768D01*
X005890Y007842D02*
X006024Y007842D01*
X006083Y007900D01*
X006083Y008712D01*
X006024Y008770D01*
X005890Y008770D01*
X005890Y009265D01*
X006078Y009803D01*
X006265Y009803D01*
X006328Y009740D01*
X006328Y009307D01*
X006273Y009252D01*
X006273Y008128D01*
X006328Y008073D01*
X006328Y007390D01*
X006265Y007328D01*
X005953Y007328D01*
X005890Y007390D01*
X005890Y007842D01*
X006029Y007847D02*
X006328Y007847D01*
X006328Y007925D02*
X006083Y007925D01*
X006083Y008004D02*
X006328Y008004D01*
X006318Y008082D02*
X006083Y008082D01*
X006083Y008161D02*
X006273Y008161D01*
X006273Y008239D02*
X006083Y008239D01*
X006083Y008318D02*
X006273Y008318D01*
X006273Y008396D02*
X006083Y008396D01*
X006083Y008475D02*
X006273Y008475D01*
X006273Y008553D02*
X006083Y008553D01*
X006083Y008632D02*
X006273Y008632D01*
X006273Y008710D02*
X006083Y008710D01*
X006273Y008789D02*
X005890Y008789D01*
X005890Y008867D02*
X006273Y008867D01*
X006273Y008946D02*
X005890Y008946D01*
X005890Y009024D02*
X006273Y009024D01*
X006273Y009103D02*
X005890Y009103D01*
X005890Y009181D02*
X006273Y009181D01*
X006280Y009260D02*
X005890Y009260D01*
X005915Y009338D02*
X006328Y009338D01*
X006328Y009417D02*
X005943Y009417D01*
X005970Y009495D02*
X006328Y009495D01*
X006328Y009574D02*
X005998Y009574D01*
X006025Y009652D02*
X006328Y009652D01*
X006328Y009731D02*
X006052Y009731D01*
X005904Y009731D02*
X003769Y009731D01*
X003738Y009888D02*
X003733Y009888D01*
X003945Y009652D02*
X005877Y009652D01*
X005849Y009574D02*
X004024Y009574D01*
X004102Y009495D02*
X005822Y009495D01*
X005795Y009417D02*
X004181Y009417D01*
X004259Y009338D02*
X005765Y009338D01*
X005740Y009260D02*
X004338Y009260D01*
X004382Y009181D02*
X005750Y009181D01*
X005750Y009103D02*
X004382Y009103D01*
X004382Y009024D02*
X005750Y009024D01*
X005750Y008946D02*
X004382Y008946D01*
X004382Y008867D02*
X005750Y008867D01*
X005750Y008789D02*
X004382Y008789D01*
X004023Y008789D02*
X003703Y008789D01*
X003907Y009181D02*
X002404Y009181D01*
X003108Y009888D02*
X003172Y009888D01*
X003173Y010437D02*
X003107Y010437D01*
X003717Y010673D02*
X000380Y010673D01*
X000380Y010751D02*
X003749Y010751D01*
X003769Y009260D02*
X003828Y009260D01*
X004352Y007768D02*
X004428Y007768D01*
X004428Y007690D02*
X004352Y007690D01*
X004352Y007611D02*
X004428Y007611D01*
X004428Y007533D02*
X004352Y007533D01*
X004352Y007454D02*
X004428Y007454D01*
X004434Y007376D02*
X004346Y007376D01*
X004316Y007297D02*
X004549Y007297D01*
X004549Y007219D02*
X004316Y007219D01*
X005144Y007219D02*
X005864Y007219D01*
X005763Y007297D02*
X005642Y007297D01*
X005665Y007376D02*
X005740Y007376D01*
X005740Y007454D02*
X005665Y007454D01*
X005665Y007533D02*
X005740Y007533D01*
X005740Y007611D02*
X005665Y007611D01*
X005665Y007690D02*
X005740Y007690D01*
X005740Y007768D02*
X005665Y007768D01*
X005890Y007690D02*
X006328Y007690D01*
X006328Y007611D02*
X005890Y007611D01*
X005890Y007533D02*
X006328Y007533D01*
X006328Y007454D02*
X005890Y007454D01*
X005904Y007376D02*
X006313Y007376D01*
X005740Y007140D02*
X005665Y007140D01*
X005665Y007061D02*
X005740Y007061D01*
X005740Y006983D02*
X005665Y006983D01*
X005665Y006904D02*
X005740Y006904D01*
X005740Y006826D02*
X005665Y006826D01*
X005665Y006747D02*
X005740Y006747D01*
X005740Y006669D02*
X005665Y006669D01*
X005665Y006590D02*
X005740Y006590D01*
X005740Y006512D02*
X005665Y006512D01*
X005665Y006433D02*
X005740Y006433D01*
X005740Y006355D02*
X005665Y006355D01*
X005665Y006276D02*
X005740Y006276D01*
X005740Y006198D02*
X005665Y006198D01*
X005652Y006119D02*
X005753Y006119D01*
X006882Y006119D02*
X007425Y006119D01*
X007425Y006041D02*
X006882Y006041D01*
X006882Y005962D02*
X007425Y005962D01*
X007425Y005884D02*
X006882Y005884D01*
X006905Y005805D02*
X007425Y005805D01*
X007425Y005727D02*
X006999Y005727D01*
X007058Y005648D02*
X007425Y005648D01*
X007425Y005570D02*
X007091Y005570D01*
X007106Y005491D02*
X007425Y005491D01*
X007425Y005413D02*
X007106Y005413D01*
X007091Y005334D02*
X007428Y005334D01*
X007461Y005256D02*
X007058Y005256D01*
X006998Y005177D02*
X007551Y005177D01*
X007457Y004785D02*
X008017Y004785D01*
X007954Y004863D02*
X004896Y004863D01*
X004743Y004392D02*
X003287Y004392D01*
X003287Y004314D02*
X004664Y004314D01*
X004339Y004471D02*
X004191Y004471D01*
X004227Y004549D02*
X004303Y004549D01*
X004303Y004628D02*
X004227Y004628D01*
X004227Y004706D02*
X004303Y004706D01*
X004303Y004785D02*
X004227Y004785D01*
X004227Y004863D02*
X004303Y004863D01*
X004303Y004942D02*
X004227Y004942D01*
X003760Y005099D02*
X003577Y005099D01*
X003602Y004706D02*
X003634Y004706D01*
X003634Y004628D02*
X003489Y004628D01*
X003634Y004549D02*
X003287Y004549D01*
X003287Y004471D02*
X003670Y004471D01*
X003291Y004628D02*
X003253Y004628D01*
X003184Y003640D02*
X002935Y003640D01*
X002935Y003640D01*
X003184Y003640D01*
X003184Y003640D01*
X003184Y003640D01*
X002345Y003640D02*
X002345Y003640D01*
X002096Y003640D01*
X002096Y003640D01*
X002345Y003640D01*
X002345Y003640D01*
X002096Y003640D02*
X002096Y003640D01*
X001862Y004132D02*
X001862Y004132D01*
X001862Y004327D01*
X001725Y004327D01*
X001675Y004314D01*
X001374Y004314D01*
X001374Y004257D02*
X001374Y004375D01*
X001376Y004375D01*
X001408Y004394D01*
X001434Y004420D01*
X001452Y004452D01*
X001458Y004473D01*
X001458Y004464D01*
X001517Y004406D01*
X001993Y004406D01*
X001993Y004327D01*
X001862Y004327D01*
X001862Y004132D01*
X001862Y004157D02*
X001862Y004157D01*
X001862Y004235D02*
X001862Y004235D01*
X001862Y004314D02*
X001862Y004314D01*
X001993Y004392D02*
X001406Y004392D01*
X001458Y004471D02*
X001458Y004471D01*
X001465Y004257D02*
X001374Y004257D01*
X001465Y004257D02*
X001557Y004165D01*
X001568Y004207D01*
X001594Y004252D01*
X001630Y004288D01*
X001675Y004314D01*
X001585Y004235D02*
X001487Y004235D01*
X001687Y002979D02*
X001730Y002979D01*
X001730Y002901D02*
X001687Y002901D01*
X001687Y002822D02*
X001730Y002822D01*
X001730Y002744D02*
X001687Y002744D01*
X001687Y002665D02*
X001730Y002665D01*
X001730Y002587D02*
X001646Y002587D01*
X001719Y002508D02*
X001730Y002508D01*
X001727Y002430D02*
X001749Y002430D01*
X001727Y002351D02*
X001827Y002351D01*
X001906Y002273D02*
X001430Y002273D01*
X000991Y007376D02*
X000380Y007376D01*
X000380Y007454D02*
X000991Y007454D01*
X000993Y007533D02*
X000380Y007533D01*
X000380Y007611D02*
X001040Y007611D01*
X006390Y009990D02*
X006692Y009990D01*
X006707Y010005D01*
X007217Y010005D01*
X007313Y010100D01*
X007313Y010485D01*
X007395Y010567D01*
X007760Y010567D01*
X007765Y010563D01*
X007765Y010990D01*
X007453Y010990D01*
X007332Y010869D01*
X007332Y010586D01*
X007273Y010528D01*
X007178Y010528D01*
X007015Y010365D01*
X006390Y010365D01*
X006390Y009990D01*
X006390Y010045D02*
X007257Y010045D01*
X007313Y010123D02*
X006390Y010123D01*
X006390Y010202D02*
X007313Y010202D01*
X007313Y010280D02*
X006390Y010280D01*
X006390Y010359D02*
X007313Y010359D01*
X007313Y010437D02*
X007087Y010437D01*
X007166Y010516D02*
X007343Y010516D01*
X007332Y010594D02*
X007765Y010594D01*
X007765Y010673D02*
X007332Y010673D01*
X007332Y010751D02*
X007765Y010751D01*
X007765Y010830D02*
X007332Y010830D01*
X007371Y010908D02*
X007765Y010908D01*
X007765Y010987D02*
X007449Y010987D01*
X007403Y010977D02*
X007367Y010967D01*
X007335Y010949D01*
X007332Y010945D01*
X007332Y010994D01*
X007488Y011150D01*
X009042Y011150D01*
X009198Y010995D01*
X009198Y010320D01*
X009188Y010330D01*
X009182Y010330D01*
X009184Y010332D01*
X009184Y010808D01*
X009126Y010867D01*
X008610Y010867D01*
X008584Y010841D01*
X008584Y010878D01*
X008525Y010937D01*
X008049Y010937D01*
X007990Y010878D01*
X007990Y010490D01*
X007955Y010490D01*
X007955Y010580D01*
X007658Y010580D01*
X007658Y010660D01*
X007955Y010660D01*
X007955Y010855D01*
X007945Y010891D01*
X007927Y010922D01*
X007901Y010949D01*
X007869Y010967D01*
X007833Y010977D01*
X007658Y010977D01*
X007658Y010660D01*
X007578Y010660D01*
X007578Y010977D01*
X007403Y010977D01*
X007332Y010987D02*
X009198Y010987D01*
X009198Y010908D02*
X008554Y010908D01*
X008828Y010928D02*
X009140Y010928D01*
X009203Y010865D01*
X009203Y010365D01*
X009265Y010240D01*
X009265Y009790D01*
X009366Y009683D01*
X009575Y009574D02*
X009745Y009574D01*
X009745Y009601D02*
X009745Y009532D01*
X009533Y009321D01*
X009210Y009321D01*
X009210Y009534D01*
X009535Y009534D01*
X009594Y009593D01*
X009594Y009678D01*
X009828Y009678D01*
X009828Y009659D01*
X009803Y009659D01*
X009745Y009601D01*
X009796Y009652D02*
X009594Y009652D01*
X009640Y009615D02*
X009703Y009678D01*
X009953Y009678D01*
X010140Y009865D01*
X010140Y010052D01*
X010582Y010045D02*
X010900Y010045D01*
X010900Y010123D02*
X010582Y010123D01*
X010582Y010202D02*
X010900Y010202D01*
X010900Y010280D02*
X010582Y010280D01*
X010582Y010359D02*
X010900Y010359D01*
X010900Y010437D02*
X010582Y010437D01*
X010582Y010516D02*
X010900Y010516D01*
X010900Y010594D02*
X010582Y010594D01*
X010582Y010673D02*
X010900Y010673D01*
X010900Y010751D02*
X010582Y010751D01*
X010582Y010830D02*
X010900Y010830D01*
X010900Y010908D02*
X010582Y010908D01*
X010582Y010987D02*
X010900Y010987D01*
X010900Y011065D02*
X010582Y011065D01*
X010582Y011144D02*
X010900Y011144D01*
X010900Y009966D02*
X010582Y009966D01*
X010582Y009888D02*
X010900Y009888D01*
X010900Y009809D02*
X010582Y009809D01*
X010582Y009731D02*
X010900Y009731D01*
X010900Y009652D02*
X010582Y009652D01*
X010592Y009574D02*
X010900Y009574D01*
X010900Y009495D02*
X010592Y009495D01*
X010592Y009417D02*
X010900Y009417D01*
X010900Y009338D02*
X010592Y009338D01*
X010592Y009260D02*
X010900Y009260D01*
X010900Y009181D02*
X010592Y009181D01*
X010592Y009103D02*
X010900Y009103D01*
X010900Y009024D02*
X010592Y009024D01*
X010543Y008946D02*
X010900Y008946D01*
X010900Y008867D02*
X008855Y008867D01*
X008855Y008789D02*
X009681Y008789D01*
X009641Y008710D02*
X008855Y008710D01*
X008855Y008632D02*
X009427Y008632D01*
X009307Y008553D02*
X008855Y008553D01*
X008855Y008161D02*
X009324Y008161D01*
X009328Y007972D02*
X009153Y007972D01*
X009117Y007962D01*
X009085Y007944D01*
X009059Y007917D01*
X009041Y007886D01*
X009031Y007850D01*
X009031Y007655D01*
X009328Y007655D01*
X009328Y007972D01*
X009328Y007925D02*
X009408Y007925D01*
X009408Y007972D02*
X009408Y007655D01*
X009705Y007655D01*
X009705Y007850D01*
X009695Y007886D01*
X009677Y007917D01*
X009651Y007944D01*
X009619Y007962D01*
X009583Y007972D01*
X009408Y007972D01*
X009408Y007847D02*
X009328Y007847D01*
X009328Y007768D02*
X009408Y007768D01*
X009408Y007690D02*
X009328Y007690D01*
X009328Y007655D02*
X009408Y007655D01*
X009408Y007575D01*
X009705Y007575D01*
X009705Y007380D01*
X009695Y007344D01*
X009677Y007313D01*
X009651Y007286D01*
X009619Y007268D01*
X009583Y007258D01*
X009408Y007258D01*
X009408Y007575D01*
X009328Y007575D01*
X009328Y007258D01*
X009153Y007258D01*
X009117Y007268D01*
X009085Y007286D01*
X009059Y007313D01*
X009041Y007344D01*
X009031Y007380D01*
X009031Y007575D01*
X009328Y007575D01*
X009328Y007655D01*
X009328Y007611D02*
X008855Y007611D01*
X008855Y007533D02*
X009031Y007533D01*
X009031Y007454D02*
X008855Y007454D01*
X008855Y007376D02*
X009032Y007376D01*
X009074Y007297D02*
X008855Y007297D01*
X008855Y007219D02*
X009877Y007219D01*
X009877Y007297D02*
X009661Y007297D01*
X009703Y007376D02*
X009740Y007376D01*
X009740Y007454D02*
X009705Y007454D01*
X009705Y007533D02*
X009740Y007533D01*
X009740Y007611D02*
X009408Y007611D01*
X009408Y007533D02*
X009328Y007533D01*
X009328Y007454D02*
X009408Y007454D01*
X009408Y007376D02*
X009328Y007376D01*
X009328Y007297D02*
X009408Y007297D01*
X009705Y007690D02*
X009740Y007690D01*
X009740Y007768D02*
X009705Y007768D01*
X009705Y007847D02*
X009740Y007847D01*
X009788Y007925D02*
X009669Y007925D01*
X009681Y008004D02*
X008855Y008004D01*
X008855Y008082D02*
X009681Y008082D01*
X009795Y008318D02*
X010900Y008318D01*
X010900Y008396D02*
X009795Y008396D01*
X009948Y008412D02*
X009948Y008621D01*
X010255Y008621D01*
X010255Y008534D01*
X010246Y008498D01*
X010227Y008466D01*
X010201Y008440D01*
X010169Y008422D01*
X010134Y008412D01*
X009948Y008412D01*
X009948Y008475D02*
X009948Y008475D01*
X009948Y008553D02*
X009948Y008553D01*
X009948Y008632D02*
X009948Y008632D01*
X009948Y008710D02*
X009948Y008710D01*
X009948Y008789D02*
X009948Y008789D01*
X010215Y008789D02*
X010900Y008789D01*
X010900Y008710D02*
X010255Y008710D01*
X010255Y008632D02*
X010900Y008632D01*
X010900Y008553D02*
X010255Y008553D01*
X010232Y008475D02*
X010900Y008475D01*
X010900Y008239D02*
X010196Y008239D01*
X010215Y008161D02*
X010900Y008161D01*
X010900Y008082D02*
X010215Y008082D01*
X010215Y008004D02*
X010900Y008004D01*
X010900Y007925D02*
X010282Y007925D01*
X010334Y007847D02*
X010900Y007847D01*
X010900Y007768D02*
X010334Y007768D01*
X010334Y007690D02*
X010900Y007690D01*
X010900Y007611D02*
X010334Y007611D01*
X010334Y007533D02*
X010900Y007533D01*
X010900Y007454D02*
X010334Y007454D01*
X010334Y007376D02*
X010900Y007376D01*
X010900Y007297D02*
X010197Y007297D01*
X010197Y007219D02*
X010900Y007219D01*
X010900Y007140D02*
X010197Y007140D01*
X010197Y007061D02*
X010900Y007061D01*
X010900Y006983D02*
X010197Y006983D01*
X010197Y006904D02*
X010900Y006904D01*
X010900Y006826D02*
X010197Y006826D01*
X010197Y006747D02*
X010900Y006747D01*
X010900Y006669D02*
X010197Y006669D01*
X010129Y006590D02*
X010900Y006590D01*
X010900Y006512D02*
X010089Y006512D01*
X010106Y006433D02*
X010900Y006433D01*
X010900Y006355D02*
X010106Y006355D01*
X010093Y006276D02*
X010900Y006276D01*
X010900Y006198D02*
X010060Y006198D01*
X010003Y006119D02*
X010900Y006119D01*
X010900Y006041D02*
X009915Y006041D01*
X009490Y006041D02*
X008855Y006041D01*
X008855Y006119D02*
X009402Y006119D01*
X009345Y006198D02*
X008855Y006198D01*
X008855Y006276D02*
X009312Y006276D01*
X009299Y006355D02*
X008855Y006355D01*
X008855Y006433D02*
X009299Y006433D01*
X009316Y006512D02*
X008855Y006512D01*
X008855Y006590D02*
X009349Y006590D01*
X009411Y006669D02*
X008855Y006669D01*
X008855Y006747D02*
X009511Y006747D01*
X009877Y006826D02*
X008855Y006826D01*
X008855Y006904D02*
X009877Y006904D01*
X009877Y006983D02*
X008855Y006983D01*
X008855Y007061D02*
X009877Y007061D01*
X009877Y007140D02*
X008855Y007140D01*
X008855Y007690D02*
X009031Y007690D01*
X009031Y007768D02*
X008855Y007768D01*
X008855Y007847D02*
X009031Y007847D01*
X009066Y007925D02*
X008855Y007925D01*
X009603Y008632D02*
X009641Y008632D01*
X009573Y009163D02*
X009210Y009163D01*
X009210Y009110D01*
X009203Y009103D01*
X009203Y009053D01*
X010453Y009053D01*
X010453Y009553D01*
X010025Y009553D01*
X010010Y009538D01*
X009948Y009538D01*
X009885Y009475D01*
X009573Y009163D01*
X009591Y009181D02*
X010453Y009181D01*
X010453Y009103D02*
X009203Y009103D01*
X009112Y008946D02*
X008852Y008946D01*
X008914Y009024D02*
X008991Y009024D01*
X008991Y009103D02*
X008914Y009103D01*
X008914Y009181D02*
X008991Y009181D01*
X008991Y009260D02*
X008914Y009260D01*
X008914Y009338D02*
X008991Y009338D01*
X008991Y009466D02*
X008914Y009466D01*
X008914Y009735D01*
X008980Y009735D01*
X008980Y010024D01*
X009000Y010024D01*
X009000Y009843D01*
X008991Y009843D01*
X008991Y009466D01*
X008991Y009495D02*
X008914Y009495D01*
X008914Y009574D02*
X008991Y009574D01*
X008991Y009652D02*
X008914Y009652D01*
X008914Y009731D02*
X008991Y009731D01*
X008980Y009809D02*
X008991Y009809D01*
X008980Y009888D02*
X009000Y009888D01*
X009000Y009966D02*
X008980Y009966D01*
X009184Y010359D02*
X009198Y010359D01*
X009198Y010437D02*
X009184Y010437D01*
X009184Y010516D02*
X009198Y010516D01*
X009198Y010594D02*
X009184Y010594D01*
X009184Y010673D02*
X009198Y010673D01*
X009198Y010751D02*
X009184Y010751D01*
X009198Y010830D02*
X009163Y010830D01*
X009127Y011065D02*
X007403Y011065D01*
X007481Y011144D02*
X009049Y011144D01*
X008868Y010570D02*
X008850Y010553D01*
X008828Y010553D01*
X008242Y009865D02*
X008258Y009826D01*
X008311Y009773D01*
X008311Y009593D01*
X008370Y009534D01*
X008476Y009534D01*
X008477Y009533D01*
X008601Y009533D01*
X008602Y009534D01*
X008640Y009534D01*
X008640Y009428D01*
X008355Y009428D01*
X008355Y009443D01*
X008296Y009502D01*
X008253Y009502D01*
X008078Y009678D01*
X007453Y009678D01*
X007453Y009865D01*
X008242Y009865D01*
X008275Y009809D02*
X007453Y009809D01*
X007453Y009731D02*
X008311Y009731D01*
X008311Y009652D02*
X008103Y009652D01*
X008181Y009574D02*
X008330Y009574D01*
X008303Y009495D02*
X008640Y009495D01*
X008203Y009355D02*
X008203Y009130D01*
X007617Y009130D01*
X007529Y009093D01*
X007462Y009026D01*
X007425Y008938D01*
X007425Y008857D01*
X007265Y008740D01*
X006640Y008740D01*
X006640Y009110D01*
X006645Y009115D01*
X007203Y009115D01*
X007346Y009258D01*
X007348Y009258D01*
X007407Y009317D01*
X007407Y009319D01*
X007453Y009365D01*
X008192Y009365D01*
X008203Y009355D01*
X008203Y009338D02*
X007426Y009338D01*
X007350Y009260D02*
X008203Y009260D01*
X008203Y009181D02*
X007269Y009181D01*
X007255Y009365D02*
X006703Y009365D01*
X006703Y009803D01*
X006729Y009829D01*
X006753Y009829D01*
X006783Y009859D01*
X007273Y009859D01*
X007279Y009865D01*
X007390Y009865D01*
X007453Y009928D01*
X007453Y010303D01*
X007703Y010303D01*
X007703Y009678D01*
X007530Y009505D01*
X007395Y009505D01*
X007391Y009502D01*
X007359Y009502D01*
X007300Y009443D01*
X007300Y009411D01*
X007255Y009365D01*
X007300Y009417D02*
X006703Y009417D01*
X006703Y009495D02*
X007352Y009495D01*
X007599Y009574D02*
X006703Y009574D01*
X006703Y009652D02*
X007677Y009652D01*
X007703Y009731D02*
X006703Y009731D01*
X006709Y009809D02*
X007703Y009809D01*
X007703Y009888D02*
X007413Y009888D01*
X007453Y009966D02*
X007703Y009966D01*
X007703Y010045D02*
X007453Y010045D01*
X007453Y010123D02*
X007703Y010123D01*
X007703Y010202D02*
X007453Y010202D01*
X007453Y010280D02*
X007703Y010280D01*
X007658Y010594D02*
X007990Y010594D01*
X007990Y010516D02*
X007955Y010516D01*
X007955Y010673D02*
X007990Y010673D01*
X007990Y010751D02*
X007955Y010751D01*
X007955Y010830D02*
X007990Y010830D01*
X008020Y010908D02*
X007935Y010908D01*
X007658Y010908D02*
X007578Y010908D01*
X007578Y010830D02*
X007658Y010830D01*
X007658Y010751D02*
X007578Y010751D01*
X007578Y010673D02*
X007658Y010673D01*
X007606Y009293D02*
X008049Y009293D01*
X008049Y009235D01*
X007760Y009235D01*
X007606Y009235D01*
X007606Y009293D01*
X007606Y009260D02*
X008049Y009260D01*
X007551Y009103D02*
X006640Y009103D01*
X006640Y009024D02*
X007461Y009024D01*
X007428Y008946D02*
X006640Y008946D01*
X006709Y008946D02*
X006747Y008946D01*
X006747Y008867D02*
X006709Y008867D01*
X006640Y008867D02*
X007425Y008867D01*
X007331Y008789D02*
X006640Y008789D01*
X006709Y008789D02*
X006747Y008789D01*
X006773Y008710D02*
X006632Y008710D01*
X006632Y008632D02*
X006785Y008632D01*
X006879Y008553D02*
X006632Y008553D01*
X006632Y008475D02*
X007425Y008475D01*
X007425Y008553D02*
X007341Y008553D01*
X007425Y008396D02*
X006632Y008396D01*
X006632Y008318D02*
X007425Y008318D01*
X007425Y008239D02*
X007124Y008239D01*
X007195Y008161D02*
X007425Y008161D01*
X007425Y008082D02*
X007228Y008082D01*
X007232Y008004D02*
X007425Y008004D01*
X007425Y007925D02*
X007257Y007925D01*
X007257Y007847D02*
X007425Y007847D01*
X007425Y007768D02*
X007394Y007768D01*
X007394Y007690D02*
X007425Y007690D01*
X007425Y007611D02*
X007394Y007611D01*
X007394Y007533D02*
X007425Y007533D01*
X007425Y007454D02*
X007394Y007454D01*
X007394Y007376D02*
X007425Y007376D01*
X007425Y007297D02*
X007392Y007297D01*
X006781Y008239D02*
X006671Y008239D01*
X006652Y008257D02*
X006652Y008257D01*
X007070Y008553D02*
X007150Y008553D01*
X007150Y008632D02*
X007070Y008632D01*
X007070Y008710D02*
X007150Y008710D01*
X007150Y008789D02*
X007070Y008789D01*
X009210Y009338D02*
X009551Y009338D01*
X009629Y009417D02*
X009210Y009417D01*
X009210Y009495D02*
X009708Y009495D01*
X009827Y009417D02*
X010453Y009417D01*
X010453Y009495D02*
X009905Y009495D01*
X009748Y009338D02*
X010453Y009338D01*
X010453Y009260D02*
X009670Y009260D01*
X008855Y005962D02*
X010900Y005962D01*
X010900Y005884D02*
X008855Y005884D01*
X008855Y005805D02*
X010900Y005805D01*
X010900Y005727D02*
X008855Y005727D01*
X008855Y005648D02*
X010900Y005648D01*
X010900Y005570D02*
X008855Y005570D01*
X008855Y005491D02*
X010900Y005491D01*
X010900Y005413D02*
X008855Y005413D01*
X009064Y005334D02*
X010900Y005334D01*
X010900Y005256D02*
X009170Y005256D01*
X009214Y005177D02*
X010900Y005177D01*
X010900Y005099D02*
X009232Y005099D01*
X009232Y005020D02*
X010900Y005020D01*
X010900Y004942D02*
X010326Y004942D01*
X010442Y004863D02*
X010900Y004863D01*
X010900Y004785D02*
X010517Y004785D01*
X010582Y004549D02*
X010900Y004549D01*
X010900Y004471D02*
X010582Y004471D01*
X010558Y004392D02*
X010900Y004392D01*
X010900Y004314D02*
X010525Y004314D01*
X010461Y004235D02*
X010900Y004235D01*
X010900Y004157D02*
X010372Y004157D01*
X010427Y004078D02*
X010900Y004078D01*
X010900Y004000D02*
X010506Y004000D01*
X010544Y003921D02*
X010900Y003921D01*
X010900Y003843D02*
X010576Y003843D01*
X010582Y003764D02*
X010900Y003764D01*
X010900Y003686D02*
X010582Y003686D01*
X010564Y003607D02*
X010900Y003607D01*
X010900Y003529D02*
X010532Y003529D01*
X010476Y003450D02*
X010900Y003450D01*
X010900Y003372D02*
X010398Y003372D01*
X010900Y003293D02*
X009790Y003293D01*
X009790Y003372D02*
X009882Y003372D01*
X009804Y003450D02*
X009790Y003450D01*
X009824Y003215D02*
X010900Y003215D01*
X010900Y003136D02*
X009856Y003136D01*
X009857Y003058D02*
X010900Y003058D01*
X010900Y002979D02*
X009840Y002979D01*
X009797Y002901D02*
X010900Y002901D01*
X010900Y002822D02*
X009694Y002822D01*
X009461Y002822D02*
X008290Y002822D01*
X008290Y002744D02*
X010900Y002744D01*
X010900Y002665D02*
X008290Y002665D01*
X008290Y002587D02*
X010900Y002587D01*
X010900Y002508D02*
X008290Y002508D01*
X008290Y002430D02*
X010900Y002430D01*
X010900Y002351D02*
X008290Y002351D01*
X008290Y002273D02*
X010900Y002273D01*
X010900Y002194D02*
X008290Y002194D01*
X008290Y002116D02*
X010900Y002116D01*
X010900Y002037D02*
X009298Y002037D01*
X009283Y002044D02*
X009122Y002044D01*
X008974Y001982D01*
X008860Y001869D01*
X008799Y001720D01*
X008799Y001560D01*
X008860Y001411D01*
X008974Y001298D01*
X009122Y001236D01*
X009283Y001236D01*
X009431Y001298D01*
X009545Y001411D01*
X009606Y001560D01*
X009606Y001720D01*
X009545Y001869D01*
X009431Y001982D01*
X009283Y002044D01*
X009455Y001959D02*
X010900Y001959D01*
X010900Y001880D02*
X009533Y001880D01*
X009572Y001802D02*
X010900Y001802D01*
X010900Y001723D02*
X009605Y001723D01*
X009606Y001645D02*
X010900Y001645D01*
X010900Y001566D02*
X009606Y001566D01*
X009577Y001488D02*
X010900Y001488D01*
X010900Y001409D02*
X009543Y001409D01*
X009464Y001331D02*
X010900Y001331D01*
X010900Y001252D02*
X009322Y001252D01*
X009083Y001252D02*
X008259Y001252D01*
X008402Y001331D02*
X008941Y001331D01*
X008862Y001409D02*
X008480Y001409D01*
X008514Y001488D02*
X008828Y001488D01*
X008799Y001566D02*
X008544Y001566D01*
X008544Y001645D02*
X008799Y001645D01*
X008800Y001723D02*
X008542Y001723D01*
X008510Y001802D02*
X008833Y001802D01*
X008872Y001880D02*
X008471Y001880D01*
X008392Y001959D02*
X008950Y001959D01*
X009107Y002037D02*
X008290Y002037D01*
X007878Y001331D02*
X007731Y001331D01*
X007652Y001252D02*
X008021Y001252D01*
X007574Y001174D02*
X010900Y001174D01*
X010900Y001095D02*
X007495Y001095D01*
X007417Y001017D02*
X010900Y001017D01*
X009358Y002901D02*
X008290Y002901D01*
X008290Y002979D02*
X009315Y002979D01*
X009298Y003058D02*
X008290Y003058D01*
X008290Y003136D02*
X008770Y003136D01*
X008669Y003215D02*
X008290Y003215D01*
X008290Y003293D02*
X008627Y003293D01*
X008610Y003372D02*
X008290Y003372D01*
X008290Y003450D02*
X008612Y003450D01*
X008539Y003529D02*
X008290Y003529D01*
X008290Y003607D02*
X008490Y003607D01*
X008483Y003686D02*
X008297Y003686D01*
X008364Y003764D02*
X008416Y003764D01*
X008806Y003686D02*
X008983Y003686D01*
X008916Y003764D02*
X008864Y003764D01*
X009068Y003607D02*
X009490Y003607D01*
X009490Y003529D02*
X009135Y003529D01*
X009168Y003450D02*
X009490Y003450D01*
X009490Y003372D02*
X009170Y003372D01*
X009153Y003293D02*
X009398Y003293D01*
X009331Y003215D02*
X009111Y003215D01*
X009010Y003136D02*
X009299Y003136D01*
X009297Y003686D02*
X009483Y003686D01*
X009416Y003764D02*
X009364Y003764D01*
X009382Y004471D02*
X009398Y004471D01*
X009439Y004549D02*
X009341Y004549D01*
X009290Y004628D02*
X009548Y004628D01*
X009730Y004706D02*
X009290Y004706D01*
X009290Y004785D02*
X009763Y004785D01*
X009838Y004863D02*
X009290Y004863D01*
X009290Y004942D02*
X009954Y004942D01*
X008439Y004549D02*
X008388Y004549D01*
X008417Y004628D02*
X008315Y004628D01*
X008320Y004706D02*
X007536Y004706D01*
X007732Y004628D02*
X007965Y004628D01*
X007892Y004549D02*
X007841Y004549D01*
X008102Y004549D02*
X008178Y004549D01*
X008178Y004471D02*
X008102Y004471D01*
X008102Y004628D02*
X008178Y004628D01*
X007943Y005099D02*
X006904Y005099D01*
D33*
X007328Y004703D02*
X007640Y004390D01*
X007328Y004703D02*
X005265Y004703D01*
X004912Y004703D01*
X004600Y004765D01*
X004695Y004132D02*
X005265Y004703D01*
X005203Y004390D02*
X005703Y004390D01*
X005828Y004015D02*
X006203Y004390D01*
X005828Y004015D02*
X005078Y004015D01*
X004801Y003738D01*
X003418Y003738D01*
X003418Y003542D02*
X004113Y003542D01*
X004270Y003390D01*
X003870Y003250D02*
X003775Y003345D01*
X003418Y003345D01*
X003418Y003148D02*
X003613Y002953D01*
X004265Y002953D01*
X005140Y003828D01*
X006328Y003828D01*
X006515Y003640D01*
X007390Y003640D01*
X007640Y003890D01*
X008140Y003890D02*
X008140Y001640D01*
X007828Y001640D01*
X007328Y001140D01*
X003703Y001140D01*
X003203Y001640D01*
X001862Y003148D02*
X001585Y003148D01*
X001390Y002953D01*
X001368Y002953D02*
X001390Y002912D01*
X001862Y003345D02*
X002345Y003345D01*
X002640Y003345D01*
X002935Y003345D02*
X002935Y003640D01*
X002935Y003935D02*
X002640Y003935D01*
X002345Y003935D01*
X002148Y004132D01*
X001862Y004132D01*
X001862Y003935D02*
X001532Y003935D01*
X001162Y004078D02*
X001078Y004162D01*
X001775Y004703D02*
X002078Y004703D01*
X002148Y004632D01*
X002148Y004418D01*
X002345Y004418D02*
X002345Y004810D01*
X002140Y005015D01*
X001265Y005015D01*
X001207Y005073D01*
X001207Y005256D01*
X002073Y005256D02*
X002274Y005256D01*
X002542Y004988D01*
X002542Y004418D01*
X003418Y004132D02*
X004695Y004132D01*
X004748Y003935D02*
X005203Y004390D01*
X004748Y003935D02*
X003418Y003935D01*
X008203Y004995D02*
X008640Y004640D01*
X008640Y004390D01*
X008640Y003890D02*
X008640Y003640D01*
X008890Y003390D01*
X009578Y003078D02*
X009640Y003140D01*
X009640Y003890D01*
X009140Y004390D02*
X009140Y004890D01*
X008953Y005078D01*
X009082Y008365D02*
X009515Y008365D01*
X008947Y009172D02*
X008953Y009178D01*
X008953Y009428D01*
X008947Y009172D02*
X008539Y009172D01*
X008172Y009172D01*
X008140Y009140D01*
X008539Y009683D02*
X008539Y009941D01*
X008495Y009985D01*
X006515Y010815D02*
X006503Y010803D01*
D34*
X009328Y010924D02*
X009328Y011115D01*
X010453Y011115D01*
X010453Y010437D01*
X010452Y010437D01*
X010170Y010437D01*
X010170Y010082D01*
X010110Y010082D01*
X010110Y010437D01*
X009884Y010437D01*
X009884Y010540D01*
X009567Y010540D01*
X009567Y010360D01*
X009551Y010360D01*
X009551Y010083D01*
X009491Y010083D01*
X009491Y010243D01*
X009507Y010243D01*
X009507Y010540D01*
X009567Y010540D01*
X009567Y010600D01*
X009507Y010600D01*
X009507Y010897D01*
X009332Y010897D01*
X009332Y010919D01*
X009328Y010924D01*
X009328Y010943D02*
X010453Y010943D01*
X010453Y011001D02*
X009328Y011001D01*
X009328Y011060D02*
X010453Y011060D01*
X010453Y010884D02*
X009811Y010884D01*
X009804Y010888D02*
X009771Y010897D01*
X009567Y010897D01*
X009567Y010600D01*
X009884Y010600D01*
X009884Y010784D01*
X009875Y010817D01*
X009858Y010847D01*
X009834Y010871D01*
X009804Y010888D01*
X009870Y010826D02*
X010453Y010826D01*
X010453Y010767D02*
X009884Y010767D01*
X009884Y010709D02*
X010453Y010709D01*
X010453Y010650D02*
X009884Y010650D01*
X009884Y010533D02*
X010453Y010533D01*
X010453Y010475D02*
X009884Y010475D01*
X010110Y010416D02*
X010170Y010416D01*
X010170Y010358D02*
X010110Y010358D01*
X010110Y010299D02*
X010170Y010299D01*
X010170Y010241D02*
X010110Y010241D01*
X010110Y010182D02*
X010170Y010182D01*
X010170Y010124D02*
X010110Y010124D01*
X010110Y010082D02*
X010110Y010022D01*
X009789Y010022D01*
X009789Y010023D01*
X009551Y010023D01*
X009551Y010082D01*
X009715Y010082D01*
X010110Y010082D01*
X010110Y010065D02*
X009551Y010065D01*
X009551Y010124D02*
X009491Y010124D01*
X009491Y010182D02*
X009551Y010182D01*
X009551Y010241D02*
X009491Y010241D01*
X009507Y010299D02*
X009551Y010299D01*
X009551Y010358D02*
X009507Y010358D01*
X009507Y010416D02*
X009567Y010416D01*
X009567Y010475D02*
X009507Y010475D01*
X009507Y010533D02*
X009567Y010533D01*
X009567Y010592D02*
X010453Y010592D01*
X010170Y010022D02*
X010110Y010022D01*
X010110Y009682D01*
X010170Y009682D01*
X010170Y010022D01*
X010170Y010007D02*
X010110Y010007D01*
X010110Y009948D02*
X010170Y009948D01*
X010170Y009890D02*
X010110Y009890D01*
X010110Y009831D02*
X010170Y009831D01*
X010170Y009773D02*
X010110Y009773D01*
X010110Y009714D02*
X010170Y009714D01*
X009715Y010082D02*
X009715Y010082D01*
X009567Y010650D02*
X009507Y010650D01*
X009507Y010709D02*
X009567Y010709D01*
X009567Y010767D02*
X009507Y010767D01*
X009507Y010826D02*
X009567Y010826D01*
X009567Y010884D02*
X009507Y010884D01*
X002003Y004416D02*
X002003Y004316D01*
X001999Y004317D01*
X001862Y004317D01*
X001726Y004317D01*
X001679Y004305D01*
X001637Y004280D01*
X001602Y004246D01*
X001578Y004204D01*
X001565Y004156D01*
X001551Y004156D01*
X001560Y004148D02*
X001460Y004247D01*
X001364Y004247D01*
X001364Y004382D01*
X001372Y004385D01*
X001402Y004402D01*
X001426Y004426D01*
X001443Y004455D01*
X001452Y004489D01*
X001452Y004673D01*
X001135Y004673D01*
X001135Y004732D01*
X001452Y004732D01*
X001452Y004875D01*
X001468Y004875D01*
X001468Y004468D01*
X001521Y004416D01*
X002003Y004416D01*
X002003Y004390D02*
X001382Y004390D01*
X001364Y004332D02*
X002003Y004332D01*
X001862Y004317D02*
X001862Y004132D01*
X001862Y004317D01*
X001862Y004273D02*
X001862Y004273D01*
X001862Y004215D02*
X001862Y004215D01*
X001862Y004156D02*
X001862Y004156D01*
X001862Y004132D02*
X001862Y004132D01*
X001630Y004273D02*
X001364Y004273D01*
X001493Y004215D02*
X001584Y004215D01*
X001565Y004156D02*
X001565Y004143D01*
X001560Y004148D01*
X001487Y004449D02*
X001439Y004449D01*
X001452Y004507D02*
X001468Y004507D01*
X001468Y004566D02*
X001452Y004566D01*
X001452Y004624D02*
X001468Y004624D01*
X001468Y004683D02*
X001135Y004683D01*
X001452Y004741D02*
X001468Y004741D01*
X001468Y004800D02*
X001452Y004800D01*
X001452Y004858D02*
X001468Y004858D01*
X001454Y005155D02*
X001454Y005339D01*
X001468Y005353D01*
X001486Y005383D01*
X001494Y005416D01*
X001494Y005503D01*
X001216Y005503D01*
X001216Y005521D01*
X001494Y005521D01*
X001494Y005608D01*
X001491Y005620D01*
X001511Y005640D01*
X001703Y005640D01*
X001786Y005557D01*
X001786Y005521D01*
X001821Y005521D01*
X001840Y005503D01*
X001786Y005503D01*
X001786Y005416D01*
X001794Y005383D01*
X001812Y005353D01*
X001826Y005339D01*
X001826Y005155D01*
X001454Y005155D01*
X001454Y005209D02*
X001826Y005209D01*
X001826Y005268D02*
X001454Y005268D01*
X001454Y005326D02*
X001826Y005326D01*
X001794Y005385D02*
X001486Y005385D01*
X001494Y005443D02*
X001786Y005443D01*
X001786Y005502D02*
X001494Y005502D01*
X001494Y005560D02*
X001782Y005560D01*
X001724Y005619D02*
X001491Y005619D01*
X001198Y005521D02*
X001198Y005503D01*
X000919Y005503D01*
X000919Y005416D01*
X000928Y005383D01*
X000945Y005353D01*
X000959Y005339D01*
X000959Y005140D01*
X001012Y005087D01*
X001067Y005087D01*
X001067Y005029D01*
X000872Y005029D01*
X000839Y005020D01*
X000828Y005014D01*
X000828Y005640D01*
X000928Y005640D01*
X000919Y005608D01*
X000919Y005521D01*
X001198Y005521D01*
X000919Y005502D02*
X000828Y005502D01*
X000828Y005560D02*
X000919Y005560D01*
X000922Y005619D02*
X000828Y005619D01*
X000828Y005443D02*
X000919Y005443D01*
X000928Y005385D02*
X000828Y005385D01*
X000828Y005326D02*
X000959Y005326D01*
X000959Y005268D02*
X000828Y005268D01*
X000828Y005209D02*
X000959Y005209D01*
X000959Y005151D02*
X000828Y005151D01*
X000828Y005092D02*
X001007Y005092D01*
X001067Y005034D02*
X000828Y005034D01*
D35*
X010140Y010740D03*
D36*
X004850Y005618D02*
X004850Y005265D01*
X004850Y005618D02*
X004765Y005703D01*
X004528Y005703D01*
X004515Y005690D01*
M02*
