G75*
%MOIN*%
%OFA0B0*%
%FSLAX24Y24*%
%IPPOS*%
%LPD*%
%AMOC8*
5,1,8,0,0,1.08239X$1,22.5*
%
%ADD10C,0.0000*%
D10*
X000140Y000390D02*
X010140Y000390D01*
X010140Y010390D01*
X000140Y010390D01*
X000140Y000390D01*
X004080Y000900D02*
X004080Y001960D01*
X004080Y000900D02*
X006200Y000900D01*
X006200Y001960D01*
X005140Y003020D02*
X005076Y003018D01*
X005012Y003012D01*
X004949Y003003D01*
X004886Y002989D01*
X004825Y002972D01*
X004764Y002951D01*
X004705Y002927D01*
X004647Y002899D01*
X004592Y002867D01*
X004538Y002832D01*
X004486Y002794D01*
X004437Y002753D01*
X004390Y002710D01*
X004347Y002663D01*
X004306Y002614D01*
X004268Y002562D01*
X004233Y002508D01*
X004201Y002453D01*
X004173Y002395D01*
X004149Y002336D01*
X004128Y002275D01*
X004111Y002214D01*
X004097Y002151D01*
X004088Y002088D01*
X004082Y002024D01*
X004080Y001960D01*
X005140Y003020D02*
X005204Y003018D01*
X005268Y003012D01*
X005331Y003003D01*
X005394Y002989D01*
X005455Y002972D01*
X005516Y002951D01*
X005575Y002927D01*
X005633Y002899D01*
X005688Y002867D01*
X005742Y002832D01*
X005794Y002794D01*
X005843Y002753D01*
X005890Y002710D01*
X005933Y002663D01*
X005974Y002614D01*
X006012Y002562D01*
X006047Y002508D01*
X006079Y002453D01*
X006107Y002395D01*
X006131Y002336D01*
X006152Y002275D01*
X006169Y002214D01*
X006183Y002151D01*
X006192Y002088D01*
X006198Y002024D01*
X006200Y001960D01*
X006437Y003640D02*
X006439Y003668D01*
X006445Y003696D01*
X006455Y003723D01*
X006468Y003748D01*
X006484Y003770D01*
X006504Y003791D01*
X006526Y003808D01*
X006551Y003822D01*
X006577Y003833D01*
X006605Y003840D01*
X006633Y003843D01*
X006661Y003842D01*
X006689Y003837D01*
X006716Y003828D01*
X006741Y003816D01*
X006765Y003800D01*
X006786Y003781D01*
X006804Y003759D01*
X006819Y003735D01*
X006831Y003709D01*
X006839Y003682D01*
X006843Y003654D01*
X006843Y003626D01*
X006839Y003598D01*
X006831Y003571D01*
X006819Y003545D01*
X006804Y003521D01*
X006786Y003499D01*
X006765Y003480D01*
X006742Y003464D01*
X006716Y003452D01*
X006689Y003443D01*
X006661Y003438D01*
X006633Y003437D01*
X006605Y003440D01*
X006577Y003447D01*
X006551Y003458D01*
X006526Y003472D01*
X006504Y003489D01*
X006484Y003510D01*
X006468Y003532D01*
X006455Y003557D01*
X006445Y003584D01*
X006439Y003612D01*
X006437Y003640D01*
X007165Y005215D02*
X007165Y008065D01*
X008115Y008065D01*
X008115Y005215D01*
X007165Y005215D01*
X009437Y004040D02*
X009439Y004068D01*
X009445Y004096D01*
X009455Y004123D01*
X009468Y004148D01*
X009484Y004170D01*
X009504Y004191D01*
X009526Y004208D01*
X009551Y004222D01*
X009577Y004233D01*
X009605Y004240D01*
X009633Y004243D01*
X009661Y004242D01*
X009689Y004237D01*
X009716Y004228D01*
X009741Y004216D01*
X009765Y004200D01*
X009786Y004181D01*
X009804Y004159D01*
X009819Y004135D01*
X009831Y004109D01*
X009839Y004082D01*
X009843Y004054D01*
X009843Y004026D01*
X009839Y003998D01*
X009831Y003971D01*
X009819Y003945D01*
X009804Y003921D01*
X009786Y003899D01*
X009765Y003880D01*
X009742Y003864D01*
X009716Y003852D01*
X009689Y003843D01*
X009661Y003838D01*
X009633Y003837D01*
X009605Y003840D01*
X009577Y003847D01*
X009551Y003858D01*
X009526Y003872D01*
X009504Y003889D01*
X009484Y003910D01*
X009468Y003932D01*
X009455Y003957D01*
X009445Y003984D01*
X009439Y004012D01*
X009437Y004040D01*
X009437Y003240D02*
X009439Y003268D01*
X009445Y003296D01*
X009455Y003323D01*
X009468Y003348D01*
X009484Y003370D01*
X009504Y003391D01*
X009526Y003408D01*
X009551Y003422D01*
X009577Y003433D01*
X009605Y003440D01*
X009633Y003443D01*
X009661Y003442D01*
X009689Y003437D01*
X009716Y003428D01*
X009741Y003416D01*
X009765Y003400D01*
X009786Y003381D01*
X009804Y003359D01*
X009819Y003335D01*
X009831Y003309D01*
X009839Y003282D01*
X009843Y003254D01*
X009843Y003226D01*
X009839Y003198D01*
X009831Y003171D01*
X009819Y003145D01*
X009804Y003121D01*
X009786Y003099D01*
X009765Y003080D01*
X009742Y003064D01*
X009716Y003052D01*
X009689Y003043D01*
X009661Y003038D01*
X009633Y003037D01*
X009605Y003040D01*
X009577Y003047D01*
X009551Y003058D01*
X009526Y003072D01*
X009504Y003089D01*
X009484Y003110D01*
X009468Y003132D01*
X009455Y003157D01*
X009445Y003184D01*
X009439Y003212D01*
X009437Y003240D01*
X003115Y004890D02*
X003115Y008390D01*
X002165Y008390D01*
X002165Y004890D01*
X003115Y004890D01*
M02*
