G75*
G70*
%OFA0B0*%
%FSLAX24Y24*%
%IPPOS*%
%LPD*%
%AMOC8*
5,1,8,0,0,1.08239X$1,22.5*
%
%ADD10R,0.0100X0.0500*%
%ADD11C,0.0050*%
%ADD12C,0.0607*%
%ADD13C,0.0278*%
%ADD14C,0.0360*%
%ADD15C,0.0160*%
%ADD16C,0.0100*%
%ADD17C,0.0080*%
%ADD18C,0.0120*%
%ADD19C,0.0436*%
%ADD20C,0.0240*%
D10*
X002390Y007140D03*
X008890Y007140D03*
D11*
X009015Y007140D02*
X008265Y007140D01*
X008265Y007091D02*
X009015Y007091D01*
X009015Y007043D02*
X008265Y007043D01*
X008265Y006994D02*
X009015Y006994D01*
X009015Y006946D02*
X008265Y006946D01*
X008265Y006897D02*
X009015Y006897D01*
X009015Y006849D02*
X008265Y006849D01*
X008265Y006800D02*
X009015Y006800D01*
X009015Y006752D02*
X008265Y006752D01*
X008265Y006703D02*
X009015Y006703D01*
X009015Y006655D02*
X008265Y006655D01*
X008265Y006606D02*
X009015Y006606D01*
X009015Y006558D02*
X008265Y006558D01*
X008265Y006509D02*
X009015Y006509D01*
X009015Y006461D02*
X008265Y006461D01*
X008265Y006412D02*
X009015Y006412D01*
X009015Y006364D02*
X008265Y006364D01*
X008265Y006315D02*
X009015Y006315D01*
X009015Y006267D02*
X008265Y006267D01*
X008265Y006218D02*
X009015Y006218D01*
X009015Y006170D02*
X008265Y006170D01*
X008265Y006121D02*
X009015Y006121D01*
X009015Y006073D02*
X008265Y006073D01*
X008265Y006024D02*
X009015Y006024D01*
X009015Y005976D02*
X008265Y005976D01*
X008265Y005927D02*
X009015Y005927D01*
X009015Y005879D02*
X008265Y005879D01*
X008265Y005830D02*
X009015Y005830D01*
X009015Y005782D02*
X008265Y005782D01*
X008265Y005733D02*
X009015Y005733D01*
X009015Y005685D02*
X008265Y005685D01*
X008265Y005640D02*
X009015Y005640D01*
X009015Y009015D01*
X008765Y009265D01*
X007515Y009265D01*
X007265Y009015D01*
X007265Y005640D01*
X008015Y005640D01*
X008015Y008640D01*
X007465Y008640D01*
X007465Y009015D01*
X007640Y009190D01*
X008640Y009190D01*
X008815Y009015D01*
X008815Y008640D01*
X008265Y008640D01*
X008265Y005640D01*
X008015Y005685D02*
X007265Y005685D01*
X007265Y005733D02*
X008015Y005733D01*
X008015Y005782D02*
X007265Y005782D01*
X007265Y005830D02*
X008015Y005830D01*
X008015Y005879D02*
X007265Y005879D01*
X007265Y005927D02*
X008015Y005927D01*
X008015Y005976D02*
X007265Y005976D01*
X007265Y006024D02*
X008015Y006024D01*
X008015Y006073D02*
X007265Y006073D01*
X007265Y006121D02*
X008015Y006121D01*
X008015Y006170D02*
X007265Y006170D01*
X007265Y006218D02*
X008015Y006218D01*
X008015Y006267D02*
X007265Y006267D01*
X007265Y006315D02*
X008015Y006315D01*
X008015Y006364D02*
X007265Y006364D01*
X007265Y006412D02*
X008015Y006412D01*
X008015Y006461D02*
X007265Y006461D01*
X007265Y006509D02*
X008015Y006509D01*
X008015Y006558D02*
X007265Y006558D01*
X007265Y006606D02*
X008015Y006606D01*
X008015Y006655D02*
X007265Y006655D01*
X007265Y006703D02*
X008015Y006703D01*
X008015Y006752D02*
X007265Y006752D01*
X007265Y006800D02*
X008015Y006800D01*
X008015Y006849D02*
X007265Y006849D01*
X007265Y006897D02*
X008015Y006897D01*
X008015Y006946D02*
X007265Y006946D01*
X007265Y006994D02*
X008015Y006994D01*
X008015Y007043D02*
X007265Y007043D01*
X007265Y007091D02*
X008015Y007091D01*
X008015Y007140D02*
X007265Y007140D01*
X007265Y007189D02*
X008015Y007189D01*
X008015Y007237D02*
X007265Y007237D01*
X007265Y007286D02*
X008015Y007286D01*
X008015Y007334D02*
X007265Y007334D01*
X007265Y007383D02*
X008015Y007383D01*
X008015Y007431D02*
X007265Y007431D01*
X007265Y007480D02*
X008015Y007480D01*
X008015Y007528D02*
X007265Y007528D01*
X007265Y007577D02*
X008015Y007577D01*
X008015Y007625D02*
X007265Y007625D01*
X007265Y007674D02*
X008015Y007674D01*
X008015Y007722D02*
X007265Y007722D01*
X007265Y007771D02*
X008015Y007771D01*
X008015Y007819D02*
X007265Y007819D01*
X007265Y007868D02*
X008015Y007868D01*
X008015Y007916D02*
X007265Y007916D01*
X007265Y007965D02*
X008015Y007965D01*
X008015Y008013D02*
X007265Y008013D01*
X007265Y008062D02*
X008015Y008062D01*
X008015Y008110D02*
X007265Y008110D01*
X007265Y008159D02*
X008015Y008159D01*
X008015Y008207D02*
X007265Y008207D01*
X007265Y008256D02*
X008015Y008256D01*
X008015Y008304D02*
X007265Y008304D01*
X007265Y008353D02*
X008015Y008353D01*
X008015Y008401D02*
X007265Y008401D01*
X007265Y008450D02*
X008015Y008450D01*
X008015Y008498D02*
X007265Y008498D01*
X007265Y008547D02*
X008015Y008547D01*
X008015Y008595D02*
X007265Y008595D01*
X007265Y008644D02*
X007465Y008644D01*
X007465Y008692D02*
X007265Y008692D01*
X007265Y008741D02*
X007465Y008741D01*
X007465Y008789D02*
X007265Y008789D01*
X007265Y008838D02*
X007465Y008838D01*
X007465Y008886D02*
X007265Y008886D01*
X007265Y008935D02*
X007465Y008935D01*
X007465Y008983D02*
X007265Y008983D01*
X007282Y009032D02*
X007482Y009032D01*
X007530Y009080D02*
X007330Y009080D01*
X007379Y009129D02*
X007579Y009129D01*
X007627Y009177D02*
X007427Y009177D01*
X007476Y009226D02*
X008804Y009226D01*
X008853Y009177D02*
X008653Y009177D01*
X008701Y009129D02*
X008901Y009129D01*
X008950Y009080D02*
X008750Y009080D01*
X008798Y009032D02*
X008998Y009032D01*
X009015Y008983D02*
X008815Y008983D01*
X008815Y008935D02*
X009015Y008935D01*
X009015Y008886D02*
X008815Y008886D01*
X008815Y008838D02*
X009015Y008838D01*
X009015Y008789D02*
X008815Y008789D01*
X008815Y008741D02*
X009015Y008741D01*
X009015Y008692D02*
X008815Y008692D01*
X008815Y008644D02*
X009015Y008644D01*
X009015Y008595D02*
X008265Y008595D01*
X008265Y008547D02*
X009015Y008547D01*
X009015Y008498D02*
X008265Y008498D01*
X008265Y008450D02*
X009015Y008450D01*
X009015Y008401D02*
X008265Y008401D01*
X008265Y008353D02*
X009015Y008353D01*
X009015Y008304D02*
X008265Y008304D01*
X008265Y008256D02*
X009015Y008256D01*
X009015Y008207D02*
X008265Y008207D01*
X008265Y008159D02*
X009015Y008159D01*
X009015Y008110D02*
X008265Y008110D01*
X008265Y008062D02*
X009015Y008062D01*
X009015Y008013D02*
X008265Y008013D01*
X008265Y007965D02*
X009015Y007965D01*
X009015Y007916D02*
X008265Y007916D01*
X008265Y007868D02*
X009015Y007868D01*
X009015Y007819D02*
X008265Y007819D01*
X008265Y007771D02*
X009015Y007771D01*
X009015Y007722D02*
X008265Y007722D01*
X008265Y007674D02*
X009015Y007674D01*
X009015Y007625D02*
X008265Y007625D01*
X008265Y007577D02*
X009015Y007577D01*
X009015Y007528D02*
X008265Y007528D01*
X008265Y007480D02*
X009015Y007480D01*
X009015Y007431D02*
X008265Y007431D01*
X008265Y007383D02*
X009015Y007383D01*
X009015Y007334D02*
X008265Y007334D01*
X008265Y007286D02*
X009015Y007286D01*
X009015Y007237D02*
X008265Y007237D01*
X008265Y007189D02*
X009015Y007189D01*
X004015Y007189D02*
X003265Y007189D01*
X003265Y007237D02*
X004015Y007237D01*
X004015Y007286D02*
X003265Y007286D01*
X003265Y007334D02*
X004015Y007334D01*
X004015Y007383D02*
X003265Y007383D01*
X003265Y007431D02*
X004015Y007431D01*
X004015Y007480D02*
X003265Y007480D01*
X003265Y007528D02*
X004015Y007528D01*
X004015Y007577D02*
X003265Y007577D01*
X003265Y007625D02*
X004015Y007625D01*
X004015Y007674D02*
X003265Y007674D01*
X003265Y007722D02*
X004015Y007722D01*
X004015Y007771D02*
X003265Y007771D01*
X003265Y007819D02*
X004015Y007819D01*
X004015Y007868D02*
X003265Y007868D01*
X003265Y007916D02*
X004015Y007916D01*
X004015Y007965D02*
X003265Y007965D01*
X003265Y008013D02*
X004015Y008013D01*
X004015Y008062D02*
X003265Y008062D01*
X003265Y008110D02*
X004015Y008110D01*
X004015Y008159D02*
X003265Y008159D01*
X003265Y008207D02*
X004015Y008207D01*
X004015Y008256D02*
X003265Y008256D01*
X003265Y008304D02*
X004015Y008304D01*
X004015Y008353D02*
X003265Y008353D01*
X003265Y008390D02*
X003265Y005890D01*
X004015Y005890D01*
X004015Y009015D01*
X003890Y009140D01*
X002390Y009140D01*
X002265Y009015D01*
X002265Y005890D01*
X003015Y005890D01*
X003015Y008390D01*
X002390Y008390D01*
X002390Y008890D01*
X002515Y009015D01*
X003765Y009015D01*
X003890Y008890D01*
X003890Y008390D01*
X003265Y008390D01*
X003015Y008353D02*
X002265Y008353D01*
X002265Y008401D02*
X002390Y008401D01*
X002390Y008450D02*
X002265Y008450D01*
X002265Y008498D02*
X002390Y008498D01*
X002390Y008547D02*
X002265Y008547D01*
X002265Y008595D02*
X002390Y008595D01*
X002390Y008644D02*
X002265Y008644D01*
X002265Y008692D02*
X002390Y008692D01*
X002390Y008741D02*
X002265Y008741D01*
X002265Y008789D02*
X002390Y008789D01*
X002390Y008838D02*
X002265Y008838D01*
X002265Y008886D02*
X002390Y008886D01*
X002435Y008935D02*
X002265Y008935D01*
X002265Y008983D02*
X002483Y008983D01*
X002379Y009129D02*
X003901Y009129D01*
X003950Y009080D02*
X002330Y009080D01*
X002282Y009032D02*
X003998Y009032D01*
X004015Y008983D02*
X003797Y008983D01*
X003845Y008935D02*
X004015Y008935D01*
X004015Y008886D02*
X003890Y008886D01*
X003890Y008838D02*
X004015Y008838D01*
X004015Y008789D02*
X003890Y008789D01*
X003890Y008741D02*
X004015Y008741D01*
X004015Y008692D02*
X003890Y008692D01*
X003890Y008644D02*
X004015Y008644D01*
X004015Y008595D02*
X003890Y008595D01*
X003890Y008547D02*
X004015Y008547D01*
X004015Y008498D02*
X003890Y008498D01*
X003890Y008450D02*
X004015Y008450D01*
X004015Y008401D02*
X003890Y008401D01*
X003015Y008304D02*
X002265Y008304D01*
X002265Y008256D02*
X003015Y008256D01*
X003015Y008207D02*
X002265Y008207D01*
X002265Y008159D02*
X003015Y008159D01*
X003015Y008110D02*
X002265Y008110D01*
X002265Y008062D02*
X003015Y008062D01*
X003015Y008013D02*
X002265Y008013D01*
X002265Y007965D02*
X003015Y007965D01*
X003015Y007916D02*
X002265Y007916D01*
X002265Y007868D02*
X003015Y007868D01*
X003015Y007819D02*
X002265Y007819D01*
X002265Y007771D02*
X003015Y007771D01*
X003015Y007722D02*
X002265Y007722D01*
X002265Y007674D02*
X003015Y007674D01*
X003015Y007625D02*
X002265Y007625D01*
X002265Y007577D02*
X003015Y007577D01*
X003015Y007528D02*
X002265Y007528D01*
X002265Y007480D02*
X003015Y007480D01*
X003015Y007431D02*
X002265Y007431D01*
X002265Y007383D02*
X003015Y007383D01*
X003015Y007334D02*
X002265Y007334D01*
X002265Y007286D02*
X003015Y007286D01*
X003015Y007237D02*
X002265Y007237D01*
X002265Y007189D02*
X003015Y007189D01*
X003015Y007140D02*
X002265Y007140D01*
X002265Y007091D02*
X003015Y007091D01*
X003015Y007043D02*
X002265Y007043D01*
X002265Y006994D02*
X003015Y006994D01*
X003015Y006946D02*
X002265Y006946D01*
X002265Y006897D02*
X003015Y006897D01*
X003015Y006849D02*
X002265Y006849D01*
X002265Y006800D02*
X003015Y006800D01*
X003015Y006752D02*
X002265Y006752D01*
X002265Y006703D02*
X003015Y006703D01*
X003015Y006655D02*
X002265Y006655D01*
X002265Y006606D02*
X003015Y006606D01*
X003015Y006558D02*
X002265Y006558D01*
X002265Y006509D02*
X003015Y006509D01*
X003015Y006461D02*
X002265Y006461D01*
X002265Y006412D02*
X003015Y006412D01*
X003015Y006364D02*
X002265Y006364D01*
X002265Y006315D02*
X003015Y006315D01*
X003015Y006267D02*
X002265Y006267D01*
X002265Y006218D02*
X003015Y006218D01*
X003015Y006170D02*
X002265Y006170D01*
X002265Y006121D02*
X003015Y006121D01*
X003015Y006073D02*
X002265Y006073D01*
X002265Y006024D02*
X003015Y006024D01*
X003015Y005976D02*
X002265Y005976D01*
X002265Y005927D02*
X003015Y005927D01*
X003265Y005927D02*
X004015Y005927D01*
X004015Y005976D02*
X003265Y005976D01*
X003265Y006024D02*
X004015Y006024D01*
X004015Y006073D02*
X003265Y006073D01*
X003265Y006121D02*
X004015Y006121D01*
X004015Y006170D02*
X003265Y006170D01*
X003265Y006218D02*
X004015Y006218D01*
X004015Y006267D02*
X003265Y006267D01*
X003265Y006315D02*
X004015Y006315D01*
X004015Y006364D02*
X003265Y006364D01*
X003265Y006412D02*
X004015Y006412D01*
X004015Y006461D02*
X003265Y006461D01*
X003265Y006509D02*
X004015Y006509D01*
X004015Y006558D02*
X003265Y006558D01*
X003265Y006606D02*
X004015Y006606D01*
X004015Y006655D02*
X003265Y006655D01*
X003265Y006703D02*
X004015Y006703D01*
X004015Y006752D02*
X003265Y006752D01*
X003265Y006800D02*
X004015Y006800D01*
X004015Y006849D02*
X003265Y006849D01*
X003265Y006897D02*
X004015Y006897D01*
X004015Y006946D02*
X003265Y006946D01*
X003265Y006994D02*
X004015Y006994D01*
X004015Y007043D02*
X003265Y007043D01*
X003265Y007091D02*
X004015Y007091D01*
X004015Y007140D02*
X003265Y007140D01*
D12*
X005640Y005453D03*
X006703Y005453D03*
X009703Y006390D03*
X009203Y001640D03*
X008140Y001640D03*
X003203Y001640D03*
X002140Y001640D03*
X001390Y010140D03*
D13*
X002345Y003935D03*
X002345Y003640D03*
X002345Y003345D03*
X002640Y003345D03*
X002640Y003640D03*
X002640Y003935D03*
X002935Y003935D03*
X002935Y003640D03*
X002935Y003345D03*
D14*
X003870Y003250D03*
X004270Y003390D03*
X003390Y004890D03*
X004515Y005690D03*
X004420Y006828D03*
X006490Y006765D03*
X006953Y008015D03*
X005453Y009078D03*
X005453Y010953D03*
X008495Y009985D03*
X009515Y008365D03*
X008953Y005078D03*
X008203Y004995D03*
X008890Y003390D03*
X009578Y003078D03*
X006203Y004390D03*
X005703Y004390D03*
X001890Y007765D03*
X002328Y009453D03*
X001640Y005953D03*
X001640Y005453D03*
D15*
X003328Y004828D02*
X003328Y002578D01*
X003203Y002453D01*
X003203Y001640D01*
X003328Y004828D02*
X003390Y004890D01*
X006490Y006765D02*
X006953Y007228D01*
X006953Y008015D01*
X007328Y008015D01*
X006578Y010740D02*
X005665Y010740D01*
X005453Y010953D01*
X002390Y009390D02*
X002390Y009078D01*
X002390Y009390D02*
X002328Y009453D01*
D16*
X002390Y009078D02*
X002328Y009015D01*
X002328Y008578D01*
X002390Y008515D01*
X002390Y007140D01*
X004515Y005690D02*
X003828Y005003D01*
X003828Y003953D01*
X003578Y003703D01*
X003578Y002140D01*
X003828Y001890D01*
X003828Y001390D01*
X004078Y001140D01*
X008703Y001140D01*
X009203Y001640D01*
X009578Y003078D02*
X006953Y003078D01*
X006203Y003828D01*
X004708Y003828D01*
X004270Y003390D01*
X003890Y003270D02*
X003890Y003515D01*
X004390Y004015D01*
X006453Y004015D01*
X007078Y003390D01*
X008890Y003390D01*
X008390Y004703D02*
X008765Y005078D01*
X008953Y005078D01*
X008390Y004703D02*
X006515Y004703D01*
X006203Y004390D01*
X006203Y004890D02*
X007515Y004890D01*
X007620Y004995D01*
X008203Y004995D01*
X006203Y004890D02*
X005703Y004390D01*
X003890Y003270D02*
X003870Y003250D01*
X007328Y008928D02*
X007328Y009065D01*
X007515Y009253D01*
X008765Y009253D01*
X008890Y009128D01*
X008890Y008990D01*
X009515Y008965D02*
X009515Y008365D01*
X009515Y008965D02*
X008495Y009985D01*
D17*
X000380Y011150D02*
X000380Y000630D01*
X010900Y000630D01*
X010900Y011150D01*
X005651Y011150D01*
X005690Y011111D01*
X005732Y011008D01*
X005732Y010927D01*
X005740Y010920D01*
X006434Y010920D01*
X006447Y010939D01*
X006470Y010944D01*
X006486Y010960D01*
X006557Y010960D01*
X006626Y010973D01*
X006645Y010960D01*
X009911Y010960D01*
X009960Y011009D01*
X010077Y011058D01*
X010203Y011058D01*
X010320Y011009D01*
X010409Y010920D01*
X010458Y010803D01*
X010458Y010677D01*
X010409Y010560D01*
X010320Y010471D01*
X010203Y010422D01*
X010077Y010422D01*
X009960Y010471D01*
X009911Y010520D01*
X006694Y010520D01*
X006047Y009572D01*
X006047Y009549D01*
X005998Y009499D01*
X005958Y009441D01*
X005935Y009436D01*
X005919Y009420D01*
X005848Y009420D01*
X005779Y009407D01*
X005760Y009420D01*
X005356Y009420D01*
X005110Y009174D01*
X005110Y005974D01*
X004795Y005659D01*
X004795Y005634D01*
X004752Y005531D01*
X004674Y005453D01*
X004571Y005410D01*
X004459Y005410D01*
X004451Y005414D01*
X003977Y004940D01*
X003977Y003890D01*
X003727Y003640D01*
X003727Y003494D01*
X003740Y003499D01*
X003740Y003577D01*
X004240Y004077D01*
X004328Y004165D01*
X005532Y004165D01*
X005465Y004231D01*
X005423Y004334D01*
X005423Y004446D01*
X005465Y004549D01*
X005544Y004627D01*
X005647Y004670D01*
X005758Y004670D01*
X005767Y004666D01*
X006053Y004952D01*
X006140Y005040D01*
X007453Y005040D01*
X007470Y005057D01*
X007558Y005145D01*
X007962Y005145D01*
X007964Y005150D01*
X007617Y005150D01*
X007529Y005187D01*
X007462Y005254D01*
X007425Y005342D01*
X007425Y005515D01*
X007213Y005515D01*
X007140Y005588D01*
X007140Y007807D01*
X007132Y007799D01*
X007132Y007153D01*
X007027Y007048D01*
X006770Y006790D01*
X006770Y006709D01*
X006727Y006606D01*
X006649Y006528D01*
X006546Y006485D01*
X006434Y006485D01*
X006331Y006528D01*
X006253Y006606D01*
X006210Y006709D01*
X006210Y006821D01*
X006253Y006924D01*
X006331Y007002D01*
X006434Y007045D01*
X006515Y007045D01*
X006773Y007302D01*
X006773Y007799D01*
X006715Y007856D01*
X006673Y007959D01*
X006673Y008071D01*
X006715Y008174D01*
X006794Y008252D01*
X006897Y008295D01*
X007008Y008295D01*
X007111Y008252D01*
X007140Y008223D01*
X007140Y009067D01*
X007178Y009104D01*
X007178Y009127D01*
X007453Y009402D01*
X008827Y009402D01*
X008952Y009277D01*
X008952Y009277D01*
X009040Y009190D01*
X009040Y009167D01*
X009140Y009067D01*
X009140Y005588D01*
X009067Y005515D01*
X008855Y005515D01*
X008855Y005342D01*
X008854Y005340D01*
X008897Y005357D01*
X009008Y005357D01*
X009111Y005315D01*
X009190Y005236D01*
X009232Y005133D01*
X009232Y005022D01*
X009190Y004919D01*
X009111Y004840D01*
X009008Y004798D01*
X008897Y004798D01*
X008794Y004840D01*
X008767Y004867D01*
X008452Y004553D01*
X007300Y004553D01*
X007391Y004515D01*
X007515Y004391D01*
X007582Y004228D01*
X007582Y004052D01*
X007515Y003889D01*
X007391Y003765D01*
X007228Y003698D01*
X007052Y003698D01*
X006933Y003747D01*
X007140Y003540D01*
X008649Y003540D01*
X008653Y003549D01*
X008731Y003627D01*
X008834Y003670D01*
X008946Y003670D01*
X009049Y003627D01*
X009127Y003549D01*
X009170Y003446D01*
X009170Y003334D01*
X009127Y003231D01*
X009123Y003227D01*
X009337Y003227D01*
X009340Y003236D01*
X009419Y003315D01*
X009522Y003357D01*
X009633Y003357D01*
X009736Y003315D01*
X009815Y003236D01*
X009857Y003133D01*
X009857Y003022D01*
X009815Y002919D01*
X009736Y002840D01*
X009633Y002798D01*
X009522Y002798D01*
X009419Y002840D01*
X009340Y002919D01*
X009337Y002928D01*
X006890Y002928D01*
X006838Y002980D01*
X006940Y002666D01*
X006940Y001352D01*
X006914Y001290D01*
X007930Y001290D01*
X007911Y001298D01*
X007798Y001411D01*
X007736Y001560D01*
X007736Y001720D01*
X007798Y001869D01*
X007911Y001982D01*
X008060Y002044D01*
X008220Y002044D01*
X008369Y001982D01*
X008482Y001869D01*
X008544Y001720D01*
X008544Y001560D01*
X008482Y001411D01*
X008369Y001298D01*
X008350Y001290D01*
X008640Y001290D01*
X008831Y001481D01*
X008799Y001560D01*
X008799Y001720D01*
X008860Y001869D01*
X008974Y001982D01*
X009122Y002044D01*
X009283Y002044D01*
X009431Y001982D01*
X009545Y001869D01*
X009606Y001720D01*
X009606Y001560D01*
X009545Y001411D01*
X009431Y001298D01*
X009283Y001236D01*
X009122Y001236D01*
X009043Y001269D01*
X008765Y000990D01*
X004015Y000990D01*
X003928Y001078D01*
X003678Y001328D01*
X003678Y001828D01*
X003428Y002078D01*
X003428Y002423D01*
X003382Y002378D01*
X003382Y002002D01*
X003431Y001982D01*
X003545Y001869D01*
X003606Y001720D01*
X003606Y001560D01*
X003545Y001411D01*
X003431Y001298D01*
X003283Y001236D01*
X003122Y001236D01*
X002974Y001298D01*
X002860Y001411D01*
X002799Y001560D01*
X002799Y001720D01*
X002860Y001869D01*
X002974Y001982D01*
X003023Y002002D01*
X003023Y002527D01*
X003128Y002632D01*
X003148Y002652D01*
X003148Y003162D01*
X003113Y003128D01*
X003067Y003097D01*
X003017Y003076D01*
X002963Y003066D01*
X002935Y003066D01*
X002935Y003345D01*
X002935Y003640D01*
X002640Y003640D01*
X002640Y003640D01*
X002640Y003935D01*
X002640Y003935D01*
X002640Y003656D01*
X002640Y003640D01*
X002656Y003640D01*
X002935Y003640D01*
X002935Y003640D01*
X002935Y003640D01*
X002935Y003919D01*
X002935Y003935D01*
X002935Y003935D01*
X002640Y003935D01*
X002640Y003935D01*
X002361Y003935D01*
X002345Y003935D01*
X002345Y003935D01*
X002345Y003640D01*
X002640Y003640D01*
X002640Y003640D01*
X002640Y003624D01*
X002640Y003345D01*
X002640Y003640D01*
X002640Y003640D01*
X002640Y003640D01*
X002361Y003640D01*
X002345Y003640D01*
X002345Y003640D01*
X002345Y003624D01*
X002345Y003345D01*
X002345Y003345D01*
X002640Y003345D01*
X002640Y003345D01*
X002640Y003345D01*
X002919Y003345D01*
X002935Y003345D01*
X002935Y003345D01*
X002935Y003345D01*
X002935Y003361D01*
X002935Y003640D01*
X002935Y003640D01*
X002935Y003935D01*
X002935Y003935D01*
X002919Y003935D01*
X002640Y003935D01*
X002640Y003935D01*
X002345Y003935D01*
X002345Y003935D01*
X002345Y003656D01*
X002345Y003640D01*
X002345Y003640D01*
X002345Y003640D01*
X002345Y003345D01*
X002345Y003345D01*
X002361Y003345D01*
X002640Y003345D01*
X002640Y003345D01*
X002935Y003345D01*
X002935Y003345D01*
X002935Y003066D01*
X002908Y003066D01*
X002854Y003076D01*
X002803Y003097D01*
X002788Y003108D01*
X002772Y003097D01*
X002721Y003076D01*
X002667Y003066D01*
X002640Y003066D01*
X002640Y003345D01*
X002640Y003066D01*
X002613Y003066D01*
X002559Y003076D01*
X002508Y003097D01*
X002492Y003108D01*
X002477Y003097D01*
X002426Y003076D01*
X002372Y003066D01*
X002345Y003066D01*
X002345Y003345D01*
X002345Y003345D01*
X002345Y003345D01*
X002066Y003345D01*
X002066Y003372D01*
X000380Y003372D01*
X000380Y003450D02*
X002086Y003450D01*
X002076Y003426D02*
X002066Y003372D01*
X002066Y003345D02*
X002066Y003317D01*
X002076Y003263D01*
X002097Y003213D01*
X002128Y003167D01*
X002167Y003128D01*
X002213Y003097D01*
X002263Y003076D01*
X002317Y003066D01*
X002345Y003066D01*
X002345Y003345D01*
X002066Y003345D01*
X002070Y003293D02*
X000380Y003293D01*
X000380Y003215D02*
X002096Y003215D01*
X002158Y003136D02*
X000380Y003136D01*
X000380Y003058D02*
X003148Y003058D01*
X003148Y003136D02*
X003122Y003136D01*
X003148Y002979D02*
X000380Y002979D01*
X000380Y002901D02*
X003148Y002901D01*
X003148Y002822D02*
X000380Y002822D01*
X000380Y002744D02*
X003148Y002744D01*
X003148Y002665D02*
X000380Y002665D01*
X000380Y002587D02*
X003082Y002587D01*
X003023Y002508D02*
X000380Y002508D01*
X000380Y002430D02*
X003023Y002430D01*
X003023Y002351D02*
X000380Y002351D01*
X000380Y002273D02*
X003023Y002273D01*
X003023Y002194D02*
X000380Y002194D01*
X000380Y002116D02*
X003023Y002116D01*
X003023Y002037D02*
X002337Y002037D01*
X002310Y002051D02*
X002244Y002073D01*
X002180Y002083D01*
X002180Y001680D01*
X002583Y001680D01*
X002573Y001744D01*
X002551Y001810D01*
X002520Y001873D01*
X002478Y001929D01*
X002429Y001978D01*
X002373Y002020D01*
X002310Y002051D01*
X002180Y002037D02*
X002100Y002037D01*
X002100Y002083D02*
X002036Y002073D01*
X001970Y002051D01*
X001907Y002020D01*
X001851Y001978D01*
X001802Y001929D01*
X001760Y001873D01*
X001729Y001810D01*
X001707Y001744D01*
X001697Y001680D01*
X002100Y001680D01*
X002100Y002083D01*
X002100Y001959D02*
X002180Y001959D01*
X002180Y001880D02*
X002100Y001880D01*
X002100Y001802D02*
X002180Y001802D01*
X002180Y001723D02*
X002100Y001723D01*
X002100Y001680D02*
X002180Y001680D01*
X002180Y001600D01*
X002583Y001600D01*
X002573Y001536D01*
X002551Y001470D01*
X002520Y001407D01*
X002478Y001351D01*
X002429Y001302D01*
X002373Y001260D01*
X002310Y001229D01*
X002244Y001207D01*
X002180Y001197D01*
X002180Y001600D01*
X002100Y001600D01*
X002100Y001197D01*
X002036Y001207D01*
X001970Y001229D01*
X001907Y001260D01*
X001851Y001302D01*
X001802Y001351D01*
X001760Y001407D01*
X001729Y001470D01*
X001707Y001536D01*
X001697Y001600D01*
X002100Y001600D01*
X002100Y001680D01*
X002100Y001645D02*
X000380Y001645D01*
X000380Y001723D02*
X001704Y001723D01*
X001726Y001802D02*
X000380Y001802D01*
X000380Y001880D02*
X001766Y001880D01*
X001831Y001959D02*
X000380Y001959D01*
X000380Y002037D02*
X001943Y002037D01*
X002180Y001645D02*
X002799Y001645D01*
X002800Y001723D02*
X002576Y001723D01*
X002554Y001802D02*
X002833Y001802D01*
X002872Y001880D02*
X002514Y001880D01*
X002449Y001959D02*
X002950Y001959D01*
X002799Y001566D02*
X002578Y001566D01*
X002557Y001488D02*
X002828Y001488D01*
X002862Y001409D02*
X002521Y001409D01*
X002459Y001331D02*
X002941Y001331D01*
X003083Y001252D02*
X002357Y001252D01*
X002180Y001252D02*
X002100Y001252D01*
X002100Y001331D02*
X002180Y001331D01*
X002180Y001409D02*
X002100Y001409D01*
X002100Y001488D02*
X002180Y001488D01*
X002180Y001566D02*
X002100Y001566D01*
X001821Y001331D02*
X000380Y001331D01*
X000380Y001409D02*
X001759Y001409D01*
X001723Y001488D02*
X000380Y001488D01*
X000380Y001566D02*
X001702Y001566D01*
X001923Y001252D02*
X000380Y001252D01*
X000380Y001174D02*
X003831Y001174D01*
X003753Y001252D02*
X003322Y001252D01*
X003464Y001331D02*
X003678Y001331D01*
X003678Y001409D02*
X003543Y001409D01*
X003577Y001488D02*
X003678Y001488D01*
X003678Y001566D02*
X003606Y001566D01*
X003606Y001645D02*
X003678Y001645D01*
X003678Y001723D02*
X003605Y001723D01*
X003572Y001802D02*
X003678Y001802D01*
X003625Y001880D02*
X003533Y001880D01*
X003546Y001959D02*
X003455Y001959D01*
X003468Y002037D02*
X003382Y002037D01*
X003382Y002116D02*
X003428Y002116D01*
X003428Y002194D02*
X003382Y002194D01*
X003382Y002273D02*
X003428Y002273D01*
X003428Y002351D02*
X003382Y002351D01*
X002935Y003136D02*
X002935Y003136D01*
X002935Y003215D02*
X002935Y003215D01*
X002935Y003293D02*
X002935Y003293D01*
X002935Y003372D02*
X002935Y003372D01*
X002935Y003450D02*
X002935Y003450D01*
X002935Y003529D02*
X002935Y003529D01*
X002935Y003607D02*
X002935Y003607D01*
X002935Y003686D02*
X002935Y003686D01*
X002935Y003764D02*
X002935Y003764D01*
X002935Y003843D02*
X002935Y003843D01*
X002935Y003921D02*
X002935Y003921D01*
X002935Y003935D02*
X002935Y004214D01*
X002908Y004214D01*
X002854Y004204D01*
X002803Y004183D01*
X002788Y004172D01*
X002772Y004183D01*
X002721Y004204D01*
X002667Y004214D01*
X002640Y004214D01*
X002640Y003935D01*
X002640Y004214D01*
X002613Y004214D01*
X002559Y004204D01*
X002508Y004183D01*
X002492Y004172D01*
X002477Y004183D01*
X002426Y004204D01*
X002372Y004214D01*
X002345Y004214D01*
X002345Y003935D01*
X002066Y003935D01*
X002066Y003908D01*
X002076Y003854D01*
X002097Y003803D01*
X002108Y003788D01*
X002097Y003772D01*
X002076Y003721D01*
X002066Y003667D01*
X002066Y003640D01*
X002066Y003613D01*
X002076Y003559D01*
X002097Y003508D01*
X002108Y003492D01*
X002097Y003477D01*
X002076Y003426D01*
X002089Y003529D02*
X000380Y003529D01*
X000380Y003607D02*
X002067Y003607D01*
X002066Y003640D02*
X002345Y003640D01*
X002345Y003640D01*
X002066Y003640D01*
X002069Y003686D02*
X000380Y003686D01*
X000380Y003764D02*
X002094Y003764D01*
X002081Y003843D02*
X000380Y003843D01*
X000380Y003921D02*
X002066Y003921D01*
X002066Y003935D02*
X002345Y003935D01*
X002345Y003935D01*
X002345Y003935D01*
X002345Y004214D01*
X002317Y004214D01*
X002263Y004204D01*
X002213Y004183D01*
X002167Y004152D01*
X002128Y004113D01*
X002097Y004067D01*
X002076Y004017D01*
X002066Y003963D01*
X002066Y003935D01*
X002073Y004000D02*
X000380Y004000D01*
X000380Y004078D02*
X002105Y004078D01*
X002174Y004157D02*
X000380Y004157D01*
X000380Y004235D02*
X003148Y004235D01*
X003148Y004157D02*
X003106Y004157D01*
X003113Y004152D02*
X003067Y004183D01*
X003017Y004204D01*
X002963Y004214D01*
X002935Y004214D01*
X002935Y003935D01*
X002935Y003935D01*
X002935Y004000D02*
X002935Y004000D01*
X002935Y004078D02*
X002935Y004078D01*
X002935Y004157D02*
X002935Y004157D01*
X003113Y004152D02*
X003148Y004118D01*
X003148Y004730D01*
X002074Y004730D01*
X001949Y004855D01*
X001855Y004949D01*
X001855Y005574D01*
X001738Y005690D01*
X001696Y005673D01*
X001584Y005673D01*
X001481Y005715D01*
X001403Y005794D01*
X001360Y005897D01*
X001360Y006008D01*
X001403Y006111D01*
X001481Y006190D01*
X001584Y006232D01*
X001696Y006232D01*
X001799Y006190D01*
X001877Y006111D01*
X001920Y006008D01*
X001920Y005961D01*
X002175Y005706D01*
X002175Y005081D01*
X002206Y005050D01*
X003154Y005050D01*
X003231Y005127D01*
X003334Y005170D01*
X003446Y005170D01*
X003549Y005127D01*
X003627Y005049D01*
X003670Y004946D01*
X003670Y004834D01*
X003627Y004731D01*
X003549Y004653D01*
X003507Y004636D01*
X003507Y003845D01*
X003515Y003852D01*
X003678Y004015D01*
X003678Y005065D01*
X003765Y005152D01*
X004239Y005626D01*
X004235Y005634D01*
X004235Y005746D01*
X004278Y005849D01*
X004356Y005927D01*
X004459Y005970D01*
X004484Y005970D01*
X004670Y006156D01*
X004670Y009356D01*
X004799Y009485D01*
X005174Y009860D01*
X005711Y009860D01*
X006189Y010560D01*
X005590Y010560D01*
X005478Y010673D01*
X005397Y010673D01*
X000380Y010673D01*
X000380Y010751D02*
X005258Y010751D01*
X005294Y010715D02*
X005215Y010794D01*
X005173Y010897D01*
X005173Y011008D01*
X005215Y011111D01*
X005254Y011150D01*
X000380Y011150D01*
X000380Y011144D02*
X005248Y011144D01*
X005196Y011065D02*
X000380Y011065D01*
X000380Y010987D02*
X005173Y010987D01*
X005173Y010908D02*
X000380Y010908D01*
X000380Y010830D02*
X005200Y010830D01*
X005294Y010715D02*
X005397Y010673D01*
X005556Y010594D02*
X000380Y010594D01*
X000380Y010516D02*
X001242Y010516D01*
X001310Y010544D02*
X001161Y010482D01*
X001048Y010369D01*
X000986Y010220D01*
X000986Y010060D01*
X001048Y009911D01*
X001161Y009798D01*
X001310Y009736D01*
X001470Y009736D01*
X001619Y009798D01*
X001732Y009911D01*
X001794Y010060D01*
X001794Y010220D01*
X001732Y010369D01*
X001619Y010482D01*
X001470Y010544D01*
X001310Y010544D01*
X001116Y010437D02*
X000380Y010437D01*
X000380Y010359D02*
X001043Y010359D01*
X001011Y010280D02*
X000380Y010280D01*
X000380Y010202D02*
X000986Y010202D01*
X000986Y010123D02*
X000380Y010123D01*
X000380Y010045D02*
X000993Y010045D01*
X001025Y009966D02*
X000380Y009966D01*
X000380Y009888D02*
X001072Y009888D01*
X001150Y009809D02*
X000380Y009809D01*
X000380Y009731D02*
X002267Y009731D01*
X002272Y009732D02*
X002169Y009690D01*
X002090Y009611D01*
X002048Y009508D01*
X002048Y009397D01*
X002090Y009294D01*
X002169Y009215D01*
X002210Y009198D01*
X002210Y009137D01*
X002140Y009067D01*
X002140Y005838D01*
X002213Y005765D01*
X002425Y005765D01*
X002425Y005763D01*
X002425Y005667D01*
X002462Y005579D01*
X002529Y005512D01*
X002617Y005475D01*
X003663Y005475D01*
X003751Y005512D01*
X003818Y005579D01*
X003855Y005667D01*
X003855Y005765D01*
X004067Y005765D01*
X004140Y005838D01*
X004140Y009067D01*
X004015Y009192D01*
X003942Y009265D01*
X002570Y009265D01*
X002570Y009306D01*
X002607Y009397D01*
X002607Y009508D01*
X002565Y009611D01*
X002486Y009690D01*
X002383Y009732D01*
X002272Y009732D01*
X002388Y009731D02*
X005044Y009731D01*
X005123Y009809D02*
X001630Y009809D01*
X001708Y009888D02*
X005730Y009888D01*
X005784Y009966D02*
X001755Y009966D01*
X001787Y010045D02*
X005837Y010045D01*
X005891Y010123D02*
X001794Y010123D01*
X001794Y010202D02*
X005944Y010202D01*
X005998Y010280D02*
X001769Y010280D01*
X001737Y010359D02*
X006051Y010359D01*
X006105Y010437D02*
X001664Y010437D01*
X001538Y010516D02*
X006158Y010516D01*
X006530Y010280D02*
X010900Y010280D01*
X010900Y010202D02*
X008674Y010202D01*
X008654Y010222D02*
X008551Y010265D01*
X008439Y010265D01*
X008336Y010222D01*
X008258Y010144D01*
X008215Y010041D01*
X008215Y009929D01*
X008258Y009826D01*
X008336Y009748D01*
X008439Y009705D01*
X008551Y009705D01*
X008559Y009709D01*
X009365Y008903D01*
X009365Y008606D01*
X009356Y008602D01*
X009278Y008524D01*
X009235Y008421D01*
X009235Y008309D01*
X009278Y008206D01*
X009356Y008128D01*
X009459Y008085D01*
X009571Y008085D01*
X009674Y008128D01*
X009752Y008206D01*
X009795Y008309D01*
X009795Y008421D01*
X009752Y008524D01*
X009674Y008602D01*
X009665Y008606D01*
X009665Y009027D01*
X009577Y009115D01*
X008771Y009921D01*
X008775Y009929D01*
X008775Y010041D01*
X008732Y010144D01*
X008654Y010222D01*
X008741Y010123D02*
X010900Y010123D01*
X010900Y010045D02*
X008773Y010045D01*
X008775Y009966D02*
X010900Y009966D01*
X010900Y009888D02*
X008805Y009888D01*
X008883Y009809D02*
X010900Y009809D01*
X010900Y009731D02*
X008962Y009731D01*
X009040Y009652D02*
X010900Y009652D01*
X010900Y009574D02*
X009119Y009574D01*
X009197Y009495D02*
X010900Y009495D01*
X010900Y009417D02*
X009276Y009417D01*
X009354Y009338D02*
X010900Y009338D01*
X010900Y009260D02*
X009433Y009260D01*
X009511Y009181D02*
X010900Y009181D01*
X010900Y009103D02*
X009590Y009103D01*
X009665Y009024D02*
X010900Y009024D01*
X010900Y008946D02*
X009665Y008946D01*
X009665Y008867D02*
X010900Y008867D01*
X010900Y008789D02*
X009665Y008789D01*
X009665Y008710D02*
X010900Y008710D01*
X010900Y008632D02*
X009665Y008632D01*
X009723Y008553D02*
X010900Y008553D01*
X010900Y008475D02*
X009773Y008475D01*
X009795Y008396D02*
X010900Y008396D01*
X010900Y008318D02*
X009795Y008318D01*
X009766Y008239D02*
X010900Y008239D01*
X010900Y008161D02*
X009706Y008161D01*
X009324Y008161D02*
X009140Y008161D01*
X009140Y008239D02*
X009264Y008239D01*
X009235Y008318D02*
X009140Y008318D01*
X009140Y008396D02*
X009235Y008396D01*
X009257Y008475D02*
X009140Y008475D01*
X009140Y008553D02*
X009307Y008553D01*
X009365Y008632D02*
X009140Y008632D01*
X009140Y008710D02*
X009365Y008710D01*
X009365Y008789D02*
X009140Y008789D01*
X009140Y008867D02*
X009365Y008867D01*
X009322Y008946D02*
X009140Y008946D01*
X009140Y009024D02*
X009244Y009024D01*
X009165Y009103D02*
X009104Y009103D01*
X009087Y009181D02*
X009040Y009181D01*
X009008Y009260D02*
X008970Y009260D01*
X008930Y009338D02*
X008892Y009338D01*
X008851Y009417D02*
X005830Y009417D01*
X005765Y009417D02*
X005353Y009417D01*
X005274Y009338D02*
X007388Y009338D01*
X007310Y009260D02*
X005196Y009260D01*
X005117Y009181D02*
X007231Y009181D01*
X007176Y009103D02*
X005110Y009103D01*
X005110Y009024D02*
X007140Y009024D01*
X007140Y008946D02*
X005110Y008946D01*
X005110Y008867D02*
X007140Y008867D01*
X007140Y008789D02*
X005110Y008789D01*
X005110Y008710D02*
X007140Y008710D01*
X007140Y008632D02*
X005110Y008632D01*
X005110Y008553D02*
X007140Y008553D01*
X007140Y008475D02*
X005110Y008475D01*
X005110Y008396D02*
X007140Y008396D01*
X007140Y008318D02*
X005110Y008318D01*
X005110Y008239D02*
X006781Y008239D01*
X006710Y008161D02*
X005110Y008161D01*
X005110Y008082D02*
X006677Y008082D01*
X006673Y008004D02*
X005110Y008004D01*
X005110Y007925D02*
X006687Y007925D01*
X006725Y007847D02*
X005110Y007847D01*
X005110Y007768D02*
X006773Y007768D01*
X006773Y007690D02*
X005110Y007690D01*
X005110Y007611D02*
X006773Y007611D01*
X006773Y007533D02*
X005110Y007533D01*
X005110Y007454D02*
X006773Y007454D01*
X006773Y007376D02*
X005110Y007376D01*
X005110Y007297D02*
X006767Y007297D01*
X006689Y007219D02*
X005110Y007219D01*
X005110Y007140D02*
X006610Y007140D01*
X006532Y007061D02*
X005110Y007061D01*
X005110Y006983D02*
X006312Y006983D01*
X006245Y006904D02*
X005110Y006904D01*
X005110Y006826D02*
X006212Y006826D01*
X006210Y006747D02*
X005110Y006747D01*
X005110Y006669D02*
X006227Y006669D01*
X006269Y006590D02*
X005110Y006590D01*
X005110Y006512D02*
X006369Y006512D01*
X006611Y006512D02*
X007140Y006512D01*
X007140Y006590D02*
X006711Y006590D01*
X006753Y006669D02*
X007140Y006669D01*
X007140Y006747D02*
X006770Y006747D01*
X006806Y006826D02*
X007140Y006826D01*
X007140Y006904D02*
X006884Y006904D01*
X006963Y006983D02*
X007140Y006983D01*
X007140Y007061D02*
X007041Y007061D01*
X007120Y007140D02*
X007140Y007140D01*
X007132Y007219D02*
X007140Y007219D01*
X007132Y007297D02*
X007140Y007297D01*
X007132Y007376D02*
X007140Y007376D01*
X007132Y007454D02*
X007140Y007454D01*
X007132Y007533D02*
X007140Y007533D01*
X007132Y007611D02*
X007140Y007611D01*
X007132Y007690D02*
X007140Y007690D01*
X007132Y007768D02*
X007140Y007768D01*
X007328Y008015D02*
X007328Y008928D01*
X007140Y008239D02*
X007124Y008239D01*
X005995Y009495D02*
X008773Y009495D01*
X008694Y009574D02*
X006048Y009574D01*
X006102Y009652D02*
X008616Y009652D01*
X008378Y009731D02*
X006155Y009731D01*
X006209Y009809D02*
X008275Y009809D01*
X008232Y009888D02*
X006263Y009888D01*
X006316Y009966D02*
X008215Y009966D01*
X008217Y010045D02*
X006370Y010045D01*
X006423Y010123D02*
X008249Y010123D01*
X008316Y010202D02*
X006477Y010202D01*
X006584Y010359D02*
X010900Y010359D01*
X010900Y010437D02*
X010239Y010437D01*
X010365Y010516D02*
X010900Y010516D01*
X010900Y010594D02*
X010424Y010594D01*
X010456Y010673D02*
X010900Y010673D01*
X010900Y010751D02*
X010458Y010751D01*
X010447Y010830D02*
X010900Y010830D01*
X010900Y010908D02*
X010414Y010908D01*
X010343Y010987D02*
X010900Y010987D01*
X010900Y011065D02*
X005709Y011065D01*
X005732Y010987D02*
X009937Y010987D01*
X009915Y010516D02*
X006691Y010516D01*
X006637Y010437D02*
X010041Y010437D01*
X010900Y011144D02*
X005657Y011144D01*
X004966Y009652D02*
X002524Y009652D01*
X002580Y009574D02*
X004887Y009574D01*
X004809Y009495D02*
X002607Y009495D01*
X002607Y009417D02*
X004730Y009417D01*
X004670Y009338D02*
X002583Y009338D01*
X002210Y009181D02*
X000380Y009181D01*
X000380Y009103D02*
X002176Y009103D01*
X002140Y009024D02*
X000380Y009024D01*
X000380Y008946D02*
X002140Y008946D01*
X002140Y008867D02*
X000380Y008867D01*
X000380Y008789D02*
X002140Y008789D01*
X002140Y008710D02*
X000380Y008710D01*
X000380Y008632D02*
X002140Y008632D01*
X002140Y008553D02*
X000380Y008553D01*
X000380Y008475D02*
X002140Y008475D01*
X002140Y008396D02*
X000380Y008396D01*
X000380Y008318D02*
X002140Y008318D01*
X002140Y008239D02*
X000380Y008239D01*
X000380Y008161D02*
X002140Y008161D01*
X002140Y008082D02*
X000380Y008082D01*
X000380Y008004D02*
X002140Y008004D01*
X002140Y007925D02*
X000380Y007925D01*
X000380Y007847D02*
X002140Y007847D01*
X002140Y007768D02*
X000380Y007768D01*
X000380Y007690D02*
X002140Y007690D01*
X002140Y007611D02*
X000380Y007611D01*
X000380Y007533D02*
X002140Y007533D01*
X002140Y007454D02*
X000380Y007454D01*
X000380Y007376D02*
X002140Y007376D01*
X002140Y007297D02*
X000380Y007297D01*
X000380Y007219D02*
X002140Y007219D01*
X002140Y007140D02*
X000380Y007140D01*
X000380Y007061D02*
X002140Y007061D01*
X002140Y006983D02*
X000380Y006983D01*
X000380Y006904D02*
X002140Y006904D01*
X002140Y006826D02*
X000380Y006826D01*
X000380Y006747D02*
X002140Y006747D01*
X002140Y006669D02*
X000380Y006669D01*
X000380Y006590D02*
X002140Y006590D01*
X002140Y006512D02*
X000380Y006512D01*
X000380Y006433D02*
X002140Y006433D01*
X002140Y006355D02*
X000380Y006355D01*
X000380Y006276D02*
X002140Y006276D01*
X002140Y006198D02*
X001779Y006198D01*
X001869Y006119D02*
X002140Y006119D01*
X002140Y006041D02*
X001906Y006041D01*
X001920Y005962D02*
X002140Y005962D01*
X002140Y005884D02*
X001997Y005884D01*
X002076Y005805D02*
X002173Y005805D01*
X002154Y005727D02*
X002425Y005727D01*
X002433Y005648D02*
X002175Y005648D01*
X002175Y005570D02*
X002471Y005570D01*
X002577Y005491D02*
X002175Y005491D01*
X002175Y005413D02*
X004026Y005413D01*
X004104Y005491D02*
X003703Y005491D01*
X003809Y005570D02*
X004183Y005570D01*
X004235Y005648D02*
X003847Y005648D01*
X003855Y005727D02*
X004235Y005727D01*
X004260Y005805D02*
X004107Y005805D01*
X004140Y005884D02*
X004313Y005884D01*
X004441Y005962D02*
X004140Y005962D01*
X004140Y006041D02*
X004555Y006041D01*
X004633Y006119D02*
X004140Y006119D01*
X004140Y006198D02*
X004670Y006198D01*
X004670Y006276D02*
X004140Y006276D01*
X004140Y006355D02*
X004670Y006355D01*
X004670Y006433D02*
X004140Y006433D01*
X004140Y006512D02*
X004670Y006512D01*
X004670Y006590D02*
X004140Y006590D01*
X004140Y006669D02*
X004670Y006669D01*
X004670Y006747D02*
X004140Y006747D01*
X004140Y006826D02*
X004670Y006826D01*
X004670Y006904D02*
X004140Y006904D01*
X004140Y006983D02*
X004670Y006983D01*
X004670Y007061D02*
X004140Y007061D01*
X004140Y007140D02*
X004670Y007140D01*
X004670Y007219D02*
X004140Y007219D01*
X004140Y007297D02*
X004670Y007297D01*
X004670Y007376D02*
X004140Y007376D01*
X004140Y007454D02*
X004670Y007454D01*
X004670Y007533D02*
X004140Y007533D01*
X004140Y007611D02*
X004670Y007611D01*
X004670Y007690D02*
X004140Y007690D01*
X004140Y007768D02*
X004670Y007768D01*
X004670Y007847D02*
X004140Y007847D01*
X004140Y007925D02*
X004670Y007925D01*
X004670Y008004D02*
X004140Y008004D01*
X004140Y008082D02*
X004670Y008082D01*
X004670Y008161D02*
X004140Y008161D01*
X004140Y008239D02*
X004670Y008239D01*
X004670Y008318D02*
X004140Y008318D01*
X004140Y008396D02*
X004670Y008396D01*
X004670Y008475D02*
X004140Y008475D01*
X004140Y008553D02*
X004670Y008553D01*
X004670Y008632D02*
X004140Y008632D01*
X004140Y008710D02*
X004670Y008710D01*
X004670Y008789D02*
X004140Y008789D01*
X004140Y008867D02*
X004670Y008867D01*
X004670Y008946D02*
X004140Y008946D01*
X004140Y009024D02*
X004670Y009024D01*
X004670Y009103D02*
X004104Y009103D01*
X004026Y009181D02*
X004670Y009181D01*
X004670Y009260D02*
X003947Y009260D01*
X002125Y009260D02*
X000380Y009260D01*
X000380Y009338D02*
X002072Y009338D01*
X002048Y009417D02*
X000380Y009417D01*
X000380Y009495D02*
X002048Y009495D01*
X002075Y009574D02*
X000380Y009574D01*
X000380Y009652D02*
X002131Y009652D01*
X005110Y006433D02*
X007140Y006433D01*
X007140Y006355D02*
X005110Y006355D01*
X005110Y006276D02*
X007140Y006276D01*
X007140Y006198D02*
X005110Y006198D01*
X005110Y006119D02*
X007140Y006119D01*
X007140Y006041D02*
X005110Y006041D01*
X005099Y005962D02*
X007140Y005962D01*
X007140Y005884D02*
X005748Y005884D01*
X005744Y005885D02*
X005680Y005895D01*
X005680Y005493D01*
X005600Y005493D01*
X005600Y005895D01*
X005536Y005885D01*
X005470Y005864D01*
X005407Y005832D01*
X005351Y005791D01*
X005302Y005742D01*
X005260Y005685D01*
X005229Y005623D01*
X005207Y005556D01*
X005197Y005492D01*
X005600Y005492D01*
X005600Y005413D01*
X004578Y005413D01*
X004452Y005413D02*
X004450Y005413D01*
X004372Y005334D02*
X005212Y005334D01*
X005207Y005349D02*
X005229Y005282D01*
X005260Y005220D01*
X005302Y005163D01*
X005351Y005114D01*
X005407Y005073D01*
X005470Y005041D01*
X005536Y005020D01*
X005600Y005010D01*
X005600Y005412D01*
X005680Y005412D01*
X005680Y005010D01*
X005744Y005020D01*
X005810Y005041D01*
X005873Y005073D01*
X005929Y005114D01*
X005978Y005163D01*
X006020Y005220D01*
X006051Y005282D01*
X006073Y005349D01*
X006083Y005413D01*
X005680Y005413D01*
X006299Y005413D01*
X006299Y005372D02*
X006360Y005224D01*
X006474Y005110D01*
X006622Y005049D01*
X006783Y005049D01*
X006931Y005110D01*
X007045Y005224D01*
X007106Y005372D01*
X007106Y005533D01*
X007045Y005681D01*
X006931Y005795D01*
X006783Y005856D01*
X006622Y005856D01*
X006474Y005795D01*
X006360Y005681D01*
X006299Y005533D01*
X006299Y005372D01*
X006314Y005334D02*
X006068Y005334D01*
X006038Y005256D02*
X006347Y005256D01*
X006407Y005177D02*
X005989Y005177D01*
X005908Y005099D02*
X006501Y005099D01*
X006121Y005020D02*
X005746Y005020D01*
X005680Y005020D02*
X005600Y005020D01*
X005534Y005020D02*
X004058Y005020D01*
X003979Y004942D02*
X006042Y004942D01*
X005964Y004863D02*
X003977Y004863D01*
X003977Y004785D02*
X005885Y004785D01*
X005807Y004706D02*
X003977Y004706D01*
X003977Y004628D02*
X005545Y004628D01*
X005466Y004549D02*
X003977Y004549D01*
X003977Y004471D02*
X005433Y004471D01*
X005423Y004392D02*
X003977Y004392D01*
X003977Y004314D02*
X005431Y004314D01*
X005463Y004235D02*
X003977Y004235D01*
X003977Y004157D02*
X004320Y004157D01*
X004241Y004078D02*
X003977Y004078D01*
X003977Y004000D02*
X004163Y004000D01*
X004084Y003921D02*
X003977Y003921D01*
X004006Y003843D02*
X003930Y003843D01*
X003927Y003764D02*
X003852Y003764D01*
X003849Y003686D02*
X003773Y003686D01*
X003770Y003607D02*
X003727Y003607D01*
X003727Y003529D02*
X003740Y003529D01*
X003584Y003921D02*
X003507Y003921D01*
X003507Y004000D02*
X003663Y004000D01*
X003678Y004078D02*
X003507Y004078D01*
X003507Y004157D02*
X003678Y004157D01*
X003678Y004235D02*
X003507Y004235D01*
X003507Y004314D02*
X003678Y004314D01*
X003678Y004392D02*
X003507Y004392D01*
X003507Y004471D02*
X003678Y004471D01*
X003678Y004549D02*
X003507Y004549D01*
X003507Y004628D02*
X003678Y004628D01*
X003678Y004706D02*
X003602Y004706D01*
X003650Y004785D02*
X003678Y004785D01*
X003670Y004863D02*
X003678Y004863D01*
X003670Y004942D02*
X003678Y004942D01*
X003678Y005020D02*
X003639Y005020D01*
X003577Y005099D02*
X003712Y005099D01*
X003790Y005177D02*
X002175Y005177D01*
X002175Y005099D02*
X003203Y005099D01*
X003148Y004706D02*
X000380Y004706D01*
X000380Y004628D02*
X003148Y004628D01*
X003148Y004549D02*
X000380Y004549D01*
X000380Y004471D02*
X003148Y004471D01*
X003148Y004392D02*
X000380Y004392D01*
X000380Y004314D02*
X003148Y004314D01*
X002640Y004157D02*
X002640Y004157D01*
X002640Y004078D02*
X002640Y004078D01*
X002640Y004000D02*
X002640Y004000D01*
X002640Y003935D02*
X002640Y003935D01*
X002640Y003921D02*
X002640Y003921D01*
X002640Y003843D02*
X002640Y003843D01*
X002640Y003764D02*
X002640Y003764D01*
X002640Y003686D02*
X002640Y003686D01*
X002640Y003607D02*
X002640Y003607D01*
X002640Y003529D02*
X002640Y003529D01*
X002640Y003450D02*
X002640Y003450D01*
X002640Y003372D02*
X002640Y003372D01*
X002640Y003345D02*
X002640Y003345D01*
X002640Y003293D02*
X002640Y003293D01*
X002640Y003215D02*
X002640Y003215D01*
X002640Y003136D02*
X002640Y003136D01*
X002345Y003136D02*
X002345Y003136D01*
X002345Y003215D02*
X002345Y003215D01*
X002345Y003293D02*
X002345Y003293D01*
X002345Y003372D02*
X002345Y003372D01*
X002345Y003450D02*
X002345Y003450D01*
X002345Y003529D02*
X002345Y003529D01*
X002345Y003607D02*
X002345Y003607D01*
X002345Y003686D02*
X002345Y003686D01*
X002345Y003764D02*
X002345Y003764D01*
X002345Y003843D02*
X002345Y003843D01*
X002345Y003921D02*
X002345Y003921D01*
X002345Y004000D02*
X002345Y004000D01*
X002345Y004078D02*
X002345Y004078D01*
X002345Y004157D02*
X002345Y004157D01*
X002019Y004785D02*
X000380Y004785D01*
X000380Y004863D02*
X001940Y004863D01*
X001862Y004942D02*
X000380Y004942D01*
X000380Y005020D02*
X001855Y005020D01*
X001855Y005099D02*
X000380Y005099D01*
X000380Y005177D02*
X001855Y005177D01*
X001855Y005256D02*
X000380Y005256D01*
X000380Y005334D02*
X001855Y005334D01*
X001855Y005413D02*
X000380Y005413D01*
X000380Y005491D02*
X001855Y005491D01*
X001855Y005570D02*
X000380Y005570D01*
X000380Y005648D02*
X001780Y005648D01*
X001470Y005727D02*
X000380Y005727D01*
X000380Y005805D02*
X001398Y005805D01*
X001365Y005884D02*
X000380Y005884D01*
X000380Y005962D02*
X001360Y005962D01*
X001374Y006041D02*
X000380Y006041D01*
X000380Y006119D02*
X001411Y006119D01*
X001501Y006198D02*
X000380Y006198D01*
X002175Y005334D02*
X003947Y005334D01*
X003869Y005256D02*
X002175Y005256D01*
X004136Y005099D02*
X005372Y005099D01*
X005291Y005177D02*
X004215Y005177D01*
X004293Y005256D02*
X005242Y005256D01*
X005207Y005349D02*
X005197Y005413D01*
X005600Y005413D01*
X005600Y005491D02*
X004712Y005491D01*
X004768Y005570D02*
X005212Y005570D01*
X005242Y005648D02*
X004795Y005648D01*
X004863Y005727D02*
X005291Y005727D01*
X005371Y005805D02*
X004942Y005805D01*
X005020Y005884D02*
X005532Y005884D01*
X005600Y005884D02*
X005680Y005884D01*
X005744Y005885D02*
X005810Y005864D01*
X005873Y005832D01*
X005929Y005791D01*
X005978Y005742D01*
X006020Y005685D01*
X006051Y005623D01*
X006073Y005556D01*
X006083Y005492D01*
X005680Y005492D01*
X005680Y005413D01*
X005680Y005491D02*
X006299Y005491D01*
X006314Y005570D02*
X006068Y005570D01*
X006038Y005648D02*
X006347Y005648D01*
X006406Y005727D02*
X005989Y005727D01*
X005909Y005805D02*
X006500Y005805D01*
X006905Y005805D02*
X007140Y005805D01*
X007140Y005727D02*
X006999Y005727D01*
X007058Y005648D02*
X007140Y005648D01*
X007158Y005570D02*
X007091Y005570D01*
X007106Y005491D02*
X007425Y005491D01*
X007425Y005413D02*
X007106Y005413D01*
X007091Y005334D02*
X007428Y005334D01*
X007461Y005256D02*
X007058Y005256D01*
X006998Y005177D02*
X007551Y005177D01*
X007512Y005099D02*
X006904Y005099D01*
X007308Y004549D02*
X009698Y004549D01*
X009698Y004471D02*
X007435Y004471D01*
X007513Y004392D02*
X009722Y004392D01*
X009698Y004452D02*
X009765Y004289D01*
X009889Y004165D01*
X009949Y004140D01*
X009889Y004115D01*
X009765Y003991D01*
X009698Y003828D01*
X009698Y003652D01*
X009765Y003489D01*
X009889Y003365D01*
X010052Y003298D01*
X010228Y003298D01*
X010391Y003365D01*
X010515Y003489D01*
X010582Y003652D01*
X010582Y003828D01*
X010515Y003991D01*
X010391Y004115D01*
X010331Y004140D01*
X010391Y004165D01*
X010515Y004289D01*
X010582Y004452D01*
X010582Y004628D01*
X010900Y004628D01*
X010900Y004706D02*
X010550Y004706D01*
X010582Y004628D02*
X010515Y004791D01*
X010391Y004915D01*
X010228Y004982D01*
X010052Y004982D01*
X009889Y004915D01*
X009765Y004791D01*
X009698Y004628D01*
X008528Y004628D01*
X008606Y004706D02*
X009730Y004706D01*
X009698Y004628D02*
X009698Y004452D01*
X009755Y004314D02*
X007547Y004314D01*
X007579Y004235D02*
X009819Y004235D01*
X009908Y004157D02*
X007582Y004157D01*
X007582Y004078D02*
X009853Y004078D01*
X009774Y004000D02*
X007561Y004000D01*
X007528Y003921D02*
X009736Y003921D01*
X009704Y003843D02*
X007469Y003843D01*
X007390Y003764D02*
X009698Y003764D01*
X009698Y003686D02*
X006994Y003686D01*
X007072Y003607D02*
X008712Y003607D01*
X009068Y003607D02*
X009716Y003607D01*
X009748Y003529D02*
X009135Y003529D01*
X009168Y003450D02*
X009804Y003450D01*
X009882Y003372D02*
X009170Y003372D01*
X009153Y003293D02*
X009398Y003293D01*
X009757Y003293D02*
X010900Y003293D01*
X010900Y003215D02*
X009824Y003215D01*
X009856Y003136D02*
X010900Y003136D01*
X010900Y003058D02*
X009857Y003058D01*
X009840Y002979D02*
X010900Y002979D01*
X010900Y002901D02*
X009797Y002901D01*
X009694Y002822D02*
X010900Y002822D01*
X010900Y002744D02*
X006915Y002744D01*
X006940Y002665D02*
X010900Y002665D01*
X010900Y002587D02*
X006940Y002587D01*
X006940Y002508D02*
X010900Y002508D01*
X010900Y002430D02*
X006940Y002430D01*
X006940Y002351D02*
X010900Y002351D01*
X010900Y002273D02*
X006940Y002273D01*
X006940Y002194D02*
X010900Y002194D01*
X010900Y002116D02*
X006940Y002116D01*
X006940Y002037D02*
X008045Y002037D01*
X007888Y001959D02*
X006940Y001959D01*
X006940Y001880D02*
X007809Y001880D01*
X007770Y001802D02*
X006940Y001802D01*
X006940Y001723D02*
X007738Y001723D01*
X007736Y001645D02*
X006940Y001645D01*
X006940Y001566D02*
X007736Y001566D01*
X007766Y001488D02*
X006940Y001488D01*
X006940Y001409D02*
X007800Y001409D01*
X007878Y001331D02*
X006931Y001331D01*
X008235Y002037D02*
X009107Y002037D01*
X008950Y001959D02*
X008392Y001959D01*
X008471Y001880D02*
X008872Y001880D01*
X008833Y001802D02*
X008510Y001802D01*
X008542Y001723D02*
X008800Y001723D01*
X008799Y001645D02*
X008544Y001645D01*
X008544Y001566D02*
X008799Y001566D01*
X008828Y001488D02*
X008514Y001488D01*
X008480Y001409D02*
X008760Y001409D01*
X008681Y001331D02*
X008402Y001331D01*
X008792Y001017D02*
X010900Y001017D01*
X010900Y001095D02*
X008870Y001095D01*
X008949Y001174D02*
X010900Y001174D01*
X010900Y001252D02*
X009322Y001252D01*
X009464Y001331D02*
X010900Y001331D01*
X010900Y001409D02*
X009543Y001409D01*
X009577Y001488D02*
X010900Y001488D01*
X010900Y001566D02*
X009606Y001566D01*
X009606Y001645D02*
X010900Y001645D01*
X010900Y001723D02*
X009605Y001723D01*
X009572Y001802D02*
X010900Y001802D01*
X010900Y001880D02*
X009533Y001880D01*
X009455Y001959D02*
X010900Y001959D01*
X010900Y002037D02*
X009298Y002037D01*
X009461Y002822D02*
X006889Y002822D01*
X006864Y002901D02*
X009358Y002901D01*
X010398Y003372D02*
X010900Y003372D01*
X010900Y003450D02*
X010476Y003450D01*
X010532Y003529D02*
X010900Y003529D01*
X010900Y003607D02*
X010564Y003607D01*
X010582Y003686D02*
X010900Y003686D01*
X010900Y003764D02*
X010582Y003764D01*
X010576Y003843D02*
X010900Y003843D01*
X010900Y003921D02*
X010544Y003921D01*
X010506Y004000D02*
X010900Y004000D01*
X010900Y004078D02*
X010427Y004078D01*
X010372Y004157D02*
X010900Y004157D01*
X010900Y004235D02*
X010461Y004235D01*
X010525Y004314D02*
X010900Y004314D01*
X010900Y004392D02*
X010558Y004392D01*
X010582Y004471D02*
X010900Y004471D01*
X010900Y004549D02*
X010582Y004549D01*
X010517Y004785D02*
X010900Y004785D01*
X010900Y004863D02*
X010442Y004863D01*
X010326Y004942D02*
X010900Y004942D01*
X010900Y005020D02*
X009232Y005020D01*
X009232Y005099D02*
X010900Y005099D01*
X010900Y005177D02*
X009214Y005177D01*
X009170Y005256D02*
X010900Y005256D01*
X010900Y005334D02*
X009064Y005334D01*
X008855Y005413D02*
X010900Y005413D01*
X010900Y005491D02*
X008855Y005491D01*
X009122Y005570D02*
X010900Y005570D01*
X010900Y005648D02*
X009140Y005648D01*
X009140Y005727D02*
X010900Y005727D01*
X010900Y005805D02*
X009140Y005805D01*
X009140Y005884D02*
X010900Y005884D01*
X010900Y005962D02*
X009140Y005962D01*
X009140Y006041D02*
X009490Y006041D01*
X009474Y006048D02*
X009622Y005986D01*
X009783Y005986D01*
X009931Y006048D01*
X010045Y006161D01*
X010106Y006310D01*
X010106Y006470D01*
X010045Y006619D01*
X009931Y006732D01*
X009783Y006794D01*
X009622Y006794D01*
X009474Y006732D01*
X009360Y006619D01*
X009299Y006470D01*
X009299Y006310D01*
X009360Y006161D01*
X009474Y006048D01*
X009402Y006119D02*
X009140Y006119D01*
X009140Y006198D02*
X009345Y006198D01*
X009312Y006276D02*
X009140Y006276D01*
X009140Y006355D02*
X009299Y006355D01*
X009299Y006433D02*
X009140Y006433D01*
X009140Y006512D02*
X009316Y006512D01*
X009349Y006590D02*
X009140Y006590D01*
X009140Y006669D02*
X009411Y006669D01*
X009511Y006747D02*
X009140Y006747D01*
X009140Y006826D02*
X010900Y006826D01*
X010900Y006904D02*
X009140Y006904D01*
X009140Y006983D02*
X010900Y006983D01*
X010900Y007061D02*
X009140Y007061D01*
X009140Y007140D02*
X010900Y007140D01*
X010900Y007219D02*
X009140Y007219D01*
X009140Y007297D02*
X010900Y007297D01*
X010900Y007376D02*
X009140Y007376D01*
X009140Y007454D02*
X010900Y007454D01*
X010900Y007533D02*
X009140Y007533D01*
X009140Y007611D02*
X010900Y007611D01*
X010900Y007690D02*
X009140Y007690D01*
X009140Y007768D02*
X010900Y007768D01*
X010900Y007847D02*
X009140Y007847D01*
X009140Y007925D02*
X010900Y007925D01*
X010900Y008004D02*
X009140Y008004D01*
X009140Y008082D02*
X010900Y008082D01*
X010900Y006747D02*
X009894Y006747D01*
X009994Y006669D02*
X010900Y006669D01*
X010900Y006590D02*
X010056Y006590D01*
X010089Y006512D02*
X010900Y006512D01*
X010900Y006433D02*
X010106Y006433D01*
X010106Y006355D02*
X010900Y006355D01*
X010900Y006276D02*
X010093Y006276D01*
X010060Y006198D02*
X010900Y006198D01*
X010900Y006119D02*
X010003Y006119D01*
X009915Y006041D02*
X010900Y006041D01*
X009954Y004942D02*
X009199Y004942D01*
X009134Y004863D02*
X009838Y004863D01*
X009763Y004785D02*
X008685Y004785D01*
X008763Y004863D02*
X008771Y004863D01*
X006838Y002979D02*
X006838Y002979D01*
X005680Y005099D02*
X005600Y005099D01*
X005600Y005177D02*
X005680Y005177D01*
X005680Y005256D02*
X005600Y005256D01*
X005600Y005334D02*
X005680Y005334D01*
X005680Y005570D02*
X005600Y005570D01*
X005600Y005648D02*
X005680Y005648D01*
X005680Y005727D02*
X005600Y005727D01*
X005600Y005805D02*
X005680Y005805D01*
X008890Y007140D02*
X008890Y008990D01*
X009027Y001252D02*
X009083Y001252D01*
X010900Y000938D02*
X000380Y000938D01*
X000380Y000860D02*
X010900Y000860D01*
X010900Y000781D02*
X000380Y000781D01*
X000380Y000703D02*
X010900Y000703D01*
X003988Y001017D02*
X000380Y001017D01*
X000380Y001095D02*
X003910Y001095D01*
D18*
X003390Y004890D02*
X002140Y004890D01*
X002015Y005015D01*
X002015Y005640D01*
X001703Y005953D01*
X001640Y005953D01*
D19*
X010140Y010740D03*
D20*
X006578Y010740D01*
X005828Y009640D01*
X005265Y009640D01*
X004890Y009265D01*
X004890Y006065D01*
X004515Y005690D01*
M02*
