G75*
%MOIN*%
%OFA0B0*%
%FSLAX24Y24*%
%IPPOS*%
%LPD*%
%AMOC8*
5,1,8,0,0,1.08239X$1,22.5*
%
%ADD10R,0.0433X0.0394*%
%ADD11R,0.2165X0.0728*%
%ADD12R,0.0118X0.0315*%
%ADD13R,0.0236X0.0276*%
%ADD14R,0.0394X0.0433*%
%ADD15C,0.0607*%
%ADD16R,0.0472X0.0354*%
%ADD17R,0.0315X0.0354*%
%ADD18R,0.0256X0.0098*%
%ADD19R,0.0315X0.0551*%
%ADD20R,0.0591X0.0512*%
%ADD21R,0.0276X0.0354*%
%ADD22R,0.0335X0.0138*%
%ADD23R,0.0354X0.0276*%
%ADD24C,0.0110*%
%ADD25R,0.0827X0.0827*%
%ADD26C,0.0278*%
%ADD27C,0.0310*%
%ADD28R,0.0315X0.0157*%
%ADD29C,0.0160*%
%ADD30C,0.0120*%
%ADD31C,0.0360*%
%ADD32C,0.0080*%
%ADD33C,0.0100*%
%ADD34C,0.0060*%
%ADD35C,0.0436*%
%ADD36C,0.0240*%
D10*
X000605Y004203D03*
X001275Y004203D03*
X001390Y006118D03*
X001390Y006787D03*
X002328Y008993D03*
X002953Y008993D03*
X002953Y009662D03*
X002328Y009662D03*
X006515Y009975D03*
X006515Y009305D03*
X008368Y009720D03*
X009037Y009720D03*
X006578Y007037D03*
X006578Y006368D03*
D11*
X004400Y007806D03*
X004400Y009814D03*
D12*
X005677Y008765D03*
X006228Y008765D03*
D13*
X006228Y008140D03*
X005677Y008140D03*
D14*
X006610Y008055D03*
X006610Y008725D03*
X006015Y009295D03*
X006015Y009965D03*
X007118Y009770D03*
X007787Y009770D03*
X005537Y007078D03*
X004868Y007078D03*
X004225Y007140D03*
X003555Y007140D03*
X004868Y006390D03*
X004868Y005890D03*
X005537Y005890D03*
X005537Y006390D03*
X004350Y004765D03*
X004100Y004265D03*
X003680Y004765D03*
X003430Y004265D03*
X000890Y002412D03*
X000578Y002993D03*
X000578Y003662D03*
X000890Y001743D03*
X000828Y006118D03*
X000828Y006787D03*
X008868Y006765D03*
X009537Y006765D03*
D15*
X009203Y005890D03*
X006203Y004953D03*
X005140Y004953D03*
X002703Y001140D03*
X001640Y001140D03*
X007640Y001140D03*
X008703Y001140D03*
X000890Y009640D03*
D16*
X003638Y005871D03*
D17*
X004346Y005871D03*
X004346Y006659D03*
X003559Y006659D03*
D18*
X008039Y008322D03*
X008039Y008578D03*
X008039Y008833D03*
X008866Y008833D03*
X008866Y008578D03*
X008866Y008322D03*
D19*
X008453Y008578D03*
D20*
X009640Y008453D03*
X009640Y009202D03*
D21*
X009021Y009203D03*
X008509Y009203D03*
X007583Y009315D03*
X007072Y009315D03*
D22*
X008582Y007515D03*
X009448Y007259D03*
X009448Y007771D03*
D23*
X007578Y008414D03*
X007578Y008926D03*
X007078Y008926D03*
X007078Y008414D03*
D24*
X002632Y004030D02*
X002632Y003806D01*
X002435Y003806D02*
X002435Y004030D01*
X002238Y004030D02*
X002238Y003806D01*
X002042Y003806D02*
X002042Y004030D01*
X001845Y004030D02*
X001845Y003806D01*
X001648Y003806D02*
X001648Y004030D01*
X001474Y003632D02*
X001250Y003632D01*
X001250Y003435D02*
X001474Y003435D01*
X001474Y003238D02*
X001250Y003238D01*
X001250Y003042D02*
X001474Y003042D01*
X001474Y002845D02*
X001250Y002845D01*
X001250Y002648D02*
X001474Y002648D01*
X001648Y002474D02*
X001648Y002250D01*
X001845Y002250D02*
X001845Y002474D01*
X002042Y002474D02*
X002042Y002250D01*
X002238Y002250D02*
X002238Y002474D01*
X002435Y002474D02*
X002435Y002250D01*
X002632Y002250D02*
X002632Y002474D01*
X002806Y002648D02*
X003030Y002648D01*
X003030Y002845D02*
X002806Y002845D01*
X002806Y003042D02*
X003030Y003042D01*
X003030Y003238D02*
X002806Y003238D01*
X002806Y003435D02*
X003030Y003435D01*
X003030Y003632D02*
X002806Y003632D01*
D25*
X002140Y003140D03*
D26*
X002140Y003140D03*
X002140Y003435D03*
X001845Y003435D03*
X001845Y003140D03*
X001845Y002845D03*
X002140Y002845D03*
X002435Y002845D03*
X002435Y003140D03*
X002435Y003435D03*
D27*
X007140Y003390D03*
X007640Y003390D03*
X007640Y003890D03*
X007140Y003890D03*
X008140Y003890D03*
X008140Y003390D03*
X008640Y003390D03*
X009140Y003390D03*
X009140Y003890D03*
X008640Y003890D03*
D28*
X001573Y004756D03*
X001573Y005012D03*
X001573Y005268D03*
X001573Y005524D03*
X000707Y005524D03*
X000707Y005268D03*
X000707Y005012D03*
X000707Y004756D03*
D29*
X000453Y004515D02*
X000453Y004355D01*
X000605Y004203D01*
X000662Y003578D02*
X000890Y003578D01*
X001032Y003435D01*
X001032Y002595D01*
X000890Y002453D01*
X000868Y002453D01*
X002890Y004390D02*
X003305Y004390D01*
X003430Y004265D01*
X003430Y004515D01*
X003680Y004765D01*
X003828Y005515D02*
X004828Y005515D01*
X004890Y005578D01*
X004890Y005868D01*
X004868Y005890D01*
X004805Y006328D02*
X004640Y006328D01*
X004346Y006034D01*
X004346Y005871D01*
X004805Y006328D02*
X004868Y006390D01*
X005537Y006390D02*
X005865Y006390D01*
X005990Y006265D01*
X006350Y006368D02*
X006078Y006640D01*
X006078Y007578D01*
X005953Y007703D01*
X005953Y008328D01*
X006228Y008603D01*
X006228Y008765D01*
X006015Y009965D02*
X006505Y009965D01*
X006515Y009975D01*
X007583Y009315D02*
X007765Y009328D01*
X007953Y009178D01*
X007995Y009135D01*
X008368Y009344D02*
X008368Y009720D01*
X008328Y009703D02*
X008390Y009640D01*
X008390Y009578D01*
X008328Y009703D02*
X008203Y009703D01*
X008140Y009640D01*
X007917Y009640D01*
X007787Y009770D01*
X008368Y009344D02*
X008509Y009203D01*
X008453Y009146D01*
X008453Y008578D01*
X006578Y007390D02*
X006578Y007037D01*
X006578Y007390D02*
X006453Y007515D01*
X006350Y006368D02*
X006578Y006368D01*
X006100Y005890D01*
X006203Y005787D01*
X006203Y004953D01*
X006100Y005890D02*
X005537Y005890D01*
X004225Y007140D02*
X004225Y007555D01*
X004140Y007640D01*
X004234Y007640D01*
X004400Y007806D01*
X004140Y007640D02*
X003640Y007640D01*
X003703Y007703D01*
X003703Y008640D01*
X003350Y008993D01*
X002953Y008993D01*
X002328Y008993D02*
X002287Y008953D01*
X001828Y008953D01*
X002328Y009662D02*
X002953Y009662D01*
X002975Y009640D01*
X003640Y009640D01*
X003814Y009814D01*
X004400Y009814D01*
X003555Y007140D02*
X003555Y006662D01*
X003559Y006659D01*
X003638Y005871D02*
X003638Y005705D01*
X003828Y005515D01*
X001140Y005453D02*
X001069Y005524D01*
X000707Y005524D01*
D30*
X001390Y006118D02*
X001430Y006078D01*
X001765Y006078D01*
X001890Y005953D01*
X001890Y005390D01*
X001768Y005268D01*
X001573Y005268D01*
X001362Y002648D02*
X001390Y002620D01*
X001390Y002015D01*
X001578Y001828D01*
X002453Y001828D01*
X002703Y001578D01*
X002703Y001140D01*
X004287Y007078D02*
X004868Y007078D01*
X004287Y007078D02*
X004225Y007140D01*
X002305Y009640D02*
X002328Y009662D01*
X002305Y009640D02*
X000890Y009640D01*
X009203Y005890D02*
X009537Y006225D01*
X009537Y006765D01*
X009448Y006854D01*
X009448Y007259D01*
D31*
X009015Y007515D03*
X007995Y009135D03*
X006453Y007515D03*
X005990Y006265D03*
X007703Y004578D03*
X008453Y004578D03*
X008390Y002890D03*
X009078Y002578D03*
X005703Y003890D03*
X005203Y003890D03*
X004015Y005190D03*
X003920Y006328D03*
X002890Y004390D03*
X003770Y002890D03*
X003370Y002750D03*
X001140Y004953D03*
X001140Y005453D03*
X001390Y007265D03*
X001828Y008953D03*
X004953Y008578D03*
X005328Y009140D03*
D32*
X003000Y000630D02*
X000380Y000630D01*
X000380Y002636D01*
X000538Y002636D01*
X000538Y002953D01*
X000617Y002953D01*
X000617Y002694D01*
X000593Y002670D01*
X000593Y002154D01*
X000652Y002096D01*
X000661Y002096D01*
X000639Y002090D01*
X000607Y002071D01*
X000581Y002045D01*
X000563Y002013D01*
X000553Y001978D01*
X000553Y001783D01*
X000850Y001783D01*
X000850Y001703D01*
X000553Y001703D01*
X000553Y001508D01*
X000563Y001472D01*
X000581Y001440D01*
X000607Y001414D01*
X000639Y001396D01*
X000675Y001386D01*
X000850Y001386D01*
X000850Y001703D01*
X000930Y001703D01*
X000930Y001783D01*
X001227Y001783D01*
X001227Y001978D01*
X001217Y002013D01*
X001199Y002045D01*
X001173Y002071D01*
X001141Y002090D01*
X001119Y002096D01*
X001128Y002096D01*
X001187Y002154D01*
X001187Y002493D01*
X001230Y002493D01*
X001230Y001949D01*
X001418Y001761D01*
X001511Y001668D01*
X002386Y001668D01*
X002543Y001511D01*
X002543Y001511D01*
X002474Y001482D01*
X002360Y001369D01*
X002299Y001220D01*
X002299Y001060D01*
X002360Y000911D01*
X002474Y000798D01*
X002622Y000736D01*
X002783Y000736D01*
X002862Y000769D01*
X003000Y000630D01*
X002956Y000674D02*
X000380Y000674D01*
X000380Y000752D02*
X001423Y000752D01*
X001407Y000760D02*
X001470Y000729D01*
X001536Y000707D01*
X001600Y000697D01*
X001600Y001100D01*
X001680Y001100D01*
X001680Y001180D01*
X002083Y001180D01*
X002073Y001244D01*
X002051Y001310D01*
X002020Y001373D01*
X001978Y001429D01*
X001929Y001478D01*
X001873Y001520D01*
X001810Y001551D01*
X001744Y001573D01*
X001680Y001583D01*
X001680Y001180D01*
X001600Y001180D01*
X001600Y001583D01*
X001536Y001573D01*
X001470Y001551D01*
X001407Y001520D01*
X001351Y001478D01*
X001302Y001429D01*
X001260Y001373D01*
X001229Y001310D01*
X001207Y001244D01*
X001197Y001180D01*
X001600Y001180D01*
X001600Y001100D01*
X001197Y001100D01*
X001207Y001036D01*
X001229Y000970D01*
X001260Y000907D01*
X001302Y000851D01*
X001351Y000802D01*
X001407Y000760D01*
X001321Y000831D02*
X000380Y000831D01*
X000380Y000909D02*
X001259Y000909D01*
X001223Y000988D02*
X000380Y000988D01*
X000380Y001066D02*
X001202Y001066D01*
X001204Y001223D02*
X000380Y001223D01*
X000380Y001145D02*
X001600Y001145D01*
X001600Y001223D02*
X001680Y001223D01*
X001680Y001145D02*
X002299Y001145D01*
X002300Y001223D02*
X002076Y001223D01*
X002054Y001302D02*
X002333Y001302D01*
X002372Y001380D02*
X002014Y001380D01*
X001949Y001459D02*
X002450Y001459D01*
X002516Y001537D02*
X001837Y001537D01*
X001680Y001537D02*
X001600Y001537D01*
X001600Y001459D02*
X001680Y001459D01*
X001680Y001380D02*
X001600Y001380D01*
X001600Y001302D02*
X001680Y001302D01*
X001680Y001100D02*
X002083Y001100D01*
X002073Y001036D01*
X002051Y000970D01*
X002020Y000907D01*
X001978Y000851D01*
X001929Y000802D01*
X001873Y000760D01*
X001810Y000729D01*
X001744Y000707D01*
X001680Y000697D01*
X001680Y001100D01*
X001680Y001066D02*
X001600Y001066D01*
X001600Y000988D02*
X001680Y000988D01*
X001680Y000909D02*
X001600Y000909D01*
X001600Y000831D02*
X001680Y000831D01*
X001680Y000752D02*
X001600Y000752D01*
X001857Y000752D02*
X002583Y000752D01*
X002441Y000831D02*
X001959Y000831D01*
X002021Y000909D02*
X002362Y000909D01*
X002328Y000988D02*
X002057Y000988D01*
X002078Y001066D02*
X002299Y001066D01*
X002438Y001616D02*
X001227Y001616D01*
X001227Y001694D02*
X001484Y001694D01*
X001406Y001773D02*
X000930Y001773D01*
X000930Y001703D02*
X001227Y001703D01*
X001227Y001508D01*
X001217Y001472D01*
X001199Y001440D01*
X001173Y001414D01*
X001141Y001396D01*
X001105Y001386D01*
X000930Y001386D01*
X000930Y001703D01*
X000930Y001694D02*
X000850Y001694D01*
X000850Y001616D02*
X000930Y001616D01*
X000930Y001537D02*
X000850Y001537D01*
X000850Y001459D02*
X000930Y001459D01*
X001210Y001459D02*
X001331Y001459D01*
X001266Y001380D02*
X000380Y001380D01*
X000380Y001302D02*
X001226Y001302D01*
X001227Y001537D02*
X001443Y001537D01*
X001327Y001851D02*
X001227Y001851D01*
X001227Y001930D02*
X001249Y001930D01*
X001230Y002008D02*
X001219Y002008D01*
X001230Y002087D02*
X001146Y002087D01*
X001187Y002165D02*
X001230Y002165D01*
X001230Y002244D02*
X001187Y002244D01*
X001187Y002322D02*
X001230Y002322D01*
X001230Y002401D02*
X001187Y002401D01*
X001187Y002479D02*
X001230Y002479D01*
X000593Y002479D02*
X000380Y002479D01*
X000380Y002401D02*
X000593Y002401D01*
X000593Y002322D02*
X000380Y002322D01*
X000380Y002244D02*
X000593Y002244D01*
X000593Y002165D02*
X000380Y002165D01*
X000380Y002087D02*
X000634Y002087D01*
X000561Y002008D02*
X000380Y002008D01*
X000380Y001930D02*
X000553Y001930D01*
X000553Y001851D02*
X000380Y001851D01*
X000380Y001773D02*
X000850Y001773D01*
X000553Y001694D02*
X000380Y001694D01*
X000380Y001616D02*
X000553Y001616D01*
X000553Y001537D02*
X000380Y001537D01*
X000380Y001459D02*
X000570Y001459D01*
X000593Y002558D02*
X000380Y002558D01*
X000538Y002636D02*
X000593Y002636D01*
X000617Y002715D02*
X000538Y002715D01*
X000538Y002793D02*
X000617Y002793D01*
X000617Y002872D02*
X000538Y002872D01*
X000538Y002950D02*
X000617Y002950D01*
X001057Y003665D02*
X000965Y003757D01*
X000874Y003757D01*
X000874Y003875D01*
X000876Y003875D01*
X000908Y003894D01*
X000934Y003920D01*
X000952Y003952D01*
X000958Y003973D01*
X000958Y003964D01*
X001017Y003906D01*
X001493Y003906D01*
X001493Y003827D01*
X001362Y003827D01*
X001225Y003827D01*
X001175Y003814D01*
X000874Y003814D01*
X000906Y003892D02*
X001493Y003892D01*
X001362Y003827D02*
X001362Y003632D01*
X001362Y003827D01*
X001362Y003814D02*
X001362Y003814D01*
X001362Y003735D02*
X001362Y003735D01*
X001362Y003657D02*
X001362Y003657D01*
X001362Y003632D02*
X001362Y003632D01*
X001175Y003814D02*
X001130Y003788D01*
X001094Y003752D01*
X001068Y003707D01*
X001057Y003665D01*
X001085Y003735D02*
X000987Y003735D01*
X000958Y003971D02*
X000958Y003971D01*
X000453Y004515D02*
X000390Y004578D01*
X000390Y004765D01*
X000380Y004756D02*
X000449Y004756D01*
X000449Y004834D02*
X000380Y004834D01*
X000437Y004847D02*
X000419Y004879D01*
X000409Y004915D01*
X000409Y005012D01*
X000707Y005012D01*
X000707Y005012D01*
X001004Y005012D01*
X001004Y004915D01*
X000995Y004879D01*
X000976Y004847D01*
X000964Y004835D01*
X000964Y004665D01*
X001316Y004665D01*
X001316Y004835D01*
X001304Y004847D01*
X001285Y004879D01*
X001276Y004915D01*
X001276Y005012D01*
X001573Y005012D01*
X001573Y005012D01*
X001276Y005012D01*
X001276Y005109D01*
X001285Y005145D01*
X001304Y005177D01*
X001316Y005189D01*
X001316Y005232D01*
X001299Y005215D01*
X001196Y005173D01*
X001084Y005173D01*
X001030Y005195D01*
X001030Y005145D01*
X001002Y005117D01*
X001004Y005109D01*
X001004Y005012D01*
X000707Y005012D01*
X000707Y005012D01*
X000409Y005012D01*
X000409Y005109D01*
X000419Y005145D01*
X000426Y005156D01*
X000380Y005202D01*
X000380Y004539D01*
X000557Y004539D01*
X000557Y004577D01*
X000508Y004577D01*
X000449Y004636D01*
X000449Y004835D01*
X000437Y004847D01*
X000410Y004913D02*
X000380Y004913D01*
X000380Y004991D02*
X000409Y004991D01*
X000409Y005070D02*
X000380Y005070D01*
X000380Y005148D02*
X000421Y005148D01*
X000515Y005265D02*
X000515Y006265D01*
X001015Y006265D01*
X001015Y005890D01*
X000890Y005765D01*
X000890Y005203D01*
X000578Y005203D01*
X000515Y005265D01*
X000515Y005305D02*
X000890Y005305D01*
X000890Y005227D02*
X000553Y005227D01*
X000515Y005384D02*
X000890Y005384D01*
X000890Y005462D02*
X000515Y005462D01*
X000515Y005541D02*
X000890Y005541D01*
X000890Y005619D02*
X000515Y005619D01*
X000515Y005698D02*
X000890Y005698D01*
X000901Y005776D02*
X000515Y005776D01*
X000515Y005855D02*
X000980Y005855D01*
X001015Y005933D02*
X000515Y005933D01*
X000515Y006012D02*
X001015Y006012D01*
X001015Y006090D02*
X000515Y006090D01*
X000515Y006169D02*
X001015Y006169D01*
X001015Y006247D02*
X000515Y006247D01*
X000380Y006328D02*
X000380Y010150D01*
X003217Y010150D01*
X003217Y009952D01*
X003210Y009959D01*
X002695Y009959D01*
X002640Y009904D01*
X002585Y009959D01*
X002070Y009959D01*
X002011Y009900D01*
X002011Y009800D01*
X001261Y009800D01*
X001232Y009869D01*
X001119Y009982D01*
X000970Y010044D01*
X000810Y010044D01*
X000661Y009982D01*
X000548Y009869D01*
X000486Y009720D01*
X000486Y009560D01*
X000548Y009411D01*
X000661Y009298D01*
X000810Y009236D01*
X000970Y009236D01*
X001119Y009298D01*
X001232Y009411D01*
X001261Y009480D01*
X002011Y009480D01*
X002011Y009424D01*
X002070Y009365D01*
X002585Y009365D01*
X002640Y009420D01*
X002695Y009365D01*
X003210Y009365D01*
X003235Y009390D01*
X003276Y009350D01*
X005141Y009350D01*
X005090Y009299D01*
X005048Y009196D01*
X005048Y009084D01*
X005090Y008981D01*
X005169Y008903D01*
X005272Y008860D01*
X005287Y008860D01*
X005250Y008823D01*
X005250Y008270D01*
X003882Y008270D01*
X003882Y008715D01*
X003777Y008820D01*
X003424Y009173D01*
X003269Y009173D01*
X003269Y009231D01*
X003210Y009290D01*
X002695Y009290D01*
X002640Y009235D01*
X002585Y009290D01*
X002070Y009290D01*
X002011Y009231D01*
X002011Y009165D01*
X001986Y009190D01*
X001883Y009232D01*
X001772Y009232D01*
X001669Y009190D01*
X001590Y009111D01*
X001548Y009008D01*
X001548Y008897D01*
X001590Y008794D01*
X001669Y008715D01*
X001772Y008673D01*
X001883Y008673D01*
X001986Y008715D01*
X002018Y008747D01*
X002070Y008696D01*
X002585Y008696D01*
X002640Y008751D01*
X002695Y008696D01*
X003210Y008696D01*
X003269Y008755D01*
X003269Y008813D01*
X003275Y008813D01*
X003523Y008565D01*
X003523Y008270D01*
X003355Y008270D01*
X003355Y008438D01*
X003318Y008526D01*
X003251Y008593D01*
X003163Y008630D01*
X002117Y008630D01*
X002029Y008593D01*
X001962Y008526D01*
X001925Y008438D01*
X001925Y006144D01*
X001831Y006237D01*
X001707Y006237D01*
X001707Y006356D01*
X001648Y006415D01*
X001132Y006415D01*
X001109Y006391D01*
X001066Y006434D01*
X001057Y006434D01*
X001078Y006440D01*
X001110Y006459D01*
X001114Y006463D01*
X001119Y006460D01*
X001155Y006450D01*
X001350Y006450D01*
X001350Y006747D01*
X001430Y006747D01*
X001430Y006450D01*
X001625Y006450D01*
X001661Y006460D01*
X001692Y006478D01*
X001719Y006504D01*
X001737Y006536D01*
X001747Y006572D01*
X001747Y006747D01*
X001430Y006747D01*
X001430Y006827D01*
X001747Y006827D01*
X001747Y007002D01*
X001737Y007038D01*
X001719Y007070D01*
X001692Y007096D01*
X001661Y007114D01*
X001625Y007124D01*
X001430Y007124D01*
X001430Y006827D01*
X001350Y006827D01*
X001350Y006747D01*
X001033Y006747D01*
X000868Y006747D01*
X000868Y006827D01*
X001350Y006827D01*
X001350Y007124D01*
X001155Y007124D01*
X001119Y007114D01*
X001114Y007112D01*
X001110Y007116D01*
X001078Y007134D01*
X001043Y007144D01*
X000867Y007144D01*
X000867Y006827D01*
X000788Y006827D01*
X000788Y007144D01*
X000612Y007144D01*
X000577Y007134D01*
X000545Y007116D01*
X000519Y007090D01*
X000500Y007058D01*
X000491Y007022D01*
X000491Y006827D01*
X000787Y006827D01*
X000787Y006747D01*
X000491Y006747D01*
X000491Y006552D01*
X000500Y006517D01*
X000519Y006485D01*
X000545Y006459D01*
X000577Y006440D01*
X000598Y006434D01*
X000589Y006434D01*
X000560Y006405D01*
X000457Y006405D01*
X000380Y006328D01*
X000380Y006404D02*
X000457Y006404D01*
X000520Y006483D02*
X000380Y006483D01*
X000380Y006561D02*
X000491Y006561D01*
X000491Y006640D02*
X000380Y006640D01*
X000380Y006719D02*
X000491Y006719D01*
X000380Y006797D02*
X000787Y006797D01*
X000788Y006876D02*
X000867Y006876D01*
X000867Y006954D02*
X000788Y006954D01*
X000788Y007033D02*
X000867Y007033D01*
X000867Y007111D02*
X000788Y007111D01*
X000540Y007111D02*
X000380Y007111D01*
X000380Y007033D02*
X000493Y007033D01*
X000491Y006954D02*
X000380Y006954D01*
X000380Y006876D02*
X000491Y006876D01*
X000380Y007190D02*
X001925Y007190D01*
X001925Y007268D02*
X000380Y007268D01*
X000380Y007347D02*
X001925Y007347D01*
X001925Y007425D02*
X000380Y007425D01*
X000380Y007504D02*
X001925Y007504D01*
X001925Y007582D02*
X000380Y007582D01*
X000380Y007661D02*
X001925Y007661D01*
X001925Y007739D02*
X000380Y007739D01*
X000380Y007818D02*
X001925Y007818D01*
X001925Y007896D02*
X000380Y007896D01*
X000380Y007975D02*
X001925Y007975D01*
X001925Y008053D02*
X000380Y008053D01*
X000380Y008132D02*
X001925Y008132D01*
X001925Y008210D02*
X000380Y008210D01*
X000380Y008289D02*
X001925Y008289D01*
X001925Y008367D02*
X000380Y008367D01*
X000380Y008446D02*
X001928Y008446D01*
X001961Y008524D02*
X000380Y008524D01*
X000380Y008603D02*
X002051Y008603D01*
X001904Y008681D02*
X003407Y008681D01*
X003485Y008603D02*
X003229Y008603D01*
X003319Y008524D02*
X003523Y008524D01*
X003523Y008446D02*
X003352Y008446D01*
X003355Y008367D02*
X003523Y008367D01*
X003523Y008289D02*
X003355Y008289D01*
X003328Y008760D02*
X003269Y008760D01*
X003524Y009074D02*
X005052Y009074D01*
X005048Y009152D02*
X003445Y009152D01*
X003269Y009231D02*
X005062Y009231D01*
X005101Y009309D02*
X001130Y009309D01*
X001208Y009388D02*
X002047Y009388D01*
X002011Y009466D02*
X001255Y009466D01*
X001575Y009074D02*
X000380Y009074D01*
X000380Y009152D02*
X001631Y009152D01*
X001767Y009231D02*
X000380Y009231D01*
X000380Y009309D02*
X000650Y009309D01*
X000572Y009388D02*
X000380Y009388D01*
X000380Y009466D02*
X000525Y009466D01*
X000493Y009545D02*
X000380Y009545D01*
X000380Y009623D02*
X000486Y009623D01*
X000486Y009702D02*
X000380Y009702D01*
X000380Y009780D02*
X000511Y009780D01*
X000543Y009859D02*
X000380Y009859D01*
X000380Y009937D02*
X000616Y009937D01*
X000742Y010016D02*
X000380Y010016D01*
X000380Y010094D02*
X003217Y010094D01*
X003217Y010016D02*
X001038Y010016D01*
X001164Y009937D02*
X002048Y009937D01*
X002011Y009859D02*
X001237Y009859D01*
X001888Y009231D02*
X002011Y009231D01*
X001548Y008995D02*
X000380Y008995D01*
X000380Y008917D02*
X001548Y008917D01*
X001572Y008838D02*
X000380Y008838D01*
X000380Y008760D02*
X001625Y008760D01*
X001751Y008681D02*
X000380Y008681D01*
X001350Y007111D02*
X001430Y007111D01*
X001430Y007033D02*
X001350Y007033D01*
X001350Y006954D02*
X001430Y006954D01*
X001430Y006876D02*
X001350Y006876D01*
X001350Y006797D02*
X000868Y006797D01*
X001096Y006404D02*
X001122Y006404D01*
X001350Y006483D02*
X001430Y006483D01*
X001430Y006561D02*
X001350Y006561D01*
X001350Y006640D02*
X001430Y006640D01*
X001430Y006719D02*
X001350Y006719D01*
X001430Y006797D02*
X001925Y006797D01*
X001925Y006876D02*
X001747Y006876D01*
X001747Y006954D02*
X001925Y006954D01*
X001925Y007033D02*
X001738Y007033D01*
X001667Y007111D02*
X001925Y007111D01*
X001925Y006719D02*
X001747Y006719D01*
X001747Y006640D02*
X001925Y006640D01*
X001925Y006561D02*
X001744Y006561D01*
X001697Y006483D02*
X001925Y006483D01*
X001925Y006404D02*
X001658Y006404D01*
X001707Y006326D02*
X001925Y006326D01*
X001925Y006247D02*
X001707Y006247D01*
X001900Y006169D02*
X001925Y006169D01*
X001925Y006144D02*
X001925Y006144D01*
X001925Y005199D02*
X001925Y004842D01*
X001943Y004799D01*
X001861Y004881D01*
X001871Y004915D01*
X001871Y005012D01*
X001573Y005012D01*
X001573Y005012D01*
X001871Y005012D01*
X001871Y005109D01*
X001863Y005137D01*
X001925Y005199D01*
X001925Y005148D02*
X001875Y005148D01*
X001871Y005070D02*
X001925Y005070D01*
X001925Y004991D02*
X001871Y004991D01*
X001870Y004913D02*
X001925Y004913D01*
X001928Y004834D02*
X001908Y004834D01*
X001316Y004834D02*
X000964Y004834D01*
X000964Y004756D02*
X001316Y004756D01*
X001316Y004677D02*
X000964Y004677D01*
X001004Y004913D02*
X001276Y004913D01*
X001276Y004991D02*
X001004Y004991D01*
X001004Y005070D02*
X001276Y005070D01*
X001287Y005148D02*
X001030Y005148D01*
X001310Y005227D02*
X001316Y005227D01*
X000449Y004677D02*
X000380Y004677D01*
X000380Y004599D02*
X000486Y004599D01*
X001596Y003140D02*
X001596Y003140D01*
X001845Y003140D01*
X001861Y003140D01*
X002100Y003140D01*
X002100Y003140D01*
X001845Y003140D01*
X001845Y003140D01*
X001845Y003140D01*
X001596Y003140D01*
X001596Y003140D01*
X002140Y003100D02*
X002140Y002845D01*
X002140Y002845D01*
X002140Y003100D01*
X002140Y003100D01*
X002180Y003140D02*
X002435Y003140D01*
X002435Y003140D01*
X002180Y003140D01*
X002180Y003140D01*
X002140Y003180D02*
X002140Y003435D01*
X002140Y003435D01*
X002140Y003180D01*
X002140Y003180D01*
X002140Y003186D02*
X002140Y003186D01*
X002140Y003264D02*
X002140Y003264D01*
X002140Y003343D02*
X002140Y003343D01*
X002140Y003421D02*
X002140Y003421D01*
X002140Y003435D02*
X002140Y003684D01*
X002140Y003684D01*
X002140Y003435D01*
X002140Y003435D01*
X002140Y003500D02*
X002140Y003500D01*
X002140Y003578D02*
X002140Y003578D01*
X002140Y003657D02*
X002140Y003657D01*
X002140Y003684D02*
X002140Y003684D01*
X002435Y003140D02*
X002684Y003140D01*
X002435Y003140D01*
X002435Y003140D01*
X002684Y003140D02*
X002684Y003140D01*
X002684Y003140D01*
X002140Y003029D02*
X002140Y003029D01*
X002140Y002950D02*
X002140Y002950D01*
X002140Y002872D02*
X002140Y002872D01*
X002140Y002845D02*
X002140Y002596D01*
X002140Y002845D01*
X002140Y002845D01*
X002140Y002793D02*
X002140Y002793D01*
X002140Y002715D02*
X002140Y002715D01*
X002140Y002636D02*
X002140Y002636D01*
X002140Y002596D02*
X002140Y002596D01*
X002140Y002596D01*
X002822Y000752D02*
X002878Y000752D01*
X004396Y004359D02*
X004396Y004448D01*
X004588Y004448D01*
X004646Y004507D01*
X004646Y005023D01*
X004588Y005082D01*
X004570Y005082D01*
X004570Y005209D01*
X004485Y005294D01*
X004444Y005335D01*
X004902Y005335D01*
X004965Y005398D01*
X005070Y005503D01*
X005070Y005573D01*
X005106Y005573D01*
X005165Y005632D01*
X005165Y006648D01*
X005106Y006707D01*
X004644Y006707D01*
X004644Y006761D01*
X005106Y006761D01*
X005165Y006820D01*
X005165Y007335D01*
X005158Y007342D01*
X005247Y007342D01*
X005240Y007335D01*
X005240Y006820D01*
X005299Y006761D01*
X005321Y006761D01*
X005375Y006707D01*
X005299Y006707D01*
X005240Y006648D01*
X005240Y005632D01*
X005299Y005573D01*
X005775Y005573D01*
X005834Y005632D01*
X005834Y005710D01*
X006023Y005710D01*
X006023Y005315D01*
X005974Y005295D01*
X005860Y005181D01*
X005799Y005033D01*
X005799Y004872D01*
X005860Y004724D01*
X005974Y004610D01*
X006122Y004549D01*
X006283Y004549D01*
X006431Y004610D01*
X006545Y004724D01*
X006606Y004872D01*
X006606Y005033D01*
X006545Y005181D01*
X006431Y005295D01*
X006382Y005315D01*
X006382Y005862D01*
X006354Y005890D01*
X006535Y006071D01*
X006835Y006071D01*
X006894Y006130D01*
X006894Y006606D01*
X006835Y006665D01*
X006320Y006665D01*
X006313Y006659D01*
X006257Y006715D01*
X006257Y007314D01*
X006279Y007293D01*
X006261Y007275D01*
X006261Y006799D01*
X006320Y006740D01*
X006835Y006740D01*
X006894Y006799D01*
X006894Y007275D01*
X006835Y007334D01*
X006757Y007334D01*
X006757Y007465D01*
X006732Y007490D01*
X006732Y007571D01*
X006690Y007674D01*
X006665Y007699D01*
X006825Y007699D01*
X006861Y007708D01*
X006893Y007727D01*
X006919Y007753D01*
X006925Y007763D01*
X006925Y005167D01*
X006962Y005079D01*
X007029Y005012D01*
X007117Y004975D01*
X008163Y004975D01*
X008251Y005012D01*
X008318Y005079D01*
X008355Y005167D01*
X008355Y007364D01*
X008373Y007346D01*
X008788Y007346D01*
X008856Y007278D01*
X008959Y007235D01*
X009071Y007235D01*
X009174Y007278D01*
X009181Y007285D01*
X009181Y007149D01*
X009239Y007090D01*
X009288Y007090D01*
X009288Y007071D01*
X009240Y007023D01*
X009240Y006507D01*
X009299Y006448D01*
X009377Y006448D01*
X009377Y006291D01*
X009352Y006265D01*
X009283Y006294D01*
X009122Y006294D01*
X008974Y006232D01*
X008860Y006119D01*
X008799Y005970D01*
X008799Y005810D01*
X008860Y005661D01*
X008974Y005548D01*
X009122Y005486D01*
X009283Y005486D01*
X009431Y005548D01*
X009545Y005661D01*
X009606Y005810D01*
X009606Y005970D01*
X009578Y006039D01*
X009697Y006158D01*
X009697Y006448D01*
X009775Y006448D01*
X009834Y006507D01*
X009834Y007023D01*
X009775Y007082D01*
X009608Y007082D01*
X009608Y007090D01*
X009657Y007090D01*
X009715Y007149D01*
X009715Y007369D01*
X009657Y007428D01*
X009282Y007428D01*
X009295Y007459D01*
X009295Y007562D01*
X009448Y007562D01*
X009448Y007771D01*
X009448Y007980D01*
X009262Y007980D01*
X009227Y007970D01*
X009195Y007952D01*
X009169Y007926D01*
X009150Y007894D01*
X009141Y007858D01*
X009141Y007771D01*
X009448Y007771D01*
X009448Y007771D01*
X009448Y007771D01*
X009448Y007980D01*
X009634Y007980D01*
X009669Y007970D01*
X009701Y007952D01*
X009727Y007926D01*
X009746Y007894D01*
X009755Y007858D01*
X009755Y007771D01*
X009448Y007771D01*
X009141Y007771D01*
X009141Y007766D01*
X009071Y007795D01*
X008959Y007795D01*
X008856Y007752D01*
X008788Y007684D01*
X008373Y007684D01*
X008355Y007666D01*
X008355Y008113D01*
X008335Y008162D01*
X008414Y008162D01*
X008414Y008539D01*
X008491Y008539D01*
X008491Y008162D01*
X008563Y008162D01*
X008563Y008145D01*
X008645Y008063D01*
X009900Y008063D01*
X009900Y004406D01*
X009891Y004415D01*
X009728Y004482D01*
X009552Y004482D01*
X009389Y004415D01*
X009265Y004291D01*
X009203Y004140D01*
X009191Y004145D01*
X009089Y004145D01*
X008996Y004106D01*
X008924Y004034D01*
X008890Y003953D01*
X008856Y004034D01*
X008790Y004101D01*
X008790Y004452D01*
X008729Y004513D01*
X008732Y004522D01*
X008732Y004633D01*
X008690Y004736D01*
X008611Y004815D01*
X008508Y004857D01*
X008397Y004857D01*
X008294Y004815D01*
X008215Y004736D01*
X008173Y004633D01*
X008173Y004522D01*
X008215Y004419D01*
X008294Y004340D01*
X008397Y004298D01*
X008490Y004298D01*
X008490Y004101D01*
X008424Y004034D01*
X008390Y003953D01*
X008356Y004034D01*
X008290Y004101D01*
X008290Y004202D01*
X008202Y004290D01*
X007979Y004513D01*
X007982Y004522D01*
X007982Y004633D01*
X007940Y004736D01*
X007861Y004815D01*
X007758Y004857D01*
X007647Y004857D01*
X007544Y004815D01*
X007465Y004736D01*
X007423Y004633D01*
X007423Y004522D01*
X007465Y004419D01*
X007544Y004340D01*
X007647Y004298D01*
X007758Y004298D01*
X007767Y004301D01*
X007979Y004089D01*
X007924Y004034D01*
X007912Y004005D01*
X007901Y004030D01*
X007869Y004078D01*
X007828Y004119D01*
X007780Y004151D01*
X007726Y004174D01*
X007678Y004183D01*
X007678Y003928D01*
X007602Y003928D01*
X007602Y004183D01*
X007554Y004174D01*
X007500Y004151D01*
X007452Y004119D01*
X007411Y004078D01*
X007379Y004030D01*
X007368Y004005D01*
X007356Y004034D01*
X007284Y004106D01*
X007191Y004145D01*
X007097Y004145D01*
X006890Y004352D01*
X004427Y004352D01*
X004396Y004359D01*
X004396Y004363D02*
X007521Y004363D01*
X007456Y004442D02*
X004396Y004442D01*
X004646Y004520D02*
X005034Y004520D01*
X005036Y004520D02*
X005100Y004510D01*
X005100Y004912D01*
X005180Y004912D01*
X005180Y004510D01*
X005244Y004520D01*
X005310Y004541D01*
X005373Y004573D01*
X005429Y004614D01*
X005478Y004663D01*
X005520Y004720D01*
X005551Y004782D01*
X005573Y004849D01*
X005583Y004913D01*
X005180Y004913D01*
X005799Y004913D01*
X005799Y004991D02*
X005180Y004991D01*
X005180Y004992D02*
X005583Y004992D01*
X005573Y005056D01*
X005551Y005123D01*
X005520Y005185D01*
X005478Y005242D01*
X005429Y005291D01*
X005373Y005332D01*
X005310Y005364D01*
X005244Y005385D01*
X005180Y005395D01*
X005180Y004993D01*
X005100Y004993D01*
X005100Y005395D01*
X005036Y005385D01*
X004970Y005364D01*
X004907Y005332D01*
X004851Y005291D01*
X004802Y005242D01*
X004760Y005185D01*
X004729Y005123D01*
X004707Y005056D01*
X004697Y004992D01*
X005100Y004992D01*
X005100Y004913D01*
X004646Y004913D01*
X004697Y004913D02*
X004707Y004849D01*
X004729Y004782D01*
X004760Y004720D01*
X004802Y004663D01*
X004851Y004614D01*
X004907Y004573D01*
X004970Y004541D01*
X005036Y004520D01*
X005100Y004520D02*
X005180Y004520D01*
X005246Y004520D02*
X007423Y004520D01*
X007423Y004599D02*
X006404Y004599D01*
X006498Y004677D02*
X007441Y004677D01*
X007485Y004756D02*
X006558Y004756D01*
X006591Y004834D02*
X007591Y004834D01*
X007814Y004834D02*
X008341Y004834D01*
X008235Y004756D02*
X007920Y004756D01*
X007964Y004677D02*
X008191Y004677D01*
X008173Y004599D02*
X007982Y004599D01*
X007982Y004520D02*
X008173Y004520D01*
X008206Y004442D02*
X008050Y004442D01*
X008129Y004363D02*
X008271Y004363D01*
X008207Y004285D02*
X008490Y004285D01*
X008490Y004206D02*
X008286Y004206D01*
X008290Y004128D02*
X008490Y004128D01*
X008439Y004049D02*
X008341Y004049D01*
X008382Y003971D02*
X008398Y003971D01*
X008790Y004128D02*
X009048Y004128D01*
X008939Y004049D02*
X008841Y004049D01*
X008882Y003971D02*
X008898Y003971D01*
X008790Y004206D02*
X009230Y004206D01*
X009263Y004285D02*
X008790Y004285D01*
X008790Y004363D02*
X009338Y004363D01*
X009454Y004442D02*
X008790Y004442D01*
X008732Y004520D02*
X009900Y004520D01*
X009900Y004442D02*
X009826Y004442D01*
X009900Y004599D02*
X008732Y004599D01*
X008714Y004677D02*
X009900Y004677D01*
X009900Y004756D02*
X008670Y004756D01*
X008564Y004834D02*
X009900Y004834D01*
X009900Y004913D02*
X006606Y004913D01*
X006606Y004991D02*
X007077Y004991D01*
X006971Y005070D02*
X006591Y005070D01*
X006558Y005148D02*
X006933Y005148D01*
X006925Y005227D02*
X006499Y005227D01*
X006405Y005305D02*
X006925Y005305D01*
X006925Y005384D02*
X006382Y005384D01*
X006382Y005462D02*
X006925Y005462D01*
X006925Y005541D02*
X006382Y005541D01*
X006382Y005619D02*
X006925Y005619D01*
X006925Y005698D02*
X006382Y005698D01*
X006382Y005776D02*
X006925Y005776D01*
X006925Y005855D02*
X006382Y005855D01*
X006398Y005933D02*
X006925Y005933D01*
X006925Y006012D02*
X006476Y006012D01*
X006855Y006090D02*
X006925Y006090D01*
X006925Y006169D02*
X006894Y006169D01*
X006894Y006247D02*
X006925Y006247D01*
X006925Y006326D02*
X006894Y006326D01*
X006894Y006404D02*
X006925Y006404D01*
X006925Y006483D02*
X006894Y006483D01*
X006894Y006561D02*
X006925Y006561D01*
X006925Y006640D02*
X006860Y006640D01*
X006925Y006719D02*
X006257Y006719D01*
X006257Y006797D02*
X006263Y006797D01*
X006257Y006876D02*
X006261Y006876D01*
X006257Y006954D02*
X006261Y006954D01*
X006257Y007033D02*
X006261Y007033D01*
X006257Y007111D02*
X006261Y007111D01*
X006257Y007190D02*
X006261Y007190D01*
X006257Y007268D02*
X006261Y007268D01*
X006226Y007684D02*
X006152Y007757D01*
X006132Y007777D01*
X006132Y007862D01*
X006209Y007862D01*
X006209Y008121D01*
X006247Y008121D01*
X006247Y007862D01*
X006273Y007862D01*
X006273Y007820D01*
X006283Y007785D01*
X006300Y007755D01*
X006294Y007752D01*
X006226Y007684D01*
X006171Y007739D02*
X006281Y007739D01*
X006274Y007818D02*
X006132Y007818D01*
X006152Y007757D02*
X006152Y007757D01*
X006140Y007890D02*
X006140Y008260D01*
X006145Y008265D01*
X006703Y008265D01*
X006846Y008408D01*
X006848Y008408D01*
X006907Y008467D01*
X006907Y008469D01*
X006953Y008515D01*
X007692Y008515D01*
X007703Y008505D01*
X007703Y008305D01*
X007117Y008305D01*
X007029Y008268D01*
X006962Y008201D01*
X006925Y008113D01*
X006925Y008050D01*
X006765Y007890D01*
X006140Y007890D01*
X006140Y007896D02*
X006771Y007896D01*
X006850Y007975D02*
X006140Y007975D01*
X006209Y007975D02*
X006247Y007975D01*
X006247Y008053D02*
X006209Y008053D01*
X006140Y008053D02*
X006925Y008053D01*
X006933Y008132D02*
X006140Y008132D01*
X006140Y008210D02*
X006971Y008210D01*
X007077Y008289D02*
X006726Y008289D01*
X006805Y008367D02*
X007703Y008367D01*
X007703Y008446D02*
X006886Y008446D01*
X006800Y008561D02*
X006755Y008515D01*
X006203Y008515D01*
X006203Y008953D01*
X006229Y008979D01*
X006253Y008979D01*
X006283Y009009D01*
X006773Y009009D01*
X006779Y009015D01*
X006890Y009015D01*
X006953Y009078D01*
X006953Y009453D01*
X007203Y009453D01*
X007203Y008828D01*
X007030Y008655D01*
X006895Y008655D01*
X006891Y008652D01*
X006859Y008652D01*
X006800Y008593D01*
X006800Y008561D01*
X006810Y008603D02*
X006203Y008603D01*
X006203Y008681D02*
X007056Y008681D01*
X007135Y008760D02*
X006203Y008760D01*
X006203Y008838D02*
X007203Y008838D01*
X007203Y008917D02*
X006203Y008917D01*
X006269Y008995D02*
X007203Y008995D01*
X007203Y009074D02*
X006949Y009074D01*
X006953Y009015D02*
X007742Y009015D01*
X007758Y008976D01*
X007811Y008923D01*
X007811Y008743D01*
X007870Y008684D01*
X007976Y008684D01*
X007977Y008683D01*
X008101Y008683D01*
X008102Y008684D01*
X008140Y008684D01*
X008140Y008578D01*
X007855Y008578D01*
X007855Y008593D01*
X007796Y008652D01*
X007753Y008652D01*
X007578Y008828D01*
X006953Y008828D01*
X006953Y009015D01*
X006953Y008995D02*
X007750Y008995D01*
X007811Y008917D02*
X006953Y008917D01*
X006953Y008838D02*
X007811Y008838D01*
X007811Y008760D02*
X007645Y008760D01*
X007724Y008681D02*
X008140Y008681D01*
X008140Y008603D02*
X007845Y008603D01*
X007549Y008443D02*
X007549Y008385D01*
X007260Y008385D01*
X007106Y008385D01*
X007106Y008443D01*
X007549Y008443D01*
X007203Y009152D02*
X006953Y009152D01*
X006953Y009231D02*
X007203Y009231D01*
X007203Y009309D02*
X006953Y009309D01*
X006953Y009388D02*
X007203Y009388D01*
X007265Y009713D02*
X007260Y009717D01*
X006895Y009717D01*
X006813Y009635D01*
X006813Y009250D01*
X006717Y009155D01*
X006207Y009155D01*
X006192Y009140D01*
X005890Y009140D01*
X005890Y009515D01*
X006515Y009515D01*
X006678Y009678D01*
X006773Y009678D01*
X006832Y009736D01*
X006832Y010019D01*
X006953Y010140D01*
X007265Y010140D01*
X007265Y009713D01*
X007265Y009780D02*
X006832Y009780D01*
X006832Y009859D02*
X007265Y009859D01*
X007265Y009937D02*
X006832Y009937D01*
X006832Y010016D02*
X007265Y010016D01*
X007265Y010094D02*
X006907Y010094D01*
X006903Y010127D02*
X006867Y010117D01*
X006835Y010099D01*
X006832Y010095D01*
X006832Y010144D01*
X006838Y010150D01*
X008692Y010150D01*
X008698Y010145D01*
X008698Y009470D01*
X008688Y009480D01*
X008682Y009480D01*
X008684Y009482D01*
X008684Y009958D01*
X008626Y010017D01*
X008110Y010017D01*
X008084Y009991D01*
X008084Y010028D01*
X008025Y010087D01*
X007549Y010087D01*
X007490Y010028D01*
X007490Y009640D01*
X007455Y009640D01*
X007455Y009730D01*
X007158Y009730D01*
X007158Y009810D01*
X007455Y009810D01*
X007455Y010005D01*
X007445Y010041D01*
X007427Y010072D01*
X007401Y010099D01*
X007369Y010117D01*
X007333Y010127D01*
X007158Y010127D01*
X007158Y009810D01*
X007078Y009810D01*
X007078Y010127D01*
X006903Y010127D01*
X007078Y010094D02*
X007158Y010094D01*
X007158Y010016D02*
X007078Y010016D01*
X007078Y009937D02*
X007158Y009937D01*
X007158Y009859D02*
X007078Y009859D01*
X007158Y009780D02*
X007490Y009780D01*
X007490Y009702D02*
X007455Y009702D01*
X007455Y009859D02*
X007490Y009859D01*
X007490Y009937D02*
X007455Y009937D01*
X007452Y010016D02*
X007490Y010016D01*
X007405Y010094D02*
X008698Y010094D01*
X008640Y010078D02*
X008328Y010078D01*
X008109Y010016D02*
X008084Y010016D01*
X008328Y009703D02*
X008350Y009703D01*
X008368Y009720D01*
X008684Y009702D02*
X008698Y009702D01*
X008698Y009780D02*
X008684Y009780D01*
X008684Y009859D02*
X008698Y009859D01*
X008698Y009937D02*
X008684Y009937D01*
X008698Y010016D02*
X008627Y010016D01*
X008640Y010078D02*
X008703Y010015D01*
X008703Y009515D01*
X008765Y009390D01*
X008765Y008940D01*
X008866Y008833D01*
X008710Y008684D02*
X009035Y008684D01*
X009094Y008743D01*
X009094Y008828D01*
X009328Y008828D01*
X009328Y008809D01*
X009303Y008809D01*
X009245Y008751D01*
X009245Y008682D01*
X009033Y008471D01*
X008710Y008471D01*
X008710Y008684D01*
X008710Y008681D02*
X009244Y008681D01*
X009253Y008760D02*
X009094Y008760D01*
X009140Y008765D02*
X009203Y008828D01*
X009453Y008828D01*
X009640Y009015D01*
X009640Y009202D01*
X009525Y008703D02*
X009900Y008703D01*
X009900Y008203D01*
X008703Y008203D01*
X008703Y008253D01*
X008710Y008260D01*
X008710Y008313D01*
X009073Y008313D01*
X009385Y008625D01*
X009448Y008688D01*
X009510Y008688D01*
X009525Y008703D01*
X009441Y008681D02*
X009900Y008681D01*
X009900Y008603D02*
X009363Y008603D01*
X009284Y008524D02*
X009900Y008524D01*
X009900Y008446D02*
X009206Y008446D01*
X009127Y008367D02*
X009900Y008367D01*
X009900Y008289D02*
X008710Y008289D01*
X008703Y008210D02*
X009900Y008210D01*
X009900Y008053D02*
X008355Y008053D01*
X008355Y007975D02*
X009243Y007975D01*
X009152Y007896D02*
X008355Y007896D01*
X008355Y007818D02*
X009141Y007818D01*
X008843Y007739D02*
X008355Y007739D01*
X008355Y007347D02*
X008373Y007347D01*
X008355Y007268D02*
X008880Y007268D01*
X008908Y007122D02*
X008908Y006805D01*
X009205Y006805D01*
X009205Y007000D01*
X009195Y007036D01*
X009177Y007067D01*
X009151Y007094D01*
X009119Y007112D01*
X009083Y007122D01*
X008908Y007122D01*
X008908Y007111D02*
X008828Y007111D01*
X008828Y007122D02*
X008653Y007122D01*
X008617Y007112D01*
X008585Y007094D01*
X008559Y007067D01*
X008541Y007036D01*
X008531Y007000D01*
X008531Y006805D01*
X008828Y006805D01*
X008828Y007122D01*
X008828Y007033D02*
X008908Y007033D01*
X008908Y006954D02*
X008828Y006954D01*
X008828Y006876D02*
X008908Y006876D01*
X008908Y006805D02*
X008828Y006805D01*
X008828Y006725D01*
X008908Y006725D01*
X008908Y006805D01*
X008908Y006797D02*
X009240Y006797D01*
X009240Y006876D02*
X009205Y006876D01*
X009205Y006954D02*
X009240Y006954D01*
X009250Y007033D02*
X009196Y007033D01*
X009219Y007111D02*
X009120Y007111D01*
X009181Y007190D02*
X008355Y007190D01*
X008355Y007111D02*
X008615Y007111D01*
X008540Y007033D02*
X008355Y007033D01*
X008355Y006954D02*
X008531Y006954D01*
X008531Y006876D02*
X008355Y006876D01*
X008355Y006797D02*
X008828Y006797D01*
X008828Y006725D02*
X008531Y006725D01*
X008531Y006530D01*
X008541Y006494D01*
X008559Y006463D01*
X008585Y006436D01*
X008617Y006418D01*
X008653Y006408D01*
X008828Y006408D01*
X008828Y006725D01*
X008828Y006719D02*
X008908Y006719D01*
X008908Y006725D02*
X008908Y006408D01*
X009083Y006408D01*
X009119Y006418D01*
X009151Y006436D01*
X009177Y006463D01*
X009195Y006494D01*
X009205Y006530D01*
X009205Y006725D01*
X008908Y006725D01*
X008908Y006640D02*
X008828Y006640D01*
X008828Y006561D02*
X008908Y006561D01*
X008908Y006483D02*
X008828Y006483D01*
X008547Y006483D02*
X008355Y006483D01*
X008355Y006561D02*
X008531Y006561D01*
X008531Y006640D02*
X008355Y006640D01*
X008355Y006719D02*
X008531Y006719D01*
X008355Y006404D02*
X009377Y006404D01*
X009377Y006326D02*
X008355Y006326D01*
X008355Y006247D02*
X009011Y006247D01*
X008911Y006169D02*
X008355Y006169D01*
X008355Y006090D02*
X008849Y006090D01*
X008816Y006012D02*
X008355Y006012D01*
X008355Y005933D02*
X008799Y005933D01*
X008799Y005855D02*
X008355Y005855D01*
X008355Y005776D02*
X008812Y005776D01*
X008845Y005698D02*
X008355Y005698D01*
X008355Y005619D02*
X008902Y005619D01*
X008990Y005541D02*
X008355Y005541D01*
X008355Y005462D02*
X009900Y005462D01*
X009900Y005384D02*
X008355Y005384D01*
X008355Y005305D02*
X009900Y005305D01*
X009900Y005227D02*
X008355Y005227D01*
X008347Y005148D02*
X009900Y005148D01*
X009900Y005070D02*
X008309Y005070D01*
X008203Y004991D02*
X009900Y004991D01*
X009900Y005541D02*
X009415Y005541D01*
X009503Y005619D02*
X009900Y005619D01*
X009900Y005698D02*
X009560Y005698D01*
X009593Y005776D02*
X009900Y005776D01*
X009900Y005855D02*
X009606Y005855D01*
X009606Y005933D02*
X009900Y005933D01*
X009900Y006012D02*
X009589Y006012D01*
X009629Y006090D02*
X009900Y006090D01*
X009900Y006169D02*
X009697Y006169D01*
X009697Y006247D02*
X009900Y006247D01*
X009900Y006326D02*
X009697Y006326D01*
X009697Y006404D02*
X009900Y006404D01*
X009900Y006483D02*
X009810Y006483D01*
X009834Y006561D02*
X009900Y006561D01*
X009900Y006640D02*
X009834Y006640D01*
X009834Y006719D02*
X009900Y006719D01*
X009900Y006797D02*
X009834Y006797D01*
X009834Y006876D02*
X009900Y006876D01*
X009900Y006954D02*
X009834Y006954D01*
X009824Y007033D02*
X009900Y007033D01*
X009900Y007111D02*
X009678Y007111D01*
X009715Y007190D02*
X009900Y007190D01*
X009900Y007268D02*
X009715Y007268D01*
X009715Y007347D02*
X009900Y007347D01*
X009900Y007425D02*
X009660Y007425D01*
X009634Y007562D02*
X009448Y007562D01*
X009448Y007771D01*
X009448Y007771D01*
X009448Y007771D01*
X009755Y007771D01*
X009755Y007684D01*
X009746Y007648D01*
X009727Y007616D01*
X009701Y007590D01*
X009669Y007572D01*
X009634Y007562D01*
X009688Y007582D02*
X009900Y007582D01*
X009900Y007504D02*
X009295Y007504D01*
X009448Y007582D02*
X009448Y007582D01*
X009448Y007661D02*
X009448Y007661D01*
X009448Y007739D02*
X009448Y007739D01*
X009448Y007818D02*
X009448Y007818D01*
X009448Y007896D02*
X009448Y007896D01*
X009448Y007975D02*
X009448Y007975D01*
X009654Y007975D02*
X009900Y007975D01*
X009900Y007896D02*
X009745Y007896D01*
X009755Y007818D02*
X009900Y007818D01*
X009900Y007739D02*
X009755Y007739D01*
X009749Y007661D02*
X009900Y007661D01*
X009181Y007268D02*
X009150Y007268D01*
X009205Y006719D02*
X009240Y006719D01*
X009240Y006640D02*
X009205Y006640D01*
X009205Y006561D02*
X009240Y006561D01*
X009264Y006483D02*
X009189Y006483D01*
X008576Y008132D02*
X008347Y008132D01*
X008414Y008210D02*
X008491Y008210D01*
X008491Y008289D02*
X008414Y008289D01*
X008414Y008367D02*
X008491Y008367D01*
X008491Y008446D02*
X008414Y008446D01*
X008414Y008524D02*
X008491Y008524D01*
X008491Y008616D02*
X008414Y008616D01*
X008414Y008885D01*
X008480Y008885D01*
X008480Y009174D01*
X008500Y009174D01*
X008500Y008993D01*
X008491Y008993D01*
X008491Y008616D01*
X008491Y008681D02*
X008414Y008681D01*
X008414Y008760D02*
X008491Y008760D01*
X008491Y008838D02*
X008414Y008838D01*
X008480Y008917D02*
X008491Y008917D01*
X008480Y008995D02*
X008500Y008995D01*
X008500Y009074D02*
X008480Y009074D01*
X008480Y009152D02*
X008500Y009152D01*
X008684Y009545D02*
X008698Y009545D01*
X008698Y009623D02*
X008684Y009623D01*
X008710Y008603D02*
X009165Y008603D01*
X009087Y008524D02*
X008710Y008524D01*
X006925Y007739D02*
X006905Y007739D01*
X006925Y007661D02*
X006695Y007661D01*
X006728Y007582D02*
X006925Y007582D01*
X006925Y007504D02*
X006732Y007504D01*
X006757Y007425D02*
X006925Y007425D01*
X006925Y007347D02*
X006757Y007347D01*
X006894Y007268D02*
X006925Y007268D01*
X006925Y007190D02*
X006894Y007190D01*
X006894Y007111D02*
X006925Y007111D01*
X006925Y007033D02*
X006894Y007033D01*
X006894Y006954D02*
X006925Y006954D01*
X006925Y006876D02*
X006894Y006876D01*
X006892Y006797D02*
X006925Y006797D01*
X005828Y006890D02*
X005765Y006828D01*
X005453Y006828D01*
X005390Y006890D01*
X005390Y007342D01*
X005524Y007342D01*
X005583Y007400D01*
X005583Y008212D01*
X005524Y008270D01*
X005390Y008270D01*
X005390Y008765D01*
X005578Y008953D01*
X005765Y008953D01*
X005828Y008890D01*
X005828Y008457D01*
X005773Y008402D01*
X005773Y007628D01*
X005828Y007573D01*
X005828Y006890D01*
X005813Y006876D02*
X005404Y006876D01*
X005390Y006954D02*
X005828Y006954D01*
X005828Y007033D02*
X005390Y007033D01*
X005390Y007111D02*
X005828Y007111D01*
X005828Y007190D02*
X005390Y007190D01*
X005390Y007268D02*
X005828Y007268D01*
X005828Y007347D02*
X005529Y007347D01*
X005583Y007425D02*
X005828Y007425D01*
X005828Y007504D02*
X005583Y007504D01*
X005583Y007582D02*
X005818Y007582D01*
X005773Y007661D02*
X005583Y007661D01*
X005583Y007739D02*
X005773Y007739D01*
X005773Y007818D02*
X005583Y007818D01*
X005583Y007896D02*
X005773Y007896D01*
X005773Y007975D02*
X005583Y007975D01*
X005583Y008053D02*
X005773Y008053D01*
X005773Y008132D02*
X005583Y008132D01*
X005583Y008210D02*
X005773Y008210D01*
X005773Y008289D02*
X005390Y008289D01*
X005390Y008367D02*
X005773Y008367D01*
X005816Y008446D02*
X005390Y008446D01*
X005390Y008524D02*
X005828Y008524D01*
X005828Y008603D02*
X005390Y008603D01*
X005390Y008681D02*
X005828Y008681D01*
X005828Y008760D02*
X005390Y008760D01*
X005463Y008838D02*
X005828Y008838D01*
X005801Y008917D02*
X005542Y008917D01*
X005265Y008838D02*
X003759Y008838D01*
X003681Y008917D02*
X005155Y008917D01*
X005084Y008995D02*
X003602Y008995D01*
X003838Y008760D02*
X005250Y008760D01*
X005250Y008681D02*
X003882Y008681D01*
X003882Y008603D02*
X005250Y008603D01*
X005250Y008524D02*
X003882Y008524D01*
X003882Y008446D02*
X005250Y008446D01*
X005250Y008367D02*
X003882Y008367D01*
X003882Y008289D02*
X005250Y008289D01*
X005890Y009152D02*
X006204Y009152D01*
X005890Y009231D02*
X006793Y009231D01*
X006813Y009309D02*
X005890Y009309D01*
X005890Y009388D02*
X006813Y009388D01*
X006813Y009466D02*
X005890Y009466D01*
X006545Y009545D02*
X006813Y009545D01*
X006813Y009623D02*
X006623Y009623D01*
X006797Y009702D02*
X006879Y009702D01*
X006764Y008524D02*
X006203Y008524D01*
X006209Y007896D02*
X006247Y007896D01*
X005240Y007268D02*
X005165Y007268D01*
X005165Y007190D02*
X005240Y007190D01*
X005240Y007111D02*
X005165Y007111D01*
X005165Y007033D02*
X005240Y007033D01*
X005240Y006954D02*
X005165Y006954D01*
X005165Y006876D02*
X005240Y006876D01*
X005263Y006797D02*
X005142Y006797D01*
X005165Y006640D02*
X005240Y006640D01*
X005240Y006561D02*
X005165Y006561D01*
X005165Y006483D02*
X005240Y006483D01*
X005240Y006404D02*
X005165Y006404D01*
X005165Y006326D02*
X005240Y006326D01*
X005240Y006247D02*
X005165Y006247D01*
X005165Y006169D02*
X005240Y006169D01*
X005240Y006090D02*
X005165Y006090D01*
X005165Y006012D02*
X005240Y006012D01*
X005240Y005933D02*
X005165Y005933D01*
X005165Y005855D02*
X005240Y005855D01*
X005240Y005776D02*
X005165Y005776D01*
X005165Y005698D02*
X005240Y005698D01*
X005253Y005619D02*
X005152Y005619D01*
X005070Y005541D02*
X006023Y005541D01*
X006023Y005619D02*
X005821Y005619D01*
X005834Y005698D02*
X006023Y005698D01*
X006023Y005462D02*
X005030Y005462D01*
X005032Y005384D02*
X004951Y005384D01*
X004871Y005305D02*
X004473Y005305D01*
X004552Y005227D02*
X004791Y005227D01*
X004742Y005148D02*
X004570Y005148D01*
X004599Y005070D02*
X004712Y005070D01*
X004646Y004991D02*
X005100Y004991D01*
X005100Y004913D02*
X004697Y004913D01*
X004712Y004834D02*
X004646Y004834D01*
X004646Y004756D02*
X004742Y004756D01*
X004791Y004677D02*
X004646Y004677D01*
X004646Y004599D02*
X004872Y004599D01*
X005100Y004599D02*
X005180Y004599D01*
X005180Y004677D02*
X005100Y004677D01*
X005100Y004756D02*
X005180Y004756D01*
X005180Y004834D02*
X005100Y004834D01*
X005180Y004913D02*
X005180Y004992D01*
X005180Y005070D02*
X005100Y005070D01*
X005100Y005148D02*
X005180Y005148D01*
X005180Y005227D02*
X005100Y005227D01*
X005100Y005305D02*
X005180Y005305D01*
X005180Y005384D02*
X005100Y005384D01*
X005248Y005384D02*
X006023Y005384D01*
X006000Y005305D02*
X005409Y005305D01*
X005489Y005227D02*
X005906Y005227D01*
X005847Y005148D02*
X005538Y005148D01*
X005568Y005070D02*
X005814Y005070D01*
X005814Y004834D02*
X005568Y004834D01*
X005538Y004756D02*
X005847Y004756D01*
X005907Y004677D02*
X005489Y004677D01*
X005408Y004599D02*
X006001Y004599D01*
X006957Y004285D02*
X007783Y004285D01*
X007861Y004206D02*
X007036Y004206D01*
X007232Y004128D02*
X007465Y004128D01*
X007392Y004049D02*
X007341Y004049D01*
X007602Y004049D02*
X007678Y004049D01*
X007678Y003971D02*
X007602Y003971D01*
X007602Y004128D02*
X007678Y004128D01*
X007815Y004128D02*
X007940Y004128D01*
X007939Y004049D02*
X007888Y004049D01*
X005364Y006719D02*
X004644Y006719D01*
X004385Y006620D02*
X004385Y006342D01*
X004399Y006342D01*
X004206Y006148D01*
X004147Y006148D01*
X004089Y006090D01*
X004089Y005695D01*
X003974Y005695D01*
X003974Y006090D01*
X003915Y006148D01*
X003360Y006148D01*
X003355Y006144D01*
X003355Y006386D01*
X003360Y006382D01*
X003758Y006382D01*
X003816Y006440D01*
X003816Y006846D01*
X003852Y006882D01*
X003852Y007342D01*
X003928Y007342D01*
X003928Y006882D01*
X003986Y006823D01*
X004049Y006823D01*
X004049Y006697D01*
X004307Y006697D01*
X004307Y006620D01*
X004049Y006620D01*
X004049Y006463D01*
X004058Y006427D01*
X004077Y006396D01*
X004103Y006370D01*
X004135Y006351D01*
X004170Y006342D01*
X004307Y006342D01*
X004307Y006620D01*
X004385Y006620D01*
X004385Y006561D02*
X004307Y006561D01*
X004307Y006483D02*
X004385Y006483D01*
X004385Y006404D02*
X004307Y006404D01*
X004384Y006326D02*
X003355Y006326D01*
X003355Y006247D02*
X004305Y006247D01*
X004227Y006169D02*
X003355Y006169D01*
X003781Y006404D02*
X004072Y006404D01*
X004049Y006483D02*
X003816Y006483D01*
X003816Y006561D02*
X004049Y006561D01*
X004049Y006719D02*
X003816Y006719D01*
X003816Y006797D02*
X004049Y006797D01*
X003934Y006876D02*
X003846Y006876D01*
X003852Y006954D02*
X003928Y006954D01*
X003928Y007033D02*
X003852Y007033D01*
X003852Y007111D02*
X003928Y007111D01*
X003928Y007190D02*
X003852Y007190D01*
X003852Y007268D02*
X003928Y007268D01*
X003816Y006640D02*
X004307Y006640D01*
X004089Y006090D02*
X003973Y006090D01*
X003974Y006012D02*
X004089Y006012D01*
X004089Y005933D02*
X003974Y005933D01*
X003974Y005855D02*
X004089Y005855D01*
X004089Y005776D02*
X003974Y005776D01*
X003974Y005698D02*
X004089Y005698D01*
X003238Y009388D02*
X003233Y009388D01*
X002672Y009388D02*
X002608Y009388D01*
X002607Y009937D02*
X002673Y009937D01*
D33*
X005328Y009140D02*
X005515Y009140D01*
X005703Y009328D01*
X005703Y009890D01*
X005765Y009953D01*
X006003Y009953D01*
X006015Y009965D01*
X007578Y008414D02*
X007670Y008322D01*
X008039Y008322D01*
X008447Y008322D01*
X008453Y008328D01*
X008453Y008578D01*
X008039Y008833D02*
X008039Y009091D01*
X007995Y009135D01*
X008582Y007515D02*
X009015Y007515D01*
X008453Y004578D02*
X008640Y004390D01*
X008640Y003890D01*
X008140Y003890D02*
X008140Y004140D01*
X007703Y004578D01*
X007140Y003890D02*
X006828Y004203D01*
X004765Y004203D01*
X004412Y004203D01*
X004100Y004265D01*
X004703Y003890D02*
X005203Y003890D01*
X005328Y003515D02*
X005703Y003890D01*
X005328Y003515D02*
X004578Y003515D01*
X004301Y003238D01*
X002918Y003238D01*
X002918Y003435D02*
X004248Y003435D01*
X004703Y003890D01*
X004765Y004203D02*
X004195Y003632D01*
X002918Y003632D01*
X002435Y003435D02*
X002140Y003435D01*
X001845Y003435D01*
X001648Y003632D01*
X001362Y003632D01*
X001362Y003435D02*
X001032Y003435D01*
X000662Y003578D02*
X000578Y003662D01*
X001275Y004203D02*
X001578Y004203D01*
X001648Y004132D01*
X001648Y003918D01*
X001845Y003918D02*
X001845Y004310D01*
X001640Y004515D01*
X000765Y004515D01*
X000707Y004573D01*
X000707Y004756D01*
X001573Y004756D02*
X001774Y004756D01*
X002042Y004488D01*
X002042Y003918D01*
X002435Y003140D02*
X002435Y002845D01*
X002140Y002845D02*
X001845Y002845D01*
X001362Y002845D01*
X001362Y002648D02*
X001085Y002648D01*
X000890Y002453D01*
X000868Y002453D02*
X000890Y002412D01*
X002703Y001140D02*
X003203Y000640D01*
X006828Y000640D01*
X007328Y001140D01*
X007640Y001140D01*
X007640Y003390D01*
X007140Y003390D02*
X006890Y003140D01*
X006015Y003140D01*
X005828Y003328D01*
X004640Y003328D01*
X003765Y002453D01*
X003113Y002453D01*
X002918Y002648D01*
X002918Y002845D02*
X003275Y002845D01*
X003370Y002750D01*
X003613Y003042D02*
X003770Y002890D01*
X003613Y003042D02*
X002918Y003042D01*
X008140Y003140D02*
X008140Y003390D01*
X008140Y003140D02*
X008390Y002890D01*
X009078Y002578D02*
X009140Y002640D01*
X009140Y003390D01*
D34*
X009610Y008832D02*
X009610Y009172D01*
X009289Y009172D01*
X009289Y009173D01*
X009051Y009173D01*
X009051Y009232D01*
X009215Y009232D01*
X009610Y009232D01*
X009610Y009587D01*
X009384Y009587D01*
X009384Y009690D01*
X009067Y009690D01*
X009067Y009510D01*
X009051Y009510D01*
X009051Y009233D01*
X008991Y009233D01*
X008991Y009393D01*
X009007Y009393D01*
X009007Y009690D01*
X009067Y009690D01*
X009067Y009750D01*
X009007Y009750D01*
X009007Y010047D01*
X008832Y010047D01*
X008832Y010069D01*
X008828Y010074D01*
X008828Y010160D01*
X009910Y010160D01*
X009910Y009587D01*
X009670Y009587D01*
X009670Y009232D01*
X009610Y009232D01*
X009610Y009172D01*
X009670Y009172D01*
X009670Y008832D01*
X009610Y008832D01*
X009610Y008863D02*
X009670Y008863D01*
X009670Y008922D02*
X009610Y008922D01*
X009610Y008980D02*
X009670Y008980D01*
X009670Y009039D02*
X009610Y009039D01*
X009610Y009097D02*
X009670Y009097D01*
X009670Y009156D02*
X009610Y009156D01*
X009610Y009214D02*
X009051Y009214D01*
X009051Y009273D02*
X008991Y009273D01*
X008991Y009331D02*
X009051Y009331D01*
X009051Y009390D02*
X008991Y009390D01*
X009007Y009448D02*
X009051Y009448D01*
X009051Y009507D02*
X009007Y009507D01*
X009007Y009565D02*
X009067Y009565D01*
X009067Y009624D02*
X009007Y009624D01*
X009007Y009682D02*
X009067Y009682D01*
X009067Y009741D02*
X009910Y009741D01*
X009910Y009799D02*
X009384Y009799D01*
X009384Y009750D02*
X009384Y009934D01*
X009375Y009967D01*
X009358Y009997D01*
X009334Y010021D01*
X009304Y010038D01*
X009271Y010047D01*
X009067Y010047D01*
X009067Y009750D01*
X009384Y009750D01*
X009384Y009682D02*
X009910Y009682D01*
X009910Y009624D02*
X009384Y009624D01*
X009384Y009858D02*
X009910Y009858D01*
X009910Y009916D02*
X009384Y009916D01*
X009370Y009975D02*
X009910Y009975D01*
X009910Y010033D02*
X009312Y010033D01*
X009067Y010033D02*
X009007Y010033D01*
X009007Y009975D02*
X009067Y009975D01*
X009067Y009916D02*
X009007Y009916D01*
X009007Y009858D02*
X009067Y009858D01*
X009067Y009799D02*
X009007Y009799D01*
X008828Y010092D02*
X009910Y010092D01*
X009910Y010150D02*
X008828Y010150D01*
X009610Y009565D02*
X009670Y009565D01*
X009670Y009507D02*
X009610Y009507D01*
X009610Y009448D02*
X009670Y009448D01*
X009670Y009390D02*
X009610Y009390D01*
X009610Y009331D02*
X009670Y009331D01*
X009670Y009273D02*
X009610Y009273D01*
X009215Y009232D02*
X009215Y009232D01*
X001503Y003916D02*
X001503Y003816D01*
X001499Y003817D01*
X001362Y003817D01*
X001226Y003817D01*
X001179Y003805D01*
X001137Y003780D01*
X001102Y003746D01*
X001078Y003704D01*
X001065Y003656D01*
X001051Y003656D01*
X001060Y003648D02*
X000960Y003747D01*
X000864Y003747D01*
X000864Y003882D01*
X000872Y003885D01*
X000902Y003902D01*
X000926Y003926D01*
X000943Y003955D01*
X000952Y003989D01*
X000952Y004173D01*
X000635Y004173D01*
X000635Y004232D01*
X000952Y004232D01*
X000952Y004375D01*
X000968Y004375D01*
X000968Y003968D01*
X001021Y003916D01*
X001503Y003916D01*
X001503Y003890D02*
X000882Y003890D01*
X000864Y003832D02*
X001503Y003832D01*
X001362Y003817D02*
X001362Y003632D01*
X001362Y003817D01*
X001362Y003773D02*
X001362Y003773D01*
X001362Y003715D02*
X001362Y003715D01*
X001362Y003656D02*
X001362Y003656D01*
X001362Y003632D02*
X001362Y003632D01*
X001130Y003773D02*
X000864Y003773D01*
X000993Y003715D02*
X001084Y003715D01*
X001065Y003656D02*
X001065Y003643D01*
X001060Y003648D01*
X000987Y003949D02*
X000939Y003949D01*
X000952Y004007D02*
X000968Y004007D01*
X000968Y004066D02*
X000952Y004066D01*
X000952Y004124D02*
X000968Y004124D01*
X000968Y004183D02*
X000635Y004183D01*
X000952Y004241D02*
X000968Y004241D01*
X000968Y004300D02*
X000952Y004300D01*
X000952Y004358D02*
X000968Y004358D01*
X000954Y004655D02*
X000954Y004839D01*
X000968Y004853D01*
X000986Y004883D01*
X000994Y004916D01*
X000994Y005003D01*
X000716Y005003D01*
X000716Y005021D01*
X000994Y005021D01*
X000994Y005108D01*
X000991Y005120D01*
X001011Y005140D01*
X001203Y005140D01*
X001286Y005057D01*
X001286Y005021D01*
X001321Y005021D01*
X001340Y005003D01*
X001286Y005003D01*
X001286Y004916D01*
X001294Y004883D01*
X001312Y004853D01*
X001326Y004839D01*
X001326Y004655D01*
X000954Y004655D01*
X000954Y004709D02*
X001326Y004709D01*
X001326Y004768D02*
X000954Y004768D01*
X000954Y004826D02*
X001326Y004826D01*
X001294Y004885D02*
X000986Y004885D01*
X000994Y004943D02*
X001286Y004943D01*
X001286Y005002D02*
X000994Y005002D01*
X000994Y005060D02*
X001282Y005060D01*
X001224Y005119D02*
X000991Y005119D01*
X000698Y005021D02*
X000698Y005003D01*
X000419Y005003D01*
X000419Y004916D01*
X000428Y004883D01*
X000445Y004853D01*
X000459Y004839D01*
X000459Y004640D01*
X000512Y004587D01*
X000567Y004587D01*
X000567Y004529D01*
X000372Y004529D01*
X000370Y004529D01*
X000370Y005140D01*
X000428Y005140D01*
X000419Y005108D01*
X000419Y005021D01*
X000698Y005021D01*
X000459Y004826D02*
X000370Y004826D01*
X000370Y004768D02*
X000459Y004768D01*
X000459Y004709D02*
X000370Y004709D01*
X000370Y004651D02*
X000459Y004651D01*
X000507Y004592D02*
X000370Y004592D01*
X000370Y004534D02*
X000567Y004534D01*
X000428Y004885D02*
X000370Y004885D01*
X000370Y004943D02*
X000419Y004943D01*
X000419Y005002D02*
X000370Y005002D01*
X000370Y005060D02*
X000419Y005060D01*
X000422Y005119D02*
X000370Y005119D01*
D35*
X009640Y009890D03*
D36*
X004350Y005118D02*
X004350Y004765D01*
X004350Y005118D02*
X004265Y005203D01*
X004028Y005203D01*
X004015Y005190D01*
M02*
