  0
SECTION
  2
HEADER
  9
$ACADVER
  1
AC1009
  9
$FILLMODE
 70
0
  9
$EXTMIN
 10
-0.1016
 20
-0.1016
 30
0.0000
  9
$EXTMAX
 10
124.5616
 20
89.0016
 30
0.0000
  0
ENDSEC
  0
SECTION
  2
TABLES
  0
TABLE
  2
LTYPE
 70
1
  0
LTYPE
  2
CONTINUOUS
 70
64
  3
Solid line
 72
65
 73
0
 40
0
  0
ENDTAB
  0
TABLE
  2
LAYER
 70
255
  0
LAYER
  2
20
 70
64
 62
7
  6
CONTINUOUS
  0
ENDTAB
  0
ENDSEC
  0
SECTION
  2
BLOCKS
  0
BLOCK
  8
0
  2
RECT
 70
64
 10
0.0000
 20
0.0000
 30
0.0000
  3
RECT
  0
SOLID
  8
0
 10
-0.5000
 20
-0.5000
 30
0.0000
 11
0.5000
 21
-0.5000
 31
0.0000
 12
-0.5000
 22
0.5000
 32
0.0000
 13
0.5000
 23
0.5000
 33
0.0000
  0
ENDBLK
  8
0
  0
BLOCK
  8
0
  2
PIE
 70
64
 10
0.0000
 20
0.0000
 30
0.0000
  3
PIE
  0
CIRCLE
  8
0
 10
0.0000
 20
0.0000
 30
0.0000
 40
0.5000
  0
ENDBLK
  8
0
  0
BLOCK
  8
0
  2
OCTAGONP
 70
64
 10
0.0000
 20
0.0000
 30
0.0000
  3
OCTAGONP
  0
POLYLINE
  8
0
 66
1
 10
0.0000
 20
0.0000
 30
0.0000
 40
0.0000
 41
0.0000
 70
1
  0
VERTEX
  8
0
 10
-0.5000
 20
-0.2071
 30
0.0000
  0
VERTEX
  8
0
 10
-0.5000
 20
0.2071
 30
0.0000
  0
VERTEX
  8
0
 10
-0.2071
 20
0.5000
 30
0.0000
  0
VERTEX
  8
0
 10
0.2071
 20
0.5000
 30
0.0000
  0
VERTEX
  8
0
 10
0.5000
 20
0.2071
 30
0.0000
  0
VERTEX
  8
0
 10
0.5000
 20
-0.2071
 30
0.0000
  0
VERTEX
  8
0
 10
0.2071
 20
-0.5000
 30
0.0000
  0
VERTEX
  8
0
 10
-0.2071
 20
-0.5000
 30
0.0000
  0
SEQEND
  8
0
  0
ENDBLK
  8
0
  0
BLOCK
  8
0
  2
SQUAREP
 70
64
 10
0.0000
 20
0.0000
 30
0.0000
  3
SQUAREP
  0
SOLID
  8
0
 10
-0.5000
 20
-0.5000
 30
0.0000
 11
0.5000
 21
-0.5000
 31
0.0000
 12
-0.5000
 22
0.5000
 32
0.0000
 13
0.5000
 23
0.5000
 33
0.0000
  0
ENDBLK
  8
0
  0
BLOCK
  8
0
  2
ROUNDP
 70
64
 10
0.0000
 20
0.0000
 30
0.0000
  3
ROUNDP
  0
CIRCLE
  8
0
 10
0.0000
 20
0.0000
 30
0.0000
 40
0.5000
  0
ENDBLK
  8
0
  0
BLOCK
  8
0
  2
ANNULUSP
 70
64
 10
0.0000
 20
0.0000
 30
0.0000
  3
ANNULUSP
  0
CIRCLE
  8
0
 10
0.0000
 20
0.0000
 30
0.0000
 40
0.5000
  0
ENDBLK
  8
0
  0
BLOCK
  8
0
  2
THERMALP
 70
64
 10
0.0000
 20
0.0000
 30
0.0000
  3
THERMALP
  0
POLYLINE
  8
0
 66
1
 10
0.0000
 20
0.0000
 30
0.0000
 40
0.0000
 41
0.0000
 70
1
  0
VERTEX
  8
0
 10
-0.2379
 20
0.4000
 30
0.0000
  0
VERTEX
  8
0
 10
0.2379
 20
0.4000
 30
0.0000
 42
1.0000
  0
VERTEX
  8
0
 10
0.2379
 20
0.5000
 30
0.0000
  0
VERTEX
  8
0
 10
-0.2379
 20
0.5000
 30
0.0000
 42
1.0000
  0
SEQEND
  8
0
  0
POLYLINE
  8
0
 66
1
 10
0.0000
 20
0.0000
 30
0.0000
 40
0.0000
 41
0.0000
 70
1
  0
VERTEX
  8
0
 10
0.4000
 20
0.2379
 30
0.0000
  0
VERTEX
  8
0
 10
0.4000
 20
-0.2379
 30
0.0000
 42
1.0000
  0
VERTEX
  8
0
 10
0.5000
 20
-0.2379
 30
0.0000
  0
VERTEX
  8
0
 10
0.5000
 20
0.2379
 30
0.0000
 42
1.0000
  0
SEQEND
  8
0
  0
POLYLINE
  8
0
 66
1
 10
0.0000
 20
0.0000
 30
0.0000
 40
0.0000
 41
0.0000
 70
1
  0
VERTEX
  8
0
 10
0.2379
 20
-0.4000
 30
0.0000
  0
VERTEX
  8
0
 10
-0.2379
 20
-0.4000
 30
0.0000
 42
1.0000
  0
VERTEX
  8
0
 10
-0.2379
 20
-0.5000
 30
0.0000
  0
VERTEX
  8
0
 10
0.2379
 20
-0.5000
 30
0.0000
 42
1.0000
  0
SEQEND
  8
0
  0
POLYLINE
  8
0
 66
1
 10
0.0000
 20
0.0000
 30
0.0000
 40
0.0000
 41
0.0000
 70
1
  0
VERTEX
  8
0
 10
-0.4000
 20
-0.2379
 30
0.0000
  0
VERTEX
  8
0
 10
-0.4000
 20
0.2379
 30
0.0000
 42
1.0000
  0
VERTEX
  8
0
 10
-0.5000
 20
0.2379
 30
0.0000
  0
VERTEX
  8
0
 10
-0.5000
 20
-0.2379
 30
0.0000
 42
1.0000
  0
SEQEND
  8
0
  0
ENDBLK
  8
0
  0
BLOCK
  8
0
  2
OCTAGONV
 70
64
 10
0.0000
 20
0.0000
 30
0.0000
  3
OCTAGONV
  0
POLYLINE
  8
0
 66
1
 10
0.0000
 20
0.0000
 30
0.0000
 40
0.0000
 41
0.0000
 70
1
  0
VERTEX
  8
0
 10
-0.5000
 20
-0.2071
 30
0.0000
  0
VERTEX
  8
0
 10
-0.5000
 20
0.2071
 30
0.0000
  0
VERTEX
  8
0
 10
-0.2071
 20
0.5000
 30
0.0000
  0
VERTEX
  8
0
 10
0.2071
 20
0.5000
 30
0.0000
  0
VERTEX
  8
0
 10
0.5000
 20
0.2071
 30
0.0000
  0
VERTEX
  8
0
 10
0.5000
 20
-0.2071
 30
0.0000
  0
VERTEX
  8
0
 10
0.2071
 20
-0.5000
 30
0.0000
  0
VERTEX
  8
0
 10
-0.2071
 20
-0.5000
 30
0.0000
  0
SEQEND
  8
0
  0
ENDBLK
  8
0
  0
BLOCK
  8
0
  2
SQUAREV
 70
64
 10
0.0000
 20
0.0000
 30
0.0000
  3
SQUAREV
  0
SOLID
  8
0
 10
-0.5000
 20
-0.5000
 30
0.0000
 11
0.5000
 21
-0.5000
 31
0.0000
 12
-0.5000
 22
0.5000
 32
0.0000
 13
0.5000
 23
0.5000
 33
0.0000
  0
ENDBLK
  8
0
  0
BLOCK
  8
0
  2
ROUNDV
 70
64
 10
0.0000
 20
0.0000
 30
0.0000
  3
ROUNDV
  0
CIRCLE
  8
0
 10
0.0000
 20
0.0000
 30
0.0000
 40
0.5000
  0
ENDBLK
  8
0
  0
BLOCK
  8
0
  2
ANNULUSV
 70
64
 10
0.0000
 20
0.0000
 30
0.0000
  3
ANNULUSV
  0
CIRCLE
  8
0
 10
0.0000
 20
0.0000
 30
0.0000
 40
0.5000
  0
ENDBLK
  8
0
  0
BLOCK
  8
0
  2
THERMALV
 70
64
 10
0.0000
 20
0.0000
 30
0.0000
  3
THERMALV
  0
POLYLINE
  8
0
 66
1
 10
0.0000
 20
0.0000
 30
0.0000
 40
0.0000
 41
0.0000
 70
1
  0
VERTEX
  8
0
 10
-0.2379
 20
0.4000
 30
0.0000
  0
VERTEX
  8
0
 10
0.2379
 20
0.4000
 30
0.0000
 42
1.0000
  0
VERTEX
  8
0
 10
0.2379
 20
0.5000
 30
0.0000
  0
VERTEX
  8
0
 10
-0.2379
 20
0.5000
 30
0.0000
 42
1.0000
  0
SEQEND
  8
0
  0
POLYLINE
  8
0
 66
1
 10
0.0000
 20
0.0000
 30
0.0000
 40
0.0000
 41
0.0000
 70
1
  0
VERTEX
  8
0
 10
0.4000
 20
0.2379
 30
0.0000
  0
VERTEX
  8
0
 10
0.4000
 20
-0.2379
 30
0.0000
 42
1.0000
  0
VERTEX
  8
0
 10
0.5000
 20
-0.2379
 30
0.0000
  0
VERTEX
  8
0
 10
0.5000
 20
0.2379
 30
0.0000
 42
1.0000
  0
SEQEND
  8
0
  0
POLYLINE
  8
0
 66
1
 10
0.0000
 20
0.0000
 30
0.0000
 40
0.0000
 41
0.0000
 70
1
  0
VERTEX
  8
0
 10
0.2379
 20
-0.4000
 30
0.0000
  0
VERTEX
  8
0
 10
-0.2379
 20
-0.4000
 30
0.0000
 42
1.0000
  0
VERTEX
  8
0
 10
-0.2379
 20
-0.5000
 30
0.0000
  0
VERTEX
  8
0
 10
0.2379
 20
-0.5000
 30
0.0000
 42
1.0000
  0
SEQEND
  8
0
  0
POLYLINE
  8
0
 66
1
 10
0.0000
 20
0.0000
 30
0.0000
 40
0.0000
 41
0.0000
 70
1
  0
VERTEX
  8
0
 10
-0.4000
 20
-0.2379
 30
0.0000
  0
VERTEX
  8
0
 10
-0.4000
 20
0.2379
 30
0.0000
 42
1.0000
  0
VERTEX
  8
0
 10
-0.5000
 20
0.2379
 30
0.0000
  0
VERTEX
  8
0
 10
-0.5000
 20
-0.2379
 30
0.0000
 42
1.0000
  0
SEQEND
  8
0
  0
ENDBLK
  8
0
  0
ENDSEC
  0
SECTION
  2
ENTITIES
  0
ARC
  8
20
 10
2.5400
 20
85.4710
 30
0.0000
 40
2.5400
 50
90.0000
 51
180.0000
  0
LINE
  8
20
 10
2.5400
 20
88.0110
 30
0.0000
 11
120.4722
 21
88.0110
 31
0.0000
  0
ARC
  8
20
 10
120.4722
 20
85.4710
 30
0.0000
 40
2.5400
 50
0.0000
 51
90.0000
  0
ARC
  8
20
 10
120.4722
 20
2.5400
 30
0.0000
 40
2.5400
 50
270.0000
 51
0.0000
  0
LINE
  8
20
 10
120.4722
 20
0.0000
 30
0.0000
 11
45.7200
 21
0.0000
 31
0.0000
  0
LINE
  8
20
 10
0.0000
 20
12.7000
 30
0.0000
 11
0.0000
 21
38.0111
 31
0.0000
  0
LINE
  8
20
 10
0.0000
 20
38.0111
 30
0.0000
 11
5.5118
 21
38.0111
 31
0.0000
  0
ARC
  8
20
 10
5.5118
 20
44.0055
 30
0.0000
 40
5.9944
 50
270.0000
 51
0.0000
  0
ARC
  8
20
 10
5.5118
 20
44.0055
 30
0.0000
 40
5.9944
 50
0.0000
 51
90.0000
  0
LINE
  8
20
 10
5.5118
 20
49.9999
 30
0.0000
 11
0.0000
 21
49.9999
 31
0.0000
  0
LINE
  8
20
 10
0.0000
 20
49.9999
 30
0.0000
 11
0.0000
 21
85.4710
 31
0.0000
  0
LINE
  8
20
 10
123.0122
 20
2.5400
 30
0.0000
 11
123.0122
 21
38.0111
 31
0.0000
  0
LINE
  8
20
 10
123.0122
 20
38.0111
 30
0.0000
 11
117.5004
 21
38.0111
 31
0.0000
  0
ARC
  8
20
 10
117.5004
 20
44.0055
 30
0.0000
 40
5.9944
 50
180.0000
 51
270.0000
  0
ARC
  8
20
 10
117.5004
 20
44.0055
 30
0.0000
 40
5.9944
 50
90.0000
 51
180.0000
  0
LINE
  8
20
 10
117.5004
 20
49.9999
 30
0.0000
 11
123.0122
 21
49.9999
 31
0.0000
  0
LINE
  8
20
 10
123.0122
 20
49.9999
 30
0.0000
 11
123.0122
 21
85.4710
 31
0.0000
  0
ARC
  8
20
 10
2.5400
 20
12.7000
 30
0.0000
 40
2.5400
 50
180.0000
 51
270.0000
  0
LINE
  8
20
 10
2.5400
 20
10.1600
 30
0.0000
 11
43.1800
 21
10.1600
 31
0.0000
  0
ARC
  8
20
 10
43.1800
 20
7.6200
 30
0.0000
 40
2.5400
 50
0.0000
 51
90.0000
  0
LINE
  8
20
 10
45.7200
 20
7.6200
 30
0.0000
 11
45.7200
 21
0.0000
 31
0.0000
  0
CIRCLE
  8
20
 10
101.5000
 20
74.0000
 30
0.0000
 40
1.7500
  0
CIRCLE
  8
20
 10
101.5000
 20
14.0000
 30
0.0000
 40
1.7500
  0
CIRCLE
  8
20
 10
21.5000
 20
14.0000
 30
0.0000
 40
1.7500
  0
CIRCLE
  8
20
 10
21.5000
 20
74.0000
 30
0.0000
 40
1.7500
  0
LINE
  8
20
 10
53.9496
 20
65.8495
 30
0.0000
 11
53.9496
 21
58.6105
 31
0.0000
  0
LINE
  8
20
 10
53.9496
 20
58.6105
 30
0.0000
 11
56.3626
 21
58.6105
 31
0.0000
  0
LINE
  8
20
 10
56.3626
 20
58.6105
 30
0.0000
 11
56.3626
 21
65.8495
 31
0.0000
  0
LINE
  8
20
 10
56.3626
 20
65.8495
 30
0.0000
 11
53.9496
 21
65.8495
 31
0.0000
  0
LINE
  8
20
 10
69.0626
 20
66.6750
 30
0.0000
 11
69.0626
 21
57.7850
 31
0.0000
  0
LINE
  8
20
 10
69.0626
 20
57.7850
 30
0.0000
 11
66.6496
 21
57.7850
 31
0.0000
  0
LINE
  8
20
 10
66.6496
 20
57.7850
 30
0.0000
 11
66.6496
 21
66.6750
 31
0.0000
  0
LINE
  8
20
 10
66.6496
 20
66.6750
 30
0.0000
 11
69.0626
 21
66.6750
 31
0.0000
  0
CIRCLE
  8
20
 10
61.5061
 20
49.7300
 30
0.0000
 40
3.2000
  0
CIRCLE
  8
20
 10
14.8600
 20
73.6600
 30
0.0000
 40
0.5143
  0
CIRCLE
  8
20
 10
7.2400
 20
74.6760
 30
0.0000
 40
0.5143
  0
CIRCLE
  8
20
 10
7.2400
 20
72.6440
 30
0.0000
 40
0.5143
  0
CIRCLE
  8
20
 10
14.8600
 20
76.2000
 30
0.0000
 40
1.1875
  0
CIRCLE
  8
20
 10
14.8600
 20
71.1200
 30
0.0000
 40
1.1875
  0
CIRCLE
  8
20
 10
9.1450
 20
71.1200
 30
0.0000
 40
1.1875
  0
CIRCLE
  8
20
 10
9.1450
 20
76.2000
 30
0.0000
 40
1.1875
  0
ENDSEC
  0
EOF
