%
M48
M72
T01C0.0200
T02C0.0394
T03C0.0400
T04C0.0405
T05C0.0630
T06C0.1250
%
T01
X8390Y7890
X10390Y7890
X10890Y7890
X12390Y7890
T02
X24140Y2640
X25140Y2640
X26140Y2640
X27140Y2640
X28140Y2640
X29140Y2640
X30140Y2640
X30140Y1640
X29140Y1640
X28140Y1640
X27140Y1640
X26140Y1640
X25140Y1640
X24140Y1640
T03
X24640Y5140
X25640Y5140
X26640Y5140
X27640Y5140
X28640Y5140
X29640Y5140
X29640Y6140
X28640Y6140
X27640Y6140
X26640Y6140
X25640Y6140
X24640Y6140
X23140Y6140
X23140Y5140
T04
X12390Y5765
X10890Y5765
X9765Y5765
X8390Y5765
T05
X4640Y1640
X7640Y1640
X10640Y1640
X13640Y1640
X16640Y1640
X19640Y1640
X18140Y4640
X15140Y4640
X12140Y4640
X9140Y4640
X6140Y4640
X3140Y4640
X21140Y4640
T06
X32140Y5140
X1140Y5140
M30
