G75*
G70*
%OFA0B0*%
%FSLAX24Y24*%
%IPPOS*%
%LPD*%
%AMOC8*
5,1,8,0,0,1.08239X$1,22.5*
%
%ADD10C,0.0591*%
%ADD11R,0.0250X0.0787*%
%ADD12C,0.0945*%
%ADD13OC8,0.0600*%
%ADD14C,0.0607*%
%ADD15C,0.0600*%
%ADD16C,0.0360*%
%ADD17C,0.0100*%
%ADD18C,0.0160*%
%ADD19C,0.0080*%
D10*
X024140Y001640D03*
X025140Y001640D03*
X026140Y001640D03*
X027140Y001640D03*
X028140Y001640D03*
X029140Y001640D03*
X030140Y001640D03*
X030140Y002640D03*
X029140Y002640D03*
X028140Y002640D03*
X027140Y002640D03*
X026140Y002640D03*
X025140Y002640D03*
X024140Y002640D03*
D11*
X025890Y008640D03*
X026390Y008640D03*
X026890Y008640D03*
X027390Y008640D03*
X027890Y008640D03*
X028390Y008640D03*
X013890Y008640D03*
X013390Y008640D03*
X012890Y008640D03*
X012390Y008640D03*
X011890Y008640D03*
X011390Y008640D03*
X010890Y008640D03*
X010390Y008640D03*
X009890Y008640D03*
X009390Y008640D03*
X008890Y008640D03*
X008390Y008640D03*
D12*
X009140Y004640D03*
X012140Y004640D03*
X015140Y004640D03*
X018140Y004640D03*
X021140Y004640D03*
X019640Y001640D03*
X016640Y001640D03*
X013640Y001640D03*
X010640Y001640D03*
X007640Y001640D03*
X004640Y001640D03*
X003140Y004640D03*
X006140Y004640D03*
D13*
X024640Y005140D03*
X025640Y005140D03*
X026640Y005140D03*
X027640Y005140D03*
X028640Y005140D03*
X029640Y005140D03*
X029640Y006140D03*
X028640Y006140D03*
X027640Y006140D03*
X026640Y006140D03*
X025640Y006140D03*
X024640Y006140D03*
D14*
X012390Y005765D03*
X010890Y005765D03*
X009765Y005765D03*
X008390Y005765D03*
D15*
X022840Y006140D02*
X023440Y006140D01*
X023440Y005140D02*
X022840Y005140D01*
D16*
X012390Y007890D03*
X010890Y007890D03*
X010390Y007890D03*
X008390Y007890D03*
D17*
X004640Y004140D01*
X004640Y001640D01*
X007640Y001640D02*
X007640Y004140D01*
X008890Y005390D01*
X008890Y006890D01*
X009390Y007390D01*
X009390Y008640D01*
X008890Y008640D02*
X008890Y007390D01*
X006140Y004640D01*
X009140Y004640D02*
X009140Y006640D01*
X009890Y007390D01*
X009890Y008640D01*
X010890Y008640D02*
X010890Y007890D01*
X011640Y007140D01*
X011640Y005140D01*
X012140Y004640D01*
X010640Y005015D02*
X010390Y005265D01*
X010390Y007890D01*
X011390Y007890D02*
X013640Y005640D01*
X013640Y001640D01*
X010640Y001640D02*
X010640Y005015D01*
X012390Y007890D02*
X014640Y005640D01*
X016140Y005640D01*
X016640Y005140D01*
X016640Y001640D01*
X019640Y001640D02*
X019640Y005640D01*
X018640Y006640D01*
X014640Y006640D01*
X013390Y007890D01*
X013390Y008640D01*
X012890Y008640D02*
X012890Y007890D01*
X014640Y006140D01*
X017640Y006140D01*
X018140Y005640D01*
X018140Y004640D01*
X019140Y007140D02*
X021140Y005140D01*
X021140Y004640D01*
X024640Y005140D02*
X024640Y002140D01*
X024140Y001640D01*
X025140Y001640D02*
X025640Y002140D01*
X025640Y005140D01*
X026640Y005140D02*
X026640Y002140D01*
X026140Y001640D01*
X027140Y001640D02*
X027640Y002140D01*
X027640Y005140D01*
X028640Y005140D02*
X028640Y002140D01*
X029140Y001640D01*
X015140Y004640D02*
X011890Y007890D01*
X011890Y008640D01*
X012390Y008640D02*
X012390Y007890D01*
X011390Y007890D02*
X011390Y008640D01*
X013890Y008640D02*
X013890Y007890D01*
X014640Y007140D01*
X019140Y007140D01*
X024640Y006890D02*
X024640Y006140D01*
X025640Y006140D02*
X025640Y007390D01*
X026390Y008140D01*
X026390Y008640D01*
X026890Y008640D02*
X026890Y008140D01*
X026640Y007890D01*
X026640Y006140D01*
X027640Y006140D02*
X027640Y007890D01*
X027390Y008140D01*
X027390Y008640D01*
X027890Y008640D02*
X027890Y008140D01*
X028640Y007390D01*
X028640Y006140D01*
X029640Y006140D02*
X029640Y006890D01*
X028390Y008140D01*
X028390Y008640D01*
X025890Y008640D02*
X025890Y008140D01*
X024640Y006890D01*
X008390Y007890D02*
X008390Y008640D01*
D18*
X010390Y008640D02*
X010390Y007890D01*
D19*
X002295Y000514D02*
X001897Y000744D01*
X001724Y000895D01*
X001690Y000929D01*
X000929Y001690D01*
X000929Y001690D01*
X000895Y001724D01*
X000780Y001852D01*
X000588Y002139D01*
X000456Y002458D01*
X000388Y002796D01*
X000380Y002968D01*
X000380Y004714D01*
X000407Y004650D01*
X000650Y004407D01*
X000968Y004275D01*
X001312Y004275D01*
X001630Y004407D01*
X001873Y004650D01*
X002005Y004968D01*
X002005Y005312D01*
X001873Y005630D01*
X001630Y005873D01*
X001312Y006005D01*
X000968Y006005D01*
X000650Y005873D01*
X000407Y005630D01*
X000380Y005566D01*
X000380Y007312D01*
X000388Y007484D01*
X000456Y007822D01*
X000588Y008141D01*
X000780Y008428D01*
X000895Y008556D01*
X000915Y008576D01*
X000929Y008590D01*
X001724Y009385D01*
X001852Y009500D01*
X002139Y009692D01*
X002458Y009824D01*
X002796Y009892D01*
X002968Y009900D01*
X030312Y009900D01*
X030484Y009892D01*
X030822Y009824D01*
X031141Y009692D01*
X031428Y009500D01*
X031556Y009385D01*
X031585Y009356D01*
X031590Y009351D01*
X032385Y008556D01*
X032536Y008383D01*
X032766Y007985D01*
X032885Y007541D01*
X032900Y007312D01*
X032900Y005566D01*
X032873Y005630D01*
X032630Y005873D01*
X032312Y006005D01*
X031968Y006005D01*
X031650Y005873D01*
X031407Y005630D01*
X031275Y005312D01*
X031275Y004968D01*
X031407Y004650D01*
X031650Y004407D01*
X031968Y004275D01*
X032312Y004275D01*
X032630Y004407D01*
X032873Y004650D01*
X032900Y004714D01*
X032900Y002968D01*
X032885Y002739D01*
X032766Y002295D01*
X032536Y001897D01*
X032385Y001724D01*
X032360Y001699D01*
X032351Y001690D01*
X031556Y000895D01*
X031428Y000780D01*
X031141Y000588D01*
X030822Y000456D01*
X030484Y000388D01*
X030312Y000380D01*
X002968Y000380D01*
X002739Y000395D01*
X002295Y000514D01*
X002263Y000533D02*
X031008Y000533D01*
X031176Y000611D02*
X002127Y000611D01*
X001991Y000690D02*
X031293Y000690D01*
X031411Y000768D02*
X001869Y000768D01*
X001780Y000847D02*
X031502Y000847D01*
X031586Y000925D02*
X001694Y000925D01*
X001690Y000929D02*
X001690Y000929D01*
X001616Y001004D02*
X031664Y001004D01*
X031743Y001082D02*
X019789Y001082D01*
X019754Y001068D02*
X019964Y001155D01*
X020125Y001316D01*
X020212Y001526D01*
X020212Y001754D01*
X020125Y001964D01*
X019964Y002125D01*
X019790Y002197D01*
X019790Y005702D01*
X019702Y005790D01*
X018702Y006790D01*
X014702Y006790D01*
X013540Y007952D01*
X013540Y008146D01*
X013556Y008146D01*
X013615Y008205D01*
X013615Y009075D01*
X013556Y009134D01*
X013224Y009134D01*
X013165Y009075D01*
X013165Y008205D01*
X013224Y008146D01*
X013240Y008146D01*
X013240Y007828D01*
X014490Y006578D01*
X014578Y006490D01*
X018578Y006490D01*
X019490Y005578D01*
X019490Y002197D01*
X019316Y002125D01*
X019155Y001964D01*
X019068Y001754D01*
X019068Y001526D01*
X019155Y001316D01*
X019316Y001155D01*
X019526Y001068D01*
X019754Y001068D01*
X019970Y001161D02*
X031821Y001161D01*
X031900Y001239D02*
X028312Y001239D01*
X028307Y001237D02*
X028368Y001268D01*
X028424Y001308D01*
X028472Y001356D01*
X028512Y001412D01*
X028543Y001473D01*
X028565Y001538D01*
X028574Y001600D01*
X028180Y001600D01*
X028180Y001680D01*
X028100Y001680D01*
X028100Y002074D01*
X028038Y002065D01*
X027973Y002043D01*
X027912Y002012D01*
X027856Y001972D01*
X027808Y001924D01*
X027768Y001868D01*
X027737Y001807D01*
X027715Y001742D01*
X027706Y001680D01*
X028100Y001680D01*
X028100Y001600D01*
X027706Y001600D01*
X027715Y001538D01*
X027737Y001473D01*
X027768Y001412D01*
X027808Y001356D01*
X027856Y001308D01*
X027912Y001268D01*
X027973Y001237D01*
X028038Y001215D01*
X028100Y001206D01*
X028100Y001600D01*
X028180Y001600D01*
X028180Y001206D01*
X028242Y001215D01*
X028307Y001237D01*
X028180Y001239D02*
X028100Y001239D01*
X028100Y001318D02*
X028180Y001318D01*
X028180Y001396D02*
X028100Y001396D01*
X028100Y001475D02*
X028180Y001475D01*
X028180Y001553D02*
X028100Y001553D01*
X028100Y001632D02*
X027535Y001632D01*
X027535Y001561D02*
X027535Y001719D01*
X027505Y001793D01*
X027790Y002078D01*
X027790Y002452D01*
X027805Y002416D01*
X027916Y002305D01*
X028061Y002245D01*
X028219Y002245D01*
X028364Y002305D01*
X028475Y002416D01*
X028490Y002452D01*
X028490Y002078D01*
X028775Y001793D01*
X028745Y001719D01*
X028745Y001561D01*
X028805Y001416D01*
X028916Y001305D01*
X029061Y001245D01*
X029219Y001245D01*
X029364Y001305D01*
X029475Y001416D01*
X029535Y001561D01*
X029535Y001719D01*
X029475Y001864D01*
X029364Y001975D01*
X029219Y002035D01*
X029061Y002035D01*
X028987Y002005D01*
X028790Y002202D01*
X028790Y002452D01*
X028805Y002416D01*
X028916Y002305D01*
X029061Y002245D01*
X029219Y002245D01*
X029364Y002305D01*
X029475Y002416D01*
X029535Y002561D01*
X029535Y002719D01*
X029475Y002864D01*
X029364Y002975D01*
X029219Y003035D01*
X029061Y003035D01*
X028916Y002975D01*
X028805Y002864D01*
X028790Y002828D01*
X028790Y004740D01*
X028806Y004740D01*
X029040Y004974D01*
X029040Y005306D01*
X028806Y005540D01*
X028474Y005540D01*
X028240Y005306D01*
X028240Y004974D01*
X028474Y004740D01*
X028490Y004740D01*
X028490Y002828D01*
X028475Y002864D01*
X028364Y002975D01*
X028219Y003035D01*
X028061Y003035D01*
X027916Y002975D01*
X027805Y002864D01*
X027790Y002828D01*
X027790Y004740D01*
X027806Y004740D01*
X028040Y004974D01*
X028040Y005306D01*
X027806Y005540D01*
X027474Y005540D01*
X027240Y005306D01*
X027240Y004974D01*
X027474Y004740D01*
X027490Y004740D01*
X027490Y002828D01*
X027475Y002864D01*
X027364Y002975D01*
X027219Y003035D01*
X027061Y003035D01*
X026916Y002975D01*
X026805Y002864D01*
X026790Y002828D01*
X026790Y004740D01*
X026806Y004740D01*
X027040Y004974D01*
X027040Y005306D01*
X026806Y005540D01*
X026474Y005540D01*
X026240Y005306D01*
X026240Y004974D01*
X026474Y004740D01*
X026490Y004740D01*
X026490Y002828D01*
X026475Y002864D01*
X026364Y002975D01*
X026219Y003035D01*
X026061Y003035D01*
X025916Y002975D01*
X025805Y002864D01*
X025790Y002828D01*
X025790Y004740D01*
X025806Y004740D01*
X026040Y004974D01*
X026040Y005306D01*
X025806Y005540D01*
X025474Y005540D01*
X025240Y005306D01*
X025240Y004974D01*
X025474Y004740D01*
X025490Y004740D01*
X025490Y002828D01*
X025475Y002864D01*
X025364Y002975D01*
X025219Y003035D01*
X025061Y003035D01*
X024916Y002975D01*
X024805Y002864D01*
X024790Y002828D01*
X024790Y004740D01*
X024806Y004740D01*
X025040Y004974D01*
X025040Y005306D01*
X024806Y005540D01*
X024474Y005540D01*
X024240Y005306D01*
X024240Y004974D01*
X024474Y004740D01*
X024490Y004740D01*
X024490Y002828D01*
X024475Y002864D01*
X024364Y002975D01*
X024219Y003035D01*
X024061Y003035D01*
X023916Y002975D01*
X023805Y002864D01*
X023745Y002719D01*
X023745Y002561D01*
X023805Y002416D01*
X023916Y002305D01*
X024061Y002245D01*
X024219Y002245D01*
X024364Y002305D01*
X024475Y002416D01*
X024490Y002452D01*
X024490Y002202D01*
X024293Y002005D01*
X024219Y002035D01*
X024061Y002035D01*
X023916Y001975D01*
X023805Y001864D01*
X023745Y001719D01*
X023745Y001561D01*
X023805Y001416D01*
X023916Y001305D01*
X024061Y001245D01*
X024219Y001245D01*
X024364Y001305D01*
X024475Y001416D01*
X024535Y001561D01*
X024535Y001719D01*
X024505Y001793D01*
X024790Y002078D01*
X024790Y002452D01*
X024805Y002416D01*
X024916Y002305D01*
X025061Y002245D01*
X025219Y002245D01*
X025364Y002305D01*
X025475Y002416D01*
X025490Y002452D01*
X025490Y002202D01*
X025293Y002005D01*
X025219Y002035D01*
X025061Y002035D01*
X024916Y001975D01*
X024805Y001864D01*
X024745Y001719D01*
X024745Y001561D01*
X024805Y001416D01*
X024916Y001305D01*
X025061Y001245D01*
X025219Y001245D01*
X025364Y001305D01*
X025475Y001416D01*
X025535Y001561D01*
X025535Y001719D01*
X025505Y001793D01*
X025790Y002078D01*
X025790Y002452D01*
X025805Y002416D01*
X025916Y002305D01*
X026061Y002245D01*
X026219Y002245D01*
X026364Y002305D01*
X026475Y002416D01*
X026490Y002452D01*
X026490Y002202D01*
X026293Y002005D01*
X026219Y002035D01*
X026061Y002035D01*
X025916Y001975D01*
X025805Y001864D01*
X025745Y001719D01*
X025745Y001561D01*
X025805Y001416D01*
X025916Y001305D01*
X026061Y001245D01*
X026219Y001245D01*
X026364Y001305D01*
X026475Y001416D01*
X026535Y001561D01*
X026535Y001719D01*
X026505Y001793D01*
X026790Y002078D01*
X026790Y002452D01*
X026805Y002416D01*
X026916Y002305D01*
X027061Y002245D01*
X027219Y002245D01*
X027364Y002305D01*
X027475Y002416D01*
X027490Y002452D01*
X027490Y002202D01*
X027293Y002005D01*
X027219Y002035D01*
X027061Y002035D01*
X026916Y001975D01*
X026805Y001864D01*
X026745Y001719D01*
X026745Y001561D01*
X026805Y001416D01*
X026916Y001305D01*
X027061Y001245D01*
X027219Y001245D01*
X027364Y001305D01*
X027475Y001416D01*
X027535Y001561D01*
X027532Y001553D02*
X027713Y001553D01*
X027736Y001475D02*
X027499Y001475D01*
X027455Y001396D02*
X027779Y001396D01*
X027847Y001318D02*
X027377Y001318D01*
X027968Y001239D02*
X020049Y001239D01*
X020126Y001318D02*
X023903Y001318D01*
X023825Y001396D02*
X020159Y001396D01*
X020191Y001475D02*
X023781Y001475D01*
X023748Y001553D02*
X020212Y001553D01*
X020212Y001632D02*
X023745Y001632D01*
X023745Y001710D02*
X020212Y001710D01*
X020198Y001789D02*
X023774Y001789D01*
X023808Y001867D02*
X020166Y001867D01*
X020133Y001946D02*
X023887Y001946D01*
X024034Y002024D02*
X020066Y002024D01*
X019987Y002103D02*
X024390Y002103D01*
X024469Y002181D02*
X019830Y002181D01*
X019790Y002260D02*
X024026Y002260D01*
X023883Y002338D02*
X019790Y002338D01*
X019790Y002417D02*
X023805Y002417D01*
X023772Y002495D02*
X019790Y002495D01*
X019790Y002574D02*
X023745Y002574D01*
X023745Y002652D02*
X019790Y002652D01*
X019790Y002731D02*
X023750Y002731D01*
X023782Y002809D02*
X019790Y002809D01*
X019790Y002888D02*
X023829Y002888D01*
X023907Y002966D02*
X019790Y002966D01*
X019790Y003045D02*
X024490Y003045D01*
X024490Y003123D02*
X019790Y003123D01*
X019790Y003202D02*
X024490Y003202D01*
X024490Y003280D02*
X019790Y003280D01*
X019790Y003359D02*
X024490Y003359D01*
X024490Y003437D02*
X019790Y003437D01*
X019790Y003516D02*
X024490Y003516D01*
X024490Y003594D02*
X019790Y003594D01*
X019790Y003673D02*
X024490Y003673D01*
X024490Y003751D02*
X019790Y003751D01*
X019790Y003830D02*
X024490Y003830D01*
X024490Y003908D02*
X019790Y003908D01*
X019790Y003987D02*
X024490Y003987D01*
X024490Y004065D02*
X019790Y004065D01*
X019790Y004144D02*
X020843Y004144D01*
X020816Y004155D02*
X021026Y004068D01*
X021254Y004068D01*
X021464Y004155D01*
X021625Y004316D01*
X021712Y004526D01*
X021712Y004754D01*
X021625Y004964D01*
X021464Y005125D01*
X021290Y005197D01*
X021290Y005202D01*
X021202Y005290D01*
X019202Y007290D01*
X014702Y007290D01*
X014040Y007952D01*
X014040Y008146D01*
X014056Y008146D01*
X014115Y008205D01*
X014115Y009075D01*
X014056Y009134D01*
X013724Y009134D01*
X013665Y009075D01*
X013665Y008205D01*
X013724Y008146D01*
X013740Y008146D01*
X013740Y007828D01*
X014490Y007078D01*
X014578Y006990D01*
X019078Y006990D01*
X020905Y005162D01*
X020816Y005125D01*
X020655Y004964D01*
X020568Y004754D01*
X020568Y004526D01*
X020655Y004316D01*
X020816Y004155D01*
X020748Y004222D02*
X019790Y004222D01*
X019790Y004301D02*
X020670Y004301D01*
X020628Y004379D02*
X019790Y004379D01*
X019790Y004458D02*
X020596Y004458D01*
X020568Y004536D02*
X019790Y004536D01*
X019790Y004615D02*
X020568Y004615D01*
X020568Y004693D02*
X019790Y004693D01*
X019790Y004772D02*
X020575Y004772D01*
X020607Y004850D02*
X019790Y004850D01*
X019790Y004929D02*
X020640Y004929D01*
X020697Y005007D02*
X019790Y005007D01*
X019790Y005086D02*
X020776Y005086D01*
X020904Y005164D02*
X019790Y005164D01*
X019790Y005243D02*
X020825Y005243D01*
X020747Y005321D02*
X019790Y005321D01*
X019790Y005400D02*
X020668Y005400D01*
X020590Y005478D02*
X019790Y005478D01*
X019790Y005557D02*
X020511Y005557D01*
X020433Y005635D02*
X019790Y005635D01*
X019779Y005714D02*
X020354Y005714D01*
X020276Y005792D02*
X019700Y005792D01*
X019622Y005871D02*
X020197Y005871D01*
X020119Y005949D02*
X019543Y005949D01*
X019465Y006028D02*
X020040Y006028D01*
X019962Y006106D02*
X019386Y006106D01*
X019308Y006185D02*
X019883Y006185D01*
X019805Y006263D02*
X019229Y006263D01*
X019151Y006342D02*
X019726Y006342D01*
X019648Y006420D02*
X019072Y006420D01*
X018994Y006499D02*
X019569Y006499D01*
X019491Y006577D02*
X018915Y006577D01*
X018837Y006656D02*
X019412Y006656D01*
X019334Y006734D02*
X018758Y006734D01*
X019098Y006970D02*
X014523Y006970D01*
X014520Y007048D02*
X014444Y007048D01*
X014441Y007127D02*
X014366Y007127D01*
X014363Y007205D02*
X014287Y007205D01*
X014284Y007284D02*
X014209Y007284D01*
X014206Y007362D02*
X014130Y007362D01*
X014127Y007441D02*
X014052Y007441D01*
X014049Y007519D02*
X013973Y007519D01*
X013970Y007598D02*
X013895Y007598D01*
X013892Y007676D02*
X013816Y007676D01*
X013813Y007755D02*
X013738Y007755D01*
X013740Y007833D02*
X013659Y007833D01*
X013581Y007912D02*
X013740Y007912D01*
X013740Y007990D02*
X013540Y007990D01*
X013540Y008069D02*
X013740Y008069D01*
X013723Y008147D02*
X013557Y008147D01*
X013615Y008226D02*
X013665Y008226D01*
X013665Y008304D02*
X013615Y008304D01*
X013615Y008383D02*
X013665Y008383D01*
X013665Y008461D02*
X013615Y008461D01*
X013615Y008540D02*
X013665Y008540D01*
X013665Y008618D02*
X013615Y008618D01*
X013615Y008697D02*
X013665Y008697D01*
X013665Y008775D02*
X013615Y008775D01*
X013615Y008854D02*
X013665Y008854D01*
X013665Y008932D02*
X013615Y008932D01*
X013615Y009011D02*
X013665Y009011D01*
X013679Y009089D02*
X013601Y009089D01*
X013179Y009089D02*
X013101Y009089D01*
X013115Y009075D02*
X013056Y009134D01*
X012724Y009134D01*
X012665Y009075D01*
X012665Y008205D01*
X012724Y008146D01*
X012740Y008146D01*
X012740Y007828D01*
X014490Y006078D01*
X014578Y005990D01*
X017578Y005990D01*
X017990Y005578D01*
X017990Y005197D01*
X017816Y005125D01*
X017655Y004964D01*
X017568Y004754D01*
X017568Y004526D01*
X017655Y004316D01*
X017816Y004155D01*
X018026Y004068D01*
X018254Y004068D01*
X018464Y004155D01*
X018625Y004316D01*
X018712Y004526D01*
X018712Y004754D01*
X018625Y004964D01*
X018464Y005125D01*
X018290Y005197D01*
X018290Y005702D01*
X018202Y005790D01*
X017702Y006290D01*
X014702Y006290D01*
X013040Y007952D01*
X013040Y008146D01*
X013056Y008146D01*
X013115Y008205D01*
X013115Y009075D01*
X013115Y009011D02*
X013165Y009011D01*
X013165Y008932D02*
X013115Y008932D01*
X013115Y008854D02*
X013165Y008854D01*
X013165Y008775D02*
X013115Y008775D01*
X013115Y008697D02*
X013165Y008697D01*
X013165Y008618D02*
X013115Y008618D01*
X013115Y008540D02*
X013165Y008540D01*
X013165Y008461D02*
X013115Y008461D01*
X013115Y008383D02*
X013165Y008383D01*
X013165Y008304D02*
X013115Y008304D01*
X013115Y008226D02*
X013165Y008226D01*
X013223Y008147D02*
X013057Y008147D01*
X013040Y008069D02*
X013240Y008069D01*
X013240Y007990D02*
X013040Y007990D01*
X013081Y007912D02*
X013240Y007912D01*
X013240Y007833D02*
X013159Y007833D01*
X013238Y007755D02*
X013313Y007755D01*
X013316Y007676D02*
X013392Y007676D01*
X013395Y007598D02*
X013470Y007598D01*
X013473Y007519D02*
X013549Y007519D01*
X013552Y007441D02*
X013627Y007441D01*
X013630Y007362D02*
X013706Y007362D01*
X013709Y007284D02*
X013784Y007284D01*
X013787Y007205D02*
X013863Y007205D01*
X013866Y007127D02*
X013941Y007127D01*
X013944Y007048D02*
X014020Y007048D01*
X014023Y006970D02*
X014098Y006970D01*
X014101Y006891D02*
X014177Y006891D01*
X014180Y006813D02*
X014255Y006813D01*
X014258Y006734D02*
X014334Y006734D01*
X014337Y006656D02*
X014412Y006656D01*
X014415Y006577D02*
X014491Y006577D01*
X014494Y006499D02*
X014569Y006499D01*
X014572Y006420D02*
X018648Y006420D01*
X018726Y006342D02*
X014651Y006342D01*
X014383Y006185D02*
X014308Y006185D01*
X014305Y006263D02*
X014229Y006263D01*
X014226Y006342D02*
X014151Y006342D01*
X014148Y006420D02*
X014072Y006420D01*
X014069Y006499D02*
X013994Y006499D01*
X013991Y006577D02*
X013915Y006577D01*
X013912Y006656D02*
X013837Y006656D01*
X013834Y006734D02*
X013758Y006734D01*
X013755Y006813D02*
X013680Y006813D01*
X013677Y006891D02*
X013601Y006891D01*
X013598Y006970D02*
X013523Y006970D01*
X013520Y007048D02*
X013444Y007048D01*
X013441Y007127D02*
X013366Y007127D01*
X013363Y007205D02*
X013287Y007205D01*
X013284Y007284D02*
X013209Y007284D01*
X013206Y007362D02*
X013130Y007362D01*
X013127Y007441D02*
X013052Y007441D01*
X013049Y007519D02*
X012973Y007519D01*
X012970Y007598D02*
X012895Y007598D01*
X012892Y007676D02*
X012816Y007676D01*
X012813Y007755D02*
X012738Y007755D01*
X012740Y007833D02*
X012669Y007833D01*
X012670Y007834D02*
X012670Y007946D01*
X012627Y008049D01*
X012549Y008127D01*
X012540Y008131D01*
X012540Y008146D01*
X012556Y008146D01*
X012615Y008205D01*
X012615Y009075D01*
X012556Y009134D01*
X012224Y009134D01*
X012165Y009075D01*
X012165Y008205D01*
X012224Y008146D01*
X012240Y008146D01*
X012240Y008131D01*
X012231Y008127D01*
X012153Y008049D01*
X012110Y007946D01*
X012110Y007882D01*
X012040Y007952D01*
X012040Y008146D01*
X012056Y008146D01*
X012115Y008205D01*
X012115Y009075D01*
X012056Y009134D01*
X011724Y009134D01*
X011665Y009075D01*
X011665Y008205D01*
X011724Y008146D01*
X011740Y008146D01*
X011740Y007828D01*
X014640Y004928D01*
X014568Y004754D01*
X014568Y004526D01*
X014655Y004316D01*
X014816Y004155D01*
X015026Y004068D01*
X015254Y004068D01*
X015464Y004155D01*
X015625Y004316D01*
X015712Y004526D01*
X015712Y004754D01*
X015625Y004964D01*
X015464Y005125D01*
X015254Y005212D01*
X015026Y005212D01*
X014852Y005140D01*
X012382Y007610D01*
X012446Y007610D01*
X012454Y007614D01*
X014490Y005578D01*
X014578Y005490D01*
X016078Y005490D01*
X016490Y005078D01*
X016490Y002197D01*
X016316Y002125D01*
X016155Y001964D01*
X016068Y001754D01*
X016068Y001526D01*
X016155Y001316D01*
X016316Y001155D01*
X016526Y001068D01*
X016754Y001068D01*
X016964Y001155D01*
X017125Y001316D01*
X017212Y001526D01*
X017212Y001754D01*
X017125Y001964D01*
X016964Y002125D01*
X016790Y002197D01*
X016790Y005202D01*
X016702Y005290D01*
X016202Y005790D01*
X014702Y005790D01*
X012666Y007826D01*
X012670Y007834D01*
X012670Y007912D02*
X012740Y007912D01*
X012740Y007990D02*
X012652Y007990D01*
X012607Y008069D02*
X012740Y008069D01*
X012723Y008147D02*
X012557Y008147D01*
X012615Y008226D02*
X012665Y008226D01*
X012665Y008304D02*
X012615Y008304D01*
X012615Y008383D02*
X012665Y008383D01*
X012665Y008461D02*
X012615Y008461D01*
X012615Y008540D02*
X012665Y008540D01*
X012665Y008618D02*
X012615Y008618D01*
X012615Y008697D02*
X012665Y008697D01*
X012665Y008775D02*
X012615Y008775D01*
X012615Y008854D02*
X012665Y008854D01*
X012665Y008932D02*
X012615Y008932D01*
X012615Y009011D02*
X012665Y009011D01*
X012679Y009089D02*
X012601Y009089D01*
X012179Y009089D02*
X012101Y009089D01*
X012115Y009011D02*
X012165Y009011D01*
X012165Y008932D02*
X012115Y008932D01*
X012115Y008854D02*
X012165Y008854D01*
X012165Y008775D02*
X012115Y008775D01*
X012115Y008697D02*
X012165Y008697D01*
X012165Y008618D02*
X012115Y008618D01*
X012115Y008540D02*
X012165Y008540D01*
X012165Y008461D02*
X012115Y008461D01*
X012115Y008383D02*
X012165Y008383D01*
X012165Y008304D02*
X012115Y008304D01*
X012115Y008226D02*
X012165Y008226D01*
X012223Y008147D02*
X012057Y008147D01*
X012040Y008069D02*
X012173Y008069D01*
X012128Y007990D02*
X012040Y007990D01*
X012081Y007912D02*
X012110Y007912D01*
X011813Y007755D02*
X011738Y007755D01*
X011740Y007833D02*
X011659Y007833D01*
X011581Y007912D02*
X011740Y007912D01*
X011740Y007990D02*
X011540Y007990D01*
X011540Y007952D02*
X011540Y008146D01*
X011556Y008146D01*
X011615Y008205D01*
X011615Y009075D01*
X011556Y009134D01*
X011224Y009134D01*
X011165Y009075D01*
X011165Y008205D01*
X011224Y008146D01*
X011240Y008146D01*
X011240Y007828D01*
X013490Y005578D01*
X013490Y002197D01*
X013316Y002125D01*
X013155Y001964D01*
X013068Y001754D01*
X013068Y001526D01*
X013155Y001316D01*
X013316Y001155D01*
X013526Y001068D01*
X013754Y001068D01*
X013964Y001155D01*
X014125Y001316D01*
X014212Y001526D01*
X014212Y001754D01*
X014125Y001964D01*
X013964Y002125D01*
X013790Y002197D01*
X013790Y005702D01*
X013702Y005790D01*
X011540Y007952D01*
X011540Y008069D02*
X011740Y008069D01*
X011723Y008147D02*
X011557Y008147D01*
X011615Y008226D02*
X011665Y008226D01*
X011665Y008304D02*
X011615Y008304D01*
X011615Y008383D02*
X011665Y008383D01*
X011665Y008461D02*
X011615Y008461D01*
X011615Y008540D02*
X011665Y008540D01*
X011665Y008618D02*
X011615Y008618D01*
X011615Y008697D02*
X011665Y008697D01*
X011665Y008775D02*
X011615Y008775D01*
X011615Y008854D02*
X011665Y008854D01*
X011665Y008932D02*
X011615Y008932D01*
X011615Y009011D02*
X011665Y009011D01*
X011679Y009089D02*
X011601Y009089D01*
X011179Y009089D02*
X011101Y009089D01*
X011115Y009075D02*
X011056Y009134D01*
X010724Y009134D01*
X010665Y009075D01*
X010665Y008205D01*
X010724Y008146D01*
X010740Y008146D01*
X010740Y008131D01*
X010731Y008127D01*
X010653Y008049D01*
X010640Y008018D01*
X010627Y008049D01*
X010570Y008106D01*
X010570Y008160D01*
X010615Y008205D01*
X010615Y009075D01*
X010556Y009134D01*
X010224Y009134D01*
X010165Y009075D01*
X010165Y008205D01*
X010210Y008160D01*
X010210Y008106D01*
X010153Y008049D01*
X010110Y007946D01*
X010110Y007834D01*
X010153Y007731D01*
X010231Y007653D01*
X010240Y007649D01*
X010240Y005203D01*
X010328Y005115D01*
X010490Y004953D01*
X010490Y002197D01*
X010316Y002125D01*
X010155Y001964D01*
X010068Y001754D01*
X010068Y001526D01*
X010155Y001316D01*
X010316Y001155D01*
X010526Y001068D01*
X010754Y001068D01*
X010964Y001155D01*
X011125Y001316D01*
X011212Y001526D01*
X011212Y001754D01*
X011125Y001964D01*
X010964Y002125D01*
X010790Y002197D01*
X010790Y005077D01*
X010540Y005327D01*
X010540Y005492D01*
X010552Y005476D01*
X010601Y005427D01*
X010657Y005385D01*
X010720Y005354D01*
X010786Y005332D01*
X010850Y005322D01*
X010850Y005725D01*
X010930Y005725D01*
X010930Y005805D01*
X010850Y005805D01*
X010850Y006208D01*
X010786Y006198D01*
X010720Y006176D01*
X010657Y006145D01*
X010601Y006103D01*
X010552Y006054D01*
X010540Y006038D01*
X010540Y007649D01*
X010549Y007653D01*
X010627Y007731D01*
X010640Y007762D01*
X010653Y007731D01*
X010731Y007653D01*
X010834Y007610D01*
X010946Y007610D01*
X010954Y007614D01*
X011490Y007078D01*
X011490Y005078D01*
X011578Y004990D01*
X011640Y004928D01*
X011568Y004754D01*
X011568Y004526D01*
X011655Y004316D01*
X011816Y004155D01*
X012026Y004068D01*
X012254Y004068D01*
X012464Y004155D01*
X012625Y004316D01*
X012712Y004526D01*
X012712Y004754D01*
X012625Y004964D01*
X012464Y005125D01*
X012254Y005212D01*
X012026Y005212D01*
X011852Y005140D01*
X011790Y005202D01*
X011790Y007202D01*
X011166Y007826D01*
X011170Y007834D01*
X011170Y007946D01*
X011127Y008049D01*
X011049Y008127D01*
X011040Y008131D01*
X011040Y008146D01*
X011056Y008146D01*
X011115Y008205D01*
X011115Y009075D01*
X011115Y009011D02*
X011165Y009011D01*
X011165Y008932D02*
X011115Y008932D01*
X011115Y008854D02*
X011165Y008854D01*
X011165Y008775D02*
X011115Y008775D01*
X011115Y008697D02*
X011165Y008697D01*
X011165Y008618D02*
X011115Y008618D01*
X011115Y008540D02*
X011165Y008540D01*
X011165Y008461D02*
X011115Y008461D01*
X011115Y008383D02*
X011165Y008383D01*
X011165Y008304D02*
X011115Y008304D01*
X011115Y008226D02*
X011165Y008226D01*
X011223Y008147D02*
X011057Y008147D01*
X011107Y008069D02*
X011240Y008069D01*
X011240Y007990D02*
X011152Y007990D01*
X011170Y007912D02*
X011240Y007912D01*
X011240Y007833D02*
X011169Y007833D01*
X011238Y007755D02*
X011313Y007755D01*
X011316Y007676D02*
X011392Y007676D01*
X011395Y007598D02*
X011470Y007598D01*
X011473Y007519D02*
X011549Y007519D01*
X011552Y007441D02*
X011627Y007441D01*
X011630Y007362D02*
X011706Y007362D01*
X011709Y007284D02*
X011784Y007284D01*
X011787Y007205D02*
X011863Y007205D01*
X011790Y007127D02*
X011941Y007127D01*
X012020Y007048D02*
X011790Y007048D01*
X011790Y006970D02*
X012098Y006970D01*
X012177Y006891D02*
X011790Y006891D01*
X011790Y006813D02*
X012255Y006813D01*
X012334Y006734D02*
X011790Y006734D01*
X011790Y006656D02*
X012412Y006656D01*
X012491Y006577D02*
X011790Y006577D01*
X011790Y006499D02*
X012569Y006499D01*
X012648Y006420D02*
X011790Y006420D01*
X011790Y006342D02*
X012726Y006342D01*
X012805Y006263D02*
X011790Y006263D01*
X011790Y006185D02*
X012883Y006185D01*
X012962Y006106D02*
X012620Y006106D01*
X012619Y006107D02*
X012470Y006169D01*
X012310Y006169D01*
X012161Y006107D01*
X012048Y005994D01*
X011986Y005845D01*
X011986Y005685D01*
X012048Y005536D01*
X012161Y005423D01*
X012310Y005361D01*
X012470Y005361D01*
X012619Y005423D01*
X012732Y005536D01*
X012794Y005685D01*
X012794Y005845D01*
X012732Y005994D01*
X012619Y006107D01*
X012698Y006028D02*
X013040Y006028D01*
X013119Y005949D02*
X012751Y005949D01*
X012783Y005871D02*
X013197Y005871D01*
X013276Y005792D02*
X012794Y005792D01*
X012794Y005714D02*
X013354Y005714D01*
X013433Y005635D02*
X012773Y005635D01*
X012741Y005557D02*
X013490Y005557D01*
X013490Y005478D02*
X012674Y005478D01*
X012563Y005400D02*
X013490Y005400D01*
X013490Y005321D02*
X011790Y005321D01*
X011790Y005243D02*
X013490Y005243D01*
X013490Y005164D02*
X012371Y005164D01*
X012504Y005086D02*
X013490Y005086D01*
X013490Y005007D02*
X012583Y005007D01*
X012640Y004929D02*
X013490Y004929D01*
X013490Y004850D02*
X012673Y004850D01*
X012705Y004772D02*
X013490Y004772D01*
X013490Y004693D02*
X012712Y004693D01*
X012712Y004615D02*
X013490Y004615D01*
X013490Y004536D02*
X012712Y004536D01*
X012684Y004458D02*
X013490Y004458D01*
X013490Y004379D02*
X012651Y004379D01*
X012610Y004301D02*
X013490Y004301D01*
X013490Y004222D02*
X012532Y004222D01*
X012437Y004144D02*
X013490Y004144D01*
X013490Y004065D02*
X010790Y004065D01*
X010790Y003987D02*
X013490Y003987D01*
X013490Y003908D02*
X010790Y003908D01*
X010790Y003830D02*
X013490Y003830D01*
X013490Y003751D02*
X010790Y003751D01*
X010790Y003673D02*
X013490Y003673D01*
X013490Y003594D02*
X010790Y003594D01*
X010790Y003516D02*
X013490Y003516D01*
X013490Y003437D02*
X010790Y003437D01*
X010790Y003359D02*
X013490Y003359D01*
X013490Y003280D02*
X010790Y003280D01*
X010790Y003202D02*
X013490Y003202D01*
X013490Y003123D02*
X010790Y003123D01*
X010790Y003045D02*
X013490Y003045D01*
X013490Y002966D02*
X010790Y002966D01*
X010790Y002888D02*
X013490Y002888D01*
X013490Y002809D02*
X010790Y002809D01*
X010790Y002731D02*
X013490Y002731D01*
X013490Y002652D02*
X010790Y002652D01*
X010790Y002574D02*
X013490Y002574D01*
X013490Y002495D02*
X010790Y002495D01*
X010790Y002417D02*
X013490Y002417D01*
X013490Y002338D02*
X010790Y002338D01*
X010790Y002260D02*
X013490Y002260D01*
X013450Y002181D02*
X010830Y002181D01*
X010987Y002103D02*
X013293Y002103D01*
X013214Y002024D02*
X011066Y002024D01*
X011133Y001946D02*
X013147Y001946D01*
X013114Y001867D02*
X011166Y001867D01*
X011198Y001789D02*
X013082Y001789D01*
X013068Y001710D02*
X011212Y001710D01*
X011212Y001632D02*
X013068Y001632D01*
X013068Y001553D02*
X011212Y001553D01*
X011191Y001475D02*
X013089Y001475D01*
X013121Y001396D02*
X011159Y001396D01*
X011126Y001318D02*
X013154Y001318D01*
X013231Y001239D02*
X011049Y001239D01*
X010970Y001161D02*
X013310Y001161D01*
X013491Y001082D02*
X010789Y001082D01*
X010491Y001082D02*
X007789Y001082D01*
X007754Y001068D02*
X007964Y001155D01*
X008125Y001316D01*
X008212Y001526D01*
X008212Y001754D01*
X008125Y001964D01*
X007964Y002125D01*
X007790Y002197D01*
X007790Y004078D01*
X008639Y004927D01*
X008568Y004754D01*
X008568Y004526D01*
X008655Y004316D01*
X008816Y004155D01*
X009026Y004068D01*
X009254Y004068D01*
X009464Y004155D01*
X009625Y004316D01*
X009712Y004526D01*
X009712Y004754D01*
X009625Y004964D01*
X009464Y005125D01*
X009290Y005197D01*
X009290Y006578D01*
X010040Y007328D01*
X010040Y008146D01*
X010056Y008146D01*
X010115Y008205D01*
X010115Y009075D01*
X010056Y009134D01*
X009724Y009134D01*
X009665Y009075D01*
X009665Y008205D01*
X009724Y008146D01*
X009740Y008146D01*
X009740Y007452D01*
X009078Y006790D01*
X009078Y006790D01*
X009040Y006752D01*
X009040Y006828D01*
X009540Y007328D01*
X009540Y008146D01*
X009556Y008146D01*
X009615Y008205D01*
X009615Y009075D01*
X009556Y009134D01*
X009224Y009134D01*
X009165Y009075D01*
X009165Y008205D01*
X009224Y008146D01*
X009240Y008146D01*
X009240Y007452D01*
X008828Y007040D01*
X008740Y006952D01*
X008740Y005975D01*
X008732Y005994D01*
X008619Y006107D01*
X008470Y006169D01*
X008310Y006169D01*
X008161Y006107D01*
X008048Y005994D01*
X007986Y005845D01*
X007986Y005685D01*
X008048Y005536D01*
X008161Y005423D01*
X008310Y005361D01*
X008470Y005361D01*
X008619Y005423D01*
X008732Y005536D01*
X008740Y005555D01*
X008740Y005452D01*
X007578Y004290D01*
X007490Y004202D01*
X007490Y002197D01*
X007316Y002125D01*
X007155Y001964D01*
X007068Y001754D01*
X007068Y001526D01*
X007155Y001316D01*
X007316Y001155D01*
X007526Y001068D01*
X007754Y001068D01*
X007970Y001161D02*
X010310Y001161D01*
X010231Y001239D02*
X008049Y001239D01*
X008126Y001318D02*
X010154Y001318D01*
X010121Y001396D02*
X008159Y001396D01*
X008191Y001475D02*
X010089Y001475D01*
X010068Y001553D02*
X008212Y001553D01*
X008212Y001632D02*
X010068Y001632D01*
X010068Y001710D02*
X008212Y001710D01*
X008198Y001789D02*
X010082Y001789D01*
X010114Y001867D02*
X008166Y001867D01*
X008133Y001946D02*
X010147Y001946D01*
X010214Y002024D02*
X008066Y002024D01*
X007987Y002103D02*
X010293Y002103D01*
X010450Y002181D02*
X007830Y002181D01*
X007790Y002260D02*
X010490Y002260D01*
X010490Y002338D02*
X007790Y002338D01*
X007790Y002417D02*
X010490Y002417D01*
X010490Y002495D02*
X007790Y002495D01*
X007790Y002574D02*
X010490Y002574D01*
X010490Y002652D02*
X007790Y002652D01*
X007790Y002731D02*
X010490Y002731D01*
X010490Y002809D02*
X007790Y002809D01*
X007790Y002888D02*
X010490Y002888D01*
X010490Y002966D02*
X007790Y002966D01*
X007790Y003045D02*
X010490Y003045D01*
X010490Y003123D02*
X007790Y003123D01*
X007790Y003202D02*
X010490Y003202D01*
X010490Y003280D02*
X007790Y003280D01*
X007790Y003359D02*
X010490Y003359D01*
X010490Y003437D02*
X007790Y003437D01*
X007790Y003516D02*
X010490Y003516D01*
X010490Y003594D02*
X007790Y003594D01*
X007790Y003673D02*
X010490Y003673D01*
X010490Y003751D02*
X007790Y003751D01*
X007790Y003830D02*
X010490Y003830D01*
X010490Y003908D02*
X007790Y003908D01*
X007790Y003987D02*
X010490Y003987D01*
X010490Y004065D02*
X007790Y004065D01*
X007856Y004144D02*
X008843Y004144D01*
X008748Y004222D02*
X007934Y004222D01*
X008013Y004301D02*
X008670Y004301D01*
X008628Y004379D02*
X008091Y004379D01*
X008170Y004458D02*
X008596Y004458D01*
X008568Y004536D02*
X008248Y004536D01*
X008327Y004615D02*
X008568Y004615D01*
X008568Y004693D02*
X008405Y004693D01*
X008484Y004772D02*
X008575Y004772D01*
X008562Y004850D02*
X008607Y004850D01*
X008295Y005007D02*
X006719Y005007D01*
X006641Y004929D02*
X008216Y004929D01*
X008138Y004850D02*
X006673Y004850D01*
X006640Y004928D02*
X008952Y007240D01*
X009040Y007328D01*
X009040Y008146D01*
X009056Y008146D01*
X009115Y008205D01*
X009115Y009075D01*
X009056Y009134D01*
X008724Y009134D01*
X008665Y009075D01*
X008665Y008205D01*
X008724Y008146D01*
X008740Y008146D01*
X008740Y007452D01*
X006428Y005140D01*
X006254Y005212D01*
X006026Y005212D01*
X005853Y005141D01*
X008326Y007614D01*
X008334Y007610D01*
X008446Y007610D01*
X008549Y007653D01*
X008627Y007731D01*
X008670Y007834D01*
X008670Y007946D01*
X008627Y008049D01*
X008549Y008127D01*
X008540Y008131D01*
X008540Y008146D01*
X008556Y008146D01*
X008615Y008205D01*
X008615Y009075D01*
X008556Y009134D01*
X008224Y009134D01*
X008165Y009075D01*
X008165Y008205D01*
X008224Y008146D01*
X008240Y008146D01*
X008240Y008131D01*
X008231Y008127D01*
X008153Y008049D01*
X008110Y007946D01*
X008110Y007834D01*
X008114Y007826D01*
X004490Y004202D01*
X004490Y002197D01*
X004316Y002125D01*
X004155Y001964D01*
X004068Y001754D01*
X004068Y001526D01*
X004155Y001316D01*
X004316Y001155D01*
X004526Y001068D01*
X004754Y001068D01*
X004964Y001155D01*
X005125Y001316D01*
X005212Y001526D01*
X005212Y001754D01*
X005125Y001964D01*
X004964Y002125D01*
X004790Y002197D01*
X004790Y004078D01*
X005639Y004927D01*
X005568Y004754D01*
X005568Y004526D01*
X005655Y004316D01*
X005816Y004155D01*
X006026Y004068D01*
X006254Y004068D01*
X006464Y004155D01*
X006625Y004316D01*
X006712Y004526D01*
X006712Y004754D01*
X006640Y004928D01*
X006705Y004772D02*
X008059Y004772D01*
X007981Y004693D02*
X006712Y004693D01*
X006712Y004615D02*
X007902Y004615D01*
X007824Y004536D02*
X006712Y004536D01*
X006684Y004458D02*
X007745Y004458D01*
X007667Y004379D02*
X006651Y004379D01*
X006610Y004301D02*
X007588Y004301D01*
X007510Y004222D02*
X006532Y004222D01*
X006437Y004144D02*
X007490Y004144D01*
X007490Y004065D02*
X004790Y004065D01*
X004790Y003987D02*
X007490Y003987D01*
X007490Y003908D02*
X004790Y003908D01*
X004790Y003830D02*
X007490Y003830D01*
X007490Y003751D02*
X004790Y003751D01*
X004790Y003673D02*
X007490Y003673D01*
X007490Y003594D02*
X004790Y003594D01*
X004790Y003516D02*
X007490Y003516D01*
X007490Y003437D02*
X004790Y003437D01*
X004790Y003359D02*
X007490Y003359D01*
X007490Y003280D02*
X004790Y003280D01*
X004790Y003202D02*
X007490Y003202D01*
X007490Y003123D02*
X004790Y003123D01*
X004790Y003045D02*
X007490Y003045D01*
X007490Y002966D02*
X004790Y002966D01*
X004790Y002888D02*
X007490Y002888D01*
X007490Y002809D02*
X004790Y002809D01*
X004790Y002731D02*
X007490Y002731D01*
X007490Y002652D02*
X004790Y002652D01*
X004790Y002574D02*
X007490Y002574D01*
X007490Y002495D02*
X004790Y002495D01*
X004790Y002417D02*
X007490Y002417D01*
X007490Y002338D02*
X004790Y002338D01*
X004790Y002260D02*
X007490Y002260D01*
X007450Y002181D02*
X004830Y002181D01*
X004987Y002103D02*
X007293Y002103D01*
X007214Y002024D02*
X005066Y002024D01*
X005133Y001946D02*
X007147Y001946D01*
X007114Y001867D02*
X005166Y001867D01*
X005198Y001789D02*
X007082Y001789D01*
X007068Y001710D02*
X005212Y001710D01*
X005212Y001632D02*
X007068Y001632D01*
X007068Y001553D02*
X005212Y001553D01*
X005191Y001475D02*
X007089Y001475D01*
X007121Y001396D02*
X005159Y001396D01*
X005126Y001318D02*
X007154Y001318D01*
X007231Y001239D02*
X005049Y001239D01*
X004970Y001161D02*
X007310Y001161D01*
X007491Y001082D02*
X004789Y001082D01*
X004491Y001082D02*
X001537Y001082D01*
X001459Y001161D02*
X004310Y001161D01*
X004231Y001239D02*
X001380Y001239D01*
X001302Y001318D02*
X004154Y001318D01*
X004121Y001396D02*
X001223Y001396D01*
X001145Y001475D02*
X004089Y001475D01*
X004068Y001553D02*
X001066Y001553D01*
X000988Y001632D02*
X004068Y001632D01*
X004068Y001710D02*
X000909Y001710D01*
X000837Y001789D02*
X004082Y001789D01*
X004114Y001867D02*
X000769Y001867D01*
X000717Y001946D02*
X004147Y001946D01*
X004214Y002024D02*
X000665Y002024D01*
X000612Y002103D02*
X004293Y002103D01*
X004450Y002181D02*
X000570Y002181D01*
X000538Y002260D02*
X004490Y002260D01*
X004490Y002338D02*
X000505Y002338D01*
X000473Y002417D02*
X004490Y002417D01*
X004490Y002495D02*
X000448Y002495D01*
X000433Y002574D02*
X004490Y002574D01*
X004490Y002652D02*
X000417Y002652D01*
X000401Y002731D02*
X004490Y002731D01*
X004490Y002809D02*
X000388Y002809D01*
X000384Y002888D02*
X004490Y002888D01*
X004490Y002966D02*
X000380Y002966D01*
X000380Y003045D02*
X004490Y003045D01*
X004490Y003123D02*
X000380Y003123D01*
X000380Y003202D02*
X004490Y003202D01*
X004490Y003280D02*
X000380Y003280D01*
X000380Y003359D02*
X004490Y003359D01*
X004490Y003437D02*
X000380Y003437D01*
X000380Y003516D02*
X004490Y003516D01*
X004490Y003594D02*
X000380Y003594D01*
X000380Y003673D02*
X004490Y003673D01*
X004490Y003751D02*
X000380Y003751D01*
X000380Y003830D02*
X004490Y003830D01*
X004490Y003908D02*
X000380Y003908D01*
X000380Y003987D02*
X004490Y003987D01*
X004490Y004065D02*
X000380Y004065D01*
X000380Y004144D02*
X002843Y004144D01*
X002816Y004155D02*
X003026Y004068D01*
X003254Y004068D01*
X003464Y004155D01*
X003625Y004316D01*
X003712Y004526D01*
X003712Y004754D01*
X003625Y004964D01*
X003464Y005125D01*
X003254Y005212D01*
X003026Y005212D01*
X002816Y005125D01*
X002655Y004964D01*
X002568Y004754D01*
X002568Y004526D01*
X002655Y004316D01*
X002816Y004155D01*
X002748Y004222D02*
X000380Y004222D01*
X000380Y004301D02*
X000906Y004301D01*
X000717Y004379D02*
X000380Y004379D01*
X000380Y004458D02*
X000599Y004458D01*
X000521Y004536D02*
X000380Y004536D01*
X000380Y004615D02*
X000442Y004615D01*
X000389Y004693D02*
X000380Y004693D01*
X001563Y004379D02*
X002628Y004379D01*
X002596Y004458D02*
X001681Y004458D01*
X001759Y004536D02*
X002568Y004536D01*
X002568Y004615D02*
X001838Y004615D01*
X001891Y004693D02*
X002568Y004693D01*
X002575Y004772D02*
X001924Y004772D01*
X001956Y004850D02*
X002607Y004850D01*
X002640Y004929D02*
X001989Y004929D01*
X002005Y005007D02*
X002697Y005007D01*
X002776Y005086D02*
X002005Y005086D01*
X002005Y005164D02*
X002909Y005164D01*
X003371Y005164D02*
X005452Y005164D01*
X005530Y005243D02*
X002005Y005243D01*
X002001Y005321D02*
X005609Y005321D01*
X005687Y005400D02*
X001969Y005400D01*
X001936Y005478D02*
X005766Y005478D01*
X005844Y005557D02*
X001904Y005557D01*
X001868Y005635D02*
X005923Y005635D01*
X006001Y005714D02*
X001790Y005714D01*
X001711Y005792D02*
X006080Y005792D01*
X006158Y005871D02*
X001633Y005871D01*
X001447Y005949D02*
X006237Y005949D01*
X006315Y006028D02*
X000380Y006028D01*
X000380Y006106D02*
X006394Y006106D01*
X006472Y006185D02*
X000380Y006185D01*
X000380Y006263D02*
X006551Y006263D01*
X006629Y006342D02*
X000380Y006342D01*
X000380Y006420D02*
X006708Y006420D01*
X006786Y006499D02*
X000380Y006499D01*
X000380Y006577D02*
X006865Y006577D01*
X006943Y006656D02*
X000380Y006656D01*
X000380Y006734D02*
X007022Y006734D01*
X007100Y006813D02*
X000380Y006813D01*
X000380Y006891D02*
X007179Y006891D01*
X007257Y006970D02*
X000380Y006970D01*
X000380Y007048D02*
X007336Y007048D01*
X007414Y007127D02*
X000380Y007127D01*
X000380Y007205D02*
X007493Y007205D01*
X007571Y007284D02*
X000380Y007284D01*
X000382Y007362D02*
X007650Y007362D01*
X007728Y007441D02*
X000386Y007441D01*
X000395Y007519D02*
X007807Y007519D01*
X007885Y007598D02*
X000411Y007598D01*
X000427Y007676D02*
X007964Y007676D01*
X008042Y007755D02*
X000442Y007755D01*
X000460Y007833D02*
X008111Y007833D01*
X008110Y007912D02*
X000493Y007912D01*
X000525Y007990D02*
X008128Y007990D01*
X008173Y008069D02*
X000558Y008069D01*
X000592Y008147D02*
X008223Y008147D01*
X008165Y008226D02*
X000644Y008226D01*
X000697Y008304D02*
X008165Y008304D01*
X008165Y008383D02*
X000749Y008383D01*
X000809Y008461D02*
X008165Y008461D01*
X008165Y008540D02*
X000880Y008540D01*
X000957Y008618D02*
X008165Y008618D01*
X008165Y008697D02*
X001036Y008697D01*
X001114Y008775D02*
X008165Y008775D01*
X008165Y008854D02*
X001193Y008854D01*
X001271Y008932D02*
X008165Y008932D01*
X008165Y009011D02*
X001350Y009011D01*
X001428Y009089D02*
X008179Y009089D01*
X008601Y009089D02*
X008679Y009089D01*
X008665Y009011D02*
X008615Y009011D01*
X008615Y008932D02*
X008665Y008932D01*
X008665Y008854D02*
X008615Y008854D01*
X008615Y008775D02*
X008665Y008775D01*
X008665Y008697D02*
X008615Y008697D01*
X008615Y008618D02*
X008665Y008618D01*
X008665Y008540D02*
X008615Y008540D01*
X008615Y008461D02*
X008665Y008461D01*
X008665Y008383D02*
X008615Y008383D01*
X008615Y008304D02*
X008665Y008304D01*
X008665Y008226D02*
X008615Y008226D01*
X008557Y008147D02*
X008723Y008147D01*
X008740Y008069D02*
X008607Y008069D01*
X008652Y007990D02*
X008740Y007990D01*
X008740Y007912D02*
X008670Y007912D01*
X008669Y007833D02*
X008740Y007833D01*
X008740Y007755D02*
X008637Y007755D01*
X008572Y007676D02*
X008740Y007676D01*
X008740Y007598D02*
X008310Y007598D01*
X008231Y007519D02*
X008740Y007519D01*
X008728Y007441D02*
X008153Y007441D01*
X008074Y007362D02*
X008650Y007362D01*
X008571Y007284D02*
X007996Y007284D01*
X007917Y007205D02*
X008493Y007205D01*
X008414Y007127D02*
X007839Y007127D01*
X007760Y007048D02*
X008336Y007048D01*
X008257Y006970D02*
X007682Y006970D01*
X007603Y006891D02*
X008179Y006891D01*
X008100Y006813D02*
X007525Y006813D01*
X007446Y006734D02*
X008022Y006734D01*
X007943Y006656D02*
X007368Y006656D01*
X007289Y006577D02*
X007865Y006577D01*
X007786Y006499D02*
X007211Y006499D01*
X007132Y006420D02*
X007708Y006420D01*
X007629Y006342D02*
X007054Y006342D01*
X006975Y006263D02*
X007551Y006263D01*
X007472Y006185D02*
X006897Y006185D01*
X006818Y006106D02*
X007394Y006106D01*
X007315Y006028D02*
X006740Y006028D01*
X006661Y005949D02*
X007237Y005949D01*
X007158Y005871D02*
X006583Y005871D01*
X006504Y005792D02*
X007080Y005792D01*
X007001Y005714D02*
X006426Y005714D01*
X006347Y005635D02*
X006923Y005635D01*
X006844Y005557D02*
X006269Y005557D01*
X006190Y005478D02*
X006766Y005478D01*
X006687Y005400D02*
X006112Y005400D01*
X006033Y005321D02*
X006609Y005321D01*
X006530Y005243D02*
X005955Y005243D01*
X005909Y005164D02*
X005876Y005164D01*
X006371Y005164D02*
X006452Y005164D01*
X006798Y005086D02*
X008373Y005086D01*
X008452Y005164D02*
X006876Y005164D01*
X006955Y005243D02*
X008530Y005243D01*
X008609Y005321D02*
X007033Y005321D01*
X007112Y005400D02*
X008217Y005400D01*
X008106Y005478D02*
X007190Y005478D01*
X007269Y005557D02*
X008039Y005557D01*
X008007Y005635D02*
X007347Y005635D01*
X007426Y005714D02*
X007986Y005714D01*
X007986Y005792D02*
X007504Y005792D01*
X007583Y005871D02*
X007997Y005871D01*
X008029Y005949D02*
X007661Y005949D01*
X007740Y006028D02*
X008082Y006028D01*
X008160Y006106D02*
X007818Y006106D01*
X007897Y006185D02*
X008740Y006185D01*
X008740Y006263D02*
X007975Y006263D01*
X008054Y006342D02*
X008740Y006342D01*
X008740Y006420D02*
X008132Y006420D01*
X008211Y006499D02*
X008740Y006499D01*
X008740Y006577D02*
X008289Y006577D01*
X008368Y006656D02*
X008740Y006656D01*
X008740Y006734D02*
X008446Y006734D01*
X008525Y006813D02*
X008740Y006813D01*
X008740Y006891D02*
X008603Y006891D01*
X008682Y006970D02*
X008757Y006970D01*
X008760Y007048D02*
X008836Y007048D01*
X008839Y007127D02*
X008914Y007127D01*
X008917Y007205D02*
X008993Y007205D01*
X008996Y007284D02*
X009071Y007284D01*
X009040Y007362D02*
X009150Y007362D01*
X009228Y007441D02*
X009040Y007441D01*
X009040Y007519D02*
X009240Y007519D01*
X009240Y007598D02*
X009040Y007598D01*
X009040Y007676D02*
X009240Y007676D01*
X009240Y007755D02*
X009040Y007755D01*
X009040Y007833D02*
X009240Y007833D01*
X009240Y007912D02*
X009040Y007912D01*
X009040Y007990D02*
X009240Y007990D01*
X009240Y008069D02*
X009040Y008069D01*
X009057Y008147D02*
X009223Y008147D01*
X009165Y008226D02*
X009115Y008226D01*
X009115Y008304D02*
X009165Y008304D01*
X009165Y008383D02*
X009115Y008383D01*
X009115Y008461D02*
X009165Y008461D01*
X009165Y008540D02*
X009115Y008540D01*
X009115Y008618D02*
X009165Y008618D01*
X009165Y008697D02*
X009115Y008697D01*
X009115Y008775D02*
X009165Y008775D01*
X009165Y008854D02*
X009115Y008854D01*
X009115Y008932D02*
X009165Y008932D01*
X009165Y009011D02*
X009115Y009011D01*
X009101Y009089D02*
X009179Y009089D01*
X009601Y009089D02*
X009679Y009089D01*
X009665Y009011D02*
X009615Y009011D01*
X009615Y008932D02*
X009665Y008932D01*
X009665Y008854D02*
X009615Y008854D01*
X009615Y008775D02*
X009665Y008775D01*
X009665Y008697D02*
X009615Y008697D01*
X009615Y008618D02*
X009665Y008618D01*
X009665Y008540D02*
X009615Y008540D01*
X009615Y008461D02*
X009665Y008461D01*
X009665Y008383D02*
X009615Y008383D01*
X009615Y008304D02*
X009665Y008304D01*
X009665Y008226D02*
X009615Y008226D01*
X009557Y008147D02*
X009723Y008147D01*
X009740Y008069D02*
X009540Y008069D01*
X009540Y007990D02*
X009740Y007990D01*
X009740Y007912D02*
X009540Y007912D01*
X009540Y007833D02*
X009740Y007833D01*
X009740Y007755D02*
X009540Y007755D01*
X009540Y007676D02*
X009740Y007676D01*
X009740Y007598D02*
X009540Y007598D01*
X009540Y007519D02*
X009740Y007519D01*
X009728Y007441D02*
X009540Y007441D01*
X009540Y007362D02*
X009650Y007362D01*
X009571Y007284D02*
X009496Y007284D01*
X009493Y007205D02*
X009417Y007205D01*
X009414Y007127D02*
X009339Y007127D01*
X009336Y007048D02*
X009260Y007048D01*
X009257Y006970D02*
X009182Y006970D01*
X009179Y006891D02*
X009103Y006891D01*
X009100Y006813D02*
X009040Y006813D01*
X009446Y006734D02*
X010240Y006734D01*
X010240Y006656D02*
X009368Y006656D01*
X009290Y006577D02*
X010240Y006577D01*
X010240Y006499D02*
X009290Y006499D01*
X009290Y006420D02*
X010240Y006420D01*
X010240Y006342D02*
X009290Y006342D01*
X009290Y006263D02*
X010240Y006263D01*
X010240Y006185D02*
X009290Y006185D01*
X009290Y006106D02*
X009535Y006106D01*
X009536Y006107D02*
X009423Y005994D01*
X009361Y005845D01*
X009361Y005685D01*
X009423Y005536D01*
X009536Y005423D01*
X009685Y005361D01*
X009845Y005361D01*
X009994Y005423D01*
X010107Y005536D01*
X010169Y005685D01*
X010169Y005845D01*
X010107Y005994D01*
X009994Y006107D01*
X009845Y006169D01*
X009685Y006169D01*
X009536Y006107D01*
X009457Y006028D02*
X009290Y006028D01*
X009290Y005949D02*
X009404Y005949D01*
X009372Y005871D02*
X009290Y005871D01*
X009290Y005792D02*
X009361Y005792D01*
X009361Y005714D02*
X009290Y005714D01*
X009290Y005635D02*
X009382Y005635D01*
X009414Y005557D02*
X009290Y005557D01*
X009290Y005478D02*
X009481Y005478D01*
X009592Y005400D02*
X009290Y005400D01*
X009290Y005321D02*
X010240Y005321D01*
X010240Y005243D02*
X009290Y005243D01*
X009371Y005164D02*
X010279Y005164D01*
X010357Y005086D02*
X009504Y005086D01*
X009583Y005007D02*
X010436Y005007D01*
X010490Y004929D02*
X009640Y004929D01*
X009673Y004850D02*
X010490Y004850D01*
X010490Y004772D02*
X009705Y004772D01*
X009712Y004693D02*
X010490Y004693D01*
X010490Y004615D02*
X009712Y004615D01*
X009712Y004536D02*
X010490Y004536D01*
X010490Y004458D02*
X009684Y004458D01*
X009651Y004379D02*
X010490Y004379D01*
X010490Y004301D02*
X009610Y004301D01*
X009532Y004222D02*
X010490Y004222D01*
X010490Y004144D02*
X009437Y004144D01*
X010790Y004144D02*
X011843Y004144D01*
X011748Y004222D02*
X010790Y004222D01*
X010790Y004301D02*
X011670Y004301D01*
X011628Y004379D02*
X010790Y004379D01*
X010790Y004458D02*
X011596Y004458D01*
X011568Y004536D02*
X010790Y004536D01*
X010790Y004615D02*
X011568Y004615D01*
X011568Y004693D02*
X010790Y004693D01*
X010790Y004772D02*
X011575Y004772D01*
X011607Y004850D02*
X010790Y004850D01*
X010790Y004929D02*
X011639Y004929D01*
X011578Y004990D02*
X011578Y004990D01*
X011561Y005007D02*
X010790Y005007D01*
X010782Y005086D02*
X011490Y005086D01*
X011490Y005164D02*
X010703Y005164D01*
X010625Y005243D02*
X011490Y005243D01*
X011490Y005321D02*
X010546Y005321D01*
X010540Y005400D02*
X010638Y005400D01*
X010550Y005478D02*
X010540Y005478D01*
X010240Y005478D02*
X010049Y005478D01*
X010116Y005557D02*
X010240Y005557D01*
X010240Y005635D02*
X010148Y005635D01*
X010169Y005714D02*
X010240Y005714D01*
X010240Y005792D02*
X010169Y005792D01*
X010158Y005871D02*
X010240Y005871D01*
X010240Y005949D02*
X010126Y005949D01*
X010073Y006028D02*
X010240Y006028D01*
X010240Y006106D02*
X009995Y006106D01*
X010540Y006106D02*
X010604Y006106D01*
X010540Y006185D02*
X010745Y006185D01*
X010850Y006185D02*
X010930Y006185D01*
X010930Y006208D02*
X010930Y005805D01*
X011333Y005805D01*
X011323Y005869D01*
X011301Y005935D01*
X011270Y005998D01*
X011228Y006054D01*
X011179Y006103D01*
X011123Y006145D01*
X011060Y006176D01*
X010994Y006198D01*
X010930Y006208D01*
X010930Y006106D02*
X010850Y006106D01*
X010850Y006028D02*
X010930Y006028D01*
X010930Y005949D02*
X010850Y005949D01*
X010850Y005871D02*
X010930Y005871D01*
X010930Y005792D02*
X011490Y005792D01*
X011490Y005714D02*
X011331Y005714D01*
X011333Y005725D02*
X010930Y005725D01*
X010930Y005322D01*
X010994Y005332D01*
X011060Y005354D01*
X011123Y005385D01*
X011179Y005427D01*
X011228Y005476D01*
X011270Y005532D01*
X011301Y005595D01*
X011323Y005661D01*
X011333Y005725D01*
X011314Y005635D02*
X011490Y005635D01*
X011490Y005557D02*
X011282Y005557D01*
X011230Y005478D02*
X011490Y005478D01*
X011490Y005400D02*
X011142Y005400D01*
X010930Y005400D02*
X010850Y005400D01*
X010850Y005478D02*
X010930Y005478D01*
X010930Y005557D02*
X010850Y005557D01*
X010850Y005635D02*
X010930Y005635D01*
X010930Y005714D02*
X010850Y005714D01*
X011322Y005871D02*
X011490Y005871D01*
X011490Y005949D02*
X011294Y005949D01*
X011248Y006028D02*
X011490Y006028D01*
X011490Y006106D02*
X011176Y006106D01*
X011035Y006185D02*
X011490Y006185D01*
X011490Y006263D02*
X010540Y006263D01*
X010540Y006342D02*
X011490Y006342D01*
X011490Y006420D02*
X010540Y006420D01*
X010540Y006499D02*
X011490Y006499D01*
X011490Y006577D02*
X010540Y006577D01*
X010540Y006656D02*
X011490Y006656D01*
X011490Y006734D02*
X010540Y006734D01*
X010540Y006813D02*
X011490Y006813D01*
X011490Y006891D02*
X010540Y006891D01*
X010540Y006970D02*
X011490Y006970D01*
X011490Y007048D02*
X010540Y007048D01*
X010540Y007127D02*
X011441Y007127D01*
X011363Y007205D02*
X010540Y007205D01*
X010540Y007284D02*
X011284Y007284D01*
X011206Y007362D02*
X010540Y007362D01*
X010540Y007441D02*
X011127Y007441D01*
X011049Y007519D02*
X010540Y007519D01*
X010540Y007598D02*
X010970Y007598D01*
X010708Y007676D02*
X010572Y007676D01*
X010637Y007755D02*
X010643Y007755D01*
X010208Y007676D02*
X010040Y007676D01*
X010040Y007598D02*
X010240Y007598D01*
X010240Y007519D02*
X010040Y007519D01*
X010040Y007441D02*
X010240Y007441D01*
X010240Y007362D02*
X010040Y007362D01*
X009996Y007284D02*
X010240Y007284D01*
X010240Y007205D02*
X009917Y007205D01*
X009839Y007127D02*
X010240Y007127D01*
X010240Y007048D02*
X009760Y007048D01*
X009682Y006970D02*
X010240Y006970D01*
X010240Y006891D02*
X009603Y006891D01*
X009525Y006813D02*
X010240Y006813D01*
X012130Y007362D02*
X012206Y007362D01*
X012209Y007284D02*
X012284Y007284D01*
X012287Y007205D02*
X012363Y007205D01*
X012366Y007127D02*
X012441Y007127D01*
X012444Y007048D02*
X012520Y007048D01*
X012523Y006970D02*
X012598Y006970D01*
X012601Y006891D02*
X012677Y006891D01*
X012680Y006813D02*
X012755Y006813D01*
X012758Y006734D02*
X012834Y006734D01*
X012837Y006656D02*
X012912Y006656D01*
X012915Y006577D02*
X012991Y006577D01*
X012994Y006499D02*
X013069Y006499D01*
X013072Y006420D02*
X013148Y006420D01*
X013151Y006342D02*
X013226Y006342D01*
X013229Y006263D02*
X013305Y006263D01*
X013308Y006185D02*
X013383Y006185D01*
X013386Y006106D02*
X013462Y006106D01*
X013465Y006028D02*
X013540Y006028D01*
X013543Y005949D02*
X013619Y005949D01*
X013622Y005871D02*
X013697Y005871D01*
X013700Y005792D02*
X013776Y005792D01*
X013779Y005714D02*
X013854Y005714D01*
X013790Y005635D02*
X013933Y005635D01*
X014011Y005557D02*
X013790Y005557D01*
X013790Y005478D02*
X014090Y005478D01*
X014168Y005400D02*
X013790Y005400D01*
X013790Y005321D02*
X014247Y005321D01*
X014325Y005243D02*
X013790Y005243D01*
X013790Y005164D02*
X014404Y005164D01*
X014482Y005086D02*
X013790Y005086D01*
X013790Y005007D02*
X014561Y005007D01*
X014639Y004929D02*
X013790Y004929D01*
X013790Y004850D02*
X014607Y004850D01*
X014575Y004772D02*
X013790Y004772D01*
X013790Y004693D02*
X014568Y004693D01*
X014568Y004615D02*
X013790Y004615D01*
X013790Y004536D02*
X014568Y004536D01*
X014596Y004458D02*
X013790Y004458D01*
X013790Y004379D02*
X014628Y004379D01*
X014670Y004301D02*
X013790Y004301D01*
X013790Y004222D02*
X014748Y004222D01*
X014843Y004144D02*
X013790Y004144D01*
X013790Y004065D02*
X016490Y004065D01*
X016490Y003987D02*
X013790Y003987D01*
X013790Y003908D02*
X016490Y003908D01*
X016490Y003830D02*
X013790Y003830D01*
X013790Y003751D02*
X016490Y003751D01*
X016490Y003673D02*
X013790Y003673D01*
X013790Y003594D02*
X016490Y003594D01*
X016490Y003516D02*
X013790Y003516D01*
X013790Y003437D02*
X016490Y003437D01*
X016490Y003359D02*
X013790Y003359D01*
X013790Y003280D02*
X016490Y003280D01*
X016490Y003202D02*
X013790Y003202D01*
X013790Y003123D02*
X016490Y003123D01*
X016490Y003045D02*
X013790Y003045D01*
X013790Y002966D02*
X016490Y002966D01*
X016490Y002888D02*
X013790Y002888D01*
X013790Y002809D02*
X016490Y002809D01*
X016490Y002731D02*
X013790Y002731D01*
X013790Y002652D02*
X016490Y002652D01*
X016490Y002574D02*
X013790Y002574D01*
X013790Y002495D02*
X016490Y002495D01*
X016490Y002417D02*
X013790Y002417D01*
X013790Y002338D02*
X016490Y002338D01*
X016490Y002260D02*
X013790Y002260D01*
X013830Y002181D02*
X016450Y002181D01*
X016293Y002103D02*
X013987Y002103D01*
X014066Y002024D02*
X016214Y002024D01*
X016147Y001946D02*
X014133Y001946D01*
X014166Y001867D02*
X016114Y001867D01*
X016082Y001789D02*
X014198Y001789D01*
X014212Y001710D02*
X016068Y001710D01*
X016068Y001632D02*
X014212Y001632D01*
X014212Y001553D02*
X016068Y001553D01*
X016089Y001475D02*
X014191Y001475D01*
X014159Y001396D02*
X016121Y001396D01*
X016154Y001318D02*
X014126Y001318D01*
X014049Y001239D02*
X016231Y001239D01*
X016310Y001161D02*
X013970Y001161D01*
X013789Y001082D02*
X016491Y001082D01*
X016789Y001082D02*
X019491Y001082D01*
X019310Y001161D02*
X016970Y001161D01*
X017049Y001239D02*
X019231Y001239D01*
X019154Y001318D02*
X017126Y001318D01*
X017159Y001396D02*
X019121Y001396D01*
X019089Y001475D02*
X017191Y001475D01*
X017212Y001553D02*
X019068Y001553D01*
X019068Y001632D02*
X017212Y001632D01*
X017212Y001710D02*
X019068Y001710D01*
X019082Y001789D02*
X017198Y001789D01*
X017166Y001867D02*
X019114Y001867D01*
X019147Y001946D02*
X017133Y001946D01*
X017066Y002024D02*
X019214Y002024D01*
X019293Y002103D02*
X016987Y002103D01*
X016830Y002181D02*
X019450Y002181D01*
X019490Y002260D02*
X016790Y002260D01*
X016790Y002338D02*
X019490Y002338D01*
X019490Y002417D02*
X016790Y002417D01*
X016790Y002495D02*
X019490Y002495D01*
X019490Y002574D02*
X016790Y002574D01*
X016790Y002652D02*
X019490Y002652D01*
X019490Y002731D02*
X016790Y002731D01*
X016790Y002809D02*
X019490Y002809D01*
X019490Y002888D02*
X016790Y002888D01*
X016790Y002966D02*
X019490Y002966D01*
X019490Y003045D02*
X016790Y003045D01*
X016790Y003123D02*
X019490Y003123D01*
X019490Y003202D02*
X016790Y003202D01*
X016790Y003280D02*
X019490Y003280D01*
X019490Y003359D02*
X016790Y003359D01*
X016790Y003437D02*
X019490Y003437D01*
X019490Y003516D02*
X016790Y003516D01*
X016790Y003594D02*
X019490Y003594D01*
X019490Y003673D02*
X016790Y003673D01*
X016790Y003751D02*
X019490Y003751D01*
X019490Y003830D02*
X016790Y003830D01*
X016790Y003908D02*
X019490Y003908D01*
X019490Y003987D02*
X016790Y003987D01*
X016790Y004065D02*
X019490Y004065D01*
X019490Y004144D02*
X018437Y004144D01*
X018532Y004222D02*
X019490Y004222D01*
X019490Y004301D02*
X018610Y004301D01*
X018651Y004379D02*
X019490Y004379D01*
X019490Y004458D02*
X018684Y004458D01*
X018712Y004536D02*
X019490Y004536D01*
X019490Y004615D02*
X018712Y004615D01*
X018712Y004693D02*
X019490Y004693D01*
X019490Y004772D02*
X018705Y004772D01*
X018673Y004850D02*
X019490Y004850D01*
X019490Y004929D02*
X018640Y004929D01*
X018583Y005007D02*
X019490Y005007D01*
X019490Y005086D02*
X018504Y005086D01*
X018371Y005164D02*
X019490Y005164D01*
X019490Y005243D02*
X018290Y005243D01*
X018290Y005321D02*
X019490Y005321D01*
X019490Y005400D02*
X018290Y005400D01*
X018290Y005478D02*
X019490Y005478D01*
X019490Y005557D02*
X018290Y005557D01*
X018290Y005635D02*
X019433Y005635D01*
X019354Y005714D02*
X018279Y005714D01*
X018200Y005792D02*
X019276Y005792D01*
X019197Y005871D02*
X018122Y005871D01*
X018043Y005949D02*
X019119Y005949D01*
X019040Y006028D02*
X017965Y006028D01*
X017886Y006106D02*
X018962Y006106D01*
X018883Y006185D02*
X017808Y006185D01*
X017729Y006263D02*
X018805Y006263D01*
X019915Y006577D02*
X024490Y006577D01*
X024490Y006540D02*
X024474Y006540D01*
X024240Y006306D01*
X024240Y005974D01*
X024474Y005740D01*
X024806Y005740D01*
X025040Y005974D01*
X025040Y006306D01*
X024806Y006540D01*
X024790Y006540D01*
X024790Y006828D01*
X025952Y007990D01*
X026040Y008078D01*
X026040Y008146D01*
X026056Y008146D01*
X026115Y008205D01*
X026115Y009075D01*
X026056Y009134D01*
X025724Y009134D01*
X025665Y009075D01*
X025665Y008205D01*
X025704Y008166D01*
X024490Y006952D01*
X024490Y006540D01*
X024433Y006499D02*
X023620Y006499D01*
X023667Y006479D02*
X023520Y006540D01*
X022760Y006540D01*
X022613Y006479D01*
X022501Y006367D01*
X022440Y006220D01*
X022440Y006060D01*
X022501Y005913D01*
X022613Y005801D01*
X022760Y005740D01*
X023520Y005740D01*
X023667Y005801D01*
X023779Y005913D01*
X023840Y006060D01*
X023840Y006220D01*
X023779Y006367D01*
X023667Y006479D01*
X023726Y006420D02*
X024354Y006420D01*
X024276Y006342D02*
X023789Y006342D01*
X023822Y006263D02*
X024240Y006263D01*
X024240Y006185D02*
X023840Y006185D01*
X023840Y006106D02*
X024240Y006106D01*
X024240Y006028D02*
X023826Y006028D01*
X023794Y005949D02*
X024265Y005949D01*
X024344Y005871D02*
X023736Y005871D01*
X023645Y005792D02*
X024422Y005792D01*
X024858Y005792D02*
X025422Y005792D01*
X025474Y005740D02*
X025806Y005740D01*
X026040Y005974D01*
X026040Y006306D01*
X025806Y006540D01*
X025790Y006540D01*
X025790Y007328D01*
X026452Y007990D01*
X026540Y008078D01*
X026540Y008146D01*
X026556Y008146D01*
X026615Y008205D01*
X026615Y009075D01*
X026556Y009134D01*
X026224Y009134D01*
X026165Y009075D01*
X026165Y008205D01*
X026204Y008166D01*
X025490Y007452D01*
X025490Y006540D01*
X025474Y006540D01*
X025240Y006306D01*
X025240Y005974D01*
X025474Y005740D01*
X025858Y005792D02*
X026422Y005792D01*
X026474Y005740D02*
X026806Y005740D01*
X027040Y005974D01*
X027040Y006306D01*
X026806Y006540D01*
X026790Y006540D01*
X026790Y007828D01*
X026952Y007990D01*
X027040Y008078D01*
X027040Y008146D01*
X027056Y008146D01*
X027115Y008205D01*
X027115Y009075D01*
X027056Y009134D01*
X026724Y009134D01*
X026665Y009075D01*
X026665Y008205D01*
X026704Y008166D01*
X026490Y007952D01*
X026490Y006540D01*
X026474Y006540D01*
X026240Y006306D01*
X026240Y005974D01*
X026474Y005740D01*
X026858Y005792D02*
X027422Y005792D01*
X027474Y005740D02*
X027806Y005740D01*
X028040Y005974D01*
X028040Y006306D01*
X027806Y006540D01*
X027790Y006540D01*
X027790Y007952D01*
X027576Y008166D01*
X027615Y008205D01*
X027615Y009075D01*
X027556Y009134D01*
X027224Y009134D01*
X027165Y009075D01*
X027165Y008205D01*
X027224Y008146D01*
X027240Y008146D01*
X027240Y008078D01*
X027328Y007990D01*
X027490Y007828D01*
X027490Y006540D01*
X027474Y006540D01*
X027240Y006306D01*
X027240Y005974D01*
X027474Y005740D01*
X027858Y005792D02*
X028422Y005792D01*
X028474Y005740D02*
X028806Y005740D01*
X029040Y005974D01*
X029040Y006306D01*
X028806Y006540D01*
X028790Y006540D01*
X028790Y007452D01*
X028076Y008166D01*
X028115Y008205D01*
X028115Y009075D01*
X028056Y009134D01*
X027724Y009134D01*
X027665Y009075D01*
X027665Y008205D01*
X027724Y008146D01*
X027740Y008146D01*
X027740Y008078D01*
X027828Y007990D01*
X028490Y007328D01*
X028490Y006540D01*
X028474Y006540D01*
X028240Y006306D01*
X028240Y005974D01*
X028474Y005740D01*
X028858Y005792D02*
X029422Y005792D01*
X029474Y005740D02*
X029806Y005740D01*
X030040Y005974D01*
X030040Y006306D01*
X029806Y006540D01*
X029790Y006540D01*
X029790Y006952D01*
X028576Y008166D01*
X028615Y008205D01*
X028615Y009075D01*
X028556Y009134D01*
X028224Y009134D01*
X028165Y009075D01*
X028165Y008205D01*
X028224Y008146D01*
X028240Y008146D01*
X028240Y008078D01*
X028328Y007990D01*
X029490Y006828D01*
X029490Y006540D01*
X029474Y006540D01*
X029240Y006306D01*
X029240Y005974D01*
X029474Y005740D01*
X029858Y005792D02*
X031569Y005792D01*
X031647Y005871D02*
X029936Y005871D01*
X030015Y005949D02*
X031833Y005949D01*
X031490Y005714D02*
X020779Y005714D01*
X020700Y005792D02*
X022635Y005792D01*
X022544Y005871D02*
X020622Y005871D01*
X020543Y005949D02*
X022486Y005949D01*
X022454Y006028D02*
X020465Y006028D01*
X020386Y006106D02*
X022440Y006106D01*
X022440Y006185D02*
X020308Y006185D01*
X020229Y006263D02*
X022458Y006263D01*
X022491Y006342D02*
X020151Y006342D01*
X020072Y006420D02*
X022554Y006420D01*
X022660Y006499D02*
X019994Y006499D01*
X019837Y006656D02*
X024490Y006656D01*
X024490Y006734D02*
X019758Y006734D01*
X019680Y006813D02*
X024490Y006813D01*
X024490Y006891D02*
X019601Y006891D01*
X019523Y006970D02*
X024507Y006970D01*
X024586Y007048D02*
X019444Y007048D01*
X019366Y007127D02*
X024664Y007127D01*
X024743Y007205D02*
X019287Y007205D01*
X019209Y007284D02*
X024821Y007284D01*
X024900Y007362D02*
X014630Y007362D01*
X014552Y007441D02*
X024978Y007441D01*
X025057Y007519D02*
X014473Y007519D01*
X014395Y007598D02*
X025135Y007598D01*
X025214Y007676D02*
X014316Y007676D01*
X014238Y007755D02*
X025292Y007755D01*
X025371Y007833D02*
X014159Y007833D01*
X014081Y007912D02*
X025449Y007912D01*
X025528Y007990D02*
X014040Y007990D01*
X014040Y008069D02*
X025606Y008069D01*
X025685Y008147D02*
X014057Y008147D01*
X014115Y008226D02*
X025665Y008226D01*
X025665Y008304D02*
X014115Y008304D01*
X014115Y008383D02*
X025665Y008383D01*
X025665Y008461D02*
X014115Y008461D01*
X014115Y008540D02*
X025665Y008540D01*
X025665Y008618D02*
X014115Y008618D01*
X014115Y008697D02*
X025665Y008697D01*
X025665Y008775D02*
X014115Y008775D01*
X014115Y008854D02*
X025665Y008854D01*
X025665Y008932D02*
X014115Y008932D01*
X014115Y009011D02*
X025665Y009011D01*
X025679Y009089D02*
X014101Y009089D01*
X010679Y009089D02*
X010601Y009089D01*
X010615Y009011D02*
X010665Y009011D01*
X010665Y008932D02*
X010615Y008932D01*
X010615Y008854D02*
X010665Y008854D01*
X010665Y008775D02*
X010615Y008775D01*
X010615Y008697D02*
X010665Y008697D01*
X010665Y008618D02*
X010615Y008618D01*
X010615Y008540D02*
X010665Y008540D01*
X010665Y008461D02*
X010615Y008461D01*
X010615Y008383D02*
X010665Y008383D01*
X010665Y008304D02*
X010615Y008304D01*
X010615Y008226D02*
X010665Y008226D01*
X010723Y008147D02*
X010570Y008147D01*
X010607Y008069D02*
X010673Y008069D01*
X010210Y008147D02*
X010057Y008147D01*
X010040Y008069D02*
X010173Y008069D01*
X010128Y007990D02*
X010040Y007990D01*
X010040Y007912D02*
X010110Y007912D01*
X010111Y007833D02*
X010040Y007833D01*
X010040Y007755D02*
X010143Y007755D01*
X011816Y007676D02*
X011892Y007676D01*
X011895Y007598D02*
X011970Y007598D01*
X011973Y007519D02*
X012049Y007519D01*
X012052Y007441D02*
X012127Y007441D01*
X012395Y007598D02*
X012470Y007598D01*
X012473Y007519D02*
X012549Y007519D01*
X012552Y007441D02*
X012627Y007441D01*
X012630Y007362D02*
X012706Y007362D01*
X012709Y007284D02*
X012784Y007284D01*
X012787Y007205D02*
X012863Y007205D01*
X012866Y007127D02*
X012941Y007127D01*
X012944Y007048D02*
X013020Y007048D01*
X013023Y006970D02*
X013098Y006970D01*
X013101Y006891D02*
X013177Y006891D01*
X013180Y006813D02*
X013255Y006813D01*
X013258Y006734D02*
X013334Y006734D01*
X013337Y006656D02*
X013412Y006656D01*
X013415Y006577D02*
X013491Y006577D01*
X013494Y006499D02*
X013569Y006499D01*
X013572Y006420D02*
X013648Y006420D01*
X013651Y006342D02*
X013726Y006342D01*
X013729Y006263D02*
X013805Y006263D01*
X013808Y006185D02*
X013883Y006185D01*
X013886Y006106D02*
X013962Y006106D01*
X013965Y006028D02*
X014040Y006028D01*
X014043Y005949D02*
X014119Y005949D01*
X014122Y005871D02*
X014197Y005871D01*
X014200Y005792D02*
X014276Y005792D01*
X014279Y005714D02*
X014354Y005714D01*
X014357Y005635D02*
X014433Y005635D01*
X014436Y005557D02*
X014511Y005557D01*
X014514Y005478D02*
X016090Y005478D01*
X016168Y005400D02*
X014593Y005400D01*
X014671Y005321D02*
X016247Y005321D01*
X016325Y005243D02*
X014750Y005243D01*
X014828Y005164D02*
X014909Y005164D01*
X015371Y005164D02*
X016404Y005164D01*
X016482Y005086D02*
X015504Y005086D01*
X015583Y005007D02*
X016490Y005007D01*
X016490Y004929D02*
X015640Y004929D01*
X015673Y004850D02*
X016490Y004850D01*
X016490Y004772D02*
X015705Y004772D01*
X015712Y004693D02*
X016490Y004693D01*
X016490Y004615D02*
X015712Y004615D01*
X015712Y004536D02*
X016490Y004536D01*
X016490Y004458D02*
X015684Y004458D01*
X015651Y004379D02*
X016490Y004379D01*
X016490Y004301D02*
X015610Y004301D01*
X015532Y004222D02*
X016490Y004222D01*
X016490Y004144D02*
X015437Y004144D01*
X016790Y004144D02*
X017843Y004144D01*
X017748Y004222D02*
X016790Y004222D01*
X016790Y004301D02*
X017670Y004301D01*
X017628Y004379D02*
X016790Y004379D01*
X016790Y004458D02*
X017596Y004458D01*
X017568Y004536D02*
X016790Y004536D01*
X016790Y004615D02*
X017568Y004615D01*
X017568Y004693D02*
X016790Y004693D01*
X016790Y004772D02*
X017575Y004772D01*
X017607Y004850D02*
X016790Y004850D01*
X016790Y004929D02*
X017640Y004929D01*
X017697Y005007D02*
X016790Y005007D01*
X016790Y005086D02*
X017776Y005086D01*
X017909Y005164D02*
X016790Y005164D01*
X016750Y005243D02*
X017990Y005243D01*
X017990Y005321D02*
X016671Y005321D01*
X016593Y005400D02*
X017990Y005400D01*
X017990Y005478D02*
X016514Y005478D01*
X016436Y005557D02*
X017990Y005557D01*
X017933Y005635D02*
X016357Y005635D01*
X016279Y005714D02*
X017854Y005714D01*
X017776Y005792D02*
X014700Y005792D01*
X014622Y005871D02*
X017697Y005871D01*
X017619Y005949D02*
X014543Y005949D01*
X014540Y006028D02*
X014465Y006028D01*
X014462Y006106D02*
X014386Y006106D01*
X014680Y006813D02*
X019255Y006813D01*
X019177Y006891D02*
X014601Y006891D01*
X012160Y006106D02*
X011790Y006106D01*
X011790Y006028D02*
X012082Y006028D01*
X012029Y005949D02*
X011790Y005949D01*
X011790Y005871D02*
X011997Y005871D01*
X011986Y005792D02*
X011790Y005792D01*
X011790Y005714D02*
X011986Y005714D01*
X012007Y005635D02*
X011790Y005635D01*
X011790Y005557D02*
X012039Y005557D01*
X012106Y005478D02*
X011790Y005478D01*
X011790Y005400D02*
X012217Y005400D01*
X011909Y005164D02*
X011828Y005164D01*
X010240Y005400D02*
X009938Y005400D01*
X008740Y005478D02*
X008674Y005478D01*
X008687Y005400D02*
X008563Y005400D01*
X008698Y006028D02*
X008740Y006028D01*
X008740Y006106D02*
X008620Y006106D01*
X005373Y005086D02*
X003504Y005086D01*
X003583Y005007D02*
X005295Y005007D01*
X005216Y004929D02*
X003640Y004929D01*
X003673Y004850D02*
X005138Y004850D01*
X005059Y004772D02*
X003705Y004772D01*
X003712Y004693D02*
X004981Y004693D01*
X004902Y004615D02*
X003712Y004615D01*
X003712Y004536D02*
X004824Y004536D01*
X004745Y004458D02*
X003684Y004458D01*
X003651Y004379D02*
X004667Y004379D01*
X004588Y004301D02*
X003610Y004301D01*
X003532Y004222D02*
X004510Y004222D01*
X004490Y004144D02*
X003437Y004144D01*
X002670Y004301D02*
X001374Y004301D01*
X004856Y004144D02*
X005843Y004144D01*
X005748Y004222D02*
X004934Y004222D01*
X005013Y004301D02*
X005670Y004301D01*
X005628Y004379D02*
X005091Y004379D01*
X005170Y004458D02*
X005596Y004458D01*
X005568Y004536D02*
X005248Y004536D01*
X005327Y004615D02*
X005568Y004615D01*
X005568Y004693D02*
X005405Y004693D01*
X005484Y004772D02*
X005575Y004772D01*
X005562Y004850D02*
X005607Y004850D01*
X000833Y005949D02*
X000380Y005949D01*
X000380Y005871D02*
X000647Y005871D01*
X000569Y005792D02*
X000380Y005792D01*
X000380Y005714D02*
X000490Y005714D01*
X000412Y005635D02*
X000380Y005635D01*
X010115Y008226D02*
X010165Y008226D01*
X010165Y008304D02*
X010115Y008304D01*
X010115Y008383D02*
X010165Y008383D01*
X010165Y008461D02*
X010115Y008461D01*
X010115Y008540D02*
X010165Y008540D01*
X010165Y008618D02*
X010115Y008618D01*
X010115Y008697D02*
X010165Y008697D01*
X010165Y008775D02*
X010115Y008775D01*
X010115Y008854D02*
X010165Y008854D01*
X010165Y008932D02*
X010115Y008932D01*
X010115Y009011D02*
X010165Y009011D01*
X010179Y009089D02*
X010101Y009089D01*
X002708Y009874D02*
X030572Y009874D01*
X030892Y009796D02*
X002388Y009796D01*
X002199Y009717D02*
X031081Y009717D01*
X031222Y009639D02*
X002058Y009639D01*
X001941Y009560D02*
X031339Y009560D01*
X031449Y009482D02*
X001831Y009482D01*
X001744Y009403D02*
X031536Y009403D01*
X031616Y009325D02*
X001664Y009325D01*
X001585Y009246D02*
X031695Y009246D01*
X031773Y009168D02*
X001507Y009168D01*
X020857Y005635D02*
X031412Y005635D01*
X031376Y005557D02*
X020936Y005557D01*
X021014Y005478D02*
X022612Y005478D01*
X022613Y005479D02*
X022501Y005367D01*
X022440Y005220D01*
X022440Y005060D01*
X022501Y004913D01*
X022613Y004801D01*
X022760Y004740D01*
X023520Y004740D01*
X023667Y004801D01*
X023779Y004913D01*
X023840Y005060D01*
X023840Y005220D01*
X023779Y005367D01*
X023667Y005479D01*
X023520Y005540D01*
X022760Y005540D01*
X022613Y005479D01*
X022534Y005400D02*
X021093Y005400D01*
X021171Y005321D02*
X022482Y005321D01*
X022450Y005243D02*
X021250Y005243D01*
X021371Y005164D02*
X022440Y005164D01*
X022440Y005086D02*
X021504Y005086D01*
X021583Y005007D02*
X022462Y005007D01*
X022495Y004929D02*
X021640Y004929D01*
X021673Y004850D02*
X022564Y004850D01*
X022684Y004772D02*
X021705Y004772D01*
X021712Y004693D02*
X024490Y004693D01*
X024490Y004615D02*
X021712Y004615D01*
X021712Y004536D02*
X024490Y004536D01*
X024490Y004458D02*
X021684Y004458D01*
X021651Y004379D02*
X024490Y004379D01*
X024490Y004301D02*
X021610Y004301D01*
X021532Y004222D02*
X024490Y004222D01*
X024490Y004144D02*
X021437Y004144D01*
X023596Y004772D02*
X024443Y004772D01*
X024364Y004850D02*
X023716Y004850D01*
X023785Y004929D02*
X024286Y004929D01*
X024240Y005007D02*
X023818Y005007D01*
X023840Y005086D02*
X024240Y005086D01*
X024240Y005164D02*
X023840Y005164D01*
X023830Y005243D02*
X024240Y005243D01*
X024255Y005321D02*
X023798Y005321D01*
X023746Y005400D02*
X024334Y005400D01*
X024412Y005478D02*
X023668Y005478D01*
X024868Y005478D02*
X025412Y005478D01*
X025334Y005400D02*
X024946Y005400D01*
X025025Y005321D02*
X025255Y005321D01*
X025240Y005243D02*
X025040Y005243D01*
X025040Y005164D02*
X025240Y005164D01*
X025240Y005086D02*
X025040Y005086D01*
X025040Y005007D02*
X025240Y005007D01*
X025286Y004929D02*
X024994Y004929D01*
X024916Y004850D02*
X025364Y004850D01*
X025443Y004772D02*
X024837Y004772D01*
X024790Y004693D02*
X025490Y004693D01*
X025490Y004615D02*
X024790Y004615D01*
X024790Y004536D02*
X025490Y004536D01*
X025490Y004458D02*
X024790Y004458D01*
X024790Y004379D02*
X025490Y004379D01*
X025490Y004301D02*
X024790Y004301D01*
X024790Y004222D02*
X025490Y004222D01*
X025490Y004144D02*
X024790Y004144D01*
X024790Y004065D02*
X025490Y004065D01*
X025490Y003987D02*
X024790Y003987D01*
X024790Y003908D02*
X025490Y003908D01*
X025490Y003830D02*
X024790Y003830D01*
X024790Y003751D02*
X025490Y003751D01*
X025490Y003673D02*
X024790Y003673D01*
X024790Y003594D02*
X025490Y003594D01*
X025490Y003516D02*
X024790Y003516D01*
X024790Y003437D02*
X025490Y003437D01*
X025490Y003359D02*
X024790Y003359D01*
X024790Y003280D02*
X025490Y003280D01*
X025490Y003202D02*
X024790Y003202D01*
X024790Y003123D02*
X025490Y003123D01*
X025490Y003045D02*
X024790Y003045D01*
X024790Y002966D02*
X024907Y002966D01*
X024829Y002888D02*
X024790Y002888D01*
X024490Y002888D02*
X024451Y002888D01*
X024490Y002966D02*
X024373Y002966D01*
X025373Y002966D02*
X025490Y002966D01*
X025490Y002888D02*
X025451Y002888D01*
X025790Y002888D02*
X025829Y002888D01*
X025790Y002966D02*
X025907Y002966D01*
X025790Y003045D02*
X026490Y003045D01*
X026490Y003123D02*
X025790Y003123D01*
X025790Y003202D02*
X026490Y003202D01*
X026490Y003280D02*
X025790Y003280D01*
X025790Y003359D02*
X026490Y003359D01*
X026490Y003437D02*
X025790Y003437D01*
X025790Y003516D02*
X026490Y003516D01*
X026490Y003594D02*
X025790Y003594D01*
X025790Y003673D02*
X026490Y003673D01*
X026490Y003751D02*
X025790Y003751D01*
X025790Y003830D02*
X026490Y003830D01*
X026490Y003908D02*
X025790Y003908D01*
X025790Y003987D02*
X026490Y003987D01*
X026490Y004065D02*
X025790Y004065D01*
X025790Y004144D02*
X026490Y004144D01*
X026490Y004222D02*
X025790Y004222D01*
X025790Y004301D02*
X026490Y004301D01*
X026490Y004379D02*
X025790Y004379D01*
X025790Y004458D02*
X026490Y004458D01*
X026490Y004536D02*
X025790Y004536D01*
X025790Y004615D02*
X026490Y004615D01*
X026490Y004693D02*
X025790Y004693D01*
X025837Y004772D02*
X026443Y004772D01*
X026364Y004850D02*
X025916Y004850D01*
X025994Y004929D02*
X026286Y004929D01*
X026240Y005007D02*
X026040Y005007D01*
X026040Y005086D02*
X026240Y005086D01*
X026240Y005164D02*
X026040Y005164D01*
X026040Y005243D02*
X026240Y005243D01*
X026255Y005321D02*
X026025Y005321D01*
X025946Y005400D02*
X026334Y005400D01*
X026412Y005478D02*
X025868Y005478D01*
X026868Y005478D02*
X027412Y005478D01*
X027334Y005400D02*
X026946Y005400D01*
X027025Y005321D02*
X027255Y005321D01*
X027240Y005243D02*
X027040Y005243D01*
X027040Y005164D02*
X027240Y005164D01*
X027240Y005086D02*
X027040Y005086D01*
X027040Y005007D02*
X027240Y005007D01*
X027286Y004929D02*
X026994Y004929D01*
X026916Y004850D02*
X027364Y004850D01*
X027443Y004772D02*
X026837Y004772D01*
X026790Y004693D02*
X027490Y004693D01*
X027490Y004615D02*
X026790Y004615D01*
X026790Y004536D02*
X027490Y004536D01*
X027490Y004458D02*
X026790Y004458D01*
X026790Y004379D02*
X027490Y004379D01*
X027490Y004301D02*
X026790Y004301D01*
X026790Y004222D02*
X027490Y004222D01*
X027490Y004144D02*
X026790Y004144D01*
X026790Y004065D02*
X027490Y004065D01*
X027490Y003987D02*
X026790Y003987D01*
X026790Y003908D02*
X027490Y003908D01*
X027490Y003830D02*
X026790Y003830D01*
X026790Y003751D02*
X027490Y003751D01*
X027490Y003673D02*
X026790Y003673D01*
X026790Y003594D02*
X027490Y003594D01*
X027490Y003516D02*
X026790Y003516D01*
X026790Y003437D02*
X027490Y003437D01*
X027490Y003359D02*
X026790Y003359D01*
X026790Y003280D02*
X027490Y003280D01*
X027490Y003202D02*
X026790Y003202D01*
X026790Y003123D02*
X027490Y003123D01*
X027490Y003045D02*
X026790Y003045D01*
X026790Y002966D02*
X026907Y002966D01*
X026829Y002888D02*
X026790Y002888D01*
X026490Y002888D02*
X026451Y002888D01*
X026490Y002966D02*
X026373Y002966D01*
X027373Y002966D02*
X027490Y002966D01*
X027490Y002888D02*
X027451Y002888D01*
X027790Y002888D02*
X027829Y002888D01*
X027790Y002966D02*
X027907Y002966D01*
X027790Y003045D02*
X028490Y003045D01*
X028490Y003123D02*
X027790Y003123D01*
X027790Y003202D02*
X028490Y003202D01*
X028490Y003280D02*
X027790Y003280D01*
X027790Y003359D02*
X028490Y003359D01*
X028490Y003437D02*
X027790Y003437D01*
X027790Y003516D02*
X028490Y003516D01*
X028490Y003594D02*
X027790Y003594D01*
X027790Y003673D02*
X028490Y003673D01*
X028490Y003751D02*
X027790Y003751D01*
X027790Y003830D02*
X028490Y003830D01*
X028490Y003908D02*
X027790Y003908D01*
X027790Y003987D02*
X028490Y003987D01*
X028490Y004065D02*
X027790Y004065D01*
X027790Y004144D02*
X028490Y004144D01*
X028490Y004222D02*
X027790Y004222D01*
X027790Y004301D02*
X028490Y004301D01*
X028490Y004379D02*
X027790Y004379D01*
X027790Y004458D02*
X028490Y004458D01*
X028490Y004536D02*
X027790Y004536D01*
X027790Y004615D02*
X028490Y004615D01*
X028490Y004693D02*
X027790Y004693D01*
X027837Y004772D02*
X028443Y004772D01*
X028364Y004850D02*
X027916Y004850D01*
X027994Y004929D02*
X028286Y004929D01*
X028240Y005007D02*
X028040Y005007D01*
X028040Y005086D02*
X028240Y005086D01*
X028240Y005164D02*
X028040Y005164D01*
X028040Y005243D02*
X028240Y005243D01*
X028255Y005321D02*
X028025Y005321D01*
X027946Y005400D02*
X028334Y005400D01*
X028412Y005478D02*
X027868Y005478D01*
X028868Y005478D02*
X029412Y005478D01*
X029474Y005540D02*
X029240Y005306D01*
X029240Y004974D01*
X029474Y004740D01*
X029806Y004740D01*
X030040Y004974D01*
X030040Y005306D01*
X029806Y005540D01*
X029474Y005540D01*
X029334Y005400D02*
X028946Y005400D01*
X029025Y005321D02*
X029255Y005321D01*
X029240Y005243D02*
X029040Y005243D01*
X029040Y005164D02*
X029240Y005164D01*
X029240Y005086D02*
X029040Y005086D01*
X029040Y005007D02*
X029240Y005007D01*
X029286Y004929D02*
X028994Y004929D01*
X028916Y004850D02*
X029364Y004850D01*
X029443Y004772D02*
X028837Y004772D01*
X028790Y004693D02*
X031389Y004693D01*
X031356Y004772D02*
X029837Y004772D01*
X029916Y004850D02*
X031324Y004850D01*
X031291Y004929D02*
X029994Y004929D01*
X030040Y005007D02*
X031275Y005007D01*
X031275Y005086D02*
X030040Y005086D01*
X030040Y005164D02*
X031275Y005164D01*
X031275Y005243D02*
X030040Y005243D01*
X030025Y005321D02*
X031279Y005321D01*
X031311Y005400D02*
X029946Y005400D01*
X029868Y005478D02*
X031344Y005478D01*
X032447Y005949D02*
X032900Y005949D01*
X032900Y005871D02*
X032633Y005871D01*
X032711Y005792D02*
X032900Y005792D01*
X032900Y005714D02*
X032790Y005714D01*
X032868Y005635D02*
X032900Y005635D01*
X032900Y006028D02*
X030040Y006028D01*
X030040Y006106D02*
X032900Y006106D01*
X032900Y006185D02*
X030040Y006185D01*
X030040Y006263D02*
X032900Y006263D01*
X032900Y006342D02*
X030004Y006342D01*
X029926Y006420D02*
X032900Y006420D01*
X032900Y006499D02*
X029847Y006499D01*
X029790Y006577D02*
X032900Y006577D01*
X032900Y006656D02*
X029790Y006656D01*
X029790Y006734D02*
X032900Y006734D01*
X032900Y006813D02*
X029790Y006813D01*
X029790Y006891D02*
X032900Y006891D01*
X032900Y006970D02*
X029773Y006970D01*
X029694Y007048D02*
X032900Y007048D01*
X032900Y007127D02*
X029616Y007127D01*
X029537Y007205D02*
X032900Y007205D01*
X032900Y007284D02*
X029459Y007284D01*
X029380Y007362D02*
X032897Y007362D01*
X032892Y007441D02*
X029302Y007441D01*
X029223Y007519D02*
X032886Y007519D01*
X032870Y007598D02*
X029145Y007598D01*
X029066Y007676D02*
X032849Y007676D01*
X032828Y007755D02*
X028988Y007755D01*
X028909Y007833D02*
X032807Y007833D01*
X032786Y007912D02*
X028831Y007912D01*
X028752Y007990D02*
X032763Y007990D01*
X032718Y008069D02*
X028674Y008069D01*
X028595Y008147D02*
X032673Y008147D01*
X032627Y008226D02*
X028615Y008226D01*
X028615Y008304D02*
X032582Y008304D01*
X032537Y008383D02*
X028615Y008383D01*
X028615Y008461D02*
X032468Y008461D01*
X032399Y008540D02*
X028615Y008540D01*
X028615Y008618D02*
X032323Y008618D01*
X032244Y008697D02*
X028615Y008697D01*
X028615Y008775D02*
X032166Y008775D01*
X032087Y008854D02*
X028615Y008854D01*
X028615Y008932D02*
X032009Y008932D01*
X031930Y009011D02*
X028615Y009011D01*
X028601Y009089D02*
X031852Y009089D01*
X028179Y009089D02*
X028101Y009089D01*
X028115Y009011D02*
X028165Y009011D01*
X028165Y008932D02*
X028115Y008932D01*
X028115Y008854D02*
X028165Y008854D01*
X028165Y008775D02*
X028115Y008775D01*
X028115Y008697D02*
X028165Y008697D01*
X028165Y008618D02*
X028115Y008618D01*
X028115Y008540D02*
X028165Y008540D01*
X028165Y008461D02*
X028115Y008461D01*
X028115Y008383D02*
X028165Y008383D01*
X028165Y008304D02*
X028115Y008304D01*
X028115Y008226D02*
X028165Y008226D01*
X028223Y008147D02*
X028095Y008147D01*
X028174Y008069D02*
X028249Y008069D01*
X028252Y007990D02*
X028328Y007990D01*
X028331Y007912D02*
X028406Y007912D01*
X028409Y007833D02*
X028485Y007833D01*
X028488Y007755D02*
X028563Y007755D01*
X028566Y007676D02*
X028642Y007676D01*
X028645Y007598D02*
X028720Y007598D01*
X028723Y007519D02*
X028799Y007519D01*
X028790Y007441D02*
X028877Y007441D01*
X028956Y007362D02*
X028790Y007362D01*
X028790Y007284D02*
X029034Y007284D01*
X029113Y007205D02*
X028790Y007205D01*
X028790Y007127D02*
X029191Y007127D01*
X029270Y007048D02*
X028790Y007048D01*
X028790Y006970D02*
X029348Y006970D01*
X029427Y006891D02*
X028790Y006891D01*
X028790Y006813D02*
X029490Y006813D01*
X029490Y006734D02*
X028790Y006734D01*
X028790Y006656D02*
X029490Y006656D01*
X029490Y006577D02*
X028790Y006577D01*
X028847Y006499D02*
X029433Y006499D01*
X029354Y006420D02*
X028926Y006420D01*
X029004Y006342D02*
X029276Y006342D01*
X029240Y006263D02*
X029040Y006263D01*
X029040Y006185D02*
X029240Y006185D01*
X029240Y006106D02*
X029040Y006106D01*
X029040Y006028D02*
X029240Y006028D01*
X029265Y005949D02*
X029015Y005949D01*
X028936Y005871D02*
X029344Y005871D01*
X028344Y005871D02*
X027936Y005871D01*
X028015Y005949D02*
X028265Y005949D01*
X028240Y006028D02*
X028040Y006028D01*
X028040Y006106D02*
X028240Y006106D01*
X028240Y006185D02*
X028040Y006185D01*
X028040Y006263D02*
X028240Y006263D01*
X028276Y006342D02*
X028004Y006342D01*
X027926Y006420D02*
X028354Y006420D01*
X028433Y006499D02*
X027847Y006499D01*
X027790Y006577D02*
X028490Y006577D01*
X028490Y006656D02*
X027790Y006656D01*
X027790Y006734D02*
X028490Y006734D01*
X028490Y006813D02*
X027790Y006813D01*
X027790Y006891D02*
X028490Y006891D01*
X028490Y006970D02*
X027790Y006970D01*
X027790Y007048D02*
X028490Y007048D01*
X028490Y007127D02*
X027790Y007127D01*
X027790Y007205D02*
X028490Y007205D01*
X028490Y007284D02*
X027790Y007284D01*
X027790Y007362D02*
X028456Y007362D01*
X028377Y007441D02*
X027790Y007441D01*
X027790Y007519D02*
X028299Y007519D01*
X028220Y007598D02*
X027790Y007598D01*
X027790Y007676D02*
X028142Y007676D01*
X028063Y007755D02*
X027790Y007755D01*
X027790Y007833D02*
X027985Y007833D01*
X027906Y007912D02*
X027790Y007912D01*
X027752Y007990D02*
X027828Y007990D01*
X027749Y008069D02*
X027674Y008069D01*
X027723Y008147D02*
X027595Y008147D01*
X027615Y008226D02*
X027665Y008226D01*
X027665Y008304D02*
X027615Y008304D01*
X027615Y008383D02*
X027665Y008383D01*
X027665Y008461D02*
X027615Y008461D01*
X027615Y008540D02*
X027665Y008540D01*
X027665Y008618D02*
X027615Y008618D01*
X027615Y008697D02*
X027665Y008697D01*
X027665Y008775D02*
X027615Y008775D01*
X027615Y008854D02*
X027665Y008854D01*
X027665Y008932D02*
X027615Y008932D01*
X027615Y009011D02*
X027665Y009011D01*
X027679Y009089D02*
X027601Y009089D01*
X027179Y009089D02*
X027101Y009089D01*
X027115Y009011D02*
X027165Y009011D01*
X027165Y008932D02*
X027115Y008932D01*
X027115Y008854D02*
X027165Y008854D01*
X027165Y008775D02*
X027115Y008775D01*
X027115Y008697D02*
X027165Y008697D01*
X027165Y008618D02*
X027115Y008618D01*
X027115Y008540D02*
X027165Y008540D01*
X027165Y008461D02*
X027115Y008461D01*
X027115Y008383D02*
X027165Y008383D01*
X027165Y008304D02*
X027115Y008304D01*
X027115Y008226D02*
X027165Y008226D01*
X027223Y008147D02*
X027057Y008147D01*
X027031Y008069D02*
X027249Y008069D01*
X027328Y007990D02*
X026952Y007990D01*
X026874Y007912D02*
X027406Y007912D01*
X027485Y007833D02*
X026795Y007833D01*
X026790Y007755D02*
X027490Y007755D01*
X027490Y007676D02*
X026790Y007676D01*
X026790Y007598D02*
X027490Y007598D01*
X027490Y007519D02*
X026790Y007519D01*
X026790Y007441D02*
X027490Y007441D01*
X027490Y007362D02*
X026790Y007362D01*
X026790Y007284D02*
X027490Y007284D01*
X027490Y007205D02*
X026790Y007205D01*
X026790Y007127D02*
X027490Y007127D01*
X027490Y007048D02*
X026790Y007048D01*
X026790Y006970D02*
X027490Y006970D01*
X027490Y006891D02*
X026790Y006891D01*
X026790Y006813D02*
X027490Y006813D01*
X027490Y006734D02*
X026790Y006734D01*
X026790Y006656D02*
X027490Y006656D01*
X027490Y006577D02*
X026790Y006577D01*
X026847Y006499D02*
X027433Y006499D01*
X027354Y006420D02*
X026926Y006420D01*
X027004Y006342D02*
X027276Y006342D01*
X027240Y006263D02*
X027040Y006263D01*
X027040Y006185D02*
X027240Y006185D01*
X027240Y006106D02*
X027040Y006106D01*
X027040Y006028D02*
X027240Y006028D01*
X027265Y005949D02*
X027015Y005949D01*
X026936Y005871D02*
X027344Y005871D01*
X026344Y005871D02*
X025936Y005871D01*
X026015Y005949D02*
X026265Y005949D01*
X026240Y006028D02*
X026040Y006028D01*
X026040Y006106D02*
X026240Y006106D01*
X026240Y006185D02*
X026040Y006185D01*
X026040Y006263D02*
X026240Y006263D01*
X026276Y006342D02*
X026004Y006342D01*
X025926Y006420D02*
X026354Y006420D01*
X026433Y006499D02*
X025847Y006499D01*
X025790Y006577D02*
X026490Y006577D01*
X026490Y006656D02*
X025790Y006656D01*
X025790Y006734D02*
X026490Y006734D01*
X026490Y006813D02*
X025790Y006813D01*
X025790Y006891D02*
X026490Y006891D01*
X026490Y006970D02*
X025790Y006970D01*
X025790Y007048D02*
X026490Y007048D01*
X026490Y007127D02*
X025790Y007127D01*
X025790Y007205D02*
X026490Y007205D01*
X026490Y007284D02*
X025790Y007284D01*
X025824Y007362D02*
X026490Y007362D01*
X026490Y007441D02*
X025903Y007441D01*
X025981Y007519D02*
X026490Y007519D01*
X026490Y007598D02*
X026060Y007598D01*
X026138Y007676D02*
X026490Y007676D01*
X026490Y007755D02*
X026217Y007755D01*
X026295Y007833D02*
X026490Y007833D01*
X026490Y007912D02*
X026374Y007912D01*
X026452Y007990D02*
X026528Y007990D01*
X026531Y008069D02*
X026606Y008069D01*
X026557Y008147D02*
X026685Y008147D01*
X026665Y008226D02*
X026615Y008226D01*
X026615Y008304D02*
X026665Y008304D01*
X026665Y008383D02*
X026615Y008383D01*
X026615Y008461D02*
X026665Y008461D01*
X026665Y008540D02*
X026615Y008540D01*
X026615Y008618D02*
X026665Y008618D01*
X026665Y008697D02*
X026615Y008697D01*
X026615Y008775D02*
X026665Y008775D01*
X026665Y008854D02*
X026615Y008854D01*
X026615Y008932D02*
X026665Y008932D01*
X026665Y009011D02*
X026615Y009011D01*
X026601Y009089D02*
X026679Y009089D01*
X026179Y009089D02*
X026101Y009089D01*
X026115Y009011D02*
X026165Y009011D01*
X026165Y008932D02*
X026115Y008932D01*
X026115Y008854D02*
X026165Y008854D01*
X026165Y008775D02*
X026115Y008775D01*
X026115Y008697D02*
X026165Y008697D01*
X026165Y008618D02*
X026115Y008618D01*
X026115Y008540D02*
X026165Y008540D01*
X026165Y008461D02*
X026115Y008461D01*
X026115Y008383D02*
X026165Y008383D01*
X026165Y008304D02*
X026115Y008304D01*
X026115Y008226D02*
X026165Y008226D01*
X026185Y008147D02*
X026057Y008147D01*
X026031Y008069D02*
X026106Y008069D01*
X026028Y007990D02*
X025952Y007990D01*
X025949Y007912D02*
X025874Y007912D01*
X025871Y007833D02*
X025795Y007833D01*
X025792Y007755D02*
X025717Y007755D01*
X025714Y007676D02*
X025638Y007676D01*
X025635Y007598D02*
X025560Y007598D01*
X025557Y007519D02*
X025481Y007519D01*
X025490Y007441D02*
X025403Y007441D01*
X025324Y007362D02*
X025490Y007362D01*
X025490Y007284D02*
X025246Y007284D01*
X025167Y007205D02*
X025490Y007205D01*
X025490Y007127D02*
X025089Y007127D01*
X025010Y007048D02*
X025490Y007048D01*
X025490Y006970D02*
X024932Y006970D01*
X024853Y006891D02*
X025490Y006891D01*
X025490Y006813D02*
X024790Y006813D01*
X024790Y006734D02*
X025490Y006734D01*
X025490Y006656D02*
X024790Y006656D01*
X024790Y006577D02*
X025490Y006577D01*
X025433Y006499D02*
X024847Y006499D01*
X024926Y006420D02*
X025354Y006420D01*
X025276Y006342D02*
X025004Y006342D01*
X025040Y006263D02*
X025240Y006263D01*
X025240Y006185D02*
X025040Y006185D01*
X025040Y006106D02*
X025240Y006106D01*
X025240Y006028D02*
X025040Y006028D01*
X025015Y005949D02*
X025265Y005949D01*
X025344Y005871D02*
X024936Y005871D01*
X028790Y004615D02*
X031442Y004615D01*
X031521Y004536D02*
X028790Y004536D01*
X028790Y004458D02*
X031599Y004458D01*
X031717Y004379D02*
X028790Y004379D01*
X028790Y004301D02*
X031906Y004301D01*
X032374Y004301D02*
X032900Y004301D01*
X032900Y004379D02*
X032563Y004379D01*
X032681Y004458D02*
X032900Y004458D01*
X032900Y004536D02*
X032759Y004536D01*
X032838Y004615D02*
X032900Y004615D01*
X032891Y004693D02*
X032900Y004693D01*
X032900Y004222D02*
X028790Y004222D01*
X028790Y004144D02*
X032900Y004144D01*
X032900Y004065D02*
X028790Y004065D01*
X028790Y003987D02*
X032900Y003987D01*
X032900Y003908D02*
X028790Y003908D01*
X028790Y003830D02*
X032900Y003830D01*
X032900Y003751D02*
X028790Y003751D01*
X028790Y003673D02*
X032900Y003673D01*
X032900Y003594D02*
X028790Y003594D01*
X028790Y003516D02*
X032900Y003516D01*
X032900Y003437D02*
X028790Y003437D01*
X028790Y003359D02*
X032900Y003359D01*
X032900Y003280D02*
X028790Y003280D01*
X028790Y003202D02*
X032900Y003202D01*
X032900Y003123D02*
X028790Y003123D01*
X028790Y003045D02*
X032900Y003045D01*
X032900Y002966D02*
X030373Y002966D01*
X030364Y002975D02*
X030219Y003035D01*
X030061Y003035D01*
X029916Y002975D01*
X029805Y002864D01*
X029745Y002719D01*
X029745Y002561D01*
X029805Y002416D01*
X029916Y002305D01*
X030061Y002245D01*
X030219Y002245D01*
X030364Y002305D01*
X030475Y002416D01*
X030535Y002561D01*
X030535Y002719D01*
X030475Y002864D01*
X030364Y002975D01*
X030451Y002888D02*
X032895Y002888D01*
X032890Y002809D02*
X030498Y002809D01*
X030530Y002731D02*
X032883Y002731D01*
X032862Y002652D02*
X030535Y002652D01*
X030535Y002574D02*
X032841Y002574D01*
X032820Y002495D02*
X030508Y002495D01*
X030475Y002417D02*
X032799Y002417D01*
X032778Y002338D02*
X030397Y002338D01*
X030254Y002260D02*
X032746Y002260D01*
X032700Y002181D02*
X028811Y002181D01*
X028790Y002260D02*
X029026Y002260D01*
X028883Y002338D02*
X028790Y002338D01*
X028790Y002417D02*
X028805Y002417D01*
X028490Y002417D02*
X028475Y002417D01*
X028490Y002338D02*
X028397Y002338D01*
X028490Y002260D02*
X028254Y002260D01*
X028242Y002065D02*
X028180Y002074D01*
X028180Y001680D01*
X028574Y001680D01*
X028565Y001742D01*
X028543Y001807D01*
X028512Y001868D01*
X028472Y001924D01*
X028424Y001972D01*
X028368Y002012D01*
X028307Y002043D01*
X028242Y002065D01*
X028180Y002024D02*
X028100Y002024D01*
X028100Y001946D02*
X028180Y001946D01*
X028180Y001867D02*
X028100Y001867D01*
X028100Y001789D02*
X028180Y001789D01*
X028180Y001710D02*
X028100Y001710D01*
X028180Y001632D02*
X028745Y001632D01*
X028745Y001710D02*
X028570Y001710D01*
X028549Y001789D02*
X028774Y001789D01*
X028701Y001867D02*
X028513Y001867D01*
X028450Y001946D02*
X028622Y001946D01*
X028544Y002024D02*
X028345Y002024D01*
X028490Y002103D02*
X027790Y002103D01*
X027790Y002181D02*
X028490Y002181D01*
X028890Y002103D02*
X032655Y002103D01*
X032610Y002024D02*
X030246Y002024D01*
X030219Y002035D02*
X030061Y002035D01*
X029916Y001975D01*
X029805Y001864D01*
X029745Y001719D01*
X029745Y001561D01*
X029805Y001416D01*
X029916Y001305D01*
X030061Y001245D01*
X030219Y001245D01*
X030364Y001305D01*
X030475Y001416D01*
X030535Y001561D01*
X030535Y001719D01*
X030475Y001864D01*
X030364Y001975D01*
X030219Y002035D01*
X030034Y002024D02*
X029246Y002024D01*
X029393Y001946D02*
X029887Y001946D01*
X029808Y001867D02*
X029472Y001867D01*
X029506Y001789D02*
X029774Y001789D01*
X029745Y001710D02*
X029535Y001710D01*
X029535Y001632D02*
X029745Y001632D01*
X029748Y001553D02*
X029532Y001553D01*
X029499Y001475D02*
X029781Y001475D01*
X029825Y001396D02*
X029455Y001396D01*
X029377Y001318D02*
X029903Y001318D01*
X030377Y001318D02*
X031978Y001318D01*
X032057Y001396D02*
X030455Y001396D01*
X030499Y001475D02*
X032135Y001475D01*
X032214Y001553D02*
X030532Y001553D01*
X030535Y001632D02*
X032292Y001632D01*
X032371Y001710D02*
X030535Y001710D01*
X030506Y001789D02*
X032441Y001789D01*
X032510Y001867D02*
X030472Y001867D01*
X030393Y001946D02*
X032564Y001946D01*
X030026Y002260D02*
X029254Y002260D01*
X029397Y002338D02*
X029883Y002338D01*
X029805Y002417D02*
X029475Y002417D01*
X029508Y002495D02*
X029772Y002495D01*
X029745Y002574D02*
X029535Y002574D01*
X029535Y002652D02*
X029745Y002652D01*
X029750Y002731D02*
X029530Y002731D01*
X029498Y002809D02*
X029782Y002809D01*
X029829Y002888D02*
X029451Y002888D01*
X029373Y002966D02*
X029907Y002966D01*
X028907Y002966D02*
X028790Y002966D01*
X028790Y002888D02*
X028829Y002888D01*
X028490Y002888D02*
X028451Y002888D01*
X028490Y002966D02*
X028373Y002966D01*
X027805Y002417D02*
X027790Y002417D01*
X027790Y002338D02*
X027883Y002338D01*
X027790Y002260D02*
X028026Y002260D01*
X027490Y002260D02*
X027254Y002260D01*
X027397Y002338D02*
X027490Y002338D01*
X027490Y002417D02*
X027475Y002417D01*
X027469Y002181D02*
X026790Y002181D01*
X026790Y002103D02*
X027390Y002103D01*
X027312Y002024D02*
X027246Y002024D01*
X027034Y002024D02*
X026736Y002024D01*
X026658Y001946D02*
X026887Y001946D01*
X026808Y001867D02*
X026579Y001867D01*
X026506Y001789D02*
X026774Y001789D01*
X026745Y001710D02*
X026535Y001710D01*
X026535Y001632D02*
X026745Y001632D01*
X026748Y001553D02*
X026532Y001553D01*
X026499Y001475D02*
X026781Y001475D01*
X026825Y001396D02*
X026455Y001396D01*
X026377Y001318D02*
X026903Y001318D01*
X025903Y001318D02*
X025377Y001318D01*
X025455Y001396D02*
X025825Y001396D01*
X025781Y001475D02*
X025499Y001475D01*
X025532Y001553D02*
X025748Y001553D01*
X025745Y001632D02*
X025535Y001632D01*
X025535Y001710D02*
X025745Y001710D01*
X025774Y001789D02*
X025506Y001789D01*
X025579Y001867D02*
X025808Y001867D01*
X025887Y001946D02*
X025658Y001946D01*
X025736Y002024D02*
X026034Y002024D01*
X026246Y002024D02*
X026312Y002024D01*
X026390Y002103D02*
X025790Y002103D01*
X025790Y002181D02*
X026469Y002181D01*
X026490Y002260D02*
X026254Y002260D01*
X026397Y002338D02*
X026490Y002338D01*
X026490Y002417D02*
X026475Y002417D01*
X026790Y002417D02*
X026805Y002417D01*
X026790Y002338D02*
X026883Y002338D01*
X026790Y002260D02*
X027026Y002260D01*
X027736Y002024D02*
X027935Y002024D01*
X027830Y001946D02*
X027658Y001946D01*
X027579Y001867D02*
X027767Y001867D01*
X027731Y001789D02*
X027506Y001789D01*
X027535Y001710D02*
X027710Y001710D01*
X028544Y001475D02*
X028781Y001475D01*
X028748Y001553D02*
X028567Y001553D01*
X028501Y001396D02*
X028825Y001396D01*
X028903Y001318D02*
X028433Y001318D01*
X028968Y002024D02*
X029034Y002024D01*
X026026Y002260D02*
X025790Y002260D01*
X025790Y002338D02*
X025883Y002338D01*
X025805Y002417D02*
X025790Y002417D01*
X025490Y002417D02*
X025475Y002417D01*
X025490Y002338D02*
X025397Y002338D01*
X025490Y002260D02*
X025254Y002260D01*
X025390Y002103D02*
X024790Y002103D01*
X024790Y002181D02*
X025469Y002181D01*
X025026Y002260D02*
X024790Y002260D01*
X024790Y002338D02*
X024883Y002338D01*
X024805Y002417D02*
X024790Y002417D01*
X024490Y002417D02*
X024475Y002417D01*
X024490Y002338D02*
X024397Y002338D01*
X024490Y002260D02*
X024254Y002260D01*
X024246Y002024D02*
X024312Y002024D01*
X024579Y001867D02*
X024808Y001867D01*
X024774Y001789D02*
X024506Y001789D01*
X024535Y001710D02*
X024745Y001710D01*
X024745Y001632D02*
X024535Y001632D01*
X024532Y001553D02*
X024748Y001553D01*
X024781Y001475D02*
X024499Y001475D01*
X024455Y001396D02*
X024825Y001396D01*
X024903Y001318D02*
X024377Y001318D01*
X024658Y001946D02*
X024887Y001946D01*
X025034Y002024D02*
X024736Y002024D01*
X025246Y002024D02*
X025312Y002024D01*
X030814Y000454D02*
X002519Y000454D01*
M02*
