G75*
G70*
%OFA0B0*%
%FSLAX24Y24*%
%IPPOS*%
%LPD*%
%AMOC8*
5,1,8,0,0,1.08239X$1,22.5*
%
%ADD10C,0.0000*%
D10*
X000726Y001554D02*
X001554Y000726D01*
X002968Y000140D02*
X030312Y000140D01*
X031726Y000726D02*
X032554Y001554D01*
X031726Y000726D02*
X031659Y000662D01*
X031590Y000601D01*
X031517Y000544D01*
X031442Y000490D01*
X031365Y000440D01*
X031285Y000393D01*
X031203Y000350D01*
X031120Y000310D01*
X031034Y000275D01*
X030948Y000244D01*
X030859Y000216D01*
X030770Y000193D01*
X030679Y000174D01*
X030588Y000159D01*
X030497Y000149D01*
X030404Y000142D01*
X030312Y000140D01*
X032554Y001554D02*
X032622Y001625D01*
X032686Y001699D01*
X032746Y001777D01*
X032803Y001857D01*
X032855Y001940D01*
X032904Y002025D01*
X032948Y002113D01*
X032988Y002203D01*
X033023Y002294D01*
X033054Y002387D01*
X033080Y002482D01*
X033102Y002578D01*
X033118Y002675D01*
X033130Y002772D01*
X033138Y002870D01*
X033140Y002968D01*
X033140Y007312D01*
X033138Y007410D01*
X033130Y007508D01*
X033118Y007605D01*
X033102Y007702D01*
X033080Y007798D01*
X033054Y007893D01*
X033023Y007986D01*
X032988Y008077D01*
X032948Y008167D01*
X032904Y008255D01*
X032855Y008340D01*
X032803Y008423D01*
X032746Y008503D01*
X032686Y008581D01*
X032622Y008655D01*
X032554Y008726D01*
X031726Y009554D01*
X030312Y010140D02*
X002968Y010140D01*
X001554Y009554D02*
X000726Y008726D01*
X001554Y009554D02*
X001621Y009618D01*
X001690Y009679D01*
X001763Y009736D01*
X001838Y009790D01*
X001915Y009840D01*
X001995Y009887D01*
X002077Y009930D01*
X002160Y009970D01*
X002246Y010005D01*
X002332Y010036D01*
X002421Y010064D01*
X002510Y010087D01*
X002601Y010106D01*
X002692Y010121D01*
X002783Y010131D01*
X002876Y010138D01*
X002968Y010140D01*
X000726Y008726D02*
X000662Y008659D01*
X000601Y008590D01*
X000544Y008517D01*
X000490Y008442D01*
X000440Y008365D01*
X000393Y008285D01*
X000350Y008203D01*
X000310Y008120D01*
X000275Y008034D01*
X000244Y007948D01*
X000216Y007859D01*
X000193Y007770D01*
X000174Y007679D01*
X000159Y007588D01*
X000149Y007497D01*
X000142Y007404D01*
X000140Y007312D01*
X000140Y002968D01*
X000142Y002876D01*
X000149Y002783D01*
X000159Y002692D01*
X000174Y002601D01*
X000193Y002510D01*
X000216Y002421D01*
X000244Y002332D01*
X000275Y002246D01*
X000310Y002160D01*
X000350Y002077D01*
X000393Y001995D01*
X000440Y001915D01*
X000490Y001838D01*
X000544Y001763D01*
X000601Y001690D01*
X000662Y001621D01*
X000726Y001554D01*
X001554Y000726D02*
X001625Y000658D01*
X001699Y000594D01*
X001777Y000534D01*
X001857Y000477D01*
X001940Y000425D01*
X002025Y000376D01*
X002113Y000332D01*
X002203Y000292D01*
X002294Y000257D01*
X002387Y000226D01*
X002482Y000200D01*
X002578Y000178D01*
X002675Y000162D01*
X002772Y000150D01*
X002870Y000142D01*
X002968Y000140D01*
X000515Y005140D02*
X000517Y005190D01*
X000523Y005239D01*
X000533Y005288D01*
X000546Y005335D01*
X000564Y005382D01*
X000585Y005427D01*
X000609Y005470D01*
X000637Y005511D01*
X000668Y005550D01*
X000702Y005586D01*
X000739Y005620D01*
X000779Y005650D01*
X000820Y005677D01*
X000864Y005701D01*
X000909Y005721D01*
X000956Y005737D01*
X001004Y005750D01*
X001053Y005759D01*
X001103Y005764D01*
X001152Y005765D01*
X001202Y005762D01*
X001251Y005755D01*
X001300Y005744D01*
X001347Y005730D01*
X001393Y005711D01*
X001438Y005689D01*
X001481Y005664D01*
X001521Y005635D01*
X001559Y005603D01*
X001595Y005569D01*
X001628Y005531D01*
X001657Y005491D01*
X001683Y005449D01*
X001706Y005405D01*
X001725Y005359D01*
X001741Y005312D01*
X001753Y005263D01*
X001761Y005214D01*
X001765Y005165D01*
X001765Y005115D01*
X001761Y005066D01*
X001753Y005017D01*
X001741Y004968D01*
X001725Y004921D01*
X001706Y004875D01*
X001683Y004831D01*
X001657Y004789D01*
X001628Y004749D01*
X001595Y004711D01*
X001559Y004677D01*
X001521Y004645D01*
X001481Y004616D01*
X001438Y004591D01*
X001393Y004569D01*
X001347Y004550D01*
X001300Y004536D01*
X001251Y004525D01*
X001202Y004518D01*
X001152Y004515D01*
X001103Y004516D01*
X001053Y004521D01*
X001004Y004530D01*
X000956Y004543D01*
X000909Y004559D01*
X000864Y004579D01*
X000820Y004603D01*
X000779Y004630D01*
X000739Y004660D01*
X000702Y004694D01*
X000668Y004730D01*
X000637Y004769D01*
X000609Y004810D01*
X000585Y004853D01*
X000564Y004898D01*
X000546Y004945D01*
X000533Y004992D01*
X000523Y005041D01*
X000517Y005090D01*
X000515Y005140D01*
X030312Y010140D02*
X030404Y010138D01*
X030497Y010131D01*
X030588Y010121D01*
X030679Y010106D01*
X030770Y010087D01*
X030859Y010064D01*
X030948Y010036D01*
X031034Y010005D01*
X031120Y009970D01*
X031203Y009930D01*
X031285Y009887D01*
X031365Y009840D01*
X031442Y009790D01*
X031517Y009736D01*
X031590Y009679D01*
X031659Y009618D01*
X031726Y009554D01*
X031515Y005140D02*
X031517Y005190D01*
X031523Y005239D01*
X031533Y005288D01*
X031546Y005335D01*
X031564Y005382D01*
X031585Y005427D01*
X031609Y005470D01*
X031637Y005511D01*
X031668Y005550D01*
X031702Y005586D01*
X031739Y005620D01*
X031779Y005650D01*
X031820Y005677D01*
X031864Y005701D01*
X031909Y005721D01*
X031956Y005737D01*
X032004Y005750D01*
X032053Y005759D01*
X032103Y005764D01*
X032152Y005765D01*
X032202Y005762D01*
X032251Y005755D01*
X032300Y005744D01*
X032347Y005730D01*
X032393Y005711D01*
X032438Y005689D01*
X032481Y005664D01*
X032521Y005635D01*
X032559Y005603D01*
X032595Y005569D01*
X032628Y005531D01*
X032657Y005491D01*
X032683Y005449D01*
X032706Y005405D01*
X032725Y005359D01*
X032741Y005312D01*
X032753Y005263D01*
X032761Y005214D01*
X032765Y005165D01*
X032765Y005115D01*
X032761Y005066D01*
X032753Y005017D01*
X032741Y004968D01*
X032725Y004921D01*
X032706Y004875D01*
X032683Y004831D01*
X032657Y004789D01*
X032628Y004749D01*
X032595Y004711D01*
X032559Y004677D01*
X032521Y004645D01*
X032481Y004616D01*
X032438Y004591D01*
X032393Y004569D01*
X032347Y004550D01*
X032300Y004536D01*
X032251Y004525D01*
X032202Y004518D01*
X032152Y004515D01*
X032103Y004516D01*
X032053Y004521D01*
X032004Y004530D01*
X031956Y004543D01*
X031909Y004559D01*
X031864Y004579D01*
X031820Y004603D01*
X031779Y004630D01*
X031739Y004660D01*
X031702Y004694D01*
X031668Y004730D01*
X031637Y004769D01*
X031609Y004810D01*
X031585Y004853D01*
X031564Y004898D01*
X031546Y004945D01*
X031533Y004992D01*
X031523Y005041D01*
X031517Y005090D01*
X031515Y005140D01*
M02*
