G75*
%MOIN*%
%OFA0B0*%
%FSLAX24Y24*%
%IPPOS*%
%LPD*%
%AMOC8*
5,1,8,0,0,1.08239X$1,22.5*
%
%ADD10C,0.0827*%
%ADD11C,0.1004*%
%ADD12C,0.2126*%
%ADD13C,0.0945*%
%ADD14C,0.0278*%
%ADD15OC8,0.0531*%
%ADD16R,0.0433X0.0630*%
%ADD17R,0.0630X0.0630*%
%ADD18C,0.0607*%
%ADD19R,0.0315X0.0315*%
%ADD20C,0.0360*%
%ADD21C,0.1500*%
%ADD22C,0.0160*%
%ADD23C,0.1875*%
%ADD24C,0.0080*%
%ADD25C,0.0120*%
%ADD26C,0.0240*%
%ADD27C,0.0100*%
D10*
X031371Y007650D03*
X033734Y007650D03*
D11*
X024915Y007650D03*
D12*
X020800Y003890D03*
X037730Y003890D03*
D13*
X039140Y033140D03*
X036140Y033140D03*
X033140Y033140D03*
X030140Y033140D03*
X027140Y033140D03*
X024140Y033140D03*
X021140Y033140D03*
X018140Y033140D03*
X015140Y033140D03*
X012140Y033140D03*
D14*
X012345Y025935D03*
X012640Y025935D03*
X012640Y025640D03*
X012345Y025640D03*
X012345Y025345D03*
X012640Y025345D03*
X012935Y025345D03*
X012935Y025640D03*
X012935Y025935D03*
D15*
X032065Y018534D03*
X032853Y018534D03*
X033640Y018534D03*
X034427Y018534D03*
X034427Y017746D03*
X033640Y017746D03*
X032853Y017746D03*
X032065Y017746D03*
X035215Y017746D03*
X035215Y018534D03*
D16*
X027093Y031648D03*
X026187Y031648D03*
X025593Y031648D03*
X024687Y031648D03*
X024030Y031648D03*
X023125Y031648D03*
X022468Y031648D03*
X021562Y031648D03*
D17*
X022015Y030507D03*
X023578Y030507D03*
X025140Y030507D03*
X026640Y030507D03*
D18*
X035296Y025640D03*
X016359Y028734D03*
X016359Y029828D03*
X008640Y022640D03*
X008328Y019171D03*
X007109Y019171D03*
D19*
X014345Y028703D03*
X014935Y028703D03*
D20*
X014890Y027921D03*
X015953Y027703D03*
X016859Y027953D03*
X017921Y026734D03*
X016453Y025015D03*
X015953Y023796D03*
X017171Y023390D03*
X017984Y022953D03*
X019078Y023640D03*
X020953Y025203D03*
X022860Y024859D03*
X023065Y025375D03*
X023230Y026090D03*
X024290Y025130D03*
X025078Y024453D03*
X024984Y023640D03*
X024703Y023203D03*
X025390Y023203D03*
X023703Y023203D03*
X022921Y022578D03*
X021421Y022828D03*
X019765Y021984D03*
X018671Y021703D03*
X019953Y020734D03*
X021640Y020640D03*
X021640Y021140D03*
X018046Y019921D03*
X015140Y021140D03*
X014609Y021171D03*
X013921Y023734D03*
X013453Y023734D03*
X012984Y023859D03*
X012640Y024203D03*
X011484Y024328D03*
X010390Y025671D03*
X010828Y025796D03*
X011139Y026108D03*
X011828Y026765D03*
X012734Y027265D03*
X013640Y026671D03*
X013796Y027640D03*
X015609Y026546D03*
X014296Y024234D03*
X010953Y021796D03*
X007140Y021640D03*
X007140Y023140D03*
X005234Y024234D03*
X004140Y023140D03*
X004140Y021640D03*
X008828Y024953D03*
X008515Y025671D03*
X009171Y026234D03*
X009546Y025765D03*
X010046Y026953D03*
X012921Y029328D03*
X013453Y030546D03*
X014328Y029453D03*
X010796Y031078D03*
X004928Y030296D03*
X004928Y029859D03*
X002334Y028015D03*
X004834Y026859D03*
X004834Y026421D03*
X004834Y025984D03*
X007421Y018109D03*
X009671Y018328D03*
X013109Y015078D03*
X015671Y016234D03*
X008203Y014140D03*
X004640Y013640D03*
X002140Y013640D03*
X020109Y028359D03*
X024078Y026953D03*
X024828Y027171D03*
X025328Y027140D03*
X024703Y026265D03*
X025921Y026140D03*
X026515Y026828D03*
X027328Y027390D03*
X028953Y026953D03*
X029640Y027390D03*
X028765Y028703D03*
X028328Y028703D03*
X027640Y029640D03*
X026828Y029265D03*
X025328Y028900D03*
X024453Y030421D03*
X024453Y030984D03*
X027640Y030953D03*
X028453Y030453D03*
X027984Y031640D03*
X031640Y030140D03*
X032640Y031140D03*
X034140Y033140D03*
X039203Y031046D03*
X040328Y032671D03*
X040734Y033671D03*
X039046Y028828D03*
X038515Y028828D03*
X040546Y027953D03*
X041296Y027859D03*
X041953Y027859D03*
X038578Y024671D03*
X038578Y023671D03*
X037578Y023671D03*
X037578Y024671D03*
X040203Y022046D03*
X038140Y021203D03*
X037484Y021078D03*
X035765Y021265D03*
X040671Y019015D03*
X030234Y016140D03*
X029640Y019140D03*
X027640Y019640D03*
X030296Y022296D03*
X027890Y022828D03*
X030265Y024703D03*
X031640Y027640D03*
X032640Y028640D03*
X020578Y031953D03*
D21*
X028640Y015140D02*
X029140Y014640D01*
X026640Y014640D01*
X029140Y014640D02*
X033734Y010046D01*
X033734Y007650D01*
X031371Y007650D02*
X030130Y007650D01*
X023140Y014640D01*
D22*
X020953Y016828D01*
X020953Y025203D01*
X024078Y026890D02*
X024703Y026265D01*
X024078Y026890D02*
X024078Y026953D01*
X025328Y027140D02*
X025328Y024703D01*
X025078Y024453D01*
X025234Y022796D02*
X025015Y022578D01*
X022921Y022578D01*
X022671Y022828D01*
X021421Y022828D01*
X026515Y026828D02*
X027390Y026828D01*
X028640Y025578D01*
X028640Y015140D01*
X034427Y018534D02*
X034427Y018771D01*
X034703Y019046D01*
X040046Y019046D01*
X041296Y020296D01*
X041296Y027859D01*
X041296Y030984D01*
X039140Y033140D01*
X038515Y032515D01*
X038515Y028828D01*
X030296Y022296D02*
X030234Y022234D01*
X020578Y031953D02*
X017546Y031953D01*
X015484Y034015D01*
X013015Y034015D01*
X012140Y033140D01*
X014328Y029453D02*
X014345Y029435D01*
X014345Y028703D01*
X009171Y026234D02*
X008984Y026421D01*
X004834Y026421D01*
X004834Y026859D01*
X004834Y026421D02*
X004834Y025984D01*
X005234Y025584D01*
X005234Y024234D01*
X015671Y016234D02*
X015671Y016171D01*
X013171Y015140D02*
X013109Y015078D01*
D23*
X023140Y014640D03*
X026640Y014640D03*
D24*
X000380Y014865D02*
X000380Y011907D01*
X018673Y011907D01*
X018720Y011861D01*
X018720Y000380D01*
X047570Y000380D01*
X047689Y000389D01*
X047915Y000463D01*
X048107Y000603D01*
X048247Y000795D01*
X048321Y001021D01*
X048330Y001140D01*
X048330Y014865D01*
X046107Y014865D01*
X045536Y014995D01*
X045536Y014995D01*
X045008Y015250D01*
X045008Y015250D01*
X044550Y015615D01*
X044550Y015615D01*
X044550Y015615D01*
X044185Y016073D01*
X044185Y016073D01*
X043930Y016601D01*
X043930Y016601D01*
X043800Y017172D01*
X043800Y017758D01*
X043930Y018329D01*
X043930Y018329D01*
X044185Y018857D01*
X044185Y018857D01*
X044550Y019315D01*
X044550Y019315D01*
X044550Y019315D01*
X045008Y019680D01*
X045008Y019680D01*
X045536Y019935D01*
X045536Y019935D01*
X046107Y020065D01*
X046352Y020065D01*
X046421Y020065D01*
X046421Y022861D01*
X046468Y022908D01*
X048330Y022908D01*
X048330Y033790D01*
X048321Y033909D01*
X048247Y034135D01*
X048107Y034327D01*
X047915Y034467D01*
X047689Y034541D01*
X047570Y034550D01*
X001140Y034550D01*
X001021Y034541D01*
X000795Y034467D01*
X000603Y034327D01*
X000463Y034135D01*
X000389Y033909D01*
X000380Y033790D01*
X000380Y020065D01*
X002603Y020065D01*
X003174Y019935D01*
X003174Y019935D01*
X003702Y019680D01*
X003702Y019680D01*
X004160Y019315D01*
X004160Y019315D01*
X004525Y018857D01*
X004525Y018857D01*
X004780Y018329D01*
X004910Y017758D01*
X004910Y017172D01*
X004780Y016601D01*
X004780Y016601D01*
X004525Y016073D01*
X004525Y016073D01*
X004160Y015615D01*
X004160Y015615D01*
X004160Y015615D01*
X003702Y015250D01*
X003702Y015250D01*
X003174Y014995D01*
X003174Y014995D01*
X002603Y014865D01*
X000380Y014865D01*
X000380Y014820D02*
X008571Y014820D01*
X008649Y014898D02*
X002748Y014898D01*
X003092Y014977D02*
X008728Y014977D01*
X008806Y015055D02*
X003298Y015055D01*
X003461Y015134D02*
X008885Y015134D01*
X008920Y015169D02*
X008171Y014420D01*
X008147Y014420D01*
X008044Y014377D01*
X007965Y014299D01*
X007923Y014196D01*
X007923Y014084D01*
X007965Y013981D01*
X008044Y013903D01*
X008147Y013860D01*
X008258Y013860D01*
X008361Y013903D01*
X008440Y013981D01*
X008482Y014084D01*
X008482Y014109D01*
X009231Y014858D01*
X012933Y014858D01*
X012950Y014840D01*
X013053Y014798D01*
X013164Y014798D01*
X013267Y014840D01*
X013346Y014919D01*
X013347Y014920D01*
X014731Y014920D01*
X014860Y015049D01*
X015792Y015981D01*
X015830Y015996D01*
X015909Y016075D01*
X015951Y016178D01*
X015951Y016289D01*
X015909Y016392D01*
X015891Y016410D01*
X015891Y021294D01*
X015762Y021422D01*
X014516Y022669D01*
X014516Y024058D01*
X014534Y024075D01*
X014576Y024178D01*
X014576Y024289D01*
X014534Y024392D01*
X014488Y024438D01*
X015479Y024438D01*
X016229Y025188D01*
X016311Y025270D01*
X016311Y027207D01*
X016784Y027680D01*
X016803Y027673D01*
X016914Y027673D01*
X017017Y027715D01*
X017021Y027719D01*
X017021Y023631D01*
X017013Y023627D01*
X016934Y023549D01*
X016891Y023446D01*
X016891Y023334D01*
X016934Y023231D01*
X017013Y023153D01*
X017063Y023132D01*
X017063Y022395D01*
X017813Y021645D01*
X017895Y021563D01*
X018426Y021563D01*
X018434Y021544D01*
X018513Y021465D01*
X018616Y021423D01*
X018727Y021423D01*
X018830Y021465D01*
X018909Y021544D01*
X018951Y021647D01*
X018951Y021758D01*
X018909Y021861D01*
X018830Y021940D01*
X018727Y021982D01*
X018616Y021982D01*
X018513Y021940D01*
X018434Y021861D01*
X018426Y021842D01*
X018010Y021842D01*
X017342Y022510D01*
X017342Y023165D01*
X017409Y023231D01*
X017451Y023334D01*
X017451Y023446D01*
X017409Y023549D01*
X017330Y023627D01*
X017321Y023631D01*
X017321Y031171D01*
X015640Y032852D01*
X015712Y033026D01*
X015712Y033254D01*
X015625Y033464D01*
X015464Y033625D01*
X015254Y033712D01*
X015026Y033712D01*
X014816Y033625D01*
X014655Y033464D01*
X014568Y033254D01*
X014568Y033026D01*
X014655Y032816D01*
X014816Y032655D01*
X015026Y032568D01*
X015254Y032568D01*
X015428Y032640D01*
X017021Y031047D01*
X017021Y028186D01*
X017017Y028190D01*
X016914Y028232D01*
X016803Y028232D01*
X016700Y028190D01*
X016621Y028111D01*
X016579Y028008D01*
X016579Y027897D01*
X016586Y027878D01*
X016031Y027323D01*
X016031Y025385D01*
X015363Y024717D01*
X013863Y024717D01*
X013781Y024635D01*
X013488Y024342D01*
X012885Y024342D01*
X012877Y024361D01*
X012799Y024440D01*
X012729Y024469D01*
X012917Y024469D01*
X013417Y024969D01*
X013499Y025051D01*
X013499Y026167D01*
X012874Y026792D01*
X012874Y027020D01*
X012892Y027028D01*
X012971Y027106D01*
X013014Y027209D01*
X013014Y027321D01*
X012971Y027424D01*
X012892Y027502D01*
X012789Y027545D01*
X012678Y027545D01*
X012575Y027502D01*
X012496Y027424D01*
X012454Y027321D01*
X012454Y027209D01*
X012496Y027106D01*
X012575Y027028D01*
X012594Y027020D01*
X012594Y026676D01*
X012676Y026594D01*
X013219Y026051D01*
X013219Y025167D01*
X012801Y024749D01*
X012426Y024749D01*
X012344Y024667D01*
X012063Y024385D01*
X012063Y023760D01*
X007613Y019311D01*
X007488Y019311D01*
X007451Y019400D01*
X007337Y019514D01*
X007189Y019575D01*
X007028Y019575D01*
X006880Y019514D01*
X006766Y019400D01*
X006705Y019252D01*
X006705Y019091D01*
X006766Y018943D01*
X006880Y018829D01*
X007028Y018768D01*
X007189Y018768D01*
X007337Y018829D01*
X007451Y018943D01*
X007488Y019031D01*
X007729Y019031D01*
X007924Y019226D01*
X007924Y019091D01*
X007985Y018943D01*
X008099Y018829D01*
X008247Y018768D01*
X008408Y018768D01*
X008556Y018829D01*
X008670Y018943D01*
X008731Y019091D01*
X008731Y019252D01*
X008695Y019340D01*
X010878Y021524D01*
X010897Y021516D01*
X011008Y021516D01*
X011111Y021559D01*
X011190Y021638D01*
X011232Y021741D01*
X011232Y021852D01*
X011225Y021871D01*
X012933Y023579D01*
X013039Y023579D01*
X013142Y023621D01*
X013180Y023659D01*
X013215Y023575D01*
X013294Y023496D01*
X013303Y023493D01*
X013303Y022265D01*
X014332Y021236D01*
X014329Y021227D01*
X014329Y021116D01*
X014371Y021013D01*
X014450Y020934D01*
X014553Y020891D01*
X014664Y020891D01*
X014767Y020934D01*
X014846Y021013D01*
X014868Y021065D01*
X014903Y020981D01*
X014981Y020903D01*
X015084Y020860D01*
X015196Y020860D01*
X015299Y020903D01*
X015377Y020981D01*
X015420Y021084D01*
X015420Y021143D01*
X015451Y021111D01*
X015451Y016410D01*
X015434Y016392D01*
X015391Y016289D01*
X015391Y016202D01*
X014549Y015360D01*
X013080Y015360D01*
X013078Y015357D01*
X013053Y015357D01*
X012950Y015315D01*
X012933Y015297D01*
X009049Y015297D01*
X008920Y015169D01*
X008963Y015212D02*
X003624Y015212D01*
X003753Y015291D02*
X009042Y015291D01*
X009193Y014820D02*
X013000Y014820D01*
X013218Y014820D02*
X022114Y014820D01*
X022103Y014777D02*
X022173Y015040D01*
X022287Y015238D01*
X020773Y016753D01*
X020773Y024987D01*
X020715Y025044D01*
X020673Y025147D01*
X020673Y025258D01*
X020715Y025361D01*
X020794Y025440D01*
X020897Y025482D01*
X021008Y025482D01*
X021111Y025440D01*
X021140Y025411D01*
X021140Y026113D01*
X021177Y026201D01*
X021244Y026268D01*
X021332Y026305D01*
X022246Y026305D01*
X022125Y026426D01*
X022125Y028395D01*
X021238Y029281D01*
X021156Y029363D01*
X021156Y031073D01*
X021317Y031233D01*
X021304Y031233D01*
X021246Y031292D01*
X021246Y031954D01*
X019217Y029926D01*
X019217Y023885D01*
X019236Y023877D01*
X019315Y023799D01*
X019357Y023696D01*
X019357Y023584D01*
X019315Y023481D01*
X019236Y023403D01*
X019133Y023360D01*
X019022Y023360D01*
X018919Y023403D01*
X018840Y023481D01*
X018798Y023584D01*
X018798Y023696D01*
X018840Y023799D01*
X018919Y023877D01*
X018938Y023885D01*
X018938Y030042D01*
X019020Y030124D01*
X020568Y031673D01*
X020522Y031673D01*
X020419Y031715D01*
X020362Y031773D01*
X017472Y031773D01*
X015409Y033835D01*
X013090Y033835D01*
X012653Y033398D01*
X012712Y033254D01*
X012712Y033026D01*
X012625Y032816D01*
X012464Y032655D01*
X012254Y032568D01*
X012026Y032568D01*
X011816Y032655D01*
X011655Y032816D01*
X011568Y033026D01*
X011568Y033254D01*
X011655Y033464D01*
X011816Y033625D01*
X012026Y033712D01*
X012254Y033712D01*
X012398Y033653D01*
X012940Y034195D01*
X015558Y034195D01*
X015664Y034090D01*
X017621Y032132D01*
X020362Y032132D01*
X020419Y032190D01*
X020522Y032232D01*
X020633Y032232D01*
X020736Y032190D01*
X020815Y032111D01*
X020857Y032008D01*
X020857Y031962D01*
X021207Y032311D01*
X021854Y032311D01*
X021936Y032229D01*
X022031Y032135D01*
X022176Y032280D01*
X026104Y032280D01*
X026186Y032198D01*
X026186Y032198D01*
X026229Y032155D01*
X026311Y032073D01*
X026311Y032063D01*
X026445Y032063D01*
X026504Y032005D01*
X026504Y031292D01*
X026445Y031233D01*
X025929Y031233D01*
X025890Y031273D01*
X025851Y031233D01*
X025620Y031233D01*
X025780Y031073D01*
X025780Y028551D01*
X025698Y028469D01*
X024592Y027363D01*
X024592Y027332D01*
X024669Y027409D01*
X024740Y027438D01*
X025000Y027698D01*
X025082Y027780D01*
X025582Y027780D01*
X026000Y028198D01*
X026000Y030948D01*
X026188Y031135D01*
X026270Y031217D01*
X026488Y031217D01*
X026531Y031260D01*
X026531Y032729D01*
X026644Y032842D01*
X026568Y033026D01*
X026568Y033254D01*
X026655Y033464D01*
X026816Y033625D01*
X027026Y033712D01*
X027254Y033712D01*
X027464Y033625D01*
X027625Y033464D01*
X027712Y033254D01*
X027712Y033026D01*
X027625Y032816D01*
X027464Y032655D01*
X027254Y032568D01*
X027026Y032568D01*
X026842Y032644D01*
X026811Y032613D01*
X026811Y032040D01*
X026835Y032063D01*
X027351Y032063D01*
X027409Y032005D01*
X027409Y031292D01*
X027351Y031233D01*
X026835Y031233D01*
X026811Y031257D01*
X026811Y031145D01*
X026729Y031063D01*
X026604Y030938D01*
X026385Y030938D01*
X026370Y030922D01*
X026996Y030922D01*
X027055Y030863D01*
X027055Y030667D01*
X027128Y030667D01*
X027360Y030899D01*
X027360Y031008D01*
X027403Y031111D01*
X027481Y031190D01*
X027584Y031232D01*
X027696Y031232D01*
X027799Y031190D01*
X027877Y031111D01*
X027920Y031008D01*
X027920Y030897D01*
X027877Y030794D01*
X027799Y030715D01*
X027696Y030673D01*
X027586Y030673D01*
X027260Y030347D01*
X027055Y030347D01*
X027055Y030150D01*
X026996Y030092D01*
X026284Y030092D01*
X026280Y030095D01*
X026280Y028082D01*
X026198Y028000D01*
X025698Y027500D01*
X025198Y027500D01*
X025046Y027348D01*
X025065Y027330D01*
X025084Y027284D01*
X025090Y027299D01*
X025169Y027377D01*
X025272Y027420D01*
X025383Y027420D01*
X025486Y027377D01*
X025565Y027299D01*
X025607Y027196D01*
X025607Y027084D01*
X025565Y026981D01*
X025507Y026924D01*
X025507Y024628D01*
X025402Y024523D01*
X025357Y024478D01*
X025357Y024399D01*
X025550Y024206D01*
X025550Y023438D01*
X025627Y023361D01*
X025670Y023258D01*
X025670Y023147D01*
X025627Y023044D01*
X025549Y022965D01*
X025527Y022956D01*
X025667Y022956D01*
X025730Y023019D01*
X025730Y025935D01*
X025684Y025981D01*
X025641Y026084D01*
X025641Y026196D01*
X025684Y026299D01*
X025763Y026377D01*
X025866Y026420D01*
X025977Y026420D01*
X026080Y026377D01*
X026140Y026317D01*
X026140Y026438D01*
X026177Y026526D01*
X026244Y026593D01*
X026321Y026625D01*
X026278Y026669D01*
X026235Y026772D01*
X026235Y026883D01*
X026278Y026986D01*
X026355Y027063D01*
X026355Y029019D01*
X026548Y029211D01*
X026548Y029321D01*
X026590Y029424D01*
X026669Y029502D01*
X026772Y029545D01*
X026883Y029545D01*
X026986Y029502D01*
X027065Y029424D01*
X027107Y029321D01*
X027107Y029209D01*
X027065Y029106D01*
X026986Y029028D01*
X026883Y028985D01*
X026774Y028985D01*
X026675Y028886D01*
X026675Y027063D01*
X026731Y027007D01*
X027465Y027007D01*
X027570Y026902D01*
X028820Y025652D01*
X028820Y015985D01*
X029121Y015861D01*
X029621Y015361D01*
X029621Y015361D01*
X029861Y015121D01*
X029861Y015121D01*
X034454Y010528D01*
X034584Y010216D01*
X034584Y007481D01*
X034454Y007168D01*
X034215Y006929D01*
X033903Y006800D01*
X033564Y006800D01*
X033252Y006929D01*
X033013Y007168D01*
X032884Y007481D01*
X032884Y009694D01*
X028788Y013790D01*
X027243Y013790D01*
X027040Y013673D01*
X026777Y013603D01*
X026503Y013603D01*
X026240Y013673D01*
X026003Y013810D01*
X025810Y014003D01*
X025673Y014240D01*
X025603Y014503D01*
X025603Y014777D01*
X025673Y015040D01*
X025810Y015277D01*
X026003Y015470D01*
X026240Y015607D01*
X026503Y015677D01*
X026777Y015677D01*
X027040Y015607D01*
X027243Y015490D01*
X027865Y015490D01*
X027919Y015621D01*
X028159Y015861D01*
X028460Y015985D01*
X028460Y025503D01*
X027570Y026393D01*
X027570Y022842D01*
X027540Y022769D01*
X027605Y022769D01*
X027610Y022774D01*
X027610Y022883D01*
X027653Y022986D01*
X027731Y023065D01*
X027834Y023107D01*
X027946Y023107D01*
X028049Y023065D01*
X028127Y022986D01*
X028170Y022883D01*
X028170Y022772D01*
X028127Y022669D01*
X028049Y022590D01*
X027946Y022548D01*
X027836Y022548D01*
X027738Y022449D01*
X026105Y022449D01*
X026011Y022542D01*
X026011Y022542D01*
X025859Y022695D01*
X025800Y022636D01*
X025328Y022636D01*
X025090Y022398D01*
X023137Y022398D01*
X023080Y022340D01*
X022977Y022298D01*
X022866Y022298D01*
X022763Y022340D01*
X022684Y022419D01*
X022641Y022522D01*
X022641Y022603D01*
X022597Y022648D01*
X021637Y022648D01*
X021580Y022590D01*
X021477Y022548D01*
X021366Y022548D01*
X021263Y022590D01*
X021184Y022669D01*
X021141Y022772D01*
X021141Y022883D01*
X021184Y022986D01*
X021227Y023029D01*
X021177Y023079D01*
X021140Y023167D01*
X021140Y024994D01*
X021132Y024987D01*
X021132Y016902D01*
X022542Y015493D01*
X022740Y015607D01*
X023003Y015677D01*
X023277Y015677D01*
X023540Y015607D01*
X023777Y015470D01*
X023970Y015277D01*
X024107Y015040D01*
X024167Y014815D01*
X030482Y008500D01*
X031540Y008500D01*
X031853Y008370D01*
X032092Y008131D01*
X032221Y007819D01*
X032221Y007481D01*
X032092Y007168D01*
X031853Y006929D01*
X031540Y006800D01*
X029961Y006800D01*
X029649Y006929D01*
X022965Y013613D01*
X022740Y013673D01*
X022503Y013810D01*
X022310Y014003D01*
X022173Y014240D01*
X022103Y014503D01*
X022103Y014777D01*
X022103Y014741D02*
X009115Y014741D01*
X009036Y014663D02*
X022103Y014663D01*
X022103Y014584D02*
X008958Y014584D01*
X008879Y014506D02*
X022103Y014506D01*
X022123Y014427D02*
X008801Y014427D01*
X008722Y014349D02*
X022144Y014349D01*
X022165Y014270D02*
X008644Y014270D01*
X008565Y014192D02*
X022201Y014192D01*
X022246Y014113D02*
X008487Y014113D01*
X008462Y014035D02*
X022292Y014035D01*
X022357Y013956D02*
X008415Y013956D01*
X008301Y013878D02*
X022435Y013878D01*
X022522Y013799D02*
X000380Y013799D01*
X000380Y013721D02*
X022658Y013721D01*
X022856Y013642D02*
X000380Y013642D01*
X000380Y013564D02*
X023014Y013564D01*
X023093Y013485D02*
X000380Y013485D01*
X000380Y013407D02*
X023171Y013407D01*
X023250Y013328D02*
X000380Y013328D01*
X000380Y013250D02*
X023328Y013250D01*
X023407Y013171D02*
X000380Y013171D01*
X000380Y013093D02*
X023485Y013093D01*
X023564Y013014D02*
X000380Y013014D01*
X000380Y012936D02*
X023642Y012936D01*
X023721Y012857D02*
X000380Y012857D01*
X000380Y012779D02*
X023799Y012779D01*
X023878Y012700D02*
X000380Y012700D01*
X000380Y012622D02*
X023956Y012622D01*
X024035Y012543D02*
X000380Y012543D01*
X000380Y012465D02*
X024113Y012465D01*
X024192Y012386D02*
X000380Y012386D01*
X000380Y012308D02*
X024270Y012308D01*
X024349Y012229D02*
X000380Y012229D01*
X000380Y012151D02*
X024427Y012151D01*
X024506Y012072D02*
X000380Y012072D01*
X000380Y011994D02*
X024584Y011994D01*
X024663Y011915D02*
X000380Y011915D01*
X000380Y013878D02*
X008104Y013878D01*
X007990Y013956D02*
X000380Y013956D01*
X000380Y014035D02*
X007943Y014035D01*
X007923Y014113D02*
X000380Y014113D01*
X000380Y014192D02*
X007923Y014192D01*
X007953Y014270D02*
X000380Y014270D01*
X000380Y014349D02*
X008015Y014349D01*
X008178Y014427D02*
X000380Y014427D01*
X000380Y014506D02*
X008257Y014506D01*
X008335Y014584D02*
X000380Y014584D01*
X000380Y014663D02*
X008414Y014663D01*
X008492Y014741D02*
X000380Y014741D01*
X003852Y015369D02*
X014558Y015369D01*
X014636Y015448D02*
X003950Y015448D01*
X004049Y015526D02*
X014715Y015526D01*
X014793Y015605D02*
X004147Y015605D01*
X004214Y015683D02*
X014872Y015683D01*
X014950Y015762D02*
X004277Y015762D01*
X004340Y015840D02*
X015029Y015840D01*
X015107Y015919D02*
X004402Y015919D01*
X004465Y015997D02*
X015186Y015997D01*
X015264Y016076D02*
X004527Y016076D01*
X004564Y016154D02*
X015343Y016154D01*
X015391Y016233D02*
X004602Y016233D01*
X004640Y016311D02*
X015400Y016311D01*
X015433Y016390D02*
X004678Y016390D01*
X004716Y016468D02*
X015451Y016468D01*
X015451Y016547D02*
X004753Y016547D01*
X004785Y016625D02*
X015451Y016625D01*
X015451Y016704D02*
X004803Y016704D01*
X004821Y016782D02*
X015451Y016782D01*
X015451Y016861D02*
X004839Y016861D01*
X004857Y016939D02*
X015451Y016939D01*
X015451Y017018D02*
X004875Y017018D01*
X004893Y017096D02*
X015451Y017096D01*
X015451Y017175D02*
X004910Y017175D01*
X004910Y017253D02*
X015451Y017253D01*
X015451Y017332D02*
X004910Y017332D01*
X004910Y017410D02*
X015451Y017410D01*
X015451Y017489D02*
X004910Y017489D01*
X004910Y017567D02*
X015451Y017567D01*
X015451Y017646D02*
X004910Y017646D01*
X004910Y017724D02*
X015451Y017724D01*
X015451Y017803D02*
X004900Y017803D01*
X004882Y017881D02*
X015451Y017881D01*
X015451Y017960D02*
X004864Y017960D01*
X004846Y018038D02*
X015451Y018038D01*
X015451Y018117D02*
X004828Y018117D01*
X004810Y018195D02*
X015451Y018195D01*
X015451Y018274D02*
X004792Y018274D01*
X004769Y018352D02*
X015451Y018352D01*
X015451Y018431D02*
X004731Y018431D01*
X004693Y018509D02*
X015451Y018509D01*
X015451Y018588D02*
X004655Y018588D01*
X004617Y018666D02*
X015451Y018666D01*
X015451Y018745D02*
X004580Y018745D01*
X004542Y018823D02*
X006894Y018823D01*
X006807Y018902D02*
X004490Y018902D01*
X004427Y018980D02*
X006751Y018980D01*
X006718Y019059D02*
X004365Y019059D01*
X004302Y019137D02*
X006705Y019137D01*
X006705Y019216D02*
X004239Y019216D01*
X004177Y019294D02*
X006723Y019294D01*
X006755Y019373D02*
X004088Y019373D01*
X003990Y019451D02*
X006818Y019451D01*
X006919Y019530D02*
X003891Y019530D01*
X003793Y019608D02*
X007910Y019608D01*
X007832Y019530D02*
X007299Y019530D01*
X007400Y019451D02*
X007753Y019451D01*
X007675Y019373D02*
X007462Y019373D01*
X007671Y019171D02*
X012203Y023703D01*
X012203Y024328D01*
X012484Y024609D01*
X012859Y024609D01*
X013359Y025109D01*
X013359Y026109D01*
X012734Y026734D01*
X012734Y027265D01*
X012930Y027066D02*
X016031Y027066D01*
X016031Y027144D02*
X012987Y027144D01*
X013014Y027223D02*
X016031Y027223D01*
X016031Y027301D02*
X013014Y027301D01*
X012989Y027380D02*
X016088Y027380D01*
X016166Y027458D02*
X012937Y027458D01*
X012810Y027537D02*
X016245Y027537D01*
X016323Y027615D02*
X011467Y027615D01*
X011467Y027537D02*
X012658Y027537D01*
X012531Y027458D02*
X011467Y027458D01*
X011467Y027380D02*
X012478Y027380D01*
X012454Y027301D02*
X011467Y027301D01*
X011467Y027223D02*
X012454Y027223D01*
X012481Y027144D02*
X011467Y027144D01*
X011467Y027066D02*
X012537Y027066D01*
X012594Y026987D02*
X012001Y026987D01*
X011986Y027002D02*
X011883Y027045D01*
X011772Y027045D01*
X011669Y027002D01*
X011590Y026924D01*
X011548Y026821D01*
X011548Y026709D01*
X011590Y026607D01*
X011467Y026729D01*
X011467Y028082D01*
X012573Y029188D01*
X012676Y029188D01*
X012684Y029169D01*
X012763Y029090D01*
X012866Y029048D01*
X012977Y029048D01*
X013080Y029090D01*
X013159Y029169D01*
X013201Y029272D01*
X013201Y029383D01*
X013159Y029486D01*
X013080Y029565D01*
X012977Y029607D01*
X012866Y029607D01*
X012763Y029565D01*
X012684Y029486D01*
X012676Y029467D01*
X012457Y029467D01*
X012375Y029385D01*
X011279Y028289D01*
X011279Y030793D01*
X011197Y030875D01*
X011069Y031003D01*
X011076Y031022D01*
X011076Y031133D01*
X011034Y031236D01*
X010955Y031315D01*
X010852Y031357D01*
X010741Y031357D01*
X010638Y031315D01*
X010559Y031236D01*
X010516Y031133D01*
X010516Y031022D01*
X010559Y030919D01*
X010638Y030840D01*
X010741Y030798D01*
X010852Y030798D01*
X010871Y030805D01*
X010999Y030677D01*
X010999Y026353D01*
X010980Y026345D01*
X010901Y026266D01*
X010859Y026163D01*
X010859Y026076D01*
X010772Y026076D01*
X010669Y026034D01*
X010590Y025955D01*
X010564Y025893D01*
X010549Y025909D01*
X010530Y025916D01*
X010530Y026582D01*
X010624Y026676D01*
X010624Y027104D01*
X010542Y027186D01*
X010260Y027467D01*
X006216Y027467D01*
X006391Y027540D01*
X006590Y027739D01*
X006698Y027999D01*
X006698Y028281D01*
X006590Y028541D01*
X006391Y028740D01*
X006267Y028791D01*
X006366Y028889D01*
X006433Y029052D01*
X006433Y029228D01*
X006366Y029391D01*
X006267Y029489D01*
X006391Y029540D01*
X006590Y029739D01*
X006698Y029999D01*
X006698Y030281D01*
X006590Y030541D01*
X006391Y030740D01*
X006131Y030847D01*
X005850Y030847D01*
X005590Y030740D01*
X005391Y030541D01*
X005283Y030281D01*
X005283Y029999D01*
X005391Y029739D01*
X005590Y029540D01*
X005714Y029489D01*
X005615Y029391D01*
X005548Y029228D01*
X005548Y029052D01*
X005615Y028889D01*
X005714Y028791D01*
X005590Y028740D01*
X005391Y028541D01*
X005283Y028281D01*
X005283Y027999D01*
X005391Y027739D01*
X005590Y027540D01*
X005765Y027467D01*
X003966Y027467D01*
X004141Y027540D01*
X004340Y027739D01*
X004448Y027999D01*
X004448Y028281D01*
X004340Y028541D01*
X004141Y028740D01*
X003881Y028847D01*
X003600Y028847D01*
X003433Y028778D01*
X003433Y028828D01*
X003366Y028991D01*
X003241Y029115D01*
X003181Y029140D01*
X003241Y029165D01*
X003366Y029289D01*
X003433Y029452D01*
X003433Y029502D01*
X003600Y029433D01*
X003881Y029433D01*
X004141Y029540D01*
X004340Y029739D01*
X004448Y029999D01*
X004448Y030281D01*
X004340Y030541D01*
X004141Y030740D01*
X003881Y030847D01*
X003600Y030847D01*
X003340Y030740D01*
X003141Y030541D01*
X003033Y030281D01*
X003033Y029999D01*
X003040Y029982D01*
X002902Y029982D01*
X002740Y029915D01*
X002615Y029791D01*
X002548Y029628D01*
X002548Y029452D01*
X002615Y029289D01*
X002740Y029165D01*
X002800Y029140D01*
X002740Y029115D01*
X002615Y028991D01*
X002548Y028828D01*
X002548Y028652D01*
X002615Y028489D01*
X002740Y028365D01*
X002902Y028298D01*
X003040Y028298D01*
X003033Y028281D01*
X003033Y027999D01*
X003141Y027739D01*
X003340Y027540D01*
X003515Y027467D01*
X003080Y027467D01*
X002606Y027941D01*
X002614Y027959D01*
X002614Y028071D01*
X002572Y028174D01*
X002493Y028252D01*
X002390Y028295D01*
X002278Y028295D01*
X002176Y028252D01*
X002097Y028174D01*
X002054Y028071D01*
X002054Y027959D01*
X002097Y027856D01*
X002176Y027778D01*
X002278Y027735D01*
X002390Y027735D01*
X002408Y027743D01*
X002882Y027270D01*
X002964Y027188D01*
X010145Y027188D01*
X010344Y026988D01*
X010344Y026792D01*
X010332Y026780D01*
X010250Y026698D01*
X010250Y025916D01*
X010231Y025909D01*
X010153Y025830D01*
X010110Y025727D01*
X010110Y025616D01*
X010153Y025513D01*
X010231Y025434D01*
X010334Y025391D01*
X010446Y025391D01*
X010549Y025434D01*
X010627Y025513D01*
X010653Y025575D01*
X010669Y025559D01*
X010772Y025516D01*
X010883Y025516D01*
X010986Y025559D01*
X011065Y025638D01*
X011073Y025656D01*
X011323Y025656D01*
X011542Y025875D01*
X011624Y025957D01*
X011624Y026573D01*
X011669Y026528D01*
X011688Y026520D01*
X011688Y024729D01*
X011558Y024600D01*
X011539Y024607D01*
X011428Y024607D01*
X011325Y024565D01*
X011246Y024486D01*
X011204Y024383D01*
X011204Y024272D01*
X011246Y024169D01*
X011325Y024090D01*
X011428Y024048D01*
X011539Y024048D01*
X011642Y024090D01*
X011721Y024169D01*
X011764Y024272D01*
X011764Y024383D01*
X011756Y024402D01*
X011967Y024613D01*
X011967Y026520D01*
X011986Y026528D01*
X012065Y026606D01*
X012107Y026709D01*
X012107Y026821D01*
X012065Y026924D01*
X011986Y027002D01*
X012071Y026909D02*
X012594Y026909D01*
X012594Y026830D02*
X012104Y026830D01*
X012107Y026752D02*
X012594Y026752D01*
X012596Y026673D02*
X012092Y026673D01*
X012053Y026595D02*
X012675Y026595D01*
X012753Y026516D02*
X011967Y026516D01*
X011967Y026438D02*
X012832Y026438D01*
X012910Y026359D02*
X011967Y026359D01*
X011967Y026281D02*
X012989Y026281D01*
X012963Y026214D02*
X012935Y026214D01*
X012908Y026214D01*
X012854Y026204D01*
X012803Y026183D01*
X012788Y026172D01*
X012772Y026183D01*
X012721Y026204D01*
X012667Y026214D01*
X012640Y026214D01*
X012613Y026214D01*
X012559Y026204D01*
X012508Y026183D01*
X012492Y026172D01*
X012477Y026183D01*
X012426Y026204D01*
X012372Y026214D01*
X012345Y026214D01*
X012345Y025935D01*
X012345Y025935D01*
X012361Y025935D01*
X012640Y025935D01*
X012640Y025640D01*
X012919Y025640D01*
X012935Y025640D01*
X012640Y025640D01*
X012640Y025640D01*
X012640Y025640D01*
X012640Y025656D01*
X012640Y025935D01*
X012640Y025935D01*
X012640Y025935D01*
X012935Y025935D01*
X012935Y025935D01*
X012935Y025935D01*
X012935Y025656D01*
X012935Y025640D01*
X012935Y025640D01*
X012935Y025640D01*
X012935Y025640D01*
X012935Y025345D01*
X012935Y025345D01*
X012935Y025345D01*
X012919Y025345D01*
X012640Y025345D01*
X012640Y025640D01*
X012640Y025640D01*
X012345Y025640D01*
X012345Y025640D01*
X012361Y025640D01*
X012640Y025640D01*
X012640Y025624D01*
X012640Y025345D01*
X012640Y025345D01*
X012640Y025345D01*
X012345Y025345D01*
X012345Y025345D01*
X012345Y025345D01*
X012345Y025624D01*
X012345Y025640D01*
X012345Y025640D01*
X012345Y025935D01*
X012345Y025935D01*
X012640Y025935D01*
X012640Y025935D01*
X012919Y025935D01*
X012935Y025935D01*
X012935Y025640D01*
X012935Y025624D01*
X012935Y025345D01*
X012640Y025345D01*
X012640Y025345D01*
X012361Y025345D01*
X012345Y025345D01*
X012345Y025640D01*
X012345Y025640D01*
X012345Y025656D01*
X012345Y025935D01*
X012066Y025935D01*
X012066Y025908D01*
X012076Y025854D01*
X012097Y025803D01*
X012108Y025788D01*
X012097Y025772D01*
X012076Y025721D01*
X012066Y025667D01*
X012066Y025640D01*
X012066Y025613D01*
X012076Y025559D01*
X012097Y025508D01*
X012108Y025492D01*
X012097Y025477D01*
X012076Y025426D01*
X012066Y025372D01*
X012066Y025345D01*
X012345Y025345D01*
X012345Y025066D01*
X012372Y025066D01*
X012426Y025076D01*
X012477Y025097D01*
X012492Y025108D01*
X012508Y025097D01*
X012559Y025076D01*
X012613Y025066D01*
X012640Y025066D01*
X012667Y025066D01*
X012721Y025076D01*
X012772Y025097D01*
X012788Y025108D01*
X012803Y025097D01*
X012854Y025076D01*
X012908Y025066D01*
X012935Y025066D01*
X012935Y025345D01*
X012935Y025345D01*
X013214Y025345D01*
X013214Y025372D01*
X013204Y025426D01*
X013183Y025477D01*
X013172Y025492D01*
X013183Y025508D01*
X013204Y025559D01*
X013214Y025613D01*
X013214Y025640D01*
X012935Y025640D01*
X012935Y025640D01*
X013214Y025640D01*
X013214Y025667D01*
X013204Y025721D01*
X013183Y025772D01*
X013172Y025788D01*
X013183Y025803D01*
X013204Y025854D01*
X013214Y025908D01*
X013214Y025935D01*
X012935Y025935D01*
X012935Y026214D01*
X012935Y025935D01*
X012935Y025935D01*
X012935Y025935D01*
X013214Y025935D01*
X013214Y025963D01*
X013204Y026017D01*
X013183Y026067D01*
X013152Y026113D01*
X013113Y026152D01*
X013067Y026183D01*
X013017Y026204D01*
X012963Y026214D01*
X012935Y026202D02*
X012935Y026202D01*
X012935Y026124D02*
X012935Y026124D01*
X012935Y026045D02*
X012935Y026045D01*
X012935Y025967D02*
X012935Y025967D01*
X012935Y025888D02*
X012935Y025888D01*
X012935Y025810D02*
X012935Y025810D01*
X012935Y025731D02*
X012935Y025731D01*
X012935Y025653D02*
X012935Y025653D01*
X012935Y025574D02*
X012935Y025574D01*
X012935Y025496D02*
X012935Y025496D01*
X012935Y025417D02*
X012935Y025417D01*
X012935Y025345D02*
X012935Y025345D01*
X012935Y025066D01*
X012963Y025066D01*
X013017Y025076D01*
X013067Y025097D01*
X013113Y025128D01*
X013152Y025167D01*
X013183Y025213D01*
X013204Y025263D01*
X013214Y025317D01*
X013214Y025345D01*
X012935Y025345D01*
X012935Y025339D02*
X012935Y025339D01*
X012935Y025260D02*
X012935Y025260D01*
X012935Y025182D02*
X012935Y025182D01*
X012935Y025103D02*
X012935Y025103D01*
X012795Y025103D02*
X012781Y025103D01*
X012640Y025103D02*
X012640Y025103D01*
X012640Y025066D02*
X012640Y025345D01*
X012640Y025345D01*
X012640Y025066D01*
X012640Y025182D02*
X012640Y025182D01*
X012640Y025260D02*
X012640Y025260D01*
X012640Y025339D02*
X012640Y025339D01*
X012640Y025417D02*
X012640Y025417D01*
X012640Y025496D02*
X012640Y025496D01*
X012640Y025574D02*
X012640Y025574D01*
X012640Y025640D02*
X012640Y025640D01*
X012640Y025653D02*
X012640Y025653D01*
X012640Y025731D02*
X012640Y025731D01*
X012640Y025810D02*
X012640Y025810D01*
X012640Y025888D02*
X012640Y025888D01*
X012640Y025935D02*
X012640Y026214D01*
X012640Y025935D01*
X012640Y025935D01*
X012640Y025967D02*
X012640Y025967D01*
X012640Y026045D02*
X012640Y026045D01*
X012640Y026124D02*
X012640Y026124D01*
X012640Y026202D02*
X012640Y026202D01*
X012725Y026202D02*
X012850Y026202D01*
X013020Y026202D02*
X013067Y026202D01*
X013142Y026124D02*
X013146Y026124D01*
X013192Y026045D02*
X013219Y026045D01*
X013214Y025967D02*
X013219Y025967D01*
X013210Y025888D02*
X013219Y025888D01*
X013219Y025810D02*
X013185Y025810D01*
X013200Y025731D02*
X013219Y025731D01*
X013214Y025653D02*
X013219Y025653D01*
X013207Y025574D02*
X013219Y025574D01*
X013219Y025496D02*
X013174Y025496D01*
X013205Y025417D02*
X013219Y025417D01*
X013214Y025339D02*
X013219Y025339D01*
X013219Y025260D02*
X013202Y025260D01*
X013219Y025182D02*
X013162Y025182D01*
X013155Y025103D02*
X013076Y025103D01*
X013077Y025025D02*
X011967Y025025D01*
X011967Y025103D02*
X012204Y025103D01*
X012213Y025097D02*
X012263Y025076D01*
X012317Y025066D01*
X012345Y025066D01*
X012345Y025345D01*
X012345Y025345D01*
X012345Y025345D01*
X012066Y025345D01*
X012066Y025317D01*
X012076Y025263D01*
X012097Y025213D01*
X012128Y025167D01*
X012167Y025128D01*
X012213Y025097D01*
X012118Y025182D02*
X011967Y025182D01*
X011967Y025260D02*
X012078Y025260D01*
X012066Y025339D02*
X011967Y025339D01*
X011967Y025417D02*
X012075Y025417D01*
X012106Y025496D02*
X011967Y025496D01*
X011967Y025574D02*
X012073Y025574D01*
X012066Y025640D02*
X012345Y025640D01*
X012345Y025640D01*
X012066Y025640D01*
X012066Y025653D02*
X011967Y025653D01*
X011967Y025731D02*
X012080Y025731D01*
X012095Y025810D02*
X011967Y025810D01*
X011967Y025888D02*
X012070Y025888D01*
X012066Y025935D02*
X012345Y025935D01*
X012345Y025935D01*
X012345Y025935D01*
X012345Y026214D01*
X012317Y026214D01*
X012263Y026204D01*
X012213Y026183D01*
X012167Y026152D01*
X012128Y026113D01*
X012097Y026067D01*
X012076Y026017D01*
X012066Y025963D01*
X012066Y025935D01*
X012066Y025967D02*
X011967Y025967D01*
X011967Y026045D02*
X012088Y026045D01*
X012138Y026124D02*
X011967Y026124D01*
X011967Y026202D02*
X012260Y026202D01*
X012345Y026202D02*
X012345Y026202D01*
X012345Y026124D02*
X012345Y026124D01*
X012345Y026045D02*
X012345Y026045D01*
X012345Y025967D02*
X012345Y025967D01*
X012345Y025888D02*
X012345Y025888D01*
X012345Y025810D02*
X012345Y025810D01*
X012345Y025731D02*
X012345Y025731D01*
X012345Y025653D02*
X012345Y025653D01*
X012345Y025574D02*
X012345Y025574D01*
X012345Y025496D02*
X012345Y025496D01*
X012345Y025417D02*
X012345Y025417D01*
X012345Y025339D02*
X012345Y025339D01*
X012345Y025260D02*
X012345Y025260D01*
X012345Y025182D02*
X012345Y025182D01*
X012345Y025103D02*
X012345Y025103D01*
X012485Y025103D02*
X012499Y025103D01*
X012388Y024711D02*
X011967Y024711D01*
X011967Y024789D02*
X012841Y024789D01*
X012920Y024868D02*
X011967Y024868D01*
X011967Y024946D02*
X012998Y024946D01*
X013159Y024711D02*
X013856Y024711D01*
X013778Y024632D02*
X013080Y024632D01*
X013002Y024554D02*
X013699Y024554D01*
X013621Y024475D02*
X012923Y024475D01*
X012842Y024397D02*
X013542Y024397D01*
X013546Y024203D02*
X013921Y024578D01*
X015421Y024578D01*
X016171Y025328D01*
X016171Y027265D01*
X016859Y027953D01*
X016965Y027694D02*
X017021Y027694D01*
X017021Y027615D02*
X016719Y027615D01*
X016641Y027537D02*
X017021Y027537D01*
X017021Y027458D02*
X016562Y027458D01*
X016484Y027380D02*
X017021Y027380D01*
X017021Y027301D02*
X016405Y027301D01*
X016327Y027223D02*
X017021Y027223D01*
X017021Y027144D02*
X016311Y027144D01*
X016311Y027066D02*
X017021Y027066D01*
X017021Y026987D02*
X016311Y026987D01*
X016311Y026909D02*
X017021Y026909D01*
X017021Y026830D02*
X016311Y026830D01*
X016311Y026752D02*
X017021Y026752D01*
X017021Y026673D02*
X016311Y026673D01*
X016311Y026595D02*
X017021Y026595D01*
X017021Y026516D02*
X016311Y026516D01*
X016311Y026438D02*
X017021Y026438D01*
X017021Y026359D02*
X016311Y026359D01*
X016311Y026281D02*
X017021Y026281D01*
X017021Y026202D02*
X016311Y026202D01*
X016311Y026124D02*
X017021Y026124D01*
X017021Y026045D02*
X016311Y026045D01*
X016311Y025967D02*
X017021Y025967D01*
X017021Y025888D02*
X016311Y025888D01*
X016311Y025810D02*
X017021Y025810D01*
X017021Y025731D02*
X016311Y025731D01*
X016311Y025653D02*
X017021Y025653D01*
X017021Y025574D02*
X016311Y025574D01*
X016311Y025496D02*
X017021Y025496D01*
X017021Y025417D02*
X016311Y025417D01*
X016311Y025339D02*
X017021Y025339D01*
X017021Y025260D02*
X016302Y025260D01*
X016223Y025182D02*
X017021Y025182D01*
X017021Y025103D02*
X016145Y025103D01*
X016066Y025025D02*
X017021Y025025D01*
X017021Y024946D02*
X015988Y024946D01*
X015909Y024868D02*
X017021Y024868D01*
X017021Y024789D02*
X015831Y024789D01*
X015752Y024711D02*
X017021Y024711D01*
X017021Y024632D02*
X015674Y024632D01*
X015595Y024554D02*
X017021Y024554D01*
X017021Y024475D02*
X015517Y024475D01*
X015435Y024789D02*
X013237Y024789D01*
X013316Y024868D02*
X015513Y024868D01*
X015592Y024946D02*
X013394Y024946D01*
X013473Y025025D02*
X015670Y025025D01*
X015749Y025103D02*
X013499Y025103D01*
X013499Y025182D02*
X015827Y025182D01*
X015906Y025260D02*
X013499Y025260D01*
X013499Y025339D02*
X015984Y025339D01*
X016031Y025417D02*
X013499Y025417D01*
X013499Y025496D02*
X016031Y025496D01*
X016031Y025574D02*
X013499Y025574D01*
X013499Y025653D02*
X016031Y025653D01*
X016031Y025731D02*
X013499Y025731D01*
X013499Y025810D02*
X016031Y025810D01*
X016031Y025888D02*
X013499Y025888D01*
X013499Y025967D02*
X016031Y025967D01*
X016031Y026045D02*
X013499Y026045D01*
X013499Y026124D02*
X016031Y026124D01*
X016031Y026202D02*
X013463Y026202D01*
X013385Y026281D02*
X016031Y026281D01*
X016031Y026359D02*
X013306Y026359D01*
X013228Y026438D02*
X016031Y026438D01*
X016031Y026516D02*
X013149Y026516D01*
X013071Y026595D02*
X016031Y026595D01*
X016031Y026673D02*
X012992Y026673D01*
X012914Y026752D02*
X016031Y026752D01*
X016031Y026830D02*
X012874Y026830D01*
X012874Y026909D02*
X016031Y026909D01*
X016031Y026987D02*
X012874Y026987D01*
X012555Y026202D02*
X012430Y026202D01*
X011828Y026765D02*
X011828Y024671D01*
X011484Y024328D01*
X011764Y024318D02*
X012063Y024318D01*
X012063Y024240D02*
X011750Y024240D01*
X011713Y024161D02*
X012063Y024161D01*
X012063Y024083D02*
X011624Y024083D01*
X011343Y024083D02*
X005474Y024083D01*
X005471Y024075D02*
X005514Y024178D01*
X005514Y024289D01*
X005471Y024392D01*
X005414Y024450D01*
X005414Y025659D01*
X005308Y025764D01*
X005114Y025958D01*
X005114Y026039D01*
X005072Y026142D01*
X005014Y026200D01*
X005014Y026205D01*
X005050Y026241D01*
X008891Y026241D01*
X008891Y026178D01*
X008934Y026075D01*
X009013Y025996D01*
X009116Y025954D01*
X009227Y025954D01*
X009330Y025996D01*
X009409Y026075D01*
X009451Y026178D01*
X009451Y026289D01*
X009409Y026392D01*
X009330Y026471D01*
X009227Y026514D01*
X009146Y026514D01*
X009058Y026601D01*
X005050Y026601D01*
X005014Y026637D01*
X005014Y026643D01*
X005072Y026700D01*
X005114Y026803D01*
X005114Y026914D01*
X005072Y027017D01*
X004993Y027096D01*
X004890Y027139D01*
X004778Y027139D01*
X004676Y027096D01*
X004597Y027017D01*
X004554Y026914D01*
X004554Y026803D01*
X004597Y026700D01*
X004654Y026643D01*
X004654Y026637D01*
X004597Y026580D01*
X004554Y026477D01*
X004554Y026366D01*
X004597Y026263D01*
X004654Y026205D01*
X004654Y026200D01*
X004597Y026142D01*
X004554Y026039D01*
X004554Y025928D01*
X004597Y025825D01*
X004676Y025746D01*
X004778Y025704D01*
X004860Y025704D01*
X005054Y025510D01*
X005054Y024450D01*
X004996Y024392D01*
X004954Y024289D01*
X004954Y024178D01*
X004996Y024075D01*
X005075Y023996D01*
X005178Y023954D01*
X005289Y023954D01*
X005392Y023996D01*
X005471Y024075D01*
X005507Y024161D02*
X011254Y024161D01*
X011217Y024240D02*
X005514Y024240D01*
X005502Y024318D02*
X011204Y024318D01*
X011209Y024397D02*
X005467Y024397D01*
X005414Y024475D02*
X011242Y024475D01*
X011314Y024554D02*
X005414Y024554D01*
X005414Y024632D02*
X011590Y024632D01*
X011669Y024711D02*
X008975Y024711D01*
X008986Y024715D02*
X009065Y024794D01*
X009107Y024897D01*
X009107Y025008D01*
X009065Y025111D01*
X008986Y025190D01*
X008883Y025232D01*
X008772Y025232D01*
X008753Y025225D01*
X008655Y025323D01*
X008655Y025426D01*
X008674Y025434D01*
X008752Y025513D01*
X008795Y025616D01*
X008795Y025727D01*
X008752Y025830D01*
X008674Y025909D01*
X008571Y025951D01*
X008459Y025951D01*
X008356Y025909D01*
X008278Y025830D01*
X008235Y025727D01*
X008235Y025616D01*
X008278Y025513D01*
X008356Y025434D01*
X008375Y025426D01*
X008375Y025207D01*
X008555Y025027D01*
X008548Y025008D01*
X008548Y024897D01*
X008590Y024794D01*
X008669Y024715D01*
X008772Y024673D01*
X008883Y024673D01*
X008986Y024715D01*
X009060Y024789D02*
X011688Y024789D01*
X011688Y024868D02*
X009095Y024868D01*
X009107Y024946D02*
X011688Y024946D01*
X011688Y025025D02*
X009101Y025025D01*
X009068Y025103D02*
X011688Y025103D01*
X011688Y025182D02*
X008994Y025182D01*
X008828Y024953D02*
X008515Y025265D01*
X008515Y025671D01*
X008778Y025574D02*
X010127Y025574D01*
X010110Y025653D02*
X008795Y025653D01*
X008793Y025731D02*
X010112Y025731D01*
X010144Y025810D02*
X008761Y025810D01*
X008694Y025888D02*
X010211Y025888D01*
X010250Y025967D02*
X009258Y025967D01*
X009379Y026045D02*
X010250Y026045D01*
X010250Y026124D02*
X009429Y026124D01*
X009451Y026202D02*
X010250Y026202D01*
X010250Y026281D02*
X009451Y026281D01*
X009422Y026359D02*
X010250Y026359D01*
X010250Y026438D02*
X009363Y026438D01*
X009143Y026516D02*
X010250Y026516D01*
X010250Y026595D02*
X009065Y026595D01*
X008891Y026202D02*
X005014Y026202D01*
X005079Y026124D02*
X008914Y026124D01*
X008964Y026045D02*
X005112Y026045D01*
X005114Y025967D02*
X009085Y025967D01*
X008735Y025496D02*
X010170Y025496D01*
X010272Y025417D02*
X008655Y025417D01*
X008655Y025339D02*
X011688Y025339D01*
X011688Y025417D02*
X010508Y025417D01*
X010610Y025496D02*
X011688Y025496D01*
X011688Y025574D02*
X011001Y025574D01*
X011071Y025653D02*
X011688Y025653D01*
X011688Y025731D02*
X011398Y025731D01*
X011476Y025810D02*
X011688Y025810D01*
X011688Y025888D02*
X011555Y025888D01*
X011624Y025967D02*
X011688Y025967D01*
X011688Y026045D02*
X011624Y026045D01*
X011624Y026124D02*
X011688Y026124D01*
X011688Y026202D02*
X011624Y026202D01*
X011624Y026281D02*
X011688Y026281D01*
X011688Y026359D02*
X011624Y026359D01*
X011624Y026438D02*
X011688Y026438D01*
X011688Y026516D02*
X011624Y026516D01*
X011484Y026515D02*
X011328Y026671D01*
X011328Y028140D01*
X012515Y029328D01*
X012921Y029328D01*
X012793Y029578D02*
X011279Y029578D01*
X011279Y029656D02*
X014135Y029656D01*
X014169Y029690D02*
X014090Y029611D01*
X014048Y029508D01*
X014048Y029397D01*
X014090Y029294D01*
X014165Y029219D01*
X014165Y028960D01*
X014146Y028960D01*
X014087Y028901D01*
X014087Y028504D01*
X014146Y028445D01*
X014544Y028445D01*
X014602Y028504D01*
X014602Y028901D01*
X014544Y028960D01*
X014525Y028960D01*
X014525Y029254D01*
X014565Y029294D01*
X014607Y029397D01*
X014607Y029508D01*
X014565Y029611D01*
X014486Y029690D01*
X014383Y029732D01*
X014272Y029732D01*
X014169Y029690D01*
X014076Y029578D02*
X013049Y029578D01*
X013146Y029499D02*
X014048Y029499D01*
X014048Y029421D02*
X013186Y029421D01*
X013201Y029342D02*
X014070Y029342D01*
X014120Y029264D02*
X013198Y029264D01*
X013165Y029185D02*
X014165Y029185D01*
X014165Y029107D02*
X013096Y029107D01*
X012746Y029107D02*
X012492Y029107D01*
X012571Y029185D02*
X012677Y029185D01*
X012414Y029028D02*
X014165Y029028D01*
X014135Y028950D02*
X012335Y028950D01*
X012257Y028871D02*
X014087Y028871D01*
X014087Y028793D02*
X012178Y028793D01*
X012100Y028714D02*
X014087Y028714D01*
X014087Y028636D02*
X012021Y028636D01*
X011943Y028557D02*
X014087Y028557D01*
X014112Y028479D02*
X011864Y028479D01*
X011786Y028400D02*
X014730Y028400D01*
X014730Y028451D02*
X014730Y028157D01*
X014653Y028080D01*
X014610Y027977D01*
X014610Y027866D01*
X014653Y027763D01*
X014731Y027684D01*
X014834Y027641D01*
X014946Y027641D01*
X015049Y027684D01*
X015127Y027763D01*
X015170Y027866D01*
X015170Y027977D01*
X015127Y028080D01*
X015050Y028157D01*
X015050Y028445D01*
X015134Y028445D01*
X015193Y028504D01*
X015193Y028901D01*
X015134Y028960D01*
X014736Y028960D01*
X014678Y028901D01*
X014678Y028504D01*
X014730Y028451D01*
X014703Y028479D02*
X014577Y028479D01*
X014602Y028557D02*
X014678Y028557D01*
X014678Y028636D02*
X014602Y028636D01*
X014602Y028714D02*
X014678Y028714D01*
X014678Y028793D02*
X014602Y028793D01*
X014602Y028871D02*
X014678Y028871D01*
X014726Y028950D02*
X014554Y028950D01*
X014525Y029028D02*
X016082Y029028D01*
X016130Y029076D02*
X016016Y028962D01*
X015955Y028814D01*
X015955Y028653D01*
X016016Y028505D01*
X016130Y028391D01*
X016278Y028330D01*
X016439Y028330D01*
X016587Y028391D01*
X016701Y028505D01*
X016762Y028653D01*
X016762Y028814D01*
X016701Y028962D01*
X016587Y029076D01*
X016439Y029137D01*
X016278Y029137D01*
X016130Y029076D01*
X016204Y029107D02*
X014525Y029107D01*
X014525Y029185D02*
X017021Y029185D01*
X017021Y029107D02*
X016514Y029107D01*
X016635Y029028D02*
X017021Y029028D01*
X017021Y028950D02*
X016706Y028950D01*
X016739Y028871D02*
X017021Y028871D01*
X017021Y028793D02*
X016762Y028793D01*
X016762Y028714D02*
X017021Y028714D01*
X017021Y028636D02*
X016755Y028636D01*
X016723Y028557D02*
X017021Y028557D01*
X017021Y028479D02*
X016675Y028479D01*
X016596Y028400D02*
X017021Y028400D01*
X017021Y028322D02*
X015050Y028322D01*
X015050Y028400D02*
X016121Y028400D01*
X016043Y028479D02*
X015168Y028479D01*
X015193Y028557D02*
X015995Y028557D01*
X015962Y028636D02*
X015193Y028636D01*
X015193Y028714D02*
X015955Y028714D01*
X015955Y028793D02*
X015193Y028793D01*
X015193Y028871D02*
X015979Y028871D01*
X016011Y028950D02*
X015145Y028950D01*
X014585Y029342D02*
X017021Y029342D01*
X017021Y029264D02*
X014535Y029264D01*
X014607Y029421D02*
X017021Y029421D01*
X017021Y029499D02*
X016601Y029499D01*
X016587Y029485D02*
X016701Y029599D01*
X016762Y029747D01*
X016762Y029908D01*
X016701Y030056D01*
X016587Y030170D01*
X016439Y030231D01*
X016278Y030231D01*
X016130Y030170D01*
X016016Y030056D01*
X015955Y029908D01*
X015955Y029747D01*
X016016Y029599D01*
X016130Y029485D01*
X016278Y029424D01*
X016439Y029424D01*
X016587Y029485D01*
X016680Y029578D02*
X017021Y029578D01*
X017021Y029656D02*
X016725Y029656D01*
X016757Y029735D02*
X017021Y029735D01*
X017021Y029813D02*
X016762Y029813D01*
X016762Y029892D02*
X017021Y029892D01*
X017021Y029970D02*
X016737Y029970D01*
X016704Y030049D02*
X017021Y030049D01*
X017021Y030127D02*
X016630Y030127D01*
X016501Y030206D02*
X017021Y030206D01*
X017021Y030284D02*
X011279Y030284D01*
X011279Y030206D02*
X016217Y030206D01*
X016087Y030127D02*
X011279Y030127D01*
X011279Y030049D02*
X016013Y030049D01*
X015981Y029970D02*
X011279Y029970D01*
X011279Y029892D02*
X015955Y029892D01*
X015955Y029813D02*
X011279Y029813D01*
X011279Y029735D02*
X015960Y029735D01*
X015993Y029656D02*
X014520Y029656D01*
X014579Y029578D02*
X016038Y029578D01*
X016116Y029499D02*
X014607Y029499D01*
X014730Y028322D02*
X011707Y028322D01*
X011629Y028243D02*
X014730Y028243D01*
X014730Y028165D02*
X011550Y028165D01*
X011472Y028086D02*
X014659Y028086D01*
X014623Y028008D02*
X011467Y028008D01*
X011467Y027929D02*
X014610Y027929D01*
X014616Y027851D02*
X011467Y027851D01*
X011467Y027772D02*
X014649Y027772D01*
X014722Y027694D02*
X011467Y027694D01*
X010999Y027694D02*
X006545Y027694D01*
X006604Y027772D02*
X010999Y027772D01*
X010999Y027851D02*
X006636Y027851D01*
X006669Y027929D02*
X010999Y027929D01*
X010999Y028008D02*
X006698Y028008D01*
X006698Y028086D02*
X010999Y028086D01*
X010999Y028165D02*
X006698Y028165D01*
X006698Y028243D02*
X010999Y028243D01*
X010999Y028322D02*
X006681Y028322D01*
X006648Y028400D02*
X008286Y028400D01*
X008420Y028345D02*
X008078Y028486D01*
X007817Y028748D01*
X007676Y029089D01*
X007676Y029459D01*
X007817Y029800D01*
X008078Y030061D01*
X008420Y030203D01*
X008789Y030203D01*
X009131Y030061D01*
X009392Y029800D01*
X009534Y029459D01*
X009534Y029089D01*
X009392Y028748D01*
X009131Y028486D01*
X008789Y028345D01*
X008420Y028345D01*
X008097Y028479D02*
X006616Y028479D01*
X006574Y028557D02*
X008008Y028557D01*
X007929Y028636D02*
X006495Y028636D01*
X006417Y028714D02*
X007851Y028714D01*
X007798Y028793D02*
X006269Y028793D01*
X006347Y028871D02*
X007766Y028871D01*
X007733Y028950D02*
X006390Y028950D01*
X006423Y029028D02*
X007701Y029028D01*
X007676Y029107D02*
X006433Y029107D01*
X006433Y029185D02*
X007676Y029185D01*
X007676Y029264D02*
X006418Y029264D01*
X006386Y029342D02*
X007676Y029342D01*
X007676Y029421D02*
X006336Y029421D01*
X006292Y029499D02*
X007692Y029499D01*
X007725Y029578D02*
X006429Y029578D01*
X006507Y029656D02*
X007757Y029656D01*
X007790Y029735D02*
X006586Y029735D01*
X006621Y029813D02*
X007830Y029813D01*
X007909Y029892D02*
X006653Y029892D01*
X006686Y029970D02*
X007987Y029970D01*
X008066Y030049D02*
X006698Y030049D01*
X006698Y030127D02*
X008237Y030127D01*
X008972Y030127D02*
X010999Y030127D01*
X010999Y030049D02*
X009144Y030049D01*
X009222Y029970D02*
X010999Y029970D01*
X010999Y029892D02*
X009301Y029892D01*
X009379Y029813D02*
X010999Y029813D01*
X010999Y029735D02*
X009419Y029735D01*
X009452Y029656D02*
X010999Y029656D01*
X010999Y029578D02*
X009484Y029578D01*
X009517Y029499D02*
X010999Y029499D01*
X010999Y029421D02*
X009534Y029421D01*
X009534Y029342D02*
X010999Y029342D01*
X010999Y029264D02*
X009534Y029264D01*
X009534Y029185D02*
X010999Y029185D01*
X010999Y029107D02*
X009534Y029107D01*
X009508Y029028D02*
X010999Y029028D01*
X010999Y028950D02*
X009476Y028950D01*
X009443Y028871D02*
X010999Y028871D01*
X010999Y028793D02*
X009411Y028793D01*
X009359Y028714D02*
X010999Y028714D01*
X010999Y028636D02*
X009280Y028636D01*
X009202Y028557D02*
X010999Y028557D01*
X010999Y028479D02*
X009112Y028479D01*
X008923Y028400D02*
X010999Y028400D01*
X011279Y028400D02*
X011390Y028400D01*
X011468Y028479D02*
X011279Y028479D01*
X011279Y028557D02*
X011547Y028557D01*
X011625Y028636D02*
X011279Y028636D01*
X011279Y028714D02*
X011704Y028714D01*
X011782Y028793D02*
X011279Y028793D01*
X011279Y028871D02*
X011861Y028871D01*
X011939Y028950D02*
X011279Y028950D01*
X011279Y029028D02*
X012018Y029028D01*
X012096Y029107D02*
X011279Y029107D01*
X011279Y029185D02*
X012175Y029185D01*
X012253Y029264D02*
X011279Y029264D01*
X011279Y029342D02*
X012332Y029342D01*
X012410Y029421D02*
X011279Y029421D01*
X011279Y029499D02*
X012697Y029499D01*
X011279Y030363D02*
X017021Y030363D01*
X017021Y030441D02*
X011279Y030441D01*
X011279Y030520D02*
X017021Y030520D01*
X017021Y030598D02*
X011279Y030598D01*
X011279Y030677D02*
X017021Y030677D01*
X017021Y030755D02*
X011279Y030755D01*
X011238Y030834D02*
X017021Y030834D01*
X017021Y030912D02*
X011160Y030912D01*
X011081Y030991D02*
X017021Y030991D01*
X016999Y031069D02*
X011076Y031069D01*
X011070Y031148D02*
X016920Y031148D01*
X016842Y031226D02*
X011038Y031226D01*
X010965Y031305D02*
X016763Y031305D01*
X016685Y031383D02*
X000380Y031383D01*
X000380Y031305D02*
X010627Y031305D01*
X010555Y031226D02*
X000380Y031226D01*
X000380Y031148D02*
X010522Y031148D01*
X010516Y031069D02*
X000380Y031069D01*
X000380Y030991D02*
X010529Y030991D01*
X010566Y030912D02*
X000380Y030912D01*
X000380Y030834D02*
X003566Y030834D01*
X003377Y030755D02*
X000380Y030755D01*
X000380Y030677D02*
X003276Y030677D01*
X003198Y030598D02*
X000380Y030598D01*
X000380Y030520D02*
X003132Y030520D01*
X003099Y030441D02*
X000380Y030441D01*
X000380Y030363D02*
X003067Y030363D01*
X003034Y030284D02*
X000380Y030284D01*
X000380Y030206D02*
X003033Y030206D01*
X003033Y030127D02*
X000380Y030127D01*
X000380Y030049D02*
X003033Y030049D01*
X002872Y029970D02*
X000380Y029970D01*
X000380Y029892D02*
X002716Y029892D01*
X002638Y029813D02*
X000380Y029813D01*
X000380Y029735D02*
X002592Y029735D01*
X002560Y029656D02*
X000380Y029656D01*
X000380Y029578D02*
X002548Y029578D01*
X002548Y029499D02*
X000380Y029499D01*
X000380Y029421D02*
X002561Y029421D01*
X002593Y029342D02*
X000380Y029342D01*
X000380Y029264D02*
X002641Y029264D01*
X002720Y029185D02*
X000380Y029185D01*
X000380Y029107D02*
X002731Y029107D01*
X002653Y029028D02*
X000380Y029028D01*
X000380Y028950D02*
X002598Y028950D01*
X002566Y028871D02*
X000380Y028871D01*
X000380Y028793D02*
X002548Y028793D01*
X002548Y028714D02*
X000380Y028714D01*
X000380Y028636D02*
X002555Y028636D01*
X002587Y028557D02*
X000380Y028557D01*
X000380Y028479D02*
X002626Y028479D01*
X002705Y028400D02*
X000380Y028400D01*
X000380Y028322D02*
X002844Y028322D01*
X003033Y028243D02*
X002502Y028243D01*
X002575Y028165D02*
X003033Y028165D01*
X003033Y028086D02*
X002608Y028086D01*
X002614Y028008D02*
X003033Y028008D01*
X003062Y027929D02*
X002618Y027929D01*
X002697Y027851D02*
X003094Y027851D01*
X003127Y027772D02*
X002775Y027772D01*
X002854Y027694D02*
X003186Y027694D01*
X003265Y027615D02*
X002932Y027615D01*
X003011Y027537D02*
X003348Y027537D01*
X003022Y027328D02*
X010203Y027328D01*
X010484Y027046D01*
X010484Y026734D01*
X010390Y026640D01*
X010390Y025671D01*
X010653Y025574D02*
X010654Y025574D01*
X010828Y025796D02*
X011265Y025796D01*
X011484Y026015D01*
X011484Y026515D01*
X011524Y026673D02*
X011563Y026673D01*
X011548Y026752D02*
X011467Y026752D01*
X011467Y026830D02*
X011551Y026830D01*
X011584Y026909D02*
X011467Y026909D01*
X011467Y026987D02*
X011654Y026987D01*
X010999Y026987D02*
X010624Y026987D01*
X010624Y026909D02*
X010999Y026909D01*
X010999Y026830D02*
X010624Y026830D01*
X010624Y026752D02*
X010999Y026752D01*
X010999Y026673D02*
X010621Y026673D01*
X010543Y026595D02*
X010999Y026595D01*
X010999Y026516D02*
X010530Y026516D01*
X010530Y026438D02*
X010999Y026438D01*
X010999Y026359D02*
X010530Y026359D01*
X010530Y026281D02*
X010916Y026281D01*
X010875Y026202D02*
X010530Y026202D01*
X010530Y026124D02*
X010859Y026124D01*
X010697Y026045D02*
X010530Y026045D01*
X010530Y025967D02*
X010602Y025967D01*
X011139Y026108D02*
X011139Y030735D01*
X010796Y031078D01*
X010653Y030834D02*
X006165Y030834D01*
X006354Y030755D02*
X010921Y030755D01*
X010999Y030677D02*
X006454Y030677D01*
X006533Y030598D02*
X010999Y030598D01*
X010999Y030520D02*
X006599Y030520D01*
X006631Y030441D02*
X010999Y030441D01*
X010999Y030363D02*
X006664Y030363D01*
X006696Y030284D02*
X010999Y030284D01*
X010999Y030206D02*
X006698Y030206D01*
X005816Y030834D02*
X003915Y030834D01*
X004104Y030755D02*
X005627Y030755D01*
X005526Y030677D02*
X004204Y030677D01*
X004283Y030598D02*
X005448Y030598D01*
X005382Y030520D02*
X004349Y030520D01*
X004381Y030441D02*
X005349Y030441D01*
X005317Y030363D02*
X004414Y030363D01*
X004446Y030284D02*
X005284Y030284D01*
X005283Y030206D02*
X004448Y030206D01*
X004448Y030127D02*
X005283Y030127D01*
X005283Y030049D02*
X004448Y030049D01*
X004436Y029970D02*
X005295Y029970D01*
X005327Y029892D02*
X004403Y029892D01*
X004371Y029813D02*
X005360Y029813D01*
X005395Y029735D02*
X004336Y029735D01*
X004257Y029656D02*
X005474Y029656D01*
X005552Y029578D02*
X004179Y029578D01*
X004042Y029499D02*
X005689Y029499D01*
X005645Y029421D02*
X003420Y029421D01*
X003433Y029499D02*
X003439Y029499D01*
X003387Y029342D02*
X005595Y029342D01*
X005563Y029264D02*
X003340Y029264D01*
X003261Y029185D02*
X005548Y029185D01*
X005548Y029107D02*
X003250Y029107D01*
X003328Y029028D02*
X005558Y029028D01*
X005590Y028950D02*
X003383Y028950D01*
X003415Y028871D02*
X005634Y028871D01*
X005712Y028793D02*
X004014Y028793D01*
X004167Y028714D02*
X005564Y028714D01*
X005485Y028636D02*
X004245Y028636D01*
X004324Y028557D02*
X005407Y028557D01*
X005365Y028479D02*
X004366Y028479D01*
X004398Y028400D02*
X005332Y028400D01*
X005300Y028322D02*
X004431Y028322D01*
X004448Y028243D02*
X005283Y028243D01*
X005283Y028165D02*
X004448Y028165D01*
X004448Y028086D02*
X005283Y028086D01*
X005283Y028008D02*
X004448Y028008D01*
X004419Y027929D02*
X005312Y027929D01*
X005344Y027851D02*
X004386Y027851D01*
X004354Y027772D02*
X005377Y027772D01*
X005436Y027694D02*
X004295Y027694D01*
X004216Y027615D02*
X005515Y027615D01*
X005598Y027537D02*
X004132Y027537D01*
X004645Y027066D02*
X000380Y027066D01*
X000380Y027144D02*
X010188Y027144D01*
X010266Y027066D02*
X005023Y027066D01*
X005084Y026987D02*
X010344Y026987D01*
X010344Y026909D02*
X005114Y026909D01*
X005114Y026830D02*
X010344Y026830D01*
X010304Y026752D02*
X005093Y026752D01*
X005044Y026673D02*
X010250Y026673D01*
X010624Y027066D02*
X010999Y027066D01*
X010999Y027144D02*
X010584Y027144D01*
X010505Y027223D02*
X010999Y027223D01*
X010999Y027301D02*
X010427Y027301D01*
X010348Y027380D02*
X010999Y027380D01*
X010999Y027458D02*
X010270Y027458D01*
X010999Y027537D02*
X006382Y027537D01*
X006466Y027615D02*
X010999Y027615D01*
X011279Y028322D02*
X011311Y028322D01*
X008336Y025888D02*
X005184Y025888D01*
X005263Y025810D02*
X008269Y025810D01*
X008237Y025731D02*
X005341Y025731D01*
X005414Y025653D02*
X008235Y025653D01*
X008252Y025574D02*
X005414Y025574D01*
X005414Y025496D02*
X008295Y025496D01*
X008375Y025417D02*
X005414Y025417D01*
X005414Y025339D02*
X008375Y025339D01*
X008375Y025260D02*
X005414Y025260D01*
X005414Y025182D02*
X008400Y025182D01*
X008479Y025103D02*
X005414Y025103D01*
X005414Y025025D02*
X008554Y025025D01*
X008548Y024946D02*
X005414Y024946D01*
X005414Y024868D02*
X008560Y024868D01*
X008595Y024789D02*
X005414Y024789D01*
X005414Y024711D02*
X008680Y024711D01*
X008718Y025260D02*
X011688Y025260D01*
X011967Y024632D02*
X012309Y024632D01*
X012231Y024554D02*
X011908Y024554D01*
X011829Y024475D02*
X012152Y024475D01*
X012074Y024397D02*
X011758Y024397D01*
X012063Y024004D02*
X005400Y024004D01*
X005067Y024004D02*
X000380Y024004D01*
X000380Y023926D02*
X012063Y023926D01*
X012063Y023847D02*
X000380Y023847D01*
X000380Y023769D02*
X012063Y023769D01*
X011992Y023690D02*
X000380Y023690D01*
X000380Y023612D02*
X011914Y023612D01*
X011835Y023533D02*
X000380Y023533D01*
X000380Y023455D02*
X011757Y023455D01*
X011678Y023376D02*
X000380Y023376D01*
X000380Y023298D02*
X011600Y023298D01*
X011521Y023219D02*
X000380Y023219D01*
X000380Y023141D02*
X011443Y023141D01*
X011364Y023062D02*
X008777Y023062D01*
X008744Y023073D02*
X008680Y023083D01*
X008680Y022680D01*
X009083Y022680D01*
X009073Y022744D01*
X009051Y022810D01*
X009020Y022873D01*
X008978Y022929D01*
X008929Y022978D01*
X008873Y023020D01*
X008810Y023051D01*
X008744Y023073D01*
X008680Y023062D02*
X008600Y023062D01*
X008600Y023083D02*
X008536Y023073D01*
X008470Y023051D01*
X008407Y023020D01*
X008351Y022978D01*
X008302Y022929D01*
X008260Y022873D01*
X008229Y022810D01*
X008207Y022744D01*
X008197Y022680D01*
X008600Y022680D01*
X008600Y023083D01*
X008503Y023062D02*
X000380Y023062D01*
X000380Y022984D02*
X008358Y022984D01*
X008284Y022905D02*
X000380Y022905D01*
X000380Y022827D02*
X008237Y022827D01*
X008209Y022748D02*
X000380Y022748D01*
X000380Y022670D02*
X008600Y022670D01*
X008600Y022680D02*
X008600Y022600D01*
X008680Y022600D01*
X008680Y022680D01*
X008600Y022680D01*
X008600Y022748D02*
X008680Y022748D01*
X008680Y022670D02*
X010972Y022670D01*
X011050Y022748D02*
X009071Y022748D01*
X009043Y022827D02*
X011129Y022827D01*
X011207Y022905D02*
X008996Y022905D01*
X008922Y022984D02*
X011286Y022984D01*
X010893Y022591D02*
X009082Y022591D01*
X009083Y022600D02*
X008680Y022600D01*
X008680Y022197D01*
X008744Y022207D01*
X008810Y022229D01*
X008873Y022260D01*
X008929Y022302D01*
X008978Y022351D01*
X009020Y022407D01*
X009051Y022470D01*
X009073Y022536D01*
X009083Y022600D01*
X009065Y022513D02*
X010815Y022513D01*
X010736Y022434D02*
X009033Y022434D01*
X008982Y022356D02*
X010658Y022356D01*
X010579Y022277D02*
X008895Y022277D01*
X008680Y022277D02*
X008600Y022277D01*
X008600Y022199D02*
X008680Y022199D01*
X008690Y022199D02*
X010501Y022199D01*
X010422Y022120D02*
X000380Y022120D01*
X000380Y022042D02*
X010344Y022042D01*
X010265Y021963D02*
X000380Y021963D01*
X000380Y021885D02*
X010187Y021885D01*
X010108Y021806D02*
X000380Y021806D01*
X000380Y021728D02*
X010030Y021728D01*
X009951Y021649D02*
X000380Y021649D01*
X000380Y021571D02*
X009873Y021571D01*
X009794Y021492D02*
X000380Y021492D01*
X000380Y021414D02*
X009716Y021414D01*
X009637Y021335D02*
X000380Y021335D01*
X000380Y021257D02*
X009559Y021257D01*
X009480Y021178D02*
X000380Y021178D01*
X000380Y021100D02*
X009402Y021100D01*
X009323Y021021D02*
X000380Y021021D01*
X000380Y020943D02*
X009245Y020943D01*
X009166Y020864D02*
X000380Y020864D01*
X000380Y020786D02*
X009088Y020786D01*
X009009Y020707D02*
X000380Y020707D01*
X000380Y020629D02*
X008931Y020629D01*
X008852Y020550D02*
X000380Y020550D01*
X000380Y020472D02*
X008774Y020472D01*
X008695Y020393D02*
X000380Y020393D01*
X000380Y020315D02*
X008617Y020315D01*
X008538Y020236D02*
X000380Y020236D01*
X000380Y020158D02*
X008460Y020158D01*
X008381Y020079D02*
X000380Y020079D01*
X002885Y020001D02*
X008303Y020001D01*
X008224Y019922D02*
X003200Y019922D01*
X003363Y019844D02*
X008146Y019844D01*
X008067Y019765D02*
X003526Y019765D01*
X003689Y019687D02*
X007989Y019687D01*
X007924Y019216D02*
X007914Y019216D01*
X007924Y019137D02*
X007835Y019137D01*
X007757Y019059D02*
X007937Y019059D01*
X007970Y018980D02*
X007467Y018980D01*
X007410Y018902D02*
X008026Y018902D01*
X008113Y018823D02*
X007323Y018823D01*
X007109Y019171D02*
X007671Y019171D01*
X008328Y019171D02*
X010953Y021796D01*
X012984Y023828D01*
X012984Y023859D01*
X013119Y023612D02*
X013200Y023612D01*
X013257Y023533D02*
X012887Y023533D01*
X012809Y023455D02*
X013303Y023455D01*
X013303Y023376D02*
X012730Y023376D01*
X012652Y023298D02*
X013303Y023298D01*
X013303Y023219D02*
X012573Y023219D01*
X012495Y023141D02*
X013303Y023141D01*
X013303Y023062D02*
X012416Y023062D01*
X012338Y022984D02*
X013303Y022984D01*
X013303Y022905D02*
X012259Y022905D01*
X012181Y022827D02*
X013303Y022827D01*
X013303Y022748D02*
X012102Y022748D01*
X012024Y022670D02*
X013303Y022670D01*
X013303Y022591D02*
X011945Y022591D01*
X011867Y022513D02*
X013303Y022513D01*
X013303Y022434D02*
X011788Y022434D01*
X011710Y022356D02*
X013303Y022356D01*
X013303Y022277D02*
X011631Y022277D01*
X011553Y022199D02*
X013369Y022199D01*
X013448Y022120D02*
X011474Y022120D01*
X011396Y022042D02*
X013526Y022042D01*
X013605Y021963D02*
X011317Y021963D01*
X011239Y021885D02*
X013683Y021885D01*
X013762Y021806D02*
X011232Y021806D01*
X011227Y021728D02*
X013840Y021728D01*
X013919Y021649D02*
X011195Y021649D01*
X011123Y021571D02*
X013997Y021571D01*
X014076Y021492D02*
X010846Y021492D01*
X010768Y021414D02*
X014154Y021414D01*
X014233Y021335D02*
X010689Y021335D01*
X010611Y021257D02*
X014311Y021257D01*
X014329Y021178D02*
X010532Y021178D01*
X010454Y021100D02*
X014335Y021100D01*
X014368Y021021D02*
X010375Y021021D01*
X010297Y020943D02*
X014441Y020943D01*
X014776Y020943D02*
X014941Y020943D01*
X014886Y021021D02*
X014850Y021021D01*
X015074Y020864D02*
X010218Y020864D01*
X010140Y020786D02*
X015451Y020786D01*
X015451Y020864D02*
X015206Y020864D01*
X015339Y020943D02*
X015451Y020943D01*
X015451Y021021D02*
X015394Y021021D01*
X015420Y021100D02*
X015451Y021100D01*
X015451Y020707D02*
X010061Y020707D01*
X009983Y020629D02*
X015451Y020629D01*
X015451Y020550D02*
X009904Y020550D01*
X009826Y020472D02*
X015451Y020472D01*
X015451Y020393D02*
X009747Y020393D01*
X009669Y020315D02*
X015451Y020315D01*
X015451Y020236D02*
X009590Y020236D01*
X009512Y020158D02*
X015451Y020158D01*
X015451Y020079D02*
X009433Y020079D01*
X009355Y020001D02*
X015451Y020001D01*
X015451Y019922D02*
X009276Y019922D01*
X009198Y019844D02*
X015451Y019844D01*
X015451Y019765D02*
X009119Y019765D01*
X009041Y019687D02*
X015451Y019687D01*
X015451Y019608D02*
X008962Y019608D01*
X008884Y019530D02*
X015451Y019530D01*
X015451Y019451D02*
X008805Y019451D01*
X008727Y019373D02*
X015451Y019373D01*
X015451Y019294D02*
X008714Y019294D01*
X008731Y019216D02*
X015451Y019216D01*
X015451Y019137D02*
X008731Y019137D01*
X008718Y019059D02*
X015451Y019059D01*
X015451Y018980D02*
X008685Y018980D01*
X008629Y018902D02*
X015451Y018902D01*
X015451Y018823D02*
X008542Y018823D01*
X008600Y022197D02*
X008600Y022600D01*
X008197Y022600D01*
X008207Y022536D01*
X008229Y022470D01*
X008260Y022407D01*
X008302Y022351D01*
X008351Y022302D01*
X008407Y022260D01*
X008470Y022229D01*
X008536Y022207D01*
X008600Y022197D01*
X008590Y022199D02*
X000380Y022199D01*
X000380Y022277D02*
X008385Y022277D01*
X008298Y022356D02*
X000380Y022356D01*
X000380Y022434D02*
X008247Y022434D01*
X008215Y022513D02*
X000380Y022513D01*
X000380Y022591D02*
X008198Y022591D01*
X008600Y022591D02*
X008680Y022591D01*
X008680Y022513D02*
X008600Y022513D01*
X008600Y022434D02*
X008680Y022434D01*
X008680Y022356D02*
X008600Y022356D01*
X008600Y022827D02*
X008680Y022827D01*
X008680Y022905D02*
X008600Y022905D01*
X008600Y022984D02*
X008680Y022984D01*
X004993Y024083D02*
X000380Y024083D01*
X000380Y024161D02*
X004961Y024161D01*
X004954Y024240D02*
X000380Y024240D01*
X000380Y024318D02*
X004966Y024318D01*
X005001Y024397D02*
X000380Y024397D01*
X000380Y024475D02*
X005054Y024475D01*
X005054Y024554D02*
X000380Y024554D01*
X000380Y024632D02*
X005054Y024632D01*
X005054Y024711D02*
X000380Y024711D01*
X000380Y024789D02*
X005054Y024789D01*
X005054Y024868D02*
X000380Y024868D01*
X000380Y024946D02*
X005054Y024946D01*
X005054Y025025D02*
X000380Y025025D01*
X000380Y025103D02*
X005054Y025103D01*
X005054Y025182D02*
X000380Y025182D01*
X000380Y025260D02*
X005054Y025260D01*
X005054Y025339D02*
X000380Y025339D01*
X000380Y025417D02*
X005054Y025417D01*
X005054Y025496D02*
X000380Y025496D01*
X000380Y025574D02*
X004989Y025574D01*
X004911Y025653D02*
X000380Y025653D01*
X000380Y025731D02*
X004712Y025731D01*
X004612Y025810D02*
X000380Y025810D01*
X000380Y025888D02*
X004571Y025888D01*
X004554Y025967D02*
X000380Y025967D01*
X000380Y026045D02*
X004556Y026045D01*
X004589Y026124D02*
X000380Y026124D01*
X000380Y026202D02*
X004654Y026202D01*
X004589Y026281D02*
X000380Y026281D01*
X000380Y026359D02*
X004557Y026359D01*
X004554Y026438D02*
X000380Y026438D01*
X000380Y026516D02*
X004570Y026516D01*
X004611Y026595D02*
X000380Y026595D01*
X000380Y026673D02*
X004624Y026673D01*
X004575Y026752D02*
X000380Y026752D01*
X000380Y026830D02*
X004554Y026830D01*
X004554Y026909D02*
X000380Y026909D01*
X000380Y026987D02*
X004584Y026987D01*
X003022Y027328D02*
X002334Y028015D01*
X002054Y028008D02*
X000380Y028008D01*
X000380Y028086D02*
X002061Y028086D01*
X002093Y028165D02*
X000380Y028165D01*
X000380Y028243D02*
X002166Y028243D01*
X002067Y027929D02*
X000380Y027929D01*
X000380Y027851D02*
X002103Y027851D01*
X002189Y027772D02*
X000380Y027772D01*
X000380Y027694D02*
X002458Y027694D01*
X002536Y027615D02*
X000380Y027615D01*
X000380Y027537D02*
X002615Y027537D01*
X002693Y027458D02*
X000380Y027458D01*
X000380Y027380D02*
X002772Y027380D01*
X002850Y027301D02*
X000380Y027301D01*
X000380Y027223D02*
X002929Y027223D01*
X003433Y028793D02*
X003467Y028793D01*
X000380Y031462D02*
X016606Y031462D01*
X016528Y031540D02*
X000380Y031540D01*
X000380Y031619D02*
X016449Y031619D01*
X016371Y031697D02*
X000380Y031697D01*
X000380Y031776D02*
X016292Y031776D01*
X016214Y031854D02*
X000380Y031854D01*
X000380Y031933D02*
X016135Y031933D01*
X016057Y032011D02*
X000380Y032011D01*
X000380Y032090D02*
X015978Y032090D01*
X015900Y032168D02*
X000380Y032168D01*
X000380Y032247D02*
X015821Y032247D01*
X015743Y032325D02*
X000380Y032325D01*
X000380Y032404D02*
X015664Y032404D01*
X015586Y032482D02*
X000380Y032482D01*
X000380Y032561D02*
X015507Y032561D01*
X015429Y032639D02*
X015427Y032639D01*
X015696Y032796D02*
X016448Y032796D01*
X016527Y032718D02*
X015775Y032718D01*
X015853Y032639D02*
X016605Y032639D01*
X016684Y032561D02*
X015932Y032561D01*
X016010Y032482D02*
X016762Y032482D01*
X016841Y032404D02*
X016089Y032404D01*
X016167Y032325D02*
X016919Y032325D01*
X016998Y032247D02*
X016246Y032247D01*
X016324Y032168D02*
X017076Y032168D01*
X017155Y032090D02*
X016403Y032090D01*
X016481Y032011D02*
X017233Y032011D01*
X017312Y031933D02*
X016560Y031933D01*
X016638Y031854D02*
X017390Y031854D01*
X017469Y031776D02*
X016717Y031776D01*
X016795Y031697D02*
X020462Y031697D01*
X020514Y031619D02*
X016874Y031619D01*
X016952Y031540D02*
X020436Y031540D01*
X020357Y031462D02*
X017031Y031462D01*
X017109Y031383D02*
X020279Y031383D01*
X020200Y031305D02*
X017188Y031305D01*
X017266Y031226D02*
X020122Y031226D01*
X020043Y031148D02*
X017321Y031148D01*
X017321Y031069D02*
X019965Y031069D01*
X019886Y030991D02*
X017321Y030991D01*
X017321Y030912D02*
X019808Y030912D01*
X019729Y030834D02*
X017321Y030834D01*
X017321Y030755D02*
X019651Y030755D01*
X019572Y030677D02*
X017321Y030677D01*
X017321Y030598D02*
X019494Y030598D01*
X019415Y030520D02*
X017321Y030520D01*
X017321Y030441D02*
X019337Y030441D01*
X019258Y030363D02*
X017321Y030363D01*
X017321Y030284D02*
X019180Y030284D01*
X019101Y030206D02*
X017321Y030206D01*
X017321Y030127D02*
X019023Y030127D01*
X018944Y030049D02*
X017321Y030049D01*
X017321Y029970D02*
X018938Y029970D01*
X018938Y029892D02*
X017321Y029892D01*
X017321Y029813D02*
X018938Y029813D01*
X018938Y029735D02*
X017321Y029735D01*
X017321Y029656D02*
X018938Y029656D01*
X018938Y029578D02*
X017321Y029578D01*
X017321Y029499D02*
X018938Y029499D01*
X018938Y029421D02*
X017321Y029421D01*
X017321Y029342D02*
X018938Y029342D01*
X018938Y029264D02*
X017321Y029264D01*
X017321Y029185D02*
X018938Y029185D01*
X018938Y029107D02*
X017321Y029107D01*
X017321Y029028D02*
X018938Y029028D01*
X018938Y028950D02*
X017321Y028950D01*
X017321Y028871D02*
X018938Y028871D01*
X018938Y028793D02*
X017321Y028793D01*
X017321Y028714D02*
X018938Y028714D01*
X018938Y028636D02*
X017321Y028636D01*
X017321Y028557D02*
X018938Y028557D01*
X018938Y028479D02*
X017321Y028479D01*
X017321Y028400D02*
X018938Y028400D01*
X018938Y028322D02*
X017321Y028322D01*
X017321Y028243D02*
X018938Y028243D01*
X018938Y028165D02*
X017321Y028165D01*
X017321Y028086D02*
X018938Y028086D01*
X018938Y028008D02*
X017321Y028008D01*
X017321Y027929D02*
X018938Y027929D01*
X018938Y027851D02*
X017321Y027851D01*
X017321Y027772D02*
X018938Y027772D01*
X018938Y027694D02*
X017321Y027694D01*
X017321Y027615D02*
X018938Y027615D01*
X018938Y027537D02*
X017321Y027537D01*
X017321Y027458D02*
X018938Y027458D01*
X018938Y027380D02*
X017321Y027380D01*
X017321Y027301D02*
X018938Y027301D01*
X018938Y027223D02*
X017321Y027223D01*
X017321Y027144D02*
X018938Y027144D01*
X018938Y027066D02*
X017321Y027066D01*
X017321Y026987D02*
X018938Y026987D01*
X018938Y026909D02*
X017321Y026909D01*
X017321Y026830D02*
X018938Y026830D01*
X018938Y026752D02*
X017321Y026752D01*
X017321Y026673D02*
X018938Y026673D01*
X018938Y026595D02*
X017321Y026595D01*
X017321Y026516D02*
X018938Y026516D01*
X018938Y026438D02*
X017321Y026438D01*
X017321Y026359D02*
X018938Y026359D01*
X018938Y026281D02*
X017321Y026281D01*
X017321Y026202D02*
X018938Y026202D01*
X018938Y026124D02*
X017321Y026124D01*
X017321Y026045D02*
X018938Y026045D01*
X018938Y025967D02*
X017321Y025967D01*
X017321Y025888D02*
X018938Y025888D01*
X018938Y025810D02*
X017321Y025810D01*
X017321Y025731D02*
X018938Y025731D01*
X018938Y025653D02*
X017321Y025653D01*
X017321Y025574D02*
X018938Y025574D01*
X018938Y025496D02*
X017321Y025496D01*
X017321Y025417D02*
X018938Y025417D01*
X018938Y025339D02*
X017321Y025339D01*
X017321Y025260D02*
X018938Y025260D01*
X018938Y025182D02*
X017321Y025182D01*
X017321Y025103D02*
X018938Y025103D01*
X018938Y025025D02*
X017321Y025025D01*
X017321Y024946D02*
X018938Y024946D01*
X018938Y024868D02*
X017321Y024868D01*
X017321Y024789D02*
X018938Y024789D01*
X018938Y024711D02*
X017321Y024711D01*
X017321Y024632D02*
X018938Y024632D01*
X018938Y024554D02*
X017321Y024554D01*
X017321Y024475D02*
X018938Y024475D01*
X018938Y024397D02*
X017321Y024397D01*
X017321Y024318D02*
X018938Y024318D01*
X018938Y024240D02*
X017321Y024240D01*
X017321Y024161D02*
X018938Y024161D01*
X018938Y024083D02*
X017321Y024083D01*
X017321Y024004D02*
X018938Y024004D01*
X018938Y023926D02*
X017321Y023926D01*
X017321Y023847D02*
X018889Y023847D01*
X018828Y023769D02*
X017321Y023769D01*
X017321Y023690D02*
X018798Y023690D01*
X018798Y023612D02*
X017346Y023612D01*
X017415Y023533D02*
X018819Y023533D01*
X018867Y023455D02*
X017448Y023455D01*
X017451Y023376D02*
X018983Y023376D01*
X019172Y023376D02*
X019969Y023376D01*
X019969Y023298D02*
X017436Y023298D01*
X017396Y023219D02*
X019969Y023219D01*
X019969Y023141D02*
X017342Y023141D01*
X017342Y023062D02*
X019969Y023062D01*
X019969Y022984D02*
X017342Y022984D01*
X017342Y022905D02*
X019969Y022905D01*
X019969Y022827D02*
X017342Y022827D01*
X017342Y022748D02*
X019969Y022748D01*
X019969Y022670D02*
X017342Y022670D01*
X017342Y022591D02*
X019969Y022591D01*
X019969Y022513D02*
X017342Y022513D01*
X017419Y022434D02*
X019969Y022434D01*
X019969Y022385D02*
X019839Y022256D01*
X019821Y022264D01*
X019709Y022264D01*
X019606Y022221D01*
X019528Y022142D01*
X019485Y022039D01*
X019485Y021928D01*
X019528Y021825D01*
X019606Y021746D01*
X019709Y021704D01*
X019821Y021704D01*
X019924Y021746D01*
X020002Y021825D01*
X020045Y021928D01*
X020045Y022039D01*
X020037Y022058D01*
X020249Y022270D01*
X020249Y028114D01*
X020267Y028121D01*
X020346Y028200D01*
X020389Y028303D01*
X020389Y028414D01*
X020346Y028517D01*
X020267Y028596D01*
X020164Y028639D01*
X020053Y028639D01*
X019950Y028596D01*
X019871Y028517D01*
X019829Y028414D01*
X019829Y028303D01*
X019871Y028200D01*
X019950Y028121D01*
X019969Y028114D01*
X019969Y022385D01*
X019939Y022356D02*
X017497Y022356D01*
X017576Y022277D02*
X019860Y022277D01*
X020109Y022328D02*
X019765Y021984D01*
X020027Y021885D02*
X020773Y021885D01*
X020773Y021963D02*
X020045Y021963D01*
X020044Y022042D02*
X020773Y022042D01*
X020773Y022120D02*
X020099Y022120D01*
X020178Y022199D02*
X020773Y022199D01*
X020773Y022277D02*
X020249Y022277D01*
X020249Y022356D02*
X020773Y022356D01*
X020773Y022434D02*
X020249Y022434D01*
X020249Y022513D02*
X020773Y022513D01*
X020773Y022591D02*
X020249Y022591D01*
X020249Y022670D02*
X020773Y022670D01*
X020773Y022748D02*
X020249Y022748D01*
X020249Y022827D02*
X020773Y022827D01*
X020773Y022905D02*
X020249Y022905D01*
X020249Y022984D02*
X020773Y022984D01*
X020773Y023062D02*
X020249Y023062D01*
X020249Y023141D02*
X020773Y023141D01*
X020773Y023219D02*
X020249Y023219D01*
X020249Y023298D02*
X020773Y023298D01*
X020773Y023376D02*
X020249Y023376D01*
X020249Y023455D02*
X020773Y023455D01*
X020773Y023533D02*
X020249Y023533D01*
X020249Y023612D02*
X020773Y023612D01*
X020773Y023690D02*
X020249Y023690D01*
X020249Y023769D02*
X020773Y023769D01*
X020773Y023847D02*
X020249Y023847D01*
X020249Y023926D02*
X020773Y023926D01*
X020773Y024004D02*
X020249Y024004D01*
X020249Y024083D02*
X020773Y024083D01*
X020773Y024161D02*
X020249Y024161D01*
X020249Y024240D02*
X020773Y024240D01*
X020773Y024318D02*
X020249Y024318D01*
X020249Y024397D02*
X020773Y024397D01*
X020773Y024475D02*
X020249Y024475D01*
X020249Y024554D02*
X020773Y024554D01*
X020773Y024632D02*
X020249Y024632D01*
X020249Y024711D02*
X020773Y024711D01*
X020773Y024789D02*
X020249Y024789D01*
X020249Y024868D02*
X020773Y024868D01*
X020773Y024946D02*
X020249Y024946D01*
X020249Y025025D02*
X020734Y025025D01*
X020691Y025103D02*
X020249Y025103D01*
X020249Y025182D02*
X020673Y025182D01*
X020673Y025260D02*
X020249Y025260D01*
X020249Y025339D02*
X020706Y025339D01*
X020771Y025417D02*
X020249Y025417D01*
X020249Y025496D02*
X021140Y025496D01*
X021140Y025574D02*
X020249Y025574D01*
X020249Y025653D02*
X021140Y025653D01*
X021140Y025731D02*
X020249Y025731D01*
X020249Y025810D02*
X021140Y025810D01*
X021140Y025888D02*
X020249Y025888D01*
X020249Y025967D02*
X021140Y025967D01*
X021140Y026045D02*
X020249Y026045D01*
X020249Y026124D02*
X021144Y026124D01*
X021178Y026202D02*
X020249Y026202D01*
X020249Y026281D02*
X021273Y026281D01*
X022125Y026438D02*
X020249Y026438D01*
X020249Y026516D02*
X022125Y026516D01*
X022125Y026595D02*
X020249Y026595D01*
X020249Y026673D02*
X022125Y026673D01*
X022125Y026752D02*
X020249Y026752D01*
X020249Y026830D02*
X022125Y026830D01*
X022125Y026909D02*
X020249Y026909D01*
X020249Y026987D02*
X022125Y026987D01*
X022125Y027066D02*
X020249Y027066D01*
X020249Y027144D02*
X022125Y027144D01*
X022125Y027223D02*
X020249Y027223D01*
X020249Y027301D02*
X022125Y027301D01*
X022125Y027380D02*
X020249Y027380D01*
X020249Y027458D02*
X022125Y027458D01*
X022125Y027537D02*
X020249Y027537D01*
X020249Y027615D02*
X022125Y027615D01*
X022125Y027694D02*
X020249Y027694D01*
X020249Y027772D02*
X022125Y027772D01*
X022125Y027851D02*
X020249Y027851D01*
X020249Y027929D02*
X022125Y027929D01*
X022125Y028008D02*
X020249Y028008D01*
X020249Y028086D02*
X022125Y028086D01*
X022125Y028165D02*
X020311Y028165D01*
X020364Y028243D02*
X022125Y028243D01*
X022125Y028322D02*
X020389Y028322D01*
X020389Y028400D02*
X022119Y028400D01*
X022041Y028479D02*
X020362Y028479D01*
X020306Y028557D02*
X021962Y028557D01*
X021884Y028636D02*
X020172Y028636D01*
X020045Y028636D02*
X019217Y028636D01*
X019217Y028714D02*
X021805Y028714D01*
X021727Y028793D02*
X019217Y028793D01*
X019217Y028871D02*
X021648Y028871D01*
X021570Y028950D02*
X019217Y028950D01*
X019217Y029028D02*
X021491Y029028D01*
X021413Y029107D02*
X019217Y029107D01*
X019217Y029185D02*
X021334Y029185D01*
X021256Y029264D02*
X019217Y029264D01*
X019217Y029342D02*
X021177Y029342D01*
X021156Y029421D02*
X019217Y029421D01*
X019217Y029499D02*
X021156Y029499D01*
X021156Y029578D02*
X019217Y029578D01*
X019217Y029656D02*
X021156Y029656D01*
X021156Y029735D02*
X019217Y029735D01*
X019217Y029813D02*
X021156Y029813D01*
X021156Y029892D02*
X019217Y029892D01*
X019262Y029970D02*
X021156Y029970D01*
X021156Y030049D02*
X019340Y030049D01*
X019419Y030127D02*
X021156Y030127D01*
X021156Y030206D02*
X019497Y030206D01*
X019576Y030284D02*
X021156Y030284D01*
X021156Y030363D02*
X019654Y030363D01*
X019733Y030441D02*
X021156Y030441D01*
X021156Y030520D02*
X019811Y030520D01*
X019890Y030598D02*
X021156Y030598D01*
X021156Y030677D02*
X019968Y030677D01*
X020047Y030755D02*
X021156Y030755D01*
X021156Y030834D02*
X020125Y030834D01*
X020204Y030912D02*
X021156Y030912D01*
X021156Y030991D02*
X020282Y030991D01*
X020361Y031069D02*
X021156Y031069D01*
X021231Y031148D02*
X020439Y031148D01*
X020518Y031226D02*
X021309Y031226D01*
X021246Y031305D02*
X020596Y031305D01*
X020675Y031383D02*
X021246Y031383D01*
X021246Y031462D02*
X020753Y031462D01*
X020832Y031540D02*
X021246Y031540D01*
X021246Y031619D02*
X020910Y031619D01*
X020989Y031697D02*
X021246Y031697D01*
X021246Y031776D02*
X021067Y031776D01*
X021146Y031854D02*
X021246Y031854D01*
X021246Y031933D02*
X021224Y031933D01*
X021265Y032171D02*
X019078Y029984D01*
X019078Y023640D01*
X019336Y023533D02*
X019969Y023533D01*
X019969Y023455D02*
X019288Y023455D01*
X019357Y023612D02*
X019969Y023612D01*
X019969Y023690D02*
X019357Y023690D01*
X019327Y023769D02*
X019969Y023769D01*
X019969Y023847D02*
X019266Y023847D01*
X019217Y023926D02*
X019969Y023926D01*
X019969Y024004D02*
X019217Y024004D01*
X019217Y024083D02*
X019969Y024083D01*
X019969Y024161D02*
X019217Y024161D01*
X019217Y024240D02*
X019969Y024240D01*
X019969Y024318D02*
X019217Y024318D01*
X019217Y024397D02*
X019969Y024397D01*
X019969Y024475D02*
X019217Y024475D01*
X019217Y024554D02*
X019969Y024554D01*
X019969Y024632D02*
X019217Y024632D01*
X019217Y024711D02*
X019969Y024711D01*
X019969Y024789D02*
X019217Y024789D01*
X019217Y024868D02*
X019969Y024868D01*
X019969Y024946D02*
X019217Y024946D01*
X019217Y025025D02*
X019969Y025025D01*
X019969Y025103D02*
X019217Y025103D01*
X019217Y025182D02*
X019969Y025182D01*
X019969Y025260D02*
X019217Y025260D01*
X019217Y025339D02*
X019969Y025339D01*
X019969Y025417D02*
X019217Y025417D01*
X019217Y025496D02*
X019969Y025496D01*
X019969Y025574D02*
X019217Y025574D01*
X019217Y025653D02*
X019969Y025653D01*
X019969Y025731D02*
X019217Y025731D01*
X019217Y025810D02*
X019969Y025810D01*
X019969Y025888D02*
X019217Y025888D01*
X019217Y025967D02*
X019969Y025967D01*
X019969Y026045D02*
X019217Y026045D01*
X019217Y026124D02*
X019969Y026124D01*
X019969Y026202D02*
X019217Y026202D01*
X019217Y026281D02*
X019969Y026281D01*
X019969Y026359D02*
X019217Y026359D01*
X019217Y026438D02*
X019969Y026438D01*
X019969Y026516D02*
X019217Y026516D01*
X019217Y026595D02*
X019969Y026595D01*
X019969Y026673D02*
X019217Y026673D01*
X019217Y026752D02*
X019969Y026752D01*
X019969Y026830D02*
X019217Y026830D01*
X019217Y026909D02*
X019969Y026909D01*
X019969Y026987D02*
X019217Y026987D01*
X019217Y027066D02*
X019969Y027066D01*
X019969Y027144D02*
X019217Y027144D01*
X019217Y027223D02*
X019969Y027223D01*
X019969Y027301D02*
X019217Y027301D01*
X019217Y027380D02*
X019969Y027380D01*
X019969Y027458D02*
X019217Y027458D01*
X019217Y027537D02*
X019969Y027537D01*
X019969Y027615D02*
X019217Y027615D01*
X019217Y027694D02*
X019969Y027694D01*
X019969Y027772D02*
X019217Y027772D01*
X019217Y027851D02*
X019969Y027851D01*
X019969Y027929D02*
X019217Y027929D01*
X019217Y028008D02*
X019969Y028008D01*
X019969Y028086D02*
X019217Y028086D01*
X019217Y028165D02*
X019907Y028165D01*
X019854Y028243D02*
X019217Y028243D01*
X019217Y028322D02*
X019829Y028322D01*
X019829Y028400D02*
X019217Y028400D01*
X019217Y028479D02*
X019855Y028479D01*
X019911Y028557D02*
X019217Y028557D01*
X020109Y028359D02*
X020109Y022328D01*
X019584Y022199D02*
X017654Y022199D01*
X017733Y022120D02*
X019518Y022120D01*
X019486Y022042D02*
X017811Y022042D01*
X017890Y021963D02*
X018569Y021963D01*
X018457Y021885D02*
X017968Y021885D01*
X017953Y021703D02*
X018671Y021703D01*
X018774Y021963D02*
X019485Y021963D01*
X019503Y021885D02*
X018885Y021885D01*
X018931Y021806D02*
X019547Y021806D01*
X019652Y021728D02*
X018951Y021728D01*
X018951Y021649D02*
X020773Y021649D01*
X020773Y021571D02*
X018920Y021571D01*
X018857Y021492D02*
X020773Y021492D01*
X020773Y021414D02*
X015771Y021414D01*
X015693Y021492D02*
X018486Y021492D01*
X017953Y021703D02*
X017203Y022453D01*
X017203Y023359D01*
X017171Y023390D01*
X016891Y023376D02*
X014516Y023376D01*
X014516Y023298D02*
X016906Y023298D01*
X016946Y023219D02*
X014516Y023219D01*
X014516Y023141D02*
X017042Y023141D01*
X017063Y023062D02*
X014516Y023062D01*
X014516Y022984D02*
X017063Y022984D01*
X017063Y022905D02*
X014516Y022905D01*
X014516Y022827D02*
X017063Y022827D01*
X017063Y022748D02*
X014516Y022748D01*
X014516Y022670D02*
X017063Y022670D01*
X017063Y022591D02*
X014594Y022591D01*
X014672Y022513D02*
X017063Y022513D01*
X017063Y022434D02*
X014751Y022434D01*
X014829Y022356D02*
X017101Y022356D01*
X017180Y022277D02*
X014908Y022277D01*
X014986Y022199D02*
X017258Y022199D01*
X017337Y022120D02*
X015065Y022120D01*
X015143Y022042D02*
X017415Y022042D01*
X017494Y021963D02*
X015222Y021963D01*
X015300Y021885D02*
X017572Y021885D01*
X017651Y021806D02*
X015379Y021806D01*
X015457Y021728D02*
X017729Y021728D01*
X017808Y021649D02*
X015536Y021649D01*
X015614Y021571D02*
X017886Y021571D01*
X019878Y021728D02*
X020773Y021728D01*
X020773Y021806D02*
X019983Y021806D01*
X020773Y021335D02*
X015850Y021335D01*
X015891Y021257D02*
X020773Y021257D01*
X020773Y021178D02*
X015891Y021178D01*
X015891Y021100D02*
X020773Y021100D01*
X020773Y021021D02*
X015891Y021021D01*
X015891Y020943D02*
X020773Y020943D01*
X020773Y020864D02*
X015891Y020864D01*
X015891Y020786D02*
X020773Y020786D01*
X020773Y020707D02*
X015891Y020707D01*
X015891Y020629D02*
X020773Y020629D01*
X020773Y020550D02*
X015891Y020550D01*
X015891Y020472D02*
X020773Y020472D01*
X020773Y020393D02*
X015891Y020393D01*
X015891Y020315D02*
X020773Y020315D01*
X020773Y020236D02*
X015891Y020236D01*
X015891Y020158D02*
X020773Y020158D01*
X020773Y020079D02*
X015891Y020079D01*
X015891Y020001D02*
X020773Y020001D01*
X020773Y019922D02*
X015891Y019922D01*
X015891Y019844D02*
X020773Y019844D01*
X020773Y019765D02*
X015891Y019765D01*
X015891Y019687D02*
X020773Y019687D01*
X020773Y019608D02*
X015891Y019608D01*
X015891Y019530D02*
X020773Y019530D01*
X020773Y019451D02*
X015891Y019451D01*
X015891Y019373D02*
X020773Y019373D01*
X020773Y019294D02*
X015891Y019294D01*
X015891Y019216D02*
X020773Y019216D01*
X020773Y019137D02*
X015891Y019137D01*
X015891Y019059D02*
X020773Y019059D01*
X020773Y018980D02*
X015891Y018980D01*
X015891Y018902D02*
X020773Y018902D01*
X020773Y018823D02*
X015891Y018823D01*
X015891Y018745D02*
X020773Y018745D01*
X020773Y018666D02*
X015891Y018666D01*
X015891Y018588D02*
X020773Y018588D01*
X020773Y018509D02*
X015891Y018509D01*
X015891Y018431D02*
X020773Y018431D01*
X020773Y018352D02*
X015891Y018352D01*
X015891Y018274D02*
X020773Y018274D01*
X020773Y018195D02*
X015891Y018195D01*
X015891Y018117D02*
X020773Y018117D01*
X020773Y018038D02*
X015891Y018038D01*
X015891Y017960D02*
X020773Y017960D01*
X020773Y017881D02*
X015891Y017881D01*
X015891Y017803D02*
X020773Y017803D01*
X020773Y017724D02*
X015891Y017724D01*
X015891Y017646D02*
X020773Y017646D01*
X020773Y017567D02*
X015891Y017567D01*
X015891Y017489D02*
X020773Y017489D01*
X020773Y017410D02*
X015891Y017410D01*
X015891Y017332D02*
X020773Y017332D01*
X020773Y017253D02*
X015891Y017253D01*
X015891Y017175D02*
X020773Y017175D01*
X020773Y017096D02*
X015891Y017096D01*
X015891Y017018D02*
X020773Y017018D01*
X020773Y016939D02*
X015891Y016939D01*
X015891Y016861D02*
X020773Y016861D01*
X020773Y016782D02*
X015891Y016782D01*
X015891Y016704D02*
X020822Y016704D01*
X020900Y016625D02*
X015891Y016625D01*
X015891Y016547D02*
X020979Y016547D01*
X021057Y016468D02*
X015891Y016468D01*
X015910Y016390D02*
X021136Y016390D01*
X021214Y016311D02*
X015942Y016311D01*
X015951Y016233D02*
X021293Y016233D01*
X021371Y016154D02*
X015941Y016154D01*
X015909Y016076D02*
X021450Y016076D01*
X021528Y015997D02*
X015831Y015997D01*
X015730Y015919D02*
X021607Y015919D01*
X021685Y015840D02*
X015651Y015840D01*
X015573Y015762D02*
X021764Y015762D01*
X021842Y015683D02*
X015494Y015683D01*
X015416Y015605D02*
X021921Y015605D01*
X021999Y015526D02*
X015337Y015526D01*
X015259Y015448D02*
X022078Y015448D01*
X022156Y015369D02*
X015180Y015369D01*
X015102Y015291D02*
X022235Y015291D01*
X022272Y015212D02*
X015023Y015212D01*
X014945Y015134D02*
X022227Y015134D01*
X022182Y015055D02*
X014866Y015055D01*
X014788Y014977D02*
X022156Y014977D01*
X022135Y014898D02*
X013325Y014898D01*
X018720Y011837D02*
X024741Y011837D01*
X024820Y011758D02*
X018720Y011758D01*
X018720Y011680D02*
X024898Y011680D01*
X024977Y011601D02*
X018720Y011601D01*
X018720Y011523D02*
X025055Y011523D01*
X025134Y011444D02*
X018720Y011444D01*
X018720Y011366D02*
X025212Y011366D01*
X025291Y011287D02*
X018720Y011287D01*
X018720Y011209D02*
X025369Y011209D01*
X025448Y011130D02*
X018720Y011130D01*
X018720Y011052D02*
X025526Y011052D01*
X025605Y010973D02*
X018720Y010973D01*
X018720Y010895D02*
X025683Y010895D01*
X025762Y010816D02*
X018720Y010816D01*
X018720Y010738D02*
X025840Y010738D01*
X025919Y010659D02*
X018720Y010659D01*
X018720Y010581D02*
X025997Y010581D01*
X026076Y010502D02*
X018720Y010502D01*
X018720Y010424D02*
X026154Y010424D01*
X026233Y010345D02*
X018720Y010345D01*
X018720Y010267D02*
X026311Y010267D01*
X026390Y010188D02*
X018720Y010188D01*
X018720Y010110D02*
X026468Y010110D01*
X026547Y010031D02*
X018720Y010031D01*
X018720Y009953D02*
X026625Y009953D01*
X026704Y009874D02*
X018720Y009874D01*
X018720Y009796D02*
X026782Y009796D01*
X026861Y009717D02*
X018720Y009717D01*
X018720Y009639D02*
X026939Y009639D01*
X027018Y009560D02*
X018720Y009560D01*
X018720Y009482D02*
X027096Y009482D01*
X027175Y009403D02*
X018720Y009403D01*
X018720Y009325D02*
X027253Y009325D01*
X027332Y009246D02*
X018720Y009246D01*
X018720Y009168D02*
X027410Y009168D01*
X027489Y009089D02*
X018720Y009089D01*
X018720Y009011D02*
X027567Y009011D01*
X027646Y008932D02*
X018720Y008932D01*
X018720Y008854D02*
X027724Y008854D01*
X027803Y008775D02*
X018720Y008775D01*
X018720Y008697D02*
X027881Y008697D01*
X027960Y008618D02*
X018720Y008618D01*
X018720Y008540D02*
X028038Y008540D01*
X028117Y008461D02*
X018720Y008461D01*
X018720Y008383D02*
X028195Y008383D01*
X028274Y008304D02*
X018720Y008304D01*
X018720Y008226D02*
X024731Y008226D01*
X024795Y008252D02*
X024574Y008160D01*
X024404Y007991D01*
X024313Y007770D01*
X024313Y007530D01*
X024404Y007309D01*
X024574Y007140D01*
X024795Y007048D01*
X025034Y007048D01*
X025256Y007140D01*
X025425Y007309D01*
X025517Y007530D01*
X025517Y007770D01*
X025425Y007991D01*
X025256Y008160D01*
X025034Y008252D01*
X024795Y008252D01*
X024560Y008147D02*
X018720Y008147D01*
X018720Y008069D02*
X024482Y008069D01*
X024404Y007990D02*
X018720Y007990D01*
X018720Y007912D02*
X024371Y007912D01*
X024339Y007833D02*
X018720Y007833D01*
X018720Y007755D02*
X024313Y007755D01*
X024313Y007676D02*
X018720Y007676D01*
X018720Y007598D02*
X024313Y007598D01*
X024317Y007519D02*
X018720Y007519D01*
X018720Y007441D02*
X024350Y007441D01*
X024382Y007362D02*
X018720Y007362D01*
X018720Y007284D02*
X024430Y007284D01*
X024508Y007205D02*
X018720Y007205D01*
X018720Y007127D02*
X024605Y007127D01*
X024795Y007048D02*
X018720Y007048D01*
X018720Y006970D02*
X029608Y006970D01*
X029530Y007048D02*
X025035Y007048D01*
X025224Y007127D02*
X029451Y007127D01*
X029373Y007205D02*
X025321Y007205D01*
X025400Y007284D02*
X029294Y007284D01*
X029216Y007362D02*
X025447Y007362D01*
X025479Y007441D02*
X029137Y007441D01*
X029059Y007519D02*
X025512Y007519D01*
X025517Y007598D02*
X028980Y007598D01*
X028902Y007676D02*
X025517Y007676D01*
X025517Y007755D02*
X028823Y007755D01*
X028745Y007833D02*
X025490Y007833D01*
X025458Y007912D02*
X028666Y007912D01*
X028588Y007990D02*
X025425Y007990D01*
X025347Y008069D02*
X028509Y008069D01*
X028431Y008147D02*
X025269Y008147D01*
X025098Y008226D02*
X028352Y008226D01*
X029579Y009403D02*
X032884Y009403D01*
X032884Y009325D02*
X029658Y009325D01*
X029736Y009246D02*
X032884Y009246D01*
X032884Y009168D02*
X029815Y009168D01*
X029893Y009089D02*
X032884Y009089D01*
X032884Y009011D02*
X029972Y009011D01*
X030050Y008932D02*
X032884Y008932D01*
X032884Y008854D02*
X030129Y008854D01*
X030207Y008775D02*
X032884Y008775D01*
X032884Y008697D02*
X030286Y008697D01*
X030364Y008618D02*
X032884Y008618D01*
X032884Y008540D02*
X030443Y008540D01*
X029501Y009482D02*
X032884Y009482D01*
X032884Y009560D02*
X029422Y009560D01*
X029344Y009639D02*
X032884Y009639D01*
X032861Y009717D02*
X029265Y009717D01*
X029187Y009796D02*
X032782Y009796D01*
X032704Y009874D02*
X029108Y009874D01*
X029030Y009953D02*
X032625Y009953D01*
X032547Y010031D02*
X028951Y010031D01*
X028873Y010110D02*
X032468Y010110D01*
X032390Y010188D02*
X028794Y010188D01*
X028716Y010267D02*
X032311Y010267D01*
X032233Y010345D02*
X028637Y010345D01*
X028559Y010424D02*
X032154Y010424D01*
X032076Y010502D02*
X028480Y010502D01*
X028402Y010581D02*
X031997Y010581D01*
X031919Y010659D02*
X028323Y010659D01*
X028245Y010738D02*
X031840Y010738D01*
X031762Y010816D02*
X028166Y010816D01*
X028088Y010895D02*
X031683Y010895D01*
X031605Y010973D02*
X028009Y010973D01*
X027931Y011052D02*
X031526Y011052D01*
X031448Y011130D02*
X027852Y011130D01*
X027774Y011209D02*
X031369Y011209D01*
X031291Y011287D02*
X027695Y011287D01*
X027617Y011366D02*
X031212Y011366D01*
X031134Y011444D02*
X027538Y011444D01*
X027460Y011523D02*
X031055Y011523D01*
X030977Y011601D02*
X027381Y011601D01*
X027303Y011680D02*
X030898Y011680D01*
X030820Y011758D02*
X027224Y011758D01*
X027146Y011837D02*
X030741Y011837D01*
X030663Y011915D02*
X027067Y011915D01*
X026989Y011994D02*
X030584Y011994D01*
X030506Y012072D02*
X026910Y012072D01*
X026832Y012151D02*
X030427Y012151D01*
X030349Y012229D02*
X026753Y012229D01*
X026675Y012308D02*
X030270Y012308D01*
X030192Y012386D02*
X026596Y012386D01*
X026518Y012465D02*
X030113Y012465D01*
X030035Y012543D02*
X026439Y012543D01*
X026361Y012622D02*
X029956Y012622D01*
X029878Y012700D02*
X026282Y012700D01*
X026204Y012779D02*
X029799Y012779D01*
X029721Y012857D02*
X026125Y012857D01*
X026047Y012936D02*
X029642Y012936D01*
X029564Y013014D02*
X025968Y013014D01*
X025890Y013093D02*
X029485Y013093D01*
X029407Y013171D02*
X025811Y013171D01*
X025733Y013250D02*
X029328Y013250D01*
X029250Y013328D02*
X025654Y013328D01*
X025576Y013407D02*
X029171Y013407D01*
X029093Y013485D02*
X025497Y013485D01*
X025419Y013564D02*
X029014Y013564D01*
X028936Y013642D02*
X026924Y013642D01*
X027122Y013721D02*
X028857Y013721D01*
X030241Y014741D02*
X048330Y014741D01*
X048330Y014663D02*
X030320Y014663D01*
X030398Y014584D02*
X048330Y014584D01*
X048330Y014506D02*
X030477Y014506D01*
X030555Y014427D02*
X048330Y014427D01*
X048330Y014349D02*
X030634Y014349D01*
X030712Y014270D02*
X048330Y014270D01*
X048330Y014192D02*
X030791Y014192D01*
X030869Y014113D02*
X048330Y014113D01*
X048330Y014035D02*
X030948Y014035D01*
X031026Y013956D02*
X048330Y013956D01*
X048330Y013878D02*
X031105Y013878D01*
X031183Y013799D02*
X048330Y013799D01*
X048330Y013721D02*
X031262Y013721D01*
X031340Y013642D02*
X048330Y013642D01*
X048330Y013564D02*
X031419Y013564D01*
X031497Y013485D02*
X048330Y013485D01*
X048330Y013407D02*
X031576Y013407D01*
X031654Y013328D02*
X048330Y013328D01*
X048330Y013250D02*
X031733Y013250D01*
X031811Y013171D02*
X048330Y013171D01*
X048330Y013093D02*
X031890Y013093D01*
X031968Y013014D02*
X048330Y013014D01*
X048330Y012936D02*
X032047Y012936D01*
X032125Y012857D02*
X048330Y012857D01*
X048330Y012779D02*
X032204Y012779D01*
X032282Y012700D02*
X048330Y012700D01*
X048330Y012622D02*
X032361Y012622D01*
X032439Y012543D02*
X048330Y012543D01*
X048330Y012465D02*
X032518Y012465D01*
X032596Y012386D02*
X048330Y012386D01*
X048330Y012308D02*
X032675Y012308D01*
X032753Y012229D02*
X048330Y012229D01*
X048330Y012151D02*
X032832Y012151D01*
X032910Y012072D02*
X048330Y012072D01*
X048330Y011994D02*
X032989Y011994D01*
X033067Y011915D02*
X048330Y011915D01*
X048330Y011837D02*
X033146Y011837D01*
X033224Y011758D02*
X048330Y011758D01*
X048330Y011680D02*
X033303Y011680D01*
X033381Y011601D02*
X048330Y011601D01*
X048330Y011523D02*
X033460Y011523D01*
X033538Y011444D02*
X048330Y011444D01*
X048330Y011366D02*
X033617Y011366D01*
X033695Y011287D02*
X048330Y011287D01*
X048330Y011209D02*
X033774Y011209D01*
X033852Y011130D02*
X048330Y011130D01*
X048330Y011052D02*
X033931Y011052D01*
X034009Y010973D02*
X048330Y010973D01*
X048330Y010895D02*
X034088Y010895D01*
X034166Y010816D02*
X048330Y010816D01*
X048330Y010738D02*
X034245Y010738D01*
X034323Y010659D02*
X048330Y010659D01*
X048330Y010581D02*
X034402Y010581D01*
X034465Y010502D02*
X048330Y010502D01*
X048330Y010424D02*
X034497Y010424D01*
X034530Y010345D02*
X048330Y010345D01*
X048330Y010267D02*
X034562Y010267D01*
X034584Y010188D02*
X048330Y010188D01*
X048330Y010110D02*
X034584Y010110D01*
X034584Y010031D02*
X048330Y010031D01*
X048330Y009953D02*
X034584Y009953D01*
X034584Y009874D02*
X048330Y009874D01*
X048330Y009796D02*
X034584Y009796D01*
X034584Y009717D02*
X048330Y009717D01*
X048330Y009639D02*
X034584Y009639D01*
X034584Y009560D02*
X048330Y009560D01*
X048330Y009482D02*
X034584Y009482D01*
X034584Y009403D02*
X048330Y009403D01*
X048330Y009325D02*
X034584Y009325D01*
X034584Y009246D02*
X048330Y009246D01*
X048330Y009168D02*
X034584Y009168D01*
X034584Y009089D02*
X048330Y009089D01*
X048330Y009011D02*
X034584Y009011D01*
X034584Y008932D02*
X048330Y008932D01*
X048330Y008854D02*
X034584Y008854D01*
X034584Y008775D02*
X048330Y008775D01*
X048330Y008697D02*
X034584Y008697D01*
X034584Y008618D02*
X048330Y008618D01*
X048330Y008540D02*
X034584Y008540D01*
X034584Y008461D02*
X048330Y008461D01*
X048330Y008383D02*
X034584Y008383D01*
X034584Y008304D02*
X048330Y008304D01*
X048330Y008226D02*
X034584Y008226D01*
X034584Y008147D02*
X048330Y008147D01*
X048330Y008069D02*
X034584Y008069D01*
X034584Y007990D02*
X048330Y007990D01*
X048330Y007912D02*
X034584Y007912D01*
X034584Y007833D02*
X048330Y007833D01*
X048330Y007755D02*
X034584Y007755D01*
X034584Y007676D02*
X048330Y007676D01*
X048330Y007598D02*
X034584Y007598D01*
X034584Y007519D02*
X048330Y007519D01*
X048330Y007441D02*
X034567Y007441D01*
X034534Y007362D02*
X048330Y007362D01*
X048330Y007284D02*
X034502Y007284D01*
X034469Y007205D02*
X048330Y007205D01*
X048330Y007127D02*
X034412Y007127D01*
X034334Y007048D02*
X048330Y007048D01*
X048330Y006970D02*
X034255Y006970D01*
X034123Y006891D02*
X048330Y006891D01*
X048330Y006813D02*
X033933Y006813D01*
X033534Y006813D02*
X031571Y006813D01*
X031760Y006891D02*
X033344Y006891D01*
X033212Y006970D02*
X031893Y006970D01*
X031972Y007048D02*
X033133Y007048D01*
X033055Y007127D02*
X032050Y007127D01*
X032107Y007205D02*
X032998Y007205D01*
X032965Y007284D02*
X032140Y007284D01*
X032172Y007362D02*
X032933Y007362D01*
X032900Y007441D02*
X032205Y007441D01*
X032221Y007519D02*
X032884Y007519D01*
X032884Y007598D02*
X032221Y007598D01*
X032221Y007676D02*
X032884Y007676D01*
X032884Y007755D02*
X032221Y007755D01*
X032215Y007833D02*
X032884Y007833D01*
X032884Y007912D02*
X032183Y007912D01*
X032150Y007990D02*
X032884Y007990D01*
X032884Y008069D02*
X032118Y008069D01*
X032076Y008147D02*
X032884Y008147D01*
X032884Y008226D02*
X031998Y008226D01*
X031919Y008304D02*
X032884Y008304D01*
X032884Y008383D02*
X031824Y008383D01*
X031634Y008461D02*
X032884Y008461D01*
X029930Y006813D02*
X018720Y006813D01*
X018720Y006891D02*
X029741Y006891D01*
X036646Y004339D02*
X036567Y004043D01*
X036567Y003737D01*
X036646Y003441D01*
X036799Y003176D01*
X037015Y002959D01*
X037281Y002806D01*
X037576Y002727D01*
X037883Y002727D01*
X038178Y002806D01*
X038444Y002959D01*
X038660Y003176D01*
X038813Y003441D01*
X038893Y003737D01*
X038893Y004043D01*
X038813Y004339D01*
X038660Y004604D01*
X038444Y004821D01*
X038178Y004974D01*
X037883Y005053D01*
X037576Y005053D01*
X037281Y004974D01*
X037015Y004821D01*
X036799Y004604D01*
X036646Y004339D01*
X036636Y004301D02*
X021894Y004301D01*
X021884Y004339D02*
X021731Y004604D01*
X021515Y004821D01*
X021249Y004974D01*
X020954Y005053D01*
X020647Y005053D01*
X020352Y004974D01*
X020086Y004821D01*
X019870Y004604D01*
X019717Y004339D01*
X019637Y004043D01*
X019637Y003737D01*
X019717Y003441D01*
X019870Y003176D01*
X020086Y002959D01*
X020352Y002806D01*
X020647Y002727D01*
X020954Y002727D01*
X021249Y002806D01*
X021515Y002959D01*
X021731Y003176D01*
X021884Y003441D01*
X021963Y003737D01*
X021963Y004043D01*
X021884Y004339D01*
X021861Y004379D02*
X036669Y004379D01*
X036714Y004458D02*
X021816Y004458D01*
X021770Y004536D02*
X036760Y004536D01*
X036809Y004615D02*
X021721Y004615D01*
X021642Y004693D02*
X036888Y004693D01*
X036966Y004772D02*
X021564Y004772D01*
X021464Y004850D02*
X037066Y004850D01*
X037202Y004929D02*
X021328Y004929D01*
X021125Y005007D02*
X037405Y005007D01*
X038054Y005007D02*
X039432Y005007D01*
X039510Y004929D02*
X038257Y004929D01*
X038393Y004850D02*
X039609Y004850D01*
X039574Y004864D02*
X039916Y004723D01*
X040285Y004723D01*
X040627Y004864D01*
X040888Y005126D01*
X041030Y005467D01*
X041030Y005837D01*
X040888Y006178D01*
X040627Y006439D01*
X040285Y006581D01*
X039916Y006581D01*
X039574Y006439D01*
X039313Y006178D01*
X039172Y005837D01*
X039172Y005467D01*
X039313Y005126D01*
X039574Y004864D01*
X039798Y004772D02*
X038493Y004772D01*
X038571Y004693D02*
X048330Y004693D01*
X048330Y004615D02*
X038650Y004615D01*
X038699Y004536D02*
X048330Y004536D01*
X048330Y004458D02*
X038745Y004458D01*
X038790Y004379D02*
X048330Y004379D01*
X048330Y004301D02*
X038824Y004301D01*
X038845Y004222D02*
X048330Y004222D01*
X048330Y004144D02*
X038866Y004144D01*
X038887Y004065D02*
X048330Y004065D01*
X048330Y003987D02*
X038893Y003987D01*
X038893Y003908D02*
X048330Y003908D01*
X048330Y003830D02*
X038893Y003830D01*
X038893Y003751D02*
X048330Y003751D01*
X048330Y003673D02*
X038875Y003673D01*
X038854Y003594D02*
X048330Y003594D01*
X048330Y003516D02*
X038833Y003516D01*
X038811Y003437D02*
X048330Y003437D01*
X048330Y003359D02*
X038766Y003359D01*
X038720Y003280D02*
X048330Y003280D01*
X048330Y003202D02*
X038675Y003202D01*
X038607Y003123D02*
X048330Y003123D01*
X048330Y003045D02*
X038529Y003045D01*
X038450Y002966D02*
X048330Y002966D01*
X048330Y002888D02*
X038319Y002888D01*
X038183Y002809D02*
X048330Y002809D01*
X048330Y002731D02*
X037896Y002731D01*
X037563Y002731D02*
X020967Y002731D01*
X021254Y002809D02*
X037276Y002809D01*
X037140Y002888D02*
X021390Y002888D01*
X021521Y002966D02*
X037009Y002966D01*
X036930Y003045D02*
X021600Y003045D01*
X021678Y003123D02*
X036852Y003123D01*
X036784Y003202D02*
X021746Y003202D01*
X021791Y003280D02*
X036739Y003280D01*
X036694Y003359D02*
X021836Y003359D01*
X021882Y003437D02*
X036648Y003437D01*
X036626Y003516D02*
X021904Y003516D01*
X021925Y003594D02*
X036605Y003594D01*
X036584Y003673D02*
X021946Y003673D01*
X021963Y003751D02*
X036567Y003751D01*
X036567Y003830D02*
X021963Y003830D01*
X021963Y003908D02*
X036567Y003908D01*
X036567Y003987D02*
X021963Y003987D01*
X021958Y004065D02*
X036572Y004065D01*
X036593Y004144D02*
X021937Y004144D01*
X021915Y004222D02*
X036615Y004222D01*
X039232Y005321D02*
X018720Y005321D01*
X018720Y005243D02*
X039265Y005243D01*
X039297Y005164D02*
X018720Y005164D01*
X018720Y005086D02*
X039353Y005086D01*
X039200Y005400D02*
X018720Y005400D01*
X018720Y005478D02*
X039172Y005478D01*
X039172Y005557D02*
X018720Y005557D01*
X018720Y005635D02*
X039172Y005635D01*
X039172Y005714D02*
X018720Y005714D01*
X018720Y005792D02*
X039172Y005792D01*
X039186Y005871D02*
X018720Y005871D01*
X018720Y005949D02*
X039218Y005949D01*
X039251Y006028D02*
X018720Y006028D01*
X018720Y006106D02*
X039283Y006106D01*
X039320Y006185D02*
X018720Y006185D01*
X018720Y006263D02*
X039398Y006263D01*
X039477Y006342D02*
X018720Y006342D01*
X018720Y006420D02*
X039555Y006420D01*
X039717Y006499D02*
X018720Y006499D01*
X018720Y006577D02*
X039907Y006577D01*
X040295Y006577D02*
X048330Y006577D01*
X048330Y006499D02*
X040484Y006499D01*
X040646Y006420D02*
X048330Y006420D01*
X048330Y006342D02*
X040725Y006342D01*
X040803Y006263D02*
X048330Y006263D01*
X048330Y006185D02*
X040882Y006185D01*
X040918Y006106D02*
X048330Y006106D01*
X048330Y006028D02*
X040951Y006028D01*
X040983Y005949D02*
X048330Y005949D01*
X048330Y005871D02*
X041016Y005871D01*
X041030Y005792D02*
X048330Y005792D01*
X048330Y005714D02*
X041030Y005714D01*
X041030Y005635D02*
X048330Y005635D01*
X048330Y005557D02*
X041030Y005557D01*
X041030Y005478D02*
X048330Y005478D01*
X048330Y005400D02*
X041002Y005400D01*
X040969Y005321D02*
X048330Y005321D01*
X048330Y005243D02*
X040937Y005243D01*
X040904Y005164D02*
X048330Y005164D01*
X048330Y005086D02*
X040848Y005086D01*
X040770Y005007D02*
X048330Y005007D01*
X048330Y004929D02*
X040691Y004929D01*
X040592Y004850D02*
X048330Y004850D01*
X048330Y004772D02*
X040403Y004772D01*
X047888Y000454D02*
X018720Y000454D01*
X018720Y000533D02*
X048011Y000533D01*
X048114Y000611D02*
X018720Y000611D01*
X018720Y000690D02*
X048171Y000690D01*
X048228Y000768D02*
X018720Y000768D01*
X018720Y000847D02*
X048264Y000847D01*
X048289Y000925D02*
X018720Y000925D01*
X018720Y001004D02*
X048315Y001004D01*
X048325Y001082D02*
X018720Y001082D01*
X018720Y001161D02*
X048330Y001161D01*
X048330Y001239D02*
X018720Y001239D01*
X018720Y001318D02*
X048330Y001318D01*
X048330Y001396D02*
X018720Y001396D01*
X018720Y001475D02*
X048330Y001475D01*
X048330Y001553D02*
X018720Y001553D01*
X018720Y001632D02*
X048330Y001632D01*
X048330Y001710D02*
X018720Y001710D01*
X018720Y001789D02*
X048330Y001789D01*
X048330Y001867D02*
X018720Y001867D01*
X018720Y001946D02*
X048330Y001946D01*
X048330Y002024D02*
X018720Y002024D01*
X018720Y002103D02*
X048330Y002103D01*
X048330Y002181D02*
X018720Y002181D01*
X018720Y002260D02*
X048330Y002260D01*
X048330Y002338D02*
X018720Y002338D01*
X018720Y002417D02*
X048330Y002417D01*
X048330Y002495D02*
X018720Y002495D01*
X018720Y002574D02*
X048330Y002574D01*
X048330Y002652D02*
X018720Y002652D01*
X018720Y002731D02*
X020634Y002731D01*
X020347Y002809D02*
X018720Y002809D01*
X018720Y002888D02*
X020211Y002888D01*
X020080Y002966D02*
X018720Y002966D01*
X018720Y003045D02*
X020001Y003045D01*
X019923Y003123D02*
X018720Y003123D01*
X018720Y003202D02*
X019855Y003202D01*
X019810Y003280D02*
X018720Y003280D01*
X018720Y003359D02*
X019764Y003359D01*
X019719Y003437D02*
X018720Y003437D01*
X018720Y003516D02*
X019697Y003516D01*
X019676Y003594D02*
X018720Y003594D01*
X018720Y003673D02*
X019655Y003673D01*
X019637Y003751D02*
X018720Y003751D01*
X018720Y003830D02*
X019637Y003830D01*
X019637Y003908D02*
X018720Y003908D01*
X018720Y003987D02*
X019637Y003987D01*
X019643Y004065D02*
X018720Y004065D01*
X018720Y004144D02*
X019664Y004144D01*
X019685Y004222D02*
X018720Y004222D01*
X018720Y004301D02*
X019706Y004301D01*
X019740Y004379D02*
X018720Y004379D01*
X018720Y004458D02*
X019785Y004458D01*
X019831Y004536D02*
X018720Y004536D01*
X018720Y004615D02*
X019880Y004615D01*
X019959Y004693D02*
X018720Y004693D01*
X018720Y004772D02*
X020037Y004772D01*
X020137Y004850D02*
X018720Y004850D01*
X018720Y004929D02*
X020273Y004929D01*
X020476Y005007D02*
X018720Y005007D01*
X018720Y006656D02*
X048330Y006656D01*
X048330Y006734D02*
X018720Y006734D01*
X025340Y013642D02*
X026356Y013642D01*
X026158Y013721D02*
X025262Y013721D01*
X025183Y013799D02*
X026022Y013799D01*
X025935Y013878D02*
X025105Y013878D01*
X025026Y013956D02*
X025857Y013956D01*
X025792Y014035D02*
X024948Y014035D01*
X024869Y014113D02*
X025746Y014113D01*
X025701Y014192D02*
X024791Y014192D01*
X024712Y014270D02*
X025665Y014270D01*
X025644Y014349D02*
X024634Y014349D01*
X024555Y014427D02*
X025623Y014427D01*
X025603Y014506D02*
X024477Y014506D01*
X024398Y014584D02*
X025603Y014584D01*
X025603Y014663D02*
X024320Y014663D01*
X024241Y014741D02*
X025603Y014741D01*
X025614Y014820D02*
X024166Y014820D01*
X024145Y014898D02*
X025635Y014898D01*
X025656Y014977D02*
X024124Y014977D01*
X024098Y015055D02*
X025682Y015055D01*
X025727Y015134D02*
X024053Y015134D01*
X024008Y015212D02*
X025772Y015212D01*
X025823Y015291D02*
X023957Y015291D01*
X023878Y015369D02*
X025902Y015369D01*
X025980Y015448D02*
X023800Y015448D01*
X023680Y015526D02*
X026100Y015526D01*
X026236Y015605D02*
X023544Y015605D01*
X022736Y015605D02*
X022430Y015605D01*
X022352Y015683D02*
X027981Y015683D01*
X027912Y015605D02*
X027044Y015605D01*
X027180Y015526D02*
X027880Y015526D01*
X028059Y015762D02*
X022273Y015762D01*
X022195Y015840D02*
X028138Y015840D01*
X028298Y015919D02*
X022116Y015919D01*
X022038Y015997D02*
X028460Y015997D01*
X028460Y016076D02*
X021959Y016076D01*
X021881Y016154D02*
X028460Y016154D01*
X028460Y016233D02*
X021802Y016233D01*
X021724Y016311D02*
X028460Y016311D01*
X028460Y016390D02*
X021645Y016390D01*
X021567Y016468D02*
X028460Y016468D01*
X028460Y016547D02*
X021488Y016547D01*
X021410Y016625D02*
X028460Y016625D01*
X028460Y016704D02*
X021331Y016704D01*
X021253Y016782D02*
X028460Y016782D01*
X028460Y016861D02*
X021174Y016861D01*
X021132Y016939D02*
X028460Y016939D01*
X028460Y017018D02*
X021132Y017018D01*
X021132Y017096D02*
X028460Y017096D01*
X028460Y017175D02*
X021132Y017175D01*
X021132Y017253D02*
X028460Y017253D01*
X028460Y017332D02*
X021132Y017332D01*
X021132Y017410D02*
X028460Y017410D01*
X028460Y017489D02*
X021132Y017489D01*
X021132Y017567D02*
X028460Y017567D01*
X028460Y017646D02*
X021132Y017646D01*
X021132Y017724D02*
X028460Y017724D01*
X028460Y017803D02*
X021132Y017803D01*
X021132Y017881D02*
X028460Y017881D01*
X028460Y017960D02*
X021132Y017960D01*
X021132Y018038D02*
X028460Y018038D01*
X028460Y018117D02*
X021132Y018117D01*
X021132Y018195D02*
X028460Y018195D01*
X028460Y018274D02*
X024756Y018274D01*
X024934Y018321D02*
X025276Y018519D01*
X025555Y018798D01*
X025753Y019140D01*
X025855Y019521D01*
X025855Y019916D01*
X025753Y020298D01*
X025555Y020640D01*
X025276Y020919D01*
X024934Y021116D01*
X024552Y021219D01*
X024158Y021219D01*
X023776Y021116D01*
X023434Y020919D01*
X023155Y020640D01*
X022957Y020298D01*
X022855Y019916D01*
X022855Y019521D01*
X022957Y019140D01*
X023155Y018798D01*
X023434Y018519D01*
X023776Y018321D01*
X024158Y018219D01*
X024552Y018219D01*
X024934Y018321D01*
X024988Y018352D02*
X028460Y018352D01*
X028460Y018431D02*
X025123Y018431D01*
X025259Y018509D02*
X028460Y018509D01*
X028460Y018588D02*
X025345Y018588D01*
X025423Y018666D02*
X028460Y018666D01*
X028460Y018745D02*
X025502Y018745D01*
X025570Y018823D02*
X028460Y018823D01*
X028460Y018902D02*
X025615Y018902D01*
X025660Y018980D02*
X028460Y018980D01*
X028460Y019059D02*
X025706Y019059D01*
X025751Y019137D02*
X028460Y019137D01*
X028460Y019216D02*
X025773Y019216D01*
X025794Y019294D02*
X028460Y019294D01*
X028460Y019373D02*
X025815Y019373D01*
X025836Y019451D02*
X028460Y019451D01*
X028460Y019530D02*
X025855Y019530D01*
X025855Y019608D02*
X028460Y019608D01*
X028460Y019687D02*
X025855Y019687D01*
X025855Y019765D02*
X028460Y019765D01*
X028460Y019844D02*
X025855Y019844D01*
X025853Y019922D02*
X028460Y019922D01*
X028460Y020001D02*
X025832Y020001D01*
X025811Y020079D02*
X028460Y020079D01*
X028460Y020158D02*
X025790Y020158D01*
X025769Y020236D02*
X028460Y020236D01*
X028460Y020315D02*
X025743Y020315D01*
X025698Y020393D02*
X028460Y020393D01*
X028460Y020472D02*
X025652Y020472D01*
X025607Y020550D02*
X028460Y020550D01*
X028460Y020629D02*
X025562Y020629D01*
X025488Y020707D02*
X028460Y020707D01*
X028460Y020786D02*
X025409Y020786D01*
X025331Y020864D02*
X028460Y020864D01*
X028460Y020943D02*
X025235Y020943D01*
X025099Y021021D02*
X028460Y021021D01*
X028460Y021100D02*
X024963Y021100D01*
X024704Y021178D02*
X028460Y021178D01*
X028460Y021257D02*
X021132Y021257D01*
X021132Y021335D02*
X028460Y021335D01*
X028460Y021414D02*
X021132Y021414D01*
X021132Y021492D02*
X028460Y021492D01*
X028460Y021571D02*
X021132Y021571D01*
X021132Y021649D02*
X028460Y021649D01*
X028460Y021728D02*
X021132Y021728D01*
X021132Y021806D02*
X028460Y021806D01*
X028460Y021885D02*
X021132Y021885D01*
X021132Y021963D02*
X028460Y021963D01*
X028460Y022042D02*
X021132Y022042D01*
X021132Y022120D02*
X028460Y022120D01*
X028460Y022199D02*
X021132Y022199D01*
X021132Y022277D02*
X028460Y022277D01*
X028460Y022356D02*
X023095Y022356D01*
X022747Y022356D02*
X021132Y022356D01*
X021132Y022434D02*
X022678Y022434D01*
X022645Y022513D02*
X021132Y022513D01*
X021132Y022591D02*
X021262Y022591D01*
X021184Y022670D02*
X021132Y022670D01*
X021132Y022748D02*
X021151Y022748D01*
X021141Y022827D02*
X021132Y022827D01*
X021132Y022905D02*
X021150Y022905D01*
X021132Y022984D02*
X021183Y022984D01*
X021194Y023062D02*
X021132Y023062D01*
X021132Y023141D02*
X021151Y023141D01*
X021140Y023219D02*
X021132Y023219D01*
X021132Y023298D02*
X021140Y023298D01*
X021132Y023376D02*
X021140Y023376D01*
X021132Y023455D02*
X021140Y023455D01*
X021132Y023533D02*
X021140Y023533D01*
X021132Y023612D02*
X021140Y023612D01*
X021132Y023690D02*
X021140Y023690D01*
X021132Y023769D02*
X021140Y023769D01*
X021132Y023847D02*
X021140Y023847D01*
X021132Y023926D02*
X021140Y023926D01*
X021132Y024004D02*
X021140Y024004D01*
X021132Y024083D02*
X021140Y024083D01*
X021132Y024161D02*
X021140Y024161D01*
X021132Y024240D02*
X021140Y024240D01*
X021132Y024318D02*
X021140Y024318D01*
X021132Y024397D02*
X021140Y024397D01*
X021132Y024475D02*
X021140Y024475D01*
X021132Y024554D02*
X021140Y024554D01*
X021132Y024632D02*
X021140Y024632D01*
X021132Y024711D02*
X021140Y024711D01*
X021132Y024789D02*
X021140Y024789D01*
X021132Y024868D02*
X021140Y024868D01*
X021132Y024946D02*
X021140Y024946D01*
X021134Y025417D02*
X021140Y025417D01*
X020249Y026359D02*
X022192Y026359D01*
X022265Y026484D02*
X022578Y026171D01*
X022578Y024578D01*
X023703Y023453D01*
X023703Y023203D01*
X024671Y023234D02*
X024671Y024609D01*
X025015Y024953D01*
X025015Y026609D01*
X024890Y026734D01*
X024734Y026734D01*
X024453Y027015D01*
X024453Y027421D01*
X025640Y028609D01*
X025640Y031015D01*
X025515Y031140D01*
X025078Y031140D01*
X024687Y031530D01*
X024687Y031648D01*
X024371Y031619D02*
X024347Y031619D01*
X024347Y031697D02*
X024371Y031697D01*
X024371Y031776D02*
X024347Y031776D01*
X024347Y031854D02*
X024371Y031854D01*
X024371Y031933D02*
X024347Y031933D01*
X024347Y032000D02*
X024371Y032000D01*
X024371Y031292D01*
X024399Y031264D01*
X024397Y031264D01*
X024294Y031221D01*
X024215Y031142D01*
X024173Y031039D01*
X024173Y030928D01*
X024215Y030825D01*
X024294Y030746D01*
X024397Y030704D01*
X024508Y030704D01*
X024527Y030711D01*
X024725Y030513D01*
X024725Y030150D01*
X024784Y030092D01*
X025000Y030092D01*
X025000Y029635D01*
X024563Y029198D01*
X024563Y028417D01*
X023686Y027540D01*
X023686Y030092D01*
X023934Y030092D01*
X023992Y030150D01*
X023992Y030863D01*
X023934Y030922D01*
X023275Y030922D01*
X023275Y031233D01*
X023383Y031233D01*
X023441Y031292D01*
X023441Y032000D01*
X023714Y032000D01*
X023714Y031292D01*
X023772Y031233D01*
X024288Y031233D01*
X024347Y031292D01*
X024347Y032000D01*
X024347Y031540D02*
X024371Y031540D01*
X024371Y031462D02*
X024347Y031462D01*
X024347Y031383D02*
X024371Y031383D01*
X024371Y031305D02*
X024347Y031305D01*
X024306Y031226D02*
X023275Y031226D01*
X023275Y031148D02*
X024220Y031148D01*
X024185Y031069D02*
X023275Y031069D01*
X023275Y030991D02*
X024173Y030991D01*
X024179Y030912D02*
X023943Y030912D01*
X023992Y030834D02*
X024212Y030834D01*
X024285Y030755D02*
X023992Y030755D01*
X023992Y030677D02*
X024562Y030677D01*
X024640Y030598D02*
X023992Y030598D01*
X023992Y030520D02*
X024719Y030520D01*
X024725Y030441D02*
X023992Y030441D01*
X023992Y030363D02*
X024725Y030363D01*
X024725Y030284D02*
X023992Y030284D01*
X023992Y030206D02*
X024725Y030206D01*
X024748Y030127D02*
X023969Y030127D01*
X023686Y030049D02*
X025000Y030049D01*
X025000Y029970D02*
X023686Y029970D01*
X023686Y029892D02*
X025000Y029892D01*
X025000Y029813D02*
X023686Y029813D01*
X023686Y029735D02*
X025000Y029735D01*
X025000Y029656D02*
X023686Y029656D01*
X023686Y029578D02*
X024942Y029578D01*
X024864Y029499D02*
X023686Y029499D01*
X023686Y029421D02*
X024785Y029421D01*
X024707Y029342D02*
X023686Y029342D01*
X023686Y029264D02*
X024628Y029264D01*
X024563Y029185D02*
X023686Y029185D01*
X023686Y029107D02*
X024563Y029107D01*
X024563Y029028D02*
X023686Y029028D01*
X023686Y028950D02*
X024563Y028950D01*
X024563Y028871D02*
X023686Y028871D01*
X023686Y028793D02*
X024563Y028793D01*
X024563Y028714D02*
X023686Y028714D01*
X023686Y028636D02*
X024563Y028636D01*
X024563Y028557D02*
X023686Y028557D01*
X023686Y028479D02*
X024563Y028479D01*
X024546Y028400D02*
X023686Y028400D01*
X023686Y028322D02*
X024467Y028322D01*
X024389Y028243D02*
X023686Y028243D01*
X023686Y028165D02*
X024310Y028165D01*
X024232Y028086D02*
X023686Y028086D01*
X023686Y028008D02*
X024153Y028008D01*
X024075Y027929D02*
X023686Y027929D01*
X023686Y027851D02*
X023996Y027851D01*
X023918Y027772D02*
X023686Y027772D01*
X023686Y027694D02*
X023839Y027694D01*
X023761Y027615D02*
X023686Y027615D01*
X023734Y027390D02*
X024703Y028359D01*
X024703Y029140D01*
X025140Y029578D01*
X025140Y030507D01*
X024930Y030507D01*
X024453Y030984D01*
X023714Y031305D02*
X023441Y031305D01*
X023441Y031383D02*
X023714Y031383D01*
X023714Y031462D02*
X023441Y031462D01*
X023441Y031540D02*
X023714Y031540D01*
X023714Y031619D02*
X023441Y031619D01*
X023441Y031697D02*
X023714Y031697D01*
X023714Y031776D02*
X023441Y031776D01*
X023441Y031854D02*
X023714Y031854D01*
X023714Y031933D02*
X023441Y031933D01*
X023816Y032655D02*
X024026Y032568D01*
X024254Y032568D01*
X024464Y032655D01*
X024625Y032816D01*
X024712Y033026D01*
X024712Y033254D01*
X024625Y033464D01*
X024464Y033625D01*
X024254Y033712D01*
X024026Y033712D01*
X023816Y033625D01*
X023655Y033464D01*
X023568Y033254D01*
X023568Y033026D01*
X023655Y032816D01*
X023816Y032655D01*
X023853Y032639D02*
X021493Y032639D01*
X021461Y032616D02*
X021539Y032673D01*
X021607Y032741D01*
X021664Y032819D01*
X021708Y032905D01*
X021737Y032997D01*
X021752Y033092D01*
X021752Y033100D01*
X021180Y033100D01*
X021180Y033180D01*
X021752Y033180D01*
X021752Y033188D01*
X021737Y033283D01*
X021708Y033375D01*
X021664Y033461D01*
X021607Y033539D01*
X021539Y033607D01*
X021461Y033664D01*
X021375Y033708D01*
X021283Y033737D01*
X021188Y033752D01*
X021180Y033752D01*
X021180Y033180D01*
X021100Y033180D01*
X021100Y033752D01*
X021092Y033752D01*
X020997Y033737D01*
X020905Y033708D01*
X020819Y033664D01*
X020741Y033607D01*
X020673Y033539D01*
X020616Y033461D01*
X020572Y033375D01*
X020543Y033283D01*
X020528Y033188D01*
X020528Y033180D01*
X021100Y033180D01*
X021100Y033100D01*
X021180Y033100D01*
X021180Y032528D01*
X021188Y032528D01*
X021283Y032543D01*
X021375Y032572D01*
X021461Y032616D01*
X021339Y032561D02*
X026531Y032561D01*
X026531Y032639D02*
X024427Y032639D01*
X024527Y032718D02*
X026531Y032718D01*
X026598Y032796D02*
X024606Y032796D01*
X024650Y032875D02*
X026630Y032875D01*
X026598Y032953D02*
X024682Y032953D01*
X024712Y033032D02*
X026568Y033032D01*
X026568Y033110D02*
X024712Y033110D01*
X024712Y033189D02*
X026568Y033189D01*
X026573Y033267D02*
X024707Y033267D01*
X024674Y033346D02*
X026606Y033346D01*
X026638Y033424D02*
X024642Y033424D01*
X024587Y033503D02*
X026693Y033503D01*
X026772Y033581D02*
X024508Y033581D01*
X024381Y033660D02*
X026899Y033660D01*
X027381Y033660D02*
X029899Y033660D01*
X029816Y033625D02*
X029655Y033464D01*
X029568Y033254D01*
X029568Y033026D01*
X029644Y032842D01*
X028582Y031780D01*
X028229Y031780D01*
X028221Y031799D01*
X028142Y031877D01*
X028039Y031920D01*
X027928Y031920D01*
X027825Y031877D01*
X027746Y031799D01*
X027704Y031696D01*
X027704Y031584D01*
X027746Y031481D01*
X027825Y031403D01*
X027928Y031360D01*
X028039Y031360D01*
X028142Y031403D01*
X028221Y031481D01*
X028229Y031500D01*
X028698Y031500D01*
X029842Y032644D01*
X030026Y032568D01*
X030254Y032568D01*
X030464Y032655D01*
X030625Y032816D01*
X030712Y033026D01*
X030712Y033254D01*
X030625Y033464D01*
X030464Y033625D01*
X030254Y033712D01*
X030026Y033712D01*
X029816Y033625D01*
X029772Y033581D02*
X027508Y033581D01*
X027587Y033503D02*
X029693Y033503D01*
X029638Y033424D02*
X027642Y033424D01*
X027674Y033346D02*
X029606Y033346D01*
X029573Y033267D02*
X027707Y033267D01*
X027712Y033189D02*
X029568Y033189D01*
X029568Y033110D02*
X027712Y033110D01*
X027712Y033032D02*
X029568Y033032D01*
X029598Y032953D02*
X027682Y032953D01*
X027650Y032875D02*
X029630Y032875D01*
X029598Y032796D02*
X027606Y032796D01*
X027527Y032718D02*
X029520Y032718D01*
X029441Y032639D02*
X027427Y032639D01*
X026853Y032639D02*
X026837Y032639D01*
X026811Y032561D02*
X029363Y032561D01*
X029284Y032482D02*
X026811Y032482D01*
X026811Y032404D02*
X029206Y032404D01*
X029127Y032325D02*
X026811Y032325D01*
X026811Y032247D02*
X029049Y032247D01*
X028970Y032168D02*
X026811Y032168D01*
X026811Y032090D02*
X028892Y032090D01*
X028813Y032011D02*
X027403Y032011D01*
X027409Y031933D02*
X028735Y031933D01*
X028656Y031854D02*
X028166Y031854D01*
X027984Y031640D02*
X028640Y031640D01*
X030140Y033140D01*
X030674Y033346D02*
X032606Y033346D01*
X032638Y033424D02*
X030642Y033424D01*
X030587Y033503D02*
X032693Y033503D01*
X032655Y033464D02*
X032568Y033254D01*
X032568Y033026D01*
X032636Y032862D01*
X031011Y031237D01*
X028386Y031237D01*
X028293Y031144D01*
X027480Y030331D01*
X027480Y029876D01*
X027403Y029799D01*
X027360Y029696D01*
X027360Y029584D01*
X027403Y029481D01*
X027481Y029403D01*
X027584Y029360D01*
X027696Y029360D01*
X027799Y029403D01*
X027877Y029481D01*
X027920Y029584D01*
X027920Y029696D01*
X027877Y029799D01*
X027800Y029876D01*
X027800Y030199D01*
X028519Y030918D01*
X031144Y030918D01*
X032862Y032636D01*
X033026Y032568D01*
X033254Y032568D01*
X033464Y032655D01*
X033625Y032816D01*
X033712Y033026D01*
X033712Y033254D01*
X033625Y033464D01*
X033464Y033625D01*
X033254Y033712D01*
X033026Y033712D01*
X032816Y033625D01*
X032655Y033464D01*
X032772Y033581D02*
X030508Y033581D01*
X030381Y033660D02*
X032899Y033660D01*
X033381Y033660D02*
X035899Y033660D01*
X035816Y033625D02*
X035655Y033464D01*
X035568Y033254D01*
X035568Y033026D01*
X035655Y032816D01*
X035816Y032655D01*
X036026Y032568D01*
X036254Y032568D01*
X036464Y032655D01*
X036625Y032816D01*
X036712Y033026D01*
X036712Y033254D01*
X036625Y033464D01*
X036464Y033625D01*
X036254Y033712D01*
X036026Y033712D01*
X035816Y033625D01*
X035772Y033581D02*
X033508Y033581D01*
X033587Y033503D02*
X035693Y033503D01*
X035638Y033424D02*
X033642Y033424D01*
X033674Y033346D02*
X033950Y033346D01*
X033981Y033377D02*
X033903Y033299D01*
X033860Y033196D01*
X033860Y033084D01*
X033903Y032981D01*
X033981Y032903D01*
X034000Y032895D01*
X034000Y022832D01*
X035493Y021339D01*
X035485Y021321D01*
X035485Y021209D01*
X035528Y021106D01*
X035606Y021028D01*
X035709Y020985D01*
X035821Y020985D01*
X035924Y021028D01*
X036002Y021106D01*
X036045Y021209D01*
X036045Y021321D01*
X036002Y021424D01*
X035924Y021502D01*
X035821Y021545D01*
X035709Y021545D01*
X035691Y021537D01*
X034280Y022948D01*
X034280Y032895D01*
X034299Y032903D01*
X034377Y032981D01*
X034420Y033084D01*
X034420Y033196D01*
X034377Y033299D01*
X034299Y033377D01*
X034196Y033420D01*
X034084Y033420D01*
X033981Y033377D01*
X033890Y033267D02*
X033707Y033267D01*
X033712Y033189D02*
X033860Y033189D01*
X033860Y033110D02*
X033712Y033110D01*
X033712Y033032D02*
X033882Y033032D01*
X033931Y032953D02*
X033682Y032953D01*
X033650Y032875D02*
X034000Y032875D01*
X034000Y032796D02*
X033606Y032796D01*
X033527Y032718D02*
X034000Y032718D01*
X034000Y032639D02*
X033427Y032639D01*
X034000Y032561D02*
X032787Y032561D01*
X032708Y032482D02*
X034000Y032482D01*
X034000Y032404D02*
X032630Y032404D01*
X032551Y032325D02*
X034000Y032325D01*
X034000Y032247D02*
X032473Y032247D01*
X032394Y032168D02*
X034000Y032168D01*
X034000Y032090D02*
X032316Y032090D01*
X032237Y032011D02*
X034000Y032011D01*
X034000Y031933D02*
X032159Y031933D01*
X032080Y031854D02*
X034000Y031854D01*
X034000Y031776D02*
X032002Y031776D01*
X031923Y031697D02*
X034000Y031697D01*
X034000Y031619D02*
X031845Y031619D01*
X031766Y031540D02*
X034000Y031540D01*
X034000Y031462D02*
X031688Y031462D01*
X031609Y031383D02*
X034000Y031383D01*
X034000Y031305D02*
X031531Y031305D01*
X031452Y031226D02*
X034000Y031226D01*
X034000Y031148D02*
X031374Y031148D01*
X031295Y031069D02*
X034000Y031069D01*
X034000Y030991D02*
X031217Y030991D01*
X031078Y031305D02*
X027409Y031305D01*
X027409Y031383D02*
X027872Y031383D01*
X027766Y031462D02*
X027409Y031462D01*
X027409Y031540D02*
X027722Y031540D01*
X027704Y031619D02*
X027409Y031619D01*
X027409Y031697D02*
X027704Y031697D01*
X027737Y031776D02*
X027409Y031776D01*
X027409Y031854D02*
X027802Y031854D01*
X028201Y031462D02*
X031235Y031462D01*
X031314Y031540D02*
X028738Y031540D01*
X028817Y031619D02*
X031392Y031619D01*
X031471Y031697D02*
X028895Y031697D01*
X028974Y031776D02*
X031549Y031776D01*
X031628Y031854D02*
X029052Y031854D01*
X029131Y031933D02*
X031706Y031933D01*
X031785Y032011D02*
X029209Y032011D01*
X029288Y032090D02*
X031863Y032090D01*
X031942Y032168D02*
X029366Y032168D01*
X029445Y032247D02*
X032020Y032247D01*
X032099Y032325D02*
X029523Y032325D01*
X029602Y032404D02*
X032177Y032404D01*
X032256Y032482D02*
X029680Y032482D01*
X029759Y032561D02*
X032334Y032561D01*
X032413Y032639D02*
X030427Y032639D01*
X030527Y032718D02*
X032491Y032718D01*
X032570Y032796D02*
X030606Y032796D01*
X030650Y032875D02*
X032630Y032875D01*
X032598Y032953D02*
X030682Y032953D01*
X030712Y033032D02*
X032568Y033032D01*
X032568Y033110D02*
X030712Y033110D01*
X030712Y033189D02*
X032568Y033189D01*
X032573Y033267D02*
X030707Y033267D01*
X029853Y032639D02*
X029837Y032639D01*
X031157Y031383D02*
X028095Y031383D01*
X028296Y031148D02*
X027841Y031148D01*
X027895Y031069D02*
X028218Y031069D01*
X028139Y030991D02*
X027920Y030991D01*
X027920Y030912D02*
X028061Y030912D01*
X027982Y030834D02*
X027894Y030834D01*
X027904Y030755D02*
X027839Y030755D01*
X027825Y030677D02*
X027706Y030677D01*
X027747Y030598D02*
X027512Y030598D01*
X027433Y030520D02*
X027668Y030520D01*
X027590Y030441D02*
X027355Y030441D01*
X027276Y030363D02*
X027511Y030363D01*
X027480Y030284D02*
X027055Y030284D01*
X027055Y030206D02*
X027480Y030206D01*
X027480Y030127D02*
X027032Y030127D01*
X027480Y030049D02*
X026280Y030049D01*
X026280Y029970D02*
X027480Y029970D01*
X027480Y029892D02*
X026280Y029892D01*
X026280Y029813D02*
X027417Y029813D01*
X027376Y029735D02*
X026280Y029735D01*
X026280Y029656D02*
X027360Y029656D01*
X027363Y029578D02*
X026280Y029578D01*
X026280Y029499D02*
X026666Y029499D01*
X026589Y029421D02*
X026280Y029421D01*
X026280Y029342D02*
X026556Y029342D01*
X026548Y029264D02*
X026280Y029264D01*
X026280Y029185D02*
X026521Y029185D01*
X026443Y029107D02*
X026280Y029107D01*
X026280Y029028D02*
X026364Y029028D01*
X026355Y028950D02*
X026280Y028950D01*
X026280Y028871D02*
X026355Y028871D01*
X026355Y028793D02*
X026280Y028793D01*
X026280Y028714D02*
X026355Y028714D01*
X026355Y028636D02*
X026280Y028636D01*
X026280Y028557D02*
X026355Y028557D01*
X026355Y028479D02*
X026280Y028479D01*
X026280Y028400D02*
X026355Y028400D01*
X026355Y028322D02*
X026280Y028322D01*
X026280Y028243D02*
X026355Y028243D01*
X026355Y028165D02*
X026280Y028165D01*
X026280Y028086D02*
X026355Y028086D01*
X026355Y028008D02*
X026206Y028008D01*
X026127Y027929D02*
X026355Y027929D01*
X026355Y027851D02*
X026049Y027851D01*
X025970Y027772D02*
X026355Y027772D01*
X026355Y027694D02*
X025892Y027694D01*
X025813Y027615D02*
X026355Y027615D01*
X026355Y027537D02*
X025735Y027537D01*
X025640Y027640D02*
X026140Y028140D01*
X026140Y030890D01*
X026328Y031078D01*
X026546Y031078D01*
X026671Y031203D01*
X026671Y032671D01*
X027140Y033140D01*
X026531Y032482D02*
X017271Y032482D01*
X017193Y032561D02*
X017941Y032561D01*
X017905Y032572D02*
X017997Y032543D01*
X018092Y032528D01*
X018100Y032528D01*
X018100Y033100D01*
X018180Y033100D01*
X018180Y033180D01*
X018752Y033180D01*
X018752Y033188D01*
X018737Y033283D01*
X018708Y033375D01*
X018664Y033461D01*
X018607Y033539D01*
X018539Y033607D01*
X018461Y033664D01*
X018375Y033708D01*
X018283Y033737D01*
X018188Y033752D01*
X018180Y033752D01*
X018180Y033180D01*
X018100Y033180D01*
X018100Y033752D01*
X018092Y033752D01*
X017997Y033737D01*
X017905Y033708D01*
X017819Y033664D01*
X017741Y033607D01*
X017673Y033539D01*
X017616Y033461D01*
X017572Y033375D01*
X017543Y033283D01*
X017528Y033188D01*
X017528Y033180D01*
X018100Y033180D01*
X018100Y033100D01*
X017528Y033100D01*
X017528Y033092D01*
X017543Y032997D01*
X017572Y032905D01*
X017616Y032819D01*
X017673Y032741D01*
X017741Y032673D01*
X017819Y032616D01*
X017905Y032572D01*
X017787Y032639D02*
X017114Y032639D01*
X017036Y032718D02*
X017696Y032718D01*
X017633Y032796D02*
X016957Y032796D01*
X016879Y032875D02*
X017588Y032875D01*
X017557Y032953D02*
X016800Y032953D01*
X016722Y033032D02*
X017537Y033032D01*
X017528Y033189D02*
X016565Y033189D01*
X016486Y033267D02*
X017540Y033267D01*
X017563Y033346D02*
X016408Y033346D01*
X016329Y033424D02*
X017597Y033424D01*
X017646Y033503D02*
X016251Y033503D01*
X016172Y033581D02*
X017715Y033581D01*
X017813Y033660D02*
X016094Y033660D01*
X016015Y033738D02*
X018001Y033738D01*
X018100Y033738D02*
X018180Y033738D01*
X018180Y033660D02*
X018100Y033660D01*
X018100Y033581D02*
X018180Y033581D01*
X018180Y033503D02*
X018100Y033503D01*
X018100Y033424D02*
X018180Y033424D01*
X018180Y033346D02*
X018100Y033346D01*
X018100Y033267D02*
X018180Y033267D01*
X018180Y033189D02*
X018100Y033189D01*
X018100Y033110D02*
X016643Y033110D01*
X016370Y032875D02*
X015650Y032875D01*
X015682Y032953D02*
X016291Y032953D01*
X016213Y033032D02*
X015712Y033032D01*
X015712Y033110D02*
X016134Y033110D01*
X016056Y033189D02*
X015712Y033189D01*
X015707Y033267D02*
X015977Y033267D01*
X015899Y033346D02*
X015674Y033346D01*
X015642Y033424D02*
X015820Y033424D01*
X015742Y033503D02*
X015587Y033503D01*
X015663Y033581D02*
X015508Y033581D01*
X015585Y033660D02*
X015381Y033660D01*
X015506Y033738D02*
X012993Y033738D01*
X013071Y033817D02*
X015428Y033817D01*
X015701Y034052D02*
X048274Y034052D01*
X048300Y033974D02*
X015780Y033974D01*
X015858Y033895D02*
X040562Y033895D01*
X040575Y033909D02*
X040496Y033830D01*
X040454Y033727D01*
X040454Y033616D01*
X040496Y033513D01*
X040575Y033434D01*
X040594Y033426D01*
X040594Y033135D01*
X040402Y032944D01*
X040383Y032951D01*
X040272Y032951D01*
X040169Y032909D01*
X040090Y032830D01*
X040048Y032727D01*
X040048Y032616D01*
X040090Y032513D01*
X040169Y032434D01*
X040272Y032391D01*
X040383Y032391D01*
X040486Y032434D01*
X040565Y032513D01*
X040607Y032616D01*
X040607Y032727D01*
X040600Y032746D01*
X040874Y033020D01*
X040874Y033426D01*
X040892Y033434D01*
X040971Y033513D01*
X041014Y033616D01*
X041014Y033727D01*
X040971Y033830D01*
X040892Y033909D01*
X040789Y033951D01*
X040678Y033951D01*
X040575Y033909D01*
X040491Y033817D02*
X015937Y033817D01*
X015623Y034131D02*
X048249Y034131D01*
X048193Y034209D02*
X000517Y034209D01*
X000461Y034131D02*
X012876Y034131D01*
X012798Y034052D02*
X000436Y034052D01*
X000410Y033974D02*
X012719Y033974D01*
X012641Y033895D02*
X000388Y033895D01*
X000382Y033817D02*
X012562Y033817D01*
X012484Y033738D02*
X000380Y033738D01*
X000380Y033660D02*
X011899Y033660D01*
X011772Y033581D02*
X000380Y033581D01*
X000380Y033503D02*
X011693Y033503D01*
X011638Y033424D02*
X000380Y033424D01*
X000380Y033346D02*
X011606Y033346D01*
X011573Y033267D02*
X000380Y033267D01*
X000380Y033189D02*
X011568Y033189D01*
X011568Y033110D02*
X000380Y033110D01*
X000380Y033032D02*
X011568Y033032D01*
X011598Y032953D02*
X000380Y032953D01*
X000380Y032875D02*
X011630Y032875D01*
X011674Y032796D02*
X000380Y032796D01*
X000380Y032718D02*
X011753Y032718D01*
X011853Y032639D02*
X000380Y032639D01*
X000574Y034288D02*
X048136Y034288D01*
X048054Y034366D02*
X000656Y034366D01*
X000764Y034445D02*
X047946Y034445D01*
X047743Y034523D02*
X000967Y034523D01*
X012381Y033660D02*
X012405Y033660D01*
X012679Y033424D02*
X014638Y033424D01*
X014606Y033346D02*
X012674Y033346D01*
X012707Y033267D02*
X014573Y033267D01*
X014568Y033189D02*
X012712Y033189D01*
X012712Y033110D02*
X014568Y033110D01*
X014568Y033032D02*
X012712Y033032D01*
X012682Y032953D02*
X014598Y032953D01*
X014630Y032875D02*
X012650Y032875D01*
X012606Y032796D02*
X014674Y032796D01*
X014753Y032718D02*
X012527Y032718D01*
X012427Y032639D02*
X014853Y032639D01*
X014693Y033503D02*
X012757Y033503D01*
X012836Y033581D02*
X014772Y033581D01*
X014899Y033660D02*
X012914Y033660D01*
X017350Y032404D02*
X026531Y032404D01*
X026531Y032325D02*
X017428Y032325D01*
X017507Y032247D02*
X021142Y032247D01*
X021064Y032168D02*
X020758Y032168D01*
X020824Y032090D02*
X020985Y032090D01*
X020907Y032011D02*
X020856Y032011D01*
X021265Y032171D02*
X021796Y032171D01*
X021921Y032046D01*
X021921Y030600D01*
X022015Y030507D01*
X021296Y031015D02*
X021546Y031265D01*
X021546Y031632D01*
X021562Y031648D01*
X022109Y031328D02*
X022109Y032015D01*
X022234Y032140D01*
X026046Y032140D01*
X026171Y032015D01*
X026171Y031664D01*
X026187Y031648D01*
X026504Y031619D02*
X026531Y031619D01*
X026531Y031697D02*
X026504Y031697D01*
X026504Y031776D02*
X026531Y031776D01*
X026531Y031854D02*
X026504Y031854D01*
X026504Y031933D02*
X026531Y031933D01*
X026531Y032011D02*
X026497Y032011D01*
X026531Y032090D02*
X026295Y032090D01*
X026216Y032168D02*
X026531Y032168D01*
X026531Y032247D02*
X026138Y032247D01*
X026504Y031540D02*
X026531Y031540D01*
X026531Y031462D02*
X026504Y031462D01*
X026504Y031383D02*
X026531Y031383D01*
X026531Y031305D02*
X026504Y031305D01*
X026497Y031226D02*
X025627Y031226D01*
X025705Y031148D02*
X026200Y031148D01*
X026121Y031069D02*
X025780Y031069D01*
X025780Y030991D02*
X026043Y030991D01*
X026000Y030912D02*
X025780Y030912D01*
X025780Y030834D02*
X026000Y030834D01*
X026000Y030755D02*
X025780Y030755D01*
X025780Y030677D02*
X026000Y030677D01*
X026000Y030598D02*
X025780Y030598D01*
X025780Y030520D02*
X026000Y030520D01*
X026000Y030441D02*
X025780Y030441D01*
X025780Y030363D02*
X026000Y030363D01*
X026000Y030284D02*
X025780Y030284D01*
X025780Y030206D02*
X026000Y030206D01*
X026000Y030127D02*
X025780Y030127D01*
X025780Y030049D02*
X026000Y030049D01*
X026000Y029970D02*
X025780Y029970D01*
X025780Y029892D02*
X026000Y029892D01*
X026000Y029813D02*
X025780Y029813D01*
X025780Y029735D02*
X026000Y029735D01*
X026000Y029656D02*
X025780Y029656D01*
X025780Y029578D02*
X026000Y029578D01*
X026000Y029499D02*
X025780Y029499D01*
X025780Y029421D02*
X026000Y029421D01*
X026000Y029342D02*
X025780Y029342D01*
X025780Y029264D02*
X026000Y029264D01*
X026000Y029185D02*
X025780Y029185D01*
X025780Y029107D02*
X026000Y029107D01*
X026000Y029028D02*
X025780Y029028D01*
X025780Y028950D02*
X026000Y028950D01*
X026000Y028871D02*
X025780Y028871D01*
X025780Y028793D02*
X026000Y028793D01*
X026000Y028714D02*
X025780Y028714D01*
X025780Y028636D02*
X026000Y028636D01*
X026000Y028557D02*
X025780Y028557D01*
X025708Y028479D02*
X026000Y028479D01*
X026000Y028400D02*
X025629Y028400D01*
X025551Y028322D02*
X026000Y028322D01*
X026000Y028243D02*
X025472Y028243D01*
X025394Y028165D02*
X025967Y028165D01*
X025888Y028086D02*
X025315Y028086D01*
X025237Y028008D02*
X025810Y028008D01*
X025731Y027929D02*
X025158Y027929D01*
X025080Y027851D02*
X025653Y027851D01*
X025640Y027640D02*
X025140Y027640D01*
X024828Y027328D01*
X024828Y027171D01*
X025077Y027301D02*
X025093Y027301D01*
X025078Y027380D02*
X025174Y027380D01*
X025156Y027458D02*
X026355Y027458D01*
X026355Y027380D02*
X025481Y027380D01*
X025562Y027301D02*
X026355Y027301D01*
X026355Y027223D02*
X025596Y027223D01*
X025607Y027144D02*
X026355Y027144D01*
X026355Y027066D02*
X025600Y027066D01*
X025567Y026987D02*
X026279Y026987D01*
X026246Y026909D02*
X025507Y026909D01*
X025507Y026830D02*
X026235Y026830D01*
X026243Y026752D02*
X025507Y026752D01*
X025507Y026673D02*
X026276Y026673D01*
X026247Y026595D02*
X025507Y026595D01*
X025507Y026516D02*
X026172Y026516D01*
X026140Y026438D02*
X025507Y026438D01*
X025507Y026359D02*
X025744Y026359D01*
X025676Y026281D02*
X025507Y026281D01*
X025507Y026202D02*
X025644Y026202D01*
X025641Y026124D02*
X025507Y026124D01*
X025507Y026045D02*
X025657Y026045D01*
X025699Y025967D02*
X025507Y025967D01*
X025507Y025888D02*
X025730Y025888D01*
X025730Y025810D02*
X025507Y025810D01*
X025507Y025731D02*
X025730Y025731D01*
X025730Y025653D02*
X025507Y025653D01*
X025507Y025574D02*
X025730Y025574D01*
X025730Y025496D02*
X025507Y025496D01*
X025507Y025417D02*
X025730Y025417D01*
X025730Y025339D02*
X025507Y025339D01*
X025507Y025260D02*
X025730Y025260D01*
X025730Y025182D02*
X025507Y025182D01*
X025507Y025103D02*
X025730Y025103D01*
X025730Y025025D02*
X025507Y025025D01*
X025507Y024946D02*
X025730Y024946D01*
X025730Y024868D02*
X025507Y024868D01*
X025507Y024789D02*
X025730Y024789D01*
X025730Y024711D02*
X025507Y024711D01*
X025507Y024632D02*
X025730Y024632D01*
X025730Y024554D02*
X025433Y024554D01*
X025357Y024475D02*
X025730Y024475D01*
X025730Y024397D02*
X025360Y024397D01*
X025438Y024318D02*
X025730Y024318D01*
X025730Y024240D02*
X025517Y024240D01*
X025550Y024161D02*
X025730Y024161D01*
X025730Y024083D02*
X025550Y024083D01*
X025550Y024004D02*
X025730Y024004D01*
X025730Y023926D02*
X025550Y023926D01*
X025550Y023847D02*
X025730Y023847D01*
X025730Y023769D02*
X025550Y023769D01*
X025550Y023690D02*
X025730Y023690D01*
X025730Y023612D02*
X025550Y023612D01*
X025550Y023533D02*
X025730Y023533D01*
X025730Y023455D02*
X025550Y023455D01*
X025612Y023376D02*
X025730Y023376D01*
X025730Y023298D02*
X025654Y023298D01*
X025670Y023219D02*
X025730Y023219D01*
X025730Y023141D02*
X025667Y023141D01*
X025635Y023062D02*
X025730Y023062D01*
X025695Y022984D02*
X025567Y022984D01*
X025833Y022670D02*
X025884Y022670D01*
X025963Y022591D02*
X025283Y022591D01*
X025205Y022513D02*
X026041Y022513D01*
X025126Y022434D02*
X028460Y022434D01*
X028460Y022513D02*
X027801Y022513D01*
X028050Y022591D02*
X028460Y022591D01*
X028460Y022670D02*
X028128Y022670D01*
X028160Y022748D02*
X028460Y022748D01*
X028460Y022827D02*
X028170Y022827D01*
X028161Y022905D02*
X028460Y022905D01*
X028460Y022984D02*
X028128Y022984D01*
X028051Y023062D02*
X028460Y023062D01*
X028460Y023141D02*
X027570Y023141D01*
X027570Y023219D02*
X028460Y023219D01*
X028460Y023298D02*
X027570Y023298D01*
X027570Y023376D02*
X028460Y023376D01*
X028460Y023455D02*
X027570Y023455D01*
X027570Y023533D02*
X028460Y023533D01*
X028460Y023612D02*
X027570Y023612D01*
X027570Y023690D02*
X028460Y023690D01*
X028460Y023769D02*
X027570Y023769D01*
X027570Y023847D02*
X028460Y023847D01*
X028460Y023926D02*
X027570Y023926D01*
X027570Y024004D02*
X028460Y024004D01*
X028460Y024083D02*
X027570Y024083D01*
X027570Y024161D02*
X028460Y024161D01*
X028460Y024240D02*
X027570Y024240D01*
X027570Y024318D02*
X028460Y024318D01*
X028460Y024397D02*
X027570Y024397D01*
X027570Y024475D02*
X028460Y024475D01*
X028460Y024554D02*
X027570Y024554D01*
X027570Y024632D02*
X028460Y024632D01*
X028460Y024711D02*
X027570Y024711D01*
X027570Y024789D02*
X028460Y024789D01*
X028460Y024868D02*
X027570Y024868D01*
X027570Y024946D02*
X028460Y024946D01*
X028460Y025025D02*
X027570Y025025D01*
X027570Y025103D02*
X028460Y025103D01*
X028460Y025182D02*
X027570Y025182D01*
X027570Y025260D02*
X028460Y025260D01*
X028460Y025339D02*
X027570Y025339D01*
X027570Y025417D02*
X028460Y025417D01*
X028460Y025496D02*
X027570Y025496D01*
X027570Y025574D02*
X028389Y025574D01*
X028310Y025653D02*
X027570Y025653D01*
X027570Y025731D02*
X028232Y025731D01*
X028153Y025810D02*
X027570Y025810D01*
X027570Y025888D02*
X028075Y025888D01*
X027996Y025967D02*
X027570Y025967D01*
X027570Y026045D02*
X027918Y026045D01*
X027839Y026124D02*
X027570Y026124D01*
X027570Y026202D02*
X027761Y026202D01*
X027682Y026281D02*
X027570Y026281D01*
X027570Y026359D02*
X027604Y026359D01*
X027877Y026595D02*
X030105Y026595D01*
X030105Y026673D02*
X029010Y026673D01*
X029008Y026673D02*
X029111Y026715D01*
X029190Y026794D01*
X029232Y026897D01*
X029232Y027008D01*
X029190Y027111D01*
X029111Y027190D01*
X029008Y027232D01*
X028899Y027232D01*
X028581Y027550D01*
X027563Y027550D01*
X027486Y027627D01*
X027383Y027670D01*
X027272Y027670D01*
X027169Y027627D01*
X027090Y027549D01*
X027048Y027446D01*
X027048Y027334D01*
X027090Y027231D01*
X027169Y027153D01*
X027272Y027110D01*
X027383Y027110D01*
X027486Y027153D01*
X027563Y027230D01*
X028449Y027230D01*
X028673Y027006D01*
X028673Y026897D01*
X028715Y026794D01*
X028794Y026715D01*
X028897Y026673D01*
X029008Y026673D01*
X028895Y026673D02*
X027799Y026673D01*
X027720Y026752D02*
X028757Y026752D01*
X028700Y026830D02*
X027642Y026830D01*
X027563Y026909D02*
X028673Y026909D01*
X028673Y026987D02*
X027485Y026987D01*
X027465Y027144D02*
X028535Y027144D01*
X028613Y027066D02*
X026675Y027066D01*
X026675Y027144D02*
X027190Y027144D01*
X027099Y027223D02*
X026675Y027223D01*
X026675Y027301D02*
X027061Y027301D01*
X027048Y027380D02*
X026675Y027380D01*
X026675Y027458D02*
X027053Y027458D01*
X027085Y027537D02*
X026675Y027537D01*
X026675Y027615D02*
X027157Y027615D01*
X027498Y027615D02*
X029469Y027615D01*
X029481Y027627D02*
X029403Y027549D01*
X029360Y027446D01*
X029360Y027334D01*
X029403Y027231D01*
X029481Y027153D01*
X029584Y027110D01*
X029696Y027110D01*
X029799Y027153D01*
X029877Y027231D01*
X029920Y027334D01*
X029920Y027446D01*
X029877Y027549D01*
X029799Y027627D01*
X029696Y027670D01*
X029584Y027670D01*
X029481Y027627D01*
X029398Y027537D02*
X028595Y027537D01*
X028673Y027458D02*
X029365Y027458D01*
X029360Y027380D02*
X028752Y027380D01*
X028830Y027301D02*
X029374Y027301D01*
X029411Y027223D02*
X029032Y027223D01*
X029157Y027144D02*
X029502Y027144D01*
X029778Y027144D02*
X030105Y027144D01*
X030105Y027066D02*
X029209Y027066D01*
X029232Y026987D02*
X030105Y026987D01*
X030105Y026909D02*
X029232Y026909D01*
X029205Y026830D02*
X030105Y026830D01*
X030105Y026752D02*
X029148Y026752D01*
X028456Y027223D02*
X027556Y027223D01*
X026675Y027694D02*
X030105Y027694D01*
X030105Y027772D02*
X026675Y027772D01*
X026675Y027851D02*
X030105Y027851D01*
X030105Y027929D02*
X026675Y027929D01*
X026675Y028008D02*
X030105Y028008D01*
X030105Y028086D02*
X026675Y028086D01*
X026675Y028165D02*
X030105Y028165D01*
X030105Y028243D02*
X026675Y028243D01*
X026675Y028322D02*
X030105Y028322D01*
X030105Y028400D02*
X026675Y028400D01*
X026675Y028479D02*
X030105Y028479D01*
X030105Y028557D02*
X026675Y028557D01*
X026675Y028636D02*
X030043Y028636D01*
X030105Y028574D02*
X030105Y024938D01*
X030028Y024861D01*
X029985Y024758D01*
X029985Y024647D01*
X030028Y024544D01*
X030106Y024465D01*
X030209Y024423D01*
X030321Y024423D01*
X030424Y024465D01*
X030502Y024544D01*
X030545Y024647D01*
X030545Y024758D01*
X030502Y024861D01*
X030425Y024938D01*
X030425Y028706D01*
X030331Y028800D01*
X028732Y030399D01*
X028732Y030508D01*
X028690Y030611D01*
X028611Y030690D01*
X028508Y030732D01*
X028397Y030732D01*
X028294Y030690D01*
X028215Y030611D01*
X028173Y030508D01*
X028173Y030397D01*
X028215Y030294D01*
X028294Y030215D01*
X028397Y030173D01*
X028506Y030173D01*
X030105Y028574D01*
X029965Y028714D02*
X026675Y028714D01*
X026675Y028793D02*
X029886Y028793D01*
X029808Y028871D02*
X026675Y028871D01*
X026738Y028950D02*
X029729Y028950D01*
X029651Y029028D02*
X026987Y029028D01*
X027065Y029107D02*
X029572Y029107D01*
X029494Y029185D02*
X027097Y029185D01*
X027107Y029264D02*
X029415Y029264D01*
X029337Y029342D02*
X027099Y029342D01*
X027066Y029421D02*
X027463Y029421D01*
X027395Y029499D02*
X026989Y029499D01*
X027817Y029421D02*
X029258Y029421D01*
X029180Y029499D02*
X027885Y029499D01*
X027917Y029578D02*
X029101Y029578D01*
X029023Y029656D02*
X027920Y029656D01*
X027904Y029735D02*
X028944Y029735D01*
X028866Y029813D02*
X027863Y029813D01*
X027800Y029892D02*
X028787Y029892D01*
X028709Y029970D02*
X027800Y029970D01*
X027800Y030049D02*
X028630Y030049D01*
X028552Y030127D02*
X027800Y030127D01*
X027807Y030206D02*
X028317Y030206D01*
X028225Y030284D02*
X027885Y030284D01*
X027964Y030363D02*
X028187Y030363D01*
X028173Y030441D02*
X028042Y030441D01*
X028121Y030520D02*
X028177Y030520D01*
X028199Y030598D02*
X028210Y030598D01*
X028278Y030677D02*
X028281Y030677D01*
X028356Y030755D02*
X034000Y030755D01*
X034000Y030677D02*
X028624Y030677D01*
X028695Y030598D02*
X034000Y030598D01*
X034000Y030520D02*
X028728Y030520D01*
X028732Y030441D02*
X034000Y030441D01*
X034000Y030363D02*
X028769Y030363D01*
X028847Y030284D02*
X034000Y030284D01*
X034000Y030206D02*
X028926Y030206D01*
X029004Y030127D02*
X034000Y030127D01*
X034000Y030049D02*
X029083Y030049D01*
X029161Y029970D02*
X034000Y029970D01*
X034000Y029892D02*
X029240Y029892D01*
X029318Y029813D02*
X034000Y029813D01*
X034000Y029735D02*
X029397Y029735D01*
X029475Y029656D02*
X034000Y029656D01*
X034000Y029578D02*
X029554Y029578D01*
X029632Y029499D02*
X034000Y029499D01*
X034000Y029421D02*
X029711Y029421D01*
X029789Y029342D02*
X034000Y029342D01*
X034000Y029264D02*
X029868Y029264D01*
X029946Y029185D02*
X034000Y029185D01*
X034000Y029107D02*
X030025Y029107D01*
X030103Y029028D02*
X034000Y029028D01*
X034000Y028950D02*
X030182Y028950D01*
X030260Y028871D02*
X034000Y028871D01*
X034000Y028793D02*
X030339Y028793D01*
X030417Y028714D02*
X034000Y028714D01*
X034000Y028636D02*
X030425Y028636D01*
X030425Y028557D02*
X034000Y028557D01*
X034000Y028479D02*
X030425Y028479D01*
X030425Y028400D02*
X034000Y028400D01*
X034000Y028322D02*
X030425Y028322D01*
X030425Y028243D02*
X034000Y028243D01*
X034000Y028165D02*
X030425Y028165D01*
X030425Y028086D02*
X034000Y028086D01*
X034000Y028008D02*
X030425Y028008D01*
X030425Y027929D02*
X034000Y027929D01*
X034000Y027851D02*
X030425Y027851D01*
X030425Y027772D02*
X034000Y027772D01*
X034000Y027694D02*
X030425Y027694D01*
X030425Y027615D02*
X034000Y027615D01*
X034000Y027537D02*
X030425Y027537D01*
X030425Y027458D02*
X034000Y027458D01*
X034000Y027380D02*
X030425Y027380D01*
X030425Y027301D02*
X034000Y027301D01*
X034000Y027223D02*
X030425Y027223D01*
X030425Y027144D02*
X034000Y027144D01*
X034000Y027066D02*
X030425Y027066D01*
X030425Y026987D02*
X034000Y026987D01*
X034000Y026909D02*
X030425Y026909D01*
X030425Y026830D02*
X034000Y026830D01*
X034000Y026752D02*
X030425Y026752D01*
X030425Y026673D02*
X034000Y026673D01*
X034000Y026595D02*
X030425Y026595D01*
X030425Y026516D02*
X034000Y026516D01*
X034000Y026438D02*
X030425Y026438D01*
X030425Y026359D02*
X034000Y026359D01*
X034000Y026281D02*
X030425Y026281D01*
X030425Y026202D02*
X034000Y026202D01*
X034000Y026124D02*
X030425Y026124D01*
X030425Y026045D02*
X034000Y026045D01*
X034000Y025967D02*
X030425Y025967D01*
X030425Y025888D02*
X034000Y025888D01*
X034000Y025810D02*
X030425Y025810D01*
X030425Y025731D02*
X034000Y025731D01*
X034000Y025653D02*
X030425Y025653D01*
X030425Y025574D02*
X034000Y025574D01*
X034000Y025496D02*
X030425Y025496D01*
X030425Y025417D02*
X034000Y025417D01*
X034000Y025339D02*
X030425Y025339D01*
X030425Y025260D02*
X034000Y025260D01*
X034000Y025182D02*
X030425Y025182D01*
X030425Y025103D02*
X034000Y025103D01*
X034000Y025025D02*
X030425Y025025D01*
X030425Y024946D02*
X034000Y024946D01*
X034000Y024868D02*
X030496Y024868D01*
X030532Y024789D02*
X034000Y024789D01*
X034000Y024711D02*
X030545Y024711D01*
X030539Y024632D02*
X034000Y024632D01*
X034000Y024554D02*
X030506Y024554D01*
X030434Y024475D02*
X034000Y024475D01*
X034000Y024397D02*
X028820Y024397D01*
X028820Y024475D02*
X030096Y024475D01*
X030024Y024554D02*
X028820Y024554D01*
X028820Y024632D02*
X029991Y024632D01*
X029985Y024711D02*
X028820Y024711D01*
X028820Y024789D02*
X029998Y024789D01*
X030034Y024868D02*
X028820Y024868D01*
X028820Y024946D02*
X030105Y024946D01*
X030105Y025025D02*
X028820Y025025D01*
X028820Y025103D02*
X030105Y025103D01*
X030105Y025182D02*
X028820Y025182D01*
X028820Y025260D02*
X030105Y025260D01*
X030105Y025339D02*
X028820Y025339D01*
X028820Y025417D02*
X030105Y025417D01*
X030105Y025496D02*
X028820Y025496D01*
X028820Y025574D02*
X030105Y025574D01*
X030105Y025653D02*
X028819Y025653D01*
X028741Y025731D02*
X030105Y025731D01*
X030105Y025810D02*
X028662Y025810D01*
X028584Y025888D02*
X030105Y025888D01*
X030105Y025967D02*
X028505Y025967D01*
X028427Y026045D02*
X030105Y026045D01*
X030105Y026124D02*
X028348Y026124D01*
X028270Y026202D02*
X030105Y026202D01*
X030105Y026281D02*
X028191Y026281D01*
X028113Y026359D02*
X030105Y026359D01*
X030105Y026438D02*
X028034Y026438D01*
X027956Y026516D02*
X030105Y026516D01*
X030105Y027223D02*
X029869Y027223D01*
X029906Y027301D02*
X030105Y027301D01*
X030105Y027380D02*
X029920Y027380D01*
X029915Y027458D02*
X030105Y027458D01*
X030105Y027537D02*
X029882Y027537D01*
X029811Y027615D02*
X030105Y027615D01*
X026140Y026359D02*
X026098Y026359D01*
X024671Y025734D02*
X023734Y026671D01*
X023734Y027390D01*
X023874Y027332D02*
X023874Y027145D01*
X023919Y027190D01*
X024022Y027232D01*
X024133Y027232D01*
X024236Y027190D01*
X024313Y027113D01*
X024313Y027479D01*
X025500Y028667D01*
X025500Y030095D01*
X025496Y030092D01*
X025280Y030092D01*
X025280Y029520D01*
X025198Y029438D01*
X024842Y029082D01*
X024842Y028301D01*
X024760Y028219D01*
X023874Y027332D01*
X023874Y027301D02*
X024313Y027301D01*
X024313Y027223D02*
X024157Y027223D01*
X024282Y027144D02*
X024313Y027144D01*
X024313Y027380D02*
X023921Y027380D01*
X024000Y027458D02*
X024313Y027458D01*
X024370Y027537D02*
X024078Y027537D01*
X024157Y027615D02*
X024448Y027615D01*
X024527Y027694D02*
X024235Y027694D01*
X024314Y027772D02*
X024605Y027772D01*
X024684Y027851D02*
X024392Y027851D01*
X024471Y027929D02*
X024762Y027929D01*
X024841Y028008D02*
X024549Y028008D01*
X024628Y028086D02*
X024919Y028086D01*
X024998Y028165D02*
X024706Y028165D01*
X024785Y028243D02*
X025076Y028243D01*
X025155Y028322D02*
X024842Y028322D01*
X024842Y028400D02*
X025233Y028400D01*
X025312Y028479D02*
X024842Y028479D01*
X024842Y028557D02*
X025390Y028557D01*
X025469Y028636D02*
X024842Y028636D01*
X024842Y028714D02*
X025500Y028714D01*
X025500Y028793D02*
X024842Y028793D01*
X024842Y028871D02*
X025500Y028871D01*
X025500Y028950D02*
X024842Y028950D01*
X024842Y029028D02*
X025500Y029028D01*
X025500Y029107D02*
X024867Y029107D01*
X024946Y029185D02*
X025500Y029185D01*
X025500Y029264D02*
X025024Y029264D01*
X025103Y029342D02*
X025500Y029342D01*
X025500Y029421D02*
X025181Y029421D01*
X025260Y029499D02*
X025500Y029499D01*
X025500Y029578D02*
X025280Y029578D01*
X025280Y029656D02*
X025500Y029656D01*
X025500Y029735D02*
X025280Y029735D01*
X025280Y029813D02*
X025500Y029813D01*
X025500Y029892D02*
X025280Y029892D01*
X025280Y029970D02*
X025500Y029970D01*
X025500Y030049D02*
X025280Y030049D01*
X026657Y030991D02*
X027360Y030991D01*
X027360Y030912D02*
X027006Y030912D01*
X027055Y030834D02*
X027295Y030834D01*
X027216Y030755D02*
X027055Y030755D01*
X027055Y030677D02*
X027138Y030677D01*
X027385Y031069D02*
X026736Y031069D01*
X026811Y031148D02*
X027439Y031148D01*
X027569Y031226D02*
X026811Y031226D01*
X027711Y031226D02*
X028375Y031226D01*
X028513Y030912D02*
X034000Y030912D01*
X034000Y030834D02*
X028435Y030834D01*
X025074Y027772D02*
X025001Y027772D01*
X024996Y027694D02*
X024923Y027694D01*
X024917Y027615D02*
X024844Y027615D01*
X024839Y027537D02*
X024766Y027537D01*
X024760Y027458D02*
X024687Y027458D01*
X024640Y027380D02*
X024609Y027380D01*
X023998Y027223D02*
X023874Y027223D01*
X023546Y026578D02*
X023546Y030475D01*
X023578Y030507D01*
X023453Y030382D01*
X022765Y030671D02*
X022109Y031328D01*
X021296Y031015D02*
X021296Y029421D01*
X022265Y028453D01*
X022265Y026484D01*
X023546Y026578D02*
X024290Y025834D01*
X024290Y025130D01*
X024484Y024828D02*
X023921Y024828D01*
X023890Y024859D01*
X022860Y024859D01*
X023061Y025375D02*
X023065Y025375D01*
X023061Y025375D02*
X022765Y025671D01*
X022765Y030671D01*
X022064Y032168D02*
X021997Y032168D01*
X021919Y032247D02*
X022142Y032247D01*
X021584Y032718D02*
X023753Y032718D01*
X023674Y032796D02*
X021647Y032796D01*
X021692Y032875D02*
X023630Y032875D01*
X023598Y032953D02*
X021723Y032953D01*
X021743Y033032D02*
X023568Y033032D01*
X023568Y033110D02*
X021180Y033110D01*
X021180Y033032D02*
X021100Y033032D01*
X021100Y033100D02*
X021100Y032528D01*
X021092Y032528D01*
X020997Y032543D01*
X020905Y032572D01*
X020819Y032616D01*
X020741Y032673D01*
X020673Y032741D01*
X020616Y032819D01*
X020572Y032905D01*
X020543Y032997D01*
X020528Y033092D01*
X020528Y033100D01*
X021100Y033100D01*
X021100Y033110D02*
X018180Y033110D01*
X018180Y033100D02*
X018752Y033100D01*
X018752Y033092D01*
X018737Y032997D01*
X018708Y032905D01*
X018664Y032819D01*
X018607Y032741D01*
X018539Y032673D01*
X018461Y032616D01*
X018375Y032572D01*
X018283Y032543D01*
X018188Y032528D01*
X018180Y032528D01*
X018180Y033100D01*
X018180Y033032D02*
X018100Y033032D01*
X018100Y032953D02*
X018180Y032953D01*
X018180Y032875D02*
X018100Y032875D01*
X018100Y032796D02*
X018180Y032796D01*
X018180Y032718D02*
X018100Y032718D01*
X018100Y032639D02*
X018180Y032639D01*
X018180Y032561D02*
X018100Y032561D01*
X018339Y032561D02*
X020941Y032561D01*
X021100Y032561D02*
X021180Y032561D01*
X021180Y032639D02*
X021100Y032639D01*
X021100Y032718D02*
X021180Y032718D01*
X021180Y032796D02*
X021100Y032796D01*
X021100Y032875D02*
X021180Y032875D01*
X021180Y032953D02*
X021100Y032953D01*
X021100Y033189D02*
X021180Y033189D01*
X021180Y033267D02*
X021100Y033267D01*
X021100Y033346D02*
X021180Y033346D01*
X021180Y033424D02*
X021100Y033424D01*
X021100Y033503D02*
X021180Y033503D01*
X021180Y033581D02*
X021100Y033581D01*
X021100Y033660D02*
X021180Y033660D01*
X021180Y033738D02*
X021100Y033738D01*
X021001Y033738D02*
X018279Y033738D01*
X018467Y033660D02*
X020813Y033660D01*
X020715Y033581D02*
X018565Y033581D01*
X018634Y033503D02*
X020646Y033503D01*
X020597Y033424D02*
X018683Y033424D01*
X018717Y033346D02*
X020563Y033346D01*
X020540Y033267D02*
X018740Y033267D01*
X018752Y033189D02*
X020528Y033189D01*
X020537Y033032D02*
X018743Y033032D01*
X018723Y032953D02*
X020557Y032953D01*
X020588Y032875D02*
X018692Y032875D01*
X018647Y032796D02*
X020633Y032796D01*
X020696Y032718D02*
X018584Y032718D01*
X018493Y032639D02*
X020787Y032639D01*
X020397Y032168D02*
X017585Y032168D01*
X021279Y033738D02*
X040458Y033738D01*
X040454Y033660D02*
X039381Y033660D01*
X039464Y033625D02*
X039254Y033712D01*
X039026Y033712D01*
X038816Y033625D01*
X038655Y033464D01*
X038568Y033254D01*
X038568Y033026D01*
X038627Y032882D01*
X038335Y032590D01*
X038335Y029043D01*
X038278Y028986D01*
X038235Y028883D01*
X038235Y028772D01*
X038278Y028669D01*
X038356Y028590D01*
X038459Y028548D01*
X038571Y028548D01*
X038674Y028590D01*
X038752Y028669D01*
X038795Y028772D01*
X038795Y028883D01*
X038752Y028986D01*
X038695Y029043D01*
X038695Y032440D01*
X038882Y032627D01*
X039026Y032568D01*
X039254Y032568D01*
X039398Y032627D01*
X041116Y030909D01*
X041116Y028075D01*
X041059Y028017D01*
X041016Y027914D01*
X041016Y027803D01*
X041059Y027700D01*
X041116Y027643D01*
X041116Y020371D01*
X039972Y019226D01*
X034628Y019226D01*
X034523Y019121D01*
X034301Y018899D01*
X034276Y018899D01*
X034062Y018685D01*
X034062Y018382D01*
X034276Y018168D01*
X034579Y018168D01*
X034793Y018382D01*
X034793Y018685D01*
X034695Y018784D01*
X034777Y018866D01*
X035030Y018866D01*
X034849Y018685D01*
X034849Y018382D01*
X035063Y018168D01*
X035366Y018168D01*
X035581Y018382D01*
X035581Y018685D01*
X035399Y018866D01*
X040121Y018866D01*
X041371Y020116D01*
X041476Y020222D01*
X041476Y027643D01*
X041534Y027700D01*
X041576Y027803D01*
X041576Y027914D01*
X041534Y028017D01*
X041476Y028075D01*
X041476Y031058D01*
X039653Y032882D01*
X039712Y033026D01*
X039712Y033254D01*
X039625Y033464D01*
X039464Y033625D01*
X039508Y033581D02*
X040468Y033581D01*
X040506Y033503D02*
X039587Y033503D01*
X039642Y033424D02*
X040594Y033424D01*
X040594Y033346D02*
X039674Y033346D01*
X039707Y033267D02*
X040594Y033267D01*
X040594Y033189D02*
X039712Y033189D01*
X039712Y033110D02*
X040568Y033110D01*
X040490Y033032D02*
X039712Y033032D01*
X039682Y032953D02*
X040411Y032953D01*
X040650Y032796D02*
X048330Y032796D01*
X048330Y032718D02*
X040607Y032718D01*
X040607Y032639D02*
X048330Y032639D01*
X048330Y032561D02*
X040585Y032561D01*
X040534Y032482D02*
X048330Y032482D01*
X048330Y032404D02*
X040413Y032404D01*
X040242Y032404D02*
X040131Y032404D01*
X040121Y032482D02*
X040052Y032482D01*
X040070Y032561D02*
X039974Y032561D01*
X040048Y032639D02*
X039895Y032639D01*
X039817Y032718D02*
X040048Y032718D01*
X040076Y032796D02*
X039738Y032796D01*
X039660Y032875D02*
X040135Y032875D01*
X040328Y032671D02*
X040734Y033078D01*
X040734Y033671D01*
X041014Y033660D02*
X048330Y033660D01*
X048330Y033738D02*
X041009Y033738D01*
X040977Y033817D02*
X048328Y033817D01*
X048322Y033895D02*
X040906Y033895D01*
X040999Y033581D02*
X048330Y033581D01*
X048330Y033503D02*
X040961Y033503D01*
X040874Y033424D02*
X048330Y033424D01*
X048330Y033346D02*
X040874Y033346D01*
X040874Y033267D02*
X048330Y033267D01*
X048330Y033189D02*
X040874Y033189D01*
X040874Y033110D02*
X048330Y033110D01*
X048330Y033032D02*
X040874Y033032D01*
X040807Y032953D02*
X048330Y032953D01*
X048330Y032875D02*
X040729Y032875D01*
X040209Y032325D02*
X048330Y032325D01*
X048330Y032247D02*
X040288Y032247D01*
X040366Y032168D02*
X048330Y032168D01*
X048330Y032090D02*
X040445Y032090D01*
X040523Y032011D02*
X048330Y032011D01*
X048330Y031933D02*
X040602Y031933D01*
X040680Y031854D02*
X048330Y031854D01*
X048330Y031776D02*
X040759Y031776D01*
X040837Y031697D02*
X048330Y031697D01*
X048330Y031619D02*
X040916Y031619D01*
X040994Y031540D02*
X048330Y031540D01*
X048330Y031462D02*
X041073Y031462D01*
X041151Y031383D02*
X048330Y031383D01*
X048330Y031305D02*
X041230Y031305D01*
X041308Y031226D02*
X048330Y031226D01*
X048330Y031148D02*
X041387Y031148D01*
X041465Y031069D02*
X048330Y031069D01*
X048330Y030991D02*
X041476Y030991D01*
X041476Y030912D02*
X048330Y030912D01*
X048330Y030834D02*
X041476Y030834D01*
X041476Y030755D02*
X048330Y030755D01*
X048330Y030677D02*
X041476Y030677D01*
X041476Y030598D02*
X048330Y030598D01*
X048330Y030520D02*
X041476Y030520D01*
X041476Y030441D02*
X048330Y030441D01*
X048330Y030363D02*
X041476Y030363D01*
X041476Y030284D02*
X048330Y030284D01*
X048330Y030206D02*
X041476Y030206D01*
X041476Y030127D02*
X048330Y030127D01*
X048330Y030049D02*
X041476Y030049D01*
X041476Y029970D02*
X048330Y029970D01*
X048330Y029892D02*
X041476Y029892D01*
X041476Y029813D02*
X048330Y029813D01*
X048330Y029735D02*
X041476Y029735D01*
X041476Y029656D02*
X048330Y029656D01*
X048330Y029578D02*
X041476Y029578D01*
X041476Y029499D02*
X048330Y029499D01*
X048330Y029421D02*
X041476Y029421D01*
X041476Y029342D02*
X048330Y029342D01*
X048330Y029264D02*
X041476Y029264D01*
X041476Y029185D02*
X048330Y029185D01*
X048330Y029107D02*
X041476Y029107D01*
X041476Y029028D02*
X048330Y029028D01*
X048330Y028950D02*
X041476Y028950D01*
X041476Y028871D02*
X048330Y028871D01*
X048330Y028793D02*
X041476Y028793D01*
X041476Y028714D02*
X048330Y028714D01*
X048330Y028636D02*
X041476Y028636D01*
X041476Y028557D02*
X048330Y028557D01*
X048330Y028479D02*
X041476Y028479D01*
X041476Y028400D02*
X048330Y028400D01*
X048330Y028322D02*
X041476Y028322D01*
X041476Y028243D02*
X048330Y028243D01*
X048330Y028165D02*
X041476Y028165D01*
X041476Y028086D02*
X048330Y028086D01*
X048330Y028008D02*
X041538Y028008D01*
X041570Y027929D02*
X048330Y027929D01*
X048330Y027851D02*
X041576Y027851D01*
X041563Y027772D02*
X048330Y027772D01*
X048330Y027694D02*
X041527Y027694D01*
X041476Y027615D02*
X048330Y027615D01*
X048330Y027537D02*
X041476Y027537D01*
X041476Y027458D02*
X048330Y027458D01*
X048330Y027380D02*
X041476Y027380D01*
X041476Y027301D02*
X048330Y027301D01*
X048330Y027223D02*
X041476Y027223D01*
X041476Y027144D02*
X048330Y027144D01*
X048330Y027066D02*
X041476Y027066D01*
X041476Y026987D02*
X048330Y026987D01*
X048330Y026909D02*
X041476Y026909D01*
X041476Y026830D02*
X048330Y026830D01*
X048330Y026752D02*
X041476Y026752D01*
X041476Y026673D02*
X048330Y026673D01*
X048330Y026595D02*
X041476Y026595D01*
X041476Y026516D02*
X048330Y026516D01*
X048330Y026438D02*
X041476Y026438D01*
X041476Y026359D02*
X048330Y026359D01*
X048330Y026281D02*
X041476Y026281D01*
X041476Y026202D02*
X048330Y026202D01*
X048330Y026124D02*
X041476Y026124D01*
X041476Y026045D02*
X048330Y026045D01*
X048330Y025967D02*
X041476Y025967D01*
X041476Y025888D02*
X048330Y025888D01*
X048330Y025810D02*
X041476Y025810D01*
X041476Y025731D02*
X048330Y025731D01*
X048330Y025653D02*
X041476Y025653D01*
X041476Y025574D02*
X048330Y025574D01*
X048330Y025496D02*
X041476Y025496D01*
X041476Y025417D02*
X048330Y025417D01*
X048330Y025339D02*
X041476Y025339D01*
X041476Y025260D02*
X048330Y025260D01*
X048330Y025182D02*
X041476Y025182D01*
X041476Y025103D02*
X048330Y025103D01*
X048330Y025025D02*
X041476Y025025D01*
X041476Y024946D02*
X048330Y024946D01*
X048330Y024868D02*
X041476Y024868D01*
X041476Y024789D02*
X048330Y024789D01*
X048330Y024711D02*
X041476Y024711D01*
X041476Y024632D02*
X048330Y024632D01*
X048330Y024554D02*
X041476Y024554D01*
X041476Y024475D02*
X048330Y024475D01*
X048330Y024397D02*
X041476Y024397D01*
X041476Y024318D02*
X048330Y024318D01*
X048330Y024240D02*
X041476Y024240D01*
X041476Y024161D02*
X048330Y024161D01*
X048330Y024083D02*
X041476Y024083D01*
X041476Y024004D02*
X048330Y024004D01*
X048330Y023926D02*
X041476Y023926D01*
X041476Y023847D02*
X048330Y023847D01*
X048330Y023769D02*
X041476Y023769D01*
X041476Y023690D02*
X048330Y023690D01*
X048330Y023612D02*
X041476Y023612D01*
X041476Y023533D02*
X048330Y023533D01*
X048330Y023455D02*
X041476Y023455D01*
X041476Y023376D02*
X048330Y023376D01*
X048330Y023298D02*
X041476Y023298D01*
X041476Y023219D02*
X048330Y023219D01*
X048330Y023141D02*
X041476Y023141D01*
X041476Y023062D02*
X048330Y023062D01*
X048330Y022984D02*
X041476Y022984D01*
X041476Y022905D02*
X046466Y022905D01*
X046421Y022827D02*
X041476Y022827D01*
X041476Y022748D02*
X046421Y022748D01*
X046421Y022670D02*
X041476Y022670D01*
X041476Y022591D02*
X046421Y022591D01*
X046421Y022513D02*
X041476Y022513D01*
X041476Y022434D02*
X046421Y022434D01*
X046421Y022356D02*
X041476Y022356D01*
X041476Y022277D02*
X046421Y022277D01*
X046421Y022199D02*
X041476Y022199D01*
X041476Y022120D02*
X046421Y022120D01*
X046421Y022042D02*
X041476Y022042D01*
X041476Y021963D02*
X046421Y021963D01*
X046421Y021885D02*
X041476Y021885D01*
X041476Y021806D02*
X046421Y021806D01*
X046421Y021728D02*
X041476Y021728D01*
X041476Y021649D02*
X046421Y021649D01*
X046421Y021571D02*
X041476Y021571D01*
X041476Y021492D02*
X046421Y021492D01*
X046421Y021414D02*
X041476Y021414D01*
X041476Y021335D02*
X046421Y021335D01*
X046421Y021257D02*
X041476Y021257D01*
X041476Y021178D02*
X046421Y021178D01*
X046421Y021100D02*
X041476Y021100D01*
X041476Y021021D02*
X046421Y021021D01*
X046421Y020943D02*
X041476Y020943D01*
X041476Y020864D02*
X046421Y020864D01*
X046421Y020786D02*
X041476Y020786D01*
X041476Y020707D02*
X046421Y020707D01*
X046421Y020629D02*
X041476Y020629D01*
X041476Y020550D02*
X046421Y020550D01*
X046421Y020472D02*
X041476Y020472D01*
X041476Y020393D02*
X046421Y020393D01*
X046421Y020315D02*
X041476Y020315D01*
X041476Y020236D02*
X046421Y020236D01*
X046421Y020158D02*
X041412Y020158D01*
X041334Y020079D02*
X046421Y020079D01*
X045825Y020001D02*
X041255Y020001D01*
X041177Y019922D02*
X045510Y019922D01*
X045347Y019844D02*
X041098Y019844D01*
X041020Y019765D02*
X045184Y019765D01*
X045021Y019687D02*
X040941Y019687D01*
X040863Y019608D02*
X044917Y019608D01*
X044819Y019530D02*
X040784Y019530D01*
X040706Y019451D02*
X044720Y019451D01*
X044622Y019373D02*
X040627Y019373D01*
X040549Y019294D02*
X044533Y019294D01*
X044471Y019216D02*
X040470Y019216D01*
X040392Y019137D02*
X044408Y019137D01*
X044345Y019059D02*
X040313Y019059D01*
X040235Y018980D02*
X044283Y018980D01*
X044220Y018902D02*
X040156Y018902D01*
X040040Y019294D02*
X030454Y019294D01*
X030454Y019216D02*
X034617Y019216D01*
X034539Y019137D02*
X030454Y019137D01*
X030454Y019059D02*
X034460Y019059D01*
X034382Y018980D02*
X030454Y018980D01*
X030454Y018902D02*
X034303Y018902D01*
X034200Y018823D02*
X033868Y018823D01*
X033791Y018899D02*
X033489Y018899D01*
X033274Y018685D01*
X033274Y018382D01*
X033489Y018168D01*
X033791Y018168D01*
X034006Y018382D01*
X034006Y018685D01*
X033791Y018899D01*
X033946Y018745D02*
X034121Y018745D01*
X034062Y018666D02*
X034006Y018666D01*
X034006Y018588D02*
X034062Y018588D01*
X034062Y018509D02*
X034006Y018509D01*
X034006Y018431D02*
X034062Y018431D01*
X034092Y018352D02*
X033976Y018352D01*
X033897Y018274D02*
X034170Y018274D01*
X034249Y018195D02*
X033819Y018195D01*
X033791Y018112D02*
X033489Y018112D01*
X033274Y017898D01*
X033274Y017595D01*
X033489Y017381D01*
X033791Y017381D01*
X034006Y017595D01*
X034006Y017898D01*
X033791Y018112D01*
X033865Y018038D02*
X034145Y018038D01*
X034067Y017960D02*
X033944Y017960D01*
X034022Y017914D02*
X034259Y018152D01*
X034387Y018152D01*
X034387Y017786D01*
X034387Y017706D01*
X034022Y017706D01*
X034022Y017578D01*
X034259Y017341D01*
X034387Y017341D01*
X034387Y017706D01*
X034467Y017706D01*
X034467Y017341D01*
X034595Y017341D01*
X034833Y017578D01*
X034833Y017706D01*
X034467Y017706D01*
X034467Y017786D01*
X034387Y017786D01*
X034022Y017786D01*
X034022Y017914D01*
X034022Y017881D02*
X034006Y017881D01*
X034006Y017803D02*
X034022Y017803D01*
X034006Y017724D02*
X034387Y017724D01*
X034387Y017646D02*
X034467Y017646D01*
X034467Y017724D02*
X034849Y017724D01*
X034833Y017786D02*
X034833Y017914D01*
X034595Y018152D01*
X034467Y018152D01*
X034467Y017786D01*
X034833Y017786D01*
X034833Y017803D02*
X034849Y017803D01*
X034849Y017881D02*
X034833Y017881D01*
X034849Y017898D02*
X034849Y017595D01*
X035063Y017381D01*
X035366Y017381D01*
X035581Y017595D01*
X035581Y017898D01*
X035366Y018112D01*
X035063Y018112D01*
X034849Y017898D01*
X034788Y017960D02*
X034911Y017960D01*
X034989Y018038D02*
X034709Y018038D01*
X034631Y018117D02*
X043882Y018117D01*
X043900Y018195D02*
X035393Y018195D01*
X035472Y018274D02*
X043918Y018274D01*
X043941Y018352D02*
X035550Y018352D01*
X035581Y018431D02*
X043979Y018431D01*
X044017Y018509D02*
X035581Y018509D01*
X035581Y018588D02*
X044055Y018588D01*
X044093Y018666D02*
X035581Y018666D01*
X035521Y018745D02*
X044130Y018745D01*
X044168Y018823D02*
X035443Y018823D01*
X034987Y018823D02*
X034734Y018823D01*
X034734Y018745D02*
X034908Y018745D01*
X034849Y018666D02*
X034793Y018666D01*
X034793Y018588D02*
X034849Y018588D01*
X034849Y018509D02*
X034793Y018509D01*
X034793Y018431D02*
X034849Y018431D01*
X034879Y018352D02*
X034763Y018352D01*
X034685Y018274D02*
X034958Y018274D01*
X035036Y018195D02*
X034606Y018195D01*
X034467Y018117D02*
X034387Y018117D01*
X034387Y018038D02*
X034467Y018038D01*
X034467Y017960D02*
X034387Y017960D01*
X034387Y017881D02*
X034467Y017881D01*
X034467Y017803D02*
X034387Y017803D01*
X034387Y017567D02*
X034467Y017567D01*
X034467Y017489D02*
X034387Y017489D01*
X034387Y017410D02*
X034467Y017410D01*
X034665Y017410D02*
X035034Y017410D01*
X034955Y017489D02*
X034743Y017489D01*
X034822Y017567D02*
X034877Y017567D01*
X034849Y017646D02*
X034833Y017646D01*
X035396Y017410D02*
X043800Y017410D01*
X043800Y017332D02*
X030454Y017332D01*
X030454Y017410D02*
X031884Y017410D01*
X031914Y017381D02*
X032217Y017381D01*
X032431Y017595D01*
X032431Y017898D01*
X032217Y018112D01*
X031914Y018112D01*
X031699Y017898D01*
X031699Y017595D01*
X031914Y017381D01*
X031806Y017489D02*
X030454Y017489D01*
X030454Y017567D02*
X031727Y017567D01*
X031699Y017646D02*
X030454Y017646D01*
X030454Y017724D02*
X031699Y017724D01*
X031699Y017803D02*
X030454Y017803D01*
X030454Y017881D02*
X031699Y017881D01*
X031761Y017960D02*
X030454Y017960D01*
X030454Y018038D02*
X031840Y018038D01*
X031914Y018168D02*
X032217Y018168D01*
X032431Y018382D01*
X032431Y018685D01*
X032217Y018899D01*
X031914Y018899D01*
X031699Y018685D01*
X031699Y018382D01*
X031914Y018168D01*
X031887Y018195D02*
X030454Y018195D01*
X030454Y018117D02*
X034224Y018117D01*
X034022Y017646D02*
X034006Y017646D01*
X033978Y017567D02*
X034033Y017567D01*
X034111Y017489D02*
X033899Y017489D01*
X033821Y017410D02*
X034190Y017410D01*
X033459Y017410D02*
X033034Y017410D01*
X033004Y017381D02*
X033218Y017595D01*
X033218Y017898D01*
X033004Y018112D01*
X032701Y018112D01*
X032487Y017898D01*
X032487Y017595D01*
X032701Y017381D01*
X033004Y017381D01*
X033112Y017489D02*
X033380Y017489D01*
X033302Y017567D02*
X033191Y017567D01*
X033218Y017646D02*
X033274Y017646D01*
X033274Y017724D02*
X033218Y017724D01*
X033218Y017803D02*
X033274Y017803D01*
X033274Y017881D02*
X033218Y017881D01*
X033157Y017960D02*
X033336Y017960D01*
X033415Y018038D02*
X033078Y018038D01*
X033004Y018168D02*
X033218Y018382D01*
X033218Y018685D01*
X033004Y018899D01*
X032701Y018899D01*
X032487Y018685D01*
X032487Y018382D01*
X032701Y018168D01*
X033004Y018168D01*
X033031Y018195D02*
X033461Y018195D01*
X033383Y018274D02*
X033110Y018274D01*
X033188Y018352D02*
X033304Y018352D01*
X033274Y018431D02*
X033218Y018431D01*
X033218Y018509D02*
X033274Y018509D01*
X033274Y018588D02*
X033218Y018588D01*
X033218Y018666D02*
X033274Y018666D01*
X033334Y018745D02*
X033159Y018745D01*
X033080Y018823D02*
X033412Y018823D01*
X032625Y018823D02*
X032293Y018823D01*
X032372Y018745D02*
X032546Y018745D01*
X032487Y018666D02*
X032431Y018666D01*
X032431Y018588D02*
X032487Y018588D01*
X032487Y018509D02*
X032431Y018509D01*
X032431Y018431D02*
X032487Y018431D01*
X032517Y018352D02*
X032401Y018352D01*
X032322Y018274D02*
X032595Y018274D01*
X032674Y018195D02*
X032244Y018195D01*
X032291Y018038D02*
X032627Y018038D01*
X032549Y017960D02*
X032369Y017960D01*
X032431Y017881D02*
X032487Y017881D01*
X032487Y017803D02*
X032431Y017803D01*
X032431Y017724D02*
X032487Y017724D01*
X032487Y017646D02*
X032431Y017646D01*
X032403Y017567D02*
X032515Y017567D01*
X032593Y017489D02*
X032325Y017489D01*
X032246Y017410D02*
X032672Y017410D01*
X031808Y018274D02*
X030454Y018274D01*
X030454Y018352D02*
X031730Y018352D01*
X031699Y018431D02*
X030454Y018431D01*
X030454Y018509D02*
X031699Y018509D01*
X031699Y018588D02*
X030454Y018588D01*
X030454Y018666D02*
X031699Y018666D01*
X031759Y018745D02*
X030454Y018745D01*
X030454Y018823D02*
X031837Y018823D01*
X030454Y019373D02*
X040118Y019373D01*
X040197Y019451D02*
X030454Y019451D01*
X030454Y019530D02*
X040275Y019530D01*
X040354Y019608D02*
X030454Y019608D01*
X030454Y019687D02*
X040432Y019687D01*
X040511Y019765D02*
X030454Y019765D01*
X030454Y019844D02*
X040589Y019844D01*
X040668Y019922D02*
X030454Y019922D01*
X030454Y020001D02*
X040746Y020001D01*
X040825Y020079D02*
X030454Y020079D01*
X030454Y020158D02*
X040903Y020158D01*
X040982Y020236D02*
X030454Y020236D01*
X030454Y020315D02*
X041060Y020315D01*
X041116Y020393D02*
X030454Y020393D01*
X030454Y020472D02*
X041116Y020472D01*
X041116Y020550D02*
X030454Y020550D01*
X030454Y020629D02*
X041116Y020629D01*
X041116Y020707D02*
X030454Y020707D01*
X030454Y020786D02*
X041116Y020786D01*
X041116Y020864D02*
X030454Y020864D01*
X030454Y020943D02*
X041116Y020943D01*
X041116Y021021D02*
X035908Y021021D01*
X035996Y021100D02*
X041116Y021100D01*
X041116Y021178D02*
X036032Y021178D01*
X036045Y021257D02*
X041116Y021257D01*
X041116Y021335D02*
X036039Y021335D01*
X036007Y021414D02*
X041116Y021414D01*
X041116Y021492D02*
X035934Y021492D01*
X035765Y021265D02*
X034140Y022890D01*
X034140Y033140D01*
X034398Y033032D02*
X035568Y033032D01*
X035568Y033110D02*
X034420Y033110D01*
X034420Y033189D02*
X035568Y033189D01*
X035573Y033267D02*
X034390Y033267D01*
X034330Y033346D02*
X035606Y033346D01*
X035598Y032953D02*
X034349Y032953D01*
X034280Y032875D02*
X035630Y032875D01*
X035674Y032796D02*
X034280Y032796D01*
X034280Y032718D02*
X035753Y032718D01*
X035853Y032639D02*
X034280Y032639D01*
X034280Y032561D02*
X038335Y032561D01*
X038335Y032482D02*
X034280Y032482D01*
X034280Y032404D02*
X038335Y032404D01*
X038335Y032325D02*
X034280Y032325D01*
X034280Y032247D02*
X038335Y032247D01*
X038335Y032168D02*
X034280Y032168D01*
X034280Y032090D02*
X038335Y032090D01*
X038335Y032011D02*
X034280Y032011D01*
X034280Y031933D02*
X038335Y031933D01*
X038335Y031854D02*
X034280Y031854D01*
X034280Y031776D02*
X038335Y031776D01*
X038335Y031697D02*
X034280Y031697D01*
X034280Y031619D02*
X038335Y031619D01*
X038335Y031540D02*
X034280Y031540D01*
X034280Y031462D02*
X038335Y031462D01*
X038335Y031383D02*
X034280Y031383D01*
X034280Y031305D02*
X038335Y031305D01*
X038335Y031226D02*
X034280Y031226D01*
X034280Y031148D02*
X038335Y031148D01*
X038335Y031069D02*
X034280Y031069D01*
X034280Y030991D02*
X038335Y030991D01*
X038335Y030912D02*
X034280Y030912D01*
X034280Y030834D02*
X038335Y030834D01*
X038335Y030755D02*
X034280Y030755D01*
X034280Y030677D02*
X038335Y030677D01*
X038335Y030598D02*
X034280Y030598D01*
X034280Y030520D02*
X038335Y030520D01*
X038335Y030441D02*
X034280Y030441D01*
X034280Y030363D02*
X038335Y030363D01*
X038335Y030284D02*
X034280Y030284D01*
X034280Y030206D02*
X038335Y030206D01*
X038335Y030127D02*
X034280Y030127D01*
X034280Y030049D02*
X038335Y030049D01*
X038335Y029970D02*
X034280Y029970D01*
X034280Y029892D02*
X038335Y029892D01*
X038335Y029813D02*
X034280Y029813D01*
X034280Y029735D02*
X038335Y029735D01*
X038335Y029656D02*
X034280Y029656D01*
X034280Y029578D02*
X038335Y029578D01*
X038335Y029499D02*
X034280Y029499D01*
X034280Y029421D02*
X038335Y029421D01*
X038335Y029342D02*
X034280Y029342D01*
X034280Y029264D02*
X038335Y029264D01*
X038335Y029185D02*
X034280Y029185D01*
X034280Y029107D02*
X038335Y029107D01*
X038320Y029028D02*
X034280Y029028D01*
X034280Y028950D02*
X038263Y028950D01*
X038235Y028871D02*
X034280Y028871D01*
X034280Y028793D02*
X038235Y028793D01*
X038259Y028714D02*
X034280Y028714D01*
X034280Y028636D02*
X038311Y028636D01*
X038436Y028557D02*
X034280Y028557D01*
X034280Y028479D02*
X039593Y028479D01*
X039574Y028486D02*
X039916Y028345D01*
X040285Y028345D01*
X040627Y028486D01*
X040888Y028748D01*
X041030Y029089D01*
X041030Y029459D01*
X040888Y029800D01*
X040627Y030061D01*
X040285Y030203D01*
X039916Y030203D01*
X039574Y030061D01*
X039313Y029800D01*
X039172Y029459D01*
X039172Y029089D01*
X039313Y028748D01*
X039574Y028486D01*
X039504Y028557D02*
X038594Y028557D01*
X038719Y028636D02*
X039425Y028636D01*
X039347Y028714D02*
X038771Y028714D01*
X038795Y028793D02*
X039294Y028793D01*
X039262Y028871D02*
X038795Y028871D01*
X038767Y028950D02*
X039229Y028950D01*
X039197Y029028D02*
X038710Y029028D01*
X038695Y029107D02*
X039172Y029107D01*
X039172Y029185D02*
X038695Y029185D01*
X038695Y029264D02*
X039172Y029264D01*
X039172Y029342D02*
X038695Y029342D01*
X038695Y029421D02*
X039172Y029421D01*
X039188Y029499D02*
X038695Y029499D01*
X038695Y029578D02*
X039221Y029578D01*
X039253Y029656D02*
X038695Y029656D01*
X038695Y029735D02*
X039286Y029735D01*
X039326Y029813D02*
X038695Y029813D01*
X038695Y029892D02*
X039405Y029892D01*
X039483Y029970D02*
X038695Y029970D01*
X038695Y030049D02*
X039562Y030049D01*
X039733Y030127D02*
X038695Y030127D01*
X038695Y030206D02*
X041116Y030206D01*
X041116Y030284D02*
X038695Y030284D01*
X038695Y030363D02*
X041116Y030363D01*
X041116Y030441D02*
X038695Y030441D01*
X038695Y030520D02*
X041116Y030520D01*
X041116Y030598D02*
X038695Y030598D01*
X038695Y030677D02*
X041116Y030677D01*
X041116Y030755D02*
X038695Y030755D01*
X038695Y030834D02*
X041116Y030834D01*
X041113Y030912D02*
X038695Y030912D01*
X038695Y030991D02*
X041035Y030991D01*
X040956Y031069D02*
X038695Y031069D01*
X038695Y031148D02*
X040878Y031148D01*
X040799Y031226D02*
X038695Y031226D01*
X038695Y031305D02*
X040721Y031305D01*
X040642Y031383D02*
X038695Y031383D01*
X038695Y031462D02*
X040564Y031462D01*
X040485Y031540D02*
X038695Y031540D01*
X038695Y031619D02*
X040407Y031619D01*
X040328Y031697D02*
X038695Y031697D01*
X038695Y031776D02*
X040250Y031776D01*
X040171Y031854D02*
X038695Y031854D01*
X038695Y031933D02*
X040093Y031933D01*
X040014Y032011D02*
X038695Y032011D01*
X038695Y032090D02*
X039936Y032090D01*
X039857Y032168D02*
X038695Y032168D01*
X038695Y032247D02*
X039779Y032247D01*
X039700Y032325D02*
X038695Y032325D01*
X038695Y032404D02*
X039622Y032404D01*
X039543Y032482D02*
X038737Y032482D01*
X038815Y032561D02*
X039465Y032561D01*
X038620Y032875D02*
X036650Y032875D01*
X036682Y032953D02*
X038598Y032953D01*
X038568Y033032D02*
X036712Y033032D01*
X036712Y033110D02*
X038568Y033110D01*
X038568Y033189D02*
X036712Y033189D01*
X036707Y033267D02*
X038573Y033267D01*
X038606Y033346D02*
X036674Y033346D01*
X036642Y033424D02*
X038638Y033424D01*
X038693Y033503D02*
X036587Y033503D01*
X036508Y033581D02*
X038772Y033581D01*
X038899Y033660D02*
X036381Y033660D01*
X036606Y032796D02*
X038542Y032796D01*
X038463Y032718D02*
X036527Y032718D01*
X036427Y032639D02*
X038385Y032639D01*
X040468Y030127D02*
X041116Y030127D01*
X041116Y030049D02*
X040640Y030049D01*
X040718Y029970D02*
X041116Y029970D01*
X041116Y029892D02*
X040797Y029892D01*
X040875Y029813D02*
X041116Y029813D01*
X041116Y029735D02*
X040915Y029735D01*
X040948Y029656D02*
X041116Y029656D01*
X041116Y029578D02*
X040980Y029578D01*
X041013Y029499D02*
X041116Y029499D01*
X041116Y029421D02*
X041030Y029421D01*
X041030Y029342D02*
X041116Y029342D01*
X041116Y029264D02*
X041030Y029264D01*
X041030Y029185D02*
X041116Y029185D01*
X041116Y029107D02*
X041030Y029107D01*
X041004Y029028D02*
X041116Y029028D01*
X041116Y028950D02*
X040972Y028950D01*
X040939Y028871D02*
X041116Y028871D01*
X041116Y028793D02*
X040907Y028793D01*
X040855Y028714D02*
X041116Y028714D01*
X041116Y028636D02*
X040776Y028636D01*
X040698Y028557D02*
X041116Y028557D01*
X041116Y028479D02*
X040608Y028479D01*
X040419Y028400D02*
X041116Y028400D01*
X041116Y028322D02*
X034280Y028322D01*
X034280Y028400D02*
X039783Y028400D01*
X041022Y027929D02*
X034280Y027929D01*
X034280Y027851D02*
X041016Y027851D01*
X041029Y027772D02*
X034280Y027772D01*
X034280Y027694D02*
X041065Y027694D01*
X041116Y027615D02*
X034280Y027615D01*
X034280Y027537D02*
X041116Y027537D01*
X041116Y027458D02*
X034280Y027458D01*
X034280Y027380D02*
X041116Y027380D01*
X041116Y027301D02*
X034280Y027301D01*
X034280Y027223D02*
X041116Y027223D01*
X041116Y027144D02*
X034280Y027144D01*
X034280Y027066D02*
X041116Y027066D01*
X041116Y026987D02*
X034280Y026987D01*
X034280Y026909D02*
X041116Y026909D01*
X041116Y026830D02*
X034280Y026830D01*
X034280Y026752D02*
X041116Y026752D01*
X041116Y026673D02*
X034280Y026673D01*
X034280Y026595D02*
X041116Y026595D01*
X041116Y026516D02*
X034280Y026516D01*
X034280Y026438D02*
X041116Y026438D01*
X041116Y026359D02*
X034280Y026359D01*
X034280Y026281D02*
X041116Y026281D01*
X041116Y026202D02*
X034280Y026202D01*
X034280Y026124D02*
X041116Y026124D01*
X041116Y026045D02*
X034280Y026045D01*
X034280Y025967D02*
X035052Y025967D01*
X035068Y025982D02*
X034954Y025869D01*
X034893Y025720D01*
X034893Y025560D01*
X034954Y025411D01*
X035068Y025298D01*
X035216Y025236D01*
X035377Y025236D01*
X035525Y025298D01*
X035639Y025411D01*
X035700Y025560D01*
X035700Y025720D01*
X035639Y025869D01*
X035525Y025982D01*
X035377Y026044D01*
X035216Y026044D01*
X035068Y025982D01*
X034973Y025888D02*
X034280Y025888D01*
X034280Y025810D02*
X034929Y025810D01*
X034897Y025731D02*
X034280Y025731D01*
X034280Y025653D02*
X034893Y025653D01*
X034893Y025574D02*
X034280Y025574D01*
X034280Y025496D02*
X034919Y025496D01*
X034952Y025417D02*
X034280Y025417D01*
X034280Y025339D02*
X035027Y025339D01*
X035158Y025260D02*
X034280Y025260D01*
X034280Y025182D02*
X041116Y025182D01*
X041116Y025260D02*
X035434Y025260D01*
X035566Y025339D02*
X041116Y025339D01*
X041116Y025417D02*
X035641Y025417D01*
X035673Y025496D02*
X041116Y025496D01*
X041116Y025574D02*
X035700Y025574D01*
X035700Y025653D02*
X041116Y025653D01*
X041116Y025731D02*
X035696Y025731D01*
X035663Y025810D02*
X041116Y025810D01*
X041116Y025888D02*
X035619Y025888D01*
X035541Y025967D02*
X041116Y025967D01*
X041116Y025103D02*
X034280Y025103D01*
X034280Y025025D02*
X041116Y025025D01*
X041116Y024946D02*
X034280Y024946D01*
X034280Y024868D02*
X041116Y024868D01*
X041116Y024789D02*
X034280Y024789D01*
X034280Y024711D02*
X041116Y024711D01*
X041116Y024632D02*
X034280Y024632D01*
X034280Y024554D02*
X041116Y024554D01*
X041116Y024475D02*
X034280Y024475D01*
X034280Y024397D02*
X041116Y024397D01*
X041116Y024318D02*
X034280Y024318D01*
X034280Y024240D02*
X041116Y024240D01*
X041116Y024161D02*
X034280Y024161D01*
X034280Y024083D02*
X041116Y024083D01*
X041116Y024004D02*
X034280Y024004D01*
X034280Y023926D02*
X041116Y023926D01*
X041116Y023847D02*
X034280Y023847D01*
X034280Y023769D02*
X041116Y023769D01*
X041116Y023690D02*
X034280Y023690D01*
X034280Y023612D02*
X041116Y023612D01*
X041116Y023533D02*
X034280Y023533D01*
X034280Y023455D02*
X041116Y023455D01*
X041116Y023376D02*
X034280Y023376D01*
X034280Y023298D02*
X041116Y023298D01*
X041116Y023219D02*
X034280Y023219D01*
X034280Y023141D02*
X041116Y023141D01*
X041116Y023062D02*
X034280Y023062D01*
X034280Y022984D02*
X041116Y022984D01*
X041116Y022905D02*
X034323Y022905D01*
X034401Y022827D02*
X041116Y022827D01*
X041116Y022748D02*
X034480Y022748D01*
X034558Y022670D02*
X041116Y022670D01*
X041116Y022591D02*
X034637Y022591D01*
X034715Y022513D02*
X041116Y022513D01*
X041116Y022434D02*
X034794Y022434D01*
X034872Y022356D02*
X041116Y022356D01*
X041116Y022277D02*
X034951Y022277D01*
X035029Y022199D02*
X041116Y022199D01*
X041116Y022120D02*
X035108Y022120D01*
X035186Y022042D02*
X041116Y022042D01*
X041116Y021963D02*
X035265Y021963D01*
X035343Y021885D02*
X041116Y021885D01*
X041116Y021806D02*
X035422Y021806D01*
X035500Y021728D02*
X041116Y021728D01*
X041116Y021649D02*
X035579Y021649D01*
X035657Y021571D02*
X041116Y021571D01*
X043864Y018038D02*
X035440Y018038D01*
X035519Y017960D02*
X043846Y017960D01*
X043828Y017881D02*
X035581Y017881D01*
X035581Y017803D02*
X043810Y017803D01*
X043800Y017724D02*
X035581Y017724D01*
X035581Y017646D02*
X043800Y017646D01*
X043800Y017567D02*
X035553Y017567D01*
X035474Y017489D02*
X043800Y017489D01*
X043800Y017253D02*
X030454Y017253D01*
X030454Y017175D02*
X043800Y017175D01*
X043817Y017096D02*
X030454Y017096D01*
X030454Y017018D02*
X043835Y017018D01*
X043853Y016939D02*
X030454Y016939D01*
X030454Y016861D02*
X043871Y016861D01*
X043889Y016782D02*
X030454Y016782D01*
X030454Y016704D02*
X043907Y016704D01*
X043925Y016625D02*
X030454Y016625D01*
X030454Y016547D02*
X043957Y016547D01*
X043994Y016468D02*
X030454Y016468D01*
X030454Y016390D02*
X044032Y016390D01*
X044070Y016311D02*
X030459Y016311D01*
X030454Y016316D02*
X030454Y022058D01*
X030455Y022059D01*
X030534Y022138D01*
X030576Y022241D01*
X030576Y022352D01*
X030534Y022455D01*
X030455Y022534D01*
X030352Y022576D01*
X030241Y022576D01*
X030138Y022534D01*
X030059Y022455D01*
X030016Y022352D01*
X030016Y022327D01*
X030014Y022325D01*
X030014Y016316D01*
X029996Y016299D01*
X029954Y016196D01*
X029954Y016084D01*
X029996Y015981D01*
X030075Y015903D01*
X030178Y015860D01*
X030289Y015860D01*
X030392Y015903D01*
X030471Y015981D01*
X030514Y016084D01*
X030514Y016196D01*
X030471Y016299D01*
X030454Y016316D01*
X030498Y016233D02*
X044108Y016233D01*
X044146Y016154D02*
X030514Y016154D01*
X030510Y016076D02*
X044183Y016076D01*
X044245Y015997D02*
X030478Y015997D01*
X030408Y015919D02*
X044308Y015919D01*
X044370Y015840D02*
X029142Y015840D01*
X029221Y015762D02*
X044433Y015762D01*
X044496Y015683D02*
X029299Y015683D01*
X029378Y015605D02*
X044563Y015605D01*
X044661Y015526D02*
X029456Y015526D01*
X029535Y015448D02*
X044760Y015448D01*
X044858Y015369D02*
X029613Y015369D01*
X029692Y015291D02*
X044957Y015291D01*
X045086Y015212D02*
X029770Y015212D01*
X029849Y015134D02*
X045249Y015134D01*
X045412Y015055D02*
X029927Y015055D01*
X030006Y014977D02*
X045618Y014977D01*
X045962Y014898D02*
X030084Y014898D01*
X030163Y014820D02*
X048330Y014820D01*
X035622Y021021D02*
X030454Y021021D01*
X030454Y021100D02*
X035534Y021100D01*
X035498Y021178D02*
X030454Y021178D01*
X030454Y021257D02*
X035485Y021257D01*
X035491Y021335D02*
X030454Y021335D01*
X030454Y021414D02*
X035418Y021414D01*
X035340Y021492D02*
X030454Y021492D01*
X030454Y021571D02*
X035261Y021571D01*
X035183Y021649D02*
X030454Y021649D01*
X030454Y021728D02*
X035104Y021728D01*
X035026Y021806D02*
X030454Y021806D01*
X030454Y021885D02*
X034947Y021885D01*
X034869Y021963D02*
X030454Y021963D01*
X030454Y022042D02*
X034790Y022042D01*
X034712Y022120D02*
X030516Y022120D01*
X030559Y022199D02*
X034633Y022199D01*
X034555Y022277D02*
X030576Y022277D01*
X030575Y022356D02*
X034476Y022356D01*
X034398Y022434D02*
X030542Y022434D01*
X030476Y022513D02*
X034319Y022513D01*
X034241Y022591D02*
X028820Y022591D01*
X028820Y022513D02*
X030117Y022513D01*
X030050Y022434D02*
X028820Y022434D01*
X028820Y022356D02*
X030018Y022356D01*
X030014Y022277D02*
X028820Y022277D01*
X028820Y022199D02*
X030014Y022199D01*
X030014Y022120D02*
X028820Y022120D01*
X028820Y022042D02*
X030014Y022042D01*
X030014Y021963D02*
X028820Y021963D01*
X028820Y021885D02*
X030014Y021885D01*
X030014Y021806D02*
X028820Y021806D01*
X028820Y021728D02*
X030014Y021728D01*
X030014Y021649D02*
X028820Y021649D01*
X028820Y021571D02*
X030014Y021571D01*
X030014Y021492D02*
X028820Y021492D01*
X028820Y021414D02*
X030014Y021414D01*
X030014Y021335D02*
X028820Y021335D01*
X028820Y021257D02*
X030014Y021257D01*
X030014Y021178D02*
X028820Y021178D01*
X028820Y021100D02*
X030014Y021100D01*
X030014Y021021D02*
X028820Y021021D01*
X028820Y020943D02*
X030014Y020943D01*
X030014Y020864D02*
X028820Y020864D01*
X028820Y020786D02*
X030014Y020786D01*
X030014Y020707D02*
X028820Y020707D01*
X028820Y020629D02*
X030014Y020629D01*
X030014Y020550D02*
X028820Y020550D01*
X028820Y020472D02*
X030014Y020472D01*
X030014Y020393D02*
X028820Y020393D01*
X028820Y020315D02*
X030014Y020315D01*
X030014Y020236D02*
X028820Y020236D01*
X028820Y020158D02*
X030014Y020158D01*
X030014Y020079D02*
X028820Y020079D01*
X028820Y020001D02*
X030014Y020001D01*
X030014Y019922D02*
X028820Y019922D01*
X028820Y019844D02*
X030014Y019844D01*
X030014Y019765D02*
X028820Y019765D01*
X028820Y019687D02*
X030014Y019687D01*
X030014Y019608D02*
X028820Y019608D01*
X028820Y019530D02*
X030014Y019530D01*
X030014Y019451D02*
X028820Y019451D01*
X028820Y019373D02*
X030014Y019373D01*
X030014Y019294D02*
X028820Y019294D01*
X028820Y019216D02*
X030014Y019216D01*
X030014Y019137D02*
X028820Y019137D01*
X028820Y019059D02*
X030014Y019059D01*
X030014Y018980D02*
X028820Y018980D01*
X028820Y018902D02*
X030014Y018902D01*
X030014Y018823D02*
X028820Y018823D01*
X028820Y018745D02*
X030014Y018745D01*
X030014Y018666D02*
X028820Y018666D01*
X028820Y018588D02*
X030014Y018588D01*
X030014Y018509D02*
X028820Y018509D01*
X028820Y018431D02*
X030014Y018431D01*
X030014Y018352D02*
X028820Y018352D01*
X028820Y018274D02*
X030014Y018274D01*
X030014Y018195D02*
X028820Y018195D01*
X028820Y018117D02*
X030014Y018117D01*
X030014Y018038D02*
X028820Y018038D01*
X028820Y017960D02*
X030014Y017960D01*
X030014Y017881D02*
X028820Y017881D01*
X028820Y017803D02*
X030014Y017803D01*
X030014Y017724D02*
X028820Y017724D01*
X028820Y017646D02*
X030014Y017646D01*
X030014Y017567D02*
X028820Y017567D01*
X028820Y017489D02*
X030014Y017489D01*
X030014Y017410D02*
X028820Y017410D01*
X028820Y017332D02*
X030014Y017332D01*
X030014Y017253D02*
X028820Y017253D01*
X028820Y017175D02*
X030014Y017175D01*
X030014Y017096D02*
X028820Y017096D01*
X028820Y017018D02*
X030014Y017018D01*
X030014Y016939D02*
X028820Y016939D01*
X028820Y016861D02*
X030014Y016861D01*
X030014Y016782D02*
X028820Y016782D01*
X028820Y016704D02*
X030014Y016704D01*
X030014Y016625D02*
X028820Y016625D01*
X028820Y016547D02*
X030014Y016547D01*
X030014Y016468D02*
X028820Y016468D01*
X028820Y016390D02*
X030014Y016390D01*
X030009Y016311D02*
X028820Y016311D01*
X028820Y016233D02*
X029969Y016233D01*
X029954Y016154D02*
X028820Y016154D01*
X028820Y016076D02*
X029957Y016076D01*
X029990Y015997D02*
X028820Y015997D01*
X028982Y015919D02*
X030059Y015919D01*
X023954Y018274D02*
X021132Y018274D01*
X021132Y018352D02*
X023722Y018352D01*
X023587Y018431D02*
X021132Y018431D01*
X021132Y018509D02*
X023451Y018509D01*
X023365Y018588D02*
X021132Y018588D01*
X021132Y018666D02*
X023287Y018666D01*
X023208Y018745D02*
X021132Y018745D01*
X021132Y018823D02*
X023140Y018823D01*
X023095Y018902D02*
X021132Y018902D01*
X021132Y018980D02*
X023050Y018980D01*
X023004Y019059D02*
X021132Y019059D01*
X021132Y019137D02*
X022959Y019137D01*
X022937Y019216D02*
X021132Y019216D01*
X021132Y019294D02*
X022916Y019294D01*
X022895Y019373D02*
X021132Y019373D01*
X021132Y019451D02*
X022874Y019451D01*
X022855Y019530D02*
X021132Y019530D01*
X021132Y019608D02*
X022855Y019608D01*
X022855Y019687D02*
X021132Y019687D01*
X021132Y019765D02*
X022855Y019765D01*
X022855Y019844D02*
X021132Y019844D01*
X021132Y019922D02*
X022857Y019922D01*
X022878Y020001D02*
X021132Y020001D01*
X021132Y020079D02*
X022899Y020079D01*
X022920Y020158D02*
X021132Y020158D01*
X021132Y020236D02*
X022941Y020236D01*
X022967Y020315D02*
X021132Y020315D01*
X021132Y020393D02*
X023012Y020393D01*
X023058Y020472D02*
X021132Y020472D01*
X021132Y020550D02*
X023103Y020550D01*
X023148Y020629D02*
X021132Y020629D01*
X021132Y020707D02*
X023222Y020707D01*
X023301Y020786D02*
X021132Y020786D01*
X021132Y020864D02*
X023379Y020864D01*
X023475Y020943D02*
X021132Y020943D01*
X021132Y021021D02*
X023611Y021021D01*
X023747Y021100D02*
X021132Y021100D01*
X021132Y021178D02*
X024006Y021178D01*
X022641Y022591D02*
X021581Y022591D01*
X024484Y024828D02*
X024671Y025015D01*
X024671Y025734D01*
X024671Y023234D02*
X024703Y023203D01*
X027570Y023062D02*
X027729Y023062D01*
X027652Y022984D02*
X027570Y022984D01*
X027570Y022905D02*
X027619Y022905D01*
X027610Y022827D02*
X027563Y022827D01*
X028820Y022827D02*
X034005Y022827D01*
X034000Y022905D02*
X028820Y022905D01*
X028820Y022984D02*
X034000Y022984D01*
X034000Y023062D02*
X028820Y023062D01*
X028820Y023141D02*
X034000Y023141D01*
X034000Y023219D02*
X028820Y023219D01*
X028820Y023298D02*
X034000Y023298D01*
X034000Y023376D02*
X028820Y023376D01*
X028820Y023455D02*
X034000Y023455D01*
X034000Y023533D02*
X028820Y023533D01*
X028820Y023612D02*
X034000Y023612D01*
X034000Y023690D02*
X028820Y023690D01*
X028820Y023769D02*
X034000Y023769D01*
X034000Y023847D02*
X028820Y023847D01*
X028820Y023926D02*
X034000Y023926D01*
X034000Y024004D02*
X028820Y024004D01*
X028820Y024083D02*
X034000Y024083D01*
X034000Y024161D02*
X028820Y024161D01*
X028820Y024240D02*
X034000Y024240D01*
X034000Y024318D02*
X028820Y024318D01*
X028820Y022748D02*
X034084Y022748D01*
X034162Y022670D02*
X028820Y022670D01*
X034280Y028008D02*
X041055Y028008D01*
X041116Y028086D02*
X034280Y028086D01*
X034280Y028165D02*
X041116Y028165D01*
X041116Y028243D02*
X034280Y028243D01*
X023899Y033660D02*
X021467Y033660D01*
X021565Y033581D02*
X023772Y033581D01*
X023693Y033503D02*
X021634Y033503D01*
X021683Y033424D02*
X023638Y033424D01*
X023606Y033346D02*
X021717Y033346D01*
X021740Y033267D02*
X023573Y033267D01*
X023568Y033189D02*
X021752Y033189D01*
X017021Y028243D02*
X015050Y028243D01*
X015050Y028165D02*
X016675Y028165D01*
X016611Y028086D02*
X015121Y028086D01*
X015157Y028008D02*
X016579Y028008D01*
X016579Y027929D02*
X015170Y027929D01*
X015164Y027851D02*
X016559Y027851D01*
X016480Y027772D02*
X015131Y027772D01*
X015058Y027694D02*
X016402Y027694D01*
X017021Y024397D02*
X014529Y024397D01*
X014564Y024318D02*
X017021Y024318D01*
X017021Y024240D02*
X014576Y024240D01*
X014569Y024161D02*
X017021Y024161D01*
X017021Y024083D02*
X014537Y024083D01*
X014516Y024004D02*
X017021Y024004D01*
X017021Y023926D02*
X014516Y023926D01*
X014516Y023847D02*
X017021Y023847D01*
X017021Y023769D02*
X014516Y023769D01*
X014516Y023690D02*
X017021Y023690D01*
X016997Y023612D02*
X014516Y023612D01*
X014516Y023533D02*
X016927Y023533D01*
X016895Y023455D02*
X014516Y023455D01*
X013546Y024203D02*
X012640Y024203D01*
X022509Y015526D02*
X022600Y015526D01*
D25*
X025234Y022796D02*
X025734Y022796D01*
X025890Y022953D01*
X025890Y022890D01*
X026171Y022609D01*
X027671Y022609D01*
X027890Y022828D01*
X025890Y022953D02*
X025890Y026109D01*
X025921Y026140D01*
X026515Y026828D02*
X026515Y028953D01*
X026828Y029265D01*
X027640Y029640D02*
X027640Y030265D01*
X028453Y031078D01*
X031078Y031078D01*
X033140Y033140D01*
X030265Y028640D02*
X028453Y030453D01*
X027640Y030953D02*
X027194Y030507D01*
X026640Y030507D01*
X030265Y028640D02*
X030265Y024703D01*
X028953Y026953D02*
X028515Y027390D01*
X027328Y027390D01*
X025078Y024453D02*
X025390Y024140D01*
X025390Y023203D01*
X025046Y022984D02*
X025046Y023453D01*
X024984Y023515D01*
X024984Y023640D01*
X025046Y022984D02*
X025234Y022796D01*
X014890Y027921D02*
X014890Y028657D01*
X014935Y028703D01*
D26*
X014296Y024234D02*
X014296Y022578D01*
X015671Y021203D01*
X015671Y016234D01*
X015671Y016171D02*
X014640Y015140D01*
X013171Y015140D01*
X013109Y015078D02*
X009140Y015078D01*
X008203Y014140D01*
X030234Y016140D02*
X030234Y022234D01*
D27*
X023230Y026090D02*
X023125Y026218D01*
X023125Y031648D01*
X017171Y031109D02*
X015140Y033140D01*
X017171Y031109D02*
X017171Y023390D01*
X015140Y021140D02*
X013921Y022359D01*
X013921Y023734D01*
X013453Y023734D02*
X013453Y022328D01*
X014609Y021171D01*
M02*
